<svg width="54" height="49" viewBox="0 0 54 49" fill="none" xmlns="http://www.w3.org/2000/svg">
<path fill-rule="evenodd" clip-rule="evenodd" d="M27.1719 0.863281C12.1261 0.896747 -0.0336837 13.0114 7.01018e-05 27.9204C0.016947 35.2577 3.04635 42.2772 8.39633 47.3556C10.3119 49.1711 13.2738 49.3217 15.3665 47.7154C22.2438 42.662 31.6527 42.662 38.5216 47.7154C40.6396 49.3719 43.669 49.2213 45.6015 47.3556C56.4617 37.0482 56.8415 19.9555 46.4369 9.18789C41.3991 3.96723 34.4627 0.963679 27.1719 0.863281ZM27.02 41.2565C19.7376 41.4907 13.645 35.8267 13.4088 28.6064C13.4088 28.3554 13.4003 28.0961 13.4088 27.8451C13.1556 20.4324 19.0119 14.2245 26.4884 13.9819C33.9648 13.7392 40.2262 19.5372 40.4709 26.9499C40.4793 27.2511 40.4793 27.5522 40.4709 27.8451C40.665 35.0569 34.9268 41.0641 27.6529 41.2565C27.4166 41.2565 27.1803 41.2565 26.944 41.2565" fill="#62D84E"/>
</svg>
