<svg width="99" height="34" viewBox="0 0 99 34" fill="none" xmlns="http://www.w3.org/2000/svg">
<g clip-path="url(#clip0_115_571)">
<path fill-rule="evenodd" clip-rule="evenodd" d="M18.125 19.8774L24.4647 12.8018L29.8333 25.3759H20.5103L18.125 19.8774Z" fill="#0B2029"/>
<path fill-rule="evenodd" clip-rule="evenodd" d="M28.1942 0H32.1486L3.95437 32.5295H0L28.1942 0Z" fill="#0B2029"/>
<path fill-rule="evenodd" clip-rule="evenodd" d="M33.6396 0H37.6643L9.54744 32.5295H5.44531L33.6396 0Z" fill="#0B2029"/>
<path fill-rule="evenodd" clip-rule="evenodd" d="M44.0753 8.65946H49.9717L51.5337 2.93359H36.5465L31.5508 8.65946H36.9194L32.2966 25.3753H39.5299L44.0753 8.65946Z" fill="#0B2029"/>
<path fill-rule="evenodd" clip-rule="evenodd" d="M57.803 17.6184L60.1179 17.4692C63.2491 17.6966 62.5806 19.8775 62.3554 21.0852L61.2367 25.376H68.9906C68.097 24.5449 68.9132 22.2858 69.3636 21.0071C70.4049 17.9168 70.1094 15.7358 67.4989 14.9828L67.5763 14.6844C71.01 13.2565 72.5017 10.9974 72.7972 8.66021C73.5431 3.389 70.1868 2.93434 64.8885 2.78516H53.0324L46.9883 25.376H54.0738L58.6262 8.20555H62.5032C64.5156 8.20555 65.4092 8.80939 65.2614 10.1663C64.8885 11.6723 64.2904 12.3472 61.6096 12.3472H59.3721L57.803 17.6184Z" fill="#0B2029"/>
<path fill-rule="evenodd" clip-rule="evenodd" d="M21.1094 26.7324H99.0006L98.6277 27.862H21.6301L21.1094 26.7324Z" fill="#0B2029"/>
<path fill-rule="evenodd" clip-rule="evenodd" d="M75.7731 25.376L83.907 12.3472L84.878 17.6184H82.1127L79.2841 22.3639H85.6238L85.9967 25.376H93.6029L89.7259 2.78516H82.1127L68.6172 25.376H75.7731Z" fill="#0B2029"/>
<path fill-rule="evenodd" clip-rule="evenodd" d="M10.8926 2.78516H20.2156L22.8261 9.03672L16.6342 16.3397L10.8926 2.78516Z" fill="#0B2029"/>
<path fill-rule="evenodd" clip-rule="evenodd" d="M96.8126 22.1367C95.7712 22.1367 95.0254 22.9679 95.0254 23.9411C95.0254 24.9144 95.7712 25.7456 96.8126 25.7456C97.7836 25.7456 98.5998 24.9144 98.5998 23.9411C98.5998 22.9679 97.7766 22.1367 96.8126 22.1367ZM96.7352 22.4422H96.8126C97.6358 22.4422 98.2269 23.1171 98.2269 23.9483C98.2269 24.7794 97.6288 25.4543 96.8126 25.4543C95.9964 25.4543 95.3983 24.7794 95.3983 23.9483C95.3983 23.1171 95.9964 22.5203 96.7422 22.4422H96.7352ZM96.1371 22.8897V24.9997H96.4326V24.0974H96.8056L97.3262 24.9997H97.6992L97.1011 24.0974C97.3966 24.0193 97.6218 23.7991 97.6218 23.4936C97.6218 23.1171 97.3966 22.8897 96.8759 22.8897H96.1301H96.1371ZM96.4397 23.7991V23.1952H96.89C97.1855 23.1952 97.2629 23.2734 97.2629 23.4936C97.2629 23.7138 97.1855 23.792 96.9674 23.792H96.4467L96.4397 23.7991Z" fill="#0B2029"/>
<path d="M61.4044 33.6875C61.4044 33.6875 61.4677 33.7514 61.5029 33.787C61.524 33.8083 61.5311 33.8296 61.524 33.8509C61.517 33.8722 61.51 33.8864 61.5029 33.8864C61.4396 33.8864 61.3763 33.8864 61.3129 33.8864C61.2496 33.8864 61.1793 33.8722 61.2567 33.7941C61.2989 33.7514 61.3552 33.723 61.4044 33.6946V33.6875Z" fill="#0B2029"/>
<path d="M56.4168 29.7448C56.269 29.7377 56.3323 29.624 56.3183 29.5459C56.5082 29.553 56.5153 29.5601 56.4168 29.7448Z" fill="#0B2029"/>
<path d="M61.5039 33.8866V33.7871C61.5039 33.7871 61.5672 33.851 61.6024 33.8866H61.5039Z" fill="#0B2029"/>
<path d="M48.9715 33.0977V33.2966H48.8729C48.887 33.2184 48.8237 33.1048 48.9715 33.0977Z" fill="#0B2029"/>
<path d="M56.3174 29.5526H50.6181C50.4914 29.5526 50.3577 29.5384 50.2311 29.5526C50.1044 29.5668 50.1678 29.6733 50.1537 29.7444C50.1748 29.7799 50.2029 29.8012 50.224 29.8225L50.1537 29.7444C50.1537 29.7444 50.0763 29.7586 50.0763 29.7799C49.9637 30.2488 49.7315 30.675 49.5697 31.1226V31.3215C49.4219 31.3286 49.4852 31.4422 49.4712 31.5204L49.3727 31.6198C49.3516 31.6909 49.3304 31.7619 49.3093 31.833C49.2601 31.9893 49.1405 32.1313 49.1827 32.3089C49.0138 32.5505 48.8098 33.0549 48.7887 33.2964C48.5987 33.3959 48.6409 33.609 48.5635 33.7582C48.5072 33.8647 48.4931 33.886 48.6127 33.886C49.4852 33.886 50.3648 33.886 51.2373 33.886H54.4458C54.5584 33.886 54.671 33.9002 54.7835 33.886C54.9032 33.8718 54.8469 33.7653 54.8609 33.6942C54.8961 33.6587 54.9243 33.6232 54.9594 33.5948V33.4953C54.9946 33.4669 55.0228 33.4243 55.058 33.3959C55.0439 33.3177 55.1072 33.204 54.9594 33.1969H51.5117C51.3991 33.1969 51.2865 33.1969 51.1739 33.1969C50.9558 33.1969 51.0895 33.1188 51.1388 33.0478C51.1599 33.0122 51.1388 32.9554 51.1388 32.9057C51.2302 32.792 51.2513 32.657 51.2373 32.5078H51.1388V32.4865C51.1388 32.4865 51.2021 32.5221 51.2373 32.5078L51.3358 32.4084V32.3089C51.3358 32.3089 51.3991 32.2379 51.4343 32.2095V32.0106C51.568 31.8969 51.7228 31.9111 51.8846 31.9111C52.94 31.9111 54.0025 31.9111 55.058 31.9111C55.2409 31.9111 55.3394 31.8448 55.3535 31.7122C55.3887 31.6127 55.4168 31.5133 55.452 31.4138C55.4801 31.3925 55.5083 31.3712 55.5294 31.3499C55.5012 31.3428 55.4731 31.3215 55.4449 31.3215C55.4168 31.3215 55.3816 31.3215 55.3464 31.3215C54.3191 31.3215 53.2919 31.3215 52.2716 31.3215C52.1168 31.3215 51.955 31.3357 51.8213 31.222V31.1226C51.8565 31.0231 51.8846 30.9236 51.9198 30.8242C51.955 30.7887 51.9831 30.7531 52.0183 30.7247V30.5258C52.0183 30.5258 52.0816 30.4548 52.1168 30.4264V30.2274C52.2505 30.1919 52.3842 30.1493 52.5179 30.1351C52.6656 30.1209 52.8134 30.1351 52.9541 30.1351C53.6859 30.1351 54.4177 30.1209 55.1494 30.1351C55.4309 30.1422 55.7264 30.0143 55.9938 30.2203C56.0149 30.2346 56.0782 30.199 56.1204 30.1848C56.3245 30.0996 56.423 29.9504 56.423 29.7302C56.3667 29.6733 56.3948 29.581 56.3245 29.5312L56.3174 29.5526ZM54.6006 33.7866C54.6006 33.7866 54.6358 33.744 54.6428 33.7013C54.6428 33.7013 54.6358 33.7013 54.6287 33.6942C54.6358 33.6942 54.6428 33.6942 54.6498 33.6942C54.6498 33.7511 54.6217 33.7724 54.6006 33.7866ZM55.2409 31.7193C55.2409 31.7193 55.2409 31.7193 55.2409 31.7122C55.2409 31.7122 55.2479 31.7193 55.255 31.7193H55.2409Z" fill="#0B2029"/>
<path d="M98.1629 29.7448C98.0151 29.7377 98.0784 29.624 98.0644 29.5459C98.2543 29.553 98.2614 29.5601 98.1629 29.7448Z" fill="#0B2029"/>
<path d="M90.7175 33.0977V33.2966H90.619C90.6331 33.2184 90.5698 33.1048 90.7175 33.0977Z" fill="#0B2029"/>
<path d="M98.0639 29.5526C96.0305 29.5526 94.004 29.5455 91.9705 29.5526C91.8439 29.5668 91.9072 29.6733 91.8931 29.7444C91.9143 29.7799 91.9424 29.8012 91.9635 29.8225L91.8931 29.7444C91.8931 29.7444 91.8158 29.7586 91.8158 29.7799C91.7032 30.2488 91.471 30.675 91.3091 31.1226V31.3215C91.1614 31.3286 91.2247 31.4422 91.2106 31.5204L91.1121 31.6198C91.0699 31.8614 90.887 32.0532 90.9151 32.3089C90.7462 32.5505 90.5422 33.0549 90.5211 33.2964C90.3311 33.3959 90.3733 33.609 90.2959 33.7582C90.2396 33.8647 90.2256 33.886 90.3452 33.886C92.3998 33.886 94.4614 33.886 96.516 33.886C96.6356 33.8718 96.5793 33.7653 96.5934 33.6942C96.6285 33.6587 96.6567 33.6232 96.6919 33.5948V33.4953C96.727 33.4669 96.7552 33.4243 96.7904 33.3959C96.7763 33.3177 96.8396 33.204 96.6919 33.1969C95.4324 33.1969 94.1658 33.1969 92.9064 33.1969C92.6882 33.1969 92.8219 33.1188 92.8712 33.0478C92.8923 33.0122 92.8712 32.9554 92.8712 32.9057C92.9627 32.792 92.9838 32.657 92.9697 32.5078H92.8712V32.4865C92.8712 32.4865 92.9345 32.5221 92.9697 32.5078L93.0682 32.4084V32.3089C93.0682 32.3089 93.1315 32.2379 93.1667 32.2095V32.0106C93.3004 31.8969 93.4552 31.9111 93.617 31.9111C94.6725 31.9111 95.7349 31.9111 96.7904 31.9111C96.9733 31.9111 97.0718 31.8448 97.0859 31.7122C97.1211 31.6127 97.1492 31.5133 97.1844 31.4138C97.2125 31.3925 97.2407 31.3712 97.2618 31.3499C96.1923 31.2646 95.0876 31.3499 94.004 31.3215C93.8492 31.3215 93.6874 31.3357 93.5537 31.222V31.1226C93.5889 31.0231 93.617 30.9236 93.6522 30.8242C93.6874 30.7887 93.7155 30.7531 93.7507 30.7247V30.5258C93.7507 30.5258 93.814 30.4548 93.8492 30.4264V30.2274C94.8343 30.0072 95.8757 30.1635 96.8818 30.1351C97.1633 30.1422 97.4588 30.0143 97.7262 30.2203C97.9584 30.199 98.1695 29.9859 98.1554 29.7302C98.0991 29.6733 98.1273 29.581 98.0569 29.5312L98.0639 29.5526ZM96.3471 33.7866C96.3471 33.7866 96.3823 33.744 96.3893 33.7013C96.3893 33.7013 96.3823 33.7013 96.3752 33.6942C96.3823 33.6942 96.3893 33.6942 96.3963 33.6942C96.3963 33.7511 96.3682 33.7724 96.3471 33.7866ZM96.9874 31.7193C96.9874 31.7193 96.9874 31.7193 96.9874 31.7122C96.9874 31.7122 96.9944 31.7193 97.0015 31.7193H96.9874Z" fill="#0B2029"/>
<path d="M41.6332 33.2968C41.598 33.105 41.4502 33.1974 41.3588 33.1974C40.1133 33.1903 38.8679 33.1974 37.6155 33.1974C37.6155 33.0553 37.6225 32.9203 37.714 32.7996V32.7001C37.9251 32.6788 37.7492 32.4657 37.8758 32.3733C37.9603 32.3094 37.9673 32.1389 38.0095 32.011V31.9115C38.1362 31.8121 38.2136 31.6842 38.2065 31.5208V31.4214C38.2065 31.4214 38.2769 31.4001 38.2839 31.393C38.291 31.1798 38.4176 31.0093 38.495 30.8317C38.5232 30.7607 38.5443 30.6897 38.5654 30.6115C38.5794 30.5547 38.5865 30.4978 38.5935 30.4339C38.6287 30.4055 38.6639 30.37 38.692 30.3344C38.7131 30.2634 38.7413 30.1924 38.7624 30.1213C38.7765 30.0645 38.7835 30.0006 38.7905 29.9437L38.889 29.8443C38.889 29.7945 38.8679 29.7306 38.8961 29.7022C38.9524 29.6169 39.0649 29.5459 38.8539 29.5459C38.2136 29.5459 37.5803 29.553 36.947 29.5459C36.7782 29.5459 36.6726 29.5885 36.6374 29.7661C36.6163 29.8372 36.5671 29.9011 36.5389 29.9721C36.4052 30.3416 36.2786 30.7181 36.1379 31.0875C36.0042 31.4285 35.8283 31.7482 35.7579 32.1105C35.7227 32.2099 35.6946 32.3094 35.6594 32.4088C35.6242 32.4301 35.575 32.4444 35.5609 32.4728C35.5257 32.5793 35.4976 32.693 35.4624 32.7996V32.899C35.4624 32.899 35.3991 32.9629 35.3639 32.9985V33.1974C35.1809 33.311 35.1598 33.4958 35.1669 33.6876C35.1387 33.716 35.1035 33.7373 35.0684 33.7657C35.0895 33.787 35.1106 33.8083 35.1317 33.8367C35.1458 33.851 35.1528 33.8723 35.1669 33.8865H41.4362L41.5347 33.787C41.5558 33.716 41.5839 33.6449 41.598 33.5739C41.6121 33.5171 41.6191 33.4531 41.6332 33.3892C41.6613 33.3821 41.6824 33.3679 41.7106 33.3608C41.6824 33.3395 41.6613 33.3182 41.6332 33.2968ZM36.2716 33.0979H36.3419V33.1263C36.3419 33.1263 36.2856 33.105 36.2716 33.0979ZM37.517 33.2968V33.2826C37.517 33.2826 37.5381 33.2968 37.5522 33.2968H37.517Z" fill="#0B2029"/>
<path d="M84.2238 29.9435C84.2238 29.9435 84.1534 29.8796 84.1253 29.844C84.1183 29.6948 84.0057 29.7588 83.9283 29.7446H83.8298C83.8298 29.7446 83.8087 29.6664 83.7946 29.6664C83.1332 29.5457 82.4718 29.4036 81.7963 29.4462C81.36 29.4746 80.9238 29.4391 80.4875 29.4533C80.1287 29.4675 79.7558 29.4675 79.418 29.567C79.2351 29.6238 79.0522 29.6096 78.8762 29.6664C78.8551 29.6664 78.8551 29.7162 78.8411 29.7446C78.4119 29.7446 78.0671 29.9506 77.7645 30.2348C77.5605 30.2987 77.5253 30.4905 77.476 30.661C77.4338 30.8173 77.476 30.9736 77.666 31.0233C77.7293 31.0872 77.7997 31.1583 77.863 31.2222C78.1937 31.5277 78.63 31.5845 79.0381 31.7124C79.3406 31.7408 79.608 31.9255 79.9176 31.9113C79.9176 31.9255 79.9176 31.9539 79.9176 31.961C80.3398 32.0747 80.769 32.1955 81.1912 32.3091L81.5852 32.5081C81.7119 32.6714 81.7119 32.8348 81.5852 32.9982C81.55 33.0338 81.5219 33.0622 81.4867 33.0977C81.4093 33.1119 81.2967 33.048 81.2897 33.1971H81.0927C81.0645 33.2327 81.0293 33.2611 80.9942 33.2966C80.5298 33.2966 80.0654 33.325 79.601 33.2895C79.3688 33.2682 79.0662 33.3179 78.9325 33.0053C78.8974 32.9769 78.8692 32.9414 78.834 32.9059C78.8692 32.8064 78.8974 32.707 78.9325 32.6075C78.9677 32.5436 78.9959 32.4796 79.031 32.4086C79.031 32.2736 78.9325 32.3091 78.8551 32.3091C78.1937 32.3091 77.5323 32.3091 76.8709 32.3091C76.7443 32.4086 76.6669 32.5365 76.6739 32.707C76.5332 32.8704 76.5332 33.0409 76.6739 33.1971C76.7372 33.2611 76.8076 33.3321 76.8709 33.3961C76.9061 33.5523 77.0116 33.6092 77.1664 33.595C77.279 33.7797 77.462 33.801 77.659 33.7939H77.856C77.856 33.7939 77.8771 33.872 77.8912 33.872C78.3063 33.8649 78.7074 34.0567 79.1296 33.9928H80.6986C80.7971 33.9928 80.8957 34.007 80.9942 33.9928C81.2052 33.9573 81.4093 33.8649 81.6415 33.8933C81.8596 33.9218 82.0566 33.7228 82.2818 33.801C82.3944 33.6234 82.6547 33.801 82.7603 33.6021C83.0699 33.5808 83.3232 33.4529 83.5413 33.2043C83.6187 33.19 83.7313 33.254 83.7383 33.1048C83.7735 33.0693 83.8016 33.0409 83.8368 33.0053C83.9001 32.9059 83.9705 32.8064 84.0338 32.707C84.0338 32.5791 84.0409 32.4583 84.0338 32.3304C84.0338 32.2878 83.9705 32.2523 83.9423 32.2097C83.7946 31.9397 83.5061 31.9042 83.2598 31.8119C83.2246 31.7763 83.1895 31.7479 83.1613 31.7124C82.9643 31.6769 82.7673 31.6485 82.5703 31.6129C82.5421 31.5774 82.5281 31.5277 82.4929 31.5206C82.2818 31.4424 82.0566 31.3998 81.8385 31.343C81.4023 31.2222 80.966 31.073 80.5087 31.0233H80.4101C80.3679 30.9878 80.3328 30.9452 80.2905 30.9238C80.1709 30.867 80.0443 30.8315 79.9246 30.7676C79.8824 30.7462 79.8613 30.661 79.8613 30.6113C79.8613 30.5189 79.8965 30.4266 79.9246 30.3342C80.002 30.32 80.1146 30.3839 80.1217 30.2348H80.2202C80.2483 30.1992 80.2835 30.1708 80.3187 30.1353H81.0012C81.0786 30.1211 81.1912 30.185 81.1982 30.0358C81.4304 30.1211 81.6696 30.1495 81.9159 30.1353C82.0707 30.1282 82.1974 30.1992 82.2748 30.3342C82.2748 30.4834 82.2748 30.6326 82.2748 30.7747C82.2748 30.867 82.2888 30.9238 82.4014 30.9238C83.0487 30.9238 83.7031 30.9238 84.3504 30.9238C84.3786 30.9238 84.3997 30.8599 84.4278 30.8315V30.732C84.4278 30.732 84.4701 30.732 84.4771 30.732C84.5967 30.3342 84.5615 30.2134 84.2379 29.9435H84.2238ZM78.447 31.2009C78.447 31.2009 78.447 31.2009 78.44 31.2009C78.4611 31.2009 78.4822 31.1867 78.4963 31.1796C78.4963 31.1938 78.4963 31.2151 78.4963 31.2293H78.4893C78.4893 31.2293 78.4611 31.2151 78.447 31.208V31.2009ZM82.521 30.2419C82.521 30.2419 82.4788 30.2561 82.4577 30.2703V30.2419H82.521ZM77.856 31.0304C77.856 31.0304 77.856 31.0304 77.856 31.0233C77.856 31.0233 77.856 31.0233 77.856 31.0304ZM81.4867 33.1971V33.1829C81.4867 33.1829 81.4867 33.19 81.4867 33.1971ZM82.3662 30.7249C82.3662 30.7249 82.3662 30.7249 82.3733 30.7249H82.3662Z" fill="#0B2029"/>
<path d="M69.6375 33.3885V33.2962C69.6023 33.1967 69.729 33.0404 69.539 32.9978C69.5671 32.5858 69.3349 32.2235 69.2927 31.8185C69.2505 31.4918 69.1239 31.1721 69.0535 30.8453C68.9761 30.5114 68.9198 30.1775 68.8494 29.8436C68.8143 29.6447 68.7017 29.5452 68.5258 29.5452H65.7957C65.7253 29.5452 65.6268 29.5097 65.6198 29.6447C65.5917 29.6802 65.5565 29.7086 65.5213 29.7442C65.4932 29.7797 65.458 29.8081 65.4228 29.8436C65.1343 30.142 64.8388 30.4332 64.5433 30.7316C64.5151 30.76 64.4799 30.7956 64.4447 30.8311H64.3462C64.3181 30.8666 64.2829 30.895 64.2477 30.9305L63.9592 31.2218C63.9592 31.2218 63.8889 31.2857 63.8607 31.3213C63.53 31.648 63.2064 31.9819 62.8827 32.3087C62.8475 32.3371 62.8123 32.3727 62.7842 32.4082C62.749 32.4366 62.7138 32.4721 62.6857 32.5076C62.6083 32.5218 62.4957 32.4579 62.4887 32.6C62.4535 32.6355 62.4253 32.671 62.3902 32.6994C62.3268 32.7705 62.2635 32.8344 62.1932 32.8984C62.0665 33.0333 61.9328 33.1612 61.8062 33.2962C61.6725 33.4241 61.5388 33.559 61.4121 33.6869C61.3629 33.7508 61.3981 33.7864 61.4543 33.8219C61.5106 33.8361 61.5669 33.8361 61.6091 33.8858H61.9961C62.4394 33.8858 62.8757 33.8787 63.3189 33.8858C63.4597 33.8929 63.5723 33.8716 63.6567 33.7508C63.713 33.6585 63.7904 33.5732 63.8607 33.488C64.0226 33.3246 64.1844 33.1612 64.3462 32.9978C64.4166 32.9339 64.4799 32.8628 64.5433 32.7989H67.1889C67.203 32.877 67.1396 32.9907 67.2874 32.9978C67.3085 33.2322 67.2241 33.4738 67.3859 33.6869C67.3929 33.7721 67.3437 33.8858 67.5055 33.8858H69.5882C69.6305 33.8858 69.7149 33.8645 69.7149 33.8503C69.7149 33.694 69.8204 33.5164 69.6375 33.3885ZM62.9601 32.671C62.9601 32.671 62.939 32.6497 62.932 32.6426C62.932 32.6355 62.932 32.6284 62.939 32.6213C62.939 32.6284 62.9601 32.6355 62.9601 32.6355V32.671ZM63.5652 32.0103C63.5652 32.0103 63.5723 32.0032 63.5793 32.0032C63.5793 32.0032 63.5746 32.0056 63.5652 32.0103ZM64.4447 32.7989C64.4447 32.7989 64.4518 32.7918 64.4518 32.7847C64.4518 32.7918 64.4588 32.7989 64.4588 32.7989H64.4447ZM65.1413 30.5256H65.1695C65.1695 30.5256 65.1484 30.5327 65.1343 30.5327V30.5256H65.1413ZM64.9373 32.5645V32.5076H64.9443C64.9443 32.5076 64.9373 32.5431 64.9373 32.5645ZM65.1343 32.3158V32.3087C65.1343 32.3087 65.1343 32.3087 65.1343 32.3158ZM65.1132 32.1382L65.2328 32.0103L66.9637 30.0638L67.217 32.1382H65.1132ZM67.2733 32.7989C67.2733 32.7989 67.2733 32.7918 67.2804 32.7918C67.2804 32.7918 67.2804 32.7989 67.2874 32.7989H67.2733ZM67.3859 32.6142V32.6H67.3929C67.3929 32.6071 67.3859 32.6071 67.3859 32.6071V32.6142ZM68.6102 30.9234C68.6102 30.9234 68.6032 30.9234 68.5961 30.9234H68.6102Z" fill="#0B2029"/>
<path d="M65.2606 31.9824C65.2606 31.9824 65.2535 32.0535 65.2606 32.089C65.2395 32.0748 65.2324 32.0535 65.2324 32.0108C65.2395 32.0037 65.2535 31.9895 65.2606 31.9824Z" fill="#0B2029"/>
</g>
<defs>
<clipPath id="clip0_115_571">
<rect width="99" height="34" fill="white"/>
</clipPath>
</defs>
</svg>
