<svg width="60" height="53" viewBox="0 0 60 53" fill="none" xmlns="http://www.w3.org/2000/svg">
<g clip-path="url(#clip0_115_1030)">
<path d="M54.8471 0.5H8.31836V2.24193H54.8257C56.7502 2.24193 58.2897 3.81182 58.2897 5.72579V1.85484C57.3703 1.01613 56.1728 0.521505 54.8685 0.5H54.8471Z" fill="#082029"/>
<path d="M30.3212 27.1021C30.3212 27.3817 30.2143 27.6397 30.0005 27.8333L21.3833 35.1666C21.1053 35.4247 20.699 35.4677 20.3996 35.3171C20.0575 35.1451 19.8437 34.8225 19.8437 34.4354V30.9085H7.09961V29.0161H20.7845C21.2977 29.0161 21.7254 29.4462 21.7254 29.9623V32.4354L27.9477 27.1236L21.7254 21.8118V24.2849C21.7254 24.801 21.2977 25.2311 20.7845 25.2311H7.09961V23.3387H19.8437V19.7903C19.8437 19.4247 20.0789 19.0806 20.3996 18.9516C20.699 18.801 21.1053 18.8441 21.3833 19.0806L30.0005 26.4354C30.1929 26.586 30.3212 26.844 30.3212 27.1451V27.1021Z" fill="#036270"/>
<path d="M38.2753 16.3276V13.8545L32.0316 19.1663L38.0829 24.3276L38.2539 24.4781V22.005C38.2539 21.4674 38.6816 21.0588 39.1948 21.0588H52.8797V22.9512H40.1356V26.4781C40.1356 26.8437 39.9004 27.1878 39.5797 27.3383C39.2376 27.4888 38.8527 27.4458 38.5961 27.2308L29.9575 19.8545C29.765 19.7039 29.6367 19.4244 29.6367 19.1448C29.6367 18.8437 29.7436 18.6071 29.9575 18.3921L38.5961 11.0588C38.7457 10.9297 38.9596 10.8652 39.1734 10.8652C39.3017 10.8652 39.4514 10.8867 39.5797 10.9513C39.9218 11.0803 40.1356 11.4459 40.1356 11.79V15.3383H52.8797V17.2308H39.1948C38.6816 17.2308 38.2539 16.8007 38.2539 16.2846L38.2753 16.3276Z" fill="#036270"/>
<path d="M52.9227 7.63965V15.145H40.3925V11.8117C40.3925 11.3816 40.0931 10.9515 39.6868 10.7794C39.2806 10.5859 38.8102 10.6504 38.468 10.9085L29.8294 18.2633C29.5514 18.4998 29.4231 18.8009 29.4231 19.1665C29.4231 19.5321 29.5514 19.8547 29.8294 20.0482L38.468 27.403C38.6605 27.5751 38.9171 27.6826 39.195 27.6826C39.3447 27.6826 39.5372 27.6396 39.6868 27.5751C40.1145 27.403 40.3925 26.9729 40.3925 26.5213V23.188H52.9227V38.6288H7.09961V31.102H19.6299V34.4353C19.6299 34.8869 19.9078 35.317 20.3141 35.5321C20.4638 35.5966 20.6349 35.6181 20.7845 35.6181C21.0839 35.6181 21.3405 35.5321 21.5757 35.3385L30.1715 28.0052C30.4495 27.7471 30.5778 27.4461 30.5778 27.102C30.5778 26.7364 30.4495 26.4138 30.1715 26.2202L21.5757 18.8869C21.1908 18.5644 20.7204 18.4998 20.3141 18.7149C19.9292 18.8654 19.6299 19.317 19.6299 19.7471V23.0805H7.09961V7.63965H52.9227Z" fill="#04B392"/>
<path d="M58.2678 1.85484V40.5214C58.2678 42.4569 56.7069 44.0053 54.8038 44.0053H5.196C3.27155 44.0053 1.732 42.4354 1.732 40.5214V5.72579C1.732 3.79031 3.29294 2.24193 5.196 2.24193H8.29649V0.5H5.196C2.3521 0.5 0 2.86559 0 5.72579V40.5214C0 43.4031 2.3521 45.7472 5.196 45.7472H13.8774L13.7063 46.1773L11.675 51.2956C11.568 51.5966 11.5894 51.8762 11.7605 52.1128C11.9315 52.3493 12.2095 52.4999 12.4661 52.4999H47.5124C47.7903 52.4999 48.0469 52.3708 48.2394 52.1128C48.389 51.8547 48.4318 51.5751 48.3249 51.2956L46.1225 45.7472H54.8038C57.6477 45.7472 59.9785 43.4246 59.9998 40.5644V5.72579C59.9998 4.17741 59.3156 2.80107 58.2678 1.85484ZM44.4119 46.0913L46.2294 50.7579H13.7491L13.7918 50.6074L15.5666 46.0913L15.6735 45.7472H44.2622L44.3691 46.0913H44.4119Z" fill="#082029"/>
</g>
<defs>
<clipPath id="clip0_115_1030">
<rect width="59.9998" height="51.9999" fill="white" transform="translate(0 0.5)"/>
</clipPath>
</defs>
</svg>
