<svg width="58" height="57" viewBox="0 0 58 57" fill="none" xmlns="http://www.w3.org/2000/svg">
<g clip-path="url(#clip0_115_716)">
<path d="M29.0097 15.5019C28.8435 15.5019 28.6587 15.4651 28.5109 15.3731L16.63 8.54264C16.3344 8.37694 16.1311 8.04554 16.1496 7.69574C16.1496 7.34593 16.3344 7.03295 16.6485 6.84884L28.5109 0.128876C28.6587 0.0368217 28.825 0 28.9913 0C29.1576 0 29.3239 0.0368217 29.4717 0.128876L41.3525 6.84884C41.6482 7.01453 41.8514 7.34593 41.8514 7.69574C41.8514 8.04554 41.6666 8.37694 41.371 8.54264L29.4902 15.3731C29.3423 15.4651 29.176 15.5019 28.9913 15.5019H29.0097ZM29.0097 13.4031L38.932 7.69574L29.0097 2.08043L19.106 7.69574L29.0097 13.4031Z" fill="#082029"/>
<path d="M29.0101 15.3915C28.8623 15.3915 28.7145 15.3547 28.5851 15.281L16.7043 8.45061C16.4456 8.30332 16.2793 8.00875 16.2793 7.71418C16.2793 7.40119 16.4456 7.12503 16.7043 6.97774L28.5851 0.239371C28.8438 0.0920845 29.1764 0.0920845 29.4351 0.239371L41.3159 6.95933C41.5746 7.10662 41.7409 7.38278 41.7409 7.69577C41.7409 8.00875 41.5746 8.28491 41.3159 8.4322L29.4351 15.2626C29.3057 15.3363 29.1579 15.3731 29.0101 15.3731V15.3915ZM18.8476 7.71418L29.0101 13.5688L39.1726 7.71418L29.0101 1.96999L18.8476 7.71418Z" fill="#082029"/>
<path d="M18.8477 7.69572L29.0101 1.95154L39.1726 7.69572L29.0101 13.5504L18.8477 7.69572Z" fill="#04B392"/>
<path d="M29.0096 29.1812C28.8433 29.1812 28.677 29.1444 28.5292 29.0523L16.6484 22.2219C16.3527 22.0562 16.168 21.7248 16.168 21.375V7.69575C16.168 7.16183 16.6114 6.71997 17.1473 6.71997C17.6831 6.71997 18.1266 7.16183 18.1266 7.69575V20.8043L29.527 27.3585C29.7487 27.4874 29.915 27.6899 29.9889 27.9477C30.0628 28.2054 30.0259 28.4632 29.8965 28.6841C29.7302 28.9787 29.3977 29.1628 29.0466 29.1628L29.0096 29.1812Z" fill="#082029"/>
<path d="M28.9906 29.0524C28.8428 29.0524 28.6949 29.0155 28.5656 28.9419L16.6847 22.1115C16.4261 21.9642 16.2598 21.6696 16.2598 21.375V7.69578C16.2598 7.21709 16.6478 6.84888 17.1097 6.84888C17.5716 6.84888 17.9597 7.2355 17.9597 7.69578V20.8779L29.4155 27.469C29.822 27.7084 29.9699 28.2239 29.7297 28.6289C29.5634 28.9051 29.2862 29.0524 28.9906 29.0524Z" fill="#082029"/>
<path d="M29.0093 29.1812C28.6582 29.1812 28.3256 28.9971 28.1594 28.7026C28.03 28.4816 27.9931 28.2055 28.067 27.9661C28.1409 27.7084 28.2887 27.5058 28.5289 27.377L39.9293 20.8227V7.71418C39.9293 7.18026 40.3728 6.7384 40.9086 6.7384C41.4445 6.7384 41.8879 7.18026 41.8879 7.71418V21.3934C41.8879 21.7432 41.7032 22.0562 41.4075 22.2403L29.5267 29.0708C29.3788 29.1628 29.2126 29.1996 29.0463 29.1996L29.0093 29.1812Z" fill="#082029"/>
<path d="M29.0091 29.0524C28.7134 29.0524 28.4178 28.9051 28.27 28.6289C28.0298 28.2239 28.1776 27.7084 28.5841 27.469L40.04 20.8779V7.69578C40.04 7.21709 40.428 6.84888 40.8899 6.84888C41.3519 6.84888 41.7399 7.2355 41.7399 7.69578V21.375C41.7399 21.688 41.5736 21.9642 41.3149 22.1115L29.4341 28.9419C29.3047 29.0155 29.1569 29.0524 29.0091 29.0524Z" fill="#082029"/>
<path d="M29.0086 24.5969C28.4727 24.5969 28.0293 24.1551 28.0293 23.6212V14.5446C28.0293 14.0107 28.4727 13.5688 29.0086 13.5688C29.5444 13.5688 29.9879 14.0107 29.9879 14.5446V23.6212C29.9879 24.1551 29.5444 24.5969 29.0086 24.5969Z" fill="#082029"/>
<path d="M29.0082 24.4681C28.5277 24.4681 28.1582 24.0815 28.1582 23.6212V14.5447C28.1582 14.066 28.5462 13.6978 29.0082 13.6978C29.4701 13.6978 29.8581 14.0844 29.8581 14.5447V23.6212C29.8581 24.0999 29.4701 24.4681 29.0082 24.4681Z" fill="#082029"/>
<path d="M11.4565 33.5814C11.1609 33.5814 10.8652 33.4525 10.6804 33.2131L9.33161 31.4825C9.23922 31.3536 9.16532 31.2064 9.14684 31.0591L8.31536 26.3091C7.9643 24.2655 7.59475 22.1482 7.37303 20.9147C7.33607 20.6938 7.20673 20.4912 7.02196 20.3624C6.87414 20.2703 6.70785 20.2151 6.54155 20.2151C6.48612 20.2151 6.41221 20.2151 6.35678 20.2335L4.56449 20.5833C4.56449 20.5833 4.43515 20.5833 4.37972 20.5833C3.91778 20.5833 3.51129 20.2519 3.4189 19.7916C3.30804 19.2577 3.6591 18.7422 4.19494 18.6502L5.98723 18.3003C6.17201 18.2635 6.37526 18.2451 6.56003 18.2451C7.13282 18.2451 7.66866 18.4108 8.14907 18.7422C8.77729 19.1657 9.18379 19.81 9.31313 20.5649C9.49791 21.5959 11.05 30.5067 11.05 30.5067L12.251 32.0164C12.5836 32.4399 12.5097 33.0474 12.0847 33.3788C11.9184 33.5077 11.6967 33.5814 11.475 33.5814H11.4565Z" fill="#082029"/>
<path d="M11.4573 33.4709C11.1986 33.4709 10.9584 33.3605 10.7736 33.1396L9.4248 31.4089C9.33241 31.2985 9.27698 31.1696 9.2585 31.0407L8.42703 26.2907C8.07596 24.2471 7.70642 22.1299 7.48469 20.8963C7.44774 20.6386 7.29992 20.4177 7.07819 20.2704C6.85646 20.1231 6.59778 20.0678 6.32063 20.1231L4.52833 20.4729C4.0664 20.5649 3.62295 20.2704 3.53056 19.8101C3.43818 19.3498 3.73381 18.908 4.19574 18.8159L5.98803 18.4661C6.70865 18.3188 7.44774 18.4661 8.03901 18.8711C8.63028 19.2762 9.03678 19.8837 9.16612 20.6018C9.38784 21.8353 9.75739 23.9525 10.1085 26.0146L10.903 30.5436L12.1225 32.1085C12.4181 32.4768 12.3442 33.0107 11.9747 33.3052C11.8268 33.4341 11.6421 33.4894 11.4573 33.4894V33.4709Z" fill="#082029"/>
<path d="M14.1363 32.4399C13.8222 32.4399 13.5266 32.2926 13.3418 32.0348L11.993 30.1385C11.9191 30.0281 11.8636 29.8992 11.8267 29.7519C11.5865 28.4631 11.3647 27.0823 11.1245 25.6279C10.9028 24.3023 10.6996 22.9951 10.4594 21.6327C10.4224 21.4118 10.2931 21.2093 10.1083 21.0804C9.96048 20.9883 9.79418 20.9331 9.62789 20.9331C9.57246 20.9331 9.49855 20.9331 9.44312 20.9515L8.46382 21.1356C8.46382 21.1356 8.35296 21.1356 8.27905 21.1356C7.79864 21.1356 7.39215 20.8042 7.29976 20.3439C7.1889 19.81 7.53996 19.2945 8.0758 19.2025L9.0551 19.0184C9.23987 18.9815 9.42464 18.9631 9.62789 18.9631C10.2007 18.9631 10.7365 19.1288 11.2169 19.4602C11.8452 19.8837 12.2517 20.5281 12.381 21.2829C12.6212 22.6637 12.8429 23.9893 13.0462 25.2596C13.2679 26.6773 13.4896 27.9845 13.7114 29.1996L14.9309 30.8934C15.245 31.3352 15.1341 31.9428 14.7091 32.2558C14.5428 32.3662 14.3396 32.4399 14.1363 32.4399Z" fill="#082029"/>
<path d="M14.1362 32.3294C13.8591 32.3294 13.6004 32.2005 13.4341 31.9796L12.0853 30.0832C12.0114 29.9912 11.9744 29.8623 11.9374 29.7518C11.6972 28.4631 11.4755 27.0639 11.2353 25.591C11.0321 24.3206 10.8103 23.0135 10.5701 21.6327C10.5332 21.3749 10.3854 21.154 10.1636 21.0067C9.9419 20.8594 9.68322 20.8042 9.40606 20.8594L8.42677 21.0435C7.96484 21.1172 7.52139 20.841 7.429 20.3807C7.33662 19.9205 7.63225 19.4786 8.09418 19.3865L9.07347 19.2024C9.79409 19.0551 10.5332 19.2024 11.1244 19.6075C11.7157 20.0125 12.1222 20.6201 12.2516 21.3381C12.4918 22.7189 12.7135 24.0445 12.9167 25.3148C13.1385 26.6956 13.3602 28.0212 13.5819 29.2548L14.8199 30.9854C15.097 31.372 15.0047 31.9059 14.6166 32.1821C14.4688 32.2925 14.2841 32.3478 14.1178 32.3478L14.1362 32.3294Z" fill="#082029"/>
<path d="M17.5169 56.6685C16.981 56.6685 16.5376 56.2266 16.5376 55.6927V49.1385C15.8724 47.8865 14.2649 46.9844 11.6781 46.4321L10.8281 46.2664C8.7217 45.8429 6.52291 45.4011 4.84148 43.873C3.80676 42.934 3.16005 41.7557 2.64269 40.7063C1.6634 38.7916 0.813446 36.7848 0.129789 34.7228C-0.165847 33.8391 0.0743573 32.9185 0.776492 32.2925C1.20147 31.9243 1.73731 31.7218 2.29162 31.7218C2.64269 31.7218 2.97528 31.7954 3.28939 31.9427C4.49041 32.5135 6.06098 33.5445 6.83702 35.2383L7.0957 35.8274C7.61306 37.0609 7.9087 37.4844 8.53693 37.4844C8.66627 37.4844 8.79561 37.4844 8.9619 37.4292C9.16515 37.3923 9.3684 37.3003 9.62708 37.1898C10.8281 36.6375 12.1954 36.3613 13.5812 36.3613C16.0756 36.3613 18.5331 37.2819 20.3069 38.8836C20.4917 39.0677 20.621 39.3071 20.621 39.5648C20.621 39.8226 20.5471 40.0803 20.3623 40.2644C20.1776 40.467 19.9189 40.5774 19.6417 40.5774C19.4015 40.5774 19.1613 40.4854 18.9766 40.3197C17.5538 39.0309 15.5952 38.2945 13.5812 38.2945C12.4726 38.2945 11.3824 38.5154 10.4401 38.9573C10.1075 39.1046 9.73794 39.2518 9.33145 39.3439C9.03581 39.3991 8.75865 39.436 8.51845 39.436C6.50443 39.436 5.78382 37.7422 5.30341 36.6191L5.06321 36.0668C4.65671 35.1646 3.71437 34.3361 2.43944 33.7286C2.38401 33.7102 2.34706 33.6918 2.29162 33.6918C2.18076 33.6918 2.10685 33.747 2.0699 33.7838C1.97751 33.8759 1.94056 33.9863 1.97751 34.1152C2.64269 36.0852 3.45569 37.9999 4.37955 39.841C4.823 40.7247 5.37732 41.7373 6.15336 42.4369C7.42829 43.5968 9.34992 43.9834 11.1976 44.3516L12.0661 44.5358C15.4105 45.2354 17.4799 46.5425 18.3853 48.5309C18.4407 48.6598 18.4777 48.8071 18.4777 48.9359V55.6743C18.4777 56.2082 18.0342 56.6501 17.4984 56.6501L17.5169 56.6685Z" fill="#082029"/>
<path d="M17.5159 56.5396C17.0355 56.5396 16.666 56.153 16.666 55.6927V49.1385C15.9639 47.7945 14.3379 46.8739 11.7141 46.3216L10.8641 46.1559C8.75775 45.7325 6.59591 45.309 4.93296 43.7993C3.91671 42.8788 3.27001 41.7005 2.75265 40.6695C1.77336 38.7548 0.94188 36.748 0.239746 34.7044C-0.0374123 33.8759 0.184314 32.9922 0.849494 32.4214C1.4962 31.8507 2.43854 31.7218 3.23306 32.09C4.4156 32.6608 5.96768 33.6734 6.72525 35.3119L6.98393 35.8827C7.5752 37.3003 7.88932 37.779 8.97947 37.5581C9.18272 37.5212 9.40445 37.4292 9.68161 37.3003C13.0999 35.7538 17.4236 36.435 20.2136 38.9757C20.5647 39.2887 20.5832 39.8226 20.2691 40.1724C19.9549 40.5222 19.4006 40.5406 19.068 40.2276C16.7584 38.1472 13.1923 37.5765 10.4022 38.8468C10.0696 38.9941 9.71856 39.1414 9.33054 39.215C6.76221 39.7121 5.96768 37.7974 5.43185 36.527L5.21012 35.9931C4.78514 35.0726 3.82433 34.2073 2.51244 33.5813C2.27224 33.4708 2.06899 33.5813 2.01356 33.655C1.93965 33.7286 1.81031 33.8759 1.88422 34.1152C2.5494 36.0852 3.3624 38.0183 4.30473 39.8594C4.76667 40.7615 5.32098 41.7741 6.1155 42.4922C7.42739 43.6705 9.34902 44.0571 11.2337 44.4437L12.1021 44.6278C15.4095 45.3274 17.442 46.6162 18.3474 48.5677C18.4029 48.6782 18.4213 48.8071 18.4213 48.9175V55.6743C18.4213 56.153 18.0333 56.5212 17.5714 56.5212L17.5159 56.5396Z" fill="#082029"/>
<path d="M26.2755 56.9999C25.7396 56.9999 25.2962 56.5581 25.2962 56.0242V43.5048C25.1299 41.7005 24.3908 39.6201 23.3561 37.9447C21.5453 35.0726 18.8846 34.4651 16.2978 33.8943L15.3924 33.6918C15.1337 33.6366 14.9305 33.4709 14.7826 33.2499C14.6533 33.029 14.5979 32.7713 14.6718 32.5135C14.7826 32.0717 15.1707 31.7587 15.6326 31.7587C15.7065 31.7587 15.7804 31.7587 15.8543 31.7771L16.7412 31.9796C19.4389 32.5872 22.8018 33.342 25.0375 36.8953C26.257 38.8468 27.07 41.2034 27.2732 43.3943V56.0058C27.2732 56.5397 26.8298 56.9815 26.2939 56.9815L26.2755 56.9999Z" fill="#082029"/>
<path d="M26.275 56.871C25.7946 56.871 25.4251 56.4844 25.4251 56.0241V43.5047C25.2588 41.6637 24.5382 39.6016 23.4665 37.8894C21.6372 34.9621 18.9396 34.3546 16.3158 33.7838L15.4104 33.5813C14.9485 33.4708 14.6713 33.0106 14.7822 32.5503C14.8931 32.09 15.355 31.8139 15.8169 31.9243L16.7038 32.1268C19.383 32.716 22.7089 33.4708 24.9262 36.9873C26.1272 38.9204 26.9402 41.2586 27.1435 43.4311V56.0241C27.1435 56.5028 26.7554 56.871 26.2935 56.871H26.275Z" fill="#082029"/>
<path d="M8.27791 34.8701C7.98227 34.8701 7.70512 34.7412 7.52034 34.5203L5.87587 32.5872C5.76501 32.4583 5.6911 32.2926 5.65414 32.1085L3.78795 20.6201C3.76947 20.4544 3.67708 20.3071 3.52926 20.2151C3.4184 20.1414 3.28906 20.1046 3.15972 20.1046C3.12277 20.1046 3.06733 20.1046 3.03038 20.1046C2.64236 20.1782 2.3652 20.5465 2.40215 20.9331L3.93576 32.6424C3.97272 32.9001 3.89881 33.1579 3.73251 33.3604C3.56622 33.5629 3.34449 33.6918 3.08581 33.7286H2.95647C2.47606 33.7286 2.05109 33.3788 1.99565 32.8817L0.462045 21.1724C0.29575 19.7548 1.25657 18.4476 2.66083 18.1899C2.82713 18.1531 2.99342 18.1346 3.15972 18.1346C3.69556 18.1346 4.21292 18.3003 4.6379 18.5949C5.21069 19 5.58024 19.5891 5.6911 20.2887L7.52034 31.5377L8.98005 33.2315C9.14634 33.4341 9.22025 33.6918 9.20177 33.9496C9.18329 34.2073 9.05395 34.4467 8.8507 34.6124C8.66593 34.7596 8.44421 34.8333 8.22248 34.8333L8.27791 34.8701Z" fill="#082029"/>
<path d="M8.27887 34.7413C8.03866 34.7413 7.79846 34.6308 7.63217 34.4467L5.98769 32.5136C5.89531 32.4031 5.8214 32.2558 5.80292 32.1085L3.93672 20.6202C3.89977 20.4176 3.7889 20.2519 3.62261 20.1231C3.45631 20.0126 3.25306 19.9574 3.03134 19.9942C2.58788 20.0862 2.25529 20.5097 2.31073 20.9515L3.84433 32.6609C3.89977 33.1211 3.56718 33.563 3.10525 33.6182C2.64332 33.6734 2.19986 33.3421 2.14443 32.8818L0.610821 21.1725C0.444526 19.8101 1.38686 18.5765 2.71722 18.3188C3.3824 18.1899 4.04758 18.3188 4.6019 18.7238C5.13774 19.1105 5.50729 19.6812 5.61815 20.344L7.44739 31.593L8.94405 33.3605C9.23968 33.7287 9.20273 34.2626 8.83319 34.5572C8.66689 34.686 8.48212 34.7597 8.27887 34.7597V34.7413Z" fill="#082029"/>
<path d="M46.5433 33.5814C46.3216 33.5814 46.1183 33.5077 45.9336 33.3789C45.7303 33.2132 45.601 32.9922 45.564 32.7345C45.5271 32.4767 45.601 32.219 45.7673 32.0165L46.9868 30.4515L48.6867 20.5649C48.816 19.8101 49.241 19.1657 49.8507 18.7422C50.3127 18.4292 50.867 18.2635 51.4398 18.2635C51.6245 18.2635 51.8093 18.2635 52.0126 18.3188L53.8049 18.6686C54.3407 18.7791 54.6733 19.2946 54.5809 19.8101C54.4885 20.2703 54.082 20.6017 53.6201 20.6017C53.5647 20.6017 53.4907 20.6017 53.4353 20.6017L51.6245 20.2519C51.6245 20.2519 51.4952 20.2335 51.4398 20.2335C51.2735 20.2335 51.1072 20.2887 50.9594 20.3808C50.7746 20.5097 50.6452 20.6938 50.6083 20.9331L48.8345 31.0775C48.7975 31.2248 48.7421 31.3721 48.6497 31.501L47.2824 33.2316C47.0976 33.4709 46.8205 33.5998 46.5064 33.5998L46.5433 33.5814Z" fill="#082029"/>
<path d="M46.5429 33.4709C46.3581 33.4709 46.1734 33.4157 46.0256 33.2868C45.656 32.9922 45.5821 32.4583 45.8777 32.0901L47.0972 30.5252L48.8341 20.5833C48.9634 19.8653 49.3515 19.2577 49.9612 18.8527C50.5525 18.4477 51.2916 18.3004 52.0122 18.4477L53.8045 18.7975C54.2664 18.8895 54.562 19.3314 54.4696 19.7917C54.3773 20.2519 53.9338 20.5465 53.4719 20.4544L51.6796 20.1046C51.4024 20.0494 51.1437 20.1046 50.922 20.2519C50.7003 20.3992 50.5709 20.6201 50.5155 20.8779L48.7417 31.0223C48.7232 31.1512 48.6678 31.28 48.5754 31.3905L47.2266 33.1211C47.0603 33.342 46.8016 33.4525 46.5429 33.4525V33.4709Z" fill="#082029"/>
<path d="M43.8649 32.4399C43.6616 32.4399 43.4584 32.3847 43.2921 32.2558C42.8486 31.9428 42.7563 31.3352 43.0519 30.8934L44.2899 29.1628C44.4931 27.9845 44.7148 26.6589 44.9366 25.2781C45.1583 23.9525 45.3615 22.6453 45.6018 21.3013C45.7311 20.5465 46.1561 19.9021 46.7658 19.4787C47.2277 19.1657 47.7821 18.9816 48.3549 18.9816C48.5396 18.9816 48.7244 19 48.9277 19.0368L49.9069 19.2209C50.4428 19.3314 50.7754 19.8469 50.683 20.3624C50.5906 20.8227 50.1841 21.154 49.7037 21.154C49.6483 21.154 49.5928 21.154 49.5374 21.154L48.5581 20.9699C48.5581 20.9699 48.4288 20.9515 48.3733 20.9515C48.1886 20.9515 48.0223 21.0068 47.8929 21.0988C47.7082 21.2277 47.5788 21.4118 47.5419 21.6511C47.3017 22.9767 47.0984 24.2655 46.8952 25.499C46.6365 27.0823 46.4147 28.4632 46.1745 29.7703C46.1561 29.8992 46.1006 30.0465 46.0083 30.157L44.6594 32.0533C44.4746 32.311 44.179 32.4583 43.8649 32.4583V32.4399Z" fill="#082029"/>
<path d="M43.8641 32.3295C43.6978 32.3295 43.5131 32.2742 43.3652 32.1638C42.9772 31.8876 42.8848 31.3537 43.162 30.9671L44.4 29.2364C44.6217 28.0029 44.8434 26.6773 45.0651 25.2965C45.2684 24.0262 45.4901 22.7006 45.7303 21.3198C45.8597 20.6018 46.2477 19.9942 46.839 19.5892C47.4487 19.1841 48.1693 19.0368 48.8899 19.1841L49.8692 19.3682C50.3312 19.4603 50.6268 19.9021 50.5344 20.3624C50.442 20.8227 49.9801 21.1173 49.5366 21.0252L48.5573 20.8411C48.2987 20.7859 48.0215 20.8411 47.7998 20.9884C47.5965 21.1357 47.4487 21.3566 47.3933 21.6143C47.1531 22.9768 46.9313 24.3023 46.7281 25.5727C46.4879 27.0456 46.2662 28.4448 46.026 29.7335C46.0075 29.8624 45.952 29.9729 45.8781 30.0649L44.5293 31.9613C44.363 32.2006 44.1043 32.3111 43.8272 32.3111L43.8641 32.3295Z" fill="#082029"/>
<path d="M40.4831 56.6686C39.9472 56.6686 39.5038 56.2267 39.5038 55.6928V48.9544C39.5038 48.8071 39.5407 48.6782 39.5962 48.5494C40.52 46.561 42.5895 45.2538 45.9154 44.5542L46.7838 44.3701C48.65 44.0019 50.5532 43.6153 51.8466 42.4554C52.6226 41.7558 53.1769 40.7432 53.6204 39.8594C54.5627 38.0184 55.3572 36.1036 56.0224 34.1337C56.0594 34.0048 56.0224 33.8943 55.93 33.8023C55.8931 33.7655 55.8192 33.7102 55.7083 33.7102C55.6529 33.7102 55.6159 33.7102 55.5605 33.747C54.2856 34.3546 53.3432 35.2015 52.9367 36.1036L52.715 36.6375C52.2346 37.779 51.514 39.4728 49.5 39.4728C49.2413 39.4728 48.9826 39.436 48.6685 39.3808C48.262 39.3071 47.8924 39.1598 47.5599 38.9941C46.599 38.5523 45.5089 38.3313 44.4187 38.3313C42.4047 38.3313 40.4461 39.0678 39.0234 40.3565C38.8386 40.5222 38.6169 40.6143 38.3582 40.6143C38.081 40.6143 37.8224 40.5038 37.6376 40.3013C37.4713 40.1172 37.3789 39.8594 37.3789 39.6017C37.3789 39.3439 37.5082 39.1046 37.693 38.9205C39.4668 37.3187 41.9243 36.3982 44.4187 36.3982C45.8045 36.3982 47.1718 36.6928 48.3729 37.2267C48.6315 37.3372 48.8533 37.4292 49.038 37.466C49.1859 37.5029 49.3337 37.5213 49.463 37.5213C50.0912 37.5213 50.3684 37.1346 50.8858 35.8643L51.1444 35.2751C51.9205 33.5813 53.5095 32.5503 54.7105 31.9796C55.0247 31.8323 55.3572 31.7587 55.7083 31.7587C56.2626 31.7587 56.7985 31.9612 57.2234 32.3294C57.9256 32.937 58.1658 33.8759 57.8701 34.7596C57.168 36.8032 56.3365 38.81 55.3572 40.7432C54.8214 41.7926 54.1747 42.9709 53.1585 43.9098C51.477 45.4379 49.2967 45.8798 47.1718 46.3032L46.3219 46.4689C43.7351 47.0213 42.1276 47.9234 41.4439 49.2306V55.7296C41.4439 56.2635 41.0189 56.7054 40.4831 56.7054V56.6686Z" fill="#082029"/>
<path d="M40.4837 56.5397C40.0033 56.5397 39.6338 56.1531 39.6338 55.6928V48.936C39.6338 48.8072 39.6523 48.6967 39.7077 48.5862C40.6131 46.6347 42.6456 45.3459 45.953 44.6463L46.8214 44.4622C48.6876 44.094 50.6277 43.7074 51.9396 42.5107C52.7341 41.7926 53.2884 40.78 53.7504 39.8779C54.6927 38.0368 55.5057 36.1037 56.1709 34.1337C56.2448 33.8944 56.1339 33.7287 56.0415 33.6734C55.9676 33.6182 55.7829 33.4893 55.5427 33.5998C54.2308 34.2258 53.2884 35.0727 52.8635 36.0116L52.6417 36.5455C52.1059 37.8159 51.3114 39.7306 48.743 39.2335C48.355 39.1599 48.004 39.0126 47.6714 38.8653C44.8628 37.595 41.2967 38.1657 39.0055 40.2461C38.6545 40.5591 38.1186 40.5407 37.8045 40.1909C37.4904 39.8411 37.5089 39.3072 37.86 38.9942C40.65 36.4535 44.9922 35.7723 48.392 37.3188C48.6507 37.4477 48.8724 37.5213 49.0941 37.5765C50.1843 37.7975 50.4799 37.3188 51.0897 35.9012L51.3483 35.312C52.1059 33.6734 53.6765 32.6424 54.8405 32.0901C55.635 31.7035 56.5774 31.8324 57.2241 32.4215C57.8893 33.0107 58.111 33.876 57.8338 34.7045C57.1502 36.7481 56.3002 38.7548 55.3209 40.6696C54.8036 41.7006 54.1569 42.8789 53.1406 43.7994C51.4777 45.3091 49.3158 45.7326 47.2094 46.156L46.3595 46.3217C43.7357 46.874 42.1097 47.7946 41.3891 49.1386V55.6928C41.3891 56.1715 41.0011 56.5397 40.5392 56.5397H40.4837Z" fill="#082029"/>
<path d="M31.7254 57C31.1895 57 30.7461 56.5581 30.7461 56.0242V43.5048C30.9493 41.2587 31.7623 38.8653 32.9818 36.9137C35.2176 33.342 38.5804 32.5872 41.2781 31.998L42.165 31.7955C42.165 31.7955 42.3128 31.7771 42.3867 31.7771C42.8487 31.7771 43.2367 32.0901 43.3476 32.5319C43.403 32.7897 43.366 33.0474 43.2367 33.2684C43.1074 33.4893 42.8856 33.6366 42.6269 33.7102L41.7216 33.9128C39.1348 34.4835 36.4556 35.0911 34.6633 37.9631C33.6101 39.6569 32.8895 41.719 32.7232 43.6153V56.0426C32.7232 56.5765 32.2797 57.0184 31.7439 57.0184L31.7254 57Z" fill="#082029"/>
<path d="M31.725 56.8711C31.2445 56.8711 30.875 56.4845 30.875 56.0243V43.5049C31.0782 41.2587 31.8912 38.9022 33.0923 36.9874C35.3095 33.471 38.6354 32.7161 41.3146 32.127L42.2015 31.9244C42.6635 31.814 43.1254 32.0901 43.2363 32.5504C43.3471 33.0107 43.07 33.471 42.608 33.5814L41.7027 33.7839C39.0974 34.3731 36.3997 34.9622 34.552 37.8896C33.4803 39.6018 32.7597 41.6638 32.5934 43.5785V56.0243C32.5934 56.5029 32.2054 56.8711 31.7434 56.8711H31.725Z" fill="#082029"/>
<path d="M49.7231 34.8701C49.5014 34.8701 49.2612 34.7965 49.0949 34.6492C48.6884 34.2994 48.633 33.6918 48.984 33.2684L50.4807 31.5009L52.273 20.3071C52.3838 19.6075 52.7719 19.0184 53.3446 18.6133C53.7881 18.3004 54.3055 18.1531 54.8413 18.1531C55.0076 18.1531 55.1739 18.1531 55.3217 18.1899C56.726 18.4477 57.6868 19.7548 57.539 21.154L56.0054 32.8818C55.9499 33.3604 55.525 33.7287 55.0446 33.7287H54.9152C54.6565 33.6918 54.4348 33.563 54.2685 33.342C54.1022 33.1395 54.0468 32.8818 54.0653 32.624L55.5989 20.9147C55.6358 20.5465 55.3587 20.1783 54.9706 20.1046C54.9337 20.1046 54.8783 20.1046 54.8413 20.1046C54.712 20.1046 54.5826 20.1414 54.4718 20.2151C54.3424 20.3071 54.25 20.4544 54.2131 20.6201L52.3469 32.1085C52.3099 32.2742 52.236 32.4399 52.1251 32.5872L50.4807 34.5203C50.2959 34.7413 50.0187 34.8701 49.7231 34.8701Z" fill="#082029"/>
<path d="M49.7236 34.7412C49.5203 34.7412 49.3356 34.6676 49.1693 34.5387C48.7997 34.2441 48.7628 33.6918 49.0584 33.342L50.5551 31.5746L52.3843 20.3255C52.4952 19.6627 52.8462 19.092 53.4006 18.7054C53.9549 18.3188 54.6201 18.1899 55.2852 18.3003C56.6156 18.5397 57.5579 19.7916 57.3916 21.1356L55.858 32.8633C55.8026 33.3236 55.3776 33.655 54.8972 33.5998C54.4353 33.5445 54.1027 33.1027 54.1581 32.6424L55.6917 20.9331C55.7472 20.4912 55.4146 20.0678 54.9711 19.9757C54.7679 19.9389 54.5462 19.9757 54.3799 20.1046C54.2136 20.2151 54.1027 20.3992 54.0657 20.6017L52.1995 32.0901C52.1811 32.2374 52.1072 32.3846 52.0148 32.4951L50.3703 34.4283C50.204 34.6308 49.9638 34.7228 49.7236 34.7228V34.7412Z" fill="#082029"/>
</g>
<defs>
<clipPath id="clip0_115_716">
<rect width="58" height="57" fill="white"/>
</clipPath>
</defs>
</svg>
