<svg width="69" height="66" viewBox="0 0 69 66" fill="none" xmlns="http://www.w3.org/2000/svg">
<g clip-path="url(#clip0_120_613)">
<path d="M58.2585 42.6173L67.926 47.6265L35.2716 64.4542L2.05078 46.9221L11.1714 42.6173L14.7063 40.6019L15.6633 40.054L16.6203 39.5061L34.3927 48.9962C34.4904 48.957 34.588 48.9375 34.7052 48.9375C34.8224 48.9375 34.92 48.9375 35.0177 48.9962L52.7901 39.5257L53.7471 40.054L54.7041 40.6019L58.239 42.6173H58.2585Z" fill="#006170"/>
<path d="M1.5429 48.0178C0.859344 48.0178 0.3125 47.4699 0.3125 46.7851V46.472C0.3125 45.7871 0.859344 45.2393 1.5429 45.2393C2.22645 45.2393 2.7733 45.7871 2.7733 46.472V46.7851C2.7733 47.4699 2.22645 48.0178 1.5429 48.0178Z" fill="#082029"/>
<path d="M1.54291 24.6937C1.03513 24.6937 0.605468 25.1046 0.605468 25.6329V27.7266C0.605468 28.2354 1.0156 28.6659 1.54291 28.6659C2.07023 28.6659 2.48036 28.2549 2.48036 27.7266V25.6329C2.48036 25.1242 2.07023 24.6937 1.54291 24.6937ZM2.4413 32.4032C2.38271 32.0705 2.12882 31.7966 1.81634 31.6988C1.73822 31.6596 1.62104 31.6401 1.52338 31.6401C1.0156 31.6401 0.585938 32.051 0.585938 32.5793V34.673C0.585938 35.1817 0.99607 35.6122 1.52338 35.6122C2.0507 35.6122 2.46083 35.2013 2.46083 34.673V32.5793C2.46083 32.5793 2.46083 32.4619 2.46083 32.4032H2.4413ZM1.54291 38.5864C1.03513 38.5864 0.605468 38.9973 0.605468 39.5256V41.6193C0.605468 42.1281 1.0156 42.5585 1.54291 42.5585C2.07023 42.5585 2.48036 42.1476 2.48036 41.6193V39.5256C2.48036 39.0169 2.07023 38.5864 1.54291 38.5864Z" fill="#082029"/>
<path d="M1.5429 22.013C0.859344 22.013 0.3125 21.4652 0.3125 20.7803V20.4672C0.3125 19.7824 0.859344 19.2345 1.5429 19.2345C2.22645 19.2345 2.7733 19.7824 2.7733 20.4672V20.7803C2.7733 21.4652 2.22645 22.013 1.5429 22.013Z" fill="#082029"/>
<path d="M35.5839 43.2826V45.3763C35.5839 45.885 35.1542 46.3155 34.6464 46.3155C34.1386 46.3155 33.709 45.9046 33.709 45.3763V43.2826C33.709 42.7739 34.1191 42.3434 34.6464 42.3434C35.1737 42.3434 35.5839 42.7543 35.5839 43.2826Z" fill="white"/>
<path d="M35.5839 57.1752V59.2689C35.5839 59.7776 35.1542 60.2081 34.6464 60.2081C34.1386 60.2081 33.709 59.7972 33.709 59.2689V57.1752C33.709 56.6664 34.1191 56.236 34.6464 56.236C35.1737 56.236 35.5839 56.6469 35.5839 57.1752Z" fill="white"/>
<path d="M68.2383 46.5894L66.7736 45.748L56.5984 39.9366L55.6414 39.3887L54.6844 38.8408L53.7275 39.3496L52.7705 39.8583L53.7275 40.4062L54.6844 40.9541L58.2194 42.9695L65.8947 47.3525L35.7402 63.4367L34.7051 63.9846L33.67 63.4367L3.45687 47.3721L11.1322 42.9891L14.6672 40.9736L15.6242 40.4258L16.5811 39.8779L15.6437 39.3496L14.6672 38.8408L13.7102 39.3887L12.7532 39.9366L2.57802 45.748L1.11325 46.5894C0.820302 46.7655 0.644531 47.0786 0.644531 47.4112C0.644531 47.4895 0.644531 47.5678 0.683591 47.646C0.742182 47.9004 0.917953 48.0961 1.13278 48.2331L34.2559 65.8826C34.3926 65.9609 34.5489 66 34.7051 66C34.8613 66 34.9981 65.9609 35.1348 65.8826L68.2579 48.2331C68.4922 48.1156 68.6485 47.9004 68.7266 47.646C68.7266 47.5678 68.7657 47.4895 68.7657 47.4308C68.7657 47.0982 68.5899 46.7851 68.2969 46.609L68.2383 46.5894Z" fill="#082029"/>
<path d="M35.5839 43.2825V45.3762C35.5839 45.8849 35.1542 46.3154 34.6464 46.3154C34.1386 46.3154 33.709 45.9045 33.709 45.3762V43.2825C33.709 42.7737 34.1191 42.3433 34.6464 42.3433C35.1737 42.3433 35.5839 42.7542 35.5839 43.2825Z" fill="#04B392"/>
<path d="M68.336 31.6988L60.2896 37.1776L34.959 51.3246L11.1127 38.5082L0.976562 32.3445L11.1518 24.9481L16.2296 27.8832L17.0108 28.5485L17.9483 28.705L32.9669 36.4536C33.0646 36.4145 33.7872 37.0602 33.9044 37.0602C34.0216 37.0602 34.5684 37.9407 34.6661 37.9798L51.0323 28.9203L52.6924 28.0202L54.2743 27.1396L57.8288 25.7308L68.3165 31.7184L68.336 31.6988Z" fill="#04B392"/>
<path d="M34.6465 36.2579C34.5488 36.2579 34.4512 36.2579 34.3535 36.2971L34.6465 36.4536L34.9394 36.2971C34.9394 36.2971 34.7441 36.2579 34.6465 36.2579ZM34.6465 36.2579C34.5488 36.2579 34.4512 36.2579 34.3535 36.2971L34.6465 36.4536L34.9394 36.2971C34.9394 36.2971 34.7441 36.2579 34.6465 36.2579ZM34.6465 36.2579C34.5488 36.2579 34.4512 36.2579 34.3535 36.2971L34.6465 36.4536L34.9394 36.2971C34.9394 36.2971 34.7441 36.2579 34.6465 36.2579Z" fill="white"/>
<path d="M68.668 19.6063C68.6094 19.3715 68.4532 19.1562 68.2188 19.0388L35.1152 0.117403C34.8223 -0.0391343 34.4707 -0.0391343 34.1973 0.117403L1.07419 19.0193C0.859361 19.1562 0.703119 19.3519 0.644529 19.5867C0.644529 19.5867 0.605469 19.7628 0.605469 19.8411C0.605469 20.1737 0.80077 20.4868 1.09372 20.6433L2.55848 21.426L11.4642 26.1613L12.4407 26.6896L13.2024 27.1005L13.3977 27.2179L24.569 33.1663L25.5455 33.6946L26.4829 34.2034L33.377 37.9016L34.1778 38.3321C34.3145 38.4103 34.4707 38.4495 34.627 38.4495C34.7832 38.4495 34.9199 38.4103 35.0566 38.3321L35.8574 37.9016L42.7515 34.2229L43.7085 33.7142L44.6655 33.1859L55.8367 27.2375L56.032 27.1201L56.7937 26.7092L57.7507 26.1808L66.6564 21.4456L68.1212 20.6629C68.4141 20.5064 68.6094 20.1933 68.6094 19.8607C68.6094 19.7824 68.6094 19.6846 68.5704 19.6063H68.668ZM54.1962 26.0243L54.0009 26.1417L42.8296 32.0901L41.8531 32.5989L40.9157 33.1076L34.9785 36.2971L34.6856 36.4536L34.3926 36.2971L28.4555 33.1272L27.4985 32.6184L26.522 32.0901L15.3507 26.1417L15.1359 26.0243L14.3742 25.6134L13.3977 25.1047L3.4764 19.8215L34.6465 1.99585L65.8361 19.802L55.9148 25.0851L54.9579 25.5938L54.1962 26.0047V26.0243Z" fill="#082029"/>
<path d="M67.7695 48.0178C67.0859 48.0178 66.5391 47.4699 66.5391 46.7851V46.472C66.5391 45.7871 67.0859 45.2393 67.7695 45.2393C68.453 45.2393 68.9999 45.7871 68.9999 46.472V46.7851C68.9999 47.4699 68.453 48.0178 67.7695 48.0178Z" fill="#082029"/>
<path d="M67.7695 24.6937C67.2617 24.6937 66.832 25.1046 66.832 25.6329V27.7266C66.832 28.2354 67.2422 28.6659 67.7695 28.6659C68.2968 28.6659 68.7069 28.2549 68.7069 27.7266V25.6329C68.7069 25.1242 68.2773 24.6937 67.7695 24.6937ZM67.7695 31.6401C67.6718 31.6401 67.5742 31.6401 67.4765 31.6988C67.164 31.7966 66.9101 32.0705 66.8516 32.4032C66.8516 32.4619 66.8516 32.5206 66.8516 32.5793V34.673C66.8516 35.1817 67.2617 35.6122 67.789 35.6122C68.3163 35.6122 68.7264 35.2013 68.7264 34.673V32.5793C68.7264 32.0705 68.2968 31.6401 67.789 31.6401H67.7695ZM67.7695 38.5864C67.2617 38.5864 66.832 38.9973 66.832 39.5256V41.6193C66.832 42.1281 67.2422 42.5585 67.7695 42.5585C68.2968 42.5585 68.7069 42.1476 68.7069 41.6193V39.5256C68.7069 39.0169 68.2773 38.5864 67.7695 38.5864Z" fill="#082029"/>
<path d="M67.7695 22.013C67.0859 22.013 66.5391 21.4652 66.5391 20.7803V20.4672C66.5391 19.7824 67.0859 19.2345 67.7695 19.2345C68.453 19.2345 68.9999 19.7824 68.9999 20.4672V20.7803C68.9999 21.4652 68.453 22.013 67.7695 22.013Z" fill="#082029"/>
<path d="M35.8963 64.1412V64.4543C35.8963 65.1391 35.33 65.687 34.6659 65.687C34.0019 65.687 33.4355 65.1196 33.4355 64.4543V64.1412C33.4355 63.8868 33.5137 63.652 33.6308 63.4564C33.8457 63.1237 34.2363 62.8889 34.6659 62.8889C35.0956 62.8889 35.4862 63.1042 35.701 63.4564C35.8182 63.652 35.8963 63.8868 35.8963 64.1412Z" fill="#082029"/>
<path d="M34.6464 42.3629C34.1386 42.3629 33.709 42.7738 33.709 43.3021V45.3958C33.709 45.9046 34.1191 46.335 34.6464 46.335C35.1737 46.335 35.5839 45.9241 35.5839 45.3958V43.3021C35.5839 42.7934 35.1542 42.3629 34.6464 42.3629ZM35.5643 50.0919C35.5058 49.7593 35.2714 49.4658 34.9589 49.368C34.8613 49.3288 34.7636 49.3093 34.6464 49.3093C34.5292 49.3093 34.4316 49.3093 34.3339 49.368C34.0215 49.4854 33.7676 49.7593 33.7285 50.0919C33.7285 50.1311 33.7285 50.1898 33.7285 50.2289V52.3226C33.7285 52.8313 34.1386 53.2618 34.666 53.2618C35.1933 53.2618 35.6034 52.8509 35.6034 52.3226V50.2289C35.6034 50.2289 35.6034 50.1311 35.6034 50.0919H35.5643ZM34.6464 56.2556C34.1386 56.2556 33.709 56.6665 33.709 57.1948V59.2885C33.709 59.7972 34.1191 60.2277 34.6464 60.2277C35.1737 60.2277 35.5839 59.8168 35.5839 59.2885V57.1948C35.5839 56.6861 35.1542 56.2556 34.6464 56.2556Z" fill="#082029"/>
<path d="M35.8963 37.4907V38.4299C35.8963 39.1148 35.33 39.6627 34.6659 39.6627C34.0019 39.6627 33.4355 39.0952 33.4355 38.4299V37.4907C33.4355 37.2755 33.4941 37.0798 33.5723 36.9037C33.748 36.5906 34.0215 36.3558 34.3925 36.2775C34.4902 36.2775 34.5878 36.2384 34.6855 36.2384C34.7831 36.2384 34.8808 36.2384 34.9784 36.2775C35.33 36.3558 35.6229 36.5906 35.7792 36.9037C35.8768 37.0798 35.9159 37.2755 35.9159 37.4907H35.8963Z" fill="#082029"/>
<path d="M7.87043 28.705C7.44077 28.705 7.01111 28.4702 6.77675 28.0593C6.4252 27.4527 6.64003 26.6896 7.24547 26.3374L8.33916 25.7113C8.94459 25.3591 9.70627 25.5743 10.0578 26.1809C10.4094 26.7875 10.1945 27.5506 9.58909 27.9028L8.4954 28.5289C8.3001 28.6463 8.08527 28.6855 7.87043 28.6855V28.705Z" fill="#082029"/>
<path d="M32.2046 51.129C32.0093 51.129 31.7945 51.0899 31.6187 50.9725L29.3727 49.7789C28.7673 49.4462 28.533 48.6831 28.8454 48.0765C29.1774 47.4504 29.9391 47.2352 30.5446 47.5482L32.7905 48.7418C33.396 49.0745 33.6303 49.8376 33.3178 50.4442C33.0835 50.8747 32.6538 51.1095 32.2046 51.1095V51.129ZM36.7747 50.9921C36.3255 50.9921 35.8958 50.7572 35.6615 50.3268C35.3294 49.7202 35.5638 48.9571 36.1888 48.6244L38.4347 47.4308C39.0402 47.0982 39.8018 47.333 40.1339 47.9591C40.4659 48.5657 40.2315 49.3288 39.6065 49.6615L37.3606 50.8551C37.1653 50.9529 36.97 51.0116 36.7747 51.0116V50.9921ZM25.4862 47.5287C25.2909 47.5287 25.0761 47.4895 24.9003 47.3721L22.6544 46.1785C22.0489 45.8459 21.8146 45.0828 22.1271 44.4762C22.4591 43.85 23.2208 43.6348 23.8262 43.9479L26.0722 45.1415C26.6776 45.4741 26.912 46.2372 26.5995 46.8438C26.3651 47.2743 25.9354 47.5091 25.4862 47.5091V47.5287ZM43.493 47.4113C43.0438 47.4113 42.6142 47.1765 42.3798 46.746C42.0478 46.1394 42.2822 45.3567 42.8876 45.0436L45.1336 43.8305C45.739 43.4978 46.5007 43.7326 46.8327 44.3588C47.1647 44.9849 46.9303 45.7481 46.3054 46.0611L44.0789 47.2547C43.8836 47.3526 43.6883 47.4113 43.4735 47.4113H43.493ZM18.7679 43.9479C18.5726 43.9479 18.3577 43.9087 18.182 43.7913L15.936 42.5977C15.3306 42.2651 15.0962 41.502 15.4087 40.8954C15.7407 40.2693 16.5024 40.054 17.1078 40.3671L19.3538 41.5607C19.9592 41.8933 20.1936 42.6564 19.8811 43.263C19.6467 43.6935 19.2171 43.9283 18.7679 43.9283V43.9479ZM50.2114 43.8109C49.7622 43.8109 49.3326 43.5761 49.0982 43.1456C48.7662 42.5195 49.0005 41.7564 49.6255 41.4433L51.8715 40.2497C52.4769 39.917 53.2386 40.1519 53.5706 40.778C53.9026 41.4042 53.6683 42.1673 53.0433 42.4803L50.7973 43.6739C50.602 43.7718 50.4067 43.8305 50.2114 43.8305V43.8109ZM12.0495 40.3671C11.8542 40.3671 11.6394 40.328 11.4636 40.2106L9.21764 39.017C8.61221 38.6843 8.37784 37.9212 8.69033 37.3146C9.02234 36.6885 9.78401 36.4732 10.3895 36.7863L12.6354 37.9799C13.2604 38.3125 13.4752 39.0757 13.1627 39.6822C12.9284 40.1127 12.4987 40.3475 12.0495 40.3475V40.3671ZM56.9298 40.2301C56.4806 40.2301 56.0509 39.9953 55.8166 39.5648C55.4846 38.9583 55.7189 38.1756 56.3243 37.8625L58.5703 36.6689C59.1758 36.3363 59.9374 36.5711 60.2694 37.1972C60.6015 37.8234 60.3671 38.5865 59.7421 38.8996L57.4962 40.0932C57.3009 40.191 57.1056 40.2497 56.8907 40.2497L56.9298 40.2301ZM5.31161 36.7667C5.11631 36.7667 4.90148 36.7276 4.72571 36.6102L2.47974 35.4166C1.87431 35.084 1.63994 34.3208 1.95243 33.7143C2.28444 33.0881 3.04611 32.8729 3.65155 33.1859L5.89752 34.3795C6.50295 34.7122 6.73731 35.4753 6.42483 36.0819C6.19047 36.5124 5.7608 36.7472 5.31161 36.7472V36.7667ZM63.6677 36.6493C63.2185 36.6493 62.7888 36.4145 62.5545 35.984C62.2225 35.3579 62.4568 34.5948 63.0818 34.2817L65.3278 33.0881C65.9332 32.7555 66.7144 32.9903 67.0269 33.6164C67.3589 34.2426 67.1245 35.0057 66.4996 35.3188L64.2536 36.5124C64.0583 36.6102 63.863 36.6689 63.6677 36.6689V36.6493ZM1.26887 32.4815C0.839208 32.4815 0.409545 32.2467 0.175183 31.8358C-0.176359 31.2292 0.0384722 30.4661 0.643907 30.1139L2.85081 28.8616C3.45625 28.529 4.21792 28.7246 4.56947 29.3312C4.92101 29.9378 4.70618 30.7009 4.10074 31.0531L1.89384 32.3054C1.69853 32.4228 1.4837 32.462 1.26887 32.462V32.4815ZM67.2417 32.3446C67.0269 32.3446 66.812 32.2859 66.6167 32.188L64.4098 30.9357C63.8044 30.5835 63.5896 29.8204 63.9411 29.2138C64.2927 28.6072 65.0543 28.4116 65.6598 28.7442L67.8667 29.9965C68.4721 30.3487 68.6869 31.1118 68.3354 31.7184C68.101 32.1293 67.6714 32.3641 67.2417 32.3641V32.3446Z" fill="#082029"/>
<path d="M60.5813 28.5485C60.3665 28.5485 60.1516 28.4898 59.9563 28.392L58.8627 27.7658C58.2572 27.4136 58.0424 26.6505 58.3939 26.0439C58.7455 25.4373 59.5072 25.2221 60.1126 25.5743L61.2063 26.2005C61.8117 26.5527 62.0265 27.3158 61.675 27.9224C61.4406 28.3333 61.011 28.5681 60.5813 28.5681V28.5485Z" fill="#082029"/>
</g>
<defs>
<clipPath id="clip0_120_613">
<rect width="69" height="66" fill="white"/>
</clipPath>
</defs>
</svg>
