<svg width="62" height="68" viewBox="0 0 62 68" fill="none" xmlns="http://www.w3.org/2000/svg">
<g clip-path="url(#clip0_115_1079)">
<path d="M38.7132 31.6918L25.2729 36.0797L13.5796 41.2411L10.3087 42.1047C9.47513 42.8983 8.60156 43.6985 7.65796 44.512C6.62101 45.4056 5.65741 46.2192 4.91387 46.8093C4.09031 47.4595 2.8733 48.6799 2.25313 49.4501C1.32954 50.6071 0.596004 51.8374 0.282584 52.781C-0.277572 54.4881 -0.000828337 56.2153 1.07614 57.8091C2.45652 59.8396 5.21062 61.9135 8.42151 63.3239C10.0586 64.0441 12.8094 64.971 14.8833 65.4879C18.3276 66.3614 24.9928 67.305 28.6571 67.4484C29.3973 67.4784 30.3943 67.4784 30.4343 67.4484C30.5143 67.3984 31.0845 66.3114 31.7446 64.961C33.9986 60.3598 35.6257 56.0419 36.5093 52.3542C37.0361 50.1203 37.4529 47.1428 37.7296 43.6185C37.7997 42.6315 37.8297 39.3306 37.7697 38.2136C37.6796 36.3864 37.5163 34.9027 37.2628 33.449C37.2228 33.2356 37.2128 33.0422 37.2328 33.0322C37.2729 33.0022 37.3962 32.9622 39.05 32.482L38.7166 31.6885L38.7132 31.6918ZM35.6457 33.4923C35.7691 33.4923 36.0925 36.6098 36.1725 38.5804C36.1926 38.9972 36.1825 39.2706 36.1625 39.2706C36.0825 39.2706 34.4454 38.307 33.2784 37.5734C32.2615 36.9333 30.3309 35.6529 30.0275 35.4095C29.9241 35.3395 29.9375 35.3295 30.7677 35.0427C32.1781 34.5659 35.5324 33.489 35.6424 33.489L35.6457 33.4923ZM28.7972 35.7463C28.8872 35.7463 29.1206 35.8796 29.6807 36.2231C31.7747 37.5334 34.6188 39.1172 35.8358 39.6474C36.2126 39.8107 36.2526 39.7474 35.389 40.3375C33.5385 41.5979 31.2345 42.8349 28.4104 44.0853C27.9136 44.3086 27.4968 44.482 27.4868 44.482C27.4668 44.482 27.5268 44.2286 27.6068 43.9219C28.287 41.3912 28.6738 38.8338 28.6938 36.7799C28.7005 36.1019 28.7338 35.7529 28.7938 35.7329C28.7738 35.7429 28.7838 35.7429 28.7938 35.7429L28.7972 35.7463ZM27.3834 36.2864C27.4435 36.3464 27.4034 38.6237 27.3234 39.2439C27.14 40.7277 26.8566 42.108 26.3898 43.6618C26.2765 44.0386 26.1764 44.352 26.1564 44.372C26.1164 44.422 24.7227 43.0616 24.2659 42.5348C23.4724 41.6212 22.8555 40.7076 22.3954 39.8107C22.162 39.3539 21.7952 38.4604 21.8252 38.4303C21.9886 38.317 27.3401 36.2464 27.3834 36.2864ZM20.7416 38.8971C20.7416 38.8971 20.7616 38.8971 20.7716 38.9071C20.7916 38.9272 20.8616 39.0905 20.925 39.2739C21.2484 40.1575 21.9819 41.4579 22.6121 42.2914C23.3023 43.205 24.2059 44.1819 24.9594 44.8221C25.2028 45.0255 25.4262 45.2189 25.4562 45.2489C25.5163 45.3089 25.5363 45.2989 23.8825 45.9291C21.9619 46.6593 19.8714 47.3928 17.4707 48.163C16.8972 48.3464 16.327 48.5331 15.7535 48.7232C15.6635 48.7532 15.6935 48.7032 15.9569 48.2864C17.1439 46.4259 18.9544 42.7816 19.968 40.2008C20.1414 39.7541 20.3148 39.3073 20.3448 39.2039C20.3848 39.0605 20.4348 39.0105 20.5682 38.9405C20.6382 38.9205 20.7116 38.9005 20.7416 38.9005V38.8971ZM18.711 39.7374C18.741 39.7574 18.2242 40.8444 17.7141 41.8413C16.7271 43.7618 15.6502 45.6524 14.2098 47.9463C13.9664 48.3431 13.733 48.7099 13.703 48.7499C13.653 48.8199 13.633 48.7999 13.4696 48.4865C13.1228 47.8063 12.8394 46.9327 12.686 46.1291C12.5327 45.3356 12.5627 43.9552 12.736 43.1016C12.8694 42.4715 12.8594 42.4815 13.1628 42.3281C14.4632 41.6679 18.6677 39.6974 18.711 39.7374ZM36.2326 40.4509V40.8777C36.2326 43.1417 35.9892 46.2525 35.6324 48.5165C35.5724 48.9133 35.519 49.2367 35.509 49.2467C35.509 49.2467 35.2156 49.1667 34.8689 49.0633C33.3451 48.5865 31.688 47.8863 30.1942 47.0627C29.2073 46.5259 27.7769 45.639 27.8169 45.599C27.8269 45.589 28.2537 45.3656 28.7505 45.1022C30.741 44.0652 32.6516 42.9483 34.3087 41.8413C34.9289 41.4245 35.8625 40.7543 36.0658 40.5709L36.2292 40.4476L36.2326 40.4509ZM11.0389 43.4584C11.0789 43.4584 11.0689 43.5384 11.0089 43.9052C10.9689 44.1686 10.9189 44.6554 10.8989 44.9922C10.8188 46.4759 11.0622 47.5729 11.7924 49.0766C11.9958 49.4934 12.1592 49.8402 12.1492 49.8502C12.0792 49.9102 5.35399 51.8807 3.24007 52.4609C2.6099 52.6343 2.06308 52.7843 2.01973 52.7977C1.94971 52.8177 1.93971 52.8077 1.96972 52.6343C2.20312 51.1405 3.3401 49.19 4.92721 47.5462C5.98417 46.4492 6.82773 45.8091 8.26813 44.9855C9.30509 44.3953 10.8989 43.5118 11.0222 43.4717C11.0222 43.4617 11.0322 43.4617 11.0422 43.4617L11.0389 43.4584ZM26.8866 46.2925C26.8866 46.2925 27.14 46.4159 27.4335 46.5859C29.6074 47.8463 32.6349 49.0133 35.2156 49.6135L35.449 49.6635L35.1223 49.8469C33.7719 50.5971 29.3306 52.4476 24.7894 54.1447C24.1292 54.3881 23.479 54.6315 23.3557 54.6815C23.2323 54.7315 23.1223 54.7615 23.1223 54.7515C23.1223 54.7415 23.3056 54.3848 23.539 53.948C24.8094 51.5707 26.0897 48.6765 26.7399 46.6626C26.8199 46.4692 26.8733 46.2959 26.8833 46.2859L26.8866 46.2925ZM25.2729 46.8193C25.2729 46.8193 25.2028 47.0427 25.0995 47.2861C24.2159 49.4301 23.0589 51.7674 21.5752 54.3881C21.1984 55.0583 20.885 55.5984 20.875 55.5984C20.865 55.5984 20.5615 55.4151 20.1948 55.1917C18.0408 53.8713 16.1303 52.2442 14.8833 50.6704L14.6999 50.447L15.6235 50.1936C18.9344 49.29 21.7485 48.3131 24.5427 47.1161C24.9394 46.9527 25.2628 46.8227 25.2729 46.8227V46.8193ZM35.309 50.3236C35.319 50.557 34.8022 52.651 34.3754 54.1647C34.0186 55.4351 33.7152 56.4287 33.155 58.1892C32.9116 58.9627 32.6982 59.6029 32.6882 59.6029C32.6782 59.6029 32.6182 59.5929 32.5549 59.5729C29.5374 59.0227 26.8366 58.2625 24.2959 57.2456C23.5857 56.9622 22.5688 56.5054 22.5088 56.452C22.4887 56.432 23.0989 56.1486 23.8691 55.8118C28.4904 53.7913 33.2851 51.494 34.9322 50.5104C35.1256 50.387 35.279 50.327 35.309 50.327V50.3236ZM12.1359 51.1172C12.1559 51.1372 10.8655 52.9977 9.05835 55.5251C8.42818 56.4087 7.69798 57.4456 7.42457 57.8324C7.15116 58.2192 6.73437 58.8293 6.50098 59.1928L6.07419 59.853L5.6174 59.4662C5.08058 59.0194 4.14366 58.0658 3.72687 57.5357C2.8533 56.4487 2.26313 55.3017 2.02974 54.2547C1.91637 53.7679 1.91637 53.5245 2.01973 53.4912C2.17311 53.4512 4.88386 52.811 7.42457 52.2208C8.83829 51.8974 10.4721 51.5106 11.0622 51.3673C11.6524 51.2239 12.1292 51.1139 12.1392 51.1139L12.1359 51.1172ZM13.4362 51.614L13.7597 51.9808C15.2234 53.6179 16.7171 54.8249 18.5243 55.8819C18.8511 56.0652 19.0945 56.2286 19.0711 56.2386C19.0011 56.2886 12.7927 58.4926 9.91859 59.4895C8.30481 60.0597 6.97111 60.5165 6.9611 60.5165C6.9511 60.5165 6.86108 60.4565 6.75771 60.3831L6.57433 60.2497L6.86774 59.823C7.82134 58.4426 9.02168 56.9288 11.6324 53.7779L13.4296 51.614H13.4362ZM21.5452 57.4156C21.5452 57.4156 22.0019 57.569 22.5521 57.7724C23.8725 58.2692 24.9194 58.5859 26.3198 58.9394C28.047 59.3762 30.5443 59.8029 32.0181 59.9263C32.2415 59.9463 32.3648 59.9663 32.3215 59.9963C32.2515 60.0363 30.7577 60.5331 29.6607 60.8799C27.9136 61.4301 22.5788 63.0038 18.2309 64.2542C17.4273 64.4876 16.7372 64.681 16.6971 64.691C16.5971 64.711 16.2604 64.6209 16.2604 64.5776C16.2604 64.5576 16.5038 64.2408 16.7972 63.8974C18.2609 62.1503 19.7113 60.1997 20.9216 58.3492C21.2584 57.8424 21.5418 57.4256 21.5418 57.4156H21.5452ZM19.7547 57.4656C19.7547 57.4656 19.0445 58.6326 17.7841 60.6265C17.244 61.4701 16.6471 62.4237 16.4337 62.7604C16.2303 63.0839 15.9269 63.594 15.7535 63.8774L15.4601 64.3942L15.3068 64.3542C14.94 64.2542 12.3693 63.3473 11.6891 63.0739C10.8455 62.7371 9.97194 62.3337 9.32176 61.9869C8.5082 61.5501 7.49459 60.8999 7.57461 60.8799C7.59461 60.8699 8.985 60.4931 10.6621 60.0363C15.1134 58.826 17.5807 58.1258 19.1945 57.619C19.4879 57.529 19.7447 57.4556 19.7547 57.4656ZM32.4048 60.4331H32.4148C32.4548 60.5365 30.8111 65.1077 30.2109 66.5481C30.0775 66.8716 30.0275 66.9549 29.9575 66.9449C29.7841 66.9349 27.3968 66.5982 25.943 66.3848C23.4123 65.998 19.1678 65.2578 18.1009 65.0144L17.8575 64.9644L19.3712 64.6176C22.6221 63.8874 24.1859 63.4906 25.7697 63.0038C27.7702 62.3937 29.7508 61.6335 31.7547 60.6965C32.0681 60.5532 32.3348 60.4431 32.4048 60.4331Z" fill="url(#paint0_linear_115_1079)"/>
<path d="M24.8569 0.363198C24.6335 0.333189 21.0258 1.63355 18.7018 2.57715C15.5643 3.8575 13.1236 5.07784 11.6198 6.13146C11.0597 6.52824 10.3595 7.22844 10.2495 7.50184C10.2095 7.60187 10.1895 7.72524 10.1895 7.84861L11.5498 9.13897L14.7907 10.1759L22.5029 11.5563L31.322 13.0701L31.412 12.3065C31.382 12.3065 31.362 12.2965 31.332 12.2965L30.175 12.1131L29.9416 11.6963C28.7413 9.58242 27.4209 6.9617 26.6507 5.19454C26.0505 3.82416 25.4837 2.23705 25.1669 1.10007C24.9936 0.409877 24.9736 0.369866 24.8635 0.359863L24.8569 0.363198ZM24.6935 0.883342H24.7035C24.7035 0.883342 24.7535 1.17676 24.7935 1.51352C24.9669 2.93725 25.2803 4.30763 25.7804 5.79137C26.1572 6.90835 26.1572 6.84833 25.7204 6.71496C24.6835 6.43155 20.0422 5.62799 16.6779 5.1612C16.1411 5.09118 15.681 5.01782 15.681 5.00782C15.641 4.96781 18.1083 3.67745 19.1953 3.17064C20.5857 2.53047 24.4067 0.93669 24.6901 0.883342H24.6935ZM14.9008 5.4346L15.2975 5.56798C17.4515 6.29818 22.8663 7.33513 25.8538 7.57853C26.1906 7.60854 26.474 7.63855 26.484 7.63855C26.494 7.64855 26.2106 7.80193 25.8438 7.97531C24.4001 8.69551 22.8163 9.57909 21.7193 10.2626C21.3959 10.466 21.0991 10.6294 21.0591 10.6294C21.0191 10.6294 20.8057 10.5894 20.5823 10.5594L20.1756 10.4993L19.1586 9.5024C17.3714 7.76525 15.9677 6.42488 15.4309 5.91474L14.9041 5.43794L14.9008 5.4346ZM14.494 5.74802L15.9277 7.53519C16.7113 8.52213 17.5015 9.48573 17.6749 9.69912C17.8482 9.91251 17.9883 10.0859 17.9783 10.0959C17.9383 10.1259 15.9044 9.72913 14.8274 9.48573C13.7204 9.23233 13.2636 9.10896 12.5835 8.89557L12.0233 8.71218V8.56881C12.0333 7.88862 12.8969 6.87167 14.3606 5.83472L14.494 5.74469V5.74802ZM26.664 8.18537C26.704 8.18537 26.7541 8.27539 26.8774 8.55214C27.2242 9.31235 28.3011 11.3662 28.5646 11.763C28.6446 11.8964 28.7879 11.9064 27.3542 11.673C23.9099 11.1128 22.803 10.9328 22.803 10.9128C22.803 10.9028 22.903 10.8328 23.0364 10.7594C24.1033 10.1693 25.1803 9.41904 26.1339 8.61549C26.3673 8.4221 26.5807 8.23872 26.6207 8.20871C26.6307 8.1887 26.6507 8.1787 26.6607 8.1887L26.664 8.18537Z" fill="url(#paint1_linear_115_1079)"/>
<path d="M10.3197 7.36173C10.3197 7.36173 10.0963 7.7185 10.3097 8.24531C10.443 8.56873 10.8265 8.96551 11.2633 9.37229C11.2633 9.37229 15.7845 13.7802 16.3313 14.4104C18.8287 17.2945 19.9157 20.1386 20.019 24.0597C20.079 26.5804 19.6022 28.7943 18.4152 31.3651C16.3013 35.9763 11.8434 41.0678 4.96484 46.716L5.97179 46.3792C6.62197 45.8924 7.50555 45.3723 9.57946 44.2353C14.3641 41.6146 19.7489 39.2072 26.3508 36.7266C35.8601 33.1522 51.4944 28.9644 60.3936 27.604L61.3172 27.4606L61.1738 27.2372C60.3602 25.9769 59.8034 25.1967 59.1332 24.3631C57.1827 21.9458 54.8154 19.9852 51.9212 18.3581C47.9401 16.1342 42.7887 14.397 36.2669 13.1067C35.0365 12.8633 32.3358 12.3965 30.1418 12.0597C25.4905 11.3395 22.483 10.8394 19.1688 10.2725C17.9818 10.0692 16.2013 9.76573 15.0243 9.51233C14.4141 9.37896 13.2471 9.10555 12.3336 8.79213C11.6034 8.50872 10.5464 8.22197 10.323 7.3584L10.3197 7.36173ZM12.9404 9.90244C12.9404 9.90244 13.1138 9.95245 13.3272 10.0258C13.7139 10.1592 14.2107 10.3092 14.8009 10.4726C15.2477 10.596 15.6945 10.7127 16.1413 10.8294C16.7514 10.9827 17.2583 11.1228 17.2683 11.1228C17.3383 11.1928 18.3652 14.4737 18.712 15.7341C18.8454 16.2109 18.9454 16.6176 18.9354 16.6176C18.9254 16.6276 18.812 16.4543 18.682 16.2209C17.495 14.1269 15.6145 12.0064 13.4405 10.2992C13.1571 10.0958 12.9437 9.91244 12.9437 9.90244H12.9404ZM17.9384 11.2828C17.9885 11.2828 18.2119 11.3128 18.4853 11.3728C20.2124 11.7596 23.3099 12.3464 25.2905 12.6832C25.6272 12.7332 25.8907 12.7966 25.8907 12.8166C25.8907 12.8366 25.7673 12.9066 25.6172 12.99C25.2838 13.1633 23.9301 13.9636 23.4833 14.2703C22.3563 15.0205 21.3394 15.8341 20.6092 16.5676C20.3158 16.861 20.059 17.1044 20.059 17.1044C20.059 17.1044 19.999 16.9311 19.9457 16.7177C19.5789 15.3073 18.8187 13.2134 18.1285 11.7396C18.0151 11.5062 17.9251 11.2928 17.9251 11.2728C17.9251 11.2928 17.9251 11.2828 17.9351 11.2828H17.9384ZM26.7342 12.96C26.7942 12.98 26.8976 13.3267 27.101 14.0869C27.4778 15.5607 27.6511 17.2045 27.5878 18.7382C27.5678 19.165 27.5478 19.5618 27.5278 19.6118L27.4978 19.7118L26.971 19.5384C25.884 19.1917 24.1168 18.6749 22.6031 18.2481C21.7395 18.0147 21.0393 17.8013 21.0393 17.7813C21.0393 17.7213 22.2997 16.4609 22.8365 15.9841C23.8634 15.0805 26.6442 12.9266 26.7376 12.9566L26.7342 12.96ZM27.4377 13.0633C27.4678 13.0333 31.6423 13.7535 33.5428 14.1203C34.9565 14.3937 37.0071 14.8205 37.1271 14.8705C37.1871 14.8905 36.9737 15.0139 36.2935 15.3173C33.6128 16.5276 31.6189 17.6146 29.6384 18.9349C29.1216 19.2817 28.6848 19.5651 28.6748 19.5651C28.6648 19.5651 28.6548 19.2717 28.6548 18.9149C28.6548 16.9844 28.268 15.0339 27.5578 13.3901C27.4878 13.2267 27.4244 13.0767 27.4344 13.0633H27.4377ZM38.2341 15.1939C38.2641 15.2239 38.1341 16.0475 38.0107 16.5343C37.6439 18.048 36.6603 20.292 35.45 22.4059C35.2366 22.7827 35.0432 23.0861 35.0232 23.0961C35.0032 23.1061 34.7298 22.9527 34.413 22.7693C33.236 22.0792 31.8923 21.429 30.4319 20.8188C30.0251 20.6454 29.6717 20.5054 29.6584 20.482C29.5883 20.422 32.8593 18.2581 34.5864 17.2211C35.9568 16.3876 38.1941 15.1472 38.2341 15.1906V15.1939ZM39.0076 15.3173C39.0977 15.3173 40.9482 15.8241 41.9118 16.1108C44.2991 16.821 47.0432 17.828 48.8304 18.6415L49.5706 18.9783L49.0537 19.1017C44.6859 20.1086 40.9482 21.2656 37.3405 22.7293C37.0471 22.8527 36.7803 22.9527 36.7603 22.9527C36.7403 22.9527 36.8404 22.7193 36.9737 22.4359C38.0607 20.1286 38.7609 17.7213 38.9343 15.6707C38.9443 15.4773 38.9743 15.3239 39.0043 15.3239L39.0076 15.3173ZM20.5992 19.5451C20.6292 19.5151 22.0429 19.8485 22.8031 20.0619C23.9601 20.3887 26.4208 21.2089 26.4208 21.2723C26.4208 21.2823 26.1474 21.5157 25.8206 21.7991C24.4903 22.906 23.2099 24.073 21.6762 25.5568C21.2194 25.9936 20.8326 26.3503 20.8126 26.3503C20.7926 26.3503 20.7826 26.2903 20.7926 26.207C21.026 24.4998 20.976 22.3059 20.6492 20.0819C20.6192 19.7985 20.5892 19.5551 20.5992 19.5451ZM50.2741 19.5751C50.2941 19.5951 49.6239 20.6521 49.1971 21.2523C48.587 22.1258 47.6934 23.2828 45.6728 25.8235C44.6059 27.1639 43.4089 28.6777 43.0121 29.1845C42.6053 29.6913 42.2719 30.118 42.2585 30.118C42.2452 30.118 42.1152 29.9347 41.9751 29.7113C40.8381 28.0041 39.4744 26.5104 37.8606 25.17C37.5572 24.9166 37.2205 24.6432 37.1104 24.5598C36.9971 24.4798 36.907 24.3965 36.907 24.3865C36.907 24.3565 38.6342 23.6129 39.9446 23.0861C42.2419 22.1525 45.3694 21.0355 47.7167 20.312C48.9471 19.9252 50.2574 19.5518 50.2774 19.5718L50.2741 19.5751ZM51.0543 19.7785C51.0943 19.7685 51.3377 19.8919 51.6345 20.0619C54.1018 21.4757 56.5192 23.2928 58.4297 25.1633C58.9665 25.6902 60.3002 27.0739 60.2769 27.0839C60.2769 27.0839 59.8101 27.1239 59.2599 27.1639C54.9821 27.4907 49.5072 28.3942 44.2458 29.6613C43.889 29.7413 43.5756 29.8146 43.5556 29.8146C43.5356 29.8146 43.9323 29.4179 44.4291 28.9411C47.5167 25.9636 48.9304 24.0864 50.5942 20.7321C50.8276 20.2353 51.031 19.8085 51.051 19.7785H51.0543ZM28.4314 22.0925C28.5747 22.1225 29.8951 22.7427 30.8887 23.2395C31.8023 23.6963 33.176 24.4265 33.246 24.4898C33.256 24.4998 32.7692 24.7532 32.1691 25.05C30.2585 26.0036 28.6247 26.9105 26.9176 27.9441C26.4308 28.2375 26.024 28.4843 26.014 28.4843C25.974 28.4843 25.984 28.4443 26.2574 27.9441C27.171 26.277 27.9045 24.2864 28.3213 22.3459C28.3613 22.1925 28.4014 22.0925 28.4314 22.0925ZM27.111 22.3359C27.141 22.3659 26.7976 23.6162 26.5842 24.2964C26.1674 25.5868 25.4672 27.2006 24.787 28.4209C24.6236 28.7043 24.3802 29.1211 24.2469 29.3545L23.9935 29.7613L23.4233 29.2145C22.7631 28.5743 22.223 28.1775 21.5328 27.8241C21.2594 27.6807 21.046 27.5607 21.046 27.5407C21.046 27.4606 22.7831 25.8835 24.1135 24.7466C25.0671 23.923 27.081 22.3092 27.111 22.3392V22.3359ZM35.1866 25.6601L35.6834 25.9836C36.8204 26.7238 38.1607 27.7107 39.1877 28.5743C39.7678 29.0511 40.8848 30.058 41.1082 30.3014L41.2282 30.4348L40.4047 30.6682C35.7534 31.9586 32.1557 33.1055 27.9612 34.6493C27.4944 34.8227 27.0977 34.9627 27.0676 34.9627C27.0076 34.9627 26.9543 35.0127 28.0012 34.0491C30.682 31.5818 33.0593 28.8577 34.8265 26.207L35.1832 25.6601H35.1866ZM33.066 26.187C33.086 26.207 31.6956 28.1675 30.862 29.2745C29.8651 30.5948 28.0979 32.8088 26.8809 34.2525C26.3741 34.8527 25.9373 35.3495 25.9173 35.3595C25.8873 35.3695 25.8773 35.2161 25.8773 34.9827C25.8773 33.7524 25.5639 32.442 25.0137 31.3251C24.7803 30.8583 24.7403 30.7449 24.7903 30.6949C24.9837 30.5215 27.9379 28.8344 29.8084 27.8307C31.0688 27.1606 33.0393 26.1636 33.0693 26.1836L33.066 26.187ZM20.2224 29.3378C20.2524 29.3378 20.4858 29.4612 20.7492 29.6012C21.3994 29.958 21.9796 30.3514 22.4964 30.7782C22.5164 30.7982 22.253 31.0116 21.9062 31.265C20.9426 31.9552 19.4789 33.0622 18.6253 33.7424C17.7317 34.4526 17.7017 34.4726 17.8017 34.3225C18.4719 33.2956 18.8087 32.7188 19.1621 31.9752C19.4755 31.315 19.7923 30.5315 20.0157 29.8513C20.0957 29.5579 20.1991 29.3345 20.2191 29.3345L20.2224 29.3378ZM23.6467 32.0186C23.6967 32.0086 23.7601 32.0986 24.0335 32.5054C24.6136 33.3689 25.0604 34.5259 25.1705 35.4629L25.1905 35.6663L23.8001 36.2031C21.3094 37.1667 19.0154 38.1236 17.4616 38.8338C17.0249 39.0372 16.2646 39.404 15.7645 39.6474C15.2677 39.9008 14.8609 40.0942 14.8609 40.0841C14.8609 40.0741 15.1743 39.8408 15.5611 39.5573C18.5986 37.3534 21.2294 34.9361 23.1999 32.5187C23.4133 32.2653 23.6067 32.0319 23.6267 32.0219H23.6467V32.0186ZM22.0729 32.4053C22.1129 32.4454 20.956 33.7557 20.1624 34.5593C18.2019 36.5598 16.2613 38.1236 13.854 39.6507C13.5506 39.8441 13.2738 40.0175 13.2438 40.0375C13.1738 40.0775 13.2638 39.9775 14.3208 38.8271C14.991 38.1069 15.4978 37.4968 16.0779 36.7432C16.4647 36.2464 16.5347 36.1731 17.0949 35.7796C18.5886 34.7027 22.0329 32.3653 22.0729 32.4053Z" fill="url(#paint2_radial_115_1079)"/>
</g>
<defs>
<linearGradient id="paint0_linear_115_1079" x1="10.3189" y1="61.2013" x2="14.9786" y2="58.4478" gradientUnits="userSpaceOnUse">
<stop stop-color="#909CA9"/>
<stop offset="1" stop-color="#EDEDEE"/>
</linearGradient>
<linearGradient id="paint1_linear_115_1079" x1="10.27" y1="6.6164" x2="14.0193" y2="6.6164" gradientUnits="userSpaceOnUse">
<stop stop-color="#939FAB"/>
<stop offset="1" stop-color="#DCDEE1"/>
</linearGradient>
<radialGradient id="paint2_radial_115_1079" cx="0" cy="0" r="1" gradientUnits="userSpaceOnUse" gradientTransform="translate(18.1349 22.596) rotate(-171.46) scale(5.17894 10.3609)">
<stop stop-color="#EE352C"/>
<stop offset="1" stop-color="#A91D22"/>
</radialGradient>
<clipPath id="clip0_115_1079">
<rect width="61.317" height="67.112" fill="white" transform="translate(0 0.363281)"/>
</clipPath>
</defs>
</svg>
