<svg width="78" height="53" viewBox="0 0 78 53" fill="none" xmlns="http://www.w3.org/2000/svg">
<g clip-path="url(#clip0_115_1038)">
<path d="M16.1109 19.8926H8.83594V26.8612H16.1109V19.8926Z" fill="#04B392"/>
<path d="M55.5875 12.8564H48.3125V19.8251H55.5875V12.8564Z" fill="#04B392"/>
<path d="M55.3235 11.2446C54.7625 10.1028 53.9737 9.0953 52.992 8.2557C52.3609 7.70157 51.6422 7.24819 50.8708 6.86198C49.819 6.35823 48.627 6.0056 47.3824 5.90485C46.3481 5.82089 45.2963 5.90485 44.2796 6.13993C42.6668 2.49611 38.8102 0.21242 34.6205 0.548257C30.2205 0.884093 26.6268 3.99058 25.838 8.18854C25.6977 8.99454 25.6451 9.81734 25.7328 10.6234C22.1917 11.0767 19.457 13.9985 19.457 17.5248C19.457 21.0511 22.0339 23.8217 25.4874 24.3759C25.6276 24.4262 25.7503 24.4598 25.9081 24.4598H45.1035V22.428H26.171C26.171 22.428 26.0834 22.3944 26.0308 22.3944C23.4889 22.0922 21.5606 19.9932 21.5606 17.5248C21.5606 14.8045 23.8571 12.6048 26.8898 12.6048H26.9248C27.2754 12.6552 27.5559 12.4705 27.7663 12.2522C27.9766 12.0003 28.0643 11.698 27.9766 11.3958C27.7663 10.4554 27.7312 9.4983 27.924 8.55796C28.5376 5.28355 31.3599 2.84874 34.7783 2.59686C38.3719 2.3114 41.5799 4.42717 42.6142 7.70157C42.7194 7.95345 42.9122 8.18854 43.1752 8.30608C43.4206 8.44041 43.7361 8.44041 43.9991 8.35646C45.0333 8.00383 46.0852 7.86949 47.2246 7.95345C48.5744 8.0542 49.819 8.50758 50.8708 9.24642C51.6597 9.78376 52.3784 10.489 52.9043 11.2782C52.9394 11.3286 52.9569 11.3622 52.992 11.4126C53.3952 12.0003 53.6757 12.6216 53.8685 13.31H54.5522V18.0957H53.4653C53.1147 18.8513 52.6414 19.5398 52.0629 20.1275H54.7099C54.8151 19.9932 54.9028 19.8421 54.9729 19.6909C55.2884 19.1872 55.5338 18.6498 55.7442 18.0957C56.1474 16.9539 56.3052 15.7449 56.2 14.4687C56.1123 13.3268 55.7968 12.269 55.3235 11.2782V11.2446Z" fill="#082029"/>
<path d="M56.6733 12.2689V18.8849C56.6733 19.439 56.2 19.8924 55.6215 19.8924C55.3761 19.8924 55.1482 19.8085 54.9905 19.6573C54.7275 19.4726 54.5697 19.204 54.5697 18.8681V13.2596H49.3458V18.8681C49.3458 19.4222 48.8725 19.8756 48.294 19.8756C47.7155 19.8756 47.2422 19.4222 47.2422 18.8681V12.2521C47.2422 11.698 47.7155 11.2446 48.294 11.2446H55.6215C56.2 11.2446 56.6733 11.698 56.6733 12.2521V12.2689Z" fill="#082029"/>
<path d="M51.9405 13.2762C51.362 13.2762 50.8887 12.8229 50.8887 12.2687V1.53876C50.8887 0.984629 51.362 0.53125 51.9405 0.53125C52.519 0.53125 52.9923 0.984629 52.9923 1.53876V12.2519C52.9923 12.8061 52.519 13.2595 51.9405 13.2595V13.2762Z" fill="#082029"/>
<path d="M74.712 51.6957C74.1335 51.6957 73.6602 51.2423 73.6602 50.6882V37.6745C73.6602 37.1204 74.1335 36.667 74.712 36.667C75.2904 36.667 75.7638 37.1204 75.7638 37.6745V50.6882C75.7638 51.2423 75.2904 51.6957 74.712 51.6957Z" fill="#082029"/>
<path d="M19.2474 51.6961C18.669 51.6961 18.1956 51.2428 18.1956 50.6886V30.3537C18.1956 28.9936 17.0387 27.8853 15.6187 27.8853H8.04575C6.62582 27.8853 5.46884 28.9936 5.46884 30.3537V50.6886C5.46884 51.2428 4.99553 51.6961 4.41704 51.6961C3.83855 51.6961 3.36523 51.2428 3.36523 50.6886V30.3537C3.36523 27.8685 5.46884 25.8535 8.06328 25.8535H15.6363C18.2307 25.8535 20.3343 27.8685 20.3343 30.3537V50.6886C20.3343 51.2428 19.861 51.6961 19.2825 51.6961H19.2474Z" fill="#082029"/>
<path d="M15.8811 27.8682C15.3027 27.8682 14.8293 27.4149 14.8293 26.8607V22.9818C14.8293 21.4034 13.4795 20.1104 11.8317 20.1104C10.1839 20.1104 8.83407 21.4034 8.83407 22.9818V26.8607C8.83407 27.4149 8.36076 27.8682 7.78227 27.8682C7.20378 27.8682 6.73047 27.4149 6.73047 26.8607V22.9818C6.73047 20.2783 9.0269 18.0786 11.8492 18.0786C14.6716 18.0786 16.968 20.2783 16.968 22.9818V26.8607C16.968 27.4149 16.4947 27.8682 15.9162 27.8682H15.8811Z" fill="#082029"/>
<path d="M11.8331 19.9258C11.2546 19.9258 10.7812 19.4724 10.7812 18.9183V13.78C10.7812 13.2258 11.2546 12.7725 11.8331 12.7725C12.4115 12.7725 12.8849 13.2258 12.8849 13.78V18.9183C12.8849 19.4724 12.4115 19.9258 11.8331 19.9258Z" fill="#082029"/>
<path d="M31.6404 51.6958C31.062 51.6958 30.5886 51.2424 30.5886 50.6883V39.2531L25.4523 34.6521L19.983 39.5553C19.5622 39.9415 18.8786 39.9247 18.4929 39.5049C18.0897 39.1019 18.1073 38.4471 18.5455 38.0776L24.7511 32.5363C25.1543 32.1669 25.7854 32.1669 26.2061 32.5363L32.3942 38.0776C32.6046 38.2624 32.7273 38.531 32.7273 38.8165V50.6883C32.7273 51.2424 32.254 51.6958 31.6755 51.6958H31.6404Z" fill="#082029"/>
<path d="M44.035 39.824C43.772 39.824 43.5091 39.74 43.3162 39.5553L37.8469 34.6521L32.3775 39.5553C31.9568 39.9415 31.2731 39.9247 30.8875 39.505C30.4843 39.1019 30.5018 38.4471 30.94 38.0776L37.1281 32.5363C37.5313 32.1669 38.1624 32.1669 38.5831 32.5363L44.7888 38.0776C45.2095 38.4639 45.2445 39.1019 44.8414 39.505C44.631 39.7232 44.3505 39.824 44.07 39.824H44.035Z" fill="#082029"/>
<path d="M60.9157 19.0861V50.6883C60.9157 51.2425 60.4424 51.6959 59.8639 51.6959C59.2854 51.6959 58.8121 51.2425 58.8121 50.6883V20.0936H45.1212V50.6716C45.1212 51.2257 44.6479 51.6791 44.0694 51.6791C43.4909 51.6791 43.0176 51.2257 43.0176 50.6716V19.0861C43.0176 18.532 43.4909 18.0786 44.0694 18.0786H59.8815C60.46 18.0786 60.9333 18.532 60.9333 19.0861H60.9157Z" fill="#082029"/>
<path d="M74.7122 38.6821C74.3966 38.6821 74.0986 38.5478 73.8883 38.3127L66.701 29.8832H59.8467C59.2682 29.8832 58.7949 29.4298 58.7949 28.8757C58.7949 28.3215 59.2682 27.8682 59.8467 27.8682H67.1918C67.5073 27.8682 67.8054 28.0025 68.0157 28.2376L75.5186 37.0533C75.8867 37.4899 75.8166 38.128 75.3608 38.4806C75.168 38.6317 74.9226 38.7157 74.6947 38.7157L74.7122 38.6821Z" fill="#082029"/>
<path d="M11.8331 35.7939C11.2546 35.7939 10.7812 35.3405 10.7812 34.7864V33.2751C10.7812 32.721 11.2546 32.2676 11.8331 32.2676C12.4115 32.2676 12.8849 32.721 12.8849 33.2751V34.7864C12.8849 35.3405 12.4115 35.7939 11.8331 35.7939Z" fill="#006170"/>
<path d="M11.8331 41.1337C11.2546 41.1337 10.7812 40.6803 10.7812 40.1262V38.6149C10.7812 38.0608 11.2546 37.6074 11.8331 37.6074C12.4115 37.6074 12.8849 38.0608 12.8849 38.6149V40.1262C12.8849 40.6803 12.4115 41.1337 11.8331 41.1337Z" fill="#006170"/>
<path d="M53.9034 37.809C53.3249 37.809 52.8516 37.3556 52.8516 36.8015V35.2902C52.8516 34.7361 53.3249 34.2827 53.9034 34.2827C54.4819 34.2827 54.9552 34.7361 54.9552 35.2902V36.8015C54.9552 37.3556 54.4819 37.809 53.9034 37.809Z" fill="#006170"/>
<path d="M53.9034 32.5194C53.3249 32.5194 52.8516 32.0661 52.8516 31.5119V30.0007C52.8516 29.4465 53.3249 28.9932 53.9034 28.9932C54.4819 28.9932 54.9552 29.4465 54.9552 30.0007V31.5119C54.9552 32.0661 54.4819 32.5194 53.9034 32.5194Z" fill="#006170"/>
<path d="M53.9034 27.6166C53.3249 27.6166 52.8516 27.1632 52.8516 26.6091V25.0978C52.8516 24.5437 53.3249 24.0903 53.9034 24.0903C54.4819 24.0903 54.9552 24.5437 54.9552 25.0978V26.6091C54.9552 27.1632 54.4819 27.6166 53.9034 27.6166Z" fill="#006170"/>
<path d="M53.9034 43.1654C53.3249 43.1654 52.8516 42.7121 52.8516 42.1579V40.6467C52.8516 40.0925 53.3249 39.6392 53.9034 39.6392C54.4819 39.6392 54.9552 40.0925 54.9552 40.6467V42.1579C54.9552 42.7121 54.4819 43.1654 53.9034 43.1654Z" fill="#006170"/>
<path d="M53.9034 48.5224C53.3249 48.5224 52.8516 48.069 52.8516 47.5149V46.0036C52.8516 45.4495 53.3249 44.9961 53.9034 44.9961C54.4819 44.9961 54.9552 45.4495 54.9552 46.0036V47.5149C54.9552 48.069 54.4819 48.5224 53.9034 48.5224Z" fill="#006170"/>
<path d="M49.9952 37.809C49.4167 37.809 48.9434 37.3556 48.9434 36.8015V35.2902C48.9434 34.7361 49.4167 34.2827 49.9952 34.2827C50.5737 34.2827 51.047 34.7361 51.047 35.2902V36.8015C51.047 37.3556 50.5737 37.809 49.9952 37.809Z" fill="#006170"/>
<path d="M49.9952 32.5194C49.4167 32.5194 48.9434 32.0661 48.9434 31.5119V30.0007C48.9434 29.4465 49.4167 28.9932 49.9952 28.9932C50.5737 28.9932 51.047 29.4465 51.047 30.0007V31.5119C51.047 32.0661 50.5737 32.5194 49.9952 32.5194Z" fill="#006170"/>
<path d="M49.9952 27.6166C49.4167 27.6166 48.9434 27.1632 48.9434 26.6091V25.0978C48.9434 24.5437 49.4167 24.0903 49.9952 24.0903C50.5737 24.0903 51.047 24.5437 51.047 25.0978V26.6091C51.047 27.1632 50.5737 27.6166 49.9952 27.6166Z" fill="#006170"/>
<path d="M49.9952 43.1654C49.4167 43.1654 48.9434 42.7121 48.9434 42.1579V40.6467C48.9434 40.0925 49.4167 39.6392 49.9952 39.6392C50.5737 39.6392 51.047 40.0925 51.047 40.6467V42.1579C51.047 42.7121 50.5737 43.1654 49.9952 43.1654Z" fill="#006170"/>
<path d="M49.9952 48.5224C49.4167 48.5224 48.9434 48.069 48.9434 47.5149V46.0036C48.9434 45.4495 49.4167 44.9961 49.9952 44.9961C50.5737 44.9961 51.047 45.4495 51.047 46.0036V47.5149C51.047 48.069 50.5737 48.5224 49.9952 48.5224Z" fill="#006170"/>
<path d="M25.4522 43.1654C24.8737 43.1654 24.4004 42.7121 24.4004 42.1579V40.6467C24.4004 40.0925 24.8737 39.6392 25.4522 39.6392C26.0307 39.6392 26.504 40.0925 26.504 40.6467V42.1579C26.504 42.7121 26.0307 43.1654 25.4522 43.1654Z" fill="#006170"/>
<path d="M25.4522 48.5224C24.8737 48.5224 24.4004 48.069 24.4004 47.5149V46.0036C24.4004 45.4495 24.8737 44.9961 25.4522 44.9961C26.0307 44.9961 26.504 45.4495 26.504 46.0036V47.5149C26.504 48.069 26.0307 48.5224 25.4522 48.5224Z" fill="#006170"/>
<path d="M37.8467 43.1654C37.2682 43.1654 36.7949 42.7121 36.7949 42.1579V40.6467C36.7949 40.0925 37.2682 39.6392 37.8467 39.6392C38.4252 39.6392 38.8985 40.0925 38.8985 40.6467V42.1579C38.8985 42.7121 38.4252 43.1654 37.8467 43.1654Z" fill="#006170"/>
<path d="M37.8467 48.5224C37.2682 48.5224 36.7949 48.069 36.7949 47.5149V46.0036C36.7949 45.4495 37.2682 44.9961 37.8467 44.9961C38.4252 44.9961 38.8985 45.4495 38.8985 46.0036V47.5149C38.8985 48.069 38.4252 48.5224 37.8467 48.5224Z" fill="#006170"/>
<path d="M66.4034 43.1654C65.8249 43.1654 65.3516 42.7121 65.3516 42.1579V40.6467C65.3516 40.0925 65.8249 39.6392 66.4034 39.6392C66.9819 39.6392 67.4552 40.0925 67.4552 40.6467V42.1579C67.4552 42.7121 66.9819 43.1654 66.4034 43.1654Z" fill="#006170"/>
<path d="M66.4034 37.809C65.8249 37.809 65.3516 37.3556 65.3516 36.8015V35.2902C65.3516 34.7361 65.8249 34.2827 66.4034 34.2827C66.9819 34.2827 67.4552 34.7361 67.4552 35.2902V36.8015C67.4552 37.3556 66.9819 37.809 66.4034 37.809Z" fill="#006170"/>
<path d="M66.4034 48.5224C65.8249 48.5224 65.3516 48.069 65.3516 47.5149V46.0036C65.3516 45.4495 65.8249 44.9961 66.4034 44.9961C66.9819 44.9961 67.4552 45.4495 67.4552 46.0036V47.5149C67.4552 48.069 66.9819 48.5224 66.4034 48.5224Z" fill="#006170"/>
<path d="M77.1321 52.4852H0.823912C0.368131 52.4852 0 52.1325 0 51.696C0 51.2594 0.368131 50.9067 0.823912 50.9067H77.1321C77.5879 50.9067 77.9561 51.2594 77.9561 51.696C77.9561 52.1325 77.5879 52.4852 77.1321 52.4852Z" fill="#082029"/>
</g>
<defs>
<clipPath id="clip0_115_1038">
<rect width="77.9561" height="51.9707" fill="white" transform="translate(0 0.514648)"/>
</clipPath>
</defs>
</svg>
