<svg width="57" height="56" viewBox="0 0 57 56" fill="none" xmlns="http://www.w3.org/2000/svg">
<g clip-path="url(#clip0_115_1084)">
<path d="M29.182 31.7078C37.9379 31.7078 45.036 24.6098 45.036 15.8539C45.036 7.09804 37.9379 0 29.182 0C20.4262 0 13.3281 7.09804 13.3281 15.8539C13.3281 24.6098 20.4262 31.7078 29.182 31.7078Z" fill="#036C70"/>
<path d="M42.3941 44.9195C50.4203 44.9195 56.9269 38.413 56.9269 30.3868C56.9269 22.3605 50.4203 15.854 42.3941 15.854C34.3679 15.854 27.8613 22.3605 27.8613 30.3868C27.8613 38.413 34.3679 44.9195 42.3941 44.9195Z" fill="#1A9BA1"/>
<path d="M31.1654 55.4885C37.3675 55.4885 42.3953 50.4607 42.3953 44.2587C42.3953 38.0566 37.3675 33.0288 31.1654 33.0288C24.9633 33.0288 19.9355 38.0566 19.9355 44.2587C19.9355 50.4607 24.9633 55.4885 31.1654 55.4885Z" fill="#37C6D0"/>
<path opacity="0.1" d="M31.8248 14.3083V42.5019C31.8182 43.4816 31.2245 44.3617 30.3186 44.7347C30.0302 44.8567 29.7202 44.9195 29.407 44.9196H19.9475C19.9343 44.695 19.9343 44.4837 19.9343 44.259C19.9299 44.0385 19.9387 43.8179 19.9607 43.5985C20.2025 39.3753 22.8042 35.6492 26.6855 33.9672V31.5098C18.0476 30.141 12.1548 22.029 13.5237 13.3911C13.5331 13.3313 13.543 13.2715 13.5531 13.2118C13.6189 12.7662 13.7116 12.325 13.8306 11.8906H29.4071C30.7402 11.8957 31.8197 12.9752 31.8248 14.3083Z" fill="black"/>
<path opacity="0.2" d="M28.0862 13.2114H13.5534C12.0853 21.8337 17.8849 30.0136 26.5072 31.4817C26.7683 31.5262 27.0305 31.5641 27.2934 31.5954C23.1979 33.5375 20.2134 39.0533 19.9597 43.5981C19.9377 43.8176 19.9289 44.0382 19.9333 44.2587C19.9333 44.4833 19.9333 44.6947 19.9465 44.9193C19.9703 45.3634 20.0277 45.805 20.1182 46.2404H28.0848C29.0645 46.2339 29.9446 45.6402 30.3175 44.7343C30.4396 44.4459 30.5025 44.1359 30.5025 43.8227V15.6291C30.4975 14.2965 29.4188 13.2172 28.0862 13.2114Z" fill="black"/>
<path opacity="0.2" d="M28.0861 13.2114H13.5533C12.0855 21.8345 17.886 30.0148 26.5091 31.4826C26.6855 31.5126 26.8624 31.5396 27.0397 31.5637C23.0762 33.6458 20.2093 39.1485 19.9609 43.5981H28.0861C29.4171 43.5881 30.4937 42.5115 30.5038 41.1804V15.6291C30.4987 14.296 29.4192 13.2165 28.0861 13.2114Z" fill="black"/>
<path opacity="0.2" d="M26.7644 13.2114H13.5528C12.1669 21.3517 17.2677 29.1909 25.2715 31.2215C22.2409 34.6841 20.382 39.0159 19.9605 43.5981H26.7645C28.0976 43.593 29.1771 42.5136 29.1822 41.1804V15.6291C29.1814 14.2942 28.0994 13.2122 26.7644 13.2114Z" fill="black"/>
<path d="M2.53887 13.2114H26.761C28.0985 13.2114 29.1827 14.2957 29.1827 15.6331V39.8553C29.1827 41.1927 28.0985 42.2769 26.761 42.2769H2.53887C1.20141 42.2769 0.117188 41.1927 0.117188 39.8553V15.6331C0.117188 14.2957 1.20141 13.2114 2.53887 13.2114Z" fill="url(#paint0_linear_115_1084)"/>
<path d="M10.9345 27.4482C10.367 27.0718 9.89293 26.5706 9.54859 25.9831C9.21494 25.3688 9.04865 24.6776 9.06636 23.9788C9.03664 23.0327 9.35592 22.1087 9.96341 21.3828C10.6018 20.6559 11.4269 20.1177 12.3494 19.8264C13.4008 19.4804 14.502 19.3099 15.6087 19.3218C17.0642 19.2686 18.5176 19.4721 19.9025 19.9229V22.9616C19.3007 22.597 18.6453 22.3295 17.9604 22.1689C17.2172 21.9866 16.4545 21.8952 15.6893 21.8967C14.8823 21.8671 14.0806 22.0368 13.3548 22.3908C12.7945 22.6325 12.4312 23.1837 12.43 23.7939C12.4277 24.164 12.5699 24.5205 12.8264 24.7874C13.1292 25.1021 13.4875 25.3583 13.8833 25.5431C14.3237 25.7624 14.9843 26.054 15.865 26.4178C15.962 26.4484 16.0565 26.4864 16.1478 26.5314C17.0146 26.8702 17.8509 27.2826 18.6474 27.764C19.2506 28.1359 19.7568 28.6458 20.1245 29.2516C20.5014 29.9384 20.6841 30.7149 20.6529 31.4976C20.696 32.469 20.3988 33.4249 19.8127 34.2007C19.2285 34.9139 18.4474 35.4395 17.5667 35.7121C16.5308 36.0368 15.4496 36.1938 14.3642 36.1772C13.3903 36.1816 12.4179 36.102 11.4576 35.9393C10.6469 35.8067 9.85566 35.5742 9.10203 35.247V32.0432C9.82241 32.5577 10.6272 32.9423 11.4801 33.1794C12.3301 33.4443 13.2137 33.5858 14.1039 33.5996C14.9279 33.6518 15.7503 33.4772 16.482 33.0949C16.9946 32.8057 17.3063 32.2578 17.2932 31.6694C17.2967 31.2599 17.1347 30.8665 16.844 30.5781C16.4826 30.2233 16.0641 29.9316 15.6061 29.7154C15.0777 29.4511 14.2995 29.1028 13.2716 28.6703C12.4539 28.3416 11.671 27.9322 10.9345 27.4482Z" fill="white"/>
</g>
<defs>
<linearGradient id="paint0_linear_115_1084" x1="5.16646" y1="11.3192" x2="24.1334" y2="44.1692" gradientUnits="userSpaceOnUse">
<stop stop-color="#058F92"/>
<stop offset="0.5" stop-color="#038489"/>
<stop offset="1" stop-color="#026D71"/>
</linearGradient>
<clipPath id="clip0_115_1084">
<rect width="56.8099" height="55.4887" fill="white" transform="translate(0.117188)"/>
</clipPath>
</defs>
</svg>
