<svg width="63" height="54" viewBox="0 0 63 54" fill="none" xmlns="http://www.w3.org/2000/svg">
<g clip-path="url(#clip0_115_699)">
<path d="M60.0071 11.8299C59.4882 11.8299 59.0732 11.4124 59.0732 10.8905V1.86147H50.0979C49.5791 1.86147 49.1641 1.44394 49.1641 0.922036C49.1641 0.400129 49.5964 0 50.0979 0H60.9236V10.8905C60.9236 11.4124 60.5086 11.8299 59.9898 11.8299H60.0071Z" fill="#082029"/>
<path d="M12.8996 53.9999H2.05664V43.1095C2.05664 42.5876 2.47168 42.17 2.99049 42.17C3.50929 42.17 3.92433 42.5876 3.92433 43.1095V52.1385H12.8996C13.4184 52.1385 13.8335 52.556 13.8335 53.0779C13.8335 53.5998 13.4184 54.0173 12.8996 54.0173V53.9999Z" fill="#082029"/>
<path d="M60.9236 54H50.0979C49.5791 54 49.1641 53.5825 49.1641 53.0606C49.1641 52.5387 49.5791 52.1211 50.0979 52.1211H59.0732V43.0921C59.0732 42.5702 59.4882 42.1527 60.007 42.1527C60.5259 42.1527 60.9409 42.5702 60.9409 43.0921V53.9826L60.9236 54Z" fill="#082029"/>
<path d="M2.99049 11.8299C2.47168 11.8299 2.05664 11.4124 2.05664 10.8905V0H12.8823C13.4011 0 13.8162 0.417526 13.8162 0.939433C13.8162 1.46134 13.4011 1.87887 12.8823 1.87887H3.92433V10.9079C3.92433 11.4298 3.50929 11.8473 2.99049 11.8473V11.8299Z" fill="#082029"/>
<path d="M46.7079 37.125C46.5523 37.125 46.3793 37.0902 46.2237 36.9858C45.7913 36.7248 45.6357 36.1507 45.9124 35.6984C47.4861 33.0715 48.3162 30.0618 48.3162 26.9826C48.3162 23.9033 47.4342 20.7197 45.7741 18.0406C45.4974 17.6056 45.6357 17.0315 46.068 16.7532C46.5004 16.4748 47.0711 16.614 47.3478 17.0489C49.1982 20.0238 50.1666 23.4684 50.1666 26.9826C50.1666 30.4967 49.25 33.75 47.5034 36.6552C47.3305 36.951 47.0192 37.1076 46.7079 37.1076V37.125Z" fill="#006170"/>
<path d="M15.891 36.4465C15.5624 36.4465 15.2512 36.2726 15.0782 35.9594C13.6083 33.2281 12.8301 30.1314 12.8301 27C12.8301 23.6424 13.7293 20.337 15.4068 17.4665C15.6662 17.0142 16.2369 16.875 16.6865 17.136C17.1361 17.3969 17.2745 17.971 17.0151 18.4233C15.4933 21.0155 14.6978 23.9729 14.6978 27C14.6978 29.8183 15.3895 32.6018 16.7211 35.0548C16.9632 35.5071 16.7903 36.0812 16.3579 36.3247C16.2196 36.3943 16.064 36.4291 15.9083 36.4291L15.891 36.4465Z" fill="#006170"/>
<path d="M31.9056 45.7886C31.6635 45.7886 31.5078 45.7886 31.4559 45.7886C30.8334 45.8234 14.0241 46.4149 0.189394 27.5567C-0.0527145 27.2261 -0.0527145 26.7738 0.189394 26.4433C13.7993 7.89816 30.2973 8.15911 31.4905 8.2113C32.6838 8.15911 49.1817 7.88076 62.8089 26.4433C63.051 26.7738 63.051 27.2261 62.8089 27.5567C50.0464 44.9362 34.7763 45.7886 31.9056 45.7886ZM31.4559 43.9098C31.698 43.9098 47.7636 44.4317 60.9067 27C47.7636 9.55086 31.698 10.0902 31.5424 10.0902C31.5078 10.0902 31.4905 10.0902 31.4559 10.0902C31.2657 10.0902 15.2347 9.55086 2.09167 27C15.2347 44.4317 31.283 43.9098 31.4559 43.9098Z" fill="#082029"/>
<path d="M39.566 53.0605C39.566 52.556 39.981 52.1211 40.4999 52.1211C41.0187 52.1211 41.4337 52.5386 41.4337 53.0605C41.4337 53.5824 41.0187 54 40.4999 54C39.9983 54 39.566 53.5824 39.566 53.0605ZM32.908 53.0605C32.908 52.556 33.3231 52.1211 33.8419 52.1211C34.3607 52.1211 34.7757 52.5386 34.7757 53.0605C34.7757 53.5824 34.3607 54 33.8419 54C33.3404 54 32.908 53.5824 32.908 53.0605ZM26.2673 53.0605C26.2673 52.556 26.6651 52.1211 27.2012 52.1211C27.7027 52.1211 28.135 52.5386 28.135 53.0605C28.135 53.5824 27.72 54 27.2012 54C26.6651 54 26.2673 53.5824 26.2673 53.0605ZM19.6094 53.0605C19.6094 52.556 20.0244 52.1211 20.5432 52.1211C21.0447 52.1211 21.4771 52.5386 21.4771 53.0605C21.4771 53.5824 21.062 54 20.5432 54C20.0417 54 19.6094 53.5824 19.6094 53.0605Z" fill="#082029"/>
<path d="M39.566 0.939433C39.566 0.434923 39.981 0 40.4999 0C41.0187 0 41.4337 0.417526 41.4337 0.939433C41.4337 1.46134 41.0187 1.87887 40.4999 1.87887C39.9983 1.87887 39.566 1.46134 39.566 0.939433ZM32.908 0.939433C32.908 0.434923 33.3231 0 33.8419 0C34.3607 0 34.7757 0.417526 34.7757 0.939433C34.7757 1.46134 34.3607 1.87887 33.8419 1.87887C33.3404 1.87887 32.908 1.46134 32.908 0.939433ZM26.2673 0.939433C26.2673 0.434923 26.6651 0 27.2012 0C27.7027 0 28.135 0.417526 28.135 0.939433C28.135 1.46134 27.72 1.87887 27.2012 1.87887C26.6651 1.87887 26.2673 1.46134 26.2673 0.939433ZM19.6094 0.939433C19.6094 0.434923 20.0244 0 20.5432 0C21.0447 0 21.4771 0.417526 21.4771 0.939433C21.4771 1.46134 21.062 1.87887 20.5432 1.87887C20.0417 1.87887 19.6094 1.46134 19.6094 0.939433Z" fill="#082029"/>
<path d="M31.5776 38.0122C37.6901 38.0122 42.6454 33.0273 42.6454 26.8782C42.6454 20.729 37.6901 15.7441 31.5776 15.7441C25.465 15.7441 20.5098 20.729 20.5098 26.8782C20.5098 33.0273 25.465 38.0122 31.5776 38.0122Z" fill="#04B392"/>
<path d="M31.5778 33.1063C34.997 33.1063 37.7688 30.3179 37.7688 26.8782C37.7688 23.4386 34.997 20.6501 31.5778 20.6501C28.1585 20.6501 25.3867 23.4386 25.3867 26.8782C25.3867 30.3179 28.1585 33.1063 31.5778 33.1063Z" fill="#082029"/>
<path d="M36.2132 25.3125C37.5122 25.3125 38.5651 24.2532 38.5651 22.9465C38.5651 21.6399 37.5122 20.5806 36.2132 20.5806C34.9143 20.5806 33.8613 21.6399 33.8613 22.9465C33.8613 24.2532 34.9143 25.3125 36.2132 25.3125Z" fill="white"/>
</g>
<defs>
<clipPath id="clip0_115_699">
<rect width="63" height="54" fill="white"/>
</clipPath>
</defs>
</svg>
