<svg width="63" height="57" viewBox="0 0 63 57" fill="none" xmlns="http://www.w3.org/2000/svg">
<path d="M46.832 13.1953C45.2899 13.1953 43.7802 13.4098 42.303 13.8554C39.9492 7.41968 33.9755 3.17871 27.1577 3.17871C18.2458 3.17871 10.9897 10.5385 10.9897 19.6145C10.9897 20.3901 11.0546 21.1822 11.1683 21.9743C4.95104 22.3373 0 27.6014 0 34.0041C0 40.4068 5.3244 46.0505 11.85 46.0505H45.7931C45.7931 46.0505 45.923 46.0505 45.9717 46.0505H47.8547C56.3445 45.5059 63 38.3111 63 29.6476C63 20.9842 55.7601 13.2118 46.832 13.2118V13.1953ZM47.7897 44.1528H43.9912C43.9912 44.1528 43.8614 44.1528 43.8127 44.1693H11.85C6.33084 44.1693 1.85055 39.6148 1.85055 34.0041C1.85055 28.3935 6.33084 23.839 11.85 23.839L12.2396 23.872C12.5968 23.872 12.8078 23.7565 12.9863 23.5255C13.1649 23.3109 13.2461 23.0139 13.1811 22.7169C12.9539 21.6938 12.8402 20.6376 12.8402 19.6145C12.8402 11.5781 19.2685 5.05992 27.1577 5.05992C33.4723 5.05992 38.9753 9.16888 40.842 15.3076C40.907 15.5551 41.0855 15.7531 41.3128 15.8686C41.5401 15.9841 41.7998 16.0006 42.0433 15.9181C43.5854 15.3571 45.1925 15.0765 46.832 15.0765C54.7374 15.0765 61.1494 21.5948 61.1494 29.6311C61.1494 37.6675 55.2569 43.6742 47.7897 44.1528Z" fill="#082029"/>
<path d="M59.5588 3.50809L58.39 4.69622L53.4227 9.74578L51.7832 8.0956L56.4908 3.31007L57.9193 1.85791L59.5588 3.50809Z" fill="#04B392"/>
<path d="M60.695 0.949707V8.92009H58.3899V3.30947H52.9844V0.949707H60.695Z" fill="#04B392"/>
<path d="M10.5373 48.9051L5.82974 53.7071L4.40124 55.1593L2.76172 53.4926L8.89777 47.2549L10.5373 48.9051Z" fill="#04B392"/>
<path d="M9.32002 53.7072V56.0505H1.60938V48.0801H3.93068V53.7072H9.32002Z" fill="#04B392"/>
<path d="M59.6896 53.3598L58.0501 55.0264L56.8813 53.8383L51.9141 48.7723L53.5536 47.1221L58.2611 51.9076L59.6896 53.3598Z" fill="#04B392"/>
<path d="M60.5665 48.3428V56.1811H52.7422V53.8379H58.2614V48.3428H60.5665Z" fill="#04B392"/>
<path d="M10.4045 8.22793L8.76495 9.87811L2.62891 3.64042L4.26843 1.99023L10.4045 8.22793Z" fill="#04B392"/>
<path d="M9.57683 0.818359V3.17812H4.05764V8.65673H1.73633V0.818359H9.57683Z" fill="#04B392"/>
</svg>
