<svg width="63" height="71" viewBox="0 0 63 71" fill="none" xmlns="http://www.w3.org/2000/svg">
<g clip-path="url(#clip0_115_675)">
<path d="M37.1882 31.5726L37.0332 31.6689L37.1882 31.5726Z" fill="#082029"/>
<path d="M31.6642 34.7491L23.7383 30.2057L31.6448 34.7684L34.3384 33.209L31.6448 34.7491H31.6642ZM31.6642 21.5618L23.7577 26.1244L31.6835 21.581L34.3772 23.1212L31.6835 21.5618H31.6642ZM37.1871 31.5726L39.7838 30.0902L43.1363 28.1651L37.1677 31.5726H37.1871ZM39.8032 26.2399L37.032 24.6613L37.1871 24.7575L43.1557 28.1651L39.8032 26.2399Z" fill="#082029"/>
<path d="M45.9079 27.8379C45.9079 27.8379 45.9079 27.7994 45.8885 27.7608C45.8498 27.6646 45.7916 27.5683 45.6947 27.4913C45.656 27.4528 45.6172 27.3951 45.5591 27.3758C45.5203 27.3373 45.4622 27.2988 45.404 27.2796L37.1875 22.5629L35.3078 21.4848L32.1297 19.6559C31.8584 19.5019 31.5095 19.5019 31.1801 19.6559L17.9057 27.2603C17.9057 27.2603 17.867 27.2796 17.8476 27.2988C17.8282 27.2988 17.8088 27.2988 17.7895 27.3373C17.7119 27.3758 17.6538 27.4143 17.6151 27.4721C17.4213 27.6261 17.3438 27.8764 17.3438 28.1266C17.3438 28.4539 17.5375 28.7812 17.8282 28.9544L19.2429 29.763L30.7344 36.3278L31.1801 36.6166C31.3545 36.7129 31.5095 36.7514 31.6646 36.7514C31.8196 36.7514 31.994 36.7129 32.1297 36.6166L32.6141 36.3278L36.9162 33.8829L38.7959 32.8048L44.1057 29.763L45.5203 28.9544C45.8304 28.7812 46.0048 28.4539 46.0048 28.1266C46.0048 28.0111 45.9854 27.9149 45.9273 27.7994L45.9079 27.8379ZM39.8036 30.0903L37.2069 31.5727L37.0518 31.6689L35.3271 32.67L34.3776 33.2091L31.684 34.7684L23.7775 30.2058L23.448 30.0133L20.2118 28.1459L23.448 26.2785L23.7775 26.086L31.684 21.5233L34.3776 23.0827L37.0518 24.6228L39.823 26.2015L43.1755 28.1266L39.823 30.0518L39.8036 30.0903Z" fill="#082029"/>
<path d="M43.1572 28.1651L37.1886 31.5726L37.0336 31.6689L35.3089 32.67L34.3593 33.209L31.6657 34.7492L23.7592 30.2058L23.4297 30.0133L20.2129 28.1651L23.4297 26.2977L23.7592 26.1244L31.6657 21.5811L34.3593 23.1212L37.0336 24.6421L37.1886 24.7576L43.1572 28.1651Z" fill="#006170"/>
<path d="M45.9854 28.1652V44.0285L31.6646 52.2489L17.3438 44.0285V28.1652C17.3438 28.4924 17.5375 28.8197 17.8282 28.993L19.2429 29.8015V42.9697L31.6646 50.0928L44.0863 42.9697V29.8015L45.5009 28.993C45.811 28.8197 45.9854 28.4924 45.9854 28.1652Z" fill="#082029"/>
<path d="M32.6141 36.3471V46.0114C32.6141 46.512 32.1878 46.9548 31.6839 46.9548C31.1801 46.9548 30.7344 46.5312 30.7344 46.0114V36.3471L31.1801 36.6167C31.3545 36.7129 31.5095 36.7514 31.6646 36.7514C31.8196 36.7514 31.994 36.7129 32.1296 36.6167L32.6141 36.3279V36.3471Z" fill="#082029"/>
<path d="M31.4907 9.12524C31.8976 9.12524 32.2852 9.08674 32.6728 8.99048V18.6548L31.6845 18.0965L30.3086 18.8666V9.00973C30.6768 9.10599 31.0837 9.14449 31.4907 9.14449V9.12524Z" fill="#082029"/>
<path d="M32.6728 54.02V62.0287C32.2852 61.9324 31.8976 61.8939 31.4907 61.8939C31.0837 61.8939 30.6962 61.9324 30.3086 62.0287V53.8082L31.6845 54.5783L32.6728 54.02Z" fill="#082029"/>
<path d="M15.9104 45.5108L9.41852 49.2264L8.99219 49.4766C8.89529 49.1686 8.75964 48.8798 8.58523 48.5911C8.35269 48.1868 8.08139 47.821 7.75195 47.513L8.00388 47.3782L15.7747 42.8926V45.453L15.9104 45.53V45.5108Z" fill="#082029"/>
<path d="M54.3957 22.3704C54.5507 22.6399 54.7251 22.8901 54.9383 23.1212L54.3569 23.4484L47.5744 27.3565V27.2025L45.3652 25.9127L53.3686 21.3115L53.8531 21.042C53.9694 21.4848 54.1631 21.9276 54.3957 22.3511V22.3704Z" fill="#082029"/>
<path d="M17.8481 26.0089L15.7746 27.2025V27.5298L8.66263 23.4099L7.98438 23.0249C8.17816 22.8131 8.35257 22.5629 8.48822 22.3126C8.74014 21.889 8.93393 21.427 9.03082 20.965L9.5928 21.2922L17.8287 26.0089H17.8481Z" fill="#082029"/>
<path d="M55.3644 47.5515C55.035 47.8788 54.7443 48.2446 54.5117 48.6681C54.3567 48.9376 54.2211 49.2264 54.1242 49.5152L53.5816 49.2071L47.3223 45.6071L47.5742 45.4531V43.1044L54.9962 47.359L55.3644 47.5707V47.5515Z" fill="#082029"/>
<path d="M35.5013 3.98509C35.5013 5.75624 34.3192 7.29637 32.672 7.77766C32.3038 7.91242 31.8968 7.97017 31.4899 7.97017C31.0829 7.97017 30.6954 7.91242 30.3078 7.77766C28.6606 7.27711 27.4785 5.77549 27.4785 3.98509C27.4785 1.7904 29.2807 0 31.4899 0C33.6991 0 35.5013 1.7904 35.5013 3.98509Z" fill="#04B392"/>
<path d="M35.5013 67.0149C35.5013 69.2096 33.6991 70.9807 31.4899 70.9807C29.2807 70.9807 27.4785 69.2096 27.4785 67.0149C27.4785 65.2245 28.68 63.7036 30.3078 63.2223C30.676 63.0875 31.0829 63.0298 31.4899 63.0298C31.8968 63.0298 32.3038 63.0875 32.672 63.2223C34.3192 63.7228 35.5013 65.2437 35.5013 67.0149Z" fill="#04B392"/>
<path d="M62.8644 19.7714C62.8644 21.1382 62.1474 22.4666 60.8878 23.2174C59.26 24.1607 57.2252 23.8335 55.9656 22.5436C55.7524 22.3318 55.5586 22.0816 55.4036 21.812C55.1517 21.3885 54.9966 20.9265 54.9191 20.4837C54.6285 18.9051 55.3455 17.2302 56.8182 16.3638C57.4384 15.9981 58.136 15.8055 58.8336 15.8055C59.1631 15.8055 59.5119 15.844 59.8607 15.9403C60.8878 16.2098 61.7598 16.8451 62.3024 17.7692C62.6706 18.4045 62.845 19.0976 62.845 19.7714H62.8644Z" fill="#04B392"/>
<path d="M8.00432 52.172C7.73302 53.1923 7.07415 54.0586 6.16335 54.5977C5.23318 55.1367 4.16735 55.2715 3.1209 55.0212C2.07446 54.7517 1.22179 54.0971 0.659814 53.1923C0.117211 52.2875 -0.0184394 51.2094 0.233483 50.1698C0.504784 49.1495 1.16366 48.2831 2.07446 47.7248C2.69457 47.3591 3.3922 47.1858 4.08984 47.1858C4.41927 47.1858 4.76809 47.2243 5.1169 47.3206C5.67889 47.4746 6.20211 47.7441 6.64782 48.1099C7.01601 48.3986 7.30669 48.7644 7.55862 49.1687C7.73302 49.4575 7.86867 49.7655 7.94619 50.0543C8.13997 50.7473 8.15935 51.4789 7.96557 52.1912L8.00432 52.172Z" fill="#04B392"/>
<path d="M62.4572 53.2115C61.3526 55.1174 58.8915 55.772 56.973 54.6747C55.3258 53.7313 54.6282 51.8254 55.1514 50.0928C55.2289 49.804 55.3452 49.5152 55.5196 49.2457C55.7715 48.8222 56.0622 48.4756 56.4304 48.1676C56.8761 47.8018 57.38 47.5323 57.9613 47.3783C58.9884 47.1088 60.0736 47.2435 61.0038 47.7826C61.9339 48.3024 62.5928 49.1687 62.8835 50.189C63.1742 51.2094 63.0192 52.2875 62.4959 53.2115H62.4572Z" fill="#04B392"/>
<path d="M7.96522 20.3683C7.8877 20.8496 7.73267 21.3116 7.48075 21.7351C7.32572 21.9854 7.15131 22.2357 6.93815 22.4474C5.71729 23.7951 3.66316 24.1608 1.99659 23.2175C0.0781039 22.1202 -0.58077 19.6752 0.523813 17.7693C1.6284 15.8826 4.08949 15.2088 6.00797 16.3062C6.93815 16.8452 7.59702 17.6923 7.8877 18.7126C8.04273 19.2517 8.06211 19.81 7.9846 20.349L7.96522 20.3683Z" fill="#04B392"/>
</g>
<defs>
<clipPath id="clip0_115_675">
<rect width="63" height="71" fill="white"/>
</clipPath>
</defs>
</svg>
