<svg width="84" height="72" viewBox="0 0 84 72" fill="none" xmlns="http://www.w3.org/2000/svg">
<g clip-path="url(#clip0_120_1054)">
<path d="M52.3653 29.0181H31.8438V48.0619H52.3653V29.0181Z" fill="#04B392"/>
<path d="M48.3528 30.0154C47.661 30.0154 47.1076 29.4587 47.1076 28.7628V26.3736C47.1076 23.5437 44.8249 21.2473 42.0118 21.2473C39.1988 21.2473 36.916 23.5437 36.916 26.3736V28.7628C36.916 29.4587 36.3626 30.0154 35.6709 30.0154C34.9792 30.0154 34.4258 29.4587 34.4258 28.7628V26.3736C34.4258 22.1752 37.8384 18.7422 42.0118 18.7422C46.1853 18.7422 49.5979 22.152 49.5979 26.3736V28.7628C49.5979 29.4587 49.0445 30.0154 48.3528 30.0154Z" fill="#082029"/>
<path d="M52.7109 49.7319H31.29C30.5983 49.7319 30.0449 49.1752 30.0449 48.4793V28.7628C30.0449 28.067 30.5983 27.5103 31.29 27.5103H52.7109C53.4026 27.5103 53.956 28.067 53.956 28.7628V48.4793C53.956 49.1752 53.4026 49.7319 52.7109 49.7319ZM32.5352 47.2499H51.4888V30.0154H32.5352V47.2499Z" fill="#082029"/>
<path d="M80.012 15.7732C79.3203 15.7732 78.7669 15.2165 78.7669 14.5206V2.48196H66.7998C66.1081 2.48196 65.5547 1.92526 65.5547 1.22938C65.5547 0.533505 66.1311 0 66.7998 0H81.2341V14.5206C81.2341 15.2165 80.6807 15.7732 79.9889 15.7732H80.012Z" fill="#082029"/>
<path d="M17.2015 71.9998H2.74414V57.4791C2.74414 56.7833 3.29753 56.2266 3.98927 56.2266C4.68101 56.2266 5.2344 56.7833 5.2344 57.4791V69.5178H17.2015C17.8932 69.5178 18.4466 70.0745 18.4466 70.7704C18.4466 71.4663 17.8932 72.023 17.2015 72.023V71.9998Z" fill="#082029"/>
<path d="M81.2341 72H66.7998C66.1081 72 65.5547 71.4433 65.5547 70.7474C65.5547 70.0516 66.1081 69.4949 66.7998 69.4949H78.7669V57.4562C78.7669 56.7603 79.3203 56.2036 80.012 56.2036C80.7037 56.2036 81.2571 56.7603 81.2571 57.4562V71.9768L81.2341 72Z" fill="#082029"/>
<path d="M3.98927 15.7732C3.29753 15.7732 2.74414 15.2165 2.74414 14.5206V0H17.1784C17.8701 0 18.4235 0.556701 18.4235 1.25258C18.4235 1.94845 17.8701 2.50515 17.1784 2.50515H5.2344V14.5438C5.2344 15.2397 4.68101 15.7964 3.98927 15.7964V15.7732Z" fill="#082029"/>
<path d="M62.2798 49.4999C62.0723 49.4999 61.8417 49.4536 61.6342 49.3144C61.0577 48.9664 60.8502 48.201 61.2191 47.5979C63.3174 44.0953 64.4242 40.0824 64.4242 35.9767C64.4242 31.8711 63.2482 27.6262 61.0347 24.0541C60.6657 23.4742 60.8502 22.7087 61.4267 22.3376C62.0031 21.9664 62.764 22.152 63.1329 22.7319C65.6001 26.6984 66.8914 31.2912 66.8914 35.9767C66.8914 40.6623 65.6693 44.9999 63.3405 48.8737C63.1099 49.268 62.6948 49.4767 62.2798 49.4767V49.4999Z" fill="#006170"/>
<path d="M21.1906 48.5952C20.7525 48.5952 20.3375 48.3632 20.1069 47.9457C18.147 44.304 17.1094 40.1751 17.1094 35.9998C17.1094 31.523 18.3084 27.1158 20.545 23.2885C20.8909 22.6854 21.6518 22.4998 22.2513 22.8478C22.8508 23.1957 23.0353 23.9612 22.6894 24.5643C20.6603 28.0205 19.5996 31.9638 19.5996 35.9998C19.5996 39.7576 20.5219 43.4689 22.2974 46.7395C22.6202 47.3426 22.3896 48.1081 21.8132 48.4328C21.6287 48.5256 21.4212 48.572 21.2137 48.572L21.1906 48.5952Z" fill="#006170"/>
<path d="M42.5421 61.0515C42.2192 61.0515 42.0117 61.0515 41.9425 61.0515C41.1125 61.0979 18.7002 61.8865 0.253827 36.7422C-0.068984 36.3015 -0.068984 35.6984 0.253827 35.2577C18.4004 10.5309 40.3977 10.8788 41.9887 10.9484C43.5797 10.8788 65.5769 10.5077 83.7465 35.2577C84.0694 35.6984 84.0694 36.3015 83.7465 36.7422C66.7298 59.9149 46.3697 61.0515 42.5421 61.0515ZM41.9425 58.5463C42.2654 58.5463 63.6862 59.2422 81.2102 35.9999C63.6862 12.7345 42.2654 13.4536 42.0578 13.4536C42.0117 13.4536 41.9887 13.4536 41.9425 13.4536C41.6889 13.4536 20.3142 12.7345 2.7902 35.9999C20.3142 59.2422 41.712 58.5463 41.9425 58.5463Z" fill="#082029"/>
<path d="M52.7573 70.7472C52.7573 70.0745 53.3107 69.4946 54.0024 69.4946C54.6941 69.4946 55.2475 70.0513 55.2475 70.7472C55.2475 71.4431 54.6941 71.9998 54.0024 71.9998C53.3337 71.9998 52.7573 71.4431 52.7573 70.7472ZM43.88 70.7472C43.88 70.0745 44.4334 69.4946 45.1251 69.4946C45.8168 69.4946 46.3702 70.0513 46.3702 70.7472C46.3702 71.4431 45.8168 71.9998 45.1251 71.9998C44.4564 71.9998 43.88 71.4431 43.88 70.7472ZM35.0257 70.7472C35.0257 70.0745 35.5561 69.4946 36.2709 69.4946C36.9395 69.4946 37.516 70.0513 37.516 70.7472C37.516 71.4431 36.9626 71.9998 36.2709 71.9998C35.5561 71.9998 35.0257 71.4431 35.0257 70.7472ZM26.1484 70.7472C26.1484 70.0745 26.7018 69.4946 27.3936 69.4946C28.0622 69.4946 28.6387 70.0513 28.6387 70.7472C28.6387 71.4431 28.0853 71.9998 27.3936 71.9998C26.7249 71.9998 26.1484 71.4431 26.1484 70.7472Z" fill="#082029"/>
<path d="M52.7573 1.25258C52.7573 0.579897 53.3107 0 54.0024 0C54.6941 0 55.2475 0.556701 55.2475 1.25258C55.2475 1.94845 54.6941 2.50515 54.0024 2.50515C53.3337 2.50515 52.7573 1.94845 52.7573 1.25258ZM43.88 1.25258C43.88 0.579897 44.4334 0 45.1251 0C45.8168 0 46.3702 0.556701 46.3702 1.25258C46.3702 1.94845 45.8168 2.50515 45.1251 2.50515C44.4564 2.50515 43.88 1.94845 43.88 1.25258ZM35.0257 1.25258C35.0257 0.579897 35.5561 0 36.2709 0C36.9395 0 37.516 0.556701 37.516 1.25258C37.516 1.94845 36.9626 2.50515 36.2709 2.50515C35.5561 2.50515 35.0257 1.94845 35.0257 1.25258ZM26.1484 1.25258C26.1484 0.579897 26.7018 0 27.3936 0C28.0622 0 28.6387 0.556701 28.6387 1.25258C28.6387 1.94845 28.0853 2.50515 27.3936 2.50515C26.7249 2.50515 26.1484 1.94845 26.1484 1.25258Z" fill="#082029"/>
</g>
<defs>
<clipPath id="clip0_120_1054">
<rect width="84" height="72" fill="white"/>
</clipPath>
</defs>
</svg>
