<svg width="68" height="53" viewBox="0 0 68 53" fill="none" xmlns="http://www.w3.org/2000/svg">
<path d="M27.7782 3.34794C27.1485 2.08862 25.9376 1.19257 24.5088 1.02304C24.315 1.02304 24.1455 0.974609 23.9518 0.974609C23.7822 0.974609 23.5885 0.974609 23.419 1.02304C21.9659 1.19257 20.755 2.11284 20.1496 3.34794C19.8348 3.92917 19.6895 4.58305 19.6895 5.26114V10.1289C19.6895 12.5022 21.6027 14.4154 23.976 14.4154C26.3493 14.4154 28.2625 12.5022 28.2625 10.1289V5.26114C28.2625 4.58305 28.1172 3.92917 27.8266 3.34794H27.7782ZM25.8892 10.1047C25.8892 11.1945 25.0174 12.0421 23.9518 12.0421C22.8862 12.0421 22.0144 11.1703 22.0144 10.1047V5.26114C22.0144 4.31665 22.6682 3.51747 23.5643 3.34794C23.6854 3.34794 23.8065 3.29951 23.9518 3.29951C24.0971 3.29951 24.2182 3.29951 24.3393 3.34794C25.2353 3.51747 25.8892 4.31665 25.8892 5.26114V10.1289V10.1047Z" fill="#082029"/>
<path d="M14.5306 1.02295V9.86241C14.5306 10.5163 14.0221 11.0491 13.344 11.0491C12.6659 11.0491 12.1815 10.5405 12.1815 9.86241V2.06431L11.1886 3.05724C11.1886 3.05724 11.0191 3.20254 10.9222 3.25098C10.8495 3.29941 10.7769 3.29941 10.68 3.34785H10.0504C9.85661 3.29941 9.68709 3.20254 9.54178 3.05724C9.10586 2.5971 9.10586 1.87057 9.54178 1.41043L9.92927 1.02295H14.5064H14.5306Z" fill="#082029"/>
<path d="M45.9897 4.46191C43.6405 4.46191 41.7031 6.37511 41.7031 8.74845V13.6162C41.7031 15.9895 43.6405 17.9027 45.9897 17.9027C48.3388 17.9027 50.2762 15.9895 50.2762 13.6162V8.74845C50.2762 6.37511 48.363 4.46191 45.9897 4.46191ZM47.9513 13.592C47.9513 14.6818 47.0795 15.5294 46.0139 15.5294C44.9483 15.5294 44.0765 14.6576 44.0765 13.592V8.72423C44.0765 7.63443 44.9483 6.78681 46.0139 6.78681C47.0795 6.78681 47.9513 7.65865 47.9513 8.72423V13.592Z" fill="#082029"/>
<path d="M36.5937 1.02226V9.69221C36.5937 10.3219 36.0851 10.8547 35.4313 10.8547C34.7774 10.8547 34.2446 10.3461 34.2446 9.69221V1.86988L33.2517 2.86281C32.8158 3.32295 32.065 3.32295 31.6049 2.86281C31.1447 2.42689 31.1447 1.67614 31.6049 1.21601L31.8228 0.998047H36.5695L36.5937 1.02226Z" fill="#082029"/>
<path d="M57.493 14.149C56.8391 14.149 56.3305 13.6162 56.3305 12.9865V5.18842L55.3376 6.18135C54.8775 6.64148 54.1509 6.64148 53.6908 6.18135C53.2307 5.72121 53.2307 4.99468 53.6908 4.53454L56.6696 1.55576C57.0086 1.21672 57.493 1.11985 57.9289 1.31359C58.3648 1.48311 58.6554 1.91903 58.6554 2.37917V12.9865C58.6554 13.6404 58.1226 14.149 57.493 14.149Z" fill="#082029"/>
<path d="M23.9272 19.0659C21.5538 19.0659 19.6406 21.0033 19.6406 23.3525V28.2202C19.6406 30.5693 21.5538 32.5067 23.9272 32.5067C26.3005 32.5067 28.2137 30.5693 28.2137 28.2202V23.3525C28.2137 21.0033 26.2763 19.0659 23.9272 19.0659ZM25.8888 28.2202C25.8888 29.31 25.017 30.1576 23.9514 30.1576C22.8858 30.1576 22.014 29.2858 22.014 28.2202V23.3525C22.014 22.2869 22.8858 21.415 23.9514 21.415C25.017 21.415 25.8888 22.3111 25.8888 23.3525V28.2202Z" fill="#04B392"/>
<path d="M13.3699 29.1392C12.7161 29.1392 12.2075 28.6064 12.2075 27.9768V20.1787L11.2146 21.1716C10.7544 21.6317 10.0279 21.6317 9.56776 21.1716C9.10762 20.7114 9.10762 19.9849 9.56776 19.5248L12.5465 16.546C12.8856 16.207 13.3699 16.1101 13.8059 16.3038C14.2418 16.4733 14.5324 16.9093 14.5324 17.3694V27.9768C14.5324 28.6306 13.9996 29.1392 13.3699 29.1392Z" fill="#04B392"/>
<path d="M45.9897 22.5527C43.6405 22.5527 41.7031 24.4902 41.7031 26.8393V31.707C41.7031 34.0561 43.6405 35.9936 45.9897 35.9936C48.3388 35.9936 50.2762 34.0561 50.2762 31.707V26.8393C50.2762 24.4902 48.363 22.5527 45.9897 22.5527ZM47.9513 31.707C47.9513 32.7726 47.0795 33.6444 46.0139 33.6444C44.9483 33.6444 44.0765 32.7484 44.0765 31.707V26.8393C44.0765 25.7495 44.9483 24.9019 46.0139 24.9019C47.0795 24.9019 47.9513 25.7737 47.9513 26.8393V31.707Z" fill="#04B392"/>
<path d="M35.4305 28.9454C34.7766 28.9454 34.268 28.4126 34.268 27.7829V19.9848L33.2751 20.9777C32.815 21.4379 32.0884 21.4379 31.6283 20.9777C31.1682 20.5176 31.1682 19.7911 31.6283 19.3309L34.6071 16.3522C34.9461 16.0131 35.4305 15.9162 35.8664 16.11C36.3023 16.2795 36.5929 16.7154 36.5929 17.1756V27.7829C36.5929 28.4368 36.0601 28.9454 35.4305 28.9454Z" fill="#04B392"/>
<path d="M57.493 32.2398C56.8391 32.2398 56.3305 31.707 56.3305 31.0773V23.2792L55.3376 24.2722C54.8775 24.7323 54.1509 24.7323 53.6908 24.2722C53.2307 23.812 53.2307 23.0855 53.6908 22.6254L56.6696 19.6466C57.0086 19.3075 57.493 19.2107 57.9289 19.4044C58.3648 19.5739 58.6554 20.0099 58.6554 20.47V31.0773C58.6554 31.7312 58.1226 32.2398 57.493 32.2398Z" fill="#04B392"/>
<path d="M23.9272 38.0522C21.5538 38.0522 19.6406 39.9654 19.6406 42.3146V47.1823C19.6406 48.1026 19.9555 48.9987 20.464 49.6767C21.2148 50.7665 22.4983 51.4446 23.9029 51.4446C25.3076 51.4446 26.5911 50.7423 27.3419 49.6767C27.8504 48.9744 28.1653 48.1026 28.1653 47.1823V42.3146C28.1653 39.9654 26.2278 38.0522 23.8787 38.0522H23.9272ZM21.9897 42.3146C21.9897 41.249 22.8616 40.3771 23.9272 40.3771C24.9927 40.3771 25.8646 41.2732 25.8646 42.3146V47.1823C25.8646 48.2721 24.9927 49.1197 23.9272 49.1197C22.8616 49.1197 21.9897 48.2479 21.9897 47.1823V42.3146Z" fill="#082029"/>
<path d="M13.368 48.1021C12.7141 48.1021 12.2055 47.5693 12.2055 46.9396V39.1415L11.2126 40.1345C10.7525 40.5946 10.0259 40.5946 9.56581 40.1345C9.10567 39.6743 9.10567 38.9478 9.56581 38.4877L12.5446 35.5089C12.8836 35.1698 13.368 35.073 13.8039 35.2667C14.2398 35.4362 14.5304 35.8722 14.5304 36.3323V46.9396C14.5304 47.5935 13.9976 48.1021 13.368 48.1021Z" fill="#082029"/>
<path d="M50.0321 52.0253C50.1774 51.5894 50.2742 51.1293 50.2742 50.6691V45.8014C50.2742 43.4523 48.361 41.5391 45.9877 41.5391C43.6144 41.5391 41.7012 43.4523 41.7012 45.8014V50.6691C41.7012 51.1293 41.7738 51.5894 41.9433 52.0253H44.5589C44.244 51.6863 44.0503 51.2019 44.0503 50.6691V45.8014C44.0503 44.7358 44.9221 43.864 45.9877 43.864C47.0533 43.864 47.9251 44.76 47.9251 45.8014V50.6691C47.9251 51.1777 47.7072 51.6621 47.4166 52.0253H49.8625" fill="#082029"/>
<path d="M35.4305 47.9082C34.7766 47.9082 34.268 47.3755 34.268 46.7458V38.9477L33.2751 39.9406C32.815 40.4008 32.0884 40.4008 31.6283 39.9406C31.1682 39.4805 31.1682 38.754 31.6283 38.2938L34.6071 35.315C34.9461 34.976 35.4305 34.8791 35.8664 35.0729C36.3023 35.2424 36.5929 35.6783 36.5929 36.1384V46.7458C36.5929 47.3997 36.0601 47.9082 35.4305 47.9082Z" fill="#082029"/>
<path d="M57.493 51.2261C56.8391 51.2261 56.3305 50.6933 56.3305 50.0637V42.2656L55.3376 43.2585C54.8775 43.7186 54.1509 43.7186 53.6908 43.2585C53.2307 42.7984 53.2307 42.0718 53.6908 41.6117L56.6696 38.6329C57.0086 38.2939 57.493 38.197 57.9289 38.3907C58.3648 38.5603 58.6554 38.9962 58.6554 39.4563V50.0637C58.6554 50.7176 58.1226 51.2261 57.493 51.2261Z" fill="#082029"/>
<path d="M44.052 50.6693V49.6763H17.2188C17.3641 49.6763 17.5094 49.7248 17.6547 49.7732C18.2602 50.0154 18.5508 50.6693 18.3086 51.2747L18.018 52.0012H44.5606C44.2458 51.6622 44.052 51.1778 44.052 50.645V50.6693ZM11.2128 3.05724C11.2128 3.05724 11.0433 3.20254 10.9464 3.25098C10.8738 3.29941 10.8011 3.29941 10.7042 3.34785H12.1815V2.06431L11.1886 3.05724H11.2128ZM44.052 50.6693V49.6763H17.2188C17.3641 49.6763 17.5094 49.7248 17.6547 49.7732C18.2602 50.0154 18.5508 50.6693 18.3086 51.2747L18.018 52.0012H44.5606C44.2458 51.6622 44.052 51.1778 44.052 50.645V50.6693ZM10.9464 3.25098C10.9464 3.25098 10.8011 3.29941 10.7042 3.34785H12.1815V2.06431L11.1886 3.05724C11.1886 3.05724 11.0191 3.20254 10.9222 3.25098H10.9464ZM61.852 1.02295H6.03021C2.68817 1.02295 0 3.73533 0 7.05316V45.9468C0 49.2888 2.68817 52.0012 6.03021 52.0012H61.852C65.1941 52.0012 67.8822 49.2888 67.8822 45.9468V7.05316C67.8822 3.73533 65.1941 1.02295 61.852 1.02295ZM65.5816 45.971C65.5816 48.0295 63.9105 49.7006 61.852 49.7006H6.03021C3.99592 49.7006 2.30068 48.0537 2.30068 45.971V7.05316C2.30068 4.99465 3.9717 3.32363 6.03021 3.32363H61.852C63.8863 3.32363 65.5816 4.97044 65.5816 7.05316V45.9468V45.971ZM11.2128 3.05724C11.2128 3.05724 11.0433 3.20254 10.9464 3.25098C10.8738 3.29941 10.8011 3.29941 10.7042 3.34785H12.1815V2.06431L11.1886 3.05724H11.2128ZM44.052 50.6693V49.6763H17.2188C17.3641 49.6763 17.5094 49.7248 17.6547 49.7732C18.2602 50.0154 18.5508 50.6693 18.3086 51.2747L18.018 52.0012H44.5606C44.2458 51.6622 44.052 51.1778 44.052 50.645V50.6693Z" fill="#082029"/>
</svg>
