<svg width="60" height="70" viewBox="0 0 60 70" fill="none" xmlns="http://www.w3.org/2000/svg">
<g clip-path="url(#clip0_115_1096)">
<path d="M30.0116 66.0161C29.2349 66.0161 28.4582 65.8192 27.7678 65.4036L4.83364 51.9711C3.45284 51.1617 2.58984 49.6522 2.58984 48.0333V21.1683C2.58984 19.5494 3.45284 18.0399 4.83364 17.2305L27.7678 3.798C29.1486 2.98856 30.8746 2.98856 32.2554 3.798L55.1896 17.2305C56.5704 18.0399 57.4334 19.5494 57.4334 21.1683V48.0333C57.4334 49.6522 56.5704 51.1617 55.1896 51.9711L32.2554 65.4036C31.565 65.8192 30.7883 66.0161 30.0116 66.0161ZM30.0116 5.59192C29.6449 5.59192 29.2781 5.67942 28.9545 5.87632L5.99869 19.3088C5.35144 19.7026 4.94152 20.4026 4.94152 21.1683V48.0333C4.94152 48.799 5.35144 49.5209 5.99869 49.8928L28.9329 63.3253C29.5801 63.7191 30.4 63.7191 31.0688 63.3253L54.003 49.8928C54.6503 49.499 55.0602 48.799 55.0602 48.0333V21.1683C55.0602 20.4026 54.6503 19.6807 54.003 19.3088L31.0688 5.87632C30.7452 5.67942 30.3784 5.59192 30.0116 5.59192Z" fill="#1E272D"/>
<path d="M30.0108 65.5787C29.3636 65.5787 28.8242 65.0537 28.8242 64.3755V4.38878C28.8242 3.73247 29.342 3.18555 30.0108 3.18555C30.6797 3.18555 31.1975 3.71059 31.1975 4.38878V64.3755C31.1975 65.0318 30.6797 65.5787 30.0108 65.5787Z" fill="#1E272D"/>
<path d="M4.40115 50.5711C3.99122 50.5711 3.60287 50.3524 3.38712 49.9805C3.0635 49.4117 3.25767 48.6678 3.81862 48.3397L55.0376 18.3463C55.5986 18.0182 56.3321 18.2151 56.6557 18.7839C56.9794 19.3527 56.7852 20.0965 56.2242 20.4247L4.98367 50.418C4.7895 50.5274 4.59532 50.5711 4.40115 50.5711Z" fill="#1E272D"/>
<path d="M55.6201 50.5711C55.426 50.5711 55.2102 50.5274 55.0376 50.418L3.81862 20.4247C3.25767 20.0965 3.0635 19.3527 3.38712 18.7839C3.71075 18.2151 4.4443 18.0182 5.00525 18.3463L56.2242 48.3397C56.7852 48.6678 56.9794 49.4117 56.6557 49.9805C56.44 50.3742 56.0301 50.5711 55.6417 50.5711H55.6201Z" fill="#1E272D"/>
<path d="M29.9902 7.21067C31.5273 7.21067 32.7734 5.94716 32.7734 4.38854C32.7734 2.82992 31.5273 1.56641 29.9902 1.56641C28.4531 1.56641 27.207 2.82992 27.207 4.38854C27.207 5.94716 28.4531 7.21067 29.9902 7.21067Z" fill="white"/>
<path d="M29.9893 8.41401C27.7887 8.41401 26.0195 6.59822 26.0195 4.38865C26.0195 2.17907 27.8103 0.363281 29.9893 0.363281C32.1684 0.363281 33.9591 2.17907 33.9591 4.38865C33.9591 6.59822 32.1684 8.41401 29.9893 8.41401ZM29.9893 2.74787C29.1048 2.74787 28.3712 3.46981 28.3712 4.38865C28.3712 5.30748 29.1048 6.02942 29.9893 6.02942C30.8739 6.02942 31.6074 5.2856 31.6074 4.38865C31.6074 3.49169 30.8955 2.74787 29.9893 2.74787Z" fill="#1E272D"/>
<path d="M32.7949 65.3378C32.7949 66.891 31.5435 68.1599 30.0117 68.1599C28.4799 68.1599 27.2285 66.891 27.2285 65.3378C27.2285 63.7845 28.4799 62.5156 30.0117 62.5156C31.5435 62.5156 32.7949 63.7845 32.7949 65.3378Z" fill="#006170"/>
<path d="M30.0108 69.3632C27.8317 69.3632 26.041 67.5474 26.041 65.3379C26.041 63.1283 27.8317 61.3125 30.0108 61.3125C32.1899 61.3125 33.9806 63.1283 33.9806 65.3379C33.9806 67.5474 32.1899 69.3632 30.0108 69.3632ZM30.0108 63.6971C29.1262 63.6971 28.3927 64.419 28.3927 65.3379C28.3927 66.2567 29.1047 66.9786 30.0108 66.9786C30.917 66.9786 31.6289 66.2348 31.6289 65.3379C31.6289 64.4409 30.8954 63.6971 30.0108 63.6971Z" fill="#006170"/>
<path d="M57.4112 22.0651C56.0736 22.8527 54.3692 22.3933 53.5925 21.0369C52.8158 19.6805 53.2688 17.9522 54.6065 17.1647C55.9441 16.3771 57.6486 16.8365 58.4253 18.1929C59.202 19.5493 58.7489 21.2775 57.4112 22.0651Z" fill="#006170"/>
<path d="M56.0311 23.6402C54.6503 23.6402 53.3127 22.9183 52.5792 21.6275C52.0398 20.6868 51.9103 19.6148 52.1908 18.5648C52.4713 17.5365 53.1185 16.6615 54.0462 16.1145C55.9448 14.9988 58.3828 15.6551 59.4616 17.5803C60.0009 18.521 60.1304 19.593 59.8499 20.6431C59.5694 21.6932 58.9222 22.5464 57.9945 23.0933C57.3688 23.4652 56.6784 23.6402 56.0096 23.6402H56.0311ZM56.0311 17.9741C55.7507 17.9741 55.4702 18.0397 55.2329 18.1928C54.8661 18.4116 54.5856 18.7616 54.4777 19.1773C54.3699 19.593 54.413 20.0305 54.6288 20.4243C55.0818 21.2119 56.0527 21.4744 56.8294 21.015C57.1962 20.7962 57.4767 20.4462 57.5845 20.0305C57.6924 19.6148 57.6493 19.1773 57.4335 18.7835C57.2178 18.4116 56.8726 18.1272 56.4626 18.0178C56.3332 17.9741 56.1822 17.9522 56.0527 17.9522L56.0311 17.9741Z" fill="#006170"/>
<path d="M5.37217 52.5617C4.03453 53.3493 2.3301 52.8899 1.5534 51.5335C0.776704 50.1771 1.22978 48.4488 2.56743 47.6613C3.90508 46.8737 5.6095 47.3331 6.3862 48.6895C7.1629 50.0458 6.70982 51.7741 5.37217 52.5617Z" fill="white"/>
<path d="M3.99209 54.1368C2.61129 54.1368 1.27364 53.4149 0.54009 52.1241C0.000715465 51.1834 -0.128734 50.1114 0.15174 49.0613C0.432215 48.0112 1.07946 47.158 2.00719 46.6111C3.90579 45.4954 6.34376 46.1517 7.42251 48.0769C7.96188 49.0176 8.09133 50.0896 7.81085 51.1396C7.53038 52.1897 6.88313 53.0429 5.95541 53.5899C5.32973 53.9618 4.63933 54.1368 3.97051 54.1368H3.99209ZM3.97051 48.4707C3.69004 48.4707 3.40956 48.5363 3.17224 48.6894C2.80546 48.9082 2.52499 49.2582 2.41711 49.6739C2.30924 50.0896 2.35239 50.5271 2.56814 50.9209C2.78389 51.2928 3.12909 51.5772 3.53901 51.6866C3.94894 51.796 4.38043 51.7522 4.76878 51.5334C5.13556 51.3147 5.41603 50.9646 5.52391 50.549C5.63178 50.1333 5.58863 49.6958 5.37288 49.302C5.15713 48.9301 4.81193 48.6457 4.40201 48.5363C4.27256 48.4925 4.12154 48.4707 3.99209 48.4707H3.97051Z" fill="#1E272D"/>
<path d="M54.6495 52.5397C53.3118 51.7522 52.8587 50.0239 53.6354 48.6675C54.4121 47.3111 56.1166 46.8517 57.4542 47.6393C58.7919 48.4269 59.2449 50.1551 58.4682 51.5115C57.6915 52.8679 55.9871 53.3273 54.6495 52.5397Z" fill="white"/>
<path d="M56.0311 54.1149C55.3407 54.1149 54.6719 53.9399 54.0462 53.568C52.1476 52.4523 51.5004 49.9802 52.6007 48.0769C53.701 46.1517 56.139 45.4954 58.016 46.6111C59.9146 47.7268 60.5618 50.1989 59.4615 52.1022C58.9221 53.0429 58.0807 53.6993 57.0451 53.9837C56.6999 54.0712 56.3547 54.1149 56.0095 54.1149H56.0311ZM56.0311 48.4707C55.4701 48.4707 54.9308 48.7551 54.6287 49.2801C54.1756 50.0677 54.4561 51.0521 55.2112 51.5116C55.578 51.7303 56.0095 51.796 56.441 51.6647C56.8509 51.5553 57.1961 51.2709 57.4119 50.899C57.865 50.1114 57.5845 49.127 56.8294 48.6675C56.5705 48.5144 56.29 48.4488 56.0311 48.4488V48.4707Z" fill="#1E272D"/>
<path d="M2.56743 22.0871C1.22978 21.2995 0.776704 19.5712 1.5534 18.2149C2.3301 16.8585 4.03453 16.3991 5.37217 17.1866C6.70982 17.9742 7.1629 19.7025 6.3862 21.0589C5.6095 22.4152 3.90508 22.8747 2.56743 22.0871Z" fill="white"/>
<path d="M3.97055 23.6623C3.30172 23.6623 2.61133 23.4873 1.98565 23.1154C0.0870535 21.9996 -0.560196 19.5275 0.540128 17.6242C1.64045 15.6991 4.07842 15.0427 5.95545 16.1585C6.88317 16.7054 7.53042 17.5586 7.81089 18.6087C8.09137 19.6588 7.94034 20.7308 7.42254 21.6715C6.689 22.9622 5.35135 23.6842 3.97055 23.6842V23.6623ZM3.17227 21.0589C3.94897 21.5183 4.94142 21.2339 5.37292 20.4682C5.58867 20.0963 5.6534 19.6588 5.52395 19.2213C5.41607 18.8056 5.1356 18.4556 4.76882 18.2368C4.40205 18.018 3.97055 17.9524 3.53905 18.0836C3.12912 18.193 2.78393 18.4774 2.56818 18.8493C2.1151 19.6369 2.39558 20.6214 3.1507 21.0808L3.17227 21.0589Z" fill="#1E272D"/>
<path d="M37.9941 34.6011C37.9941 39.2827 34.2401 43.0893 29.623 43.0893C25.006 43.0893 21.252 39.2827 21.252 34.6011C21.252 29.9194 25.006 26.1128 29.623 26.1128C34.2401 26.1128 37.9941 29.9194 37.9941 34.6011Z" fill="white"/>
<path d="M29.6221 44.2924C24.3578 44.2924 20.0859 39.9607 20.0859 34.6228C20.0859 29.2848 24.3578 24.9531 29.6221 24.9531C34.8864 24.9531 39.1582 29.2848 39.1582 34.6228C39.1582 39.9607 34.8864 44.2924 29.6221 44.2924ZM29.6221 27.3158C25.6523 27.3158 22.4376 30.5755 22.4376 34.6009C22.4376 38.6262 25.6523 41.8859 29.6221 41.8859C33.5919 41.8859 36.8065 38.6262 36.8065 34.6009C36.8065 30.5755 33.5919 27.3158 29.6221 27.3158Z" fill="#1E272D"/>
<path d="M35.534 34.6007C35.534 37.9042 32.8803 40.595 29.6225 40.595C26.3647 40.595 23.7109 37.9042 23.7109 34.6007C23.7109 31.2973 26.3647 28.6064 29.6225 28.6064C32.8803 28.6064 35.534 31.2973 35.534 34.6007Z" fill="#04B392"/>
</g>
<defs>
<clipPath id="clip0_115_1096">
<rect width="60" height="69" fill="white" transform="translate(0 0.363281)"/>
</clipPath>
</defs>
</svg>
