<svg width="64" height="55" viewBox="0 0 64 55" fill="none" xmlns="http://www.w3.org/2000/svg">
<g clip-path="url(#clip0_115_1123)">
<path d="M57.1932 1.07812H2.35983C2.12119 1.07812 1.92773 1.27118 1.92773 1.50933V12.6128C1.92773 12.851 2.12119 13.044 2.35983 13.044H57.1932C57.4318 13.044 57.6253 12.851 57.6253 12.6128V1.50933C57.6253 1.27118 57.4318 1.07812 57.1932 1.07812Z" fill="#006170"/>
<path d="M5.79458 47.9929C3.13718 47.9929 0.955078 45.8369 0.955078 43.1635V4.01019C0.955078 1.81105 2.76989 0 4.9736 0H55.3347C57.5384 0 59.3316 1.81105 59.3316 4.01019V33.6986C59.3316 34.2376 58.8995 34.6688 58.381 34.6688C57.8625 34.6688 57.4088 34.2376 57.4088 33.6986V4.01019C57.4088 2.8675 56.4798 1.94042 55.3347 1.94042H4.9736C3.82854 1.94042 2.89952 2.8675 2.89952 4.01019V43.1635C2.89952 44.7589 4.19582 46.0525 5.79458 46.0525H42.0261C42.5662 46.0525 42.9983 46.4837 42.9983 47.0227C42.9983 47.5617 42.5662 47.9929 42.0261 47.9929H5.79458Z" fill="#1E272D"/>
<path d="M59.1162 4.01033V33.6987C59.1162 34.1299 58.7921 34.4533 58.3816 34.4533C57.9495 34.4533 57.6255 34.1299 57.6255 33.6987V4.01033C57.6255 2.75985 56.5884 1.72496 55.3353 1.72496H4.97422C3.72114 1.72496 2.6841 2.75985 2.6841 4.01033V43.1636C2.6841 44.8884 4.08842 46.2898 5.81682 46.2898H42.0483C42.4588 46.2898 42.8045 46.6132 42.8045 47.0229C42.8045 47.4541 42.4588 47.7775 42.0483 47.7775H5.79521C3.26743 47.7775 1.19336 45.7077 1.19336 43.1852V4.01033C1.19336 1.94056 2.87854 0.237305 4.97422 0.237305H55.3353C57.431 0.237305 59.1162 1.94056 59.1162 4.0319V4.01033Z" fill="#1E272D"/>
<path d="M8.99149 8.3439C8.27853 8.3439 7.7168 7.76178 7.7168 7.07185C7.7168 6.38193 8.30013 5.7998 8.99149 5.7998C9.68285 5.7998 10.2662 6.38193 10.2662 7.07185C10.2662 7.76178 9.68285 8.3439 8.99149 8.3439Z" fill="#04B392"/>
<path d="M15.0423 8.3439C14.3293 8.3439 13.7676 7.76178 13.7676 7.07185C13.7676 6.38193 14.3509 5.7998 15.0423 5.7998C15.7336 5.7998 16.317 6.38193 16.317 7.07185C16.317 7.76178 15.7336 8.3439 15.0423 8.3439Z" fill="#04B392"/>
<path d="M21.0911 8.3439C20.3781 8.3439 19.8164 7.76178 19.8164 7.07185C19.8164 6.38193 20.3997 5.7998 21.0911 5.7998C21.7825 5.7998 22.3658 6.38193 22.3658 7.07185C22.3658 7.76178 21.7825 8.3439 21.0911 8.3439Z" fill="#04B392"/>
<path d="M51.2512 55.0002C51.2512 55.0002 51.0783 55.0002 50.9919 54.957C50.6462 54.8708 50.387 54.6121 50.3005 54.2671L46.0012 38.2695C45.9147 37.9461 46.0012 37.5795 46.2604 37.3208C46.4333 37.1483 46.6925 37.0405 46.9518 37.0405C47.0382 37.0405 47.1246 37.0405 47.211 37.0836L63.2419 41.3741C63.5876 41.4604 63.8468 41.7406 63.9333 42.064C64.0197 42.3875 63.9333 42.754 63.674 43.0127L59.9147 46.7642C59.7203 46.9582 59.4826 47.0444 59.2234 47.0444C58.9641 47.0444 58.7265 46.9366 58.532 46.7642C58.3376 46.5701 58.2512 46.333 58.2512 46.0742C58.2512 45.8155 58.3592 45.5784 58.532 45.3843L61.0814 42.8402L48.3345 39.4337L51.7481 52.1542L54.2975 49.6101C54.4919 49.4161 54.7296 49.3298 54.9888 49.3298C55.2481 49.3298 55.4857 49.4376 55.6802 49.6101C56.0691 49.9982 56.0691 50.6019 55.6802 50.99L51.9209 54.7414C51.7481 54.9139 51.4888 55.0217 51.2296 55.0217L51.2512 55.0002Z" fill="#1E272D"/>
<path d="M51.2515 54.7844C51.2515 54.7844 51.1219 54.7844 51.0571 54.7628C50.7978 54.6981 50.6034 54.4825 50.5385 54.2238L46.2391 38.2262C46.1743 37.9674 46.2391 37.6872 46.4336 37.5147C46.628 37.3206 46.9089 37.256 47.1466 37.3206L63.1774 41.6111C63.4367 41.6758 63.6311 41.8914 63.6959 42.1501C63.7608 42.4088 63.6959 42.6891 63.5015 42.8616L59.7422 46.6131C59.4398 46.9149 58.9861 46.9149 58.6836 46.6131C58.3811 46.3112 58.3811 45.8585 58.6836 45.5566L61.5138 42.7322L47.9892 39.1101L51.6188 52.6068L54.449 49.7824C54.7515 49.4806 55.2052 49.4806 55.5077 49.7824C55.8101 50.0843 55.8101 50.537 55.5077 50.8389L51.7484 54.5903C51.5972 54.7413 51.4243 54.8059 51.2299 54.8059L51.2515 54.7844Z" fill="#1E272D"/>
<path d="M62.7874 54.8275C62.5282 54.8275 62.2905 54.7197 62.0961 54.5472L57.4078 49.8686C57.2134 49.6746 57.127 49.4374 57.127 49.1787C57.127 48.92 57.235 48.6828 57.4078 48.4888C57.5807 48.2947 57.8399 48.2085 58.0992 48.2085C58.3584 48.2085 58.5961 48.3163 58.7905 48.4888L63.4788 53.1673C63.8677 53.5554 63.8677 54.1591 63.4788 54.5472C63.2844 54.7412 63.0467 54.8275 62.7874 54.8275Z" fill="#1E272D"/>
<path d="M62.7872 54.5901C62.5927 54.5901 62.3983 54.5254 62.2686 54.3745L57.5804 49.6959C57.2779 49.3941 57.2779 48.9197 57.5804 48.6395C57.8828 48.3376 58.3365 48.3376 58.639 48.6395L63.3273 53.318C63.6298 53.6199 63.6298 54.0942 63.3273 54.3745C63.1761 54.5254 62.9816 54.5901 62.8088 54.5901H62.7872Z" fill="#1E272D"/>
<path d="M1.9273 14.0141C1.38718 14.0141 0.955078 13.5829 0.955078 13.0439C0.955078 12.5049 1.38718 12.0737 1.9273 12.0737H58.3594C58.8995 12.0737 59.3316 12.5049 59.3316 13.0439C59.3316 13.5829 58.8995 14.0141 58.3594 14.0141H1.9273Z" fill="#1E272D"/>
<path d="M58.3601 13.7768H1.92805C1.51755 13.7768 1.17188 13.4318 1.17188 13.0222C1.17188 12.6125 1.51755 12.2676 1.92805 12.2676H58.3601C58.7706 12.2676 59.1163 12.6125 59.1163 13.0222C59.1163 13.4318 58.7922 13.7768 58.3601 13.7768Z" fill="#1E272D"/>
<path d="M21.5671 35.3585C21.2862 35.3585 21.0054 35.2507 20.8109 35.0351L16.1659 30.3997C15.9714 30.2056 15.8418 29.9253 15.8418 29.645C15.8418 29.3648 15.9498 29.0845 16.1659 28.8904L20.6813 24.4059C21.1134 23.9747 21.7832 23.9747 22.2153 24.4059C22.6474 24.8371 22.6474 25.5055 22.2153 25.9367L18.4776 29.6666L22.3449 33.5259C22.777 33.9571 22.777 34.6254 22.3449 35.0566C22.1288 35.2723 21.848 35.3801 21.5887 35.3801L21.5671 35.3585Z" fill="#1E272D"/>
<path d="M38.872 35.3586C38.5911 35.3586 38.3103 35.2508 38.1158 35.0352C37.6837 34.604 37.6837 33.9356 38.1158 33.5044L41.8535 29.7745L37.9862 25.9152C37.5541 25.484 37.5541 24.8156 37.9862 24.3844C38.4183 23.9532 39.088 23.9532 39.5201 24.3844L44.1652 29.0199C44.5973 29.4511 44.5973 30.1194 44.1652 30.5506L39.6498 35.0567C39.4337 35.2723 39.1529 35.3801 38.8936 35.3801L38.872 35.3586Z" fill="#1E272D"/>
<path d="M25.4113 39.5627C25.2385 39.5627 25.0656 39.5196 24.8928 39.4333C24.3743 39.153 24.1798 38.4847 24.4607 37.9672L33.9453 20.6329C34.2261 20.1154 34.8959 19.9214 35.4144 20.2017C35.9329 20.4819 36.1274 21.1503 35.8465 21.6677L26.3619 39.0021C26.1675 39.3686 25.8002 39.5627 25.4113 39.5627Z" fill="#1E272D"/>
</g>
<defs>
<clipPath id="clip0_115_1123">
<rect width="63" height="55" fill="white" transform="translate(0.955078)"/>
</clipPath>
</defs>
</svg>
