<svg width="74" height="84" viewBox="0 0 74 84" fill="none" xmlns="http://www.w3.org/2000/svg">
<g clip-path="url(#clip0_120_1128)">
<path d="M37.5971 25.6948L32.8086 28.843L37.5971 32.6463L38.416 57.7589L44.2726 54.8109V28.843L37.5971 25.6948Z" fill="#04B392"/>
<path d="M48.2241 13.5024L43.4355 16.6688L48.2241 20.4721L49.0252 52.5362L54.8996 49.5882V16.6688L48.2241 13.5024Z" fill="#036270"/>
<path d="M32.0598 41.2537C31.4902 41.2537 31.0273 40.7805 31.0273 40.1982V28.8611C31.0273 28.2788 31.4902 27.8057 32.0598 27.8057C32.6295 27.8057 33.0923 28.2788 33.0923 28.8611V40.1982C33.0923 40.7805 32.6295 41.2537 32.0598 41.2537Z" fill="#082029"/>
<path d="M38.0054 59.4875C37.4358 59.4875 36.973 59.0144 36.973 58.432V32.9736L31.5436 29.7709C31.0451 29.4797 30.8849 28.8246 31.1697 28.315C31.4546 27.8055 32.0954 27.6235 32.5938 27.9329L39.0735 31.7544V58.432C39.0735 59.0144 38.6107 59.4875 38.041 59.4875H38.0054Z" fill="#082029"/>
<path d="M38.0054 59.4876C37.6494 59.4876 37.2934 59.3056 37.0976 58.9599C36.8127 58.4504 36.973 57.7952 37.4714 57.5041L42.9008 54.3013V29.4616L37.4714 26.2589C36.973 25.9677 36.7949 25.3126 37.0976 24.8031C37.3824 24.2935 38.0232 24.1297 38.5217 24.4209L45.0013 28.2424V55.5387L38.5217 59.3602C38.3615 59.4512 38.1834 59.5058 38.0054 59.5058V59.4876Z" fill="#082029"/>
<path d="M42.1711 28.843C41.6015 28.843 41.1387 28.3699 41.1387 27.7876V16.4505C41.1387 15.8682 41.6015 15.395 42.1711 15.395C42.7408 15.395 43.2036 15.8682 43.2036 16.4505V27.7876C43.2036 28.3699 42.7408 28.843 42.1711 28.843Z" fill="#082029"/>
<path d="M48.1168 53.5917C47.5471 53.5917 47.0843 53.1185 47.0843 52.5362V20.5813L41.6549 17.3785C41.1564 17.0873 40.9962 16.4322 41.2811 15.9227C41.5659 15.4131 42.2067 15.2494 42.7052 15.5405L49.1848 19.362V52.5362C49.1848 53.1185 48.722 53.5917 48.1524 53.5917H48.1168Z" fill="#082029"/>
<path d="M27.8943 65.6751L20.8984 61.5443V40.6352L27.8943 36.5044L34.8903 40.6352V61.5443L27.8943 65.6751ZM22.9812 60.3068L27.8943 63.2002L32.8075 60.3068V41.8545L27.8943 38.9611L22.9812 41.8545V60.3068Z" fill="#082029"/>
<path d="M32.06 29.9166C31.704 29.9166 31.348 29.7346 31.1522 29.3888C30.8673 28.8793 31.0275 28.2242 31.526 27.933L37.4716 24.4209C37.97 24.1297 38.6109 24.2935 38.8957 24.8031C39.1805 25.3126 39.0203 25.9677 38.5219 26.2589L32.5763 29.771C32.416 29.862 32.238 29.9166 32.06 29.9166Z" fill="#082029"/>
<path d="M48.1172 53.5919C47.7612 53.5919 47.4052 53.4099 47.2093 53.0641C46.9245 52.5546 47.0847 51.8995 47.5832 51.6083L53.0126 48.4055V17.0693L48.0994 14.1759L42.67 17.3787C42.1716 17.6698 41.5307 17.5061 41.2459 16.9965C40.9611 16.487 41.1213 15.8319 41.6197 15.5407L48.0994 11.7192L55.0953 15.8501V49.643L48.6156 53.4645C48.4554 53.5555 48.2774 53.6101 48.0994 53.6101L48.1172 53.5919Z" fill="#082029"/>
<path d="M31.0285 77.3941C30.0494 77.3941 29.0525 77.1394 28.1624 76.6116L7.94017 64.674C6.28465 63.6914 5.23438 61.8534 5.23438 59.8881V31.6091C5.23438 29.3344 6.42706 27.2234 8.3496 26.077L42.7061 5.64112C43.2045 5.34996 43.8454 5.51373 44.1302 6.02327C44.415 6.5328 44.2548 7.18791 43.7564 7.47907L9.39988 27.9149C8.11819 28.6792 7.31713 30.0987 7.31713 31.6091V59.8881C7.31713 61.0891 7.95797 62.2174 8.97265 62.8179L29.1949 74.7555C30.3164 75.4106 31.7227 75.4106 32.8442 74.7555L65.7054 55.1931C66.2038 54.9019 66.8447 55.0657 67.1295 55.5753C67.4143 56.0848 67.2541 56.7399 66.7557 57.0311L33.8945 76.5935C33.0044 77.1212 32.0075 77.3759 31.0107 77.3759L31.0285 77.3941Z" fill="#082029"/>
<path d="M31.0099 83.9998C30.0308 83.9998 29.0517 83.7451 28.1795 83.2355L2.7236 68.4045C1.05028 67.4219 0 65.5839 0 63.6186V28.6246C0 26.3499 1.19269 24.239 3.11523 23.0926L40.9786 0.545776C42.1891 -0.182127 43.7022 -0.200324 44.9305 0.509381L46.6928 1.51025C48.2593 2.40193 49.2384 4.0943 49.2384 5.93226V9.22602C49.2384 9.80834 48.7756 10.2815 48.2059 10.2815C47.6363 10.2815 47.1735 9.80834 47.1735 9.22602V5.93226C47.1735 4.8586 46.6038 3.87593 45.6959 3.3664L43.9336 2.36553C43.3462 2.01978 42.6163 2.03798 42.0467 2.36553L4.1655 24.9305C2.88381 25.6948 2.08275 27.1142 2.08275 28.6246V63.6004C2.08275 64.8196 2.7236 65.9478 3.75607 66.5484L29.2119 81.3794C30.3334 82.0345 31.7219 82.0345 32.8434 81.3794L70.6534 58.869C71.4366 58.4141 71.9173 57.5406 71.9173 56.6307V54.2468C71.9173 53.3187 71.4366 52.4635 70.6534 52.0085L56.7862 43.8196C56.2877 43.5284 56.1275 42.8733 56.4123 42.3638C56.6971 41.8543 57.338 41.6905 57.8364 41.9816L71.7036 50.1706C73.1277 51.0076 74.0178 52.5726 74.0178 54.265V56.6489C74.0178 58.3231 73.1455 59.8881 71.7214 60.7251L33.9115 83.2355C33.0214 83.7633 32.0245 84.018 31.0277 84.018L31.0099 83.9998Z" fill="#082029"/>
<path d="M27.8956 44.7296V63.2183L32.8087 60.3067V41.8544L27.8956 38.9609L22.9824 41.8544L27.8956 44.7296Z" fill="#04B392"/>
<path d="M28.1441 64.8195C27.5745 64.8195 27.1116 64.3464 27.1116 63.7641V45.3481L21.6822 42.1454C21.1838 41.8542 21.0236 41.1991 21.3084 40.6896C21.5932 40.18 22.2341 39.998 22.7325 40.3074L29.2122 44.1289V63.7641C29.2122 64.3464 28.7493 64.8195 28.1797 64.8195H28.1441Z" fill="#082029"/>
</g>
<defs>
<clipPath id="clip0_120_1128">
<rect width="74" height="84" fill="white"/>
</clipPath>
</defs>
</svg>
