<svg width="67" height="59" viewBox="0 0 67 59" fill="none" xmlns="http://www.w3.org/2000/svg">
<g clip-path="url(#clip0_115_980)">
<path d="M62.3502 25.6677V52.3621C62.3502 53.3888 61.556 54.2007 60.5514 54.2007H34.4336C33.429 54.2007 32.6348 53.3888 32.6348 52.3621V38.0121H32.9151C35.4381 38.0121 37.4939 35.9109 37.4939 33.3322V23.853H60.5281C61.5326 23.853 62.3269 24.6648 62.3269 25.6916L62.3502 25.6677Z" fill="#006170"/>
<path d="M32.9401 4.79932H6.79889C5.81833 4.79932 5.02344 5.61176 5.02344 6.61397V33.3323C5.02344 34.3345 5.81833 35.147 6.79889 35.147H32.9401C33.9207 35.147 34.7156 34.3345 34.7156 33.3323V6.61397C34.7156 5.61176 33.9207 4.79932 32.9401 4.79932Z" fill="#04B392"/>
<path d="M5.27964 40.0417C2.35948 40.0417 0 37.6301 0 34.6455V5.3962C0 2.41157 2.35948 0 5.27964 0H33.8738C36.7939 0 39.1534 2.41157 39.1534 5.3962V10.9357C39.1534 11.5326 38.6862 12.0101 38.1022 12.0101C37.5181 12.0101 37.0509 11.5326 37.0509 10.9357V5.3962C37.0509 3.60542 35.6025 2.12505 33.8504 2.12505H5.27964C3.52755 2.12505 2.07915 3.60542 2.07915 5.3962V34.6455C2.07915 36.4363 3.52755 37.9166 5.27964 37.9166H54.2681C54.8522 37.9166 55.3194 38.3942 55.3194 38.9911C55.3194 39.588 54.8522 40.0656 54.2681 40.0656H5.27964V40.0417Z" fill="#082029"/>
<path d="M46.6993 47.3481L54.2216 39.5881C54.6187 39.1822 54.6187 38.5136 54.2216 38.1077L47.2833 30.6581C46.8861 30.2283 46.9095 29.5598 47.33 29.1539C47.7505 28.7479 48.4046 28.7718 48.8018 29.2016L57.1417 38.1316C57.5389 38.5375 57.5155 39.2061 57.1417 39.612L48.171 48.8285C47.7739 49.2344 47.0964 49.2583 46.6993 48.8285C46.3021 48.4226 46.2788 47.7301 46.6993 47.3242V47.3481Z" fill="#082029"/>
<path d="M33.1035 59.0002C30.1834 59.0002 27.8239 56.5886 27.8239 53.604V48.0645C27.8239 47.4676 28.2911 46.9901 28.8751 46.9901C29.4592 46.9901 29.9264 47.4676 29.9264 48.0645V53.604C29.9264 55.3948 31.3748 56.8751 33.1269 56.8751H61.721C63.4731 56.8751 64.9215 55.3948 64.9215 53.604V24.3786C64.9215 22.5878 63.4731 21.1074 61.721 21.1074H11.4243C10.8403 21.1074 10.373 20.6299 10.373 20.033C10.373 19.436 10.8403 18.9585 11.4243 18.9585H61.721C64.6412 18.9585 67.0007 21.3701 67.0007 24.3547V53.5801C67.0007 56.5647 64.6412 58.9763 61.721 58.9763H33.1269L33.1035 59.0002Z" fill="#082029"/>
<path d="M8.55088 19.3881L18.0823 9.57468C18.4794 9.16877 19.1569 9.14489 19.554 9.57468C19.9512 9.98059 19.9745 10.673 19.554 11.0789L11.4477 19.412C11.0505 19.8179 11.0505 20.4865 11.4477 20.8924L19.3905 29.3687C19.7876 29.7985 19.7643 30.467 19.3671 30.8729C18.9466 31.2788 18.2925 31.255 17.8954 30.8491L8.55088 20.8685C8.15374 20.4626 8.1771 19.794 8.55088 19.3881Z" fill="#082029"/>
</g>
<defs>
<clipPath id="clip0_115_980">
<rect width="67" height="59" fill="white"/>
</clipPath>
</defs>
</svg>
