<svg class="w-40 mb-1 text-white fill-current" xmlns="http://www.w3.org/2000/svg" viewBox="0 0 140.81 30.627">
                        <defs></defs>
                        <g id="Group_511" data-name="Group 511" transform="translate(-135 -2078.908)">
                            <path id="Path_290" data-name="Path 290" d="M0 0h-1.98l1.171-2.027h-2.342l.99-1.715-.777-.448-.99 1.714L-5.1-4.5l-1.17 2.024-.99-1.714-.777.448.991 1.715h-2.343L-8.218 0H-10.2v.9h1.979l-1.168 2.024h2.343l-.991 1.714.777.449.99-1.714L-5.1 5.4l1.171-2.029.99 1.715.777-.449-.991-1.714h2.344L-1.98.9H0zm-6.525 2.021h-1.3L-7.174.9h1.3zM-7.174 0l-.649-1.123h1.3L-5.876 0zM-5.1 3.593l-.648-1.123.648-1.124.65 1.124zm0-4.042l-.649-1.123.649-1.123.649 1.123zm1.426 2.47L-4.322.9h1.3l.647 1.124zM-3.023 0h-1.3l.649-1.123h1.3z" transform="translate(201.519 2093.797)" fill="#08c"></path>
                            <path id="Path_291" data-name="Path 291" class="cls-2" d="M0 0a1.258 1.258 0 01-1.276 1.275A1.257 1.257 0 01-2.552 0a1.258 1.258 0 011.276-1.276A1.259 1.259 0 010 0m-2.354 0a1.068 1.068 0 001.078 1.094A1.068 1.068 0 00-.2 0a1.068 1.068 0 00-1.076-1.094A1.068 1.068 0 00-2.354 0m.8.737h-.182V-.738h.566c.333 0 .48.144.48.408a.4.4 0 01-.37.412l.438.655h-.215l-.415-.655h-.305zm.239-.81c.224 0 .443-.006.443-.257 0-.205-.172-.253-.35-.253h-.332v.51z" transform="translate(275.81 2080.622)"></path>
                            <path id="Path_292" data-name="Path 292" class="cls-2" d="M0 0a3.833 3.833 0 00-3.828 3.747v.522A3.833 3.833 0 000 8.016h6.011a1.073 1.073 0 011.07 1.067v.36a1.074 1.074 0 01-1.069 1.07H-3.22v2.759h9.232A3.827 3.827 0 009.84 9.444v-.361a3.822 3.822 0 00-3.828-3.827H0a1.07 1.07 0 01-1.068-1.067v-.362A1.068 1.068 0 010 2.761h8.863V0z" transform="translate(149.426 2087.64)"></path>
                            <path id="Path_296" data-name="Path 296" class="cls-2" d="M0 0v9.444a1.081 1.081 0 01-1.091 1.069h-5.533a1.072 1.072 0 01-1.067-1.069V0h-2.76v9.524a3.832 3.832 0 003.826 3.748h5.534a3.831 3.831 0 002.726-1.12A3.792 3.792 0 002.76 9.444V0z" transform="translate(171.593 2087.64)"></path>
                            <path id="Path_300" data-name="Path 300" class="cls-2" d="M0 0h6.6a1.078 1.078 0 011.09 1.066V1.6A1.08 1.08 0 016.6 2.666H0zm0-5.086h6.6A1.078 1.078 0 017.69-4.02v.17A1.068 1.068 0 016.6-2.783H0zm-2.76-2.761V5.425H6.6A3.831 3.831 0 009.326 4.3a3.787 3.787 0 001.124-2.7v-.534a3.794 3.794 0 00-.879-2.451 3.882 3.882 0 00.879-2.465v-.17a3.79 3.79 0 00-1.124-2.707A3.829 3.829 0 006.6-7.847z" transform="translate(179.647 2095.487)"></path>
                            <path id="Path_304" data-name="Path 304" class="cls-2" d="M0 0a3.8 3.8 0 00-2.707 1.121 3.79 3.79 0 00-1.122 2.625v5.78a3.789 3.789 0 001.121 2.624A3.8 3.8 0 000 13.272h9.383v-2.759H0a1.071 1.071 0 01-1.068-1.069V8.015h8.874V5.256h-8.874V3.827A1.068 1.068 0 010 2.761h9.383V0z" transform="translate(220.479 2087.64)"></path>
                            <path id="Path_308" data-name="Path 308" class="cls-2" d="M0 0h6.6a1.066 1.066 0 011.09 1.066v1.745A1.081 1.081 0 016.6 3.878H0zm-2.76-2.761v13.272H0V6.66h3.563l3.859 3.851h3.959L7.425 6.572a3.828 3.828 0 003.026-3.761V1.066a3.8 3.8 0 00-1.123-2.707A3.836 3.836 0 006.6-2.761z" transform="translate(235.525 2090.401)"></path>
                            <path id="Path_312" data-name="Path 312" class="cls-2" d="M0 0v-5.616a1.068 1.068 0 011.065-1.067H6.6a1.079 1.079 0 011.09 1.066V0A1.08 1.08 0 016.6 1.069H1.065A1.071 1.071 0 010 0m1.065-9.444a3.8 3.8 0 00-2.707 1.121A3.8 3.8 0 00-2.762-5.7V.082a3.792 3.792 0 001.12 2.624 3.8 3.8 0 002.707 1.122H6.6a3.831 3.831 0 002.726-1.12A3.788 3.788 0 0010.448 0v-5.617a3.789 3.789 0 00-1.124-2.707A3.826 3.826 0 006.6-9.444z" transform="translate(251.541 2097.084)"></path>
                            <path id="Path_316" data-name="Path 316" class="cls-2" d="M0 0v2.761h9.122a.26.26 0 01.261.26.263.263 0 01-.111.213L1.156 8.269A2.734 2.734 0 00-.2 10.591a2.562 2.562 0 00.84 1.874 3.338 3.338 0 002.269.807h9.78v-2.759H3.732a.26.26 0 01-.261-.261.264.264 0 01.11-.212l7.864-4.874A3.045 3.045 0 0012.9 2.649a2.556 2.556 0 00-.807-1.857A3.11 3.11 0 009.935 0z" transform="translate(201.811 2087.64)"></path>
                            <path id="Path_320" data-name="Path 320" class="cls-2" d="M0 0a.177.177 0 01-.1-.034c-.166-.1-4.964-2.6-68.671-2.6-63.828 0-68.507 2.495-68.675 2.6a.18.18 0 01-.218-.02.173.173 0 01-.032-.213 28.33 28.33 0 002.859-8.621 36.842 36.842 0 00-2.869-21.5.177.177 0 01.053-.209.176.176 0 01.209 0c.188.117 4.975 2.6 68.673 2.6S-.27-30.492-.1-30.6a.178.178 0 01.216.022.172.172 0 01.033.21 33.972 33.972 0 000 30.113.175.175 0 01-.043.212A.179.179 0 010 0m-68.775-2.982c55.482 0 66.369 1.892 68.423 2.49a34.383 34.383 0 01-.012-29.64c-2.087.6-13.042 2.488-68.411 2.488-55.727 0-66.453-1.9-68.446-2.5A37.13 37.13 0 01-134.5-8.808 30.211 30.211 0 01-137.176-.5c2.11-.61 13.093-2.482 68.4-2.482" transform="translate(272.725 2109.535)"></path>
                        </g>
                    </svg>