<?xml version="1.0" encoding="UTF-8"?>
<svg id="a" xmlns="http://www.w3.org/2000/svg" version="1.1" viewBox="0 0 1011.4 197.2">
  <defs>
    <style>
      .cls-1 {
        fill: #fff;
        stroke-width: 0px;
      }
    </style>
  </defs>
  <path class="cls-1" d="M417.6,197.2c0-63.5,0-127,0-190.5s.3-6.6,6.9-6.6c61.4,0,122.9,0,184.3,0,4.1,0,7,.2,6.9,5.7-.2,63.2-.1,126.3-.1,189.5,0,.7,0,1.3-.1,2h-197.8,0ZM423.8,98.7c0,28.7,0,57.4,0,86,0,4.6,1.1,6.5,6.1,6.4,57.8-.1,115.5-.1,173.3,0,4.7,0,6.4-1.4,6.4-6.2-.1-57.5-.1-115.1,0-172.6,0-4.9-1.8-6.2-6.4-6.2-57.6.1-115.2,0-172.8,0-6.3,0-6.5.2-6.5,6.4,0,28.7,0,57.4,0,86h0ZM0,140.4c1.7,0,3.3,0,5,0,6.8,0,7-.2,7-7,0-8.1,0-16.2,0-24.4,0-6.1.3-6.4,6.5-6.4,16.6,0,33.3,0,49.9,0,4.7,0,6.2-1.9,5.3-6.1-.7-3.6-3.5-3-5.9-3-16.8,0-33.6-.1-50.4,0-4.1,0-5.7-1.4-5.5-5.5.2-4.5,0-8.9,0-13.4,0-6.5.2-6.8,6.7-6.8,17.5,0,35,0,52.4,0,3.3,0,5.9-.3,5.9-4.7,0-4-2.5-4.5-5.6-4.4-23.8,0-47.6,0-71.4.1v81.6h0ZM707.9,100.6c11.1,3.5,13.4,11.4,13.9,20.8.3,6,1.6,12,2.4,18.1-8.7,3-12.2,1.2-13.5-7.4-.5-3.2-.4-6.6-.5-9.9-.5-9.7-4.6-15.2-14.2-16.3-10-1.1-20.2-.9-30.3-1.1-4.7-.1-9.3.1-14,0-3.8-.2-5.4,1.3-5.3,5.2.2,8.3-.2,16.6.1,24.8.2,4.8-2.1,5.8-6.4,5.8-4.3,0-5.9-1.5-5.9-5.8.1-23.3.1-46.7,0-70.1,0-4.6,1.6-6.1,6.2-6,18.3.2,36.6-.2,54.9.2,5.5.1,11.2,1.6,16.5,3.4,6.8,2.3,10.8,7.6,11.6,14.9.9,8.2-1.2,15.1-8.7,19.7-1.8,1.1-3.8,2.1-6.8,3.8h0ZM674.1,67.9h0c-7.7,0-15.3,0-23,0-3.1,0-4.6,1.2-4.6,4.4,0,6.5-.2,12.9.2,19.4,0,1.4,2.4,3.8,3.8,3.8,15.3.2,30.6.3,45.9,0,5.4-.1,10.5-2.3,13.2-7.6,4.9-9.5-1.2-19.2-12.6-19.8-7.6-.4-15.3,0-23,0h0ZM195.5,100.7c11.7,3,13.8,11.4,14.5,20.8.5,6,1.5,12.1,2.3,18.1-9.7,3.1-13.2.7-13.6-9.3-.1-3.6-.3-7.3-.9-10.9-1.2-8.4-4.9-12.7-13.4-13.6-9.9-1-19.9-.9-29.8-1.1-5-.1-10,0-15,0-3.4,0-4.8,1.4-4.7,4.8,0,8.4-.1,16.9,0,25.3.1,4.4-1.7,5.7-5.9,5.8-4.3,0-6.3-1.1-6.3-5.9.2-23.3.2-46.7,0-70.1,0-4.6,1.8-6,6.2-6,18,.2,35.9-.2,53.9.2,5.4.1,10.9,1.3,16,3.1,8.3,2.9,12.7,9.4,13,18.2.3,8.9-4.9,14.4-12.2,18.3-.6.3-1.2.5-1.9.7-.4.2-.8.5-2.3,1.4h0ZM162.1,67.9h0c-7.5,0-15,0-22.5,0-3,0-4.7,1.1-4.7,4.3,0,6.5-.2,12.9.2,19.4,0,1.4,2.4,3.8,3.7,3.8,15.3.2,30.6.4,45.9-.1,5.8-.2,11-3.1,13.4-8.9,3.8-9.3-2.4-17.8-13.7-18.4-7.5-.4-15,0-22.5,0h0ZM237.4,62c-8.2,4-12.5,10.3-12.1,19.4.4,9.3,6.5,14.1,14.6,16.1,10.6,2.6,21.5,4.1,32.2,6.3,7.1,1.5,14.3,3.1,21,5.8,5.8,2.3,7.4,8.5,3.9,13.8-1.9,2.8-5,5.4-8.2,6.7-9.8,4.1-20.1,3.9-30.5,2.8-11.5-1.2-20.9-5-24.4-17.6-1.3-4.8-6.3-2.4-9.6-2.3-.5,0-1.6,3.9-1.2,5.8,1.9,8.7,7,15.2,15.3,18.4,18.9,7.2,38.1,7.3,57.1.8,6.2-2.1,11.5-6.2,14-12.6,4.8-12.4-.6-22.8-14.6-26.4-9.3-2.4-19-3.4-28.4-5.3-7.3-1.5-14.6-3.1-21.8-5.2-3.8-1.1-6.6-3.8-6.9-8.2-.3-4.6,1.9-7.7,5.7-9.7,2.8-1.4,5.7-3,8.8-3.4,6.7-.8,13.6-1.3,20.3-1,10.4.4,19.8,2.8,23.9,14.3,1.6,4.5,6.4,2.3,9.8,2,.5,0,1.7-4.3.9-5.8-2.2-4.1-4.5-8.7-8-11.5-9.6-7.6-21.5-8.2-33.2-8.3-9.9-.2-19.6.8-28.7,5.3h0ZM1005.9,140.5c4.5,0,6.6-2.3,4.9-6.1-.7-1.5-3.8-2.8-5.8-2.8-19.6-.2-39.3-.2-58.9,0-4.2,0-6.1-1.3-5.9-5.7.3-5.5,0-10.9,0-16.4,0-6.4.3-6.6,6.8-6.7,18.1,0,36.3,0,54.4,0,4.9,0,6.2-1.6,5.6-5.8-.5-3.6-3.2-3.3-5.7-3.3-18.5,0-37,0-55.4,0-3.8,0-6.1-.8-5.8-5.2.2-4.6,0-9.3,0-13.9,0-6.4.3-6.6,6.8-6.6,18.8,0,37.6,0,56.4,0,3.4,0,5.9-.4,5.8-4.8,0-4.1-2.6-4.4-5.7-4.3-23.3,0-46.6,0-69.9,0-4,0-5.7,1.4-5.6,5.5.1,23.5.1,47.1,0,70.6,0,4.4,1.7,5.8,5.9,5.7,11.8-.2,23.6,0,35.5,0s24.3,0,36.5,0h0ZM838,139.3c-8.8,2.9-12.3,1.7-16.3-5.2-2.7-4.7-5-9.8-8-14.3-1.2-1.9-3.9-3.8-6-3.9-14.6-.3-29.3-.3-43.9,0-2.1,0-4.9,1.8-6.2,3.7-3.1,4.5-5.5,9.4-8.2,14.2-4.2,7.4-6.1,8.2-15.4,5.8.5-1.4.7-2.8,1.4-3.9,13.8-24.3,27.8-48.6,41.5-73,2.7-4.8,6.9-3.6,10.9-3.9,3.4-.2,5.5,1,7.2,4.1,13.3,23.5,26.8,46.9,40.1,70.4,1,1.8,1.9,3.8,2.9,6.1h0ZM765,105.9h41.2c-7-12.5-13.4-24.2-20.4-36.9-7.1,12.7-13.8,24.5-20.8,36.9ZM318.6,58.7c-3.3,0-5.9.3-5.9,4.7,0,4.5,2.9,4.5,6.1,4.5,9.3,0,18.6.2,28,0,4.7-.1,6.1,1.7,6,6.1-.2,8.1,0,16.2,0,24.3,0,12.3-.1,24.5.1,36.8,0,1.8,1.2,4.5,2.6,5,6.1,2.4,9.4,0,9.4-6.6,0-19.9.1-39.8,0-59.6,0-4.5,1.5-6.2,6.1-6.1,8.3.2,16.6.2,25,0,3.2,0,7.9,1.8,8.1-4.4.1-6.1-4.5-4.6-7.8-4.6-12.6-.1-25.3,0-37.9,0s-26.3,0-39.4,0h0ZM832.1,58.8c-3.3,0-7-.6-6.9,4.7,0,5.4,3.9,4.4,7.1,4.4,8.5,0,17,0,25.5,0,4.9,0,7.4,2.5,7.4,7.6,0,19.7,0,39.4,0,59.2,0,3.7.7,6,5.2,6,4.4,0,6.3-1.3,6.2-6-.2-19.9,0-39.8,0-59.7,0-7.1,0-7.1,7.3-7.1,8,0,16,.2,24,0,3.3-.1,8.4,2.2,8.5-4.3.1-6.5-4.9-4.6-8.3-4.6-12.3-.2-24.6,0-36.9,0s-26,0-38.9,0ZM101.1,64.4c0-4.4-1.7-5.8-5.9-5.7-4.2,0-5.5,1.7-5.5,5.7,0,23.5.1,47,0,70.5,0,4.4,1.7,5.8,5.9,5.7,4.2,0,5.5-1.7,5.5-5.7-.2-11.8,0-23.5,0-35.2s-.1-23.5,0-35.2h0ZM563,97.1c17.1-8.9,22.8-32.8,11.4-48.4-7.5-10.2-19-12.8-30.4-13.6-16.4-1.1-32.9-.8-49.3-1.3-4.9-.2-6.3,1.7-6.3,6.4s1.8,6,6.2,5.9c14-.2,28-.4,41.9.1,5.5.2,11.1,1.8,16.4,3.7,8.1,2.8,11.9,9.6,12.3,17.7.4,8.2-2.6,15.2-10,19.9-6.8,4.3-14.4,5.9-22.3,6.1-13,.2-26,.2-39,0-4.1,0-5.5,1.5-5.6,5.6,0,4.4,1.7,5.7,5.9,5.7,15,.1,29.9.1,44.9,1,13.9.8,19.7,8,20.3,21.9.5,9.7,1.8,19.4,3.1,29.1.2,1.9,1.9,4.9,3.2,5.1,4.6.6,9.3.2,14.7.2-5.8-11.1-5.2-22.2-5.7-33-.5-12.2-3.2-23-15.4-29.9,1.8-1,2.7-1.6,3.8-2.1h0ZM481.7,40.2c0-5.8-1-6.4-6.7-6.3-3.5,0-4.5,2.1-5.2,4.8-2.7,10.7-10,16.4-20.7,18.2-2.8.5-5.5,1.2-8.4,1.4-3.6.3-5.5,1.6-5.2,5.6.3,4.3,3.4,3.8,6.2,3.8,6.7,0,13.3,0,20,0,6.6,0,6.8.2,6.8,6.6,0,27.2,0,54.4,0,81.6,0,6.1.4,6.4,6.6,6.4s6.6-.3,6.6-6.4c0-19.2,0-38.5,0-57.7s0-38.8,0-58.2h0Z"/>
</svg>