<svg width="279" height="32" viewBox="0 0 279 32" fill="none" xmlns="http://www.w3.org/2000/svg">
<g clip-path="url(#clip0_118_1553)">
<path d="M168.752 6.41211H170.023V19.1125C170.023 21.0736 170.519 22.5366 171.511 23.5016C172.503 24.4666 173.774 24.9335 175.324 24.9335C176.844 24.9335 178.115 24.4666 179.107 23.5016C180.099 22.5366 180.595 21.0736 180.595 19.1125V6.41211H181.866V19.1125C181.866 21.4471 181.246 23.2214 179.975 24.3732C178.704 25.5561 177.154 26.1164 175.293 26.1164C173.433 26.1164 171.883 25.525 170.612 24.3732C169.341 23.2214 168.721 21.4471 168.721 19.1125C168.752 19.1125 168.752 6.41211 168.752 6.41211Z" fill="#0B2029"/>
<path d="M186.021 11.7661H187.168L187.199 13.9451C187.788 13.1669 188.501 12.5443 189.308 12.1397C190.145 11.7039 191.075 11.5171 192.129 11.5171C193.524 11.5171 194.64 11.8906 195.446 12.6688C196.252 13.4471 196.655 14.7233 196.655 16.5288V25.7116H195.415V16.4976C195.415 15.128 195.105 14.1319 194.454 13.5404C193.803 12.949 192.904 12.6377 191.695 12.6377C190.703 12.6377 189.835 12.8867 189.06 13.4159C188.284 13.9451 187.695 14.5988 187.23 15.377V25.6805H185.99L186.021 11.7661Z" fill="#0B2029"/>
<path d="M200.623 6.47449C200.809 6.28772 201.026 6.19434 201.367 6.19434C201.677 6.19434 201.925 6.28772 202.111 6.47449C202.297 6.66126 202.359 6.91029 202.359 7.19045C202.359 7.4706 202.266 7.71963 202.111 7.9064C201.925 8.09317 201.708 8.18655 201.398 8.18655C201.057 8.18655 200.809 8.09317 200.654 7.9064C200.468 7.71963 200.406 7.4706 200.406 7.19045C200.344 6.91029 200.437 6.66126 200.623 6.47449ZM200.716 11.7663H201.956V25.7118H200.716V11.7663Z" fill="#0B2029"/>
<path d="M205.491 11.7661L209.583 22.7544C209.707 23.128 209.831 23.4393 209.955 23.6883C210.079 23.9373 210.141 24.2175 210.234 24.4976H210.327C210.42 24.2175 210.482 23.9373 210.606 23.6883C210.699 23.4393 210.823 23.128 210.978 22.7856L215.102 11.7972H216.466L210.854 25.7428H209.676L204.064 11.7972C204.064 11.7661 205.491 11.7661 205.491 11.7661Z" fill="#0B2029"/>
<path d="M217.428 18.5213C217.428 16.4046 217.986 14.6926 219.133 13.354C220.249 12.0155 221.768 11.3618 223.628 11.3618C225.458 11.3618 226.884 11.9533 227.876 13.1673C228.868 14.3813 229.364 16.0622 229.364 18.3035V18.8949H218.11V17.8054H228.124V17.8677C228.124 16.0933 227.752 14.7548 227.039 13.8832C226.326 13.0116 225.179 12.5758 223.597 12.5758C222.016 12.5758 220.807 13.1361 219.97 14.2568C219.133 15.3774 218.73 16.8093 218.73 18.5836V19.0194C218.73 20.7626 219.164 22.1945 220.032 23.3463C220.9 24.4669 222.264 25.0272 224.124 25.0272C225.117 25.0272 225.954 24.8715 226.636 24.5291C227.318 24.1867 227.907 23.7198 228.403 23.1595L229.271 23.9688C228.806 24.5291 228.155 25.0583 227.287 25.5252C226.419 25.9922 225.365 26.2101 224.124 26.2101C221.985 26.2101 220.342 25.5564 219.195 24.2178C218.048 22.8793 217.49 21.1673 217.49 19.0505C217.428 18.9571 217.428 18.5213 217.428 18.5213Z" fill="#0B2029"/>
<path d="M232.123 11.7665H233.27L233.301 13.821C233.766 13.1673 234.355 12.607 235.068 12.1089C235.781 11.6108 236.649 11.3618 237.672 11.3618C237.889 11.3618 238.137 11.3929 238.386 11.4241C238.634 11.4552 238.82 11.5175 238.913 11.5486V12.7626C238.696 12.7315 238.479 12.7003 238.261 12.6692C238.044 12.6381 237.796 12.6381 237.517 12.6381C236.525 12.6381 235.688 12.8871 234.975 13.4163C234.262 13.9455 233.704 14.568 233.332 15.3151V25.712H232.092C232.123 25.712 232.123 11.7665 232.123 11.7665Z" fill="#0B2029"/>
<path d="M241.641 21.6031V21.6653C241.641 22.7859 242.044 23.6264 242.819 24.1556C243.594 24.6848 244.617 24.9649 245.888 24.9649C247.159 24.9649 248.182 24.6848 248.895 24.1556C249.608 23.5953 249.949 22.9105 249.949 22.0389C249.949 21.1673 249.67 20.5758 249.081 20.1712C248.492 19.7976 247.407 19.4241 245.764 19.0817C244.152 18.7392 242.943 18.2412 242.168 17.5875C241.392 16.9338 240.989 16.0933 240.989 15.0661C240.989 13.9766 241.455 13.105 242.354 12.3891C243.253 11.6731 244.462 11.3618 245.981 11.3618C247.5 11.3618 248.709 11.7665 249.639 12.5447C250.57 13.354 251.035 14.319 251.035 15.4708V15.5642H249.794C249.794 14.6614 249.453 13.9455 248.802 13.3852C248.151 12.8249 247.221 12.5447 245.981 12.5447C244.741 12.5447 243.811 12.7626 243.191 13.1984C242.571 13.6342 242.261 14.2256 242.261 14.9727C242.261 15.7198 242.54 16.3112 243.098 16.747C243.656 17.1828 244.741 17.5875 246.353 17.961C247.965 18.3346 249.205 18.8015 250.011 19.3929C250.849 19.9844 251.252 20.856 251.252 22.0077C251.252 23.1906 250.818 24.1867 249.918 24.9649C249.019 25.7743 247.686 26.1789 245.888 26.1789C244.09 26.1789 242.726 25.7743 241.796 24.9649C240.865 24.1556 240.4 23.0661 240.4 21.7276V21.6653L241.641 21.6031Z" fill="#0B2029"/>
<path d="M254.321 6.47449C254.507 6.28772 254.724 6.19434 255.065 6.19434C255.375 6.19434 255.623 6.28772 255.809 6.47449C255.995 6.66126 256.057 6.91029 256.057 7.19045C256.057 7.4706 255.964 7.71963 255.809 7.9064C255.654 8.09317 255.406 8.18655 255.096 8.18655C254.755 8.18655 254.507 8.09317 254.352 7.9064C254.166 7.71963 254.104 7.4706 254.104 7.19045C254.073 6.91029 254.166 6.66126 254.321 6.47449ZM254.445 11.7663H255.685V25.7118H254.445V11.7663Z" fill="#0B2029"/>
<path d="M257.793 11.7663H265.947V12.8869H257.793V11.7663ZM260.893 12.42V12.2021V8.31104H262.133V22.2254C262.133 23.1904 262.288 23.9064 262.629 24.311C262.971 24.7468 263.467 24.9336 264.18 24.9336C264.459 24.9336 264.707 24.9025 264.955 24.8713C265.203 24.8402 265.451 24.7468 265.699 24.6534V25.8052C265.482 25.8986 265.234 25.9608 264.924 26.0231C264.614 26.0854 264.242 26.1165 263.87 26.1165C262.94 26.1165 262.226 25.8052 261.699 25.1826C261.172 24.5601 260.893 23.564 260.893 22.2254V12.42Z" fill="#0B2029"/>
<path d="M267.373 30.1319C267.652 30.1941 267.931 30.2564 268.272 30.3186C268.582 30.3809 268.892 30.412 269.171 30.412C269.698 30.412 270.163 30.2253 270.535 29.8206C270.938 29.447 271.62 28.0463 272.582 25.6805L266.877 11.7661H268.303L272.52 22.7856C272.613 23.0657 272.706 23.2836 272.799 23.5326C272.892 23.7817 272.985 24.0307 273.078 24.3731H273.171C273.264 24.0307 273.357 23.7817 273.419 23.5326C273.481 23.3148 273.574 23.0657 273.667 22.7856L277.666 11.7661H278.999L273.295 26.77C272.613 28.5443 271.993 29.7583 271.434 30.4432C270.845 31.128 270.132 31.4704 269.233 31.4704C268.83 31.4704 268.489 31.4393 268.21 31.4081C267.931 31.377 267.652 31.2836 267.373 31.2214V30.1319Z" fill="#0B2029"/>
<mask id="mask0_118_1553" style="mask-type:luminance" maskUnits="userSpaceOnUse" x="0" y="0" width="164" height="32">
<path d="M163.512 0H0V32H163.512V0Z" fill="white"/>
</mask>
<g mask="url(#mask0_118_1553)">
<mask id="mask1_118_1553" style="mask-type:luminance" maskUnits="userSpaceOnUse" x="0" y="0" width="164" height="32">
<path d="M163.512 0H0V32H163.512V0Z" fill="white"/>
</mask>
<g mask="url(#mask1_118_1553)">
<path d="M46.5059 25.93V6.87939H55.1248C59.1553 6.87939 62.1936 9.02725 62.1936 13.0428V13.323C62.1936 16.2179 60.6744 18.1167 58.2872 18.9883L62.7517 25.93H57.7911L53.8227 19.4864H51.0014V25.93H46.5059ZM51.0014 15.7821H54.5978C56.3029 15.7821 57.5121 15.0662 57.5121 13.323V13.0428C57.5121 11.2996 56.3029 10.5837 54.5978 10.5837H51.0014V15.7821Z" fill="#082029"/>
</g>
<mask id="mask2_118_1553" style="mask-type:luminance" maskUnits="userSpaceOnUse" x="0" y="0" width="164" height="32">
<path d="M163.512 0H0V32H163.512V0Z" fill="white"/>
</mask>
<g mask="url(#mask2_118_1553)">
<path d="M63.4336 19.1127V18.8325C63.4336 14.5679 66.2549 11.7041 70.6574 11.7041C75.4319 11.7041 77.8192 15.0348 77.5402 19.8909H67.464C67.6501 22.0699 68.7352 23.0971 70.6264 23.0971C72.1146 23.0971 72.9206 22.4434 73.2617 21.6341H77.4472C76.7341 24.4356 74.2848 26.2411 70.6264 26.2411C66.1929 26.2722 63.4336 23.4706 63.4336 19.1127ZM73.3237 17.494C73.1997 15.7819 72.2386 14.7858 70.5954 14.7858C68.8282 14.7858 67.8361 15.6574 67.526 17.494H73.3237Z" fill="#082029"/>
</g>
<mask id="mask3_118_1553" style="mask-type:luminance" maskUnits="userSpaceOnUse" x="0" y="0" width="164" height="32">
<path d="M163.512 0H0V32H163.512V0Z" fill="white"/>
</mask>
<g mask="url(#mask3_118_1553)">
<path d="M79.2754 19.1128V18.8326C79.2754 14.7859 81.4456 11.7042 85.166 11.7042C87.1813 11.7042 88.5454 12.638 89.3515 13.8832V5.72754H93.661V25.8987H89.6615L89.5375 23.6575C88.9795 24.9338 87.5223 26.2412 85.3211 26.2412C81.5697 26.2723 79.2754 23.2528 79.2754 19.1128ZM89.5065 19.1128V18.8326C89.5065 16.2489 88.5454 14.9104 86.5612 14.9104C84.546 14.9104 83.6159 16.2489 83.6159 18.8326V19.1128C83.6159 21.6653 84.546 23.0349 86.5612 23.0349C88.5454 23.0349 89.5065 21.6653 89.5065 19.1128Z" fill="#082029"/>
</g>
<mask id="mask4_118_1553" style="mask-type:luminance" maskUnits="userSpaceOnUse" x="0" y="0" width="164" height="32">
<path d="M163.512 0H0V32H163.512V0Z" fill="white"/>
</mask>
<g mask="url(#mask4_118_1553)">
<path d="M99.6144 25.9301L95.584 12.0469H99.8935L102.157 21.4788L104.42 12.0469H108.543L110.838 21.5099L113.163 12.0469H117.348L113.287 25.9301H108.822L106.435 16.6228L104.079 25.9301H99.6144Z" fill="#082029"/>
</g>
<mask id="mask5_118_1553" style="mask-type:luminance" maskUnits="userSpaceOnUse" x="0" y="0" width="164" height="32">
<path d="M163.512 0H0V32H163.512V0Z" fill="white"/>
</mask>
<g mask="url(#mask5_118_1553)">
<path d="M117.721 19.1127V18.8325C117.721 14.6302 120.573 11.7041 124.976 11.7041C129.347 11.7041 132.23 14.6613 132.23 18.8325V19.1127C132.23 23.315 129.347 26.2722 124.976 26.2722C120.604 26.2722 117.721 23.315 117.721 19.1127ZM127.89 19.1127V18.8325C127.89 16.3111 126.991 14.9726 124.976 14.9726C122.929 14.9726 122.061 16.3111 122.061 18.8325V19.1127C122.061 21.6652 122.929 23.0037 124.976 23.0037C126.991 23.0037 127.89 21.6652 127.89 19.1127Z" fill="#082029"/>
</g>
<mask id="mask6_118_1553" style="mask-type:luminance" maskUnits="userSpaceOnUse" x="0" y="0" width="164" height="32">
<path d="M163.512 0H0V32H163.512V0Z" fill="white"/>
</mask>
<g mask="url(#mask6_118_1553)">
<path d="M133.5 19.1127V18.8325C133.5 14.6302 136.352 11.7041 140.755 11.7041C145.126 11.7041 148.01 14.6613 148.01 18.8325V19.1127C148.01 23.315 145.126 26.2722 140.755 26.2722C136.352 26.2722 133.5 23.315 133.5 19.1127ZM143.669 19.1127V18.8325C143.669 16.3111 142.77 14.9726 140.755 14.9726C138.709 14.9726 137.84 16.3111 137.84 18.8325V19.1127C137.84 21.6652 138.709 23.0037 140.755 23.0037C142.739 23.0037 143.669 21.6652 143.669 19.1127Z" fill="#082029"/>
</g>
<mask id="mask7_118_1553" style="mask-type:luminance" maskUnits="userSpaceOnUse" x="0" y="0" width="164" height="32">
<path d="M163.512 0H0V32H163.512V0Z" fill="white"/>
</mask>
<g mask="url(#mask7_118_1553)">
<path d="M149.127 19.1128V18.8326C149.127 14.7859 151.297 11.7042 155.018 11.7042C157.033 11.7042 158.397 12.638 159.203 13.8832V5.72754H163.513V25.8987H159.513L159.389 23.6575C158.831 24.9338 157.374 26.2412 155.173 26.2412C151.39 26.2723 149.127 23.2528 149.127 19.1128ZM159.358 19.1128V18.8326C159.358 16.2489 158.397 14.9104 156.413 14.9104C154.398 14.9104 153.467 16.2489 153.467 18.8326V19.1128C153.467 21.6653 154.398 23.0349 156.413 23.0349C158.366 23.0349 159.358 21.6653 159.358 19.1128Z" fill="#082029"/>
</g>
<mask id="mask8_118_1553" style="mask-type:luminance" maskUnits="userSpaceOnUse" x="0" y="0" width="164" height="32">
<path d="M163.512 0H0V32H163.512V0Z" fill="white"/>
</mask>
<g mask="url(#mask8_118_1553)">
<path d="M0 0V32H11.6883V29.1673H2.82131V3.42412C2.82131 3.11284 3.06934 2.86381 3.37938 2.86381H30.1353V29.1984H17.92V24.5914V23.5953V18.1479L21.2064 21.1673C21.6714 21.6031 22.2915 21.8521 22.9736 21.821C23.6246 21.7899 24.2137 21.5097 24.6787 21.0117L24.9268 20.7315L17.92 14.2879V11.4241L20.5553 13.8521C21.5474 14.786 23.1286 14.7237 24.0277 13.6965L24.3067 13.4163L16.5558 6.31907L15.7498 7.06615L8.96 13.3541L9.23903 13.6342C9.70408 14.1634 10.3552 14.4747 11.0682 14.4747C11.6883 14.4747 12.2464 14.2568 12.7114 13.821L15.0987 11.4553V14.0389V14.4125L8.37093 20.6381L8.61896 20.9183C9.08401 21.4475 9.73508 21.7588 10.4482 21.7588C11.0682 21.7588 11.6263 21.5409 12.0913 21.1362L15.0987 18.2412V23.5953V24.5914V32.0311H33.0187V0H0Z" fill="#E24650"/>
</g>
</g>
</g>
<defs>
<clipPath id="clip0_118_1553">
<rect width="279" height="32" fill="white"/>
</clipPath>
</defs>
</svg>
