<?xml version="1.0" encoding="UTF-8"?><svg xmlns="http://www.w3.org/2000/svg" viewBox="0 0 637.74 245.53"><g isolation="isolate"><g id="b"><g id="c"><path d="M67.19,63.68h-23.72l-13.72,69.85H9.87l13.72-69.85H0l3.59-18.41h67.19l-3.59,18.41Z" fill="#231f20" stroke-width="0"/><path d="M56.16,116.64c0-2.77.38-5.67,1.03-8.95l6.67-32.41h19.75l-5.77,29.38c-.38,2.14-.64,3.91-.64,5.55,0,6.43,3.85,8.57,8.08,8.57,6.41,0,11.67-4.67,13.72-15.38l5.51-28.12h19.49l-11.54,58.25h-18.85l1.8-9.46h-.26c-5.13,7.69-10.64,11.35-19.36,11.35-10.64,0-19.62-5.42-19.62-18.79ZM77.96,46.53h15.9l-3.46,17.02h-15.9l3.46-17.02ZM102.07,46.53h15.9l-3.46,17.02h-15.9l3.46-17.02Z" fill="#231f20" stroke-width="0"/><path d="M136.56,75.28h18.98l-2.44,11.72h.26c4.23-10.72,13.08-13.49,20.77-13.49,1.54,0,1.92.13,2.69.25l-3.85,20.05c-.64,0-1.41-.13-3.33-.13-11.8,0-18.34,4.67-21.03,18.41l-4.23,21.44h-19.36l11.54-58.25Z" fill="#231f20" stroke-width="0"/><path d="M215.8,103.27l20,30.26h-23.98l-15-26.61-5.26,26.61h-19.36l17.44-88.26h19.36l-10.39,52.83,21.67-22.82h25.52l-30.01,27.99Z" fill="#231f20" stroke-width="0"/><path d="M249.01,75.28h19.36l-11.54,58.25h-19.36l11.54-58.25ZM271.07,64.56h-20.77l3.85-19.16h20.77l-3.85,19.16Z" fill="#231f20" stroke-width="0"/><path d="M342.25,75.28l-53.73,83.47h-20.9l21.29-32.03-15.77-51.45h20.64l7.69,31.9,19.75-31.9h21.03Z" fill="#231f20" stroke-width="0"/><path d="M397.88,108.94h-42.44c.9,6.81,4.87,10.47,13.21,10.47,7.57,0,13.85-2.65,18.21-5.17l6.03,14.88c-7.44,3.78-15.77,6.3-25.52,6.3-18.46,0-30.77-10.59-30.77-27.99,0-16.14,10.51-33.92,35.13-33.92,16.8,0,27.95,8.45,27.95,23.45,0,3.53-.51,7.44-1.8,11.98ZM380.7,95.45c0-5.3-3.85-8.45-9.87-8.45-6.92,0-12.05,4.16-14.36,10.72h24.11c.13-.76.13-1.39.13-2.27Z" fill="#231f20" stroke-width="0"/><path d="M105.77,173.78l-3.59,17.91h32.31l-3.46,17.78h-32.44l-6.8,34.17h-19.87l17.44-88.26h57.32l-3.46,18.41h-37.44Z" fill="#231f20" stroke-width="0"/><path d="M150.39,185.38h19.36l-11.54,58.25h-19.36l11.54-58.25ZM172.44,174.67h-20.77l3.85-19.16h20.77l-3.85,19.16Z" fill="#231f20" stroke-width="0"/><path d="M182.06,185.38h18.98l-1.8,8.83h.26c5.26-6.81,11.67-10.72,20.39-10.72,11.41,0,18.85,6.18,18.85,18.91,0,2.4-.26,6.81-1.15,11.35l-6.15,29.88h-19.23l5.51-28.5c.51-2.27.9-4.54.9-6.68,0-6.43-3.46-9.08-9.36-9.08-6.41,0-11.41,3.4-13.59,15l-5.77,29.25h-19.36l11.54-58.25Z" fill="#231f20" stroke-width="0"/><path d="M241.55,218.17c0-20.43,12.95-34.68,31.42-34.68,9.75,0,17.18,4.29,20.77,11.98h.38l1.92-10.09h19.23l-11.54,58.25h-19.23l1.54-7.82h-.26c-4.74,6.18-11.8,9.71-19.23,9.71-15.39,0-25-10.46-25-27.36ZM290.03,213.25c0-7.44-5.39-12.36-13.34-12.36-8.46,0-14.75,6.3-14.75,15,0,7.31,5.26,12.23,13.21,12.23,8.59,0,14.87-6.3,14.87-14.88Z" fill="#231f20" stroke-width="0"/><path d="M324.9,185.38h18.98l-1.8,8.83h.26c5.26-6.81,11.67-10.72,20.39-10.72,11.41,0,18.85,6.18,18.85,18.91,0,2.4-.26,6.81-1.15,11.35l-6.15,29.88h-19.23l5.51-28.5c.51-2.27.9-4.54.9-6.68,0-6.43-3.46-9.08-9.36-9.08-6.41,0-11.41,3.4-13.59,15l-5.77,29.25h-19.36l11.54-58.25Z" fill="#231f20" stroke-width="0"/><path d="M409.53,230.02c2.82,0,3.97-1.01,3.97-2.52s-.9-2.15-3.46-3.66l-8.21-4.54c-7.44-4.03-11.41-9.08-11.41-17.02,0-11.35,8.08-18.79,22.7-18.79,8.72,0,17.18,2.27,25.77,6.3l-7.05,14.12c-6.28-3.28-12.95-5.17-17.7-5.17-3.08,0-4.23.75-4.23,2.27s1.15,2.27,4.1,3.91l7.82,4.29c7.31,3.78,11.54,7.95,11.54,16.65,0,12.99-9.23,19.67-24.23,19.67-11.16,0-19.88-3.15-28.72-9.46l9.36-13.87c7.44,4.79,14.36,7.82,19.75,7.82Z" fill="#231f20" stroke-width="0"/><g mix-blend-mode="multiply"><path d="M498.11,157.61c-.29.21-.57.44-.85.67-.27.23-.54.48-.8.73s-.51.52-.75.79c-.24.27-.47.56-.7.85-1.92,2.5-3.05,5.54-3.47,8.88-.41,3.28-.15,6.87.74,10.56.88,3.65,2.36,7.43,4.4,11.13,2.04,3.69,4.64,7.35,7.79,10.79l23.34,25.44,17.6-13.24c2.68-2.02,4.54-4.78,5.57-8.08,1.06-3.36,1.25-7.25.61-11.41-.65-4.21-2.17-8.68-4.5-13.11-2.35-4.45-5.49-8.82-9.38-12.82-.44-.47-.9-.92-1.35-1.36-.46-.44-.92-.87-1.39-1.29-.46-.42-.93-.83-1.4-1.22-.47-.4-.94-.79-1.42-1.16l-14.15,14.87-19.9-21.03" fill="#00c4b3" stroke-width="0"/><path d="M482.1,0l-15.25,37.67c-1.87,4.62-2.85,9.65-3.05,14.78-.2,5.03.35,10.19,1.55,15.22,1.19,4.97,3.03,9.84,5.46,14.36,2.42,4.51,5.44,8.72,9.03,12.36.42.43.83.84,1.26,1.24.42.4.85.79,1.28,1.17.43.38.86.74,1.3,1.1.44.35.88.7,1.32,1.03l12.5-22.34,23.37,23.02c.39-.35.77-.71,1.14-1.09.37-.38.74-.77,1.1-1.19.36-.41.71-.84,1.06-1.28.35-.45.68-.91,1.01-1.39,2.89-4.16,4.83-9.1,5.83-14.48,1.03-5.51,1.07-11.46.14-17.44-.94-6.08-2.87-12.16-5.73-17.8-2.87-5.67-6.64-10.85-11.23-15.11L482.1,0" fill="#00c4b3" stroke-width="0"/><path d="M453.6,93.29c-1.49.04-2.91.28-4.24.71-1.31.43-2.54,1.04-3.66,1.85-1.11.8-2.11,1.78-2.98,2.94-.87,1.14-1.61,2.47-2.22,3.96l-8.29,20.48,20.42,22.27c1.48,1.61,3,3.06,4.53,4.34,1.54,1.29,3.11,2.41,4.68,3.36,1.58.96,3.16,1.75,4.73,2.36,1.58.62,3.14,1.06,4.67,1.32,1.46.24,2.89.32,4.26.23,1.39-.1,2.72-.37,3.98-.83,1.27-.47,2.47-1.12,3.56-1.97,1.11-.86,2.11-1.92,2.99-3.19.21-.3.42-.62.61-.94.19-.32.38-.66.55-.99.18-.34.34-.69.5-1.04.15-.35.3-.72.44-1.09l-18.87-19.94,10.01-17.9c-.35-.46-.7-.92-1.06-1.37-.36-.45-.73-.9-1.1-1.34-.37-.44-.75-.88-1.14-1.31-.39-.43-.78-.85-1.18-1.26-1.78-1.83-3.59-3.42-5.43-4.79-1.82-1.36-3.66-2.47-5.47-3.36-1.8-.88-3.58-1.52-5.31-1.94-1.71-.41-3.38-.59-4.96-.55" fill="#00c4b3" stroke-width="0"/><path d="M562.95,93.63c-2.7.05-5.33.36-7.85.94-2.49.56-4.86,1.38-7.1,2.45-2.2,1.05-4.26,2.34-6.15,3.86-1.86,1.5-3.55,3.22-5.04,5.17-.35.46-.69.93-1.01,1.4-.32.47-.63.95-.92,1.44-.29.48-.57.98-.83,1.47-.27.5-.51,1-.75,1.51l24.89,24.51-17.86,18.78c.38.51.77,1.02,1.18,1.52.4.5.82,1,1.24,1.5.43.49.86.98,1.31,1.47.45.49.9.97,1.37,1.44,2.08,2.11,4.27,4.03,6.55,5.74,2.29,1.72,4.67,3.24,7.12,4.56,2.47,1.32,4.99,2.44,7.55,3.34,2.59.91,5.21,1.6,7.83,2.06,2.51.44,5.03.66,7.51.67,2.51,0,5-.22,7.42-.68,2.45-.47,4.84-1.19,7.11-2.17,2.31-.99,4.52-2.26,6.57-3.8l34.66-26.09-39.3-36.56c-2.69-2.5-5.55-4.69-8.5-6.56-2.94-1.85-5.96-3.38-9.02-4.59-3.03-1.19-6.09-2.07-9.12-2.64-3-.56-5.96-.8-8.85-.75" fill="#00c4b3" stroke-width="0"/></g></g></g></g></svg>