<svg width="99" height="33" viewBox="0 0 99 33" fill="none" xmlns="http://www.w3.org/2000/svg">
<path fill-rule="evenodd" clip-rule="evenodd" d="M18.125 19.8774L24.4647 12.8018L29.8333 25.3759H20.5103L18.125 19.8774Z" fill="#0B2029"/>
<path fill-rule="evenodd" clip-rule="evenodd" d="M28.1942 0H32.1486L3.95437 32.5295H0L28.1942 0Z" fill="#0B2029"/>
<path fill-rule="evenodd" clip-rule="evenodd" d="M33.6396 0H37.6643L9.54744 32.5295H5.44531L33.6396 0Z" fill="#0B2029"/>
<path fill-rule="evenodd" clip-rule="evenodd" d="M44.0753 8.65946H49.9717L51.5337 2.93359H36.5465L31.5508 8.65946H36.9194L32.2966 25.3753H39.5299L44.0753 8.65946Z" fill="#0B2029"/>
<path fill-rule="evenodd" clip-rule="evenodd" d="M57.803 17.6184L60.1179 17.4692C63.2491 17.6966 62.5806 19.8775 62.3554 21.0852L61.2367 25.376H68.9906C68.097 24.5449 68.9132 22.2858 69.3636 21.0071C70.4049 17.9168 70.1094 15.7358 67.4989 14.9828L67.5763 14.6844C71.01 13.2565 72.5017 10.9974 72.7972 8.66021C73.5431 3.389 70.1868 2.93434 64.8885 2.78516H53.0324L46.9883 25.376H54.0738L58.6262 8.20555H62.5032C64.5156 8.20555 65.4092 8.80939 65.2614 10.1663C64.8885 11.6723 64.2904 12.3472 61.6096 12.3472H59.3721L57.803 17.6184Z" fill="#0B2029"/>
<path fill-rule="evenodd" clip-rule="evenodd" d="M21.1094 26.7324H99.0006L98.6277 27.862H21.6301L21.1094 26.7324Z" fill="#0B2029"/>
<path fill-rule="evenodd" clip-rule="evenodd" d="M75.7731 25.376L83.907 12.3472L84.878 17.6184H82.1127L79.2841 22.3639H85.6238L85.9967 25.376H93.6029L89.7259 2.78516H82.1127L68.6172 25.376H75.7731Z" fill="#0B2029"/>
<path fill-rule="evenodd" clip-rule="evenodd" d="M10.8926 2.78516H20.2156L22.8261 9.03672L16.6342 16.3397L10.8926 2.78516Z" fill="#0B2029"/>
<path fill-rule="evenodd" clip-rule="evenodd" d="M96.8126 22.1367C95.7712 22.1367 95.0254 22.9679 95.0254 23.9411C95.0254 24.9144 95.7712 25.7456 96.8126 25.7456C97.7836 25.7456 98.5998 24.9144 98.5998 23.9411C98.5998 22.9679 97.7766 22.1367 96.8126 22.1367ZM96.7352 22.4422H96.8126C97.6358 22.4422 98.2269 23.1171 98.2269 23.9483C98.2269 24.7794 97.6288 25.4543 96.8126 25.4543C95.9964 25.4543 95.3983 24.7794 95.3983 23.9483C95.3983 23.1171 95.9964 22.5203 96.7422 22.4422H96.7352ZM96.1371 22.8897V24.9997H96.4326V24.0974H96.8056L97.3262 24.9997H97.6992L97.1011 24.0974C97.3966 24.0193 97.6218 23.7991 97.6218 23.4936C97.6218 23.1171 97.3966 22.8897 96.8759 22.8897H96.1301H96.1371ZM96.4397 23.7991V23.1952H96.89C97.1855 23.1952 97.2629 23.2734 97.2629 23.4936C97.2629 23.7138 97.1855 23.792 96.9674 23.792H96.4467L96.4397 23.7991Z" fill="#0B2029"/>
</svg>
