<svg id="a" xmlns="http://www.w3.org/2000/svg" viewBox="0 0 716.3 152.49"><path d="M0,0c87.8,11.87,246.31,13.24,349.32,13.24s261.52-1.36,349.32-13.24c-9.97,20.43-16.89,46.87-16.89,76.24s6.92,55.82,16.89,76.25c-87.8-11.87-246.31-13.24-349.32-13.24s-261.52,1.37-349.32,13.24c9.97-20.42,16.89-46.87,16.89-76.25S9.97,20.43,0,0M676.53,76.24c0-24.26,4.77-48.71,13.53-69.89-67.29,8.14-178.98,12.1-340.74,12.1S75.87,14.49,8.57,6.35c8.76,21.18,13.53,45.63,13.53,69.89s-4.76,48.72-13.53,69.9c67.31-8.14,179-12.11,340.74-12.11s273.43,3.96,340.74,12.11c-8.76-21.18-13.53-45.64-13.53-69.9" fill="#f9f9ff" stroke-width="0"/><path d="M336.93,74.08h-10.1l5.97-10.34h-11.94l5.04-8.74-3.96-2.29-5.05,8.74-5.97-10.35-5.97,10.35-5.05-8.75-3.96,2.29,5.05,8.74h-11.94l5.97,10.34h-10.09v4.58h10.09l-5.97,10.33h11.94s-5.05,8.74-5.05,8.74l3.96,2.3,5.05-8.74,5.97,10.34,5.97-10.35,5.05,8.75,3.96-2.3-5.04-8.74h11.94s-5.97-10.33-5.97-10.33h10.1v-4.58ZM303.65,84.39h-6.61l3.31-5.73h6.62l-3.31,5.73ZM300.35,74.08l-3.31-5.73h6.61s3.31,5.73,3.31,5.73h-6.62ZM310.93,92.4l-3.31-5.73,3.31-5.73,3.31,5.73-3.31,5.73ZM310.93,71.79l-3.31-5.73,3.31-5.73,3.31,5.73-3.31,5.73ZM318.2,84.39l-3.31-5.73h6.62l3.31,5.73h-6.62ZM321.51,74.08h-6.62l3.31-5.73h6.62l-3.31,5.73Z" fill="#0080c5" stroke-width="0"/><path d="M101.99,69.48h-30.65c-2.99,0-5.44-2.45-5.44-5.44v-1.84c0-3.01,2.44-5.45,5.44-5.45h45.19v-14.08h-45.19c-10.76,0-19.51,8.75-19.51,19.52v1.84c0,10.76,8.75,19.51,19.51,19.51h30.65c3,0,5.45,2.44,5.45,5.44v1.84c0,3-2.45,5.45-5.45,5.46h-47.07v14.07h47.07c5.22,0,10.12-2.04,13.81-5.72,3.69-3.67,5.71-8.57,5.71-13.8v-1.84c0-5.22-2.02-10.12-5.71-13.81-3.69-3.68-8.6-5.71-13.81-5.71" fill="#f9f9ff" stroke-width="0"/><path d="M184.35,90.84c0,3.01-2.49,5.45-5.56,5.45h-28.22c-2.99,0-5.43-2.45-5.43-5.45v-48.16h-14.08v48.16c0,10.76,8.75,19.52,19.51,19.52h28.22c5.27,0,10.21-2.03,13.9-5.71,3.69-3.67,5.73-8.57,5.73-13.81v-48.16h-14.07v48.16Z" fill="#f9f9ff" stroke-width="0"/><path d="M259.08,42.68h-47.73v67.68h47.73c5.27,0,10.2-2.03,13.88-5.71,3.7-3.67,5.73-8.57,5.73-13.81v-2.7c0-4.65-1.58-9.05-4.48-12.5,2.9-3.54,4.48-7.95,4.48-12.56v-.87c0-5.23-2.03-10.13-5.73-13.81-3.69-3.68-8.62-5.71-13.88-5.71M225.42,82.7h33.66c3.06,0,5.55,2.44,5.55,5.44v2.7c0,3.01-2.49,5.46-5.55,5.46h-33.66v-13.6ZM259.08,68.51h-33.66v-11.74h33.66c3.06,0,5.55,2.44,5.55,5.44v.87c0,3.04-2.44,5.43-5.55,5.44" fill="#f9f9ff" stroke-width="0"/><path d="M419.79,48.4c-3.69,3.68-5.72,8.57-5.72,13.8v28.64c0,5.23,2.03,10.13,5.72,13.8,3.67,3.69,8.58,5.72,13.8,5.72h47.84v-14.07h-47.84c-3.01,0-5.45-2.45-5.45-5.45v-7.29h45.25v-14.07h-45.25v-7.28c0-3,2.44-5.44,5.45-5.44h47.84v-14.08h-47.84c-5.22,0-10.13,2.03-13.8,5.72" fill="#f9f9ff" stroke-width="0"/><path d="M563.58,71.1v-8.9c0-5.22-2.03-10.12-5.73-13.81-3.69-3.68-8.63-5.71-13.9-5.71h-47.73v67.68h14.08v-19.64h18.17l19.67,19.64h20.19l-20.17-20.08c8.93-1.92,15.41-9.77,15.42-19.18M510.3,56.76h33.65c3.11,0,5.55,2.39,5.55,5.44v8.9c0,2.99-2.49,5.43-5.55,5.44h-33.65v-19.78Z" fill="#f9f9ff" stroke-width="0"/><path d="M639.49,48.4c-3.69-3.69-8.62-5.71-13.89-5.71h-28.21c-5.23,0-10.13,2.03-13.81,5.72-3.69,3.68-5.71,8.57-5.71,13.8v28.64c0,5.22,2.03,10.12,5.71,13.79,3.67,3.69,8.57,5.72,13.81,5.72h28.21c5.27,0,10.21-2.03,13.89-5.71,3.7-3.67,5.73-8.57,5.73-13.81v-28.64c0-5.24-2.03-10.14-5.73-13.81M591.95,62.2c0-3,2.44-5.45,5.44-5.45h28.21c3.06,0,5.55,2.44,5.55,5.45v28.64c0,3-2.49,5.45-5.55,5.45h-28.21c-2.99,0-5.43-2.46-5.44-5.45v-28.64Z" fill="#f9f9ff" stroke-width="0"/><path d="M357.44,96.29c-.74,0-1.33-.59-1.33-1.33,0-.44.22-.84.56-1.09l40.09-24.85c4.78-3.19,7.43-7.92,7.42-12.83,0-3.57-1.5-7.03-4.11-9.47-2.77-2.61-6.68-4.04-11-4.04h-50.65v14.08h46.5c.74,0,1.33.59,1.33,1.33,0,.44-.23.85-.56,1.09l-41.38,25.68c-4.46,2.8-6.93,7.17-6.92,11.84,0,3.57,1.55,7.06,4.28,9.56,2.91,2.66,7.02,4.12,11.58,4.12h49.85v-14.07h-45.65Z" fill="#f9f9ff" stroke-width="0"/><path d="M703.67,6.73c0-3.47,2.85-6.32,6.36-6.32s6.28,2.85,6.28,6.32-2.79,6.36-6.28,6.36-6.36-2.85-6.36-6.36M715.31,6.73c0-3.08-2.2-5.49-5.28-5.49s-5.35,2.41-5.35,5.49,2.26,5.52,5.35,5.52,5.28-2.41,5.28-5.52M713.19,10.27h-1.04l-2.02-3.26h-1.6v3.26h-.87V3.2h3.09c1.87,0,2.51.71,2.51,1.87,0,1.39-.97,1.91-2.22,1.94l2.14,3.26ZM709.86,6.32c1,0,2.48.17,2.48-1.27,0-1.1-.91-1.24-1.78-1.24h-2.03v2.51s1.33,0,1.33,0Z" fill="#f9f9ff" stroke-width="0"/></svg>