<svg width="166" height="28" viewBox="0 0 166 28" fill="none" xmlns="http://www.w3.org/2000/svg">
<g clip-path="url(#clip0_115_618)">
<path d="M2.85422 3.02307C7.59503 3.47724 11.3536 7.33366 11.4814 12.1226C11.6038 16.796 8.12208 20.8889 3.58092 21.7327H3.52768C8.81949 21.5984 13.0013 17.2743 12.8655 12.0823C12.7298 6.89293 8.19395 2.87258 2.89948 3.01232L2.85156 3.0177L2.85422 3.02307Z" fill="#0B2029"/>
<path d="M0.000708752 5.66232C3.55698 6.00094 6.3759 8.89526 6.46907 12.4883C6.55957 15.9954 3.95093 19.0617 0.543732 19.6959H0.503804C4.47532 19.5938 7.61102 16.3555 7.5072 12.4614C7.40605 8.5674 4.00417 5.55214 0.0326513 5.65695L-0.00195312 5.66232H0.000708752Z" fill="#0B2029"/>
<path d="M29.8202 24.9767L29.751 24.9713C23.6527 24.1167 18.7761 18.8763 18.6643 12.6415C18.5498 6.25357 23.3306 0.892216 29.6206 0.0026874H29.5594C24.2383 0.0967463 19.6306 3.31625 17.7353 7.85795C15.8374 3.31625 11.2323 0.0967463 5.91125 0H5.85003C12.14 0.892216 16.9208 6.25357 16.8063 12.6415C16.6945 18.879 11.818 24.1194 5.7196 24.9713L5.65039 24.9767C11.1019 25.0761 15.8134 21.8109 17.7353 17.1322C19.6572 21.8109 24.3687 25.0761 29.8202 24.9767Z" fill="#0B2029"/>
<path d="M32.166 2.98804C27.4518 3.65451 23.8636 7.67486 23.9488 12.4665C24.0313 17.1426 27.6914 21.0715 32.2645 21.7138H32.3151C27.0206 21.8133 22.6551 17.6854 22.5619 12.4907C22.4714 7.29862 26.8236 3.07941 32.1207 2.98535H32.166V2.98804Z" fill="#0B2029"/>
<path d="M35.0205 5.70264C31.4829 6.2025 28.7917 9.21776 28.8583 12.8108C28.9195 16.3179 31.6639 19.2633 35.0951 19.747H35.1323C31.1608 19.8222 27.8867 16.7237 27.8175 12.8296C27.7483 8.93558 31.0171 5.77251 34.9859 5.69727H35.0205V5.70264Z" fill="#0B2029"/>
<path d="M51.9067 21.3381L46.3859 13.585H46.2555V21.3381H43.3887V3.42121C44.677 3.34328 46.149 3.31641 48.1454 3.31641C51.8268 3.31641 54.3503 4.61442 54.3503 8.17253C54.3503 11.04 52.2208 12.8728 49.33 13.1899C49.8304 13.8241 50.3814 14.5175 50.8286 15.1006L55.5082 21.3381H51.9067ZM47.7541 5.67594C47.2005 5.67594 46.6734 5.70282 46.2555 5.72969V11.4108C46.519 11.4377 47.0168 11.4646 47.6477 11.4646C49.9608 11.4646 51.353 10.2714 51.353 8.49233C51.353 6.52785 50.1445 5.67863 47.7515 5.67863" fill="#0B2029"/>
<path d="M66.5467 14.9155H58.2124C58.1325 17.9684 59.4741 19.347 62.0774 19.347C63.419 19.347 64.8112 19.0299 65.8892 18.4978L66.1527 20.7552C64.8404 21.3115 63.2353 21.6044 61.6329 21.6044C57.5575 21.6044 55.3242 19.4814 55.3242 14.8349C55.3242 10.8521 57.483 7.87988 61.2921 7.87988C65.1013 7.87988 66.6292 10.4571 66.6292 13.5852C66.6292 13.9588 66.5999 14.4076 66.5494 14.9155M61.183 9.97605C59.6072 9.97605 58.5025 11.1451 58.2656 12.9241H63.8129C63.8662 11.1182 62.8414 9.97605 61.1857 9.97605" fill="#0B2029"/>
<path d="M71.4634 21.3382H68.6498V4.16569C68.0163 4.05819 67.1246 3.9507 66.3633 3.89695V2.14745C67.8353 1.9889 69.7519 1.8814 71.4634 1.96202V21.3382Z" fill="#0B2029"/>
<path d="M81.2192 21.3381C81.2192 20.4889 81.2458 19.6128 81.3496 18.8953L81.323 18.8711C80.6948 20.4379 79.0631 21.6042 76.9868 21.6042C74.7535 21.6042 73.332 20.3304 73.332 18.2315C73.332 15.2028 76.3293 13.4533 81.0355 13.4533V12.6041C81.0355 10.9594 80.3514 10.1102 78.3018 10.1102C77.0933 10.1102 75.5148 10.481 74.4101 11.1717L74.1466 8.75573C75.4349 8.2505 77.0666 7.87695 78.749 7.87695C82.7444 7.87695 83.8491 9.63182 83.8491 12.338V19.1318C84.4826 19.2393 85.377 19.3441 86.1357 19.4005V21.1473C84.6663 21.3086 82.7444 21.4134 81.2218 21.3328M81.0355 15.3667C76.9336 15.3667 76.0365 16.6137 76.0365 17.7531C76.0365 18.7367 76.7206 19.3736 77.8253 19.3736C79.7445 19.3736 81.0328 17.5166 81.0328 15.6328V15.3667H81.0355Z" fill="#0B2029"/>
<path d="M92.3343 22.6088C90.8117 26.7232 89.5207 27.9971 86.5766 27.9971C86.0496 27.9971 85.3415 27.9165 84.8145 27.8116L85.0247 25.3151C85.6024 25.53 86.1294 25.608 86.7337 25.608C88.0513 25.608 88.786 24.9979 89.6005 22.7405L90.1276 21.335L85.2377 8.14258H88.392L90.5215 14.1677C90.9448 15.3341 91.2562 16.5058 91.5437 17.6183H91.573C91.8365 16.5568 92.3875 14.8315 92.8586 13.5039L94.7273 8.14258H97.7538L92.3343 22.6088Z" fill="#0B2029"/>
<path d="M109.898 21.3378V13.2944H101.511V21.3378H98.6465V3.4209H101.511V10.8247H109.898V3.4209H112.741V21.3378H109.898Z" fill="#0B2029"/>
<path d="M125.726 14.9155H117.395C117.315 17.9684 118.656 19.347 121.257 19.347C122.599 19.347 123.993 19.0299 125.072 18.4978L125.335 20.7552C124.023 21.3115 122.415 21.6044 120.813 21.6044C116.737 21.6044 114.504 19.4814 114.504 14.8349C114.504 10.8521 116.66 7.87988 120.472 7.87988C124.284 7.87988 125.812 10.4571 125.812 13.5852C125.812 13.9588 125.785 14.4076 125.732 14.9155M120.365 9.97605C118.787 9.97605 117.685 11.1451 117.445 12.9241H122.993C123.046 11.1182 122.021 9.97605 120.365 9.97605Z" fill="#0B2029"/>
<path d="M134.641 21.3381C134.641 20.4889 134.668 19.6128 134.771 18.8953L134.745 18.8711C134.117 20.4379 132.485 21.6042 130.409 21.6042C128.175 21.6042 126.754 20.3304 126.754 18.2315C126.754 15.2028 129.751 13.4533 134.457 13.4533V12.6041C134.457 10.9594 133.776 10.1102 131.724 10.1102C130.512 10.1102 128.937 10.481 127.829 11.1717L127.566 8.75573C128.854 8.2505 130.483 7.87695 132.168 7.87695C136.166 7.87695 137.271 9.63182 137.271 12.338V19.1318C137.897 19.2393 138.794 19.3441 139.558 19.4005V21.1473C138.083 21.3086 136.166 21.4134 134.641 21.3328M134.455 15.3667C130.355 15.3667 129.458 16.6137 129.458 17.7531C129.458 18.7367 130.142 19.3736 131.247 19.3736C133.166 19.3736 134.455 17.5166 134.455 15.6328V15.3667Z" fill="#0B2029"/>
<path d="M143.573 21.3382H140.759V4.16569C140.128 4.05819 139.237 3.9507 138.473 3.89695V2.14745C139.945 1.9889 141.864 1.8814 143.573 1.96202V21.3382Z" fill="#0B2029"/>
<path d="M150.539 21.5744C147.752 21.5744 146.911 20.4887 146.911 17.5406V10.3492H144.414V8.14551H146.911V3.95317L149.698 3.18457V8.14819H153.142V10.3519H149.724V16.6672C149.724 18.6344 150.118 19.1612 151.433 19.1612C152.011 19.1612 152.645 19.0832 153.142 18.9515V21.2869C152.378 21.4481 151.409 21.5798 150.539 21.5798" fill="#0B2029"/>
<path d="M152.723 3.89695V2.14745C154.195 1.9889 156.114 1.8814 157.823 1.96202V7.93611C157.823 8.75845 157.77 9.87103 157.589 10.5886L157.642 10.6154C158.403 8.97076 159.955 7.87967 162.084 7.87967C165.055 7.87967 166.003 9.76622 166.003 12.1016V21.3382H163.189V12.8433C163.189 11.1986 162.739 10.2419 161.243 10.2419C159.271 10.2419 157.825 12.3381 157.825 14.9932V21.3355H155.015V4.16569C154.381 4.05819 153.487 3.9507 152.728 3.89695" fill="#0B2029"/>
</g>
<defs>
<clipPath id="clip0_115_618">
<rect width="166" height="28" fill="white"/>
</clipPath>
</defs>
</svg>
