<svg width="190" height="38" viewBox="0 0 190 38" fill="none" xmlns="http://www.w3.org/2000/svg">
<g clip-path="url(#clip0_115_602)">
<path fill-rule="evenodd" clip-rule="evenodd" d="M37.4866 27.5139C36.0833 29.3118 33.9782 31.1099 31.0836 33.0877C21.6983 39.5617 9.59364 39.5617 4.59368 33.0877C2.57609 30.3903 1.87431 27.1535 2.40086 23.7367C3.27787 18.1632 7.48828 12.5885 14.2423 8.00326C16.3473 6.5649 18.0139 6.5649 18.9787 6.83476C20.2067 7.19398 20.9088 8.00326 21.1721 8.54357C21.6106 9.44162 22.7506 11.6893 18.4524 15.1959C9.76915 22.0291 6.78621 28.2332 9.94438 32.6374C13.19 37.1338 23.8034 36.953 30.9081 32.1879C33.1009 30.6602 35.0308 29.4017 36.8728 27.1532C37.0478 26.8845 37.3113 26.8845 37.3988 26.9739C37.5746 27.1535 37.6624 27.4233 37.4866 27.5139Z" fill="#0B2029"/>
<path fill-rule="evenodd" clip-rule="evenodd" d="M0.382374 10.7008C1.78565 8.90261 3.89071 7.10414 6.69785 5.12606C16.1712 -1.3473 28.2759 -1.3473 33.2753 5.21601C35.2928 7.82376 35.9949 11.0603 35.4687 14.567C34.5916 20.0506 30.3812 25.6253 23.6273 30.2105C21.5222 31.6486 19.8556 31.6486 18.8906 31.3796C17.6631 31.11 16.961 30.2105 16.6978 29.7613C16.1718 28.7722 15.119 26.5245 19.4174 23.1078C28.1007 16.1847 31.083 9.98175 27.9254 5.66608C24.6798 1.08054 14.0664 1.3504 6.9617 6.11554C4.7683 7.5539 2.83847 8.9029 0.996688 11.06C0.73341 11.3299 0.558181 11.3299 0.382374 11.2405C0.294904 11.06 0.207145 10.8804 0.382374 10.7008Z" fill="#0B2029"/>
<path fill-rule="evenodd" clip-rule="evenodd" d="M55.3785 16.9943L51.1684 8.18359H57.3084L59.0627 13.1283L62.6588 8.18359H69.4133L61.7824 16.9943L66.1677 26.9743H59.8522L57.8346 21.6694L53.6245 26.9743H46.6953L55.3785 16.9943Z" fill="#0B2029"/>
<path fill-rule="evenodd" clip-rule="evenodd" d="M75.7292 18.5218C75.8167 17.8033 75.6415 17.4432 75.3782 17.1743C75.1149 16.9044 74.6764 16.7236 74.1501 16.7236C71.8698 16.7236 71.3433 19.6906 71.3433 21.0402C71.3433 22.2983 71.6066 23.5568 73.0976 23.5568C74.4137 23.5568 75.0274 22.2986 75.2907 21.4887H80.2029C79.3253 25.4449 76.8692 27.3336 73.0098 27.3336C67.3964 27.3336 66.2559 23.647 66.2559 21.0405C66.2559 16.454 69.1505 12.9482 74.2379 12.9482C77.922 12.9482 80.7292 14.6559 80.6408 18.5221H75.7292V18.5218Z" fill="#0B2029"/>
<path fill-rule="evenodd" clip-rule="evenodd" d="M86.6055 18.6123C87.0443 17.1743 87.9213 16.3647 89.2368 16.3647C90.5526 16.3647 91.1663 17.1746 91.1663 18.1629C91.1663 18.2522 91.1663 18.4327 91.1663 18.6126L86.6055 18.6123ZM90.2896 23.0171C90.0263 23.4677 89.3243 24.0065 88.272 24.0065C86.6929 24.0065 86.1669 22.7484 86.1669 21.3091H95.6397C95.9033 20.5004 95.9033 19.6909 95.9033 18.9724C95.9033 14.6559 92.3947 12.9482 89.412 12.9482C86.0792 12.9482 81.4297 15.0163 81.4297 21.3094C81.4297 24.6368 83.3598 27.3339 88.0962 27.3339C93.7979 27.3339 94.7627 23.9175 95.1135 23.0174L90.2896 23.0171Z" fill="#0B2029"/>
<path fill-rule="evenodd" clip-rule="evenodd" d="M100.028 8.18359H105.115L101.343 26.9743H96.2559L100.028 8.18359Z" fill="#0B2029"/>
<path fill-rule="evenodd" clip-rule="evenodd" d="M111.518 8.18359H124.149L123.71 10.3419H113.535L112.308 16.2752H121.781L121.342 18.3427H111.868L110.553 24.8166H120.816L120.377 26.9743H107.658L111.518 8.18359Z" fill="#0B2029"/>
<path fill-rule="evenodd" clip-rule="evenodd" d="M125.289 13.3983H127.395L126.956 15.4663H127.043C128.096 13.9383 129.937 13.0391 131.692 13.0391C134.235 13.0391 135.464 14.2082 135.464 16.5449C135.464 17.1751 135.288 18.1634 135.025 19.2432L133.446 26.9744H131.253L132.92 19.0627C133.007 18.5229 133.271 17.3538 133.271 16.9053C133.271 15.6459 132.218 15.0168 130.903 15.0168C129.762 15.0168 128.447 15.7362 127.656 16.6354C126.868 17.2645 126.516 18.343 126.166 19.4219L124.675 26.9744H122.482L125.289 13.3983Z" fill="#0B2029"/>
<path fill-rule="evenodd" clip-rule="evenodd" d="M138.884 18.8827C139.586 16.7245 140.902 15.0168 143.533 15.0168C145.901 15.0168 146.778 16.9946 146.603 18.8827H138.884ZM148.532 20.8605C148.621 20.5013 148.796 19.782 148.796 19.0624C148.796 15.2855 147.042 13.0391 143.182 13.0391C139.498 13.0391 136.34 16.6351 136.34 21.8497C136.34 24.1867 137.568 27.2439 141.954 27.2439C144.849 27.2439 147.217 25.7162 147.919 22.749H145.814C145.199 24.3672 143.883 25.2662 141.954 25.2662C140.2 25.2662 138.533 24.0971 138.533 22.0293C138.533 21.6692 138.533 21.2195 138.621 20.8602L148.532 20.8605Z" fill="#0B2029"/>
<path fill-rule="evenodd" clip-rule="evenodd" d="M151.953 13.3983H154.058L153.356 16.275H153.444C154.497 14.3866 155.988 13.0391 158.269 13.0391C158.532 13.0391 158.795 13.0391 159.058 13.0391L158.532 15.4663C158.269 15.4663 158.093 15.4663 157.83 15.4663C157.304 15.4663 157.041 15.4663 156.602 15.5557C155.374 15.9158 154.41 16.7248 153.708 17.8042C153.181 18.6132 152.831 19.9616 152.656 20.9499L151.427 26.9744H149.234L151.953 13.3983Z" fill="#0B2029"/>
<path fill-rule="evenodd" clip-rule="evenodd" d="M171.865 32.458L174.935 26.9736L172.567 13.3975H174.935L176.426 24.1859H176.514L182.04 13.3975H184.496L173.97 32.458H171.865Z" fill="#0B2029"/>
<path fill-rule="evenodd" clip-rule="evenodd" d="M160.024 21.4C160.024 18.9727 161.691 15.0165 164.761 15.0165C167.042 15.0165 168.182 16.4543 168.182 18.6129C168.182 21.3097 166.603 25.0857 163.358 25.0857C161.164 25.0854 160.024 23.3777 160.024 21.4ZM169.146 24.9963L171.516 13.3983H169.41L169.06 15.9158H168.971V15.8255C168.621 14.1167 166.69 13.0391 164.761 13.0391C160.464 13.0391 157.919 17.4441 157.919 21.4003C157.919 24.6371 159.585 27.0643 162.832 27.0643C164.498 27.0643 166.077 26.4353 166.954 24.9963H167.042C165.814 29.941 162.305 31.1098 158.621 31.1098C158.446 31.6484 158.008 32.368 157.744 33.0876C162.129 33.0876 167.48 32.099 169.146 24.9963Z" fill="#0B2029"/>
<path fill-rule="evenodd" clip-rule="evenodd" d="M185.462 15.0161C185.374 15.2851 185.549 15.4656 185.812 15.4656C186.076 15.4656 186.426 15.3754 186.426 15.0161C186.514 14.8365 186.339 14.7463 186.163 14.656C185.812 14.656 185.199 14.5667 185.374 14.0269C185.462 13.4872 185.9 13.3076 186.339 13.3076C186.69 13.3076 187.041 13.4872 186.953 13.9379H186.601C186.69 13.668 186.514 13.5778 186.251 13.5778C186.076 13.5778 185.725 13.668 185.725 13.9379C185.637 14.2077 185.812 14.2077 185.988 14.2971C186.339 14.4767 186.953 14.4767 186.777 15.0164C186.69 15.5553 186.163 15.7358 185.725 15.7358C185.287 15.7358 185.023 15.4659 185.11 15.0164L185.462 15.0161Z" fill="#0B2029"/>
<path fill-rule="evenodd" clip-rule="evenodd" d="M189.583 13.5771L188.443 15.6451H188.179L187.829 13.5771L187.478 15.6451H187.127L187.565 13.3975H188.179L188.443 15.285L189.408 13.3975H189.934L189.496 15.6451H189.144L189.583 13.5771Z" fill="#0B2029"/>
</g>
<defs>
<clipPath id="clip0_115_602">
<rect width="190" height="38" fill="white"/>
</clipPath>
</defs>
</svg>
