<svg width="92" height="55" viewBox="0 0 92 55" fill="none" xmlns="http://www.w3.org/2000/svg">
<g clip-path="url(#clip0_115_596)">
<path d="M46.004 0C20.5981 0 0 12.3116 0 27.5035C0 42.694 20.5981 55.006 46.004 55.006C71.4073 55.006 92 42.694 92 27.5035C92 12.3116 71.4073 0 46.004 0ZM50.602 51.7791C28.1785 51.7791 9.99617 40.9103 9.99617 27.5035C9.99617 14.094 28.1785 3.22764 50.602 3.22764C73.0237 3.22764 91.2016 14.094 91.2016 27.5035C91.2018 40.9103 73.0239 51.7791 50.602 51.7791Z" fill="#0B2029"/>
<path d="M19.6047 25.0473V26.5692H22.0086V28.1373H19.6047V31.5391H18.0098V23.4672H23.716V25.0473H19.6047ZM25.2423 23.4672H26.8361V31.5393H25.2423V23.4672ZM33.6235 31.5393L32.2013 28.6333H30.5946V31.5393H28.9999V23.4672H32.7134C34.2163 23.4672 35.4579 24.3095 35.4579 26.0275C35.4579 27.2382 34.9453 27.9994 33.9317 28.4029L35.4579 31.5391L33.6235 31.5393ZM32.6786 25.0359H30.5944V27.1118H32.6786C33.4187 27.1118 33.8172 26.7655 33.8172 26.0622C33.8172 25.3352 33.3841 25.0359 32.6786 25.0359ZM39.8419 31.6657C38.5094 31.6657 37.3478 31.1015 36.7434 30.2013L37.8941 29.164C38.4518 29.8202 39.169 30.0864 39.9332 30.0864C40.8788 30.0864 41.3218 29.82 41.3218 29.2108C41.3218 28.6908 41.049 28.4605 39.5451 28.1148C38.0761 27.7685 37.051 27.2951 37.051 25.7048C37.051 24.2401 38.3274 23.3408 39.8984 23.3408C41.1397 23.3408 42.051 23.8135 42.8027 24.6093L41.6525 25.7389C41.1395 25.2084 40.5695 24.909 39.8419 24.909C38.9871 24.909 38.702 25.2778 38.702 25.6352C38.702 26.1426 39.0445 26.3039 40.3087 26.6044C41.573 26.9035 42.9736 27.3421 42.9736 29.0943C42.9736 30.6281 42.0172 31.6657 39.8419 31.6657ZM47.7353 25.0589V31.5393H46.1402V25.0589H43.8511V23.4672H50.0234V25.0589H47.7353ZM73.6563 25.0589V31.5393H72.0616V25.0589H69.7723V23.4672H75.9446V25.0589H73.6563ZM59.4859 31.5393L58.0636 28.6333H56.4575V31.5393H54.8637V23.4672H58.5757C60.0784 23.4672 61.3202 24.3095 61.3202 26.0275C61.3202 27.2382 60.8076 27.9994 59.7949 28.4029L61.3202 31.5391L59.4859 31.5393ZM58.5411 25.0359H56.4577V27.1118H58.5411C59.2824 27.1118 59.681 26.7655 59.681 26.0622C59.681 25.3352 59.248 25.0359 58.5411 25.0359ZM68.1314 31.5393L67.5052 29.7409H64.5901L63.9627 31.5393H62.2553L65.3081 23.4672H66.8566L69.8854 31.5393H68.1314ZM66.447 26.7424C66.2866 26.2697 66.1283 25.7855 66.0477 25.4855C65.9677 25.7855 65.8073 26.2697 65.6496 26.7424L65.1371 28.2067H66.9589L66.447 26.7424ZM77.4808 31.5393V23.4672H83.0153V25.0475H79.0757V26.442H81.3645V28.0107H79.0757V29.9583H83.187V31.5393H77.4808Z" fill="#0B2029"/>
</g>
<defs>
<clipPath id="clip0_115_596">
<rect width="92" height="55" fill="white"/>
</clipPath>
</defs>
</svg>
