<?xml version="1.0" encoding="UTF-8"?><svg id="b" xmlns="http://www.w3.org/2000/svg" viewBox="0 0 513.64 102.3"><g id="c"><path d="M83.89,68.49c0,12.63-7.28,20.33-18.83,22.69-3.21.64-8.56.64-12.2.64l-28.04-.21v10.7L0,81.97l24.83-20.33v10.7l31.46.21c3,0,4.28-1.71,4.28-3.42,0-3.21-3-4.28-11.98-8.56-14.34-6.85-25.47-11.77-25.47-27.39,0-12.2,8.77-20.55,21.62-22.26,2.57-.43,7.49-.43,10.49-.43,6.42,0,24.4.43,24.4.43v19.48l-29.53-.43c-2.57,0-3.85,1.71-3.85,3.42,0,2.57,2.14,3.64,10.49,7.49,17.55,8.13,27.18,12.63,27.18,27.61ZM130.34,66.99c0,3.64-3.21,6.63-8.99,6.63-6.21,0-8.99-3-8.99-6.63V10.7h-24.18v58.21c0,12.84,10.7,25.04,32.96,25.04s32.96-11.98,32.96-25.04V10.7h-23.76v56.29ZM228.36,67.42c0,16.05-10.91,24.83-26.75,24.83h-40.02V10.7h38.52c17.34,0,26.11,9.63,26.11,22.26,0,6.42-3,11.98-8.99,16.05,7.06,3.85,11.13,9.84,11.13,18.41ZM185.34,43.02h11.13c4.28,0,6.21-3,6.21-7.28,0-4.49-1.93-7.28-6.21-7.28h-11.13s0,14.55,0,14.55ZM204.17,66.35c0-4.92-2.35-7.7-6.63-7.7h-12.2v15.41h12.2c4.49,0,6.63-3,6.63-7.7ZM308.4,10.7h23.76v57.36c0,13.27-9.42,25.25-29.32,25.25-8.56,0-15.2-2.57-19.9-6.42-4.71,3.85-11.13,6.42-19.05,6.42-21.19,0-29.96-11.98-29.96-25.25V10.7h23.76v56.93c0,2.35,1.28,5.35,6.63,5.35s6.85-2.78,6.85-5.35V10.7h23.76v56.93c0,2.35,1.28,5.35,6.63,5.35s6.85-2.78,6.85-5.35V10.7ZM434.45,42.8V10.7h-23.54v34.24c0,11.34,7.7,19.9,20.76,23.54v23.54h24.18v-23.54c13.27-3.64,20.55-12.2,20.55-23.54v-12.63c0-1.28.64-1.93,1.93-1.93h10.49v10.27l24.83-20.33L488.81,0v10.27h-16.48c-13.91,0-19.69,8.13-19.69,19.69v12.84c0,3-2.14,6.63-9.2,6.63s-8.99-3.64-8.99-6.63ZM404.92,34.03v58.21h-23.76v-23.76h-17.98v23.54h-23.76v-58c0-14.55,11.98-25.68,32.74-25.68s32.74,10.91,32.74,25.68ZM381.16,49.87v-14.55c0-3.85-2.78-6.63-8.99-6.63s-8.99,2.78-8.99,6.63v14.55h17.98Z" fill="#fff" stroke-width="0"/></g></svg>