<svg width="134" height="134" viewBox="0 0 134 134" fill="none" xmlns="http://www.w3.org/2000/svg">
<path d="M63.3204 67.3699C63.341 68.0687 63.1766 68.788 62.8888 69.4251C62.6216 70.0006 62.2106 70.4938 61.7174 70.8843C61.1419 71.3364 60.4842 71.6653 59.7854 71.8708C58.9017 72.0969 57.9974 72.1791 57.0931 72.1585H51.5646V56.5595H56.1888C57.0315 56.5389 57.8946 56.58 58.7373 56.6828C59.3127 56.765 59.8471 56.9499 60.3609 57.2171C60.8747 57.4637 61.3063 57.8748 61.6146 58.368C61.8818 58.8818 62.0256 59.4779 62.0051 60.0533C62.0256 60.7315 61.8201 61.3892 61.4296 61.9441C61.0391 62.4785 60.5253 62.9306 59.9293 63.2184V63.3006C60.8953 63.465 61.779 63.9582 62.4161 64.6776C63.0327 65.438 63.3615 66.3834 63.3204 67.3699ZM59.8471 60.3616C59.8471 60.0328 59.7854 59.7039 59.6621 59.4162C59.5183 59.149 59.3127 58.923 59.0456 58.7996C58.6756 58.5941 58.2646 58.4708 57.8535 58.4503C57.3809 58.4091 56.8054 58.3886 56.1066 58.3886H53.6404V62.8895H56.3327C56.867 62.8895 57.3808 62.869 57.9152 62.7868C58.2851 62.7251 58.6551 62.5812 58.9634 62.3757C59.2716 62.1907 59.5183 61.903 59.6621 61.5536C59.7854 61.1631 59.8677 60.7726 59.8471 60.3616ZM61.1624 67.4315C61.183 66.9177 61.0802 66.4039 60.8747 65.9312C60.6281 65.5202 60.2582 65.1914 59.8266 64.9858C59.4361 64.8009 59.025 64.6776 58.614 64.6364C58.0385 64.5748 57.4425 64.5542 56.867 64.5542H53.6198V70.3705H56.3738C57.1137 70.3911 57.8741 70.3294 58.614 70.2266C59.1278 70.1444 59.6005 69.98 60.0321 69.6923C60.3815 69.4457 60.6897 69.1374 60.8953 68.7674C61.1008 68.3564 61.183 67.8837 61.1624 67.411M64.8413 55.8607H66.8143V72.1585H64.8413V55.8607ZM78.6934 72.1585H76.7204V70.8637C76.1244 71.3364 75.4873 71.7475 74.8091 72.0558C74.172 72.3435 73.4937 72.4874 72.795 72.4668C71.7262 72.5285 70.6781 72.1174 69.9382 71.3365C69.2394 70.576 68.8901 69.4868 68.8901 68.0276V60.4438H70.8631V67.1027C70.8631 67.6165 70.8836 68.1098 70.9453 68.6236C70.9864 69.0141 71.1097 69.3634 71.2947 69.7128C71.4591 70.0006 71.7262 70.2472 72.0345 70.3911C72.4456 70.5555 72.8977 70.6171 73.3499 70.5966C73.9253 70.576 74.5008 70.4527 75.0146 70.2061C75.6106 69.9389 76.1861 69.6101 76.6999 69.199V60.4644H78.6729L78.6934 72.1585ZM91.0658 66.5273H82.4545C82.4339 67.1644 82.5572 67.8015 82.7833 68.3975C82.9683 68.8907 83.2766 69.3429 83.667 69.7128C84.037 70.0417 84.4891 70.3088 84.9618 70.4733C85.4962 70.6377 86.0511 70.7404 86.606 70.7199C87.4281 70.7199 88.2502 70.5555 89.0106 70.2472C89.6272 70.0417 90.2232 69.7128 90.737 69.3223H90.8397V71.4598C90.1821 71.7475 89.5039 71.9736 88.8051 72.1585C88.0858 72.3435 87.3664 72.4463 86.6266 72.4463C84.6947 72.4463 83.1738 71.9119 82.0845 70.8637C80.9953 69.8156 80.4609 68.3153 80.4609 66.3834C80.3787 64.7187 80.9336 63.095 82.0434 61.8208C83.1121 60.6904 84.6124 60.0739 86.1539 60.1355C87.5309 60.0328 88.8667 60.5466 89.8327 61.5125C90.6959 62.4374 91.1069 63.7527 91.1069 65.438L91.0658 66.5273ZM89.1545 65.0064C89.1956 64.1432 88.9284 63.28 88.3735 62.6018C87.7569 61.9852 86.8937 61.6769 86.0305 61.7591C85.1057 61.718 84.1808 62.0674 83.5232 62.7045C82.9066 63.3211 82.5367 64.1432 82.475 65.0269L89.1545 65.0064ZM105.123 67.3699C105.144 68.0687 105 68.788 104.692 69.4251C104.425 70.0006 104.014 70.4938 103.5 70.8843C102.924 71.3364 102.267 71.6653 101.568 71.8708C100.684 72.0969 99.8005 72.1791 98.8962 72.1585H93.3677V56.5595H97.9919C98.8551 56.5389 99.6977 56.58 100.54 56.6828C101.116 56.765 101.65 56.9499 102.164 57.2171C102.678 57.4637 103.109 57.8748 103.418 58.368C103.685 58.9024 103.829 59.4779 103.808 60.0739C103.829 60.7521 103.623 61.4098 103.233 61.9647C102.842 62.499 102.308 62.9306 101.691 63.2184V63.3006C102.657 63.465 103.541 63.9582 104.178 64.6776C104.795 65.438 105.123 66.3834 105.082 67.3699M101.609 60.3616C101.609 60.0328 101.547 59.7039 101.424 59.4162C101.301 59.149 101.075 58.923 100.828 58.7996C100.458 58.5941 100.047 58.4708 99.6361 58.4503C99.1634 58.4091 98.5879 58.3886 97.8891 58.3886H95.4229V62.8895H98.1152C98.6496 62.8895 99.1634 62.869 99.6977 62.7868C100.068 62.7251 100.438 62.5812 100.746 62.3757C101.054 62.1907 101.301 61.903 101.445 61.5536C101.568 61.1631 101.63 60.7726 101.609 60.3616ZM102.966 67.4315C102.986 66.9177 102.883 66.4039 102.678 65.9312C102.431 65.5202 102.061 65.1914 101.63 64.9858C101.239 64.8009 100.828 64.6776 100.417 64.6364C99.8416 64.5748 99.2661 64.5542 98.6701 64.5542H95.4023V70.3705H98.1563C98.8962 70.3911 99.6566 70.3294 100.396 70.2266C100.91 70.1444 101.383 69.98 101.815 69.6923C102.164 69.4457 102.472 69.1374 102.678 68.7674C102.883 68.3358 102.966 67.8837 102.945 67.411M115.708 72.1585H113.776V70.9049C113.591 71.0282 113.365 71.1926 113.077 71.3981C112.81 71.6036 112.522 71.7886 112.214 71.9325C111.844 72.1174 111.474 72.2407 111.084 72.3435C110.59 72.4668 110.097 72.5079 109.583 72.5079C108.576 72.5285 107.61 72.1585 106.891 71.4598C106.151 70.761 105.761 69.795 105.781 68.788C105.74 68.0276 105.946 67.2877 106.357 66.63C106.768 66.0546 107.323 65.6024 107.98 65.3352C108.802 64.9858 109.666 64.7803 110.549 64.6981C111.556 64.5953 112.625 64.4926 113.776 64.4515V64.1226C113.796 63.7322 113.714 63.3622 113.55 63.0128C113.385 62.7251 113.159 62.4785 112.872 62.3141C112.563 62.1496 112.214 62.0263 111.865 61.9852C110.878 61.8414 109.892 61.8825 108.905 62.1085C108.227 62.2524 107.569 62.4579 106.912 62.7045H106.809V60.711C107.199 60.6082 107.754 60.4849 108.473 60.3616C109.172 60.2383 109.892 60.1766 110.611 60.1766C111.33 60.1766 112.05 60.2383 112.769 60.3822C113.344 60.5055 113.879 60.7315 114.351 61.0809C114.783 61.4098 115.132 61.8208 115.358 62.3346C115.605 62.9306 115.728 63.5883 115.708 64.2254V72.1585ZM113.776 69.2812V66.0134C113.18 66.0546 112.461 66.0957 111.68 66.1779C111.022 66.219 110.385 66.3217 109.748 66.4861C109.234 66.6095 108.761 66.8766 108.371 67.2466C107.631 68.0892 107.672 69.3634 108.453 70.1444C108.987 70.5349 109.645 70.7199 110.303 70.6788C110.96 70.6788 111.597 70.5555 112.193 70.2677C112.748 70.0006 113.283 69.6717 113.776 69.2812ZM127.731 60.4644L120.908 76.4745H118.791L120.969 71.6036L116.304 60.4644H118.441L122.038 69.1374L125.655 60.4644H127.731ZM55.7367 81.5098H55.079L54.6269 80.2355H52.6539L52.2017 81.5098H51.5851L53.2499 76.9266H54.072L55.7367 81.5098ZM54.4624 79.7012L53.6609 77.4404L52.8594 79.7012H54.4624ZM58.84 80.5233C58.84 80.8315 58.6962 81.1193 58.4496 81.3042C58.1413 81.5098 57.7713 81.6125 57.4014 81.6125C57.1753 81.6125 56.9287 81.592 56.7026 81.5303C56.5177 81.4892 56.3532 81.407 56.1683 81.3248V80.6671H56.2094C56.3943 80.811 56.5999 80.9137 56.8259 80.996C57.0315 81.0782 57.2575 81.1193 57.4631 81.1193C57.6686 81.1193 57.8741 81.0782 58.0591 80.996C58.2029 80.9137 58.2851 80.7699 58.2646 80.6055C58.2646 80.4822 58.2235 80.3794 58.1413 80.2972C57.9974 80.215 57.8536 80.1533 57.6891 80.1122L57.3603 80.0506L56.9904 79.9684C56.7437 79.9272 56.5177 79.8039 56.3532 79.619C56.2299 79.4545 56.1683 79.249 56.1683 79.0435C56.1683 78.8996 56.1888 78.7763 56.2505 78.653C56.3121 78.5297 56.3943 78.4064 56.5177 78.3242C56.641 78.2214 56.8054 78.1392 56.9493 78.0981C57.1342 78.0364 57.3397 78.0159 57.5453 78.0159C57.7508 78.0159 57.9563 78.0364 58.1618 78.0981C58.3468 78.1392 58.5112 78.2009 58.6962 78.2831V78.8996H58.6345C58.4701 78.7763 58.3057 78.6941 58.1002 78.6325C57.8947 78.5503 57.6891 78.5091 57.4836 78.5091C57.2986 78.5091 57.1137 78.5503 56.9493 78.6325C56.8054 78.6941 56.7232 78.838 56.7232 79.0024C56.7232 79.1257 56.7643 79.249 56.867 79.3312C56.9904 79.4134 57.1342 79.4751 57.2781 79.5162L57.648 79.5984L57.9769 79.6601C58.2029 79.7012 58.429 79.8245 58.5934 79.9889C58.7784 80.0711 58.84 80.2972 58.84 80.5233ZM62.1078 80.5233C62.1078 80.8315 61.964 81.1193 61.7174 81.3042C61.4091 81.5098 61.0391 81.6125 60.6692 81.6125C60.4226 81.6125 60.1965 81.592 59.9704 81.5303C59.7854 81.4892 59.621 81.407 59.4361 81.3248V80.6671H59.4772C59.6621 80.811 59.8677 80.9137 60.0937 80.996C60.2993 81.0782 60.5253 81.1193 60.7309 81.1193C60.9364 81.1193 61.1213 81.0782 61.3063 80.996C61.4502 80.9137 61.5324 80.7699 61.5118 80.6055C61.5118 80.4822 61.4707 80.3794 61.3885 80.2972C61.2447 80.215 61.1008 80.1533 60.9364 80.1122L60.6075 80.0506L60.2376 79.9684C59.991 79.9272 59.7649 79.8039 59.6005 79.619C59.4772 79.4545 59.4155 79.249 59.4155 79.0435C59.4155 78.8996 59.4361 78.7763 59.4977 78.653C59.5594 78.5297 59.6621 78.4064 59.7649 78.3242C59.8882 78.2214 60.0526 78.1392 60.1965 78.0981C60.3815 78.0364 60.587 78.0159 60.7925 78.0159C60.998 78.0159 61.2035 78.0364 61.4091 78.0981C61.594 78.1392 61.7585 78.2009 61.9434 78.2831V78.8996H61.9023C61.7379 78.7763 61.5735 78.6941 61.368 78.6325C61.1624 78.5503 60.9569 78.5091 60.7309 78.5091C60.5459 78.5091 60.3609 78.5503 60.1965 78.6325C60.0526 78.6941 59.9704 78.838 59.9704 79.0024C59.9704 79.1257 60.0115 79.249 60.0937 79.3312C60.217 79.4134 60.3609 79.4751 60.5048 79.5162L60.8542 79.5984L61.183 79.6601C61.4091 79.7012 61.6351 79.8245 61.7996 79.9889C62.0256 80.0711 62.1078 80.2972 62.1078 80.5233ZM65.7867 79.845H63.2588C63.2588 80.03 63.2999 80.1944 63.3615 80.3794C63.4848 80.6671 63.7109 80.8932 63.9986 80.9754C64.1631 81.0371 64.3275 81.0576 64.4919 81.0576C64.7385 81.0576 64.9646 81.0165 65.1907 80.9138C65.3756 80.8521 65.5606 80.7493 65.725 80.626V81.2631C65.5401 81.3453 65.3345 81.407 65.129 81.4687C64.9235 81.5303 64.6974 81.5509 64.4919 81.5509C63.9986 81.5714 63.5259 81.407 63.156 81.0782C62.8272 80.7288 62.6422 80.2561 62.6833 79.7628C62.6628 79.2696 62.8272 78.7969 63.1355 78.4269C63.4437 78.0981 63.8959 77.9131 64.348 77.9337C64.7385 77.9131 65.129 78.057 65.3962 78.3447C65.6634 78.6736 65.7867 79.0846 65.7661 79.4957L65.7867 79.845ZM65.2318 79.4134C65.2523 79.1668 65.1701 78.8996 65.0057 78.7147C64.8207 78.5297 64.5741 78.4475 64.3275 78.468C64.0603 78.4475 63.7931 78.5503 63.5876 78.7352C63.4026 78.9202 63.2999 79.1463 63.2793 79.4134H65.2318ZM68.4379 81.4687C68.3146 81.5098 68.1913 81.5303 68.0885 81.5509C67.9652 81.5714 67.8624 81.5714 67.7391 81.5714C67.4514 81.592 67.1637 81.4892 66.9376 81.2837C66.7321 81.0371 66.6293 80.7082 66.6704 80.3794V78.5503H66.2799V78.0776H66.6704V77.0911H67.2459V78.0776H68.4379V78.5503H67.2459V80.1328C67.2459 80.3177 67.2459 80.4616 67.2459 80.5438C67.2459 80.6466 67.287 80.7493 67.3281 80.8315C67.3692 80.9137 67.4309 80.9754 67.5131 81.0165C67.6364 81.0576 67.7597 81.0782 67.883 81.0782C67.9858 81.0782 68.0885 81.0576 68.1707 81.0371C68.2529 81.0165 68.3146 80.996 68.3968 80.9549H68.4379V81.4687ZM75.4462 81.5098H74.8296V77.5637L73.5554 80.2561H73.1855L71.9112 77.5637V81.5098H71.3358V76.9266H72.1578L73.391 79.4751L74.5624 76.9266H75.4051V81.5098H75.4462ZM79.31 81.5098H78.7345V81.1398L78.529 81.2837C78.4468 81.3453 78.3646 81.3865 78.2824 81.4276C78.0358 81.5303 77.7686 81.592 77.5014 81.592C77.2137 81.592 76.9259 81.4892 76.7204 81.2837C76.5149 81.0782 76.3916 80.7904 76.3916 80.5027C76.3916 80.2766 76.4327 80.0506 76.556 79.8656C76.6793 79.7012 76.8437 79.5779 77.0287 79.4957C77.2753 79.3929 77.522 79.3312 77.7891 79.3107C78.0769 79.2696 78.3851 79.249 78.7345 79.2285V79.1463C78.7345 79.0435 78.714 78.9202 78.6729 78.8174C78.6318 78.7352 78.5496 78.653 78.4673 78.6119C78.3851 78.5708 78.2824 78.5297 78.1796 78.5091C78.0563 78.4886 77.933 78.4886 77.8302 78.4886C77.6453 78.4886 77.4809 78.5092 77.2959 78.5503C77.0904 78.5914 76.9054 78.653 76.7204 78.7147H76.6793V78.1187C76.7821 78.0776 76.967 78.057 77.1726 78.0159C77.3781 77.9748 77.5836 77.9542 77.8097 77.9542C78.0152 77.9542 78.2413 77.9748 78.4468 78.0159C78.6112 78.057 78.7756 78.1187 78.8989 78.2214C79.0223 78.3242 79.125 78.4475 79.2072 78.5914C79.2894 78.7763 79.31 78.9613 79.31 79.1463V81.5098ZM78.7345 80.6671V79.7217L78.118 79.7628C77.933 79.7834 77.7275 79.8039 77.5425 79.845C77.3986 79.8861 77.2548 79.9684 77.1315 80.0711C77.0287 80.1739 76.967 80.3383 76.9876 80.4822C76.967 80.6466 77.0287 80.811 77.1726 80.9343C77.3164 81.0371 77.5014 81.0987 77.7069 81.0782C77.8919 81.0782 78.0974 81.0371 78.2618 80.9549C78.4262 80.8726 78.5907 80.7699 78.7345 80.6671ZM83.2766 81.5098H82.7011V79.5573C82.7011 79.4134 82.7011 79.2696 82.7011 79.1052C82.6805 78.9818 82.66 78.8791 82.5983 78.7763C82.5367 78.6941 82.475 78.6325 82.3723 78.5914C82.2489 78.5503 82.1256 78.5297 82.0023 78.5297C81.8379 78.5297 81.6529 78.5708 81.5091 78.653C81.3241 78.7352 81.1597 78.838 81.0158 78.9613V81.5303H80.4404V78.0981H81.0158V78.4886C81.1802 78.3447 81.3652 78.2214 81.5707 78.1392C81.7557 78.057 81.9612 78.0159 82.1667 78.0159C82.475 77.9953 82.8039 78.1187 83.0094 78.3447C83.2149 78.6119 83.3177 78.9613 83.2971 79.3107L83.2766 81.5098ZM87.0582 81.5098H86.4621V81.1398L86.2566 81.2837C86.1744 81.3453 86.0922 81.3865 86.01 81.4276C85.9072 81.4687 85.7839 81.5098 85.6812 81.5509C85.5373 81.592 85.3934 81.6125 85.2496 81.6125C84.9618 81.6125 84.6741 81.5098 84.4686 81.3042C84.2631 81.0987 84.1397 80.811 84.1397 80.5233C84.1192 80.0711 84.3864 79.6601 84.7974 79.5162C85.044 79.4134 85.2907 79.3518 85.5578 79.3312C85.8456 79.2901 86.1744 79.2696 86.5032 79.249V79.1668C86.5032 79.0641 86.4827 78.9407 86.4416 78.838C86.4005 78.7558 86.3183 78.6736 86.2361 78.6325C86.1539 78.5914 86.0511 78.5503 85.9483 78.5297C85.825 78.5091 85.7017 78.5091 85.5784 78.5091C85.3934 78.5091 85.229 78.5297 85.044 78.5708C84.8385 78.6119 84.6535 78.6736 84.4686 78.7352H84.4275V78.1392C84.5508 78.0981 84.7152 78.0776 84.9207 78.0365C85.1263 77.9953 85.3318 77.9748 85.5578 77.9748C85.7634 77.9748 85.9894 77.9953 86.195 78.0365C86.3594 78.0776 86.5238 78.1392 86.6677 78.242C86.791 78.3447 86.8937 78.468 86.9554 78.6119C87.0376 78.7969 87.0582 78.9819 87.0582 79.1668V81.5098ZM86.4827 80.6671V79.7217L85.8661 79.7628C85.6812 79.7834 85.4756 79.8039 85.2907 79.845C85.1468 79.8861 85.0029 79.9684 84.8796 80.0711C84.7769 80.1739 84.7152 80.3383 84.7358 80.4822C84.7152 80.6466 84.7769 80.811 84.9207 80.9343C85.0851 81.0371 85.2496 81.0987 85.4551 81.0782C85.64 81.0782 85.8456 81.0371 86.01 80.9549C86.1539 80.8726 86.3183 80.7699 86.4827 80.6671ZM90.9425 81.1193C90.9836 81.592 90.8397 82.0441 90.552 82.3935C90.2232 82.7018 89.771 82.8456 89.3394 82.8045C89.1545 82.8045 88.9901 82.784 88.8051 82.7634C88.6201 82.7429 88.4557 82.7018 88.2707 82.6607V82.0647H88.2913C88.394 82.1058 88.5379 82.1469 88.7434 82.2085C88.9489 82.2702 89.1545 82.2907 89.36 82.2907C89.5244 82.2907 89.6888 82.2702 89.8532 82.2291C90.0793 82.1469 90.2437 81.9619 90.3054 81.7358C90.3465 81.6125 90.3465 81.4892 90.3465 81.3659V81.0576C90.2026 81.1809 90.0177 81.2837 89.8532 81.3659C89.6683 81.4481 89.4422 81.4687 89.2367 81.4687C88.8667 81.4892 88.4968 81.3248 88.2502 81.0371C87.983 80.6671 87.8597 80.2355 87.8802 79.7834C87.8802 79.5162 87.9213 79.249 88.0035 79.0024C88.0858 78.7969 88.1885 78.6119 88.3529 78.4475C88.4762 78.3036 88.6612 78.1803 88.8256 78.0981C89.0106 78.0159 89.1956 77.9748 89.4011 77.9748C89.5861 77.9748 89.7505 77.9953 89.9354 78.0365C90.0793 78.0776 90.2232 78.1392 90.3671 78.2214L90.4081 78.0776H90.9425V81.1193ZM90.3671 80.5644V78.6941C90.2232 78.6325 90.0793 78.5708 89.9354 78.5503C89.8121 78.5297 89.6683 78.5091 89.545 78.5091C89.2572 78.4886 88.9901 78.6119 88.7845 78.838C88.579 79.1052 88.4968 79.434 88.5174 79.7628C88.4968 80.0711 88.5585 80.3794 88.7229 80.6466C88.8873 80.8521 89.1339 80.9549 89.4011 80.9343C89.5861 80.9343 89.7505 80.9137 89.9354 80.8315C90.0793 80.7493 90.2437 80.6671 90.3671 80.5644ZM94.9502 79.845H92.4223C92.4223 80.03 92.4634 80.1944 92.525 80.3794C92.5867 80.5233 92.6689 80.6466 92.7922 80.7699C92.895 80.8726 93.0388 80.9549 93.1621 80.996C93.3266 81.0576 93.491 81.0782 93.6554 81.0782C93.902 81.0782 94.1281 81.0371 94.3542 80.9343C94.5391 80.8726 94.7241 80.7699 94.8885 80.6466V81.2837C94.7036 81.3659 94.498 81.4276 94.2925 81.4892C94.087 81.5509 93.8609 81.5714 93.6554 81.5714C93.1621 81.592 92.6894 81.4276 92.3195 81.0987C91.9907 80.7493 91.8057 80.2766 91.8468 79.7834C91.8262 79.2901 91.9907 78.8174 92.299 78.4475C92.6072 78.1187 93.0594 77.9337 93.5115 77.9542C93.902 77.9337 94.3131 78.0776 94.5802 78.3653C94.8474 78.6941 94.9707 79.1052 94.9502 79.5162V79.845ZM94.3953 79.4134C94.4158 79.1668 94.3336 78.8996 94.1692 78.7147C93.9842 78.5297 93.7376 78.4475 93.491 78.468C93.2238 78.4475 92.9566 78.5503 92.7511 78.7352C92.5661 78.9202 92.4634 79.1463 92.4428 79.4134H94.3953ZM100.828 81.5098H100.253V79.5573C100.253 79.4134 100.253 79.2696 100.253 79.1257C100.253 79.0024 100.212 78.8996 100.17 78.7969C100.129 78.7147 100.047 78.6325 99.9649 78.5914C99.8416 78.5503 99.7183 78.5297 99.595 78.5297C99.4305 78.5297 99.2661 78.5708 99.1017 78.653C98.9373 78.7352 98.7729 78.838 98.629 78.9613C98.629 79.0024 98.629 79.0641 98.629 79.1257C98.629 79.1874 98.629 79.249 98.629 79.3107V81.5098H98.033V79.5573C98.033 79.4134 98.033 79.249 98.033 79.1257C98.033 79.023 97.9919 78.8996 97.9508 78.7969C97.9097 78.7147 97.8275 78.6325 97.7453 78.5914C97.622 78.5503 97.4986 78.5297 97.3548 78.5297C97.1904 78.5297 97.0259 78.5708 96.8821 78.653C96.7177 78.7352 96.5532 78.838 96.4094 78.9613V81.5303H95.8339V78.0981H96.4094V78.4886C96.5738 78.3447 96.7382 78.242 96.9437 78.1392C97.1287 78.057 97.3137 78.0159 97.5192 78.0159C97.7247 78.0159 97.9302 78.057 98.1152 78.1598C98.2796 78.2625 98.4029 78.4064 98.4851 78.5708C98.6701 78.4064 98.8962 78.2625 99.1223 78.1392C99.3072 78.057 99.5333 78.0159 99.7388 78.0159C100.047 77.9953 100.376 78.1187 100.581 78.3653C100.766 78.653 100.869 78.9818 100.849 79.3312L100.828 81.5098ZM104.815 79.845H102.287C102.287 80.03 102.328 80.1944 102.39 80.3794C102.452 80.5233 102.534 80.6466 102.657 80.7699C102.76 80.8726 102.904 80.9549 103.027 80.996C103.192 81.0576 103.356 81.0782 103.5 81.0782C103.746 81.0782 103.993 81.0371 104.199 80.9343C104.384 80.8726 104.569 80.7699 104.733 80.6466H104.774V81.2837C104.569 81.3659 104.384 81.4276 104.178 81.4892C103.973 81.5509 103.767 81.5714 103.541 81.5714C103.048 81.592 102.575 81.4276 102.205 81.0987C101.876 80.7493 101.691 80.2766 101.732 79.7834C101.712 79.2901 101.876 78.8174 102.185 78.4475C102.493 78.1187 102.945 77.9337 103.397 77.9542C103.788 77.9337 104.178 78.0776 104.445 78.3653C104.712 78.6941 104.856 79.1052 104.815 79.5162V79.845ZM104.26 79.4134C104.281 79.1668 104.199 78.8996 104.034 78.7147C103.849 78.5297 103.603 78.4475 103.356 78.468C103.089 78.4475 102.822 78.5503 102.616 78.7352C102.431 78.9202 102.328 79.1463 102.308 79.4134H104.26ZM108.556 81.5098H108.001V79.5573C108.001 79.4134 108.001 79.249 107.98 79.1052C107.96 78.9818 107.939 78.8791 107.877 78.7763C107.816 78.6941 107.754 78.6325 107.651 78.5914C107.528 78.5503 107.405 78.5297 107.281 78.5297C107.096 78.5297 106.912 78.5708 106.747 78.653C106.562 78.7352 106.398 78.838 106.254 78.9613V81.5303H105.678V78.0981H106.254V78.4886C106.418 78.3447 106.603 78.2214 106.809 78.1392C106.994 78.057 107.199 78.0159 107.405 78.0159C107.713 77.9953 108.042 78.1187 108.247 78.3447C108.453 78.6119 108.556 78.9613 108.535 79.3107L108.556 81.5098ZM111.454 81.4687C111.33 81.5098 111.207 81.5303 111.104 81.5509C110.981 81.5714 110.878 81.5714 110.755 81.5714C110.467 81.592 110.159 81.4892 109.953 81.2837C109.748 81.0371 109.645 80.7082 109.686 80.3794V78.5503H109.296V78.0776H109.686V77.0911H110.262V78.0776H111.454V78.5503H110.262V80.1328C110.262 80.3177 110.262 80.4616 110.262 80.5438C110.262 80.6466 110.303 80.7493 110.344 80.8315C110.385 80.9137 110.446 80.9754 110.529 81.0165C110.652 81.0576 110.755 81.0782 110.878 81.0782C110.981 81.0782 111.084 81.0576 111.186 81.0371C111.289 80.996 111.351 80.9754 111.412 80.9549H111.454V81.4687ZM14.468 76.7417C14.468 71.0282 18.7634 68.192 22.9355 65.4585C27.0048 62.7662 30.848 60.2383 30.848 55.1825C30.848 51.5036 28.8134 49.1607 26.121 47.1055H4.41797V84.7981H18.4962C16.1738 82.784 14.468 80.3383 14.468 76.7417Z" fill="#0B2029"/>
<path d="M28.0335 47.1055C30.3353 49.1196 32.0617 51.5653 32.0617 55.1825C32.0617 60.896 27.7458 63.7116 23.5942 66.4656C19.5249 69.1374 15.6816 71.6858 15.6816 76.7417C15.6816 80.4205 17.7163 82.7634 20.4086 84.8187H42.1117V47.1055H28.0335Z" fill="#0B2029"/>
</svg>
