<?xml version="1.0" encoding="UTF-8"?><svg id="Layer_2" xmlns="http://www.w3.org/2000/svg" xmlns:xlink="http://www.w3.org/1999/xlink" viewBox="0 0 208.1479 49.3232"><defs><style>.cls-1{fill:url(#linear-gradient);}.cls-2,.cls-3{fill:#414042;}.cls-3{stroke:#414042;stroke-width:.2px;}.cls-3,.cls-4{stroke-miterlimit:10;}.cls-5{fill:url(#New_Gradient_Swatch_1);}.cls-4{fill:#00539f;stroke:#00539f;stroke-width:.3203px;}</style><linearGradient id="linear-gradient" x1="16.1136" y1="48.2581" x2="16.1136" y2="26.1598" gradientUnits="userSpaceOnUse"><stop offset="0" stop-color="#fbdb14"/><stop offset=".9995" stop-color="#f78d1e"/></linearGradient><linearGradient id="New_Gradient_Swatch_1" x1="16.9908" y1="48.9183" x2="16.9908" y2="3.2358" gradientUnits="userSpaceOnUse"><stop offset="0" stop-color="#372769"/><stop offset=".9995" stop-color="#00539f"/></linearGradient></defs><g id="Layer_1-2"><g><g><path class="cls-1" d="m15.708,49.0507c-.8086-.4007-8.817-3.5236-7.2335-14.5314.9567-6.6507,8.7059-10.5698,8.7059-10.5698,0,0-2.0413,4.9305,2.2309,9.2027,4.2722,4.2722,5.0085,7.8284,4.3249,10.86-.6836,3.0316-3.5965,4.7151-4.1931,5.0386s-3.0265.4006-3.8351-.0002Z"/><path class="cls-5" d="m16.9908,49.3047s-10.1027-3.7775-8.5192-14.7854c.9567-6.6507,8.7059-10.5698,8.7059-10.5698,0,0-2.0413,4.9305,2.2309,9.2027,4.2722,4.2722,5.0085,7.8284,4.3249,10.86-.6836,3.0316-5.2428,5.2689-5.2428,5.2689,0,0,.2865-.0129.736-.1174,2.2617-.5258,9.3704-2.9073,13.2048-12.2774,5.0439-12.3257-3.835-22.6172-3.835-22.6172,0,0,.2019,1.0253-1.4598,3.3323-.8592,1.1928-2.4307,2.2215-2.4307,2.2215,0,0,1.5541-5.9811-1.7863-12.4748C19.5792.8544,13.0855,0,13.0855,0c0,0,3.5886,4.2722.8544,9.3988-2.7342,5.1266-8.5916,9.057-11.6675,14.1837s-4.2444,15.4651,4.5166,21.8938c5.2755,3.8711,10.2018,3.8284,10.2018,3.8284Z"/></g><g><rect class="cls-2" x="41.891" y="18.0587" width="3.8193" height="19.728"/><path class="cls-2" d="m59.6299,38.2606c-6.0607,0-10.2588-3.8826-10.2588-10.2906,0-6.3762,4.1666-10.3853,10.2896-10.3853,2.3993,0,5.2085.6317,6.9768,1.7047l-1.2313,3.3465c-1.7358-1.0737-3.7253-1.7371-5.6823-1.7371-3.914,0-6.4703,2.6834-6.4703,6.9447,0,4.4196,2.4301,7.1649,6.4703,7.1649,1.3892,0,2.7466-.346,3.7253-.7883v-3.7875h-5.1767v-3.2522h8.7431v9.2179c-2.1149,1.1989-4.8924,1.8623-7.3857,1.8623"/><polygon class="cls-2" points="84.5954 18.0586 88.2574 18.0586 88.2574 37.9763 84.1537 37.9763 74.7157 23.4559 74.7157 37.7866 71.0543 37.7866 71.0543 18.0586 75.2527 18.0586 84.5954 32.4211 84.5954 18.0586"/><rect class="cls-2" x="92.8637" y="18.0587" width="3.8193" height="19.728"/><polygon class="cls-2" points="110.0972 21.4357 110.0972 37.7867 106.2779 37.7867 106.2779 21.4357 99.6805 21.4357 99.6805 18.0587 116.6946 18.0587 116.6946 21.4357 110.0972 21.4357"/><polygon class="cls-2" points="119.6283 37.7867 119.6283 18.0588 133.0748 18.0588 133.0748 21.3096 123.4162 21.3096 123.4162 26.2659 131.3389 26.2659 131.3389 29.5164 123.4162 29.5164 123.4162 34.5359 133.0748 34.5359 133.0748 37.7867 119.6283 37.7867"/><path class="cls-2" d="m183.8712,20.458c-1.3886-.8843-3.472-1.516-5.5552-1.516-4.2931,0-7.7333,3.1886-7.7333,9.0282,0,5.5552,3.0926,8.9322,7.7966,8.9322,2.1464,0,4.1352-.6622,5.4602-1.6094l.3162,1.2316c-1.3266.8833-3.4088,1.5783-5.8081,1.5783-5.6184,0-9.1229-3.9143-9.1229-10.1327,0-6.2504,3.8508-10.2273,9.1546-10.2273,2.556,0,4.6391.8214,5.9025,1.5779l-.4105,1.1372Z"/><polygon class="cls-2" points="201.9253 37.7867 201.9253 28.4755 189.6148 28.4755 189.6148 37.7867 188.2895 37.7867 188.2895 18.0588 189.6148 18.0588 189.6148 27.3068 201.9253 27.3068 201.9253 18.0588 203.2506 18.0588 203.2506 37.7867 201.9253 37.7867"/><polygon class="cls-2" points="143.3932 19.2893 143.3932 37.7867 142.0672 37.7867 142.0672 19.2893 135.0914 19.2893 135.0914 18.0587 150.369 18.0587 150.369 19.2893 143.3932 19.2893"/><polygon class="cls-2" points="153.839 37.7867 153.839 18.0588 165.1394 18.0588 165.1394 19.2576 155.165 19.2576 155.165 27.3382 163.4982 27.3382 163.4982 28.5069 155.165 28.5069 155.165 36.5879 165.1394 36.5879 165.1394 37.7867 153.839 37.7867"/></g><path class="cls-3" d="m205.8009,18.0628v-.1586h-1.5715v.1586h.7041v1.6954h.1685v-1.6954h.6989Zm2.2409,1.6954l-.1092-1.854h-.2478l-.6395,1.6854h-.0147l-.5849-1.6854h-.2578l-.114,1.854h.1685l.0893-1.6408h.0147l.575,1.6408h.2132l.6347-1.6408h.0147l.094,1.6408h.1638Z"/><g><path class="cls-4" d="m44.4303,48.1985h-.7217l-1.5479-5.4355h.7744l1.1738,4.4268,1.2783-4.4268h.8525l1.3135,4.4268,1.1562-4.4268h.7217l-1.5391,5.4355h-.7393l-1.3477-4.5225-1.375,4.5225Z"/><path class="cls-4" d="m54.9782,48.1985v-2.4004h-2.9824v2.4004h-.7393v-5.4355h.7393v2.3652h2.9824v-2.3652h.7314v5.4355h-.7314Z"/><path class="cls-4" d="m57.9518,48.1985v-5.4355h3.4434v.6865h-2.7041v1.6787h2.252v.6875h-2.252v1.6953h2.7041v.6875h-3.4434Z"/><path class="cls-4" d="m64.1071,48.1985h-.7393v-5.4355h1.626c1.3135,0,2,.626,2,1.5908,0,.8184-.4775,1.3223-1.2256,1.5664l1.4697,2.2783h-.8789l-1.3213-2.1572-.9307.0615v2.0957Zm.8955-2.7744c.7129-.0264,1.252-.3652,1.252-1.0352,0-.6436-.5215-.9482-1.3477-.9482h-.7998v2.0098l.8955-.0264Z"/><path class="cls-4" d="m68.9762,48.1985v-5.4355h3.4434v.6865h-2.7041v1.6787h2.252v.6875h-2.252v1.6953h2.7041v.6875h-3.4434Z"/><path class="cls-4" d="m79.8893,46.7551c0-.5566-.417-.7656-1.3047-1.001-.7744-.208-1.626-.5391-1.626-1.5908,0-.9141.7393-1.5312,1.8174-1.5312.626,0,1.1914.1562,1.7139.4785l-.2617.6436c-.417-.2783-.9561-.4521-1.4434-.4521-.7832,0-1.1045.3564-1.1045.8086,0,.5479.4609.7393,1.3223.9746.791.208,1.5996.5908,1.5996,1.6172,0,.9395-.7734,1.627-1.9131,1.627-.6348,0-1.2959-.1826-1.8174-.5137l.2432-.6699c.4609.3047.957.5225,1.5918.5225.6865,0,1.1826-.374,1.1826-.9131Z"/><path class="cls-4" d="m84.984,48.3294c-1.5918,0-2.7305-1.1133-2.7305-2.8359,0-1.626,1.1309-2.8613,2.7305-2.8613,1.5918,0,2.7314,1.1045,2.7314,2.8271,0,1.626-1.1309,2.8701-2.7314,2.8701Zm-.0176-5.0361c-1.1562,0-1.9648.8613-1.9648,2.166,0,1.3389.8086,2.209,2,2.209,1.1572,0,1.9746-.8701,1.9746-2.1748,0-1.3389-.8174-2.2002-2.0098-2.2002Z"/><path class="cls-4" d="m89.6706,42.763h3.3564v.6953h-2.6172v1.7656h2.165v.6875h-2.165v2.2871h-.7393v-5.4355Z"/><path class="cls-4" d="m97.0436,43.4583v4.7402h-.7305v-4.7402h-1.9053v-.6953h4.54v.6953h-1.9043Z"/><path class="cls-4" d="m102.609,48.1985h-.7227l-1.5479-5.4355h.7744l1.1738,4.4268,1.2783-4.4268h.8525l1.3135,4.4268,1.1572-4.4268h.7217l-1.54,5.4355h-.7393l-1.3477-4.5225-1.374,4.5225Z"/><path class="cls-4" d="m113.3913,48.1985h-.7568l-.5137-1.4268h-2.3564l-.5137,1.4268h-.7646l2.043-5.4355h.8438l2.0186,5.4355Zm-2.4443-4.6709l-.9395,2.5752h1.8701l-.9307-2.5752Z"/><path class="cls-4" d="m115.7292,48.1985h-.7393v-5.4355h1.626c1.3135,0,2.001.626,2.001,1.5908,0,.8184-.4785,1.3223-1.2266,1.5664l1.4697,2.2783h-.8789l-1.3213-2.1572-.9307.0615v2.0957Zm.8955-2.7744c.7129-.0264,1.252-.3652,1.252-1.0352,0-.6436-.5215-.9482-1.3477-.9482h-.7998v2.0098l.8955-.0264Z"/><path class="cls-4" d="m120.5983,48.1985v-5.4355h3.4434v.6865h-2.7041v1.6787h2.252v.6875h-2.252v1.6953h2.7041v.6875h-3.4434Z"/><path class="cls-4" d="m131.3014,48.3294c-1.5908,0-2.7217-1.1055-2.7217-2.8359s1.1387-2.8613,2.7217-2.8613c.6357,0,1.3574.1826,1.8096.4697l-.2441.6787c-.4346-.2783-1.0088-.4873-1.5654-.4873-1.1826,0-1.9736.8174-1.9736,2.166,0,1.3477.7998,2.209,1.9912,2.209.4521,0,.8613-.1221,1.1826-.2783v-1.2871h-1.5215v-.6875h2.2354v2.3916c-.5654.3477-1.3311.5225-1.9141.5225Z"/><path class="cls-4" d="m137.7448,48.3294c-1.5918,0-2.7305-1.1133-2.7305-2.8359,0-1.626,1.1299-2.8613,2.7305-2.8613,1.5918,0,2.7314,1.1045,2.7314,2.8271,0,1.626-1.1309,2.8701-2.7314,2.8701Zm-.0176-5.0361c-1.1562,0-1.9648.8613-1.9648,2.166,0,1.3389.8086,2.209,2,2.209,1.1572,0,1.9746-.8701,1.9746-2.1748,0-1.3389-.8174-2.2002-2.0098-2.2002Z"/><path class="cls-4" d="m142.4303,48.1985v-5.4355h3.4434v.6865h-2.7041v1.6787h2.252v.6875h-2.252v1.6953h2.7041v.6875h-3.4434Z"/><path class="cls-4" d="m150.4909,46.7551c0-.5566-.417-.7656-1.3047-1.001-.7744-.208-1.626-.5391-1.626-1.5908,0-.9141.7393-1.5312,1.8174-1.5312.626,0,1.1914.1562,1.7139.4785l-.2617.6436c-.417-.2783-.9561-.4521-1.4434-.4521-.7832,0-1.1045.3564-1.1045.8086,0,.5479.4609.7393,1.3223.9746.791.208,1.5996.5908,1.5996,1.6172,0,.9395-.7734,1.627-1.9131,1.627-.6348,0-1.2959-.1826-1.8174-.5137l.2432-.6699c.4609.3047.957.5225,1.5918.5225.6865,0,1.1826-.374,1.1826-.9131Z"/><path class="cls-4" d="m158.1081,43.4583v4.7402h-.7305v-4.7402h-1.9053v-.6953h4.54v.6953h-1.9043Z"/><path class="cls-4" d="m164.0895,48.3294c-1.5918,0-2.7305-1.1133-2.7305-2.8359,0-1.626,1.1309-2.8613,2.7305-2.8613,1.5918,0,2.7314,1.1045,2.7314,2.8271,0,1.626-1.1309,2.8701-2.7314,2.8701Zm-.0176-5.0361c-1.1562,0-1.9648.8613-1.9648,2.166,0,1.3389.8086,2.209,2,2.209,1.1572,0,1.9746-.8701,1.9746-2.1748,0-1.3389-.8174-2.2002-2.0098-2.2002Z"/><path class="cls-4" d="m174.2809,43.4671l-.9219,4.7314h-.7305l.9219-4.7314h-1.9141l.1396-.7041h4.54l-.1309.7041h-1.9043Z"/><path class="cls-4" d="m180.611,48.1985l.4688-2.4004h-2.9043l-.4609,2.4004h-.7393l1.0518-5.4355h.7393l-.4609,2.3652h2.9053l.4521-2.3652h.7393l-1.0518,5.4355h-.7393Z"/><path class="cls-4" d="m184.3317,48.1985h-.7393l1.0518-5.4355h1.418c1.2441,0,1.8877.6953,1.8877,1.5039,0,.9922-.7139,1.5225-1.5488,1.6963l.9658,2.2354h-.8438l-.8691-2.1484-.9307.0605-.3916,2.0879Zm1.2783-2.7568c.9043-.0176,1.583-.3486,1.583-1.0879,0-.582-.4434-.9131-1.209-.9131h-.7393l-.4092,2.0186.7744-.0176Z"/><path class="cls-4" d="m189.2956,48.1985l1.0518-5.4355h.7305l-1.0518,5.4355h-.7305Z"/><path class="cls-4" d="m194.4694,48.1897h-.8174l-.957-5.4268h.7568l.7568,4.627,2.7051-4.627h.8086l-3.2529,5.4268Z"/><path class="cls-4" d="m198.1383,48.1985l1.0518-5.4355h3.4443l-.1299.6865h-2.7139l-.3223,1.6787h2.2617l-.1387.6875h-2.2529l-.3311,1.6953h2.7051l-.1299.6875h-3.4443Z"/></g></g></g></svg>