<?xml version="1.0" encoding="utf-8"?>
<!-- Generator: Adobe Illustrator 28.3.0, SVG Export Plug-In . SVG Version: 6.00 Build 0)  -->
<svg version="1.1" id="Layer_1" xmlns="http://www.w3.org/2000/svg" xmlns:xlink="http://www.w3.org/1999/xlink" x="0px" y="0px"
	 viewBox="0 0 66.3 45.5" style="enable-background:new 0 0 66.3 45.5;" xml:space="preserve">
<style type="text/css">
	.st0{fill:#0D2029;}
</style>
<g>
	<path class="st0" d="M65.6,36.2c-1.8,0-3.5,0-5.3,0c-0.4,0-0.8,0-1.2,0c0,0.7,0,1.3,0,2c0.8,0,1.6,0,2.4,0c0,2.4,0,4.8,0,7.1
		c0.8,0,1.6,0,2.5,0c0-2.4,0-4.7,0-7.1c0.9,0,1.6-0.1,2.4-0.1c0-0.6,0-1.2,0-1.8C66.1,36.3,65.9,36.2,65.6,36.2z"/>
	<path class="st0" d="M42.4,28.4c0.1,0.2,0.4,0.4,0.7,0.4c0.9,0,1.7,0,2.6,0c0.2,0,0.4,0,0.5-0.1c0.4-0.8,0.9-1.7,1.2-2.6
		c0.2-0.7,0-1.5,0-2.3c0-0.4-0.2-0.6-0.6-0.5c-0.5,0-1,0-1.6,0c0.6-1.3,1.1-2.4,1.8-3.4c0.5-0.8,0.5-1.7,0.4-2.7c-0.3,0-0.5,0-0.8,0
		c-9.1,0-18.2,0-27.4,0c-0.1,0-0.3,0-0.4,0c-0.3,0-0.5,0.1-0.5,0.5c0,0.8,0,1.5,0.4,2.2c0.5,0.9,1,1.8,1.4,2.8
		c0.1,0.2,0.2,0.4,0.3,0.7c-0.6,0-1.1,0-1.6,0c-0.2,0-0.4,0.2-0.4,0.4c-0.1,1.7-0.2,3.3,1,4.8c0.1,0.2,0.4,0.3,0.6,0.3
		c0.9,0,1.8,0,2.7,0c0.2,0,0.5-0.2,0.7-0.4c0.3-0.5,0.6-1,0.9-1.6c0.3,0.6,0.6,1.1,0.8,1.6c0.2,0.3,0.4,0.5,0.8,0.4
		c0.8,0,1.6,0,2.5,0c0.4,0,0.7-0.1,0.9-0.5c0.2-0.5,0.5-1,0.8-1.6c0.3,0.6,0.6,1.1,0.8,1.5c0.2,0.4,0.4,0.6,0.8,0.5
		c0.8,0,1.6,0,2.5,0c0.4,0,0.6-0.1,0.8-0.5c0.2-0.5,0.5-1,0.8-1.6c0.3,0.6,0.6,1.2,0.9,1.6c0.1,0.2,0.4,0.4,0.7,0.4
		c0.9,0.1,1.8,0,2.7,0c0.2,0,0.5-0.2,0.6-0.4c0.3-0.5,0.6-1,0.9-1.6C41.9,27.5,42.1,28,42.4,28.4z M22.4,23.3
		c0.6-1.2,1.2-2.4,1.9-3.8c0.7,1.3,1.3,2.5,1.9,3.8C25,23.3,23.8,23.3,22.4,23.3z M28.1,23.3c0.7-1.3,1.3-2.5,2-3.8
		c0.7,1.4,1.3,2.5,2,3.8C30.7,23.3,29.4,23.3,28.1,23.3z M33.8,23.3c0.7-1.3,1.3-2.5,2-3.9c0.7,1.4,1.3,2.6,2,3.9
		C36.4,23.3,35.2,23.3,33.8,23.3z M39.6,23.3c0.7-1.3,1.3-2.5,2-3.8c0.7,1.4,1.3,2.5,2,3.8C42.1,23.3,40.9,23.3,39.6,23.3z"/>
	<path class="st0" d="M37.5,36.2c-0.1,0-0.3,0.2-0.4,0.4c-0.2,0.7-0.4,1.4-0.5,2.1c-0.2,1-0.5,1.9-0.7,2.9c0,0-0.1,0-0.1,0
		c-0.4-1.8-0.8-3.6-1.3-5.4c-1.8,0-3.5,0-5.3,0c-0.4,0-0.6,0.1-0.8,0.5c-0.4,0.9-0.9,1.8-1.3,2.9c-0.5-1-0.9-2-1.3-2.9
		c-0.1-0.2-0.3-0.4-0.4-0.4c-0.8,0-1.5,0-2.4,0c0.1,0.3,0.2,0.5,0.3,0.7c0.7,1.3,1.3,2.6,2,3.9c0.3,0.6,0.5,1.2,0.5,1.9
		c0,0.9,0,1.8,0,2.7c0.9,0,1.6,0,2.5,0c0-1,0-1.8,0-2.7c0-0.5,0.1-1,0.4-1.5c0.7-1.3,1.4-2.6,2.1-4c0.1-0.1,0.2-0.3,0.2-0.4
		c0,0,0.1,0,0.1,0c0,2.8,0,5.7,0,8.5c0.7,0,1.3,0,2,0c0-2,0-4,0-6c0,0,0.1,0,0.1,0c0.5,2,1,4,1.5,6c0.6,0,1.1,0,1.7,0
		c0.4,0,0.5-0.1,0.6-0.5c0.3-1.2,0.6-2.4,0.9-3.6c0.2-0.6,0.3-1.3,0.5-1.9c0,0,0.1,0,0.1,0c0,2,0,4,0,6c0.7,0,1.3,0,1.9,0
		c0-3.1,0-6.1,0-9.1C39.3,36.2,38.4,36.2,37.5,36.2z"/>
	<path class="st0" d="M22.3,38.2c-0.2-0.7-0.3-1.6-0.7-1.9c-0.5-0.3-1.4-0.1-2.1-0.2c-0.5,0-0.7,0.1-0.8,0.6c-0.7,2-1.4,4.1-2.1,6.1
		c-0.2,0.7-0.5,1.4-0.8,2.2c-0.5-1.4-1-2.5-1.4-3.7c0.2-0.1,0.4-0.2,0.5-0.3c1-0.6,1.4-1.6,1.2-2.8c-0.2-1.2-0.8-1.9-2.1-2
		c-1.6-0.1-3.2,0-4.8,0c0,3,0,6.1,0,9.1c0.8,0,1.5,0,2.3,0c0-2.4,0-4.8,0-7.2c0.4,0,0.8,0,1.2,0c0.7,0,1,0.3,1.1,0.9
		c0,0.6-0.3,1-0.9,1.2c-0.3,0.1-0.7,0.1-1,0.1c0.5,1.5,1,2.9,1.4,4.4c0,0.1,0,0.3,0.1,0.4c0.2,0.1,0.4,0.3,0.5,0.3
		c1.2,0,2.4,0,3.6,0c0.5,0,0.7-0.2,0.8-0.6c0.2-0.7,0.3-1.6,0.7-1.9c0.5-0.3,1.4-0.1,2.1-0.1c0.4,0,0.5,0.1,0.6,0.4
		c0.2,0.6,0.3,1.2,0.6,1.8c0.1,0.2,0.3,0.4,0.4,0.4c0.7,0,1.3,0,2.1,0c-0.1-0.3-0.2-0.5-0.2-0.8C23.7,42.5,23,40.4,22.3,38.2z
		 M19.4,40.7c0.2-0.8,0.5-1.5,0.7-2.3c0,0,0.1,0,0.1,0c0.2,0.7,0.5,1.5,0.7,2.3C20.5,40.7,20,40.7,19.4,40.7z"/>
	<path class="st0" d="M56.4,41.8c-0.2-0.1-0.3-0.3-0.4-0.5c-0.8-1.6-1.6-3.2-2.4-4.8c-0.1-0.2-0.3-0.4-0.5-0.4c-0.9,0-1.7,0-2.6,0
		c0,3.1,0,6.1,0,9.1c0.7,0,1.4,0,2.1,0c0-1.9,0-3.7,0-5.5c0,0,0.1,0,0.1,0c0.1,0.2,0.2,0.4,0.3,0.5c0.8,1.5,1.6,3,2.4,4.6
		c0.1,0.2,0.3,0.4,0.5,0.4c0.9,0,1.7,0,2.6,0c0-3.1,0-6.1,0-9.2c-0.7,0-1.4,0-2.1,0C56.4,38.1,56.4,40,56.4,41.8z"/>
	<path class="st0" d="M4.6,41.9c0.3,0,0.6,0.1,1,0.1c0,0.2,0,0.4,0,0.5c0,1-0.1,1.1-1,1.1c-1.2,0-1.9-0.7-2.1-1.9
		c-0.3-2.3,0.9-3.7,3.2-3.5c0.5,0,1,0.2,1.5,0.3c0.2,0,0.3,0.1,0.5,0.1c0-0.6,0-1.2-0.1-1.7c0-0.2-0.3-0.4-0.4-0.4
		C6.1,36.2,5,36,4,36.1c-2,0.1-3.5,1.4-3.9,3.4C0,40.3,0,41.2,0.1,42c0.3,2.2,2,3.5,4.2,3.5c0.9,0,1.7-0.1,2.6-0.2
		C8,45.2,8,45.2,8,44.1c0-1.3,0-2.7,0-4c-1.2,0-2.2,0-3.3,0C4.6,40.7,4.6,41.3,4.6,41.9z"/>
	<path class="st0" d="M45.6,36c-2.4-0.1-4,1.2-4.4,3.5c-0.1,0.3-0.1,0.6-0.1,1.1c0,0.3,0,0.7,0.1,1.2c0.2,2,1.7,3.6,3.7,3.7
		c2.4,0.2,4.2-0.9,4.7-3c0.2-0.9,0.2-1.8,0.1-2.7C49.4,37.5,47.8,36.1,45.6,36z M46.9,42.7c-0.7,1.1-2.3,1.1-3,0
		c-0.7-1-0.7-2.8,0-3.8c0.8-1.1,2.3-1.1,3,0c0.3,0.5,0.5,1.2,0.7,1.9C47.4,41.5,47.3,42.1,46.9,42.7z"/>
	<path class="st0" d="M24.3,11.7c-1.9,0-3.6,0-5.5,0c0.9,1.8,1.8,3.5,2.7,5.3C22.5,15.1,23.3,13.5,24.3,11.7z"/>
	<path class="st0" d="M41.4,11.6c-1.9,0-3.6,0-5.5,0c0.9,1.8,1.8,3.5,2.7,5.3C39.6,15.1,40.5,13.4,41.4,11.6z"/>
	<path class="st0" d="M30,11.7c-1.9,0-3.6,0-5.5,0c0.9,1.8,1.8,3.5,2.7,5.3C28.2,15.2,29.1,13.5,30,11.7z"/>
	<path class="st0" d="M35.7,11.6c-1.9,0-3.6,0-5.5,0c0.9,1.8,1.8,3.5,2.7,5.3C33.9,15.1,34.8,13.4,35.7,11.6z"/>
	<path class="st0" d="M47.1,11.6c-1.9,0-3.6,0-5.5,0c0.9,1.8,1.8,3.5,2.7,5.3C45.4,15.1,46.2,13.4,47.1,11.6z"/>
	<path class="st0" d="M23.4,5.9c-1.3,0-2.5,0-3.7,0c0.6,1.2,1.2,2.3,1.9,3.6C22.2,8.2,22.8,7,23.4,5.9z"/>
	<path class="st0" d="M46.3,5.9c-1.3,0-2.5,0-3.7,0c0.6,1.2,1.2,2.3,1.9,3.6C45.1,8.2,45.7,7,46.3,5.9z"/>
	<path class="st0" d="M29.1,5.8c-1.3,0-2.5,0-3.8,0c0.6,1.2,1.2,2.3,1.9,3.6C27.9,8.2,28.5,7,29.1,5.8z"/>
	<path class="st0" d="M34.8,5.9c-1.3,0-2.5,0-3.7,0c0.6,1.2,1.2,2.3,1.9,3.6C33.6,8.2,34.2,7.1,34.8,5.9z"/>
	<path class="st0" d="M40.6,5.8c-1.3,0-2.5,0-3.8,0c0.6,1.2,1.2,2.4,1.9,3.6C39.3,8.2,39.9,7,40.6,5.8z"/>
	<path class="st0" d="M22.6,0c-0.7,0-1.4,0-2.1,0c0.4,0.6,0.7,1.2,1.1,1.9C21.9,1.2,22.2,0.6,22.6,0z"/>
	<path class="st0" d="M28.3,0c-0.8,0-1.4,0-2.1,0c0.4,0.7,0.7,1.2,1.1,1.9C27.6,1.2,27.9,0.6,28.3,0z"/>
	<path class="st0" d="M34,0c-0.7,0-1.4,0-2.1,0c0.4,0.7,0.7,1.3,1.1,1.9C33.3,1.2,33.6,0.6,34,0z"/>
	<path class="st0" d="M39.7,0c-0.8,0-1.4,0-2.2,0c0.4,0.7,0.7,1.2,1.1,1.9C39.1,1.2,39.4,0.6,39.7,0z"/>
	<path class="st0" d="M45.4,0c-0.7,0-1.4,0-2.1,0c0.4,0.6,0.7,1.2,1.1,1.9C44.8,1.2,45.1,0.6,45.4,0z"/>
</g>
</svg>
