<?xml version="1.0" encoding="UTF-8"?><svg id="a" xmlns="http://www.w3.org/2000/svg" viewBox="0 0 1011.42 197.17"><path d="M417.65,197.17c-.01-63.49-.03-126.99-.03-190.48,0-6.36.31-6.64,6.88-6.64,61.43-.01,122.86.01,184.28-.04,4.1,0,6.96.24,6.94,5.7-.15,63.16-.11,126.32-.12,189.49,0,.66-.08,1.32-.12,1.99h-197.84ZM423.8,98.68c0,28.68.08,57.36-.08,86.04-.02,4.57,1.14,6.46,6.12,6.44,57.77-.14,115.54-.13,173.31-.01,4.72,0,6.39-1.42,6.38-6.24-.13-57.53-.13-115.06,0-172.59.01-4.87-1.77-6.21-6.43-6.2-57.6.11-115.2.07-172.81.08-6.31,0-6.48.18-6.49,6.42-.02,28.68,0,57.36,0,86.04ZM0,140.45c1.66.01,3.33.04,4.99.03,6.8-.03,7.01-.21,7.03-6.99.02-8.12-.02-16.25.02-24.37.03-6.14.3-6.42,6.55-6.43,16.65-.03,33.3.02,49.94-.04,4.68-.02,6.16-1.89,5.33-6.05-.72-3.58-3.5-3-5.9-3-16.81-.05-33.63-.11-50.44.03-4.11.03-5.73-1.45-5.53-5.53.22-4.47.03-8.95.05-13.43.03-6.54.25-6.79,6.68-6.8,17.48-.02,34.96-.03,52.44,0,3.31,0,5.95-.32,5.88-4.69-.06-4.05-2.47-4.45-5.62-4.44-23.81.07-47.61.09-71.42.13v81.59ZM707.94,100.61c11.06,3.47,13.44,11.42,13.93,20.84.32,6.04,1.57,12.02,2.41,18.05-8.71,3.02-12.15,1.21-13.45-7.41-.49-3.25-.37-6.6-.55-9.9-.51-9.68-4.63-15.21-14.16-16.28-10.03-1.12-20.22-.87-30.34-1.13-4.65-.12-9.32.13-13.97-.06-3.84-.16-5.39,1.32-5.32,5.21.17,8.28-.15,16.57.12,24.84.16,4.84-2.14,5.8-6.38,5.82-4.29.02-5.88-1.51-5.86-5.82.13-23.35.14-46.71,0-70.06-.03-4.56,1.64-6.07,6.15-6.02,18.29.18,36.6-.18,54.88.24,5.53.13,11.2,1.59,16.47,3.42,6.79,2.35,10.79,7.61,11.57,14.86.88,8.15-1.2,15.14-8.72,19.65-1.84,1.1-3.75,2.09-6.78,3.77ZM674.11,67.94s0-.04,0-.06c-7.65,0-15.31.04-22.96-.02-3.08-.03-4.64,1.18-4.6,4.39.08,6.46-.2,12.94.21,19.37.09,1.4,2.43,3.79,3.76,3.81,15.3.22,30.61.3,45.91-.09,5.42-.14,10.54-2.31,13.24-7.57,4.88-9.53-1.2-19.2-12.61-19.76-7.63-.37-15.3-.07-22.96-.07ZM195.47,100.68c11.74,2.98,13.76,11.41,14.51,20.84.48,6.04,1.5,12.05,2.28,18.12-9.66,3.07-13.19.66-13.55-9.32-.13-3.63-.32-7.28-.85-10.87-1.23-8.38-4.85-12.67-13.4-13.57-9.88-1.04-19.89-.87-29.84-1.12-4.99-.12-9.98.08-14.97-.04-3.42-.08-4.77,1.41-4.74,4.76.09,8.45-.14,16.9.08,25.34.11,4.4-1.72,5.74-5.93,5.75-4.32.01-6.34-1.14-6.3-5.89.17-23.35.16-46.71,0-70.06-.03-4.64,1.78-6,6.21-5.95,17.96.17,35.93-.16,53.88.22,5.38.11,10.94,1.31,16.03,3.1,8.32,2.93,12.7,9.35,12.99,18.21.3,8.92-4.85,14.4-12.21,18.33-.58.31-1.25.46-1.85.73-.44.2-.83.49-2.33,1.41ZM162.07,67.93s0-.04,0-.06c-7.49,0-14.98.04-22.47-.02-3.03-.02-4.7,1.09-4.67,4.34.07,6.46-.2,12.94.21,19.38.09,1.42,2.42,3.83,3.74,3.85,15.31.23,30.63.38,45.93-.12,5.8-.19,11.02-3.05,13.43-8.91,3.84-9.31-2.42-17.83-13.71-18.39-7.47-.37-14.98-.07-22.47-.07ZM237.38,61.97c-8.16,3.98-12.46,10.34-12.1,19.42.36,9.26,6.52,14.08,14.6,16.07,10.62,2.62,21.54,4.05,32.24,6.35,7.1,1.53,14.31,3.09,21.01,5.78,5.82,2.34,7.41,8.53,3.94,13.78-1.87,2.83-5.05,5.37-8.2,6.69-9.77,4.09-20.13,3.91-30.48,2.78-11.46-1.25-20.9-4.98-24.38-17.63-1.32-4.78-6.26-2.44-9.6-2.29-.53.02-1.61,3.92-1.21,5.76,1.91,8.65,7.03,15.23,15.29,18.41,18.87,7.25,38.09,7.26,57.15.76,6.23-2.12,11.52-6.18,14.05-12.64,4.84-12.38-.62-22.75-14.59-26.37-9.31-2.41-18.97-3.42-28.42-5.33-7.32-1.48-14.63-3.09-21.78-5.2-3.75-1.11-6.63-3.78-6.94-8.24-.32-4.56,1.92-7.69,5.71-9.67,2.77-1.45,5.74-3.03,8.76-3.37,6.73-.76,13.57-1.27,20.33-1,10.37.41,19.75,2.75,23.88,14.29,1.62,4.52,6.39,2.27,9.77,2.03.5-.03,1.67-4.29.91-5.75-2.17-4.14-4.47-8.74-8.01-11.53-9.64-7.59-21.45-8.25-33.22-8.35-9.93-.15-19.6.83-28.7,5.26ZM1005.93,140.46c4.53-.03,6.6-2.34,4.9-6.12-.7-1.54-3.79-2.81-5.81-2.83-19.64-.21-39.28-.21-58.93-.07-4.25.03-6.09-1.29-5.89-5.7.26-5.46.04-10.94.06-16.41.03-6.4.26-6.64,6.84-6.65,18.14-.02,36.29.02,54.43-.03,4.93-.01,6.25-1.56,5.63-5.8-.52-3.63-3.21-3.27-5.67-3.27-18.48-.03-36.95-.08-55.43.02-3.78.02-6.07-.8-5.85-5.2.23-4.63.02-9.28.05-13.92.03-6.39.26-6.62,6.85-6.63,18.81-.02,37.62-.03,56.43,0,3.36,0,5.89-.45,5.79-4.78-.09-4.13-2.62-4.36-5.69-4.35-23.3.02-46.61.07-69.91-.04-4.04-.02-5.65,1.39-5.63,5.5.11,23.54.12,47.08-.02,70.62-.03,4.39,1.7,5.79,5.93,5.73,11.82-.17,23.64-.06,35.46-.06,12.15,0,24.3.04,36.46-.03ZM838.03,139.26c-8.84,2.9-12.33,1.74-16.32-5.2-2.73-4.74-4.99-9.77-8.02-14.3-1.24-1.86-3.93-3.83-6-3.88-14.63-.33-29.27-.33-43.9,0-2.13.05-4.9,1.85-6.17,3.68-3.12,4.47-5.53,9.42-8.23,14.17-4.23,7.42-6.09,8.17-15.42,5.84.47-1.35.74-2.76,1.41-3.95,13.83-24.35,27.79-48.63,41.52-73.03,2.71-4.82,6.91-3.57,10.9-3.86,3.37-.25,5.45,1.03,7.16,4.07,13.28,23.52,26.75,46.93,40.13,70.39,1.05,1.84,1.86,3.81,2.94,6.07ZM765.04,105.95h41.17c-6.95-12.54-13.42-24.23-20.42-36.87-7.14,12.69-13.77,24.47-20.75,36.87ZM318.59,58.72c-3.32-.01-5.93.31-5.9,4.66.03,4.48,2.91,4.48,6.08,4.47,9.32-.02,18.64.18,27.95-.08,4.66-.13,6.12,1.69,5.98,6.14-.25,8.11-.07,16.23-.07,24.35,0,12.26-.1,24.52.12,36.78.03,1.75,1.21,4.51,2.56,5.04,6.1,2.42,9.41-.09,9.42-6.6.02-19.88.11-39.76-.06-59.64-.04-4.53,1.52-6.2,6.08-6.06,8.31.25,16.64.21,24.95,0,3.23-.08,7.94,1.79,8.06-4.37.12-6.14-4.49-4.59-7.81-4.62-12.64-.12-25.29-.05-37.93-.05-13.14,0-26.29.03-39.43-.02ZM832.1,58.75c-3.31,0-6.95-.62-6.87,4.66.08,5.37,3.92,4.39,7.09,4.42,8.49.08,16.97.02,25.46.03q7.36.01,7.38,7.56c0,19.72.05,39.44-.03,59.16-.02,3.69.71,5.96,5.16,5.99,4.38.03,6.27-1.26,6.22-5.96-.19-19.88-.09-39.77-.07-59.66,0-7.07.03-7.08,7.33-7.09,7.99-.01,15.98.19,23.96-.09,3.3-.12,8.4,2.17,8.54-4.34.14-6.52-4.92-4.56-8.29-4.61-12.31-.18-24.63-.07-36.94-.07-12.98,0-25.96,0-38.94,0ZM101.13,64.39c.07-4.39-1.69-5.75-5.91-5.73-4.18.02-5.48,1.71-5.46,5.68.1,23.5.12,47-.02,70.49-.03,4.39,1.7,5.77,5.92,5.74,4.15-.03,5.51-1.7,5.46-5.69-.16-11.75-.06-23.5-.06-35.25,0-11.75-.13-23.5.07-35.25ZM563.05,97.05c17.1-8.92,22.82-32.77,11.41-48.37-7.47-10.21-18.95-12.82-30.44-13.59-16.4-1.11-32.89-.77-49.34-1.29-4.85-.15-6.33,1.68-6.33,6.37,0,4.67,1.84,6,6.25,5.94,13.98-.18,27.97-.4,41.94.11,5.5.2,11.11,1.8,16.36,3.65,8.12,2.85,11.93,9.56,12.32,17.69.39,8.19-2.62,15.22-9.98,19.89-6.83,4.33-14.43,5.94-22.33,6.06-12.98.19-25.97.16-38.95,0-4.11-.05-5.52,1.53-5.58,5.57-.06,4.4,1.72,5.7,5.94,5.73,14.96.12,29.93.12,44.86.98,13.89.8,19.7,7.99,20.35,21.94.45,9.72,1.81,19.4,3.1,29.06.25,1.87,1.86,4.87,3.15,5.05,4.58.62,9.29.24,14.65.24-5.77-11.1-5.2-22.18-5.68-33-.54-12.18-3.16-22.99-15.44-29.94,1.76-.99,2.74-1.58,3.75-2.11ZM481.74,40.23c0-5.77-.98-6.43-6.74-6.33-3.5.07-4.52,2.07-5.23,4.85-2.74,10.73-10,16.42-20.68,18.25-2.79.48-5.55,1.19-8.36,1.42-3.59.3-5.51,1.62-5.21,5.57.33,4.31,3.39,3.82,6.17,3.84,6.66.05,13.32,0,19.98.02,6.6.02,6.8.2,6.8,6.64.02,27.2,0,54.39.02,81.59,0,6.05.42,6.4,6.6,6.4,6.23,0,6.63-.33,6.64-6.35.03-19.24.01-38.47.01-57.71,0-19.4.02-38.81-.01-58.21Z" fill="#000" stroke-width="0"/></svg>