<?xml version="1.0" encoding="UTF-8"?>
<svg id="Layer_2" data-name="Layer 2" xmlns="http://www.w3.org/2000/svg" viewBox="0 0 600.1 102.3">
  <defs>
    <style>
      .cls-1 {
        fill: #fff;
        stroke-width: 0px;
      }
    </style>
  </defs>
  <g id="Layer_1-2" data-name="Layer 1">
    <path class="cls-1" d="M594.9,25.7c2.9,0,5.2,2.3,5.2,5.2s-2.3,5.2-5.2,5.2-5.2-2.3-5.2-5.2,2.3-5.2,5.2-5.2M594.9,26.3c2.6,0,4.6,2.1,4.6,4.6s-2.1,4.6-4.6,4.6-4.6-2.1-4.6-4.6,2-4.6,4.6-4.6M595,30.3c.5,0,.9-.1,1.1-.2.2-.2.3-.4.3-.8s-.1-.6-.3-.8c-.2-.2-.6-.2-1.2-.2h-1.3v2h1.4ZM592.7,34.2v-6.8h2.4c.8,0,1.3.2,1.7.5s.6.7.6,1.3c0,.4-.1.8-.3,1-.2.3-.5.5-.9.6.3.1.5.2.7.3.1.1.2.4.3.7,0,.1.1.4.1,1,.1.5.2,1,.3,1.4h-1c-.1-.4-.2-.8-.2-1.4-.1-.5-.1-.9-.2-1-.1-.3-.2-.4-.4-.5s-.5-.2-.9-.2h-1.1v3.1h-1.1,0ZM548.8,27.5h36.7c-1.4,3.8-2.8,7.6-4.2,11.4h-18.3c-2.2,6-4.4,12.1-6.6,18.1h17.1c-1.4,3.8-2.8,7.6-4.1,11.4h-17.1c-1.3,3.6-2.5,7.2-3.9,10.7-1.3,3.6-2.6,7.1-3.9,10.7h19.9c-1.3,3.8-2.7,7.5-4.1,11.3h-38.2c2.3-6.1,4.5-12.2,6.7-18.3s4.4-12.3,6.6-18.4c2.2-6.1,4.5-12.3,6.7-18.4,2.2-6.2,4.4-12.4,6.7-18.5M537,47.9c-.3,1-.7,1.9-1.1,2.8h-17.7c.2-.5.3-1.1.5-1.6,1.7-4.7,2.4-7.8,2-9.2s-1.7-2.2-3.9-2.2-4.1.8-5.5,2.2c-1.4,1.4-3,4.5-4.7,9.2-1.8,5.1-3.7,10.2-5.5,15.2-1.8,5.1-3.6,10.2-5.4,15.2-1.7,4.6-2.4,7.7-2,9.2s1.8,2.2,4,2.2,4-.7,5.3-2.1c1.4-1.4,2.8-4.1,4.2-8,.5-1.4,1-2.8,1.5-4.1h17.7c-.5,1.4-1,2.7-1.4,4-2.9,8-6.7,13.6-11.3,16.8-4.6,3.1-11.1,4.7-19.7,4.7-9.3,0-15.2-1.8-17.5-5.5-1.1-1.8-1.6-4.5-1.2-7.9s1.4-7.7,3.2-12.7c1.4-3.9,2.8-7.9,4.3-11.8,1.4-3.9,2.8-7.9,4.3-11.9,1.8-5,3.8-9.2,5.9-12.6,2.1-3.4,4.5-6.1,7-7.9,4.9-3.7,12.2-5.6,21.5-5.6,8.5,0,14,1.6,16.3,4.8,2.4,3.2,2.1,8.8-.8,16.8M447.2,27.5h22.2c8.7,0,14.6,1.4,17.3,4,2.8,2.7,3.2,7.1,1,13.1-.4,1-.8,2.1-1.1,3.1-1.9,5.3-4.7,9.2-8.3,11.8-3.7,2.6-8.8,4.2-15.4,5,6.4.5,10.4,2.1,12,4.7,1.6,2.7,1.3,7.3-1.1,13.9-2.2,6-4.3,12-6.5,18h-18.3c1.3-3.7,2.7-7.5,4-11.3,1.3-3.7,2.7-7.5,4.1-11.3,1.3-3.7,1.6-6,.7-7s-3.1-1.5-6.8-1.5h-2c-1.9,5.2-3.7,10.4-5.6,15.5-1.9,5.2-3.7,10.3-5.6,15.5h-17.2c2.2-6.1,4.4-12.2,6.6-18.3s4.4-12.2,6.6-18.4c2.2-6.1,4.4-12.3,6.6-18.4,2.3-6.1,4.5-12.3,6.8-18.4M460.4,38.5c-1.3,3.5-2.5,6.9-3.7,10.4-1.3,3.5-2.5,6.9-3.7,10.4h1.7c3.6,0,6.2-.6,8.1-1.8,1.8-1.2,3.3-3.4,4.4-6.6.5-1.3.9-2.6,1.4-3.9,1.1-3.2,1.3-5.4.3-6.6-.9-1.2-3.2-1.8-6.8-1.8h-1.7v-.1h0ZM394.7,27.5h18.3c-1.5,4.4-3.1,8.7-4.7,13.1-1.6,4.3-3.1,8.7-4.6,13-1.6,4.3-3.1,8.7-4.7,13-1.5,4.3-3.1,8.7-4.7,13-1.7,4.7-2.3,7.7-1.9,9.1s1.7,2.1,4,2.1,4.1-.7,5.5-2.1c1.3-1.4,2.9-4.5,4.6-9.2,1.6-4.3,3.1-8.7,4.6-13s3.1-8.7,4.7-13c1.5-4.3,3.1-8.7,4.7-13s3.1-8.7,4.7-13.1h18.4c-1.4,4.1-2.9,8.2-4.4,12.2-1.4,4.1-2.9,8.1-4.4,12.2s-2.9,8.1-4.4,12.2-2.9,8.1-4.4,12.2c-1.8,5-3.9,9.2-5.9,12.6-2.1,3.4-4.4,6.1-6.8,7.9-4.9,3.8-11.9,5.6-21.1,5.6s-14.8-1.8-17.1-5.5c-1.1-1.8-1.6-4.5-1.2-7.9s1.4-7.6,3.2-12.7c1.4-4,2.9-8.1,4.4-12.2,1.5-4,2.9-8.1,4.4-12.2,1.5-4,2.9-8.1,4.4-12.2,1.5-4,2.9-8.1,4.4-12.1M382.6,52.5c-1.4,4-2.8,7.9-4.2,11.9-1.4,3.9-2.8,7.9-4.2,11.8-1.8,5-3.8,9.2-5.9,12.6s-4.3,6-6.9,7.9c-5,3.7-11.9,5.6-21.3,5.6s-15.2-1.8-17.5-5.5c-1.1-1.8-1.6-4.5-1.2-7.9s1.3-7.7,3.1-12.7c1.4-3.9,2.8-7.9,4.2-11.8,1.4-3.9,2.8-7.9,4.2-11.9,1.8-5,3.7-9.2,5.8-12.6,2.1-3.4,4.4-6.1,6.9-7.9,5-3.8,12.1-5.6,21.4-5.6s15.2,1.9,17.4,5.6c1.2,1.9,1.6,4.5,1.2,7.9-.2,3.4-1.2,7.6-3,12.6M365.5,49.1c1.7-4.8,2.3-7.9,1.9-9.3s-1.9-2.1-4.4-2.1-4.4.7-5.9,2.2c-1.5,1.4-3,4.6-4.7,9.2-1.8,5.1-3.7,10.2-5.5,15.2-1.8,5.1-3.6,10.1-5.4,15.2-1.7,4.7-2.3,7.8-1.9,9.2.5,1.4,1.9,2.1,4.3,2.1s4.5-.7,5.9-2.2c1.5-1.4,3.1-4.5,4.7-9.1,1.8-5.1,3.6-10.1,5.5-15.2,2-5,3.7-10.1,5.5-15.2M336.6,23.6c-.8,2.5-1.6,5-2.3,7.5h-21c.9-2.9,1.8-5.9,2.7-8.8.8-2.6,1-4.5.5-5.6s-1.7-1.6-3.7-1.6-3.4.5-4.5,1.6-2.1,3-2.9,5.6c-.7,2.2-1.3,4.3-2,6.5-.8,2.5-.8,4.7-.1,6.7.7,1.9,2.5,4.3,5.3,6.8,2.3,2.1,4.6,4.2,6.9,6.3.4.3.9.8,1.7,1.5,3.4,3,5.3,5.7,6.2,8.1.6,1.8.8,3.9.7,6.1-.2,2.3-.9,5-1.8,8.2-.6,2-1.3,4-1.9,6-2.4,7.6-6.5,13.5-12.8,17.6-6.2,4.1-14,6.1-23.2,6.1s-15.9-1.9-18.8-5.7c-2.9-3.8-3-10.2-.2-19.1.8-2.4,1.5-4.9,2.2-7.3h21.8c-.9,2.8-1.7,5.6-2.6,8.4-.9,3-1.2,5.2-.6,6.5s2,1.9,4.2,1.9,4.1-.6,5.3-1.8,2.4-3.4,3.4-6.6c.4-1.2.8-2.6,1.2-3.8.8-2.8.9-5.1.3-7.2-.6-2-2.8-4.7-6.5-8-2.3-2.1-4.5-4.3-6.9-6.4-3.4-3-5.6-6.2-6.4-9.7-.7-3.4-.4-7.6,1-12.3.9-2.9,1.9-5.8,2.8-8.7,2.1-6.7,6.2-12.1,12.6-16.2,6.5-4.1,14-6.2,22.4-6.2s13.4,2,16.3,6c2.8,4,3.1,9.9.7,17.6M242.8,25.4h36.4c-1.4,3.8-2.7,7.6-4,11.4h-18.1c-2.1,6-4.3,12.1-6.4,18.1h16.7c-1.3,3.8-2.7,7.6-4,11.4h-16.8c-1.3,3.6-2.5,7.2-3.8,10.7-1.3,3.6-2.5,7.1-3.8,10.7h19.7c-1.4,3.8-2.7,7.5-4,11.3h-37.9c2.2-6.1,4.3-12.2,6.5-18.4,2.2-6.1,4.3-12.3,6.5-18.4s4.3-12.3,6.5-18.4c2.1-6.1,4.4-12.3,6.5-18.4M165.2,27.5h25.1c-.9,4.4-1.8,8.8-2.7,13.2s-1.7,8.8-2.6,13.2c-.9,4.4-1.8,8.8-2.7,13.2-.9,4.4-1.7,8.8-2.5,13.2h.9c2.3-4.4,4.6-8.8,6.9-13.2,2.3-4.4,4.6-8.8,6.9-13.2,2.3-4.4,4.6-8.8,6.9-13.2,2.3-4.4,4.6-8.8,7-13.2h24.7c-2.2,6.2-4.3,12.3-6.5,18.4s-4.3,12.3-6.5,18.4c-2.2,6.1-4.3,12.3-6.5,18.4s-4.3,12.3-6.5,18.4h-15.2c1.8-5,3.5-10,5.3-15.1,1.8-5,3.5-10.1,5.3-15.1s3.5-10.1,5.3-15.1,3.6-10.1,5.4-15.1h-1.2c-2.7,5-5.4,10.1-8,15.1s-5.3,10.1-7.9,15.1c-2.6,5-5.3,10.1-7.9,15.1-2.6,5-5.3,10.1-7.9,15.1h-16.4c1-5,2-10,3-15.1,1-5,2-10.1,3-15.1s2-10.1,3-15.1,2-10.1,3-15.1h-1c-1.8,5-3.5,10.1-5.3,15.1s-3.5,10.1-5.3,15.1-3.5,10.1-5.3,15.1-3.5,10.1-5.3,15.1h-14.3c2.1-6.1,4.3-12.2,6.4-18.3,2.1-6.1,4.3-12.3,6.4-18.4,2.1-6.1,4.3-12.3,6.4-18.4,2.3-6.2,4.5-12.4,6.6-18.5M141.9,27.5h18.3c-2.1,6.2-4.3,12.3-6.4,18.4-2.1,6.1-4.3,12.3-6.4,18.4-2.1,6.1-4.3,12.3-6.4,18.4-2.1,6.1-4.3,12.2-6.4,18.3h-18.4c2.1-6.1,4.3-12.2,6.4-18.4,2.1-6.1,4.3-12.3,6.4-18.4,2.1-6.1,4.3-12.3,6.4-18.4,2.2-6,4.4-12.2,6.5-18.3M90.6,27.5h22.2c8.7,0,14.5,1.3,17.4,4,2.8,2.6,3.3,7,1.2,13.1-.4,1-.7,2.1-1.1,3.1-1.8,5.3-4.7,9.2-8.2,11.8-3.6,2.6-8.8,4.2-15.3,5,6.4.5,10.4,2.1,12.1,4.7,1.7,2.7,1.4,7.3-.9,13.9-2.1,6-4.2,12-6.3,18h-18.3c1.3-3.8,2.6-7.5,3.9-11.3s2.6-7.5,4-11.3c1.3-3.7,1.5-6,.6-7s-3.2-1.5-6.9-1.5h-2c-1.8,5.2-3.6,10.4-5.4,15.5-1.8,5.2-3.6,10.3-5.4,15.5h-17.2c2.1-6.1,4.3-12.2,6.4-18.4,2.1-6.1,4.3-12.3,6.4-18.4s4.3-12.3,6.4-18.4c2.1-6,4.3-12.2,6.4-18.3M103.9,38.5c-1.2,3.5-2.4,6.9-3.6,10.4-1.2,3.4-2.4,6.9-3.6,10.3h1.6c3.6,0,6.3-.6,8-1.8,1.8-1.2,3.3-3.4,4.4-6.6.4-1.3.9-2.6,1.4-3.9,1.1-3.2,1.1-5.4.2-6.6-.9-1.2-3.2-1.8-6.7-1.8,0,0-1.7,0-1.7,0ZM33.1,4.6h24.7c12.7,0,21,2,24.9,6.1,3.8,4,4.1,10.9.8,20.5-.7,2.1-1.5,4.2-2.2,6.3-3.1,9.1-7.9,15.8-14.3,20-6.4,4.3-14.9,6.4-25.4,6.4h-6.7c-2.2,6.3-4.3,12.6-6.5,19-2.1,6.3-4.2,12.6-6.4,18.9H0c2.8-8.1,5.5-16.2,8.3-24.3,2.8-8.1,5.5-16.2,8.2-24.3,2.7-8.1,5.5-16.2,8.2-24.3,2.8-8.1,5.6-16.2,8.4-24.3M50.2,19.1c-1.7,5.1-3.5,10.2-5.2,15.2-1.7,5.1-3.4,10.2-5.1,15.2h2c4.3,0,7.6-.9,9.9-2.7,2.3-1.8,4.4-5,5.9-9.7.6-1.9,1.3-3.9,2-5.8,1.6-4.6,1.8-7.8.7-9.6-1.1-1.8-3.8-2.7-8-2.7h-2.2s0,.1,0,.1Z"/>
  </g>
</svg>