<?xml version="1.0" encoding="UTF-8"?>
<svg id="Layer_1" data-name="Layer 1" xmlns="http://www.w3.org/2000/svg" xmlns:xlink="http://www.w3.org/1999/xlink" version="1.1" viewBox="0 0 2004 556">
  <defs>
    <style>
      .cls-1 {
        fill: #000;
      }

      .cls-1, .cls-2, .cls-3, .cls-4, .cls-5 {
        stroke-width: 0px;
      }

      .cls-2 {
        fill: #1bb16a;
      }

      .cls-3 {
        fill: #082029;
      }

      .cls-4 {
        fill: #fff;
      }

      .cls-5 {
        fill: #f7f7f7;
      }
    </style>
  </defs>
  <g>
    <path class="cls-5" d="M325.9,473H27.8c-6,0-10.8-4.8-10.8-10.8V83.8c0-6,4.8-10.8,10.8-10.8h298c6,0,10.8,4.8,10.8,10.8v378.4c0,6-4.8,10.8-10.8,10.8Z"/>
    <path class="cls-3" d="M325.9,474H27.8c-6.5,0-11.8-5.3-11.8-11.8V83.8c0-6.5,5.3-11.8,11.8-11.8h298c6.5,0,11.8,5.3,11.8,11.8v378.4c0,6.5-5.3,11.8-11.8,11.8ZM27.8,74c-5.4,0-9.8,4.4-9.8,9.8v378.4c0,5.4,4.4,9.8,9.8,9.8h298c5.4,0,9.8-4.4,9.8-9.8V83.8c0-5.4-4.4-9.8-9.8-9.8H27.8Z"/>
  </g>
  <g>
    <path class="cls-5" d="M723.7,473h-298c-6,0-10.8-4.8-10.8-10.8V83.8c0-6,4.8-10.8,10.8-10.8h298c6,0,10.8,4.8,10.8,10.8v378.4c0,6-4.8,10.8-10.8,10.8Z"/>
    <path class="cls-3" d="M723.7,474h-298c-6.5,0-11.8-5.3-11.8-11.8V83.8c0-6.5,5.3-11.8,11.8-11.8h298c6.5,0,11.8,5.3,11.8,11.8v378.4c0,6.5-5.3,11.8-11.8,11.8ZM425.6,74c-5.4,0-9.8,4.4-9.8,9.8v378.4c0,5.4,4.4,9.8,9.8,9.8h298c5.4,0,9.8-4.4,9.8-9.8V83.8c0-5.4-4.4-9.8-9.8-9.8h-298Z"/>
  </g>
  <g>
    <path class="cls-5" d="M1121.5,473h-298c-6,0-10.8-4.8-10.8-10.8V83.8c0-6,4.8-10.8,10.8-10.8h298c6,0,10.8,4.8,10.8,10.8v378.4c0,6-4.8,10.8-10.8,10.8Z"/>
    <path class="cls-3" d="M1121.5,474h-298c-6.5,0-11.8-5.3-11.8-11.8V83.8c0-6.5,5.3-11.8,11.8-11.8h298c6.5,0,11.8,5.3,11.8,11.8v378.4c0,6.5-5.3,11.8-11.8,11.8ZM823.4,74c-5.4,0-9.8,4.4-9.8,9.8v378.4c0,5.4,4.4,9.8,9.8,9.8h298c5.4,0,9.8-4.4,9.8-9.8V83.8c0-5.4-4.4-9.8-9.8-9.8h-298Z"/>
  </g>
  <g>
    <path class="cls-5" d="M1519.2,473h-298c-6,0-10.8-4.8-10.8-10.8V83.8c0-6,4.8-10.8,10.8-10.8h298c6,0,10.8,4.8,10.8,10.8v378.4c0,6-4.8,10.8-10.8,10.8Z"/>
    <path class="cls-3" d="M1519.2,474h-298c-6.5,0-11.8-5.3-11.8-11.8V83.8c0-6.5,5.3-11.8,11.8-11.8h298c6.5,0,11.8,5.3,11.8,11.8v378.4c0,6.5-5.3,11.8-11.8,11.8ZM1221.2,74c-5.4,0-9.8,4.4-9.8,9.8v378.4c0,5.4,4.4,9.8,9.8,9.8h298c5.4,0,9.8-4.4,9.8-9.8V83.8c0-5.4-4.4-9.8-9.8-9.8h-298Z"/>
  </g>
  <g>
    <path class="cls-2" d="M1917,473h-298c-6,0-10.8-4.8-10.8-10.8V83.8c0-6,4.8-10.8,10.8-10.8h298c6,0,10.8,4.8,10.8,10.8v378.4c0,6-4.8,10.8-10.8,10.8Z"/>
    <path class="cls-3" d="M1917,474h-298c-6.5,0-11.8-5.3-11.8-11.8V83.8c0-6.5,5.3-11.8,11.8-11.8h298c6.5,0,11.8,5.3,11.8,11.8v378.4c0,6.5-5.3,11.8-11.8,11.8ZM1619,74c-5.4,0-9.8,4.4-9.8,9.8v378.4c0,5.4,4.4,9.8,9.8,9.8h298c5.4,0,9.8-4.4,9.8-9.8V83.8c0-5.4-4.4-9.8-9.8-9.8h-298Z"/>
  </g>
  <g>
    <rect class="cls-3" x="336.7" y="272" width="57.8" height="2"/>
    <polygon class="cls-3" points="387.9 281.2 386.5 279.7 393.7 273 386.5 266.3 387.9 264.8 396.7 273 387.9 281.2"/>
  </g>
  <g>
    <rect class="cls-3" x="734" y="272" width="57.8" height="2"/>
    <polygon class="cls-3" points="785.2 281.2 783.8 279.7 791.1 273 783.8 266.3 785.2 264.8 794 273 785.2 281.2"/>
  </g>
  <g>
    <rect class="cls-3" x="1132.7" y="272" width="57.8" height="2"/>
    <polygon class="cls-3" points="1183.9 281.2 1182.5 279.7 1189.7 273 1182.5 266.3 1183.9 264.8 1192.7 273 1183.9 281.2"/>
  </g>
  <g>
    <rect class="cls-3" x="1531.3" y="272" width="57.8" height="2"/>
    <polygon class="cls-3" points="1582.5 281.2 1581.2 279.7 1588.4 273 1581.2 266.3 1582.5 264.8 1591.3 273 1582.5 281.2"/>
  </g>
  <rect class="cls-3" x="544.7" y="719.5" width="1.3" height="1"/>
  <g>
    <path class="cls-3" d="M1974,523h-198c-5,0-9-4-9-9v-41h2v41c0,3.9,3.1,7,7,7h198c3.9,0,7-3.1,7-7V28c0-3.9-3.1-7-7-7h-198c-3.9,0-7,3.1-7,7v33.8h-2V28c0-5,4-9,9-9h198c5,0,9,4,9,9v486c0,5-4,9-9,9Z"/>
    <polygon class="cls-3" points="1759.8 55.2 1761.3 53.8 1768 61.1 1774.7 53.8 1776.2 55.2 1768 64 1759.8 55.2"/>
  </g>
  <g>
    <path class="cls-1" d="M49.8,130.9v-27.4h3.8l8,20c.2.4.3.9.5,1.4.2.5.3.9.5,1.3.1.4.3.8.3,1.1h.2c.1-.4.3-.8.4-1.3.2-.5.3-.9.5-1.4.2-.5.3-.8.4-1.1l8-20h3.8v27.4h-2.6v-18c0-.5,0-1.1,0-1.8,0-.7,0-1.5,0-2.3,0-.8,0-1.4,0-1.9h-.3c-.1.5-.3,1-.4,1.4-.1.5-.3.9-.5,1.4-.2.5-.3.9-.5,1.3l-8.1,20h-1.9l-8.1-19.9c-.2-.4-.3-.8-.5-1.3s-.3-.9-.5-1.4-.3-1-.4-1.5h-.3c0,.5,0,1.1,0,1.9s0,1.5,0,2.2c0,.7,0,1.4,0,2v18h-2.6Z"/>
    <path class="cls-1" d="M82.9,105.2v-3.2h2.3v3.2s-2.3,0-2.3,0ZM82.9,130.9v-21h2.3v21h-2.3Z"/>
    <path class="cls-1" d="M94.6,138.2c-1,0-2-.2-2.9-.7-.9-.5-1.6-1.1-2.1-1.9-.5-.8-.8-1.7-.8-2.7s.3-2.2.9-3.1c.6-.9,1.4-1.5,2.4-1.9-.7-.3-1.3-.7-1.6-1.3s-.5-1.2-.5-1.9.3-1.7.9-2.3c.6-.7,1.4-1.1,2.4-1.3-.9-.6-1.5-1.4-2.1-2.2-.5-.9-.8-1.8-.8-2.9s.3-2.3.9-3.3c.6-1,1.5-1.8,2.7-2.3,1.2-.6,2.7-.9,4.6-.9s1.7,0,2.5.2c.8.1,1.4.4,2.1.6.9-.3,1.7-.7,2.3-1.4.6-.6,1-1.4,1.1-2.4h2.4c0,.7-.2,1.4-.6,2.1-.3.7-.8,1.3-1.4,1.7s-1.3.8-2.2.9c.7.6,1.2,1.4,1.5,2.2s.5,1.6.5,2.5c0,1.2-.3,2.3-.9,3.3-.6,1-1.5,1.8-2.7,2.4-1.2.6-2.7.9-4.6.9h-3.4c-.9,0-1.6.2-2.1.5-.6.3-.9.9-.9,1.7s.3,1.2.9,1.6c.6.4,1.4.5,2.3.5h8c1.5,0,2.8.5,3.7,1.6,1,1.1,1.4,2.4,1.4,3.9s-.3,2.1-.8,3c-.5.9-1.3,1.6-2.2,2.1s-2.1.8-3.3.8h-7.8ZM94.9,136.3h7.4c.7,0,1.4-.2,2-.5.6-.3,1.1-.8,1.5-1.3.4-.6.6-1.2.6-1.8,0-1.1-.3-2-1-2.7-.6-.7-1.4-1-2.3-1h-8.2c-1,0-1.9.4-2.6,1.1-.7.7-1.1,1.6-1.1,2.7s.4,2,1.1,2.7c.7.7,1.6,1,2.6,1ZM98.7,120.5c2,0,3.4-.4,4.4-1.2.9-.8,1.4-1.9,1.4-3.4s-.5-2.5-1.4-3.3c-.9-.8-2.4-1.2-4.4-1.2s-3.4.4-4.4,1.2c-1,.8-1.4,1.9-1.4,3.3s.2,1.7.6,2.4c.4.7,1.1,1.2,1.9,1.6.9.4,1.9.6,3.2.6Z"/>
    <path class="cls-1" d="M112,130.9v-21h1.8l.2,3.6h.2c.2-.6.4-1.3.8-1.9.4-.6.9-1.1,1.5-1.6.7-.4,1.5-.6,2.5-.6s.7,0,1,0c.3,0,.5.1.6.2v2.1h-1.2c-1,0-1.8.2-2.5.6-.7.4-1.2.9-1.6,1.5-.4.6-.7,1.4-.9,2.2-.2.8-.3,1.6-.3,2.4v12.5h-2.3Z"/>
    <path class="cls-1" d="M129,131.4c-.9,0-1.8-.1-2.6-.3-.8-.2-1.5-.6-2.1-1-.6-.5-1.1-1.1-1.4-1.8-.3-.7-.5-1.6-.5-2.6s.4-2.7,1.1-3.6c.7-.9,1.8-1.6,3.1-2.1,1.3-.5,2.9-.8,4.6-1,1.8-.2,3.7-.3,5.8-.3v-3c0-.9-.2-1.7-.5-2.3-.3-.7-.9-1.1-1.8-1.5-.8-.3-2-.5-3.5-.5s-2.6.2-3.4.6c-.8.4-1.4.9-1.7,1.5-.3.6-.5,1.3-.5,2v.7h-2.2c0-.1,0-.3,0-.4v-.5c0-1.4.4-2.5,1.1-3.3.7-.9,1.7-1.5,3-1.9,1.3-.4,2.7-.6,4.4-.6s3,.2,4.1.7c1.1.5,2,1.2,2.6,2,.6.9.9,1.9.9,3.2v12.7c0,.5,0,.9.3,1,.2.2.4.3.8.3h1.8v1.4c-.5.2-.9.3-1.3.4-.4,0-.8.1-1.2.1-.7,0-1.3-.2-1.6-.5s-.6-.8-.7-1.3c-.1-.5-.2-1.2-.2-1.8h-.3c-.5.8-1.2,1.4-2,2-.8.5-1.7,1-2.7,1.2-1,.3-2,.4-3,.4ZM129.3,129.4c.9,0,1.8-.1,2.7-.4.9-.3,1.7-.7,2.4-1.3.7-.5,1.3-1.2,1.8-2,.5-.8.7-1.6.7-2.5v-2.5c-2.7,0-5,.1-6.8.4-1.8.3-3.1.8-4,1.5-.9.7-1.3,1.7-1.3,3s.2,1.6.6,2.2c.4.6.9,1,1.6,1.2.7.2,1.4.4,2.3.4Z"/>
    <path class="cls-1" d="M149.5,131.4c-.9,0-1.6-.1-2.1-.4s-.9-.7-1.1-1.3c-.2-.6-.3-1.2-.3-1.9v-15.8h-2.9v-2h2.9l.4-5.8h1.8v5.8h4.2v2h-4.2v15.2c0,.8.1,1.3.3,1.7.2.3.7.5,1.4.5h2.5v1.4c-.3.1-.6.2-.9.3-.3,0-.7.1-1.1.2-.4,0-.7,0-1,0Z"/>
    <path class="cls-1" d="M156.4,105.2v-3.2h2.3v3.2s-2.3,0-2.3,0ZM156.4,130.9v-21h2.3v21h-2.3Z"/>
    <path class="cls-1" d="M172.5,131.4c-2,0-3.7-.4-5-1.2-1.4-.8-2.4-2-3.2-3.6-.7-1.6-1.1-3.7-1.1-6.2s.4-4.6,1.1-6.2c.7-1.6,1.8-2.8,3.2-3.6,1.4-.8,3.1-1.2,5-1.2s3.7.4,5.1,1.2c1.4.8,2.4,2,3.2,3.6.7,1.6,1.1,3.7,1.1,6.2s-.4,4.6-1.1,6.2c-.7,1.6-1.8,2.8-3.2,3.6-1.4.8-3.1,1.2-5.1,1.2ZM172.5,129.4c1.4,0,2.7-.3,3.7-.9,1-.6,1.8-1.5,2.3-2.7.5-1.2.8-2.8.8-4.8v-1.1c0-2-.3-3.6-.8-4.8-.5-1.2-1.3-2.1-2.3-2.7-1-.6-2.3-.9-3.7-.9s-2.7.3-3.7.9c-1,.6-1.8,1.5-2.3,2.7-.5,1.2-.8,2.8-.8,4.8v1.1c0,2,.3,3.6.8,4.8.5,1.2,1.3,2.1,2.3,2.7,1,.6,2.2.9,3.7.9Z"/>
    <path class="cls-1" d="M186.2,130.9v-21h1.8l.3,3.4h.3c.6-1,1.3-1.8,2.1-2.4.8-.6,1.6-1,2.5-1.2.9-.2,1.8-.3,2.8-.3s2.5.2,3.5.6c1,.4,1.8,1.1,2.3,2.1.5,1,.8,2.3.8,3.9v14.8h-2.3v-14.7c0-1-.1-1.8-.4-2.4-.3-.6-.6-1.1-1.1-1.4-.5-.3-1-.6-1.6-.7-.6-.1-1.3-.2-2-.2-1.1,0-2.2.3-3.2.8-1,.5-1.9,1.3-2.5,2.4-.6,1-.9,2.3-.9,3.8v12.5h-2.3Z"/>
    <path class="cls-1" d="M46.4,178.9l11-27.4h3.6l11,27.4h-2.8l-3-7.6h-14.1l-3,7.6h-2.6ZM53,169h12.2l-3.8-9.6c0-.2-.2-.5-.4-1-.2-.4-.3-.9-.5-1.5-.2-.5-.4-1.1-.6-1.7-.2-.6-.4-1.1-.6-1.6h-.3c-.2.5-.4,1.1-.7,1.8-.3.7-.5,1.4-.8,2.1-.3.7-.5,1.3-.7,1.8l-3.8,9.6Z"/>
    <path class="cls-1" d="M81.8,179.4c-1.4,0-2.6-.1-3.6-.4s-1.9-.7-2.6-1.2-1.2-1.2-1.6-2c-.4-.8-.5-1.7-.5-2.7s0-.2,0-.4c0-.1,0-.3,0-.4h2.3c0,.2,0,.3,0,.4v.3c0,1.1.3,2,.8,2.6.5.6,1.2,1.1,2.2,1.3.9.2,2,.4,3.2.4s2-.2,2.8-.5c.8-.3,1.5-.8,2-1.3.5-.6.7-1.3.7-2.2s-.3-1.9-.9-2.4c-.6-.5-1.4-1-2.4-1.3-1-.3-2-.6-3.1-.9-.8-.2-1.7-.5-2.5-.8-.8-.3-1.6-.6-2.2-1.1-.7-.4-1.2-1-1.6-1.6-.4-.7-.6-1.5-.6-2.5s.2-1.6.5-2.3c.3-.7.8-1.3,1.5-1.8.7-.5,1.5-.9,2.4-1.1.9-.3,2-.4,3.3-.4s2.6.2,3.6.5c1,.3,1.7.8,2.3,1.3.6.6,1,1.2,1.2,1.9s.4,1.4.4,2.1v.3c0,.1,0,.2,0,.4h-2.3v-.6c0-.6-.1-1.1-.4-1.7-.3-.6-.8-1.1-1.5-1.5-.8-.4-1.9-.6-3.4-.6s-1.6,0-2.3.2c-.6.2-1.2.4-1.6.7-.4.3-.8.6-1,1.1-.2.4-.3.9-.3,1.5,0,.9.3,1.5.8,1.9s1.2.8,2,1c.8.3,1.7.5,2.6.9.9.3,1.9.6,2.8.9.9.3,1.8.7,2.6,1.1.8.4,1.4,1,1.9,1.7.5.7.7,1.6.7,2.7s-.2,1.9-.6,2.7c-.4.8-1,1.4-1.7,2-.7.5-1.6.9-2.6,1.2-1,.3-2.1.4-3.3.4Z"/>
    <path class="cls-1" d="M101.1,179.4c-1.4,0-2.6-.1-3.6-.4s-1.9-.7-2.6-1.2-1.2-1.2-1.6-2c-.4-.8-.5-1.7-.5-2.7s0-.2,0-.4c0-.1,0-.3,0-.4h2.3c0,.2,0,.3,0,.4v.3c0,1.1.3,2,.8,2.6.5.6,1.2,1.1,2.2,1.3.9.2,2,.4,3.2.4s2-.2,2.8-.5c.8-.3,1.5-.8,2-1.3.5-.6.7-1.3.7-2.2s-.3-1.9-.9-2.4c-.6-.5-1.4-1-2.4-1.3-1-.3-2-.6-3.1-.9-.8-.2-1.7-.5-2.5-.8-.8-.3-1.6-.6-2.2-1.1-.7-.4-1.2-1-1.6-1.6-.4-.7-.6-1.5-.6-2.5s.2-1.6.5-2.3c.3-.7.8-1.3,1.5-1.8.7-.5,1.5-.9,2.4-1.1.9-.3,2-.4,3.3-.4s2.6.2,3.6.5c1,.3,1.7.8,2.3,1.3.6.6,1,1.2,1.2,1.9s.4,1.4.4,2.1v.3c0,.1,0,.2,0,.4h-2.3v-.6c0-.6-.1-1.1-.4-1.7-.3-.6-.8-1.1-1.5-1.5-.8-.4-1.9-.6-3.4-.6s-1.6,0-2.3.2c-.6.2-1.2.4-1.6.7-.4.3-.8.6-1,1.1-.2.4-.3.9-.3,1.5,0,.9.3,1.5.8,1.9s1.2.8,2,1c.8.3,1.7.5,2.6.9.9.3,1.9.6,2.8.9.9.3,1.8.7,2.6,1.1.8.4,1.4,1,1.9,1.7.5.7.7,1.6.7,2.7s-.2,1.9-.6,2.7c-.4.8-1,1.4-1.7,2-.7.5-1.6.9-2.6,1.2-1,.3-2.1.4-3.3.4Z"/>
    <path class="cls-1" d="M121.6,179.4c-1.9,0-3.6-.4-5-1.2-1.4-.8-2.4-2-3.1-3.6-.7-1.6-1.1-3.7-1.1-6.2s.4-4.6,1.1-6.2c.7-1.6,1.8-2.8,3.2-3.6,1.4-.8,3.1-1.2,5.2-1.2s3.6.4,4.9,1.2c1.3.8,2.3,1.9,3,3.3s1,3.2,1,5.2v1.9h-15.8c0,2,.3,3.7.8,4.9.5,1.2,1.3,2.1,2.3,2.7,1,.5,2.2.8,3.6.8s2.1-.2,2.9-.5c.8-.3,1.5-.7,2-1.2.5-.5.9-1.1,1.2-1.8.3-.7.4-1.3.5-2h2.2c0,1-.2,1.9-.6,2.8-.3.9-.9,1.7-1.6,2.4s-1.6,1.3-2.8,1.7c-1.1.4-2.5.6-4,.6ZM114.9,167h13.4c0-1.4-.2-2.6-.5-3.6-.3-1-.8-1.8-1.4-2.4-.6-.6-1.3-1-2.1-1.3-.8-.3-1.7-.4-2.6-.4-1.4,0-2.6.3-3.6.8-1,.5-1.7,1.4-2.3,2.5-.5,1.1-.9,2.6-.9,4.3Z"/>
    <path class="cls-1" d="M141.8,179.4c-1.4,0-2.6-.1-3.6-.4s-1.9-.7-2.6-1.2-1.2-1.2-1.6-2c-.4-.8-.5-1.7-.5-2.7s0-.2,0-.4c0-.1,0-.3,0-.4h2.3c0,.2,0,.3,0,.4v.3c0,1.1.3,2,.8,2.6.5.6,1.2,1.1,2.2,1.3.9.2,2,.4,3.2.4s2-.2,2.8-.5c.8-.3,1.5-.8,2-1.3.5-.6.7-1.3.7-2.2s-.3-1.9-.9-2.4c-.6-.5-1.4-1-2.4-1.3-1-.3-2-.6-3.1-.9-.8-.2-1.7-.5-2.5-.8-.8-.3-1.6-.6-2.2-1.1-.7-.4-1.2-1-1.6-1.6-.4-.7-.6-1.5-.6-2.5s.2-1.6.5-2.3c.3-.7.8-1.3,1.5-1.8.7-.5,1.5-.9,2.4-1.1.9-.3,2-.4,3.3-.4s2.6.2,3.6.5c1,.3,1.7.8,2.3,1.3.6.6,1,1.2,1.2,1.9s.4,1.4.4,2.1v.3c0,.1,0,.2,0,.4h-2.3v-.6c0-.6-.1-1.1-.4-1.7-.3-.6-.8-1.1-1.5-1.5-.8-.4-1.9-.6-3.4-.6s-1.6,0-2.3.2c-.6.2-1.2.4-1.6.7-.4.3-.8.6-1,1.1-.2.4-.3.9-.3,1.5,0,.9.3,1.5.8,1.9s1.2.8,2,1c.8.3,1.7.5,2.6.9.9.3,1.9.6,2.8.9.9.3,1.8.7,2.6,1.1.8.4,1.4,1,1.9,1.7.5.7.7,1.6.7,2.7s-.2,1.9-.6,2.7c-.4.8-1,1.4-1.7,2-.7.5-1.6.9-2.6,1.2-1,.3-2.1.4-3.3.4Z"/>
    <path class="cls-1" d="M161.1,179.4c-1.4,0-2.6-.1-3.6-.4s-1.9-.7-2.6-1.2-1.2-1.2-1.6-2c-.4-.8-.5-1.7-.5-2.7s0-.2,0-.4c0-.1,0-.3,0-.4h2.3c0,.2,0,.3,0,.4v.3c0,1.1.3,2,.8,2.6.5.6,1.2,1.1,2.2,1.3.9.2,2,.4,3.2.4s2-.2,2.8-.5c.8-.3,1.5-.8,2-1.3.5-.6.7-1.3.7-2.2s-.3-1.9-.9-2.4c-.6-.5-1.4-1-2.4-1.3-1-.3-2-.6-3.1-.9-.8-.2-1.7-.5-2.5-.8-.8-.3-1.6-.6-2.2-1.1-.7-.4-1.2-1-1.6-1.6-.4-.7-.6-1.5-.6-2.5s.2-1.6.5-2.3c.3-.7.8-1.3,1.5-1.8.7-.5,1.5-.9,2.4-1.1.9-.3,2-.4,3.3-.4s2.6.2,3.6.5c1,.3,1.7.8,2.3,1.3.6.6,1,1.2,1.2,1.9s.4,1.4.4,2.1v.3c0,.1,0,.2,0,.4h-2.3v-.6c0-.6-.1-1.1-.4-1.7-.3-.6-.8-1.1-1.5-1.5-.8-.4-1.9-.6-3.4-.6s-1.6,0-2.3.2c-.6.2-1.2.4-1.6.7-.4.3-.8.6-1,1.1-.2.4-.3.9-.3,1.5,0,.9.3,1.5.8,1.9s1.2.8,2,1c.8.3,1.7.5,2.6.9.9.3,1.9.6,2.8.9.9.3,1.8.7,2.6,1.1.8.4,1.4,1,1.9,1.7.5.7.7,1.6.7,2.7s-.2,1.9-.6,2.7c-.4.8-1,1.4-1.7,2-.7.5-1.6.9-2.6,1.2-1,.3-2.1.4-3.3.4Z"/>
    <path class="cls-1" d="M173.8,178.9v-21h1.8l.3,3.4h.3c.6-1,1.3-1.8,2-2.4.7-.6,1.5-1,2.3-1.2.8-.2,1.7-.3,2.7-.3,1.4,0,2.7.3,3.7.9,1,.6,1.7,1.6,2.1,3h.3c.6-1,1.2-1.8,1.9-2.3.7-.6,1.5-1,2.3-1.2.8-.2,1.7-.4,2.7-.4s2.4.2,3.4.6c1,.4,1.7,1.1,2.2,2.1.5,1,.8,2.3.8,4v14.8h-2.3v-14.7c0-1-.1-1.8-.4-2.4-.2-.6-.6-1.1-1-1.4-.4-.3-.9-.6-1.5-.7-.6-.1-1.2-.2-1.8-.2-1.1,0-2.1.3-3,.8-.9.5-1.7,1.3-2.3,2.4-.6,1-.9,2.3-.9,3.8v12.5h-2.3v-14.7c0-1-.1-1.8-.4-2.4-.2-.6-.6-1.1-1-1.4-.4-.3-.9-.6-1.5-.7-.6-.1-1.1-.2-1.8-.2-1.1,0-2.1.3-3.1.8-1,.5-1.8,1.3-2.4,2.4-.6,1-.9,2.3-.9,3.8v12.5h-2.3Z"/>
    <path class="cls-1" d="M216,179.4c-1.9,0-3.6-.4-5-1.2-1.4-.8-2.4-2-3.1-3.6-.7-1.6-1.1-3.7-1.1-6.2s.4-4.6,1.1-6.2c.7-1.6,1.8-2.8,3.2-3.6,1.4-.8,3.1-1.2,5.2-1.2s3.6.4,4.9,1.2c1.3.8,2.3,1.9,3,3.3s1,3.2,1,5.2v1.9h-15.8c0,2,.3,3.7.8,4.9.5,1.2,1.3,2.1,2.3,2.7,1,.5,2.2.8,3.6.8s2.1-.2,2.9-.5c.8-.3,1.5-.7,2-1.2.5-.5.9-1.1,1.2-1.8.3-.7.4-1.3.5-2h2.2c0,1-.2,1.9-.6,2.8-.3.9-.9,1.7-1.6,2.4s-1.6,1.3-2.8,1.7c-1.1.4-2.5.6-4,.6ZM209.2,167h13.4c0-1.4-.2-2.6-.5-3.6-.3-1-.8-1.8-1.4-2.4-.6-.6-1.3-1-2.1-1.3-.8-.3-1.7-.4-2.6-.4-1.4,0-2.6.3-3.6.8-1,.5-1.7,1.4-2.3,2.5-.5,1.1-.9,2.6-.9,4.3Z"/>
    <path class="cls-1" d="M229.5,178.9v-21h1.8l.3,3.4h.3c.6-1,1.3-1.8,2.1-2.4.8-.6,1.6-1,2.5-1.2.9-.2,1.8-.3,2.8-.3s2.5.2,3.5.6c1,.4,1.8,1.1,2.3,2.1.5,1,.8,2.3.8,3.9v14.8h-2.3v-14.7c0-1-.1-1.8-.4-2.4-.3-.6-.6-1.1-1.1-1.4-.5-.3-1-.6-1.6-.7-.6-.1-1.3-.2-2-.2-1.1,0-2.2.3-3.2.8-1,.5-1.9,1.3-2.5,2.4-.6,1-.9,2.3-.9,3.8v12.5h-2.3Z"/>
    <path class="cls-1" d="M255.7,179.4c-.9,0-1.6-.1-2.1-.4s-.9-.7-1.1-1.3c-.2-.6-.3-1.2-.3-1.9v-15.8h-2.9v-2h2.9l.4-5.8h1.8v5.8h4.2v2h-4.2v15.2c0,.8.1,1.3.3,1.7.2.3.7.5,1.4.5h2.5v1.4c-.3.1-.6.2-.9.3-.3,0-.7.1-1.1.2-.4,0-.7,0-1,0Z"/>
  </g>
  <g>
    <path class="cls-1" d="M455.8,130.9v-27.4h13.4c1.8,0,3.3.3,4.4,1,1.2.7,2.1,1.6,2.6,2.8.6,1.2.9,2.6.9,4.1s-.3,3-1,4.3c-.7,1.3-1.6,2.2-2.8,3-1.2.7-2.5,1.1-4,1.1h-11v11.2h-2.6ZM458.3,117.5h10.7c1.7,0,3-.5,4-1.6,1-1.1,1.5-2.5,1.5-4.4s-.2-2.2-.6-3.1c-.4-.9-1-1.5-1.8-2-.8-.5-1.8-.7-3.1-.7h-10.7v11.7Z"/>
    <path class="cls-1" d="M481.3,130.9v-21h1.8l.2,3.6h.2c.2-.6.4-1.3.8-1.9.4-.6.9-1.1,1.5-1.6.7-.4,1.5-.6,2.5-.6s.7,0,1,0c.3,0,.5.1.6.2v2.1h-1.2c-1,0-1.8.2-2.5.6-.7.4-1.2.9-1.6,1.5-.4.6-.7,1.4-.9,2.2-.2.8-.3,1.6-.3,2.4v12.5h-2.3Z"/>
    <path class="cls-1" d="M501.1,131.4c-2,0-3.7-.4-5-1.2-1.4-.8-2.4-2-3.2-3.6-.7-1.6-1.1-3.7-1.1-6.2s.4-4.6,1.1-6.2c.7-1.6,1.8-2.8,3.2-3.6,1.4-.8,3.1-1.2,5-1.2s3.7.4,5.1,1.2c1.4.8,2.4,2,3.2,3.6.7,1.6,1.1,3.7,1.1,6.2s-.4,4.6-1.1,6.2c-.7,1.6-1.8,2.8-3.2,3.6-1.4.8-3.1,1.2-5.1,1.2ZM501.1,129.4c1.4,0,2.7-.3,3.7-.9,1-.6,1.8-1.5,2.3-2.7.5-1.2.8-2.8.8-4.8v-1.1c0-2-.3-3.6-.8-4.8-.5-1.2-1.3-2.1-2.3-2.7-1-.6-2.3-.9-3.7-.9s-2.7.3-3.7.9c-1,.6-1.8,1.5-2.3,2.7-.5,1.2-.8,2.8-.8,4.8v1.1c0,2,.3,3.6.8,4.8.5,1.2,1.3,2.1,2.3,2.7,1,.6,2.2.9,3.7.9Z"/>
    <path class="cls-1" d="M513.4,138.2c-.3,0-.5,0-.8,0-.3,0-.5,0-.8-.1-.3,0-.5-.1-.6-.2v-1.6h1.6c.6,0,1.1-.2,1.4-.5.3-.3.5-.8.5-1.5v-24.4h2.3v24.2c0,.7-.1,1.4-.3,2-.2.6-.6,1.1-1.1,1.5-.5.4-1.3.6-2.3.6ZM514.8,105.2v-3.2h2.3v3.2s-2.3,0-2.3,0Z"/>
    <path class="cls-1" d="M530.7,131.4c-1.9,0-3.6-.4-5-1.2-1.4-.8-2.4-2-3.1-3.6-.7-1.6-1.1-3.7-1.1-6.2s.4-4.6,1.1-6.2c.7-1.6,1.8-2.8,3.2-3.6,1.4-.8,3.1-1.2,5.2-1.2s3.6.4,4.9,1.2c1.3.8,2.3,1.9,3,3.3s1,3.2,1,5.2v1.9h-15.8c0,2,.3,3.7.8,4.9.5,1.2,1.3,2.1,2.3,2.7,1,.5,2.2.8,3.6.8s2.1-.2,2.9-.5c.8-.3,1.5-.7,2-1.2.5-.5.9-1.1,1.2-1.8.3-.7.4-1.3.5-2h2.2c0,1-.2,1.9-.6,2.8-.3.9-.9,1.7-1.6,2.4s-1.6,1.3-2.8,1.7c-1.1.4-2.5.6-4,.6ZM523.9,119h13.4c0-1.4-.2-2.6-.5-3.6-.3-1-.8-1.8-1.4-2.4-.6-.6-1.3-1-2.1-1.3-.8-.3-1.7-.4-2.6-.4-1.4,0-2.6.3-3.6.8-1,.5-1.7,1.4-2.3,2.5-.5,1.1-.9,2.6-.9,4.3Z"/>
    <path class="cls-1" d="M551.6,131.4c-1.9,0-3.5-.4-4.8-1.2-1.3-.8-2.3-2-3-3.7-.7-1.6-1-3.7-1-6.1s.3-4.5,1-6.1c.7-1.6,1.7-2.9,3-3.7,1.3-.8,3-1.2,5-1.2s2.7.2,3.7.6c1,.4,1.8.9,2.4,1.7.6.7,1.1,1.6,1.3,2.6.3,1,.4,2.1.4,3.3h-2.3c0-1.5-.2-2.7-.6-3.6-.4-.9-1-1.6-1.8-2-.8-.4-1.9-.6-3.3-.6s-2.3.3-3.3.8c-1,.5-1.8,1.4-2.3,2.6-.6,1.2-.9,2.9-.9,5v1.1c0,2,.3,3.6.8,4.8.5,1.2,1.3,2.1,2.2,2.7,1,.6,2.1.9,3.5.9s2.6-.2,3.4-.7c.8-.5,1.4-1.2,1.8-2.1.4-.9.5-2,.5-3.3h2.3c0,1.1-.1,2.1-.4,3.1-.3,1-.7,1.8-1.4,2.6-.6.8-1.5,1.4-2.5,1.8-1,.5-2.3.7-3.9.7Z"/>
    <path class="cls-1" d="M568.3,131.4c-.9,0-1.6-.1-2.1-.4s-.9-.7-1.1-1.3c-.2-.6-.3-1.2-.3-1.9v-15.8h-2.9v-2h2.9l.4-5.8h1.8v5.8h4.2v2h-4.2v15.2c0,.8.1,1.3.3,1.7.2.3.7.5,1.4.5h2.5v1.4c-.3.1-.6.2-.9.3-.3,0-.7.1-1.1.2-.4,0-.7,0-1,0Z"/>
    <path class="cls-1" d="M455.8,178.9v-27.4h2.6v25.2h13.6v2.3h-16.1Z"/>
    <path class="cls-1" d="M480.3,179.4c-.9,0-1.8-.1-2.6-.3-.8-.2-1.5-.6-2.1-1-.6-.5-1.1-1.1-1.4-1.8-.3-.7-.5-1.6-.5-2.6s.4-2.7,1.1-3.6c.7-.9,1.8-1.6,3.1-2.1,1.3-.5,2.9-.8,4.6-1,1.8-.2,3.7-.3,5.8-.3v-3c0-.9-.2-1.7-.5-2.3-.3-.7-.9-1.1-1.8-1.5-.8-.3-2-.5-3.5-.5s-2.6.2-3.4.6c-.8.4-1.4.9-1.7,1.5-.3.6-.5,1.3-.5,2v.7h-2.2c0-.1,0-.3,0-.4v-.5c0-1.4.4-2.5,1.1-3.3.7-.9,1.7-1.5,3-1.9,1.3-.4,2.7-.6,4.4-.6s3,.2,4.1.7c1.1.5,2,1.2,2.6,2,.6.9.9,1.9.9,3.2v12.7c0,.5,0,.9.3,1,.2.2.4.3.8.3h1.8v1.4c-.5.2-.9.3-1.3.4-.4,0-.8.1-1.2.1-.7,0-1.3-.2-1.6-.5s-.6-.8-.7-1.3c-.1-.5-.2-1.2-.2-1.8h-.3c-.5.8-1.2,1.4-2,2-.8.5-1.7,1-2.7,1.2-1,.3-2,.4-3,.4ZM480.6,177.4c.9,0,1.8-.1,2.7-.4.9-.3,1.7-.7,2.4-1.3.7-.5,1.3-1.2,1.8-2,.5-.8.7-1.6.7-2.5v-2.5c-2.7,0-5,.1-6.8.4-1.8.3-3.1.8-4,1.5-.9.7-1.3,1.7-1.3,3s.2,1.6.6,2.2.9,1,1.6,1.2c.7.2,1.4.4,2.3.4Z"/>
    <path class="cls-1" d="M502.9,179.4c-2,0-3.6-.5-4.8-1.5-1.2-1-1.8-2.7-1.8-5.2v-14.8h2.3v14.7c0,1,.1,1.8.4,2.4.3.6.6,1.1,1.1,1.4.5.3,1,.6,1.6.7.6.1,1.3.2,2,.2,1.1,0,2.1-.3,3.2-.8,1-.5,1.8-1.3,2.5-2.4.6-1.1,1-2.3,1-3.8v-12.5h2.3v21h-1.8l-.2-3.4h-.3c-.6,1-1.3,1.8-2.1,2.4-.8.6-1.6,1-2.5,1.2-.9.2-1.8.3-2.8.3Z"/>
    <path class="cls-1" d="M518.2,178.9v-21h1.8l.3,3.4h.3c.6-1,1.3-1.8,2.1-2.4.8-.6,1.6-1,2.5-1.2.9-.2,1.8-.3,2.8-.3s2.5.2,3.5.6c1,.4,1.8,1.1,2.3,2.1.5,1,.8,2.3.8,3.9v14.8h-2.3v-14.7c0-1-.1-1.8-.4-2.4-.3-.6-.6-1.1-1.1-1.4-.5-.3-1-.6-1.6-.7-.6-.1-1.3-.2-2-.2-1.1,0-2.2.3-3.2.8-1,.5-1.9,1.3-2.5,2.4-.6,1-.9,2.3-.9,3.8v12.5h-2.3Z"/>
    <path class="cls-1" d="M547.3,179.4c-1.9,0-3.5-.4-4.8-1.2-1.3-.8-2.3-2-3-3.7-.7-1.6-1-3.7-1-6.1s.3-4.5,1-6.1c.7-1.6,1.7-2.9,3-3.7,1.3-.8,3-1.2,5-1.2s2.7.2,3.7.6c1,.4,1.8.9,2.4,1.7.6.7,1.1,1.6,1.3,2.6.3,1,.4,2.1.4,3.3h-2.3c0-1.5-.2-2.7-.6-3.6-.4-.9-1-1.6-1.8-2-.8-.4-1.9-.6-3.3-.6s-2.3.3-3.3.8c-1,.5-1.8,1.4-2.3,2.6-.6,1.2-.9,2.9-.9,5v1.1c0,2,.3,3.6.8,4.8.5,1.2,1.3,2.1,2.2,2.7,1,.6,2.1.9,3.5.9s2.6-.2,3.4-.7c.8-.5,1.4-1.2,1.8-2.1.4-.9.5-2,.5-3.3h2.3c0,1.1-.1,2.1-.4,3.1-.3,1-.7,1.8-1.4,2.6-.6.8-1.5,1.4-2.5,1.8-1,.5-2.3.7-3.9.7Z"/>
    <path class="cls-1" d="M559.7,178.9v-28.9h2.3v10.7h.3c.6-.8,1.3-1.5,2-1.9.7-.5,1.5-.8,2.3-1,.8-.2,1.7-.3,2.7-.3s2.5.2,3.5.6c1,.4,1.8,1.1,2.3,2.1.5,1,.8,2.3.8,3.9v14.8h-2.3v-14.7c0-1-.1-1.8-.4-2.4-.3-.6-.6-1.1-1.1-1.4-.5-.3-1-.6-1.6-.7-.6-.1-1.3-.2-2-.2-1.1,0-2.2.3-3.2.8-1,.5-1.9,1.3-2.5,2.3-.6,1-.9,2.3-.9,3.9v12.5h-2.3Z"/>
  </g>
  <g>
    <path class="cls-1" d="M845.1,130.9v-27.4h2.6v27.4h-2.6Z"/>
    <path class="cls-1" d="M854.4,130.9v-21h1.8l.3,3.4h.3c.6-1,1.3-1.8,2.1-2.4.8-.6,1.6-1,2.5-1.2.9-.2,1.8-.3,2.8-.3s2.5.2,3.5.6c1,.4,1.8,1.1,2.3,2.1.5,1,.8,2.3.8,3.9v14.8h-2.3v-14.7c0-1-.1-1.8-.4-2.4-.3-.6-.6-1.1-1.1-1.4-.5-.3-1-.6-1.6-.7-.6-.1-1.3-.2-2-.2-1.1,0-2.2.3-3.2.8-1,.5-1.9,1.3-2.5,2.4-.6,1-.9,2.3-.9,3.8v12.5h-2.3Z"/>
    <path class="cls-1" d="M882.8,131.4c-1.4,0-2.6-.1-3.6-.4s-1.9-.7-2.6-1.2-1.2-1.2-1.6-2c-.4-.8-.5-1.7-.5-2.7s0-.2,0-.4c0-.1,0-.3,0-.4h2.3c0,.2,0,.3,0,.4v.3c0,1.1.3,2,.8,2.6.5.6,1.2,1.1,2.2,1.3.9.2,2,.4,3.2.4s2-.2,2.8-.5c.8-.3,1.5-.8,2-1.3.5-.6.7-1.3.7-2.2s-.3-1.9-.9-2.4c-.6-.5-1.4-1-2.4-1.3-1-.3-2-.6-3.1-.9-.8-.2-1.7-.5-2.5-.8-.8-.3-1.6-.6-2.2-1.1-.7-.4-1.2-1-1.6-1.6-.4-.7-.6-1.5-.6-2.5s.2-1.6.5-2.3c.3-.7.8-1.3,1.5-1.8.7-.5,1.5-.9,2.4-1.1.9-.3,2-.4,3.3-.4s2.6.2,3.6.5,1.7.8,2.3,1.3c.6.6,1,1.2,1.2,1.9.3.7.4,1.4.4,2.1v.3c0,.1,0,.2,0,.4h-2.3v-.6c0-.6-.1-1.1-.4-1.7-.3-.6-.8-1.1-1.5-1.5-.8-.4-1.9-.6-3.4-.6s-1.6,0-2.3.2c-.6.2-1.2.4-1.6.7-.4.3-.8.6-1,1.1-.2.4-.3.9-.3,1.5,0,.9.3,1.5.8,1.9.5.4,1.2.8,2,1,.8.3,1.7.5,2.6.9.9.3,1.9.6,2.8.9.9.3,1.8.7,2.6,1.1.8.4,1.4,1,1.9,1.7.5.7.7,1.6.7,2.7s-.2,1.9-.6,2.7c-.4.8-1,1.4-1.7,2-.7.5-1.6.9-2.6,1.2-1,.3-2.1.4-3.3.4Z"/>
    <path class="cls-1" d="M899.8,131.4c-.9,0-1.6-.1-2.1-.4-.5-.3-.9-.7-1.1-1.3-.2-.6-.3-1.2-.3-1.9v-15.8h-2.9v-2h2.9l.4-5.8h1.8v5.8h4.2v2h-4.2v15.2c0,.8,0,1.3.3,1.7.2.3.7.5,1.4.5h2.5v1.4c-.3.1-.6.2-.9.3-.3,0-.7.1-1.1.2s-.7,0-1,0Z"/>
    <path class="cls-1" d="M911.9,131.4c-.9,0-1.8-.1-2.6-.3-.8-.2-1.5-.6-2.1-1-.6-.5-1.1-1.1-1.4-1.8-.3-.7-.5-1.6-.5-2.6s.4-2.7,1.1-3.6c.7-.9,1.8-1.6,3.1-2.1,1.3-.5,2.9-.8,4.6-1,1.8-.2,3.7-.3,5.8-.3v-3c0-.9-.2-1.7-.5-2.3-.3-.7-.9-1.1-1.8-1.5-.8-.3-2-.5-3.5-.5s-2.6.2-3.4.6c-.8.4-1.4.9-1.7,1.5-.3.6-.5,1.3-.5,2v.7h-2.2c0-.1,0-.3,0-.4v-.5c0-1.4.4-2.5,1.1-3.3.7-.9,1.7-1.5,3-1.9,1.3-.4,2.7-.6,4.4-.6s3,.2,4.1.7c1.1.5,2,1.2,2.6,2,.6.9.9,1.9.9,3.2v12.7c0,.5,0,.9.3,1,.2.2.4.3.8.3h1.8v1.4c-.5.2-.9.3-1.3.4-.4,0-.8.1-1.2.1-.7,0-1.3-.2-1.6-.5-.4-.3-.6-.8-.7-1.3-.1-.5-.2-1.2-.2-1.8h-.3c-.5.8-1.2,1.4-2,2-.8.5-1.7,1-2.7,1.2-1,.3-2,.4-3,.4ZM912.2,129.4c.9,0,1.8-.1,2.7-.4.9-.3,1.7-.7,2.4-1.3.7-.5,1.3-1.2,1.8-2,.5-.8.7-1.6.7-2.5v-2.5c-2.7,0-5,.1-6.8.4-1.8.3-3.1.8-4,1.5-.9.7-1.3,1.7-1.3,3s.2,1.6.6,2.2c.4.6.9,1,1.6,1.2.7.2,1.4.4,2.3.4Z"/>
    <path class="cls-1" d="M928,130.9v-28.9h2.3v28.9h-2.3Z"/>
    <path class="cls-1" d="M936.1,130.9v-28.9h2.3v28.9h-2.3Z"/>
    <path class="cls-1" d="M949.4,131.4c-.9,0-1.8-.1-2.6-.3-.8-.2-1.5-.6-2.1-1-.6-.5-1.1-1.1-1.4-1.8-.3-.7-.5-1.6-.5-2.6s.4-2.7,1.1-3.6c.7-.9,1.8-1.6,3.1-2.1,1.3-.5,2.9-.8,4.6-1,1.8-.2,3.7-.3,5.8-.3v-3c0-.9-.2-1.7-.5-2.3-.3-.7-.9-1.1-1.8-1.5-.8-.3-2-.5-3.5-.5s-2.6.2-3.4.6c-.8.4-1.4.9-1.7,1.5-.3.6-.5,1.3-.5,2v.7h-2.2c0-.1,0-.3,0-.4v-.5c0-1.4.4-2.5,1.1-3.3.7-.9,1.7-1.5,3-1.9,1.3-.4,2.7-.6,4.4-.6s3,.2,4.1.7c1.1.5,2,1.2,2.6,2,.6.9.9,1.9.9,3.2v12.7c0,.5,0,.9.3,1,.2.2.4.3.8.3h1.8v1.4c-.5.2-.9.3-1.3.4-.4,0-.8.1-1.2.1-.7,0-1.3-.2-1.6-.5-.4-.3-.6-.8-.7-1.3-.1-.5-.2-1.2-.2-1.8h-.3c-.5.8-1.2,1.4-2,2-.8.5-1.7,1-2.7,1.2-1,.3-2,.4-3,.4ZM949.7,129.4c.9,0,1.8-.1,2.7-.4.9-.3,1.7-.7,2.4-1.3.7-.5,1.3-1.2,1.8-2,.5-.8.7-1.6.7-2.5v-2.5c-2.7,0-5,.1-6.8.4-1.8.3-3.1.8-4,1.5-.9.7-1.3,1.7-1.3,3s.2,1.6.6,2.2c.4.6.9,1,1.6,1.2.7.2,1.4.4,2.3.4Z"/>
    <path class="cls-1" d="M970,131.4c-.9,0-1.6-.1-2.1-.4-.5-.3-.9-.7-1.1-1.3-.2-.6-.3-1.2-.3-1.9v-15.8h-2.9v-2h2.9l.4-5.8h1.8v5.8h4.2v2h-4.2v15.2c0,.8,0,1.3.3,1.7.2.3.7.5,1.4.5h2.5v1.4c-.3.1-.6.2-.9.3-.3,0-.7.1-1.1.2s-.7,0-1,0Z"/>
    <path class="cls-1" d="M976.8,105.2v-3.2h2.3v3.2s-2.3,0-2.3,0ZM976.8,130.9v-21h2.3v21h-2.3Z"/>
    <path class="cls-1" d="M992.9,131.4c-2,0-3.7-.4-5-1.2-1.4-.8-2.4-2-3.2-3.6-.7-1.6-1.1-3.7-1.1-6.2s.4-4.6,1.1-6.2c.7-1.6,1.8-2.8,3.2-3.6s3.1-1.2,5-1.2,3.7.4,5.1,1.2c1.4.8,2.4,2,3.2,3.6.7,1.6,1.1,3.7,1.1,6.2s-.4,4.6-1.1,6.2c-.7,1.6-1.8,2.8-3.2,3.6-1.4.8-3.1,1.2-5.1,1.2ZM992.9,129.4c1.4,0,2.7-.3,3.7-.9,1-.6,1.8-1.5,2.3-2.7.5-1.2.8-2.8.8-4.8v-1.1c0-2-.3-3.6-.8-4.8s-1.3-2.1-2.3-2.7c-1-.6-2.3-.9-3.7-.9s-2.7.3-3.7.9c-1,.6-1.8,1.5-2.3,2.7-.5,1.2-.8,2.8-.8,4.8v1.1c0,2,.3,3.6.8,4.8.5,1.2,1.3,2.1,2.3,2.7,1,.6,2.2.9,3.7.9Z"/>
    <path class="cls-1" d="M1006.7,130.9v-21h1.8l.3,3.4h.3c.6-1,1.3-1.8,2.1-2.4.8-.6,1.6-1,2.5-1.2.9-.2,1.8-.3,2.8-.3s2.5.2,3.5.6c1,.4,1.8,1.1,2.3,2.1.5,1,.8,2.3.8,3.9v14.8h-2.3v-14.7c0-1-.1-1.8-.4-2.4-.3-.6-.6-1.1-1.1-1.4-.5-.3-1-.6-1.6-.7-.6-.1-1.3-.2-2-.2-1.1,0-2.2.3-3.2.8-1,.5-1.9,1.3-2.5,2.4-.6,1-.9,2.3-.9,3.8v12.5h-2.3Z"/>
    <path class="cls-1" d="M1045.9,131.4c-1.9,0-3.6-.3-5.1-.9-1.5-.6-2.6-1.5-3.5-2.7-.8-1.2-1.2-2.6-1.2-4.2s.4-3.2,1.3-4.4c.9-1.1,1.9-1.9,3.2-2.3v-.2c-1.1-.6-2-1.4-2.7-2.4-.7-1-1.1-2.3-1.1-3.8s.4-3,1.2-4.1c.8-1.1,1.9-2,3.3-2.5,1.4-.6,3.1-.9,5.1-.9s3.6.3,5,.9c1.5.6,2.6,1.5,3.5,2.6.9,1.1,1.3,2.5,1.3,4v.4h-2.3v-.2c0-1.3-.4-2.4-1.1-3.2-.7-.8-1.6-1.4-2.7-1.8-1.1-.4-2.3-.6-3.7-.6s-1.7,0-2.5.3c-.8.2-1.6.5-2.3.9-.7.4-1.3,1-1.7,1.7-.4.7-.6,1.5-.6,2.6s.3,2.3.9,3.1c.6.8,1.4,1.4,2.4,1.8,1,.4,2.1.6,3.2.6h2.3v2h-2.2c-1.2,0-2.4.2-3.5.5-1.1.3-2,.9-2.7,1.7s-1,1.9-1,3.4.3,2.5,1,3.4c.7.9,1.6,1.5,2.8,1.9,1.2.4,2.5.6,4,.6s3.1-.2,4.2-.6c1.1-.4,1.9-1.1,2.5-1.9.5-.9.8-2,.8-3.3v-7.6h5.5v2.1h-3.2v5.4c0,1.8-.4,3.3-1.2,4.5-.8,1.2-1.9,2.1-3.4,2.7s-3.4.9-5.6.9Z"/>
    <path class="cls-1" d="M856.5,179.4c-2.8,0-5.2-.5-7.1-1.6-1.9-1.1-3.4-2.6-4.4-4.7-1-2.1-1.5-4.7-1.5-7.9,0-4.7,1.1-8.3,3.4-10.6,2.3-2.4,5.5-3.6,9.5-3.6s4.5.4,6.3,1.1,3.2,1.9,4.2,3.4c1,1.5,1.5,3.4,1.5,5.7h-2.6c0-1.8-.4-3.3-1.1-4.5-.8-1.2-1.8-2-3.3-2.6-1.4-.6-3.1-.8-5.1-.8s-3.8.4-5.4,1.2c-1.5.8-2.7,2-3.6,3.8-.8,1.7-1.3,4-1.3,6.8v.8c0,2.7.4,4.9,1.3,6.6.8,1.7,2,2.9,3.6,3.6s3.3,1.2,5.4,1.2,3.6-.3,5.1-.8,2.5-1.4,3.3-2.6c.8-1.2,1.2-2.7,1.2-4.5h2.5c0,2.3-.5,4.2-1.6,5.7-1,1.5-2.5,2.6-4.3,3.3-1.8.7-3.9,1.1-6.2,1.1Z"/>
    <path class="cls-1" d="M881.6,179.4c-2,0-3.7-.4-5-1.2-1.4-.8-2.4-2-3.2-3.6-.7-1.6-1.1-3.7-1.1-6.2s.4-4.6,1.1-6.2c.7-1.6,1.8-2.8,3.2-3.6s3.1-1.2,5-1.2,3.7.4,5.1,1.2c1.4.8,2.4,2,3.2,3.6.7,1.6,1.1,3.7,1.1,6.2s-.4,4.6-1.1,6.2c-.7,1.6-1.8,2.8-3.2,3.6-1.4.8-3.1,1.2-5.1,1.2ZM881.6,177.4c1.4,0,2.7-.3,3.7-.9,1-.6,1.8-1.5,2.3-2.7.5-1.2.8-2.8.8-4.8v-1.1c0-2-.3-3.6-.8-4.8s-1.3-2.1-2.3-2.7c-1-.6-2.3-.9-3.7-.9s-2.7.3-3.7.9c-1,.6-1.8,1.5-2.3,2.7-.5,1.2-.8,2.8-.8,4.8v1.1c0,2,.3,3.6.8,4.8.5,1.2,1.3,2.1,2.3,2.7,1,.6,2.2.9,3.7.9Z"/>
    <path class="cls-1" d="M895.4,178.9v-21h1.8l.3,3.4h.3c.6-1,1.3-1.8,2.1-2.4.8-.6,1.6-1,2.5-1.2.9-.2,1.8-.3,2.8-.3s2.5.2,3.5.6c1,.4,1.8,1.1,2.3,2.1.5,1,.8,2.3.8,3.9v14.8h-2.3v-14.7c0-1-.1-1.8-.4-2.4-.3-.6-.6-1.1-1.1-1.4-.5-.3-1-.6-1.6-.7-.6-.1-1.3-.2-2-.2-1.1,0-2.2.3-3.2.8-1,.5-1.9,1.3-2.5,2.4-.6,1-.9,2.3-.9,3.8v12.5h-2.3Z"/>
    <path class="cls-1" d="M917.8,178.9v-19h-3.2v-2h3.2v-4c0-.7,0-1.4.3-2s.6-1.2,1.2-1.6c.6-.4,1.4-.6,2.4-.6s.6,0,1,0c.3,0,.6,0,.9.1.3,0,.6.1.8.2v1.7h-2.2c-.7,0-1.2.2-1.6.5-.3.3-.5.9-.5,1.6v4.1h4.2v2h-4.2v19h-2.3ZM927.4,153.2v-3.2h2.3v3.2h-2.3ZM927.4,178.9v-21h2.3v21h-2.3Z"/>
    <path class="cls-1" d="M939.1,186.2c-1,0-2-.2-2.9-.7-.9-.5-1.6-1.1-2.1-1.9-.5-.8-.8-1.7-.8-2.7s.3-2.2.9-3.1c.6-.9,1.4-1.5,2.4-1.9-.7-.3-1.3-.7-1.6-1.3-.4-.6-.5-1.2-.5-1.9s.3-1.7.9-2.3c.6-.7,1.4-1.1,2.4-1.3-.9-.6-1.5-1.4-2.1-2.2-.5-.9-.8-1.8-.8-2.9s.3-2.3.9-3.3c.6-1,1.5-1.8,2.7-2.3,1.2-.6,2.7-.9,4.6-.9s1.7,0,2.5.2,1.4.4,2.1.6c.9-.3,1.7-.7,2.3-1.4.6-.6,1-1.4,1.1-2.4h2.4c0,.7-.2,1.4-.6,2.1-.3.7-.8,1.3-1.4,1.7-.6.5-1.3.8-2.2.9.7.6,1.2,1.4,1.5,2.2.3.8.5,1.6.5,2.5,0,1.2-.3,2.3-.9,3.3-.6,1-1.5,1.8-2.7,2.4-1.2.6-2.7.9-4.6.9h-3.4c-.9,0-1.6.2-2.1.5s-.9.9-.9,1.7.3,1.2.9,1.6c.6.4,1.4.5,2.3.5h8c1.5,0,2.8.5,3.7,1.6,1,1.1,1.4,2.4,1.4,3.9s-.3,2.1-.8,3c-.5.9-1.3,1.6-2.2,2.1s-2.1.8-3.3.8h-7.8ZM939.4,184.3h7.4c.7,0,1.4-.2,2-.5s1.1-.8,1.5-1.3c.4-.6.6-1.2.6-1.8,0-1.1-.3-2-1-2.7-.6-.7-1.4-1-2.3-1h-8.2c-1,0-1.9.4-2.6,1.1-.7.7-1.1,1.6-1.1,2.7s.4,2,1.1,2.7c.7.7,1.6,1,2.6,1ZM943.2,168.5c2,0,3.4-.4,4.4-1.2.9-.8,1.4-1.9,1.4-3.4s-.5-2.5-1.4-3.3-2.4-1.2-4.4-1.2-3.4.4-4.4,1.2c-1,.8-1.4,1.9-1.4,3.3s.2,1.7.6,2.4c.4.7,1.1,1.2,1.9,1.6.9.4,1.9.6,3.2.6Z"/>
    <path class="cls-1" d="M962.9,179.4c-2,0-3.6-.5-4.8-1.5-1.2-1-1.8-2.7-1.8-5.2v-14.8h2.3v14.7c0,1,.1,1.8.4,2.4.3.6.6,1.1,1.1,1.4.5.3,1,.6,1.6.7.6.1,1.3.2,2,.2,1.1,0,2.1-.3,3.2-.8,1-.5,1.8-1.3,2.5-2.4.6-1.1,1-2.3,1-3.8v-12.5h2.3v21h-1.8l-.2-3.4h-.3c-.6,1-1.3,1.8-2.1,2.4-.8.6-1.6,1-2.5,1.2-.9.2-1.8.3-2.8.3Z"/>
    <path class="cls-1" d="M978.2,178.9v-21h1.8l.2,3.6h.2c.2-.6.4-1.3.8-1.9.4-.6.9-1.1,1.5-1.6.7-.4,1.5-.6,2.5-.6s.7,0,1,0c.3,0,.5.1.6.2v2.1h-1.2c-1,0-1.8.2-2.5.6-.7.4-1.2.9-1.6,1.5s-.7,1.4-.9,2.2c-.2.8-.3,1.6-.3,2.4v12.5h-2.3Z"/>
    <path class="cls-1" d="M995.2,179.4c-.9,0-1.8-.1-2.6-.3-.8-.2-1.5-.6-2.1-1-.6-.5-1.1-1.1-1.4-1.8-.3-.7-.5-1.6-.5-2.6s.4-2.7,1.1-3.6c.7-.9,1.8-1.6,3.1-2.1,1.3-.5,2.9-.8,4.6-1,1.8-.2,3.7-.3,5.8-.3v-3c0-.9-.2-1.7-.5-2.3-.3-.7-.9-1.1-1.8-1.5-.8-.3-2-.5-3.5-.5s-2.6.2-3.4.6c-.8.4-1.4.9-1.7,1.5-.3.6-.5,1.3-.5,2v.7h-2.2c0-.1,0-.3,0-.4v-.5c0-1.4.4-2.5,1.1-3.3.7-.9,1.7-1.5,3-1.9,1.3-.4,2.7-.6,4.4-.6s3,.2,4.1.7c1.1.5,2,1.2,2.6,2,.6.9.9,1.9.9,3.2v12.7c0,.5,0,.9.3,1,.2.2.4.3.8.3h1.8v1.4c-.5.2-.9.3-1.3.4-.4,0-.8.1-1.2.1-.7,0-1.3-.2-1.6-.5-.4-.3-.6-.8-.7-1.3-.1-.5-.2-1.2-.2-1.8h-.3c-.5.8-1.2,1.4-2,2-.8.5-1.7,1-2.7,1.2-1,.3-2,.4-3,.4ZM995.6,177.4c.9,0,1.8-.1,2.7-.4.9-.3,1.7-.7,2.4-1.3.7-.5,1.3-1.2,1.8-2,.5-.8.7-1.6.7-2.5v-2.5c-2.7,0-5,.1-6.8.4-1.8.3-3.1.8-4,1.5-.9.7-1.3,1.7-1.3,3s.2,1.6.6,2.2c.4.6.9,1,1.6,1.2.7.2,1.4.4,2.3.4Z"/>
    <path class="cls-1" d="M1015.8,179.4c-.9,0-1.6-.1-2.1-.4-.5-.3-.9-.7-1.1-1.3-.2-.6-.3-1.2-.3-1.9v-15.8h-2.9v-2h2.9l.4-5.8h1.8v5.8h4.2v2h-4.2v15.2c0,.8,0,1.3.3,1.7.2.3.7.5,1.4.5h2.5v1.4c-.3.1-.6.2-.9.3-.3,0-.7.1-1.1.2s-.7,0-1,0Z"/>
    <path class="cls-1" d="M1022.7,153.2v-3.2h2.3v3.2h-2.3ZM1022.7,178.9v-21h2.3v21h-2.3Z"/>
    <path class="cls-1" d="M1038.8,179.4c-2,0-3.7-.4-5-1.2-1.4-.8-2.4-2-3.2-3.6s-1.1-3.7-1.1-6.2.4-4.6,1.1-6.2c.7-1.6,1.8-2.8,3.2-3.6,1.4-.8,3.1-1.2,5-1.2s3.7.4,5.1,1.2,2.4,2,3.2,3.6c.7,1.6,1.1,3.7,1.1,6.2s-.4,4.6-1.1,6.2-1.8,2.8-3.2,3.6c-1.4.8-3.1,1.2-5.1,1.2ZM1038.8,177.4c1.4,0,2.7-.3,3.7-.9,1-.6,1.8-1.5,2.3-2.7.5-1.2.8-2.8.8-4.8v-1.1c0-2-.3-3.6-.8-4.8-.5-1.2-1.3-2.1-2.3-2.7-1-.6-2.3-.9-3.7-.9s-2.7.3-3.7.9c-1,.6-1.8,1.5-2.3,2.7s-.8,2.8-.8,4.8v1.1c0,2,.3,3.6.8,4.8.5,1.2,1.3,2.1,2.3,2.7,1,.6,2.2.9,3.7.9Z"/>
    <path class="cls-1" d="M1052.5,178.9v-21h1.8l.3,3.4h.3c.6-1,1.3-1.8,2.1-2.4.8-.6,1.6-1,2.5-1.2.9-.2,1.8-.3,2.8-.3s2.5.2,3.5.6c1,.4,1.8,1.1,2.3,2.1.5,1,.8,2.3.8,3.9v14.8h-2.3v-14.7c0-1-.1-1.8-.4-2.4-.3-.6-.6-1.1-1.1-1.4-.5-.3-1-.6-1.6-.7-.6-.1-1.3-.2-2-.2-1.1,0-2.2.3-3.2.8-1,.5-1.9,1.3-2.5,2.4-.6,1-.9,2.3-.9,3.8v12.5h-2.3Z"/>
  </g>
  <g>
    <path class="cls-1" d="M1251.8,130.9v-25.2h-10v-2.3h22.6v2.3h-10.1v25.2h-2.6Z"/>
    <path class="cls-1" d="M1272.6,131.4c-1.9,0-3.6-.4-5-1.2-1.4-.8-2.4-2-3.1-3.6-.7-1.6-1.1-3.7-1.1-6.2s.4-4.6,1.1-6.2c.7-1.6,1.8-2.8,3.2-3.6s3.1-1.2,5.2-1.2,3.6.4,4.9,1.2,2.3,1.9,3,3.3c.7,1.4,1,3.2,1,5.2v1.9h-15.8c0,2,.3,3.7.8,4.9.5,1.2,1.3,2.1,2.3,2.7,1,.5,2.2.8,3.6.8s2.1-.2,2.9-.5c.8-.3,1.5-.7,2-1.2.5-.5.9-1.1,1.2-1.8.3-.7.4-1.3.5-2h2.2c0,1-.2,1.9-.6,2.8-.3.9-.9,1.7-1.6,2.4-.7.7-1.6,1.3-2.8,1.7-1.1.4-2.5.6-4,.6ZM1265.9,119h13.4c0-1.4-.2-2.6-.5-3.6-.3-1-.8-1.8-1.4-2.4-.6-.6-1.3-1-2.1-1.3-.8-.3-1.7-.4-2.6-.4-1.4,0-2.6.3-3.6.8-1,.5-1.7,1.4-2.3,2.5-.5,1.1-.9,2.6-.9,4.3Z"/>
    <path class="cls-1" d="M1291.4,131.4c-.9,0-1.8-.1-2.6-.3-.8-.2-1.5-.6-2.1-1-.6-.5-1.1-1.1-1.4-1.8-.3-.7-.5-1.6-.5-2.6s.4-2.7,1.1-3.6c.7-.9,1.8-1.6,3.1-2.1,1.3-.5,2.9-.8,4.6-1,1.8-.2,3.7-.3,5.8-.3v-3c0-.9-.2-1.7-.5-2.3-.3-.7-.9-1.1-1.8-1.5-.8-.3-2-.5-3.5-.5s-2.6.2-3.4.6c-.8.4-1.4.9-1.7,1.5-.3.6-.5,1.3-.5,2v.7h-2.2c0-.1,0-.3,0-.4v-.5c0-1.4.4-2.5,1.1-3.3.7-.9,1.7-1.5,3-1.9,1.3-.4,2.7-.6,4.4-.6s3,.2,4.1.7c1.1.5,2,1.2,2.6,2,.6.9.9,1.9.9,3.2v12.7c0,.5,0,.9.3,1,.2.2.4.3.8.3h1.8v1.4c-.5.2-.9.3-1.3.4-.4,0-.8.1-1.2.1-.7,0-1.3-.2-1.6-.5-.4-.3-.6-.8-.7-1.3-.1-.5-.2-1.2-.2-1.8h-.3c-.5.8-1.2,1.4-2,2-.8.5-1.7,1-2.7,1.2-1,.3-2,.4-3,.4ZM1291.7,129.4c.9,0,1.8-.1,2.7-.4.9-.3,1.7-.7,2.4-1.3.7-.5,1.3-1.2,1.8-2,.5-.8.7-1.6.7-2.5v-2.5c-2.7,0-5,.1-6.8.4-1.8.3-3.1.8-4,1.5-.9.7-1.3,1.7-1.3,3s.2,1.6.6,2.2c.4.6.9,1,1.6,1.2.7.2,1.4.4,2.3.4Z"/>
    <path class="cls-1" d="M1307.6,130.9v-21h1.8l.3,3.4h.3c.6-1,1.3-1.8,2-2.4.7-.6,1.5-1,2.3-1.2.8-.2,1.7-.3,2.7-.3,1.4,0,2.7.3,3.7.9,1,.6,1.7,1.6,2.1,3h.3c.6-1,1.2-1.8,1.9-2.3.7-.6,1.5-1,2.3-1.2.8-.2,1.7-.4,2.7-.4s2.4.2,3.4.6c1,.4,1.7,1.1,2.2,2.1.5,1,.8,2.3.8,4v14.8h-2.3v-14.7c0-1-.1-1.8-.4-2.4-.2-.6-.6-1.1-1-1.4-.4-.3-.9-.6-1.5-.7-.6-.1-1.2-.2-1.8-.2-1.1,0-2.1.3-3,.8-.9.5-1.7,1.3-2.3,2.4-.6,1-.9,2.3-.9,3.8v12.5h-2.3v-14.7c0-1-.1-1.8-.4-2.4-.2-.6-.6-1.1-1-1.4-.4-.3-.9-.6-1.5-.7-.6-.1-1.1-.2-1.8-.2-1.1,0-2.1.3-3.1.8-1,.5-1.8,1.3-2.4,2.4-.6,1-.9,2.3-.9,3.8v12.5h-2.3Z"/>
    <path class="cls-1" d="M1256.5,179.4c-2.8,0-5.2-.5-7.1-1.6-1.9-1.1-3.4-2.6-4.4-4.7-1-2.1-1.5-4.7-1.5-7.9,0-4.7,1.1-8.3,3.4-10.6,2.3-2.4,5.5-3.6,9.5-3.6s4.5.4,6.3,1.1,3.2,1.9,4.2,3.4c1,1.5,1.5,3.4,1.5,5.7h-2.6c0-1.8-.4-3.3-1.1-4.5-.8-1.2-1.8-2-3.3-2.6-1.4-.6-3.1-.8-5.1-.8s-3.8.4-5.4,1.2c-1.5.8-2.7,2-3.6,3.8-.8,1.7-1.3,4-1.3,6.8v.8c0,2.7.4,4.9,1.3,6.6.8,1.7,2,2.9,3.6,3.6s3.3,1.2,5.4,1.2,3.6-.3,5.1-.8,2.5-1.4,3.3-2.6c.8-1.2,1.2-2.7,1.2-4.5h2.5c0,2.3-.5,4.2-1.6,5.7-1,1.5-2.5,2.6-4.3,3.3-1.8.7-3.9,1.1-6.2,1.1Z"/>
    <path class="cls-1" d="M1273.6,178.9v-28.9h2.3v28.9h-2.3Z"/>
    <path class="cls-1" d="M1286.9,179.4c-.9,0-1.8-.1-2.6-.3-.8-.2-1.5-.6-2.1-1-.6-.5-1.1-1.1-1.4-1.8-.3-.7-.5-1.6-.5-2.6s.4-2.7,1.1-3.6c.7-.9,1.8-1.6,3.1-2.1,1.3-.5,2.9-.8,4.6-1,1.8-.2,3.7-.3,5.8-.3v-3c0-.9-.2-1.7-.5-2.3-.3-.7-.9-1.1-1.8-1.5-.8-.3-2-.5-3.5-.5s-2.6.2-3.4.6c-.8.4-1.4.9-1.7,1.5-.3.6-.5,1.3-.5,2v.7h-2.2c0-.1,0-.3,0-.4v-.5c0-1.4.4-2.5,1.1-3.3.7-.9,1.7-1.5,3-1.9,1.3-.4,2.7-.6,4.4-.6s3,.2,4.1.7c1.1.5,2,1.2,2.6,2,.6.9.9,1.9.9,3.2v12.7c0,.5,0,.9.3,1,.2.2.4.3.8.3h1.8v1.4c-.5.2-.9.3-1.3.4-.4,0-.8.1-1.2.1-.7,0-1.3-.2-1.6-.5-.4-.3-.6-.8-.7-1.3-.1-.5-.2-1.2-.2-1.8h-.3c-.5.8-1.2,1.4-2,2-.8.5-1.7,1-2.7,1.2-1,.3-2,.4-3,.4ZM1287.2,177.4c.9,0,1.8-.1,2.7-.4.9-.3,1.7-.7,2.4-1.3.7-.5,1.3-1.2,1.8-2,.5-.8.7-1.6.7-2.5v-2.5c-2.7,0-5,.1-6.8.4-1.8.3-3.1.8-4,1.5-.9.7-1.3,1.7-1.3,3s.2,1.6.6,2.2c.4.6.9,1,1.6,1.2.7.2,1.4.4,2.3.4Z"/>
    <path class="cls-1" d="M1309.7,179.4c-1.4,0-2.6-.1-3.6-.4s-1.9-.7-2.6-1.2-1.2-1.2-1.6-2c-.4-.8-.5-1.7-.5-2.7s0-.2,0-.4c0-.1,0-.3,0-.4h2.3c0,.2,0,.3,0,.4v.3c0,1.1.3,2,.8,2.6.5.6,1.2,1.1,2.2,1.3.9.2,2,.4,3.2.4s2-.2,2.8-.5c.8-.3,1.5-.8,2-1.3.5-.6.7-1.3.7-2.2s-.3-1.9-.9-2.4c-.6-.5-1.4-1-2.4-1.3-1-.3-2-.6-3.1-.9-.8-.2-1.7-.5-2.5-.8-.8-.3-1.6-.6-2.2-1.1-.7-.4-1.2-1-1.6-1.6-.4-.7-.6-1.5-.6-2.5s.2-1.6.5-2.3c.3-.7.8-1.3,1.5-1.8.7-.5,1.5-.9,2.4-1.1.9-.3,2-.4,3.3-.4s2.6.2,3.6.5c1,.3,1.7.8,2.3,1.3.6.6,1,1.2,1.2,1.9.3.7.4,1.4.4,2.1v.3c0,.1,0,.2,0,.4h-2.3v-.6c0-.6-.1-1.1-.4-1.7-.3-.6-.8-1.1-1.5-1.5-.8-.4-1.9-.6-3.4-.6s-1.6,0-2.3.2c-.6.2-1.2.4-1.6.7-.4.3-.8.6-1,1.1-.2.4-.3.9-.3,1.5,0,.9.3,1.5.8,1.9.5.4,1.2.8,2,1,.8.3,1.7.5,2.6.9.9.3,1.9.6,2.8.9s1.8.7,2.6,1.1c.8.4,1.4,1,1.9,1.7.5.7.7,1.6.7,2.7s-.2,1.9-.6,2.7c-.4.8-1,1.4-1.7,2-.7.5-1.6.9-2.6,1.2-1,.3-2.1.4-3.3.4Z"/>
    <path class="cls-1" d="M1329,179.4c-1.4,0-2.6-.1-3.6-.4s-1.9-.7-2.6-1.2-1.2-1.2-1.6-2c-.4-.8-.5-1.7-.5-2.7s0-.2,0-.4c0-.1,0-.3,0-.4h2.3c0,.2,0,.3,0,.4v.3c0,1.1.3,2,.8,2.6.5.6,1.2,1.1,2.2,1.3.9.2,2,.4,3.2.4s2-.2,2.8-.5c.8-.3,1.5-.8,2-1.3.5-.6.7-1.3.7-2.2s-.3-1.9-.9-2.4c-.6-.5-1.4-1-2.4-1.3-1-.3-2-.6-3.1-.9-.8-.2-1.7-.5-2.5-.8-.8-.3-1.6-.6-2.2-1.1-.7-.4-1.2-1-1.6-1.6-.4-.7-.6-1.5-.6-2.5s.2-1.6.5-2.3c.3-.7.8-1.3,1.5-1.8.7-.5,1.5-.9,2.4-1.1.9-.3,2-.4,3.3-.4s2.6.2,3.6.5,1.7.8,2.3,1.3c.6.6,1,1.2,1.2,1.9.3.7.4,1.4.4,2.1v.3c0,.1,0,.2,0,.4h-2.3v-.6c0-.6-.1-1.1-.4-1.7-.3-.6-.8-1.1-1.5-1.5-.8-.4-1.9-.6-3.4-.6s-1.6,0-2.3.2c-.6.2-1.2.4-1.6.7-.4.3-.8.6-1,1.1-.2.4-.3.9-.3,1.5,0,.9.3,1.5.8,1.9.5.4,1.2.8,2,1,.8.3,1.7.5,2.6.9.9.3,1.9.6,2.8.9.9.3,1.8.7,2.6,1.1.8.4,1.4,1,1.9,1.7.5.7.7,1.6.7,2.7s-.2,1.9-.6,2.7c-.4.8-1,1.4-1.7,2-.7.5-1.6.9-2.6,1.2-1,.3-2.1.4-3.3.4Z"/>
    <path class="cls-1" d="M1341.6,178.9v-21h1.8l.2,3.6h.2c.2-.6.4-1.3.8-1.9.4-.6.9-1.1,1.5-1.6.7-.4,1.5-.6,2.5-.6s.7,0,1,0c.3,0,.5.1.6.2v2.1h-1.2c-1,0-1.8.2-2.5.6-.7.4-1.2.9-1.6,1.5-.4.6-.7,1.4-.9,2.2-.2.8-.3,1.6-.3,2.4v12.5h-2.3Z"/>
    <path class="cls-1" d="M1361.4,179.4c-2,0-3.7-.4-5-1.2-1.4-.8-2.4-2-3.2-3.6s-1.1-3.7-1.1-6.2.4-4.6,1.1-6.2c.7-1.6,1.8-2.8,3.2-3.6,1.4-.8,3.1-1.2,5-1.2s3.7.4,5.1,1.2,2.4,2,3.2,3.6c.7,1.6,1.1,3.7,1.1,6.2s-.4,4.6-1.1,6.2-1.8,2.8-3.2,3.6c-1.4.8-3.1,1.2-5.1,1.2ZM1361.4,177.4c1.4,0,2.7-.3,3.7-.9,1-.6,1.8-1.5,2.3-2.7.5-1.2.8-2.8.8-4.8v-1.1c0-2-.3-3.6-.8-4.8-.5-1.2-1.3-2.1-2.3-2.7-1-.6-2.3-.9-3.7-.9s-2.7.3-3.7.9c-1,.6-1.8,1.5-2.3,2.7s-.8,2.8-.8,4.8v1.1c0,2,.3,3.6.8,4.8.5,1.2,1.3,2.1,2.3,2.7,1,.6,2.2.9,3.7.9Z"/>
    <path class="cls-1" d="M1383.2,179.4c-2,0-3.7-.4-5-1.2-1.4-.8-2.4-2-3.2-3.6s-1.1-3.7-1.1-6.2.4-4.6,1.1-6.2c.7-1.6,1.8-2.8,3.2-3.6,1.4-.8,3.1-1.2,5-1.2s3.7.4,5.1,1.2,2.4,2,3.2,3.6c.7,1.6,1.1,3.7,1.1,6.2s-.4,4.6-1.1,6.2-1.8,2.8-3.2,3.6c-1.4.8-3.1,1.2-5.1,1.2ZM1383.2,177.4c1.4,0,2.7-.3,3.7-.9,1-.6,1.8-1.5,2.3-2.7.5-1.2.8-2.8.8-4.8v-1.1c0-2-.3-3.6-.8-4.8-.5-1.2-1.3-2.1-2.3-2.7-1-.6-2.3-.9-3.7-.9s-2.7.3-3.7.9c-1,.6-1.8,1.5-2.3,2.7s-.8,2.8-.8,4.8v1.1c0,2,.3,3.6.8,4.8.5,1.2,1.3,2.1,2.3,2.7,1,.6,2.2.9,3.7.9Z"/>
    <path class="cls-1" d="M1396.9,178.9v-21h1.8l.3,3.4h.3c.6-1,1.3-1.8,2-2.4.7-.6,1.5-1,2.3-1.2.8-.2,1.7-.3,2.7-.3,1.4,0,2.7.3,3.7.9,1,.6,1.7,1.6,2.1,3h.3c.6-1,1.2-1.8,1.9-2.3.7-.6,1.5-1,2.3-1.2.8-.2,1.7-.4,2.7-.4s2.4.2,3.4.6c1,.4,1.7,1.1,2.2,2.1.5,1,.8,2.3.8,4v14.8h-2.3v-14.7c0-1-.1-1.8-.4-2.4-.2-.6-.6-1.1-1-1.4-.4-.3-.9-.6-1.5-.7-.6-.1-1.2-.2-1.8-.2-1.1,0-2.1.3-3,.8-.9.5-1.7,1.3-2.3,2.4-.6,1-.9,2.3-.9,3.8v12.5h-2.3v-14.7c0-1-.1-1.8-.4-2.4-.2-.6-.6-1.1-1-1.4-.4-.3-.9-.6-1.5-.7-.6-.1-1.1-.2-1.8-.2-1.1,0-2.1.3-3.1.8-1,.5-1.8,1.3-2.4,2.4-.6,1-.9,2.3-.9,3.8v12.5h-2.3Z"/>
    <path class="cls-1" d="M1251.8,226.9v-25.2h-10v-2.3h22.6v2.3h-10.1v25.2h-2.6Z"/>
    <path class="cls-1" d="M1265.2,226.9v-21h1.8l.2,3.6h.2c.2-.6.4-1.3.8-1.9.4-.6.9-1.1,1.5-1.6.7-.4,1.5-.6,2.5-.6s.7,0,1,0c.3,0,.5.1.6.2v2.1h-1.2c-1,0-1.8.2-2.5.6-.7.4-1.2.9-1.6,1.5s-.7,1.4-.9,2.2c-.2.8-.3,1.6-.3,2.4v12.5h-2.3Z"/>
    <path class="cls-1" d="M1282.2,227.4c-.9,0-1.8-.1-2.6-.3-.8-.2-1.5-.6-2.1-1-.6-.5-1.1-1.1-1.4-1.8-.3-.7-.5-1.6-.5-2.6s.4-2.7,1.1-3.6c.7-.9,1.8-1.6,3.1-2.1,1.3-.5,2.9-.8,4.6-1,1.8-.2,3.7-.3,5.8-.3v-3c0-.9-.2-1.7-.5-2.3-.3-.7-.9-1.1-1.8-1.5-.8-.3-2-.5-3.5-.5s-2.6.2-3.4.6c-.8.4-1.4.9-1.7,1.5-.3.6-.5,1.3-.5,2v.7h-2.2c0-.1,0-.3,0-.4v-.5c0-1.4.4-2.5,1.1-3.3.7-.9,1.7-1.5,3-1.9,1.3-.4,2.7-.6,4.4-.6s3,.2,4.1.7c1.1.5,2,1.2,2.6,2,.6.9.9,1.9.9,3.2v12.7c0,.5,0,.9.3,1,.2.2.4.3.8.3h1.8v1.4c-.5.2-.9.3-1.3.4-.4,0-.8.1-1.2.1-.7,0-1.3-.2-1.6-.5-.4-.3-.6-.8-.7-1.3-.1-.5-.2-1.2-.2-1.8h-.3c-.5.8-1.2,1.4-2,2-.8.5-1.7,1-2.7,1.2-1,.3-2,.4-3,.4ZM1282.5,225.4c.9,0,1.8-.1,2.7-.4.9-.3,1.7-.7,2.4-1.3.7-.5,1.3-1.2,1.8-2,.5-.8.7-1.6.7-2.5v-2.5c-2.7,0-5,.1-6.8.4-1.8.3-3.1.8-4,1.5-.9.7-1.3,1.7-1.3,3s.2,1.6.6,2.2c.4.6.9,1,1.6,1.2.7.2,1.4.4,2.3.4Z"/>
    <path class="cls-1" d="M1298.3,201.2v-3.2h2.3v3.2h-2.3ZM1298.3,226.9v-21h2.3v21h-2.3Z"/>
    <path class="cls-1" d="M1306.4,226.9v-21h1.8l.3,3.4h.3c.6-1,1.3-1.8,2.1-2.4.8-.6,1.6-1,2.5-1.2.9-.2,1.8-.3,2.8-.3s2.5.2,3.5.6c1,.4,1.8,1.1,2.3,2.1.5,1,.8,2.3.8,3.9v14.8h-2.3v-14.7c0-1-.1-1.8-.4-2.4-.3-.6-.6-1.1-1.1-1.4-.5-.3-1-.6-1.6-.7-.6-.1-1.3-.2-2-.2-1.1,0-2.2.3-3.2.8-1,.5-1.9,1.3-2.5,2.4-.6,1-.9,2.3-.9,3.8v12.5h-2.3Z"/>
    <path class="cls-1" d="M1328.2,201.2v-3.2h2.3v3.2h-2.3ZM1328.2,226.9v-21h2.3v21h-2.3Z"/>
    <path class="cls-1" d="M1336.2,226.9v-21h1.8l.3,3.4h.3c.6-1,1.3-1.8,2.1-2.4.8-.6,1.6-1,2.5-1.2.9-.2,1.8-.3,2.8-.3s2.5.2,3.5.6c1,.4,1.8,1.1,2.3,2.1.5,1,.8,2.3.8,3.9v14.8h-2.3v-14.7c0-1-.1-1.8-.4-2.4-.3-.6-.6-1.1-1.1-1.4-.5-.3-1-.6-1.6-.7-.6-.1-1.3-.2-2-.2-1.1,0-2.2.3-3.2.8-1,.5-1.9,1.3-2.5,2.4-.6,1-.9,2.3-.9,3.8v12.5h-2.3Z"/>
    <path class="cls-1" d="M1361.6,234.2c-1,0-2-.2-2.9-.7-.9-.5-1.6-1.1-2.1-1.9-.5-.8-.8-1.7-.8-2.7s.3-2.2.9-3.1c.6-.9,1.4-1.5,2.4-1.9-.7-.3-1.3-.7-1.6-1.3-.4-.6-.5-1.2-.5-1.9s.3-1.7.9-2.3c.6-.7,1.4-1.1,2.4-1.3-.9-.6-1.5-1.4-2.1-2.2-.5-.9-.8-1.8-.8-2.9s.3-2.3.9-3.3c.6-1,1.5-1.8,2.7-2.3,1.2-.6,2.7-.9,4.6-.9s1.7,0,2.5.2c.8.1,1.4.4,2.1.6.9-.3,1.7-.7,2.3-1.4s1-1.4,1.1-2.4h2.4c0,.7-.2,1.4-.6,2.1-.3.7-.8,1.3-1.4,1.7-.6.5-1.3.8-2.2.9.7.6,1.2,1.4,1.5,2.2.3.8.5,1.6.5,2.5,0,1.2-.3,2.3-.9,3.3-.6,1-1.5,1.8-2.7,2.4-1.2.6-2.7.9-4.6.9h-3.4c-.9,0-1.6.2-2.1.5-.6.3-.9.9-.9,1.7s.3,1.2.9,1.6c.6.4,1.4.5,2.3.5h8c1.5,0,2.8.5,3.7,1.6,1,1.1,1.4,2.4,1.4,3.9s-.3,2.1-.8,3c-.5.9-1.3,1.6-2.2,2.1s-2.1.8-3.3.8h-7.8ZM1362,232.3h7.4c.7,0,1.4-.2,2-.5.6-.3,1.1-.8,1.5-1.3.4-.6.6-1.2.6-1.8,0-1.1-.3-2-1-2.7-.6-.7-1.4-1-2.3-1h-8.2c-1,0-1.9.4-2.6,1.1-.7.7-1.1,1.6-1.1,2.7s.4,2,1.1,2.7,1.6,1,2.6,1ZM1365.8,216.5c2,0,3.4-.4,4.4-1.2.9-.8,1.4-1.9,1.4-3.4s-.5-2.5-1.4-3.3c-.9-.8-2.4-1.2-4.4-1.2s-3.4.4-4.4,1.2-1.4,1.9-1.4,3.3.2,1.7.6,2.4c.4.7,1.1,1.2,1.9,1.6s1.9.6,3.2.6Z"/>
  </g>
  <g>
    <path class="cls-1" d="M1636.3,130.9l11-27.4h3.6l11,27.4h-2.8l-3-7.6h-14.1l-3,7.6h-2.6ZM1642.9,121h12.2l-3.8-9.6c0-.2-.2-.5-.4-1-.2-.4-.3-.9-.5-1.5-.2-.5-.4-1.1-.6-1.7-.2-.6-.4-1.1-.6-1.6h-.3c-.2.5-.4,1.1-.7,1.8-.3.7-.5,1.4-.8,2.1-.3.7-.5,1.3-.7,1.8l-3.8,9.6Z"/>
    <path class="cls-1" d="M1668.8,138.2c-1,0-2-.2-2.9-.7-.9-.5-1.6-1.1-2.1-1.9-.5-.8-.8-1.7-.8-2.7s.3-2.2.9-3.1c.6-.9,1.4-1.5,2.4-1.9-.7-.3-1.3-.7-1.6-1.3-.4-.6-.5-1.2-.5-1.9s.3-1.7.9-2.3c.6-.7,1.4-1.1,2.4-1.3-.9-.6-1.5-1.4-2.1-2.2-.5-.9-.8-1.8-.8-2.9s.3-2.3.9-3.3c.6-1,1.5-1.8,2.7-2.3,1.2-.6,2.7-.9,4.6-.9s1.7,0,2.5.2,1.4.4,2.1.6c.9-.3,1.7-.7,2.3-1.4.6-.6,1-1.4,1.1-2.4h2.4c0,.7-.2,1.4-.6,2.1-.3.7-.8,1.3-1.4,1.7-.6.5-1.3.8-2.2.9.7.6,1.2,1.4,1.5,2.2.3.8.5,1.6.5,2.5,0,1.2-.3,2.3-.9,3.3-.6,1-1.5,1.8-2.7,2.4-1.2.6-2.7.9-4.6.9h-3.4c-.9,0-1.6.2-2.1.5s-.9.9-.9,1.7.3,1.2.9,1.6c.6.4,1.4.5,2.3.5h8c1.5,0,2.8.5,3.7,1.6,1,1.1,1.4,2.4,1.4,3.9s-.3,2.1-.8,3c-.5.9-1.3,1.6-2.2,2.1s-2.1.8-3.3.8h-7.8ZM1669.1,136.3h7.4c.7,0,1.4-.2,2-.5s1.1-.8,1.5-1.3c.4-.6.6-1.2.6-1.8,0-1.1-.3-2-1-2.7-.6-.7-1.4-1-2.3-1h-8.2c-1,0-1.9.4-2.6,1.1-.7.7-1.1,1.6-1.1,2.7s.4,2,1.1,2.7c.7.7,1.6,1,2.6,1ZM1672.9,120.5c2,0,3.4-.4,4.4-1.2.9-.8,1.4-1.9,1.4-3.4s-.5-2.5-1.4-3.3-2.4-1.2-4.4-1.2-3.4.4-4.4,1.2c-1,.8-1.4,1.9-1.4,3.3s.2,1.7.6,2.4c.4.7,1.1,1.2,1.9,1.6.9.4,1.9.6,3.2.6Z"/>
    <path class="cls-1" d="M1686.2,105.2v-3.2h2.3v3.2s-2.3,0-2.3,0ZM1686.2,130.9v-21h2.3v21h-2.3Z"/>
    <path class="cls-1" d="M1694.3,130.9v-28.9h2.3v28.9h-2.3Z"/>
    <path class="cls-1" d="M1710.2,131.4c-1.9,0-3.6-.4-5-1.2-1.4-.8-2.4-2-3.1-3.6-.7-1.6-1.1-3.7-1.1-6.2s.4-4.6,1.1-6.2c.7-1.6,1.8-2.8,3.2-3.6,1.4-.8,3.1-1.2,5.2-1.2s3.6.4,4.9,1.2c1.3.8,2.3,1.9,3,3.3.7,1.4,1,3.2,1,5.2v1.9h-15.8c0,2,.3,3.7.8,4.9.5,1.2,1.3,2.1,2.3,2.7,1,.5,2.2.8,3.6.8s2.1-.2,2.9-.5c.8-.3,1.5-.7,2-1.2.5-.5.9-1.1,1.2-1.8.3-.7.4-1.3.5-2h2.2c0,1-.2,1.9-.6,2.8-.3.9-.9,1.7-1.6,2.4-.7.7-1.6,1.3-2.8,1.7s-2.5.6-4,.6ZM1703.5,119h13.4c0-1.4-.2-2.6-.5-3.6-.3-1-.8-1.8-1.4-2.4-.6-.6-1.3-1-2.1-1.3-.8-.3-1.7-.4-2.6-.4-1.4,0-2.6.3-3.6.8-1,.5-1.7,1.4-2.3,2.5-.5,1.1-.9,2.6-.9,4.3Z"/>
    <path class="cls-1" d="M1733.4,130.9v-27.4h3.8l8,20c.2.4.3.9.5,1.4.2.5.3.9.5,1.3.1.4.3.8.3,1.1h.2c.1-.4.3-.8.4-1.3.2-.5.3-.9.5-1.4.2-.5.3-.8.4-1.1l8-20h3.8v27.4h-2.6v-18c0-.5,0-1.1,0-1.8s0-1.5,0-2.3c0-.8,0-1.4,0-1.9h-.3c-.1.5-.3,1-.4,1.4-.1.5-.3.9-.5,1.4-.2.5-.3.9-.5,1.3l-8.1,20h-1.9l-8.1-19.9c-.2-.4-.3-.8-.5-1.3s-.3-.9-.5-1.4-.3-1-.4-1.5h-.3c0,.5,0,1.1,0,1.9s0,1.5,0,2.2c0,.7,0,1.4,0,2v18h-2.6Z"/>
    <path class="cls-1" d="M1766.5,105.2v-3.2h2.3v3.2s-2.3,0-2.3,0ZM1766.5,130.9v-21h2.3v21h-2.3Z"/>
    <path class="cls-1" d="M1778.1,138.2c-1,0-2-.2-2.9-.7-.9-.5-1.6-1.1-2.1-1.9-.5-.8-.8-1.7-.8-2.7s.3-2.2.9-3.1c.6-.9,1.4-1.5,2.4-1.9-.7-.3-1.3-.7-1.6-1.3-.4-.6-.5-1.2-.5-1.9s.3-1.7.9-2.3c.6-.7,1.4-1.1,2.4-1.3-.9-.6-1.5-1.4-2.1-2.2-.5-.9-.8-1.8-.8-2.9s.3-2.3.9-3.3c.6-1,1.5-1.8,2.7-2.3,1.2-.6,2.7-.9,4.6-.9s1.7,0,2.5.2,1.4.4,2.1.6c.9-.3,1.7-.7,2.3-1.4.6-.6,1-1.4,1.1-2.4h2.4c0,.7-.2,1.4-.6,2.1-.3.7-.8,1.3-1.4,1.7-.6.5-1.3.8-2.2.9.7.6,1.2,1.4,1.5,2.2.3.8.5,1.6.5,2.5,0,1.2-.3,2.3-.9,3.3-.6,1-1.5,1.8-2.7,2.4-1.2.6-2.7.9-4.6.9h-3.4c-.9,0-1.6.2-2.1.5s-.9.9-.9,1.7.3,1.2.9,1.6c.6.4,1.4.5,2.3.5h8c1.5,0,2.8.5,3.7,1.6,1,1.1,1.4,2.4,1.4,3.9s-.3,2.1-.8,3c-.5.9-1.3,1.6-2.2,2.1s-2.1.8-3.3.8h-7.8ZM1778.5,136.3h7.4c.7,0,1.4-.2,2-.5s1.1-.8,1.5-1.3c.4-.6.6-1.2.6-1.8,0-1.1-.3-2-1-2.7-.6-.7-1.4-1-2.3-1h-8.2c-1,0-1.9.4-2.6,1.1-.7.7-1.1,1.6-1.1,2.7s.4,2,1.1,2.7c.7.7,1.6,1,2.6,1ZM1782.3,120.5c2,0,3.4-.4,4.4-1.2.9-.8,1.4-1.9,1.4-3.4s-.5-2.5-1.4-3.3-2.4-1.2-4.4-1.2-3.4.4-4.4,1.2c-1,.8-1.4,1.9-1.4,3.3s.2,1.7.6,2.4c.4.7,1.1,1.2,1.9,1.6.9.4,1.9.6,3.2.6Z"/>
    <path class="cls-1" d="M1795.5,130.9v-21h1.8l.2,3.6h.2c.2-.6.4-1.3.8-1.9.4-.6.9-1.1,1.5-1.6.7-.4,1.5-.6,2.5-.6s.7,0,1,0c.3,0,.5.1.6.2v2.1h-1.2c-1,0-1.8.2-2.5.6-.7.4-1.2.9-1.6,1.5-.4.6-.7,1.4-.9,2.2-.2.8-.3,1.6-.3,2.4v12.5h-2.3Z"/>
    <path class="cls-1" d="M1812.5,131.4c-.9,0-1.8-.1-2.6-.3-.8-.2-1.5-.6-2.1-1-.6-.5-1.1-1.1-1.4-1.8-.3-.7-.5-1.6-.5-2.6s.4-2.7,1.1-3.6c.7-.9,1.8-1.6,3.1-2.1,1.3-.5,2.9-.8,4.6-1,1.8-.2,3.7-.3,5.8-.3v-3c0-.9-.2-1.7-.5-2.3-.3-.7-.9-1.1-1.8-1.5-.8-.3-2-.5-3.5-.5s-2.6.2-3.4.6c-.8.4-1.4.9-1.7,1.5-.3.6-.5,1.3-.5,2v.7h-2.2c0-.1,0-.3,0-.4v-.5c0-1.4.4-2.5,1.1-3.3.7-.9,1.7-1.5,3-1.9,1.3-.4,2.7-.6,4.4-.6s3,.2,4.1.7,2,1.2,2.6,2c.6.9.9,1.9.9,3.2v12.7c0,.5,0,.9.3,1,.2.2.4.3.8.3h1.8v1.4c-.5.2-.9.3-1.3.4-.4,0-.8.1-1.2.1-.7,0-1.3-.2-1.6-.5-.4-.3-.6-.8-.7-1.3-.1-.5-.2-1.2-.2-1.8h-.3c-.5.8-1.2,1.4-2,2-.8.5-1.7,1-2.7,1.2-1,.3-2,.4-3,.4ZM1812.9,129.4c.9,0,1.8-.1,2.7-.4.9-.3,1.7-.7,2.4-1.3.7-.5,1.3-1.2,1.8-2,.5-.8.7-1.6.7-2.5v-2.5c-2.7,0-5,.1-6.8.4-1.8.3-3.1.8-4,1.5-.9.7-1.3,1.7-1.3,3s.2,1.6.6,2.2c.4.6.9,1,1.6,1.2.7.2,1.4.4,2.3.4Z"/>
    <path class="cls-1" d="M1833.1,131.4c-.9,0-1.6-.1-2.1-.4-.5-.3-.9-.7-1.1-1.3-.2-.6-.3-1.2-.3-1.9v-15.8h-2.9v-2h2.9l.4-5.8h1.8v5.8h4.2v2h-4.2v15.2c0,.8.1,1.3.3,1.7.2.3.7.5,1.4.5h2.5v1.4c-.3.1-.6.2-.9.3-.3,0-.7.1-1.1.2-.4,0-.7,0-1,0Z"/>
    <path class="cls-1" d="M1840,105.2v-3.2h2.3v3.2s-2.3,0-2.3,0ZM1840,130.9v-21h2.3v21h-2.3Z"/>
    <path class="cls-1" d="M1856.1,131.4c-2,0-3.7-.4-5-1.2-1.4-.8-2.4-2-3.2-3.6-.7-1.6-1.1-3.7-1.1-6.2s.4-4.6,1.1-6.2c.7-1.6,1.8-2.8,3.2-3.6s3.1-1.2,5-1.2,3.7.4,5.1,1.2c1.4.8,2.4,2,3.2,3.6.7,1.6,1.1,3.7,1.1,6.2s-.4,4.6-1.1,6.2c-.7,1.6-1.8,2.8-3.2,3.6-1.4.8-3.1,1.2-5.1,1.2ZM1856.1,129.4c1.4,0,2.7-.3,3.7-.9,1-.6,1.8-1.5,2.3-2.7.5-1.2.8-2.8.8-4.8v-1.1c0-2-.3-3.6-.8-4.8s-1.3-2.1-2.3-2.7c-1-.6-2.3-.9-3.7-.9s-2.7.3-3.7.9c-1,.6-1.8,1.5-2.3,2.7-.5,1.2-.8,2.8-.8,4.8v1.1c0,2,.3,3.6.8,4.8.5,1.2,1.3,2.1,2.3,2.7,1,.6,2.2.9,3.7.9Z"/>
    <path class="cls-1" d="M1869.8,130.9v-21h1.8l.3,3.4h.3c.6-1,1.3-1.8,2.1-2.4.8-.6,1.6-1,2.5-1.2.9-.2,1.8-.3,2.8-.3s2.5.2,3.5.6c1,.4,1.8,1.1,2.3,2.1.5,1,.8,2.3.8,3.9v14.8h-2.3v-14.7c0-1-.1-1.8-.4-2.4-.3-.6-.6-1.1-1.1-1.4-.5-.3-1-.6-1.6-.7-.6-.1-1.3-.2-2-.2-1.1,0-2.2.3-3.2.8-1,.5-1.9,1.3-2.5,2.4-.6,1-.9,2.3-.9,3.8v12.5h-2.3Z"/>
    <path class="cls-1" d="M1649.7,179.4c-1.5,0-2.9-.1-4.3-.4-1.4-.3-2.6-.7-3.7-1.3-1.1-.6-1.9-1.4-2.5-2.5-.6-1-.9-2.3-.9-3.9v-.4c0,0,0-.2,0-.4h2.6c0,.1,0,.3,0,.5s0,.4,0,.5c0,1.3.4,2.3,1.1,3.1.8.8,1.8,1.4,3.1,1.9,1.3.4,2.7.6,4.3.6s1,0,1.7-.1c.7,0,1.5-.2,2.3-.4.8-.2,1.5-.5,2.2-.9.7-.4,1.3-.9,1.7-1.5.5-.6.7-1.4.7-2.4s-.3-1.9-.8-2.5c-.5-.7-1.3-1.2-2.2-1.7-.9-.4-1.9-.8-3-1.2-1.1-.3-2.3-.6-3.5-.9-1.2-.3-2.4-.6-3.5-1-1.1-.4-2.1-.8-3-1.4-.9-.5-1.6-1.2-2.1-2.1-.5-.8-.8-1.9-.8-3.1s.2-1.9.6-2.8c.4-.9,1-1.6,1.9-2.3.8-.6,1.9-1.1,3.3-1.5,1.4-.3,3-.5,5-.5s2.7.1,3.9.4c1.2.3,2.3.7,3.2,1.4.9.6,1.6,1.4,2.2,2.3.5.9.8,2.1.8,3.4v.5h-2.6v-.8c0-1-.3-1.9-.9-2.6-.6-.7-1.5-1.3-2.6-1.7-1.1-.4-2.3-.6-3.6-.6-2,0-3.6.2-4.8.6-1.2.4-2.1.9-2.7,1.6s-.9,1.4-.9,2.3.3,1.8.8,2.4c.5.6,1.3,1.2,2.2,1.6.9.4,1.9.8,3.1,1.1,1.1.3,2.3.6,3.5.9,1.2.3,2.4.6,3.5,1,1.1.4,2.1.8,3,1.4.9.6,1.6,1.3,2.2,2.1.5.9.8,1.9.8,3.2,0,1.8-.5,3.4-1.4,4.5-.9,1.2-2.2,2.1-3.8,2.6s-3.5.8-5.7.8Z"/>
    <path class="cls-1" d="M1665.9,185.8v-28h1.8l.3,3.2h.3c.8-1.3,1.7-2.2,2.8-2.8,1.1-.6,2.4-.9,3.8-.9s3.3.4,4.5,1.2,2.2,2,2.8,3.6c.7,1.7,1,3.8,1,6.4s-.3,4.5-1,6.1c-.7,1.6-1.6,2.8-2.9,3.5-1.2.8-2.7,1.2-4.4,1.2s-1.6-.1-2.4-.3c-.8-.2-1.5-.6-2.2-1s-1.3-1.1-1.8-2h-.3v9.8h-2.3ZM1674.5,177.4c1.4,0,2.5-.3,3.5-.9.9-.6,1.6-1.5,2.1-2.7.5-1.2.7-2.8.7-4.8v-1.1c0-2.1-.3-3.8-.8-5-.5-1.2-1.2-2.1-2.2-2.6s-2-.8-3.1-.8-2.7.3-3.7,1c-1,.7-1.7,1.6-2.1,2.9-.4,1.3-.7,2.8-.7,4.7v.8c0,1.8.2,3.3.6,4.4.4,1.1.9,2,1.5,2.6.6.6,1.3,1,2,1.2.7.2,1.4.3,2.1.3Z"/>
    <path class="cls-1" d="M1687.7,178.9v-21h1.8l.2,3.6h.2c.2-.6.4-1.3.8-1.9.4-.6.9-1.1,1.5-1.6.7-.4,1.5-.6,2.5-.6s.7,0,1,0c.3,0,.5.1.6.2v2.1h-1.2c-1,0-1.8.2-2.5.6-.7.4-1.2.9-1.6,1.5s-.7,1.4-.9,2.2c-.2.8-.3,1.6-.3,2.4v12.5h-2.3Z"/>
    <path class="cls-1" d="M1699.9,153.2v-3.2h2.3v3.2h-2.3ZM1699.9,178.9v-21h2.3v21h-2.3Z"/>
    <path class="cls-1" d="M1708,178.9v-21h1.8l.3,3.4h.3c.6-1,1.3-1.8,2.1-2.4.8-.6,1.6-1,2.5-1.2.9-.2,1.8-.3,2.8-.3s2.5.2,3.5.6c1,.4,1.8,1.1,2.3,2.1.5,1,.8,2.3.8,3.9v14.8h-2.3v-14.7c0-1-.1-1.8-.4-2.4-.3-.6-.6-1.1-1.1-1.4-.5-.3-1-.6-1.6-.7-.6-.1-1.3-.2-2-.2-1.1,0-2.2.3-3.2.8-1,.5-1.9,1.3-2.5,2.4-.6,1-.9,2.3-.9,3.8v12.5h-2.3Z"/>
    <path class="cls-1" d="M1734.1,179.4c-.9,0-1.6-.1-2.1-.4-.5-.3-.9-.7-1.1-1.3-.2-.6-.3-1.2-.3-1.9v-15.8h-2.9v-2h2.9l.4-5.8h1.8v5.8h4.2v2h-4.2v15.2c0,.8,0,1.3.3,1.7.2.3.7.5,1.4.5h2.5v1.4c-.3.1-.6.2-.9.3-.3,0-.7.1-1.1.2s-.7,0-1,0Z"/>
    <path class="cls-1" d="M1758.5,179.4c-1.9,0-3.6-.3-5.1-.9-1.5-.6-2.6-1.5-3.5-2.7-.8-1.2-1.2-2.6-1.2-4.2s.4-3.2,1.3-4.4c.9-1.1,1.9-1.9,3.2-2.3v-.2c-1.1-.6-2-1.4-2.7-2.4-.7-1-1.1-2.3-1.1-3.8s.4-3,1.2-4.1c.8-1.1,1.9-2,3.3-2.5,1.4-.6,3.1-.9,5.1-.9s3.6.3,5,.9c1.5.6,2.6,1.5,3.5,2.6.9,1.1,1.3,2.5,1.3,4v.4h-2.3v-.2c0-1.3-.4-2.4-1.1-3.2-.7-.8-1.6-1.4-2.7-1.8-1.1-.4-2.3-.6-3.7-.6s-1.7,0-2.5.3c-.8.2-1.6.5-2.3.9-.7.4-1.3,1-1.7,1.7-.4.7-.6,1.5-.6,2.6s.3,2.3.9,3.1c.6.8,1.4,1.4,2.4,1.8,1,.4,2.1.6,3.2.6h2.3v2h-2.2c-1.2,0-2.4.2-3.5.5-1.1.3-2,.9-2.7,1.7s-1,1.9-1,3.4.3,2.5,1,3.4c.7.9,1.6,1.5,2.8,1.9,1.2.4,2.5.6,4,.6s3.1-.2,4.2-.6c1.1-.4,1.9-1.1,2.5-1.9.5-.9.8-2,.8-3.3v-7.6h5.5v2.1h-3.2v5.4c0,1.8-.4,3.3-1.2,4.5-.8,1.2-1.9,2.1-3.4,2.7s-3.4.9-5.6.9Z"/>
    <path class="cls-1" d="M1785.7,178.9v-27.4h2.6v12.3h16.8v-12.3h2.6v27.4h-2.6v-12.9h-16.8v12.9h-2.6Z"/>
    <path class="cls-1" d="M1815.3,186.2c-.4,0-.7,0-1,0-.3,0-.6,0-.9-.1v-1.8h1.4c.7,0,1.4-.1,2.1-.3.7-.2,1.3-.7,1.9-1.5s1.2-1.9,1.7-3.5l-8.1-21h2.4l4.4,11.5c.2.6.5,1.2.7,2,.3.8.6,1.6.9,2.4.3.8.5,1.5.8,2.1h.2c.1-.5.3-1,.5-1.5.2-.6.4-1.1.5-1.7.2-.6.4-1.2.6-1.7.2-.5.3-1,.5-1.5l3.9-11.5h2.4l-7.3,20.9c-.4,1.2-.8,2.2-1.3,3.1-.4.9-.9,1.7-1.5,2.3-.5.6-1.2,1.1-2,1.5-.8.3-1.7.5-2.7.5Z"/>
    <path class="cls-1" d="M1833.6,185.8v-28h1.8l.3,3.2h.3c.8-1.3,1.7-2.2,2.8-2.8,1.1-.6,2.4-.9,3.8-.9s3.3.4,4.5,1.2,2.2,2,2.8,3.6c.7,1.7,1,3.8,1,6.4s-.3,4.5-1,6.1c-.7,1.6-1.6,2.8-2.9,3.5-1.2.8-2.7,1.2-4.4,1.2s-1.6-.1-2.4-.3c-.8-.2-1.5-.6-2.2-1s-1.3-1.1-1.8-2h-.3v9.8h-2.3ZM1842.1,177.4c1.4,0,2.5-.3,3.5-.9.9-.6,1.6-1.5,2.1-2.7.5-1.2.7-2.8.7-4.8v-1.1c0-2.1-.3-3.8-.8-5-.5-1.2-1.2-2.1-2.2-2.6s-2-.8-3.1-.8-2.7.3-3.7,1c-1,.7-1.7,1.6-2.1,2.9-.4,1.3-.7,2.8-.7,4.7v.8c0,1.8.2,3.3.6,4.4.4,1.1.9,2,1.5,2.6.6.6,1.3,1,2,1.2.7.2,1.4.3,2.1.3Z"/>
    <path class="cls-1" d="M1863.3,179.4c-1.9,0-3.6-.4-5-1.2-1.4-.8-2.4-2-3.1-3.6-.7-1.6-1.1-3.7-1.1-6.2s.4-4.6,1.1-6.2c.7-1.6,1.8-2.8,3.2-3.6s3.1-1.2,5.2-1.2,3.6.4,4.9,1.2,2.3,1.9,3,3.3c.7,1.4,1,3.2,1,5.2v1.9h-15.8c0,2,.3,3.7.8,4.9.5,1.2,1.3,2.1,2.3,2.7,1,.5,2.2.8,3.6.8s2.1-.2,2.9-.5c.8-.3,1.5-.7,2-1.2.5-.5.9-1.1,1.2-1.8.3-.7.4-1.3.5-2h2.2c0,1-.2,1.9-.6,2.8-.3.9-.9,1.7-1.6,2.4-.7.7-1.6,1.3-2.8,1.7-1.1.4-2.5.6-4,.6ZM1856.5,167h13.4c0-1.4-.2-2.6-.5-3.6-.3-1-.8-1.8-1.4-2.4-.6-.6-1.3-1-2.1-1.3-.8-.3-1.7-.4-2.6-.4-1.4,0-2.6.3-3.6.8-1,.5-1.7,1.4-2.3,2.5-.5,1.1-.9,2.6-.9,4.3Z"/>
    <path class="cls-1" d="M1876.8,178.9v-21h1.8l.2,3.6h.2c.2-.6.4-1.3.8-1.9.4-.6.9-1.1,1.5-1.6.7-.4,1.5-.6,2.5-.6s.7,0,1,0c.3,0,.5.1.6.2v2.1h-1.2c-1,0-1.8.2-2.5.6-.7.4-1.2.9-1.6,1.5-.4.6-.7,1.4-.9,2.2-.2.8-.3,1.6-.3,2.4v12.5h-2.3Z"/>
    <path class="cls-1" d="M1651.2,227.4c-2.8,0-5.2-.5-7.1-1.6-1.9-1.1-3.4-2.6-4.4-4.7-1-2.1-1.5-4.7-1.5-7.9,0-4.7,1.1-8.3,3.4-10.6,2.3-2.4,5.5-3.6,9.5-3.6s4.5.4,6.3,1.1c1.8.7,3.2,1.9,4.2,3.4,1,1.5,1.5,3.4,1.5,5.7h-2.6c0-1.8-.4-3.3-1.1-4.5-.8-1.2-1.8-2-3.3-2.6-1.4-.6-3.1-.8-5.1-.8s-3.8.4-5.4,1.2c-1.5.8-2.7,2-3.6,3.8-.8,1.7-1.3,4-1.3,6.8v.8c0,2.7.4,4.9,1.3,6.6.8,1.7,2,2.9,3.6,3.6,1.5.8,3.3,1.2,5.4,1.2s3.6-.3,5.1-.8c1.4-.6,2.5-1.4,3.3-2.6.8-1.2,1.2-2.7,1.2-4.5h2.5c0,2.3-.5,4.2-1.6,5.7-1,1.5-2.5,2.6-4.3,3.3-1.8.7-3.9,1.1-6.2,1.1Z"/>
    <path class="cls-1" d="M1673.5,227.4c-.9,0-1.8-.1-2.6-.3-.8-.2-1.5-.6-2.1-1-.6-.5-1.1-1.1-1.4-1.8-.3-.7-.5-1.6-.5-2.6s.4-2.7,1.1-3.6c.7-.9,1.8-1.6,3.1-2.1,1.3-.5,2.9-.8,4.6-1,1.8-.2,3.7-.3,5.8-.3v-3c0-.9-.2-1.7-.5-2.3-.3-.7-.9-1.1-1.8-1.5-.8-.3-2-.5-3.5-.5s-2.6.2-3.4.6c-.8.4-1.4.9-1.7,1.5-.3.6-.5,1.3-.5,2v.7h-2.2c0-.1,0-.3,0-.4v-.5c0-1.4.4-2.5,1.1-3.3.7-.9,1.7-1.5,3-1.9,1.3-.4,2.7-.6,4.4-.6s3,.2,4.1.7,2,1.2,2.6,2c.6.9.9,1.9.9,3.2v12.7c0,.5,0,.9.3,1,.2.2.4.3.8.3h1.8v1.4c-.5.2-.9.3-1.3.4-.4,0-.8.1-1.2.1-.7,0-1.3-.2-1.6-.5-.4-.3-.6-.8-.7-1.3-.1-.5-.2-1.2-.2-1.8h-.3c-.5.8-1.2,1.4-2,2-.8.5-1.7,1-2.7,1.2-1,.3-2,.4-3,.4ZM1673.8,225.4c.9,0,1.8-.1,2.7-.4.9-.3,1.7-.7,2.4-1.3.7-.5,1.3-1.2,1.8-2,.5-.8.7-1.6.7-2.5v-2.5c-2.7,0-5,.1-6.8.4-1.8.3-3.1.8-4,1.5-.9.7-1.3,1.7-1.3,3s.2,1.6.6,2.2c.4.6.9,1,1.6,1.2.7.2,1.4.4,2.3.4Z"/>
    <path class="cls-1" d="M1689.6,226.9v-21h1.8l.2,3.6h.2c.2-.6.4-1.3.8-1.9.4-.6.9-1.1,1.5-1.6.7-.4,1.5-.6,2.5-.6s.7,0,1,0c.3,0,.5.1.6.2v2.1h-1.2c-1,0-1.8.2-2.5.6-.7.4-1.2.9-1.6,1.5s-.7,1.4-.9,2.2c-.2.8-.3,1.6-.3,2.4v12.5h-2.3Z"/>
    <path class="cls-1" d="M1709.3,227.4c-1.9,0-3.6-.4-5-1.2-1.4-.8-2.4-2-3.1-3.6-.7-1.6-1.1-3.7-1.1-6.2s.4-4.6,1.1-6.2c.7-1.6,1.8-2.8,3.2-3.6s3.1-1.2,5.2-1.2,3.6.4,4.9,1.2,2.3,1.9,3,3.3c.7,1.4,1,3.2,1,5.2v1.9h-15.8c0,2,.3,3.7.8,4.9.5,1.2,1.3,2.1,2.3,2.7,1,.5,2.2.8,3.6.8s2.1-.2,2.9-.5c.8-.3,1.5-.7,2-1.2.5-.5.9-1.1,1.2-1.8.3-.7.4-1.3.5-2h2.2c0,1-.2,1.9-.6,2.8-.3.9-.9,1.7-1.6,2.4-.7.7-1.6,1.3-2.8,1.7-1.1.4-2.5.6-4,.6ZM1702.6,215h13.4c0-1.4-.2-2.6-.5-3.6-.3-1-.8-1.8-1.4-2.4-.6-.6-1.3-1-2.1-1.3-.8-.3-1.7-.4-2.6-.4-1.4,0-2.6.3-3.6.8-1,.5-1.7,1.4-2.3,2.5-.5,1.1-.9,2.6-.9,4.3Z"/>
  </g>
  <g>
    <path class="cls-2" d="M212.3,440.8c-3.4,0-6.5-.5-9.2-1.6-2.7-1-5.1-2.8-6.9-5.3-1.9-2.5-3.3-5.9-4.3-10.1-1-4.2-1.5-9.5-1.5-15.9s.5-11.6,1.5-15.9c1-4.2,2.5-7.6,4.3-10.1,1.9-2.5,4.2-4.3,6.9-5.3,2.7-1,5.8-1.6,9.2-1.6s6.5.5,9.2,1.6c2.7,1,5,2.8,6.9,5.3,1.9,2.5,3.3,5.9,4.3,10.1,1,4.2,1.5,9.5,1.5,15.9s-.5,11.6-1.5,15.9c-1,4.2-2.5,7.6-4.3,10.1-1.9,2.5-4.2,4.3-6.9,5.3-2.7,1-5.8,1.6-9.2,1.6ZM212.3,436.1c4.1,0,7.4-1,9.8-3,2.4-2,4.1-4.9,5-8.8,1-3.9,1.5-8.7,1.5-14.5v-3.7c0-5.8-.5-10.6-1.5-14.5-1-3.9-2.7-6.8-5-8.8-2.4-2-5.6-3-9.8-3s-7.3,1-9.7,3c-2.4,2-4.1,4.9-5.1,8.8-1,3.9-1.5,8.7-1.5,14.5v3.7c0,5.7.5,10.6,1.5,14.5,1,3.9,2.7,6.9,5.1,8.8,2.4,2,5.6,3,9.7,3Z"/>
    <path class="cls-2" d="M265.1,440.8c-3.4,0-6.5-.5-9.2-1.6-2.7-1-5.1-2.8-6.9-5.3-1.9-2.5-3.3-5.9-4.3-10.1-1-4.2-1.5-9.5-1.5-15.9s.5-11.6,1.5-15.9c1-4.2,2.5-7.6,4.3-10.1,1.9-2.5,4.2-4.3,6.9-5.3,2.7-1,5.8-1.6,9.2-1.6s6.5.5,9.2,1.6c2.7,1,5,2.8,6.9,5.3,1.9,2.5,3.3,5.9,4.3,10.1,1,4.2,1.5,9.5,1.5,15.9s-.5,11.6-1.5,15.9c-1,4.2-2.5,7.6-4.3,10.1-1.9,2.5-4.2,4.3-6.9,5.3-2.7,1-5.8,1.6-9.2,1.6ZM265.1,436.1c4.1,0,7.4-1,9.8-3,2.4-2,4.1-4.9,5-8.8,1-3.9,1.5-8.7,1.5-14.5v-3.7c0-5.8-.5-10.6-1.5-14.5-1-3.9-2.7-6.8-5-8.8-2.4-2-5.6-3-9.8-3s-7.3,1-9.7,3c-2.4,2-4.1,4.9-5.1,8.8-1,3.9-1.5,8.7-1.5,14.5v3.7c0,5.7.5,10.6,1.5,14.5,1,3.9,2.7,6.9,5.1,8.8,2.4,2,5.6,3,9.7,3Z"/>
    <path class="cls-2" d="M300.1,439.7v-7.8h6.7v7.8h-6.7Z"/>
  </g>
  <g>
    <path class="cls-2" d="M610.9,440.8c-3.4,0-6.5-.5-9.2-1.6-2.7-1-5.1-2.8-6.9-5.3-1.9-2.5-3.3-5.9-4.3-10.1-1-4.2-1.5-9.5-1.5-15.9s.5-11.6,1.5-15.9c1-4.2,2.5-7.6,4.3-10.1,1.9-2.5,4.2-4.3,6.9-5.3,2.7-1,5.8-1.6,9.2-1.6s6.5.5,9.2,1.6c2.7,1,5,2.8,6.9,5.3,1.9,2.5,3.3,5.9,4.3,10.1,1,4.2,1.5,9.5,1.5,15.9s-.5,11.6-1.5,15.9c-1,4.2-2.5,7.6-4.3,10.1-1.9,2.5-4.2,4.3-6.9,5.3-2.7,1-5.8,1.6-9.2,1.6ZM610.9,436.1c4.1,0,7.4-1,9.8-3,2.4-2,4.1-4.9,5-8.8,1-3.9,1.5-8.7,1.5-14.5v-3.7c0-5.8-.5-10.6-1.5-14.5-1-3.9-2.7-6.8-5-8.8-2.4-2-5.6-3-9.8-3s-7.3,1-9.7,3c-2.4,2-4.1,4.9-5.1,8.8-1,3.9-1.5,8.7-1.5,14.5v3.7c0,5.7.5,10.6,1.5,14.5,1,3.9,2.7,6.9,5.1,8.8,2.4,2,5.6,3,9.7,3Z"/>
    <path class="cls-2" d="M640.9,439.7v-4.8h16.8v-47.6h-16.8v-3.5c2.6-.1,5.2-.4,7.6-.7,2.4-.3,4.7-1,6.7-2.1,2.1-1.1,4-2.7,5.8-4.9h2v58.9h15.9v4.8h-38.1Z"/>
    <path class="cls-2" d="M689.5,439.7v-7.8h6.7v7.8h-6.7Z"/>
  </g>
  <g>
    <path class="cls-2" d="M1009.4,440.8c-3.4,0-6.5-.5-9.2-1.6-2.7-1-5.1-2.8-6.9-5.3-1.9-2.5-3.3-5.9-4.3-10.1-1-4.2-1.5-9.5-1.5-15.9s.5-11.6,1.5-15.9c1-4.2,2.5-7.6,4.3-10.1,1.9-2.5,4.2-4.3,6.9-5.3,2.7-1,5.8-1.6,9.2-1.6s6.5.5,9.2,1.6c2.7,1,5,2.8,6.9,5.3,1.9,2.5,3.3,5.9,4.3,10.1,1,4.2,1.5,9.5,1.5,15.9s-.5,11.6-1.5,15.9-2.5,7.6-4.3,10.1c-1.9,2.5-4.2,4.3-6.9,5.3-2.7,1-5.8,1.6-9.2,1.6ZM1009.4,436.1c4.1,0,7.4-1,9.8-3,2.4-2,4.1-4.9,5-8.8,1-3.9,1.5-8.7,1.5-14.5v-3.7c0-5.8-.5-10.6-1.5-14.5-1-3.9-2.7-6.8-5-8.8-2.4-2-5.6-3-9.8-3s-7.3,1-9.7,3c-2.4,2-4.1,4.9-5.1,8.8s-1.5,8.7-1.5,14.5v3.7c0,5.7.5,10.6,1.5,14.5,1,3.9,2.7,6.9,5.1,8.8,2.4,2,5.6,3,9.7,3Z"/>
    <path class="cls-2" d="M1040.3,439.7v-2.3c0-2.5.5-4.7,1.6-6.8,1-2.1,2.5-4,4.3-5.8s3.8-3.5,6-5.1c2.2-1.6,4.4-3.2,6.7-4.9,3.5-2.3,6.6-4.6,9.4-6.8,2.8-2.2,5-4.6,6.7-7.2,1.7-2.6,2.5-5.4,2.5-8.6s-.6-4.7-1.7-6.6c-1.1-1.8-2.8-3.2-4.9-4.2-2.2-1-4.8-1.4-8-1.4s-7.4.7-9.7,2.2c-2.3,1.4-4,3.3-4.9,5.5-1,2.2-1.4,4.5-1.4,6.7v3.8h-5.4c0-.3-.1-.8-.2-1.5,0-.7,0-1.4,0-2.2,0-4.6,1-8.2,3.1-11,2.1-2.8,4.8-4.9,8.1-6.2,3.4-1.3,7-2,10.9-2s5.5.4,7.9,1.1c2.4.7,4.5,1.8,6.3,3.2,1.8,1.4,3.2,3.2,4.2,5.3,1,2.1,1.5,4.6,1.5,7.4s-.5,5.5-1.5,7.9c-1,2.3-2.4,4.5-4.3,6.6-1.8,2-4,4-6.4,5.9-2.5,1.9-5.1,3.8-8,5.7-2.4,1.7-4.8,3.4-7.2,5.3-2.4,1.8-4.5,3.7-6.1,5.6-1.7,1.9-2.7,3.7-2.9,5.5h36.9v5.2h-43.1Z"/>
    <path class="cls-2" d="M1096.1,439.7v-7.8h6.7v7.8h-6.7Z"/>
  </g>
  <g>
    <path class="cls-2" d="M1407.9,440.8c-3.4,0-6.5-.5-9.2-1.6-2.7-1-5.1-2.8-6.9-5.3s-3.3-5.9-4.3-10.1-1.5-9.5-1.5-15.9.5-11.6,1.5-15.9c1-4.2,2.5-7.6,4.3-10.1s4.2-4.3,6.9-5.3c2.7-1,5.8-1.6,9.2-1.6s6.5.5,9.2,1.6c2.7,1,5,2.8,6.9,5.3,1.9,2.5,3.3,5.9,4.3,10.1,1,4.2,1.5,9.5,1.5,15.9s-.5,11.6-1.5,15.9c-1,4.2-2.5,7.6-4.3,10.1-1.9,2.5-4.2,4.3-6.9,5.3-2.7,1-5.8,1.6-9.2,1.6ZM1407.9,436.1c4.1,0,7.4-1,9.8-3,2.4-2,4.1-4.9,5-8.8,1-3.9,1.5-8.7,1.5-14.5v-3.7c0-5.8-.5-10.6-1.5-14.5-1-3.9-2.7-6.8-5-8.8-2.4-2-5.6-3-9.8-3s-7.3,1-9.7,3c-2.4,2-4.1,4.9-5.1,8.8-1,3.9-1.5,8.7-1.5,14.5v3.7c0,5.7.5,10.6,1.5,14.5,1,3.9,2.7,6.9,5.1,8.8,2.4,2,5.6,3,9.7,3Z"/>
    <path class="cls-2" d="M1460.8,440.8c-5,0-9.2-.7-12.5-2.2-3.4-1.4-5.9-3.5-7.6-6.2-1.7-2.7-2.5-6-2.5-9.8v-1h5.3v.8c0,4.4,1.4,7.8,4.3,10.2,2.9,2.3,6.9,3.5,12,3.5s9.5-1.1,12.7-3.2c3.2-2.2,4.8-5.7,4.8-10.5s-.8-5.8-2.5-7.6c-1.7-1.8-3.9-3.1-6.6-3.8-2.7-.7-5.5-1.1-8.4-1.1h-7.9v-4.7h8.1c2.7,0,5.3-.4,7.7-1.2,2.4-.8,4.3-2.2,5.8-4.2,1.5-1.9,2.2-4.5,2.2-7.7s-.7-5-2-6.7c-1.3-1.8-3.1-3.1-5.3-4-2.2-.9-4.7-1.3-7.3-1.3s-5.7.5-8.1,1.5c-2.4,1-4.4,2.5-5.8,4.5-1.4,2-2.2,4.4-2.2,7.2v1.1h-5.5v-1.1c0-3.5.9-6.6,2.8-9.3,1.8-2.7,4.4-4.8,7.6-6.3,3.2-1.5,6.9-2.3,11-2.3s7.4.6,10.5,1.9c3.1,1.3,5.5,3.1,7.3,5.6,1.8,2.5,2.6,5.6,2.6,9.2s-.5,5.2-1.6,7.2c-1.1,2-2.5,3.6-4.1,4.8-1.7,1.2-3.4,2.2-5.2,2.9v.4c3.5,1,6.5,2.8,8.9,5.4,2.4,2.6,3.6,6,3.6,10.2s-1,7-2.9,9.7c-1.9,2.7-4.5,4.8-7.9,6.2-3.4,1.4-7.2,2.2-11.4,2.2Z"/>
    <path class="cls-2" d="M1495.6,439.7v-7.8h6.7v7.8h-6.7Z"/>
  </g>
  <g>
    <path class="cls-4" d="M1806.4,440.8c-3.4,0-6.5-.5-9.2-1.6-2.7-1-5.1-2.8-6.9-5.3-1.9-2.5-3.3-5.9-4.3-10.1-1-4.2-1.5-9.5-1.5-15.9s.5-11.6,1.5-15.9c1-4.2,2.5-7.6,4.3-10.1,1.9-2.5,4.2-4.3,6.9-5.3,2.7-1,5.8-1.6,9.2-1.6s6.5.5,9.2,1.6c2.7,1,5,2.8,6.9,5.3,1.9,2.5,3.3,5.9,4.3,10.1,1,4.2,1.5,9.5,1.5,15.9s-.5,11.6-1.5,15.9-2.5,7.6-4.3,10.1c-1.9,2.5-4.2,4.3-6.9,5.3-2.7,1-5.8,1.6-9.2,1.6ZM1806.4,436.1c4.1,0,7.4-1,9.8-3,2.4-2,4.1-4.9,5-8.8,1-3.9,1.5-8.7,1.5-14.5v-3.7c0-5.8-.5-10.6-1.5-14.5-1-3.9-2.7-6.8-5-8.8-2.4-2-5.6-3-9.8-3s-7.3,1-9.7,3c-2.4,2-4.1,4.9-5.1,8.8s-1.5,8.7-1.5,14.5v3.7c0,5.7.5,10.6,1.5,14.5,1,3.9,2.7,6.9,5.1,8.8,2.4,2,5.6,3,9.7,3Z"/>
    <path class="cls-4" d="M1866.1,439.7v-16.8h-30.9v-4.7c2.6-4.7,5.1-9.4,7.3-14.1,2.2-4.7,4.1-9.4,5.7-14.1,1.6-4.8,3-9.7,4-14.7h5.8c-.8,3.5-1.8,7-2.9,10.6-1.1,3.6-2.4,7.2-3.7,10.6-1.3,3.4-2.7,6.6-4,9.5-1.3,2.9-2.6,5.5-3.7,7.6-1.2,2.1-2.1,3.7-2.9,4.8h25.2v-23.9c.2-.8.5-1.6.7-2.5.2-.9.4-1.8.7-2.7.2-.9.5-1.7.6-2.5s.3-1.5.5-2.1h2.9v33.7h8.9v4.6h-8.9v16.8h-5.4Z"/>
    <path class="cls-4" d="M1890.9,439.7v-7.8h6.7v7.8h-6.7Z"/>
  </g>
  <image width="2062" height="1222" transform="translate(1529 -735.8) scale(.5)" xlink:href="../Desktop/Screenshot 2025-08-14 at 18.21.48.png"/>
</svg>