<svg xmlns="http://www.w3.org/2000/svg" viewBox="0 0 76 67"><path fill="#00B16B" d="M.13 66.22V52.57c2.67-.13 5.27-1.16 7.82-3.1a23.92 23.92 0 0 0 6.37-7.46A21.37 21.37 0 0 0 16.7 32H.13V.15h33.85v28.03c0 8-1.58 14.74-4.73 20.2-3.16 5.58-7.28 9.83-12.38 12.74a37.44 37.44 0 0 1-16.74 5.1Zm41.86 0V52.57c2.67-.13 5.27-1.16 7.82-3.1a23.92 23.92 0 0 0 6.37-7.46A21.37 21.37 0 0 0 58.55 32H41.99V.15h33.85v28.03c0 8-1.58 14.74-4.73 20.2-3.16 5.58-7.28 9.83-12.38 12.74A37.44 37.44 0 0 1 42 66.22Z"/></svg>