<svg xmlns="http://www.w3.org/2000/svg" viewBox="0 0 148 32">
<path fill="#E24650" d="M7.18 13.25 0 .86h14.36l-2.14 3.69H9.38l.69-1.19H4.29l2.89 5 .9-1.56h2.83l-3.73 6.45Z"/>
<path fill="currentColor" d="M83.08.83h8.3c2.01 0 3.48.39 4.39 1.16.9.77 1.36 1.97 1.36 3.6v.28c0 .98-.2 1.81-.6 2.48a3.72 3.72 0 0 1-1.91 1.53 4.2 4.2 0 0 1 2.24 1.49c.56.73.84 1.7.84 2.95v.43c0 1.84-.56 3.18-1.68 4-1.11.83-2.68 1.24-4.7 1.24h-8.24V.83Zm3.6 2.94V8.6h4.07c1.03 0 1.75-.19 2.17-.56.41-.38.62-1 .62-1.83v-.35c0-.76-.2-1.3-.58-1.62-.4-.32-1.04-.48-1.96-.48h-4.32Zm0 13.29h4.48c1.06 0 1.81-.18 2.24-.55.43-.37.65-1.04.65-2v-.36c0-1-.23-1.7-.7-2.1-.47-.39-1.26-.59-2.38-.59h-4.3v5.6Zm24.88.4c0 .95-.21 1.61-.64 1.98-.44.37-1.19.55-2.25.55h-4.4c-1.93 0-3.29-.36-4.1-1.07-.8-.72-1.2-1.75-1.2-3.1v-.59c0-1.49.45-2.57 1.33-3.24.88-.68 2.26-1.01 4.13-1.01.94 0 1.72.07 2.34.23.62.15 1.08.32 1.39.52v-.48c0-.49-.05-.89-.15-1.21-.1-.33-.26-.58-.5-.77a2.1 2.1 0 0 0-.96-.39 9 9 0 0 0-1.52-.1h-2.39l-1.26.03-1.13.02.56-2.83a85.7 85.7 0 0 1 4.38-.05c2.2 0 3.8.38 4.83 1.15 1.03.78 1.54 1.99 1.54 3.64v6.72Zm-3.4 0v-2.18c0-.32-.03-.6-.1-.82a1 1 0 0 0-.39-.55 2 2 0 0 0-.83-.3 8.7 8.7 0 0 0-1.44-.1h-.4c-1.03 0-1.72.12-2.08.37-.36.26-.54.71-.54 1.38v.5c0 .58.17 1 .5 1.29.33.27.95.41 1.85.41h3.43ZM121.28 20h-2.18a13.3 13.3 0 0 1-2.8-.25 3.56 3.56 0 0 1-1.73-.85c-.42-.4-.71-.94-.88-1.62a11.3 11.3 0 0 1-.24-2.56V2.74l3.51-.56V6h5.05l-.56 2.88h-4.49v5.65c0 .54.03.98.1 1.32.06.34.18.6.35.8.17.18.41.3.73.37.31.06.71.1 1.2.1h2.51l-.57 2.87Zm8.35-11.23c-.67 0-1.2.04-1.62.12-.41.08-.74.25-.99.49-.24.24-.4.6-.5 1.06-.09.47-.13 1.08-.13 1.83v1.45c0 .76.05 1.37.15 1.83.1.47.27.82.51 1.07.24.24.58.4 1 .48.42.08.95.12 1.58.12a156.75 156.75 0 0 0 3.94-.05l-.56 2.82a112.66 112.66 0 0 1-3.46.06 12.7 12.7 0 0 1-3.17-.34 4.7 4.7 0 0 1-2.08-1.09 4.22 4.22 0 0 1-1.14-1.95c-.22-.8-.34-1.78-.34-2.95v-1.45c0-1.15.12-2.13.36-2.93.23-.81.61-1.46 1.14-1.97a4.7 4.7 0 0 1 2.08-1.09c.86-.22 1.9-.33 3.15-.33.99 0 2.31.02 3.97.08l-.57 2.82a65.4 65.4 0 0 0-3.32-.08ZM135.17 20V0h3.51v6.67c.3-.28.76-.54 1.35-.76.6-.23 1.43-.34 2.51-.34 1.68 0 3 .35 3.99 1.06.98.71 1.47 1.9 1.47 3.57V20h-3.51v-9.1c0-.41-.03-.77-.08-1.08a1.5 1.5 0 0 0-.37-.77 1.7 1.7 0 0 0-.82-.45c-.36-.1-.85-.15-1.46-.15-.63 0-1.14.05-1.54.16-.4.1-.7.28-.93.53-.23.24-.38.56-.47.96-.1.4-.14.9-.14 1.47v8.42h-3.51ZM19.32 15.36h-6.78L10.08 20H5.55L16.35.83h4.89L24.37 20h-4.43l-.62-4.63Zm-5.05-3.47h4.67l-.89-7.05-3.78 7.05Zm17.37 8.16c-1.2 0-2.21-.12-3.03-.35a4.97 4.97 0 0 1-1.95-1.01c-.5-.44-.85-.97-1.07-1.59a6.3 6.3 0 0 1-.32-2.09c0-.77.08-1.58.24-2.44.27-1.4.65-2.54 1.15-3.4a5.91 5.91 0 0 1 4.28-3.04c.92-.17 1.93-.26 3.05-.26h.72a30.6 30.6 0 0 1 1.82.04l.92.01-1.27 3.36a49.45 49.45 0 0 0-2.51-.05c-.6 0-1.1.04-1.53.13a2.42 2.42 0 0 0-1.82 1.55c-.2.44-.36 1.01-.49 1.71a11.66 11.66 0 0 0-.27 1.99c0 .84.22 1.4.65 1.67.43.27 1.12.4 2.08.4h1.58c.53 0 1.18-.01 1.96-.05l-1.3 3.36a74.7 74.7 0 0 1-2.89.06Zm11.2-10.77-1 5.17c-.07.3-.1.61-.1.91 0 .44.11.76.36.97.24.22.67.33 1.28.33h1.47a21.19 21.19 0 0 0 1.31-.03l-1.3 3.36h-.47a30.23 30.23 0 0 1-1.72.03h-.72c-1.6 0-2.77-.35-3.5-1.05a3.87 3.87 0 0 1-1.1-2.93c0-.25.03-.52.06-.81.04-.29.08-.58.14-.89l2.3-11.78 4.4-.52-.76 3.88h4.32l-1.3 3.36h-3.67Zm6.72-3.36h4.3L51.1 19.99h-4.3l2.76-14.07ZM52.58 0c.7 0 1.24.12 1.61.36.37.25.55.65.55 1.23 0 .95-.24 1.6-.73 1.96a3.4 3.4 0 0 1-2.05.54c-1.44 0-2.16-.53-2.16-1.59 0-.48.07-.89.2-1.2.14-.33.33-.59.58-.78.26-.18.55-.32.88-.4.33-.08.7-.12 1.12-.12Zm7.99 15.8 4.68-9.88h4.43l-7.43 14.07h-4.9l-2.1-14.07h4.43l.9 9.88Zm11.59-1.19v.43c.02.67.22 1.15.6 1.45.4.31 1.06.46 2 .46.98 0 1.85 0 2.59-.02.74-.02 1.51-.06 2.32-.11l-1.22 3.1c-.55.05-1.22.08-2 .1-.8.02-1.62.03-2.5.03a8.87 8.87 0 0 1-2.8-.38 4.42 4.42 0 0 1-1.78-1.05 3.85 3.85 0 0 1-.95-1.6 6.83 6.83 0 0 1-.28-2c0-.76.08-1.54.24-2.35.27-1.49.67-2.7 1.19-3.63a7.01 7.01 0 0 1 1.82-2.2c.7-.52 1.46-.88 2.28-1.07.83-.19 1.7-.28 2.6-.28 1.83 0 3.2.34 4.09 1.02a3.47 3.47 0 0 1 1.34 2.93l-.07.72a7.4 7.4 0 0 1-.12.74 4.07 4.07 0 0 1-2.02 2.88c-1.03.55-2.53.83-4.5.83h-2.83Zm3.78-6.08c-.92 0-1.6.23-2.08.69a5.16 5.16 0 0 0-1.13 2.43h2.35c.45 0 .82-.02 1.12-.05.3-.04.54-.1.74-.2.2-.1.35-.23.46-.38a2.24 2.24 0 0 0 .37-1.28c0-.38-.13-.67-.4-.89-.27-.21-.74-.32-1.43-.32Zm13 22.03h-.98v-5.7h1v2.41c.19-.4.64-.73 1.25-.73 1.03 0 1.74.84 1.74 2.05 0 1.23-.7 2.06-1.74 2.06a1.4 1.4 0 0 1-1.27-.72v.63Zm0-1.9c0 .77.36 1.27.99 1.27.65 0 1.02-.52 1.02-1.34 0-.8-.37-1.33-1.02-1.33-.63 0-1 .5-1 1.26v.14Zm3.37-2.03h1.01l1.1 2.96h.02l1.04-2.96h.98l-1.54 4c-.37.98-.83 1.36-1.66 1.37-.13 0-.32-.02-.46-.04v-.75c.12.02.18.02.27.02.4 0 .57-.14.78-.68l-1.54-3.92Zm8.07 3.93v-7.69h3.31c1.8 0 2.87.84 2.87 2.41 0 1.2-.77 1.91-1.65 2.19l1.94 3.09h-1.57l-1.76-2.87h-1.73v2.87h-1.4Zm3.15-4c1.07 0 1.6-.44 1.6-1.28 0-.84-.53-1.28-1.6-1.28h-1.74v2.57h1.74Zm6.88 4.13c-1.6 0-2.77-1.07-2.77-2.85 0-1.8 1.2-2.88 2.74-2.88 1.72 0 2.54 1.3 2.54 2.76v.44h-3.95c.1.97.59 1.52 1.44 1.52.63 0 1.02-.3 1.2-.82h1.28c-.24 1.17-1.22 1.83-2.48 1.83Zm-1.4-3.42h2.6c0-.68-.4-1.29-1.23-1.29-.72 0-1.21.45-1.36 1.29Zm9.05 2.42c-.27.55-.93 1-1.77 1-1.43 0-2.42-1.16-2.42-2.86s.99-2.87 2.42-2.87c.86 0 1.48.47 1.74 1.02v-3.35h1.39v7.93h-1.36v-.87Zm0-1.96c0-1.07-.5-1.76-1.38-1.76-.9 0-1.41.74-1.41 1.86 0 1.13.52 1.85 1.41 1.85.88 0 1.39-.7 1.39-1.76v-.2Zm8.31 1.42h.02l1.11-4.06h1.33l-1.67 5.47h-1.4l-1.09-3.95h-.03l-1.07 3.95h-1.42l-1.67-5.47h1.37l1.11 4.06h.02l1.05-4.06h1.29l1.05 4.06Zm5.8 1.54c-1.62 0-2.77-1.09-2.77-2.86 0-1.77 1.15-2.87 2.77-2.87s2.78 1.1 2.78 2.87-1.16 2.86-2.78 2.86Zm0-1.02c.89 0 1.4-.7 1.4-1.84 0-1.15-.51-1.85-1.4-1.85-.9 0-1.4.7-1.4 1.85 0 1.15.5 1.84 1.4 1.84Zm6.51 1.02c-1.62 0-2.78-1.09-2.78-2.86 0-1.77 1.16-2.87 2.78-2.87 1.62 0 2.78 1.1 2.78 2.87s-1.16 2.86-2.78 2.86Zm0-1.02c.88 0 1.4-.7 1.4-1.84 0-1.15-.52-1.85-1.4-1.85-.9 0-1.4.7-1.4 1.85 0 1.15.5 1.84 1.4 1.84Zm7.92.02c-.28.55-.94 1-1.77 1-1.44 0-2.42-1.16-2.42-2.86s.98-2.87 2.42-2.87c.85 0 1.48.47 1.74 1.02v-3.35h1.38v7.93h-1.36v-.87Zm0-1.96c0-1.07-.5-1.76-1.38-1.76-.9 0-1.42.74-1.42 1.86 0 1.13.52 1.85 1.42 1.85.87 0 1.38-.7 1.38-1.76v-.2Z"/>
</svg>