<svg xmlns="http://www.w3.org/2000/svg" viewBox="0 0 33 28">
	<path fill="#006170" d="M30.71 12.181V24.85a.873.873 0 0 1-.886.872H16.96a.872.872 0 0 1-.886-.872v-6.81h.138c1.243 0 2.256-.997 2.256-2.221V11.32h11.345c.495 0 .886.385.886.873l.011-.012Z"/>
	<path fill="#1AC8C6" d="M16.224 2.278H3.348a.868.868 0 0 0-.874.86v12.68c0 .476.391.862.874.862h12.876a.868.868 0 0 0 .874-.861V3.139a.868.868 0 0 0-.874-.861Z"/>
	<path fill="#082029" d="M2.6 19.003c-1.438 0-2.6-1.145-2.6-2.561V2.56C0 1.144 1.162 0 2.6 0h14.084c1.438 0 2.6 1.144 2.6 2.56v2.63c0 .283-.23.51-.517.51a.512.512 0 0 1-.518-.51V2.56c0-.849-.713-1.552-1.576-1.552H2.6c-.863 0-1.576.703-1.576 1.553v13.88c0 .85.713 1.553 1.576 1.553h24.13c.287 0 .517.227.517.51 0 .284-.23.51-.518.51H2.6v-.011Z"/>
	<path fill="#082029" d="m23.001 22.47 3.705-3.682a.494.494 0 0 0 0-.703l-3.417-3.536a.498.498 0 0 1 .023-.713.516.516 0 0 1 .725.022l4.107 4.238a.504.504 0 0 1 0 .703l-4.418 4.374a.516.516 0 0 1-.725 0 .497.497 0 0 1 0-.714v.011Z"/>
	<path fill="#082029" d="M16.304 28c-1.438 0-2.6-1.144-2.6-2.56v-2.63c0-.283.23-.51.518-.51.287 0 .518.227.518.51v2.63c0 .849.713 1.551 1.576 1.551H30.4c.863 0 1.576-.702 1.576-1.552V11.57c0-.85-.713-1.552-1.576-1.552H5.627a.512.512 0 0 1-.518-.51c0-.283.23-.51.518-.51H30.4c1.438 0 2.6 1.145 2.6 2.561v13.87c0 1.416-1.162 2.56-2.6 2.56H16.316l-.012.012Z"/>
	<path fill="#082029" d="m4.211 9.201 4.695-4.657a.516.516 0 0 1 .725 0 .497.497 0 0 1 0 .714L5.638 9.212a.494.494 0 0 0 0 .703l3.912 4.023a.507.507 0 0 1-.011.713.527.527 0 0 1-.725-.01L4.21 9.903a.504.504 0 0 1 0-.703Z"/>
</svg>