<svg xmlns="http://www.w3.org/2000/svg" viewBox="0 0 25 21">
	<path fill="#006170" d="M24.5.52H.3v5.14h24.2V.52Z"/>
	<path fill="#1AC8C6" d="M7.04 15.32c2.71.45 4.48.83 5.46 1.68.98-.85 2.75-1.21 5.46-1.66v-4.1l-5.06 1.41-.4.17-.4-.17-5.06-1.41v4.08Z"/>
	<path fill="#1E272D" d="m12.5 17.68-.28-.24s-1.61-1.36-5.32-1.52l-.4-.01v-4.46c0-.24.19-.42.42-.42.23 0 .42.18.42.42v3.66c2.92.2 4.54 1.1 5.15 1.5.6-.42 2.23-1.3 5.15-1.5v-3.43l-5.15 1.48-.12-.03-9.17-2.65 9.29-2.67.11.03 7.78 2.24c.22.06.35.3.29.52a.42.42 0 0 1-.52.29l-7.66-2.21-6.27 1.8 6.27 1.81 5.99-1.73v5.35l-.4.01c-3.71.16-5.3 1.5-5.32 1.52l-.28.24h.02Z"/>
	<path fill="#1E272D" d="M20.28 14.97a.42.42 0 0 1-.42-.42v-4.07c0-.24.19-.42.42-.42.23 0 .42.18.42.42v4.07c0 .23-.19.42-.42.42Z"/>
	<path fill="#1E272D" d="M23.56 20.59H1.44c-.8 0-1.44-.65-1.44-1.44V1.35C0 .62.6 0 1.36 0h22.29C24.39 0 25 .6 25 1.36v17.8c0 .8-.65 1.44-1.44 1.44v-.01ZM1.36.84a.52.52 0 0 0-.52.52v17.8c0 .33.26.6.6.6h22.12a.6.6 0 0 0 .6-.6V1.36a.52.52 0 0 0-.52-.52H1.36Z"/>
	<path fill="#1AC8C6" d="M3.44 3.67a.64.64 0 1 1 0-1.29.64.64 0 1 1 0 1.3ZM6.03 3.67a.64.64 0 1 1 0-1.29.64.64 0 1 1 0 1.3ZM8.62 3.67a.64.64 0 1 1 0-1.29.64.64 0 1 1 0 1.3Z"/>
	<path fill="#1E272D" d="M24.25 6.01H.75c-.27 0-.49-.19-.49-.42 0-.23.22-.42.5-.42h23.49c.27 0 .49.19.49.42 0 .23-.22.42-.5.42Z"/>
</svg>