<svg xmlns="http://www.w3.org/2000/svg" viewBox="0 0 24 27">
	<path fill="#1AC8C6" d="M11.98 25.09c-.42 0-.83-.1-1.2-.31l-8.44-4.7c-.1-.06.07.3-.03.21l.4-1.19c.04.04-.34.04-.3.07h.04l.08.07 8.7 4.97c.57.25 1.15.23 1.63-.05l8.72-4.99.14-.11.48.52c-.1.09-.2.16-.3.22l-.12.07-8.49 4.86c-.41.23-.86.35-1.3.35v.01Z"/>
	<path fill="#082029" d="m23.03 18.81-.69-.19v-10c0-.11 0-.18-.02-.24a1.76 1.76 0 0 0-.67-1.12c-.06-.05-.11-.07-.16-.1l-.68-.4-7.94-4.54-.25-.12.29-.65.29.15 8.64 4.94c.08.06.17.1.24.16.5.37.83.92.93 1.52.02.1.05.22.05.38v9.92c0 .07 0 .19-.03.3Z"/>
	<path fill="#082029" d="M13.1 1.46a1.1 1.1 0 0 0-1.11-1 1.1 1.1 0 0 0-1.11 1l-.01.1a1.08 1.08 0 0 0 .33.8 1.1 1.1 0 0 0 1.58 0 .95.95 0 0 0 .27-.44c.04-.1.06-.22.06-.34v-.12Zm-.41.5a.81.81 0 0 1-.7.4l-.2-.02a.45.45 0 0 1-.18-.1.7.7 0 0 1-.37-.47.38.38 0 0 1-.03-.21c0-.12.03-.24.09-.35l.01-.04.08-.11a.75.75 0 0 1 .6-.28l.2.02h.02a.5.5 0 0 1 .18.08.8.8 0 0 1 .21.2c.16.18.22.43.16.68a.88.88 0 0 1-.09.2h.02Z"/>
	<path fill="#1AC8C6" d="M13.12 25.42c0 .6-.5 1.1-1.12 1.1a1.11 1.11 0 1 1 0-2.21c.62 0 1.12.5 1.12 1.1Z"/>
	<path fill="#006170" d="M22.96 8.49c-.53.3-1.21.12-1.52-.4a1.1 1.1 0 0 1 .4-1.52c.54-.3 1.22-.12 1.53.4.3.54.12 1.22-.4 1.52Z"/>
	<path fill="#082029" d="M2.67 19.2a.78.78 0 0 0-.1-.3c-.13-.2-.3-.34-.5-.44a.12.12 0 0 0-.1-.03 1.09 1.09 0 0 0-.93.08c-.53.29-.72.97-.4 1.5.3.54.99.72 1.52.4.03 0 .04-.02.07-.04a.25.25 0 0 0 .09-.08 1 1 0 0 0 .39-.75.79.79 0 0 0-.03-.35h-.01Zm-.4.64a.55.55 0 0 1-.23.24.85.85 0 0 1-.25.13l-.21.03a.73.73 0 0 1-.2-.03.45.45 0 0 1-.2-.09.73.73 0 0 1-.39-.68c0-.12.04-.25.1-.35v-.04l.08-.11a.8.8 0 0 1 .33-.23.8.8 0 0 1 .28-.05c.07 0 .13 0 .2.02h.01c.06.02.12.04.17.08.1.05.17.11.23.2.21.23.24.58.07.87l.01.01Zm20.7-1.34a1.67 1.67 0 0 0-.27-.12 1.15 1.15 0 0 0-1.25.51c-.05.1-.09.2-.11.29a.81.81 0 0 0-.03.36 1 1 0 0 0 .37.74l.09.08.07.05c.53.3 1.22.12 1.53-.4a1.1 1.1 0 0 0-.4-1.52Zm.12 1.34a.81.81 0 0 1-.47.37l-.22.03a.84.84 0 0 1-.2-.03.55.55 0 0 1-.19-.09c-.01 0-.03-.01-.05-.04a.72.72 0 0 1-.33-.64c0-.12.03-.25.1-.35v-.04a.78.78 0 0 1 .68-.39 1.52 1.52 0 0 1 .22.02l.05.02c.05 0 .09.03.12.05.1.06.16.12.22.2.2.24.24.59.07.88v.01Z"/>
	<path fill="#082029" d="M23.21 18.1a1.36 1.36 0 0 0-.24-.12 1.6 1.6 0 0 0-.95-.05c-.2.04-.37.12-.54.25a1.42 1.42 0 0 0-.56.76 1.3 1.3 0 0 0-.04.85c.04.27.17.52.39.73.01.03.05.05.08.08.08.08.17.15.28.2.24.15.5.21.79.21.13 0 .28 0 .4-.04a1.58 1.58 0 0 0 .38-2.9v.02Zm-.6 2.1a.71.71 0 0 1-.2.04.84.84 0 0 1-.2-.03.55.55 0 0 1-.2-.09c-.01 0-.03-.01-.05-.04a.72.72 0 0 1-.33-.64c0-.12.03-.25.1-.35v-.04l.08-.11a.78.78 0 0 1 .6-.28 1.52 1.52 0 0 1 .22.02l.05.02c.05 0 .09.03.12.05.1.06.16.12.22.2.2.24.24.59.07.88a.81.81 0 0 1-.48.36v.02ZM2.37 18.1a1.49 1.49 0 0 0-1.08-.18h-.1c-.2.04-.37.13-.55.25a1.42 1.42 0 0 0-.56.76c-.1.28-.11.57-.03.85.04.31.2.6.45.81a1.54 1.54 0 0 0 1.08.41 1.48 1.48 0 0 0 1.14-.49c.09-.08.16-.17.23-.29.44-.75.17-1.71-.59-2.14l.01.01Zm-.33 1.98a.85.85 0 0 1-.25.13l-.21.03a.73.73 0 0 1-.2-.03.45.45 0 0 1-.2-.09.73.73 0 0 1-.39-.68c0-.12.04-.25.1-.35v-.04l.08-.11a.8.8 0 0 1 .33-.23.8.8 0 0 1 .28-.05c.07 0 .13 0 .2.02h.01c.06.02.12.04.17.08.1.05.17.11.23.2.21.23.24.58.07.87a.55.55 0 0 1-.23.25h.01Z"/>
	<path fill="#006170" d="M23.98 7.32c-.03-.12-.05-.25-.1-.37a1.73 1.73 0 0 0-.2-.35.7.7 0 0 0-.15-.16.69.69 0 0 0-.15-.15c-.07-.05-.12-.1-.2-.13l-.22-.1a1 1 0 0 0-.28-.08 1.53 1.53 0 0 0-.27-.03h-.01l-.2.01A.66.66 0 0 0 22 6a.95.95 0 0 0-.33.12l-.2.13-.02.03a.82.82 0 0 0-.17.12l-.13.14-.13.2c-.01.03-.03.05-.03.08a.6.6 0 0 0-.07.16L20.9 7a1.49 1.49 0 0 0 .03 1.08 1.21 1.21 0 0 0 .28.46l.17.18a1.32 1.32 0 0 0 .4.24l.23.07.16.04h.1l.07.01h.07c.1 0 .2 0 .29-.03h.06l.05-.01.13-.06h.02a.62.62 0 0 0 .17-.07l.06-.03.04-.03.03-.03.16-.12a.22.22 0 0 0 .07-.07c.06-.04.11-.1.15-.16 0 0 .01-.03.04-.04a.56.56 0 0 0 .1-.15l.02-.04c.05-.11.1-.22.12-.34.04-.12.06-.26.06-.39l-.01-.22.01.02Zm-.89.6a.75.75 0 0 1-.42.35l-.05.01a.56.56 0 0 1-.22.04c-.06 0-.14 0-.2-.03a.53.53 0 0 1-.19-.08.76.76 0 0 1-.39-.7c0-.1.03-.24.1-.34v-.03L21.8 7l.05-.05a.8.8 0 0 1 .55-.21l.2.01.02.02c.07 0 .12.03.18.07a.5.5 0 0 1 .21.2c.2.24.25.58.07.87h.01Z"/>
	<path fill="#082029" d="M2.81 6.56A1.57 1.57 0 0 0 1.2 6c-.2.04-.38.12-.55.25a1.42 1.42 0 0 0-.57.76c-.1.28-.1.56-.03.85.04.3.2.59.45.81a1.82 1.82 0 0 0 .78.4l.3.03a1.6 1.6 0 0 0 1.37-.8c.33-.57.25-1.27-.15-1.76h.02Zm-.55 1.36a.76.76 0 0 1-.47.36.58.58 0 0 1-.22.04c-.07 0-.14 0-.2-.03l-.05-.01a.24.24 0 0 1-.13-.07.76.76 0 0 1-.3-1.04v-.03L.97 7a.8.8 0 0 1 .61-.27c.07 0 .13 0 .2.02l.01.01a.4.4 0 0 1 .17.07c.07.04.12.08.16.12.04.02.05.05.07.08.21.24.24.58.07.87v.01ZM12.8.21a1.57 1.57 0 0 0-1.19-.16c-.2.04-.37.12-.55.25a1.5 1.5 0 0 0-.56.75c-.1.29-.11.58-.04.86.01.08.04.15.07.23.08.23.2.42.4.58a.8.8 0 0 0 .28.2 1.55 1.55 0 0 0 1.2.17c.41-.12.75-.37.97-.73l.1-.2c.29-.72 0-1.56-.68-1.95Zm-.11 1.75a.81.81 0 0 1-.7.4c-.07 0-.14 0-.2-.02a.45.45 0 0 1-.18-.09.7.7 0 0 1-.37-.48.38.38 0 0 1-.03-.2.7.7 0 0 1 .09-.35l.01-.04c.02-.05.05-.08.08-.11a.75.75 0 0 1 .6-.28 1.52 1.52 0 0 1 .22.02.5.5 0 0 1 .18.08c.08.05.16.11.21.19.16.19.22.44.16.69-.02.07-.05.12-.09.2h.02Zm4.53 17.55a.37.37 0 0 1-.38-.37v-2.4c0-.51-.23-1-.62-1.31l-1.58-1.29a.38.38 0 0 1-.05-.53.39.39 0 0 1 .54-.05l1.58 1.28c.57.47.9 1.16.9 1.89v2.4a.4.4 0 0 1-.38.38h-.01Zm-10.44 0a.37.37 0 0 1-.38-.37v-2.4c0-.74.33-1.43.9-1.89l1.58-1.29a.4.4 0 0 1 .54.06c.13.16.1.4-.05.53l-1.58 1.29c-.4.32-.63.8-.63 1.3v2.4c0 .21-.16.38-.37.38h-.01Zm8.48-.41a.37.37 0 0 1-.37-.37v-1.5a.36.36 0 0 1 .37-.37c.2 0 .37.17.37.37v1.5c0 .2-.16.37-.37.37Zm-6.52 0a.37.37 0 0 1-.38-.37v-1.5c0-.2.15-.4.4-.36.2 0 .37.17.37.38v1.49a.4.4 0 0 1-.4.37ZM12 6.42a3.65 3.65 0 0 0-3.65 3.63 3.65 3.65 0 0 0 7.31 0c0-2-1.64-3.63-3.66-3.63Zm0 6.5c-1.6 0-2.9-1.28-2.9-2.87s1.3-2.88 2.9-2.88c1.6 0 2.9 1.3 2.9 2.88a2.9 2.9 0 0 1-2.9 2.88Z"/>
	<path fill="#082029" d="M.97 18.81c-.03-.11-.03-.22-.03-.3V8.62c0-.13 0-.27.03-.4l.7.12c-.02.09-.03.19-.03.28v9.99l-.68.2ZM2.33 7.26l-.41-.58.23-.15 8.6-4.92c.16-.1.28-.16.39-.19l.2.68a.82.82 0 0 0-.2.1L2.5 7.14c-.06.03-.11.08-.17.12Zm9.65 18.59c-.42 0-.83-.1-1.2-.31L2.1 20.58l-.3-.22.48-.53.14.11h.03l.08.07 8.7 4.97a1.8 1.8 0 0 0 1.63-.05l8.72-4.99.14-.11.48.52c-.1.08-.2.16-.3.22l-.12.07-8.49 4.85c-.41.24-.86.35-1.3.35v.01Z"/>
	<path fill="#006170" d="m13.55 25.07-.04-.12a1.47 1.47 0 0 0-.44-.69 1.53 1.53 0 0 0-1.07-.42 1.68 1.68 0 0 0-1.09.42c-.2.2-.36.43-.43.7a1.32 1.32 0 0 0-.08.46c0 .86.71 1.58 1.6 1.58a1.58 1.58 0 0 0 1.54-1.93Z"/>
	<path fill="#1AC8C6" d="M22.62 20.2a.85.85 0 0 1-.22.04.84.84 0 0 1-.2-.03.55.55 0 0 1-.19-.09c-.01 0-.03-.01-.05-.04a.72.72 0 0 1-.33-.64c0-.12.03-.25.1-.35v-.04a.78.78 0 0 1 .68-.39 1.52 1.52 0 0 1 .22.02l.05.02c.05 0 .09.03.12.05.1.06.16.12.22.2.2.24.24.59.07.88a.81.81 0 0 1-.48.36v.02ZM12.69 1.96a.81.81 0 0 1-.7.4c-.07 0-.14 0-.2-.02a.45.45 0 0 1-.18-.09.7.7 0 0 1-.37-.48.38.38 0 0 1-.03-.2.7.7 0 0 1 .09-.35l.01-.04c.02-.05.05-.08.08-.11a.75.75 0 0 1 .6-.28c.08 0 .15 0 .2.02h.02a.5.5 0 0 1 .18.08c.08.05.16.11.21.19.16.19.22.44.16.68-.02.08-.05.13-.09.2h.02Z"/>
</svg>