<svg xmlns="http://www.w3.org/2000/svg" viewBox="0 0 29 29">
<path fill="#082029" d="M21.56 7.45c-.71 0-1.4.1-2.09.3a7.4 7.4 0 0 0-6.97-4.9 7.51 7.51 0 0 0-7.36 8.65A5.52 5.52 0 0 0 0 17.03a5.58 5.58 0 0 0 5.45 5.55h16.58A7.53 7.53 0 0 0 29 15.03c0-3.99-3.33-7.57-7.44-7.57ZM22 21.7h-1.75l-.08.01H5.45c-2.54 0-4.6-2.1-4.6-4.68a4.64 4.64 0 0 1 4.6-4.68l.18.02c.17 0 .27-.05.35-.16.08-.1.12-.24.09-.37A6.65 6.65 0 0 1 12.5 3.7c2.9 0 5.44 1.9 6.3 4.72.03.11.11.2.22.26.1.05.22.06.33.02a6.42 6.42 0 0 1 2.2-.39c3.65 0 6.6 3 6.6 6.7S25.44 21.48 22 21.7Z"/>
<path fill="#04B392" d="m27.42 3-.54.54-2.29 2.33-.75-.76L26 2.9l.66-.67.76.76ZM1.87 5.37H.8V1.76h3.6v1.08H2.5l2.3 2.33-.75.76-2.17-2.2v1.64ZM4.85 23.9l-2.17 2.2h1.6v1.08H.75v-3.67h1.07v1.95l2.28-2.33.76.76ZM23.84 5.1 26 2.9h-1.6V1.82h3.55v3.67h-1.06V3.54L24.6 5.87l-.75-.76Zm2.98 18.53h1.06v3.61h-3.6v-1.08h1.9l-2.28-2.33.75-.76 2.17 2.2v-1.64ZM27.94 1.82v3.67h-1.06V2.9h-2.49V1.82h3.55ZM4.85 23.9l-2.17 2.2-.66.67-.75-.77 2.82-2.87.76.76ZM4.29 26.1v1.08H.74v-3.67h1.07v2.6h2.48Zm23.19-.16-.76.77-.54-.55-2.28-2.33.75-.76 2.17 2.2.66.67ZM27.88 23.63v3.61h-3.6v-1.08h2.54v-2.53h1.06ZM4.79 5.17l-.75.76L1.2 3.06l.76-.76 2.82 2.87ZM4.4 1.76v1.08H1.88v2.53H.8V1.76h3.6Z"/>
</svg>