<svg xmlns="http://www.w3.org/2000/svg" viewBox="0 0 31 29">
	<path fill="#1AC8C6" d="M28.77 15.48v9.92c0 .84-.68 1.53-1.52 1.53H2.82c-.84 0-1.52-.69-1.52-1.53v-9.92c0 .84.68 1.52 1.52 1.52h24.44c.84 0 1.52-.68 1.52-1.52h-.01Z"/>
	<path fill="#006170" d="M28.77 14.96v4.94c0 .84-.68 1.52-1.52 1.52H2.82c-.84 0-1.52-.68-1.52-1.52v-4.94c0 .84.68 1.52 1.52 1.52h24.44c.84 0 1.52-.68 1.52-1.52h-.01Z"/>
	<path fill="#082029" d="M27.26 16.47H2.82c-.84 0-1.52-.68-1.52-1.52v2.8c.07.02.14.02.22.02h27.02c.08 0 .15 0 .22-.02v-2.8c0 .84-.68 1.52-1.52 1.52h.02ZM28.55 0H1.53C.69 0 0 .68 0 1.52v14.74c0 .76.57 1.39 1.3 1.49.07.02.14.02.22.02h27.02c.08 0 .15 0 .22-.02.73-.1 1.3-.73 1.3-1.49V1.52c0-.84-.69-1.52-1.53-1.52h.02Zm.22 14.96c0 .84-.68 1.52-1.52 1.52H2.82c-.84 0-1.52-.68-1.52-1.52V2.81c0-.84.68-1.52 1.52-1.52h24.44c.84 0 1.52.68 1.52 1.52v12.15h-.01Z"/>
	<path fill="#082029" d="M28.77 4.97V19.9c0 .84-.68 1.52-1.52 1.52H2.82c-.84 0-1.52-.68-1.52-1.52V4.97C.57 5.07 0 5.7 0 6.46v14.73c0 .76.57 1.4 1.3 1.51.07 0 .14.02.22.02h27.02c.08 0 .15 0 .22-.02.73-.11 1.3-.75 1.3-1.51V6.46c0-.76-.57-1.39-1.3-1.49h.01Z"/>
	<path fill="#082029" d="M28.77 10.47V25.4c0 .84-.68 1.53-1.52 1.53H2.82c-.84 0-1.52-.69-1.52-1.53V10.47c-.73.1-1.3.74-1.3 1.5V26.7c0 .84.69 1.52 1.53 1.52h27.02c.84 0 1.53-.68 1.53-1.52V11.97c0-.76-.57-1.4-1.3-1.5h-.01Z"/>
	<path fill="#006170" d="M10.75 13.83c-.17 0-.33-.06-.46-.19a6.68 6.68 0 0 1-1.97-4.75c0-1.79.7-3.48 1.97-4.75.25-.25.67-.25.92 0s.25.67 0 .92a5.386 5.386 0 0 0-1.59 3.83c0 1.45.56 2.81 1.59 3.83.25.25.25.67 0 .92-.13.13-.29.19-.46.19ZM19.33 13.83c-.17 0-.33-.06-.46-.19a.658.658 0 0 1 0-.92 5.426 5.426 0 0 0 0-7.66.658.658 0 0 1 0-.92c.25-.25.67-.25.92 0a6.724 6.724 0 0 1 0 9.5c-.13.13-.29.19-.46.19ZM24.83 10.29c-.55 0-.99-.45-.99-.99s.45-.99.99-.99.99.45.99.99-.45.99-.99.99ZM5.25 10.29c-.55 0-.99-.45-.99-.99s.45-.99.99-.99.99.45.99.99-.45.99-.99.99ZM15.04 12.88c-1.28 0-2.32-1.04-2.32-2.32 0-.36.29-.65.65-.65.36 0 .65.29.65.65 0 .57.46 1.03 1.03 1.03.57 0 1.03-.46 1.03-1.03 0-.35-.09-.69-1.23-1.06-1.41-.46-2.12-1.23-2.12-2.29 0-1.28 1.04-2.32 2.32-2.32 1.28 0 2.32 1.04 2.32 2.32 0 .36-.29.65-.65.65-.36 0-.65-.29-.65-.65 0-.57-.46-1.03-1.03-1.03-.57 0-1.03.46-1.03 1.03 0 .2 0 .66 1.23 1.06.64.21 2.12.69 2.12 2.29 0 1.28-1.04 2.32-2.32 2.32Z"/>
	<path fill="#006170" d="M15.04 6.19c-.36 0-.65-.29-.65-.65v-.95c0-.36.29-.65.65-.65.36 0 .65.29.65.65v.95c0 .36-.29.65-.65.65ZM15.04 13.83c-.36 0-.65-.29-.65-.65v-.95c0-.36.29-.65.65-.65.36 0 .65.29.65.65v.95c0 .36-.29.65-.65.65Z"/>
</svg>