<svg xmlns="http://www.w3.org/2000/svg" viewBox="0 0 25 22">
	<path fill="#006170" d="M23.81 4.73a.37.37 0 0 1-.37-.38V.75H19.9a.37.37 0 0 1-.37-.38c0-.2.16-.37.36-.37h4.3v4.35c0 .21-.17.38-.37.38ZM5.11 21.6H.82v-4.36c0-.2.16-.38.37-.38.2 0 .37.17.37.38v3.6H5.1c.2 0 .37.17.37.38 0 .2-.16.38-.37.38ZM24.18 21.6h-4.3a.37.37 0 0 1-.36-.38c0-.2.16-.38.37-.38h3.55v-3.6c0-.21.17-.38.37-.38.2 0 .37.17.37.37v4.36ZM1.19 4.73a.37.37 0 0 1-.37-.38V0h4.3c.2 0 .36.17.36.37 0 .21-.16.38-.37.38H1.56v3.6c0 .21-.17.38-.37.38ZM18.54 14.85a.38.38 0 0 1-.2-.06.38.38 0 0 1-.12-.51 6.83 6.83 0 0 0-.06-7.06.37.37 0 0 1 .12-.51c.17-.11.4-.06.5.11a7.57 7.57 0 0 1 .07 7.84.37.37 0 0 1-.31.18ZM6.3 14.57a.37.37 0 0 1-.32-.2A7.6 7.6 0 0 1 6.11 7c.1-.18.33-.24.5-.13.18.1.24.33.14.5a6.82 6.82 0 0 0-.12 6.66c.1.18.03.4-.14.5a.37.37 0 0 1-.18.05Z"/>
	<path fill="#082029" d="M12.66 18.31h-.18c-.25.01-6.92.25-12.41-7.29a.38.38 0 0 1 0-.44c5.4-7.42 11.96-7.31 12.43-7.3.47-.02 7.02-.13 12.43 7.3.1.12.1.3 0 .44-5.07 6.94-11.13 7.29-12.27 7.29Zm-.18-.75c.1 0 6.48.21 11.7-6.76-5.22-6.98-11.6-6.76-11.66-6.76h-.04c-.07 0-6.43-.22-11.65 6.76 5.22 6.97 11.59 6.76 11.65 6.76ZM15.7 21.22c0-.2.17-.38.37-.38.2 0 .37.17.37.38 0 .2-.16.37-.37.37a.37.37 0 0 1-.37-.37Zm-2.64 0c0-.2.17-.38.37-.38.2 0 .37.17.37.38 0 .2-.17.37-.37.37a.37.37 0 0 1-.37-.37Zm-2.63 0c0-.2.15-.38.37-.38.2 0 .37.17.37.38 0 .2-.17.37-.37.37a.37.37 0 0 1-.37-.37Zm-2.64 0c0-.2.16-.38.37-.38.2 0 .36.17.36.38 0 .2-.16.37-.36.37a.37.37 0 0 1-.37-.37ZM15.7.37c0-.2.17-.37.37-.37a.37.37 0 0 1 0 .75.37.37 0 0 1-.37-.38Zm-2.64 0c0-.2.17-.37.37-.37.2 0 .37.17.37.37 0 .21-.17.38-.37.38a.37.37 0 0 1-.37-.38Zm-2.63 0c0-.2.15-.37.37-.37.2 0 .37.17.37.37 0 .21-.17.38-.37.38a.37.37 0 0 1-.37-.38Zm-2.64 0c0-.2.16-.37.37-.37.2 0 .36.17.36.37 0 .21-.16.38-.36.38a.37.37 0 0 1-.37-.38Z"/>
	<path fill="#1AC8C6" d="M16.33 10.69a3.86 3.86 0 0 1-3.83 3.89 3.86 3.86 0 0 1-3.84-3.89 3.86 3.86 0 0 1 5.21-3.63c-.7.74-.74 1.92-.05 2.68.63.73 1.68.87 2.47.37.03.2.04.39.04.58Z"/>
</svg>