<svg xmlns="http://www.w3.org/2000/svg" viewBox="0 0 23 23">
	<path fill="#1AC8C6" d="M11.46 19.37a7.89 7.89 0 1 0-7.9-7.87 7.89 7.89 0 0 0 7.9 7.87Z"/>
	<path fill="#082029" d="M19.63 19.64a11.58 11.58 0 0 1-16.33 0l.65-.65a10.66 10.66 0 0 0 15.03 0 10.58 10.58 0 0 0 0-14.98 10.66 10.66 0 0 0-15.03 0l-.65-.65a11.58 11.58 0 0 1 16.33 0 11.5 11.5 0 0 1 0 16.28Z"/>
	<path fill="#282D33" d="m3.95 19-.65.64-.33-.34.68-.62.3.31Z"/>
	<path fill="#082029" d="m3.1 18.05-.71.56a12.8 12.8 0 0 1-.53-.73l.75-.51c.16.23.32.45.5.67ZM2.18 16.67l-.8.44a10.2 10.2 0 0 1-.4-.8l.83-.38c.11.25.24.5.38.74h-.01ZM1.48 15.16l-.85.31c-.1-.28-.2-.57-.28-.86l.87-.24c.07.27.16.53.26.8ZM1.23 8.63.35 8.4c.08-.29.17-.57.28-.86l.85.32c-.1.25-.17.52-.25.78ZM1.8 7.08.97 6.7c.13-.27.26-.54.41-.8l.8.44c-.14.24-.27.5-.38.75v-.01ZM2.61 5.63l-.75-.5c.16-.25.34-.5.53-.74l.71.56-.49.67v.01Z"/>
	<path fill="#282D33" d="m3.65 4.32-.68-.62.33-.34.65.65-.3.3v.01Z"/>
	<path fill="#082029" d="m10.61 14.18-.64-.64 1.9-1.9-1.9-1.9.64-.64 2.54 2.54-2.54 2.54Z"/>
	<path fill="#082029" d="M11.92 11.18H0v.91h11.92v-.9Z"/>
</svg>