<svg xmlns="http://www.w3.org/2000/svg" viewBox="0 0 31 23">
	<path fill="#082029" d="M12.685 1.07A1.928 1.928 0 0 0 11.192.021c-.088 0-.166-.022-.254-.022-.078 0-.166 0-.243.022a1.917 1.917 0 0 0-1.493 1.047c-.144.262-.21.557-.21.862v2.193c0 1.07.873 1.932 1.957 1.932a1.941 1.941 0 0 0 1.957-1.932V1.931c0-.305-.066-.6-.199-.862h-.022Zm-.862 3.043a.875.875 0 0 1-.885.873.881.881 0 0 1-.885-.873V1.931c0-.425.299-.785.708-.862.055 0 .11-.022.177-.022.066 0 .122 0 .177.022.41.077.708.437.708.862v2.193-.01ZM6.636.022v3.982a.532.532 0 0 1-.542.535c-.31 0-.531-.23-.531-.535V.491L5.11.938s-.078.066-.122.088c-.033.021-.066.021-.11.043H4.59a.494.494 0 0 1-.233-.13.536.536 0 0 1 0-.743l.177-.174h2.102ZM21.002 1.571c-1.073 0-1.957.862-1.957 1.931v2.193c0 1.07.884 1.932 1.957 1.932s1.958-.862 1.958-1.932V3.502c0-1.069-.874-1.93-1.958-1.93Zm.885 4.114a.874.874 0 0 1-.885.872.881.881 0 0 1-.885-.872V3.49c0-.49.398-.872.885-.872s.885.392.885.872v2.194ZM16.711.022v3.906a.527.527 0 0 1-.53.524.53.53 0 0 1-.543-.524V.404l-.453.447a.532.532 0 0 1-.752 0 .515.515 0 0 1 0-.742l.1-.098H16.7l.011.01ZM26.255 5.936a.527.527 0 0 1-.53-.524V1.898l-.454.448a.532.532 0 0 1-.752 0 .515.515 0 0 1 0-.742L25.88.262a.514.514 0 0 1 .575-.11c.2.077.332.274.332.48v4.78a.527.527 0 0 1-.53.524Z"/>
	<path fill="#1AC8C6" d="M10.927 8.15c-1.084 0-1.958.873-1.958 1.932v2.193c0 1.058.874 1.93 1.958 1.93s1.957-.872 1.957-1.93v-2.193c0-1.059-.884-1.932-1.957-1.932Zm.885 4.125a.874.874 0 0 1-.885.873.881.881 0 0 1-.885-.873v-2.193c0-.48.398-.873.885-.873s.885.403.885.873v2.193ZM6.105 12.69a.527.527 0 0 1-.531-.524V8.652l-.453.448a.532.532 0 0 1-.752 0 .515.515 0 0 1 0-.742l1.36-1.342a.514.514 0 0 1 .575-.11c.199.077.332.273.332.48v4.78a.527.527 0 0 1-.531.523ZM21.002 9.722c-1.073 0-1.957.872-1.957 1.93v2.194c0 1.058.884 1.931 1.957 1.931s1.958-.873 1.958-1.931v-2.193c0-1.059-.874-1.931-1.958-1.931Zm.885 4.124c0 .48-.398.873-.885.873a.889.889 0 0 1-.885-.873v-2.193c0-.491.398-.873.885-.873s.885.393.885.873v2.193ZM16.18 12.602a.527.527 0 0 1-.53-.524V8.565l-.454.447a.532.532 0 0 1-.752 0 .515.515 0 0 1 0-.742l1.36-1.342a.514.514 0 0 1 .575-.109c.2.077.332.273.332.48v4.78a.527.527 0 0 1-.53.523ZM26.255 14.086a.527.527 0 0 1-.53-.524V10.05l-.454.447a.532.532 0 0 1-.752 0 .515.515 0 0 1 0-.742l1.36-1.342a.514.514 0 0 1 .575-.109c.2.077.332.273.332.48v4.78a.527.527 0 0 1-.53.523Z"/>
	<path fill="#082029" d="M10.927 16.704c-1.084 0-1.958.862-1.958 1.92v2.194c0 .415.144.818.376 1.124.343.49.93.796 1.57.796a1.94 1.94 0 0 0 1.571-.796 1.91 1.91 0 0 0 .376-1.124v-2.193c0-1.059-.885-1.92-1.957-1.92h.022Zm-.885 1.92c0-.48.398-.872.885-.872s.885.404.885.873v2.193a.874.874 0 0 1-.885.873.881.881 0 0 1-.885-.873v-2.193ZM6.105 21.232a.527.527 0 0 1-.531-.523v-3.514l-.453.448a.532.532 0 0 1-.752 0 .515.515 0 0 1 0-.742l1.36-1.342a.514.514 0 0 1 .575-.11c.199.077.332.274.332.48v4.78a.527.527 0 0 1-.531.523ZM22.85 23c.065-.196.11-.404.11-.611v-2.193c0-1.058-.874-1.92-1.958-1.92s-1.957.862-1.957 1.92v2.193c0 .207.033.415.11.611h1.195a.89.89 0 0 1-.233-.611v-2.193c0-.48.398-.873.885-.873s.885.404.885.873v2.193c0 .23-.1.447-.232.611h1.117M16.18 21.145a.528.528 0 0 1-.53-.524v-3.513l-.454.447a.533.533 0 0 1-.752 0 .515.515 0 0 1 0-.741l1.36-1.342a.514.514 0 0 1 .575-.11c.2.077.332.273.332.48v4.78a.528.528 0 0 1-.53.523ZM26.255 22.64a.527.527 0 0 1-.53-.524v-3.513l-.454.447a.532.532 0 0 1-.752 0 .515.515 0 0 1 0-.742l1.36-1.342a.514.514 0 0 1 .575-.109c.2.077.332.273.332.48v4.78a.528.528 0 0 1-.53.523Z"/>
	<path fill="#082029" d="M20.117 22.389v-.447H7.863c.067 0 .133.021.2.043.276.11.409.404.298.677l-.133.327H20.35a.891.891 0 0 1-.233-.61v.01ZM5.121.939s-.078.065-.122.087c-.033.021-.066.021-.11.043h.674V.491L5.11.938h.01Zm14.996 21.45v-.447H7.863c.067 0 .133.021.2.043.276.11.409.404.298.677l-.133.327H20.35a.891.891 0 0 1-.233-.61v.01ZM5 1.026s-.066.021-.11.043h.674V.491L5.11.938s-.078.066-.122.088h.01ZM28.246.022H2.754C1.228.022 0 1.244 0 2.739V20.26c0 1.506 1.228 2.728 2.754 2.728h25.492c1.526 0 2.754-1.222 2.754-2.728V2.74C31 1.244 29.772.022 28.246.022Zm1.703 20.25c0 .928-.763 1.68-1.703 1.68H2.754c-.93 0-1.703-.741-1.703-1.68V2.74c0-.928.763-1.68 1.703-1.68h25.492c.93 0 1.703.741 1.703 1.68V20.272ZM5.121.938s-.078.066-.122.088c-.033.021-.066.021-.11.043h.674V.491L5.11.938h.01ZM20.117 22.39v-.447H7.863c.067 0 .133.021.2.043.276.11.409.404.298.677l-.133.327H20.35a.891.891 0 0 1-.233-.61v.01Z"/>
</svg>