<svg xmlns="http://www.w3.org/2000/svg" viewBox="0 0 22 26"><path fill="#082029" d="M7.62 25.57s-.07 0-.1-.02a.35.35 0 0 1-.23-.44c.22-.7.24-1.64.05-2.59-.08-.4-.4-.72-.8-.83a5.47 5.47 0 0 0-1.41-.15l-.55.02c-.34.03-.7.05-1.06.01-.77-.07-1.36-.4-1.68-.9-.2-.34-.38-.92-.04-1.76.17-.4.03-.64-.14-.94l-.05-.1c-.46-.81-.17-1.3.04-1.65.11-.18.19-.32.2-.48 0-.14-.13-.23-.26-.25a2.2 2.2 0 0 1-1.3-.6 1.01 1.01 0 0 1-.14-1.24l.32-.52a12.36 12.36 0 0 0 1.76-4.79c.07-.5.15-1.12.27-1.88a6.91 6.91 0 0 1 2.86-4.48C6.86.9 9.56-.25 13.86.46c1.79.29 3.2.81 4.31 1.57 3.28 2.23 4.46 6.63 3.03 11.2-.24.76-.55 1.51-.87 2.3-.81 1.98-1.66 4.03-1.26 6.09l.8 3.31a.35.35 0 0 1-.25.43.34.34 0 0 1-.42-.26l-.8-3.34c-.45-2.27.43-4.42 1.29-6.49.31-.77.62-1.51.84-2.23 1.34-4.28.26-8.37-2.75-10.42a9.78 9.78 0 0 0-4.03-1.46c-4.07-.67-6.59.4-7.98 1.4A6.23 6.23 0 0 0 3.2 6.58l-.27 1.88c-.37 2.62-.39 2.67-1.86 5.06l-.31.51c-.07.12-.06.28.03.38.2.2.54.35.88.39.51.05.9.46.88.95 0 .37-.16.63-.29.84-.18.32-.29.48-.03.95l.04.09c.2.33.49.84.18 1.57-.18.44-.18.82 0 1.1.2.32.6.52 1.14.58.31.02.63 0 .96-.01l.57-.03c.54 0 1.08.05 1.6.19.66.16 1.18.7 1.32 1.36.22 1.07.19 2.12-.07 2.94a.35.35 0 0 1-.34.25v-.01Z"/><path fill="#1AC8C6" d="M15.35 10.3a3.88 3.88 0 1 1-7.75.02 3.88 3.88 0 0 1 7.75-.01Z"/><path fill="#082029" d="M7.38 8.46h-.85V5.57h2.9v.86H7.37v2.03Z"/><path fill="#082029" d="m7.6 6.03-.61.6 4.17 4.18.6-.6L7.6 6.02ZM15.54 8.46V6.43h-2.03v-.86h2.88v2.89h-.85Z"/><path fill="#082029" d="m15.33 6.04-4.16 4.15.6.6 4.16-4.15-.6-.6Z"/><path fill="#082029" d="M11.89 10.48h-.85V22.1h.85v-11.6Z"/></svg>