<svg xmlns="http://www.w3.org/2000/svg" viewBox="0 0 26 22">
	<path fill="#1AC8C6" d="M16.2 8.87H9.87v5.82h6.35V8.87Z"/>
	<path fill="#082029" d="M14.97 9.17a.38.38 0 0 1-.39-.38v-.73c0-.87-.7-1.57-1.58-1.57-.87 0-1.57.7-1.57 1.57v.73c0 .21-.17.38-.39.38a.38.38 0 0 1-.38-.38v-.73a2.35 2.35 0 0 1 4.7 0v.73a.4.4 0 0 1-.4.38Z"/>
	<path fill="#082029" d="M16.32 15.2H9.68a.38.38 0 0 1-.38-.39V8.8c0-.21.17-.38.38-.38h6.64c.2 0 .38.17.38.38v6.02c0 .22-.17.39-.38.39Zm-6.25-.76h5.87V9.17h-5.87v5.27Zm14.7-9.62a.38.38 0 0 1-.39-.38V.76h-3.7a.38.38 0 0 1-.39-.38c0-.22.18-.38.39-.38h4.46v4.44c0 .2-.17.38-.38.38ZM5.32 22H.85v-4.44a.38.38 0 0 1 .77 0v3.68h3.7a.38.38 0 1 1 0 .77V22Zm19.82 0h-4.46a.38.38 0 1 1 0-.77h3.7v-3.67a.38.38 0 1 1 .77 0V22ZM1.23 4.82a.38.38 0 0 1-.38-.38V0h4.47a.38.38 0 1 1 0 .77h-3.7v3.67c0 .22-.17.39-.39.39v-.01Z"/>
	<path fill="#006170" d="M19.28 15.13a.36.36 0 0 1-.2-.06.38.38 0 0 1-.13-.53 6.84 6.84 0 0 0-.06-7.19.38.38 0 0 1 .12-.52.38.38 0 0 1 .53.12 7.59 7.59 0 0 1 .07 7.98.38.38 0 0 1-.33.19Zm-12.72-.28a.38.38 0 0 1-.34-.2 7.64 7.64 0 0 1 .14-7.53.39.39 0 0 1 .66.39 6.83 6.83 0 0 0-.12 6.77c.1.19.03.42-.15.52a.42.42 0 0 1-.18.04h-.01Z"/>
	<path fill="#082029" d="M13.17 18.65h-.19c-.25.02-7.2.26-12.9-7.42a.38.38 0 0 1 0-.46C5.7 3.22 12.5 3.32 13 3.35c.49-.03 7.3-.14 12.92 7.42.1.14.1.32 0 .46-5.27 7.08-11.57 7.42-12.75 7.42Zm-.19-.76c.1 0 6.73.21 12.16-6.89-5.43-7.1-12.06-6.89-12.12-6.89h-.04C12.9 4.11 6.28 3.9.86 11c5.43 7.1 12.05 6.89 12.12 6.89Zm3.35 3.73c0-.2.17-.39.38-.39a.38.38 0 1 1 0 .77.39.39 0 0 1-.38-.38Zm-2.75 0c0-.2.17-.39.39-.39a.38.38 0 1 1 0 .77.39.39 0 0 1-.39-.38Zm-2.74 0c0-.2.17-.39.39-.39.2 0 .38.17.38.39 0 .21-.17.38-.38.38a.38.38 0 0 1-.39-.38Zm-2.75 0c0-.2.17-.39.39-.39.2 0 .38.17.38.39 0 .21-.17.38-.38.38a.39.39 0 0 1-.39-.38ZM16.33.38a.38.38 0 1 1 .39.38.39.39 0 0 1-.4-.38Zm-2.75 0c0-.2.17-.38.39-.38a.38.38 0 1 1 0 .77.39.39 0 0 1-.39-.39Zm-2.74 0a.39.39 0 0 1 .77 0c0 .22-.17.39-.38.39a.38.38 0 0 1-.39-.39ZM8.1.38a.39.39 0 0 1 .77 0c0 .22-.17.39-.38.39A.39.39 0 0 1 8.1.38Z"/>
</svg>