<svg xmlns="http://www.w3.org/2000/svg" viewBox="0 0 28 32">
	<path fill="#1E272D" d="M13.91 30.01c-.36 0-.72-.09-1.04-.28L2.24 23.59a2.087 2.087 0 0 1-1.04-1.8V9.51c0-.74.4-1.43 1.04-1.8l10.63-6.14c.64-.37 1.44-.37 2.08 0l10.63 6.14c.64.37 1.04 1.06 1.04 1.8v12.28c0 .74-.4 1.43-1.04 1.8l-10.63 6.14c-.32.19-.68.28-1.04.28Zm0-27.62c-.17 0-.34.04-.49.13L2.78 8.66c-.3.18-.49.5-.49.85v12.28c0 .35.19.68.49.85l10.63 6.14c.3.18.68.18.99 0l10.63-6.14c.3-.18.49-.5.49-.85V9.51c0-.35-.19-.68-.49-.85L14.4 2.52a.947.947 0 0 0-.49-.13Z"/>
	<path fill="#1E272D" d="M13.91 29.81c-.3 0-.55-.24-.55-.55V1.84c0-.3.24-.55.55-.55.31 0 .55.24.55.55v27.42c0 .3-.24.55-.55.55Z"/>
	<path fill="#1E272D" d="M2.04 22.95a.545.545 0 0 1-.27-1.02L25.51 8.22c.26-.15.6-.06.75.2.15.26.06.6-.2.75L2.31 22.88c-.09.05-.18.07-.27.07Z"/>
	<path fill="#1E272D" d="M25.78 22.95c-.09 0-.19-.02-.27-.07L1.77 9.17a.553.553 0 0 1-.2-.75c.15-.26.49-.35.75-.2l23.74 13.71c.26.15.35.49.2.75-.1.18-.29.27-.47.27h-.01Z"/>
	<path fill="#fff" d="M13.9 3.13a1.29 1.29 0 1 0 0-2.58 1.29 1.29 0 0 0 0 2.58Z"/>
	<path fill="#1E272D" d="M13.9 3.68c-1.02 0-1.84-.83-1.84-1.84C12.06.83 12.89 0 13.9 0c1.01 0 1.84.83 1.84 1.84 0 1.01-.83 1.84-1.84 1.84Zm0-2.59a.749.749 0 1 0-.002 1.498.749.749 0 0 0 .002-1.498Z"/>
	<path fill="#006170" d="M15.2 29.7c0 .71-.58 1.29-1.29 1.29-.71 0-1.29-.58-1.29-1.29 0-.71.58-1.29 1.29-1.29.71 0 1.29.58 1.29 1.29Z"/>
	<path fill="#006170" d="M13.91 31.54c-1.01 0-1.84-.83-1.84-1.84 0-1.01.83-1.84 1.84-1.84 1.01 0 1.84.83 1.84 1.84 0 1.01-.83 1.84-1.84 1.84Zm0-2.59c-.41 0-.75.33-.75.75s.33.75.75.75a.749.749 0 1 0 0-1.5ZM26.61 9.92c-.62.36-1.41.15-1.77-.47-.36-.62-.15-1.41.47-1.77.62-.36 1.41-.15 1.77.47.36.62.15 1.41-.47 1.77Z"/>
	<path fill="#006170" d="M25.97 10.64c-.64 0-1.26-.33-1.6-.92-.25-.43-.31-.92-.18-1.4.13-.47.43-.87.86-1.12.88-.51 2.01-.21 2.51.67.25.43.31.92.18 1.4-.13.48-.43.87-.86 1.12-.29.17-.61.25-.92.25h.01Zm0-2.59c-.13 0-.26.03-.37.1a.75.75 0 0 0-.28 1.02c.21.36.66.48 1.02.27a.75.75 0 0 0 .28-1.02.75.75 0 0 0-.45-.35.628.628 0 0 0-.19-.03l-.01.01Z"/>
	<path fill="#fff" d="M2.49 23.86c-.62.36-1.41.15-1.77-.47-.36-.62-.15-1.41.47-1.77.62-.36 1.41-.15 1.77.47.36.62.15 1.41-.47 1.77Z"/>
	<path fill="#1E272D" d="M1.85 24.58c-.64 0-1.26-.33-1.6-.92-.25-.43-.31-.92-.18-1.4.13-.48.43-.87.86-1.12.88-.51 2.01-.21 2.51.67.25.43.31.92.18 1.4-.13.48-.43.87-.86 1.12-.29.17-.61.25-.92.25h.01Zm0-2.59c-.13 0-.26.03-.37.1a.75.75 0 0 0-.28 1.02.75.75 0 0 0 1.02.28.75.75 0 0 0 .28-1.02.75.75 0 0 0-.45-.35.628.628 0 0 0-.19-.03h-.01Z"/>
	<path fill="#fff" d="M25.33 23.85c-.62-.36-.83-1.15-.47-1.77.36-.62 1.15-.83 1.77-.47.62.36.83 1.15.47 1.77-.36.62-1.15.83-1.77.47Z"/>
	<path fill="#1E272D" d="M25.97 24.57c-.32 0-.63-.08-.92-.25a1.836 1.836 0 1 1 1.84-3.18c.88.51 1.18 1.64.67 2.51a1.83 1.83 0 0 1-1.6.92h.01Zm0-2.59c-.26 0-.51.13-.65.37-.21.36-.08.81.27 1.02.17.1.37.13.57.07a.75.75 0 0 0 .18-1.37.736.736 0 0 0-.37-.1v.01Z"/>
	<path fill="#fff" d="M1.19 9.93C.57 9.57.36 8.78.72 8.16c.36-.62 1.15-.83 1.77-.47.62.36.83 1.15.47 1.77-.36.62-1.15.83-1.77.47Z"/>
	<path fill="#1E272D" d="M1.84 10.65c-.31 0-.63-.08-.92-.25a1.836 1.836 0 1 1 1.84-3.18 1.849 1.849 0 0 1 .68 2.52c-.34.59-.96.92-1.6.92v-.01Zm-.37-1.19c.36.21.82.08 1.02-.27.1-.17.13-.37.07-.57a.75.75 0 0 0-.35-.45.707.707 0 0 0-.57-.07.75.75 0 0 0-.18 1.37l.01-.01Z"/>
	<path fill="#fff" d="M17.61 15.65c0 2.14-1.74 3.88-3.88 3.88-2.14 0-3.88-1.74-3.88-3.88 0-2.14 1.74-3.88 3.88-3.88 2.14 0 3.88 1.74 3.88 3.88Z"/>
	<path fill="#1E272D" d="M13.73 20.08c-2.44 0-4.42-1.98-4.42-4.42s1.98-4.42 4.42-4.42 4.42 1.98 4.42 4.42-1.98 4.42-4.42 4.42Zm0-7.75c-1.84 0-3.33 1.49-3.33 3.33s1.49 3.33 3.33 3.33 3.33-1.49 3.33-3.33-1.49-3.33-3.33-3.33Z"/>
	<path fill="#1AC8C6" d="M16.47 15.65c0 1.51-1.23 2.74-2.74 2.74-1.51 0-2.74-1.23-2.74-2.74 0-1.51 1.23-2.74 2.74-2.74 1.51 0 2.74 1.23 2.74 2.74Z"/>
</svg>