<svg xmlns="http://www.w3.org/2000/svg" viewBox="0 0 33 28">
	<path fill="#082029" d="m22.86 16.18-3.03-1.77v1.03l1.95 1.12-1.95 1.13-.7.4-2.79 1.63-2.65-1.54-.5-.3-2.27-1.3 2.25-1.3v-1.03L9.84 16.2a.44.44 0 0 0-.22.38c0 .16.07.31.22.39l6.3 3.65a.4.4 0 0 0 .21.06c.07 0 .15-.01.22-.06l6.3-3.65a.46.46 0 0 0 .22-.39.48.48 0 0 0-.22-.38Z"/>
	<path fill="#082029" d="M19.83 10.43v5l-.86-.5-2.63-1.52-2.31 1.35v-1.02l2.1-1.21c.14-.07.3-.07.43 0l2.4 1.4v-3.49c0-.23.2-.44.44-.44.23 0 .43.2.43.44Z"/>
	<path fill="#036270" d="m10.91 16.56 5.44-3.16 5.44 3.16-5.44 3.17-5.44-3.17Z"/>
	<path fill="#082029" d="M16.35 28a.45.45 0 0 1-.22-.05l-6.3-3.67a.44.44 0 0 1-.22-.38v-7.33c0-.24.2-.43.44-.43.23 0 .43.2.43.43v7.08l5.87 3.41 5.87-3.4v-7.09c0-.24.2-.43.44-.43.23 0 .43.2.43.43v7.33c0 .15-.08.3-.22.38l-6.3 3.67a.48.48 0 0 1-.22.05Z"/>
	<path fill="#082029" d="M16.35 25.54a.44.44 0 0 1-.43-.44v-4.86c0-.25.2-.44.43-.44.24 0 .43.2.43.44v4.86c0 .25-.2.44-.43.44Zm0-17.33a.45.45 0 0 1-.22-.06L9.83 4.5a.44.44 0 0 1-.22-.38c0-.16.08-.3.22-.38l6.3-3.67c.14-.08.3-.08.44 0l6.3 3.67c.14.08.22.22.22.38s-.08.3-.22.38l-6.3 3.66a.48.48 0 0 1-.22.06Zm-5.44-4.1 5.44 3.16 5.44-3.16L16.35.95 10.91 4.1Z"/>
	<path fill="#036270" d="M10.91 4.1 16.35.94 21.8 4.1l-5.44 3.16-5.44-3.16Z"/>
	<path fill="#082029" d="M10.05 8.81a.44.44 0 0 1-.44-.44V4.11c0-.25.2-.44.44-.44.23 0 .43.2.43.44v4.26c0 .25-.2.44-.43.44Zm12.6.17a.44.44 0 0 1-.44-.43V4.1c0-.25.2-.44.44-.44.23 0 .43.2.43.44v4.44c0 .24-.2.43-.43.43Zm-6.3 4.1a.44.44 0 0 1-.43-.44V7.77c0-.24.2-.44.43-.44.24 0 .43.2.43.44v4.87c0 .24-.2.44-.43.44Z"/>
	<path fill="#082029" d="M25.7 14.53a.45.45 0 0 1-.21-.05l-6.3-3.66a.44.44 0 0 1-.22-.39c0-.16.08-.3.21-.38l6.3-3.66c.14-.08.3-.08.44 0l6.3 3.66c.14.08.22.22.22.38 0 .17-.08.3-.21.39l-6.3 3.66a.48.48 0 0 1-.23.05Zm-5.43-4.1 5.43 3.16 5.43-3.16-5.43-3.16-5.43 3.16Z"/>
	<path fill="#1AC8C6" d="m20.27 10.43 5.43-3.16 5.44 3.16-5.44 3.16-5.43-3.16Z"/>
	<path fill="#082029" d="m19.14 18.1.7-.4v.07c0 .23-.2.43-.44.43-.1 0-.2-.03-.26-.1Zm6.56 3.77a.44.44 0 0 1-.38-.22.45.45 0 0 1 .17-.6l6.08-3.54v-7.08c0-.24.2-.43.43-.43.24 0 .44.2.44.43v7.33c0 .15-.09.3-.22.38l-6.3 3.66a.48.48 0 0 1-.22.06Zm0-2.47a.44.44 0 0 1-.43-.43V14.1c0-.24.2-.43.43-.43.24 0 .44.2.44.43v4.87c0 .25-.2.44-.44.44ZM7.3 14.53a.45.45 0 0 1-.22-.05l-6.3-3.66a.44.44 0 0 1-.22-.39c0-.16.08-.3.21-.38l6.3-3.66c.14-.08.3-.08.44 0l6.3 3.66c.14.08.22.22.22.38 0 .17-.08.3-.21.39l-6.3 3.66a.48.48 0 0 1-.22.05Zm-5.44-4.1L7.3 13.6l5.43-3.16L7.3 7.27l-5.44 3.16Z"/>
	<path fill="#1AC8C6" d="M1.86 10.43 7.3 7.27l5.43 3.16L7.3 13.6l-5.44-3.16Z"/>
	<path fill="#082029" d="M7.3 21.87a.48.48 0 0 1-.22-.06l-6.3-3.67a.44.44 0 0 1-.22-.38v-7.33c0-.24.2-.43.43-.43.23 0 .43.2.43.43v7.08l6.1 3.54c.2.12.27.39.16.6a.44.44 0 0 1-.38.22Zm0-2.47a.44.44 0 0 1-.44-.43V14.1c0-.24.2-.43.44-.43.23 0 .43.2.43.43v4.87c0 .25-.2.44-.43.44Zm5.88-1.51.5.29-.1.02a.42.42 0 0 1-.41-.32Zm.85-7.46v4.33l-.87.5v-4.83c0-.23.2-.43.43-.43.24 0 .44.2.44.43Z"/>
</svg>