<svg xmlns="http://www.w3.org/2000/svg" viewBox="0 0 23 24"><path fill="#006170" d="M19.83 8.21v6.2h2.82l-2.82-6.2ZM2.8 8.21l-2.77 6H3.2l-.4-6Z"/><path fill="#1E272D" d="M15.22 11.08H7.78a.36.36 0 0 1-.35-.36c0-.2.16-.36.35-.36h7.44c.2 0 .35.17.35.36 0 .2-.16.36-.35.36ZM12.79 5.9h-5a.36.36 0 0 1-.35-.36c0-.2.16-.36.35-.36h5c.2 0 .35.16.35.36 0 .2-.16.35-.35.35ZM12.79 7.62h-5a.36.36 0 0 1-.35-.35c0-.2.16-.36.35-.36h5c.2 0 .35.16.35.36 0 .2-.16.35-.35.35ZM12.79 9.35h-5a.36.36 0 0 1-.35-.36c0-.2.16-.35.35-.35h5c.2 0 .35.16.35.35 0 .2-.16.36-.35.36Z"/><path fill="#1E272D" d="M15.22 5.9H7.78a.36.36 0 0 1-.35-.36c0-.2.16-.36.35-.36h7.44c.2 0 .35.16.35.36 0 .2-.16.35-.35.35Z"/><path fill="#1E272D" d="M19.84 14.7a.36.36 0 0 1-.36-.36V3.46a.5.5 0 0 0-.5-.5H4.02a.5.5 0 0 0-.5.5v10.88c0 .2-.15.35-.35.35a.36.36 0 0 1-.36-.35V3.46c0-.66.55-1.22 1.22-1.22H19c.67 0 1.22.55 1.22 1.22v10.88c0 .2-.16.35-.35.35l-.02.01Z"/><path fill="#1E272D" d="M18.4 2.97a.36.36 0 0 1-.36-.36V1.03a.32.32 0 0 0-.31-.3H5.28a.32.32 0 0 0-.31.3v1.58a.36.36 0 1 1-.71 0V1.03C4.26.46 4.72 0 5.29 0h12.45c.57 0 1.03.46 1.03 1.03v1.58c0 .2-.16.36-.36.36h-.01ZM.36 14.7s-.1 0-.14-.03a.36.36 0 0 1-.2-.46l2.8-7.08a.36.36 0 0 1 .67.26l-2.8 7.08a.36.36 0 0 1-.34.23ZM22.64 14.7a.37.37 0 0 1-.33-.23l-2.8-7.08a.35.35 0 0 1 .2-.46c.18-.07.39.02.46.2l2.8 7.08c.07.19-.01.4-.2.46a.36.36 0 0 1-.14.03h.01Z"/><path fill="#1E272D" d="M20.8 23.2H2.2A2.2 2.2 0 0 1 0 21v-6.66c0-.2.16-.35.36-.35h3.51c1 0 1.88.67 2.16 1.62l.44 1.55a1.7 1.7 0 0 0 1.64 1.23h6.74c.76 0 1.44-.51 1.64-1.23l.45-1.55a2.26 2.26 0 0 1 2.15-1.62h3.52c.2 0 .35.16.35.35v6.67a2.2 2.2 0 0 1-2.2 2.2h.04ZM.72 14.7V21c0 .82.67 1.48 1.49 1.48h18.6c.81 0 1.48-.66 1.48-1.48v-6.3h-3.16c-.68 0-1.29.46-1.47 1.1l-.45 1.55a2.44 2.44 0 0 1-2.33 1.76H8.14a2.44 2.44 0 0 1-2.33-1.76l-.45-1.54c-.19-.65-.8-1.1-1.47-1.1H.72Z"/><path fill="#1AC8C6" d="M.72 14.7V21c0 .82.67 1.48 1.49 1.48h18.6c.81 0 1.48-.66 1.48-1.48v-6.3h-3.16c-.68 0-1.29.46-1.47 1.1l-.45 1.55a2.44 2.44 0 0 1-2.33 1.76H8.14a2.44 2.44 0 0 1-2.33-1.76l-.45-1.54c-.19-.65-.8-1.1-1.47-1.1H.72Z"/></svg>