<svg xmlns="http://www.w3.org/2000/svg" viewBox="0 0 30 26">
	<path fill="#006170" d="M24.4.5H2.28C1.27.5.45 1.32.45 2.33v1.89c0 1.01.82 1.83 1.83 1.83H24.4c1.01 0 1.83-.82 1.83-1.83V2.33c0-1.01-.82-1.83-1.83-1.83Z"/>
	<path fill="#1E272D" d="M2.24 22.26c-1.23 0-2.24-1-2.24-2.24V1.86C0 .84.84 0 1.86 0h23.31c1.02 0 1.85.84 1.85 1.86v13.77c0 .25-.2.45-.44.45s-.45-.2-.45-.45V1.86a.96.96 0 0 0-.96-.96H1.86a.96.96 0 0 0-.96.96v18.16c0 .74.6 1.34 1.34 1.34h16.77c.25 0 .45.2.45.45s-.2.45-.45.45H2.24Z"/>
	<path fill="#1E272D" d="M26.92 1.86v13.77c0 .2-.15.35-.34.35-.2 0-.35-.15-.35-.35V1.86c0-.58-.48-1.06-1.06-1.06H1.86C1.28.8.8 1.28.8 1.86v18.16c0 .8.65 1.45 1.45 1.45h16.77c.19 0 .35.15.35.34 0 .2-.16.35-.35.35H2.24c-1.17 0-2.13-.96-2.13-2.13V1.86C.11.9.89.11 1.86.11h23.31c.97 0 1.75.79 1.75 1.76v-.01Z"/>
	<path fill="#1AC8C6" d="M3.72 3.87c-.33 0-.59-.27-.59-.59 0-.32.27-.59.59-.59.32 0 .59.27.59.59 0 .32-.27.59-.59.59ZM6.52 3.87c-.33 0-.59-.27-.59-.59 0-.32.27-.59.59-.59.32 0 .59.27.59.59 0 .32-.27.59-.59.59ZM9.32 3.87c-.33 0-.59-.27-.59-.59 0-.32.27-.59.59-.59.32 0 .59.27.59.59 0 .32-.27.59-.59.59Z"/>
	<path fill="#1E272D" d="M23.28 25.51s-.08 0-.12-.02a.434.434 0 0 1-.32-.32l-1.99-7.42c-.04-.15 0-.32.12-.44.08-.08.2-.13.32-.13.04 0 .08 0 .12.02l7.42 1.99c.16.04.28.17.32.32.04.15 0 .32-.12.44l-1.74 1.74c-.09.09-.2.13-.32.13s-.23-.05-.32-.13a.438.438 0 0 1-.13-.32c0-.12.05-.23.13-.32l1.18-1.18-5.9-1.58 1.58 5.9 1.18-1.18c.09-.09.2-.13.32-.13s.23.05.32.13c.18.18.18.46 0 .64l-1.74 1.74c-.08.08-.2.13-.32.13l.01-.01Z"/>
	<path fill="#1E272D" d="M23.28 25.41s-.06 0-.09-.01a.338.338 0 0 1-.24-.25l-1.99-7.42c-.03-.12 0-.25.09-.33.09-.09.22-.12.33-.09l7.42 1.99c.12.03.21.13.24.25s0 .25-.09.33l-1.74 1.74c-.14.14-.35.14-.49 0a.338.338 0 0 1 0-.49l1.31-1.31-6.26-1.68 1.68 6.26 1.31-1.31c.14-.14.35-.14.49 0s.14.35 0 .49l-1.74 1.74c-.07.07-.15.1-.24.1l.01-.01Z"/>
	<path fill="#1E272D" d="M28.62 25.43c-.12 0-.23-.05-.32-.13l-2.17-2.17a.438.438 0 0 1-.13-.32c0-.12.05-.23.13-.32s.2-.13.32-.13.23.05.32.13l2.17 2.17c.18.18.18.46 0 .64-.09.09-.2.13-.32.13Z"/>
	<path fill="#1E272D" d="M28.62 25.32a.31.31 0 0 1-.24-.1l-2.17-2.17a.338.338 0 0 1 0-.49c.14-.14.35-.14.49 0l2.17 2.17c.14.14.14.36 0 .49-.07.07-.16.1-.24.1h-.01ZM.45 6.5C.2 6.5 0 6.3 0 6.05s.2-.45.45-.45h26.12c.25 0 .45.2.45.45s-.2.45-.45.45H.45Z"/>
	<path fill="#1E272D" d="M26.57 6.39H.45c-.19 0-.35-.16-.35-.35 0-.19.16-.35.35-.35h26.12c.19 0 .35.16.35.35 0 .19-.15.35-.35.35Z"/>
</svg>