<svg xmlns="http://www.w3.org/2000/svg" viewBox="0 0 33 37">
	<path fill="#082029" d="m19.19 16.4-.08.05.08-.05ZM16.34 18.05l-4.09-2.36 4.08 2.37 1.39-.81-1.39.8h.01Zm0-6.85-4.08 2.37 4.09-2.36 1.39.8-1.39-.81h-.01Zm2.86 5.2 1.34-.77 1.73-1-3.08 1.77h.01Zm1.34-2.77-1.43-.82.08.05 3.08 1.77-1.73-1Z"/>
	<path fill="#082029" d="M23.69 14.46s0-.02-.01-.04a.332.332 0 0 0-.1-.14c-.02-.02-.04-.05-.07-.06a.218.218 0 0 0-.08-.05l-4.24-2.45-.97-.56-1.64-.95a.53.53 0 0 0-.49 0l-6.85 3.95s-.02.01-.03.02c-.01 0-.02 0-.03.02-.04.02-.07.04-.09.07-.1.08-.14.21-.14.34 0 .17.1.34.25.43l.73.42 5.93 3.41.23.15a.5.5 0 0 0 .25.07c.08 0 .17-.02.24-.07l.25-.15 2.22-1.27.97-.56 2.74-1.58.73-.42c.16-.09.25-.26.25-.43 0-.06-.01-.11-.04-.17l-.01.02Zm-3.16 1.17-1.34.77-.08.05-.89.52-.49.28-1.39.81-4.08-2.37-.17-.1-1.67-.97 1.67-.97.17-.1 4.08-2.37 1.39.81 1.38.8 1.43.82 1.73 1-1.73 1-.01.02Z"/>
	<path fill="#006170" d="m22.27 14.63-3.08 1.77-.08.05-.89.52-.49.28-1.39.8-4.08-2.36-.17-.1-1.66-.96 1.66-.97.17-.09 4.08-2.36 1.39.8 1.38.79.08.06 3.08 1.77Z"/>
	<path fill="#082029" d="M23.73 14.63v8.24l-7.39 4.27-7.39-4.27v-8.24c0 .17.1.34.25.43l.73.42v6.84l6.41 3.7 6.41-3.7v-6.84l.73-.42c.16-.09.25-.26.25-.43Z"/>
	<path fill="#082029" d="M16.83 18.88v5.02c0 .26-.22.49-.48.49s-.49-.22-.49-.49v-5.02l.23.14a.5.5 0 0 0 .25.07c.08 0 .17-.02.24-.07l.25-.15v.01ZM16.25 4.74c.21 0 .41-.02.61-.07v5.02l-.51-.29-.71.4V4.68c.19.05.4.07.61.07v-.01ZM16.86 28.06v4.16c-.2-.05-.4-.07-.61-.07-.21 0-.41.02-.61.07v-4.27l.71.4.51-.29ZM8.21 23.64l-3.35 1.93-.22.13a2.11 2.11 0 0 0-.21-.46c-.12-.21-.26-.4-.43-.56l.13-.07 4.01-2.33v1.33l.07.04v-.01ZM28.07 11.62c.08.14.17.27.28.39l-.3.17-3.5 2.03v-.08l-1.14-.67 4.13-2.39.25-.14c.06.23.16.46.28.68v.01ZM9.21 13.51l-1.07.62v.17l-3.67-2.14-.35-.2c.1-.11.19-.24.26-.37.13-.22.23-.46.28-.7l.29.17 4.25 2.45h.01ZM28.57 24.7c-.17.17-.32.36-.44.58-.08.14-.15.29-.2.44l-.28-.16-3.23-1.87.13-.08v-1.22l3.83 2.21.19.11v-.01Z"/>
	<path fill="#1AC8C6" d="M18.32 2.07c0 .92-.61 1.72-1.46 1.97-.19.07-.4.1-.61.1-.21 0-.41-.03-.61-.1a2.055 2.055 0 0 1-1.46-1.97c0-1.14.93-2.07 2.07-2.07 1.14 0 2.07.93 2.07 2.07ZM18.32 34.81c0 1.14-.93 2.06-2.07 2.06a2.058 2.058 0 0 1-.61-4.03c.19-.07.4-.1.61-.1.21 0 .42.03.61.1.85.26 1.46 1.05 1.46 1.97ZM32.44 10.27c0 .71-.37 1.4-1.02 1.79a2.085 2.085 0 0 1-2.83-.73c-.13-.22-.21-.46-.25-.69a2.065 2.065 0 0 1 2.02-2.43c.17 0 .35.02.53.07a2.046 2.046 0 0 1 1.54 1.99h.01ZM4.13 27.1c-.14.53-.48.98-.95 1.26a2.1 2.1 0 0 1-1.57.22c-.54-.14-.98-.48-1.27-.95-.28-.47-.35-1.03-.22-1.57.14-.53.48-.98.95-1.27.32-.19.68-.28 1.04-.28.17 0 .35.02.53.07.29.08.56.22.79.41A2.078 2.078 0 0 1 4.1 26c.1.36.11.74.01 1.11l.02-.01ZM32.23 27.64c-.57.99-1.84 1.33-2.83.76a2.054 2.054 0 0 1-.94-2.38c.04-.15.1-.3.19-.44a2.057 2.057 0 0 1 2.83-.76 2.065 2.065 0 0 1 .77 2.82h-.02ZM4.11 10.58a2.009 2.009 0 0 1-.53 1.08c-.63.7-1.69.89-2.55.4a2.075 2.075 0 0 1-.76-2.83c.57-.98 1.84-1.33 2.83-.76.48.28.82.72.97 1.25.08.28.09.57.05.85l-.01.01Z"/>
</svg>