<svg xmlns="http://www.w3.org/2000/svg" viewBox="0 0 33 22">
<path fill="#04B392" d="M16.16 1.25v19.78H6.08a5.23 5.23 0 0 1-5.24-5.21 5.23 5.23 0 0 1 5.24-5.22l.2.02c.2 0 .3-.06.4-.18.09-.1.13-.26.1-.41a7.5 7.5 0 0 1 9.39-8.77Z"/>
<path fill="#082029" d="M24.53 5.14c-.8 0-1.6.11-2.37.34A8.42 8.42 0 0 0 14.23 0a8.46 8.46 0 0 0-8.38 9.65A6.2 6.2 0 0 0 0 15.82 6.29 6.29 0 0 0 6.2 22h18.88A8.46 8.46 0 0 0 33 13.58a8.6 8.6 0 0 0-8.47-8.43v-.01Zm.5 15.89H6.21a5.23 5.23 0 0 1-5.24-5.21A5.23 5.23 0 0 1 6.2 10.6l.2.02c.19 0 .3-.06.4-.18.09-.1.13-.26.1-.41a7.5 7.5 0 0 1 9.39-8.77 7.42 7.42 0 0 1 5.1 4.96c.03.13.12.23.24.3a.5.5 0 0 0 .38.02 7.49 7.49 0 0 1 10 7.04 7.35 7.35 0 0 1-6.99 7.45ZM21.05 11.6v1.2h-.86l-3.7-.01.01-1.2h4.55Z"/>
<path fill="#082029" d="m19.56 9.45 2.85 2.85-2.91 2.87-.85-.84 2.05-2.03-2-2 .86-.85ZM16.72.97h-1.1v20.66h1.1V.97Z"/>
</svg>