<svg xmlns="http://www.w3.org/2000/svg" viewBox="0 0 37 30">
	<path fill="#006170" d="m34.69 4.47-1.73 1-1.43.82-2.77 1.61-5.92-3.43 5.92-3.43 2.77 1.61 1.43.82 1.73 1Z"/>
	<path fill="#082029" d="m33.22 5.7.64.37-.97.56-.64-.37v-.39l.97-.56v.39Z"/>
	<path fill="#082029" d="M36.11 4.3s0-.02-.01-.04c-.03-.05-.05-.1-.1-.14l-.06-.06c-.03-.02-.06-.04-.08-.05l-2.63-1.52-.97-.56-.64-.37-.97-.56-1.64-.95a.53.53 0 0 0-.49 0L21.67 4s-.06.03-.09.05l-.06.06c-.1.09-.14.21-.14.34 0 .17.1.34.24.43l.73.42 5.93 3.41.23.15a.5.5 0 0 0 .25.07c.08 0 .17-.02.24-.07l.25-.15 2.21-1.27.97-.56.46-.26.97-.56 1.31-.76.73-.42c.16-.08.25-.26.25-.43 0-.06-.01-.11-.04-.17v.02Zm-2.89 1.01-.26.16-.71.4-.64.37-.08.05-.89.52-.17.1-.32.18-1.39.8-4.09-2.36-.17-.1-1.67-.97 1.67-.97.17-.1 4.09-2.36 1.39.8.32.18.17.1.89.52.08.05.64.37.71.4.26.16 1.47.85-1.47.85Z"/>
	<path fill="#082029" d="M21.52 9.54s-.1 0-.14.02V4.47c0-.13.05-.25.14-.34l.06-.06c.03-.02.06-.04.09-.05.06-.02.12-.04.19-.04.28 0 .49.22.49.49v5.05l-.83.03v-.01ZM22.35 12.15l-.83-1.31s0-.1.05-.1l.78-.03v1.44Z"/>
	<path fill="#082029" d="m22.62 12.31 1.47.85-.45.86-.17-.1-.97-1.54-.15-.23.27.16ZM36.15 4.47v8.24l-7.39 4.27-4.09-2.36s.02-.03.02-.04l.43-.82 3.63 2.09 6.41-3.7V4.46c0-.26.22-.49.49-.49.07 0 .13.01.19.04.02.01.05.03.08.05l.06.06c.05.04.07.09.1.14.01.01.01.02.01.04.02.06.04.11.04.17h.02Z"/>
	<path fill="#082029" d="M28.76 14.23c-.27 0-.48-.22-.48-.49V8.45c0-.27.22-.49.48-.49s.48.22.48.49v5.29c0 .27-.22.49-.48.49Z"/>
	<path fill="#1AC8C6" d="m13.31 17.13-1.73 1-1.43.82-2.77 1.61-5.91-3.43 5.91-3.43 2.77 1.61 1.43.82 1.73 1Z"/>
	<path fill="#082029" d="m11.84 18.36.65.37-.98.56-.64-.37v-.39l.97-.55v.38Z"/>
	<path fill="#082029" d="M14.74 16.96s0-.02-.01-.04c-.03-.05-.05-.1-.1-.14l-.06-.06c-.03-.02-.06-.04-.08-.05l-2.63-1.52-.97-.56-.64-.37-.97-.56-1.64-.95a.53.53 0 0 0-.49 0L.29 16.68s-.06.03-.09.05l-.06.06c-.1.09-.14.21-.14.34 0 .17.1.34.24.43l.73.42 5.93 3.41.24.15a.5.5 0 0 0 .25.07c.08 0 .17-.02.24-.07l.25-.15 2.21-1.27.97-.56.46-.26.97-.56 1.31-.76.73-.42c.16-.08.25-.26.25-.43 0-.06-.01-.11-.04-.17Zm-2.89 1.01-.97.56-.64.37-.97.57-1.88 1.08-5.93-3.42 5.93-3.42 1.88 1.08.97.57.64.37.97.56 1.47.85-1.47.85v-.02Z"/>
	<path fill="#082029" d="M14.77 17.13v8.24l-7.39 4.27L0 25.37v-8.24c0-.13.05-.25.14-.34l.06-.06c.03-.02.06-.04.09-.05.06-.02.12-.04.19-.04.28 0 .49.22.49.49v7.69l6.41 3.7 6.41-3.7v-7.69c0-.26.22-.49.49-.49.07 0 .13.01.19.04.02.01.05.03.08.05l.06.06c.05.04.07.09.1.14.01.01.01.02.01.04.02.06.04.11.04.17l.01-.01Z"/>
	<path fill="#082029" d="M7.39 26.89c-.27 0-.48-.22-.48-.49v-5.29c0-.27.22-.49.48-.49s.48.22.48.49v5.29c0 .27-.22.49-.48.49Z"/>
	<path stroke="#082029" stroke-miterlimit="10" stroke-width="2" d="m15.88 16.21 5.57-3.22.2-.12.85-.49.12-.07 1.18-.68"/>
	<path fill="#082029" d="m25.39 10.69-1.3 2.47-.45.86s-.08.04-.11 0l-.06-.1-.97-1.54-.14-.23-.83-1.31c-.02-.04 0-.1.05-.1l.78-.03 2.98-.11s.08.05.06.09h-.01Z"/>
</svg>