<svg xmlns="http://www.w3.org/2000/svg" fill="none" viewBox="0 0 25 24">
	<path fill="#006170" d="m21.1 15.5 3.51 1.82-11.83 6.12L.74 17.06l3.3-1.56 1.29-.74.35-.2.34-.2 6.44 3.46a.29.29 0 0 1 .11-.02c.05 0 .08 0 .12.02l6.44-3.45.34.2.35.2 1.28.73Z"/>
	<path fill="#082029" d="M.56 17.46a.45.45 0 0 1-.45-.45v-.11a.45.45 0 1 1 .9 0V17c0 .25-.2.45-.45.45ZM.56 8.98a.34.34 0 0 0-.34.34v.76c0 .19.15.34.34.34.19 0 .34-.15.34-.34v-.76a.34.34 0 0 0-.34-.34Zm.33 2.8a.33.33 0 0 0-.22-.25.26.26 0 0 0-.11-.02.34.34 0 0 0-.34.34v.76c0 .18.15.34.34.34.19 0 .34-.15.34-.34V11.78Zm-.33 2.25a.34.34 0 0 0-.34.34v.76c0 .19.15.35.34.35.19 0 .34-.15.34-.35v-.76a.34.34 0 0 0-.34-.34ZM.56 8a.45.45 0 0 1-.45-.44v-.12a.45.45 0 1 1 .9 0v.12C1 7.8.8 8 .55 8Z"/>
	<path fill="#082029" d="m24.72 16.94-.53-.3-3.68-2.12-.35-.2-.35-.2-.34.19-.35.18.35.2.34.2 1.28.74 2.78 1.59-10.92 5.85-.38.2-.37-.2-10.95-5.84 2.78-1.6 1.28-.73.35-.2.35-.2-.34-.2-.36-.18-.34.2-.35.2-3.69 2.12-.53.3a.35.35 0 0 0-.17.3c0 .03 0 .06.02.09.02.09.08.16.16.2l12 6.43c.05.03.1.04.16.04a.3.3 0 0 0 .16-.04l12-6.42a.34.34 0 0 0 .17-.21l.02-.08a.35.35 0 0 0-.17-.3h-.03Z"/>
	<path fill="#1AC8C6" d="M12.9 15.74v.76c0 .19-.16.34-.35.34a.34.34 0 0 1-.34-.34v-.76c0-.19.15-.34.34-.34.2 0 .34.15.34.34Z"/>
	<path fill="#1AC8C6" d="m24.76 11.53-2.92 1.99-9.17 5.14L4.03 14 .35 11.76l3.69-2.69 1.84 1.07.28.24.34.06 5.44 2.82c.04-.02.3.22.34.22.05 0 .24.32.28.33l5.93-3.3.6-.32.57-.32 1.3-.51 3.8 2.17Z"/>
	<path fill="#082029" d="M24.88 7.13a.32.32 0 0 0-.16-.2l-12-6.89a.35.35 0 0 0-.33 0l-12 6.88a.35.35 0 0 0-.16.2l-.01.1c0 .12.07.23.18.29l.53.28 3.22 1.72.36.2.27.14.07.05 4.05 2.16.36.2.34.18 2.5 1.34.28.16c.05.03.1.04.17.04a.3.3 0 0 0 .15-.04l.3-.16 2.49-1.34.35-.18.34-.2 4.05-2.16.07-.04.28-.15.34-.19 3.23-1.72.53-.29c.1-.05.18-.17.18-.29 0-.03 0-.06-.02-.09h.04Zm-5.24 2.33-.07.05-4.05 2.16-.36.18-.34.19-2.15 1.16-.1.06-.1-.06-2.16-1.15-.35-.19-.35-.2-4.05-2.15-.08-.05-.27-.15-.36-.18L1.26 7.2 12.56.73l11.3 6.47-3.6 1.92-.35.19-.27.15ZM24.55 17.46a.45.45 0 0 1-.44-.45v-.11a.45.45 0 1 1 .89 0V17c0 .25-.2.45-.45.45ZM24.55 8.98a.34.34 0 0 0-.34.34v.76c0 .19.15.34.34.34.2 0 .34-.15.34-.34v-.76a.35.35 0 0 0-.34-.34Zm0 2.53c-.03 0-.07 0-.1.02a.33.33 0 0 0-.23.25V12.61c0 .18.15.34.34.34.2 0 .34-.15.34-.34v-.76a.35.35 0 0 0-.34-.34Zm0 2.52a.34.34 0 0 0-.34.34v.76c0 .19.15.35.34.35.2 0 .34-.15.34-.35v-.76a.35.35 0 0 0-.34-.34Z"/>
	<path fill="#082029" d="M24.55 8a.45.45 0 0 1-.44-.44v-.12a.45.45 0 1 1 .89 0v.12c0 .25-.2.44-.45.44ZM13 23.32v.12c0 .25-.2.45-.44.45a.45.45 0 0 1-.45-.45v-.12c0-.09.03-.17.08-.25.07-.12.21-.2.37-.2s.3.08.38.2c.04.08.07.16.07.25ZM12.55 15.4a.34.34 0 0 0-.34.35v.76c0 .18.15.34.34.34.2 0 .34-.15.34-.34v-.76a.35.35 0 0 0-.34-.35Zm.34 2.82a.34.34 0 0 0-.22-.27.3.3 0 0 0-.12-.02c-.04 0-.07 0-.11.02a.33.33 0 0 0-.22.27v.81c0 .18.15.34.34.34.2 0 .34-.15.34-.34v-.81h-.01Zm-.34 2.24a.34.34 0 0 0-.34.34v.76c0 .18.15.34.34.34.2 0 .34-.15.34-.34v-.76a.35.35 0 0 0-.34-.34ZM13 13.63v.34c0 .25-.2.45-.44.45a.45.45 0 0 1-.45-.45v-.34c0-.08.03-.15.05-.21.07-.11.17-.2.3-.23l.1-.01.11.01c.13.03.24.12.3.23.03.06.04.13.04.21ZM2.85 10.44a.46.46 0 0 1-.4-.24.46.46 0 0 1 .18-.62l.4-.23c.21-.13.49-.05.61.17.13.22.05.5-.17.63l-.4.22a.43.43 0 0 1-.22.06Z"/>
	<path fill="#082029" d="M11.67 18.6a.38.38 0 0 1-.21-.06l-.82-.44a.47.47 0 0 1-.19-.62c.12-.23.4-.3.62-.19l.81.43c.22.13.3.4.2.62a.46.46 0 0 1-.41.25Zm1.65-.06a.46.46 0 0 1-.21-.86l.8-.43c.23-.12.5-.04.62.19.12.22.04.5-.19.62l-.81.43a.47.47 0 0 1-.21.06ZM9.23 17.3a.38.38 0 0 1-.2-.06l-.82-.43a.47.47 0 0 1-.2-.62c.13-.23.4-.3.62-.2l.82.44c.22.12.3.4.19.62a.46.46 0 0 1-.4.24v.01Zm6.53-.05a.46.46 0 0 1-.22-.86l.81-.44c.22-.12.5-.04.62.2.12.22.03.5-.2.61l-.8.43a.48.48 0 0 1-.22.06ZM6.8 15.98a.38.38 0 0 1-.21-.06l-.82-.43a.47.47 0 0 1-.19-.62c.12-.23.4-.3.62-.2l.81.44c.22.12.3.4.2.62a.46.46 0 0 1-.41.24v.01Zm11.4-.05a.46.46 0 0 1-.41-.24.45.45 0 0 1 .2-.62l.8-.43c.22-.12.5-.04.62.19s.04.5-.2.62l-.8.43a.47.47 0 0 1-.22.06ZM4.36 14.67a.38.38 0 0 1-.22-.06l-.81-.43a.47.47 0 0 1-.2-.62c.13-.23.4-.3.62-.19l.82.43c.22.12.3.4.19.62a.46.46 0 0 1-.4.24v.01Zm16.26-.05a.46.46 0 0 1-.22-.86l.82-.43c.22-.12.5-.04.61.19.12.23.04.5-.19.62l-.81.43a.48.48 0 0 1-.22.06h.01Zm-18.7-1.26a.38.38 0 0 1-.21-.05l-.81-.44a.47.47 0 0 1-.2-.62c.12-.23.4-.3.62-.19l.81.43c.22.13.3.4.2.62a.46.46 0 0 1-.4.25Zm21.14-.05a.46.46 0 0 1-.4-.24.45.45 0 0 1 .19-.62l.81-.43c.22-.12.5-.04.62.19s.03.5-.2.62l-.8.43a.48.48 0 0 1-.22.06ZM.46 11.81a.46.46 0 0 1-.4-.23.46.46 0 0 1 .17-.63l.8-.45a.46.46 0 0 1 .46.8l-.8.45a.43.43 0 0 1-.23.05v.01Zm23.9-.05a.5.5 0 0 1-.22-.06l-.8-.45a.46.46 0 0 1 .45-.8l.8.46c.22.13.3.4.17.62a.46.46 0 0 1-.4.24ZM21.95 10.38a.5.5 0 0 1-.23-.06l-.4-.22a.46.46 0 0 1-.16-.63c.13-.22.4-.3.62-.17l.4.23c.22.13.3.4.17.62a.46.46 0 0 1-.4.24Z"/>
</svg>