<svg xmlns="http://www.w3.org/2000/svg" viewBox="0 0 26 25">
	<path fill="#04B392" d="M13.33.29 1.68 6.89l12.52 6.68 10.78-6.05v-.6L13.33.3Z"/>
	<path fill="#006170" d="m17.9 19.56-2.3 1.43 1.15 1.59.27 2.06s2-1.1 2-1.25v-2.81l-.56-1.18-.56.15Z"/>
	<path fill="#1E272D" d="M13.83 17.63c-.25 0-.5-.06-.7-.2l-.14-.07-12.01-6.8a1.85 1.85 0 0 1-.9-1.11c-.08-.25-.1-.4-.08-.5C0 7.9.5 7.17 1.63 6.54L13.1.04a.42.42 0 0 1 .4 0l11.36 6.42a1 1 0 0 1 .52.88 1 1 0 0 1-.52.87l-10.54 5.96c-.89.5-1.21.97-1.21 1.72a1 1 0 0 0 .37.8l.06.04c.2.11.46.1.74-.06l10.51-5.94-.72-.47a.4.4 0 0 1-.13-.56.42.42 0 0 1 .57-.12l1.3.83c.12.08.18.21.18.35a.4.4 0 0 1-.2.34l-11.1 6.28c-.28.16-.57.24-.86.24Zm-13-8.64s0 .12.04.24c.07.25.26.48.52.63l10.9 6.16v-.13c0-1.05.49-1.77 1.62-2.41l10.54-5.96a.2.2 0 0 0 .1-.17.2.2 0 0 0-.1-.17L13.31.87 2.04 7.24c-.88.5-1.2.96-1.2 1.72V9l-.01-.01Zm18.19 12.46a.41.41 0 0 1-.35-.2.4.4 0 0 1 .14-.55l5.98-3.38-.72-.46a.4.4 0 0 1-.13-.56.42.42 0 0 1 .57-.12l1.3.82c.12.08.18.21.18.35a.4.4 0 0 1-.2.34l-6.56 3.7a.39.39 0 0 1-.2.06Zm-5.8 2.56a.44.44 0 0 1-.2-.05L.98 17.15a1.85 1.85 0 0 1-.9-1.12c-.07-.23-.09-.4-.07-.5 0-1.04.49-1.76 1.61-2.4l.52-.33a.42.42 0 0 1 .57.12.4.4 0 0 1-.12.55l-.53.34-.02.02c-.88.5-1.2.96-1.2 1.71v.04c0 .03 0 .12.04.24.07.25.26.48.52.63l12.04 6.8c.2.12.27.36.15.55a.41.41 0 0 1-.36.21ZM16.9 25a.44.44 0 0 1-.2-.05.4.4 0 0 1-.2-.36v-1.63l-1.81 1c-.52.3-1.1.32-1.57.06-.51-.3-.84-.89-.84-1.54 0-1.05.49-1.78 1.62-2.42l10.55-5.96a.2.2 0 0 0 .1-.17.2.2 0 0 0-.1-.17.4.4 0 0 1-.15-.55.4.4 0 0 1 .56-.15 1 1 0 0 1 .52.88 1 1 0 0 1-.52.88l-10.54 5.95c-.89.5-1.21.97-1.21 1.72 0 .36.17.69.43.84.2.12.46.1.74-.06l2.42-1.35a.42.42 0 0 1 .41 0c.13.07.2.2.2.35v1.61l1.3-.75v-2.08c0-.38-.22-.74-.56-.93a.4.4 0 0 1-.16-.55c.12-.2.37-.26.57-.16.6.34.97.97.97 1.64v2.3a.4.4 0 0 1-.2.35l-2.13 1.25a.4.4 0 0 1-.2.06V25Zm-2.7-10.94A.39.39 0 0 1 14 14L1.64 7.25a.4.4 0 0 1-.17-.55c.11-.2.36-.27.57-.16L14.4 13.3c.2.1.28.35.17.55a.41.41 0 0 1-.36.2Zm10.07-3.68a.44.44 0 0 1-.2-.05l-.43-.24a.4.4 0 0 1-.21-.35.4.4 0 0 1 .2-.35l.95-.53c.16-.1.38-.07.51.07a.4.4 0 0 1 .05.5l-.52.77a.42.42 0 0 1-.34.18h-.01Z"/>
</svg>