<svg xmlns="http://www.w3.org/2000/svg" fill="none" viewBox="0 0 20 25">
	<path fill="#006170" d="M17.78 2.18v17l-.68.72h-1.84v1.76l-.14.97-1.03.44-12.22-.5v2.15h13.88l1.55-1 1.33-.65.45-1.65.73-1.52-.25-17.72h-1.78Z"/>
	<path fill="#04B392" d="M9.09 2.1c.7 0 1.34.44 1.6 1.13.08.2.25.32.44.32.26 0 .46-.21.46-.48L11.58.8H6.6l-.02 2.28c0 .27.2.48.46.48.2 0 .36-.12.44-.33.28-.68.9-1.13 1.6-1.13Z"/>
	<path fill="#1E272D" d="M13.22 10.93H4.96a.39.39 0 0 1-.37-.4c0-.22.16-.4.37-.4h8.26c.2 0 .37.18.37.4 0 .22-.16.4-.37.4Zm0-2.45H4.96a.39.39 0 0 1-.37-.4c0-.22.16-.4.37-.4h8.26c.2 0 .37.18.37.4 0 .22-.16.4-.37.4Zm-2.08-4.13c-.5 0-.93-.32-1.13-.8a1 1 0 0 0-.92-.66 1 1 0 0 0-.93.65c-.2.5-.63.81-1.11.81-.68 0-1.22-.57-1.22-1.27V.8a.8.8 0 0 1 .77-.81h4.98c.42 0 .76.36.76.81v2.27c0 .7-.54 1.28-1.2 1.28v-.01ZM9.1 2.1c.7 0 1.34.44 1.6 1.13.08.2.25.32.44.32.26 0 .46-.21.46-.48L11.58.8H6.6l-.02 2.28c0 .27.2.48.46.48.2 0 .36-.12.44-.33.28-.68.9-1.13 1.6-1.13ZM15.5 25H1.88a.39.39 0 0 1-.38-.4v-1.93c0-.21.17-.4.38-.4.2 0 .37.18.37.4v1.54h13.27c2.07 0 3.75-1.78 3.75-3.98V2.64H17.8a.39.39 0 0 1-.38-.4c0-.22.17-.4.38-.4h1.82c.2 0 .38.18.38.4v18c0 2.62-2.02 4.76-4.5 4.76ZM14.09 23.07H.38a.39.39 0 0 1-.38-.4V.4C0 .18.17 0 .38 0h4.5c.2 0 .38.18.38.4a.4.4 0 0 1-.38.4H.75v21.48h13.33a.8.8 0 0 0 .77-.82v-1.51c0-.22.16-.4.37-.4h1.44a.8.8 0 0 0 .76-.82V.8H13.3a.39.39 0 0 1-.38-.4c0-.22.17-.4.38-.4h4.5c.2 0 .38.18.38.4v18.34c0 .88-.68 1.6-1.51 1.6H15.6v1.13c0 .88-.68 1.6-1.51 1.6v.01ZM13.22 15.06H4.96a.39.39 0 0 1-.37-.4v-1.64c0-.22.16-.4.37-.4s.38.17.38.4v1.25h7.5v-1.25c0-.22.17-.4.38-.4s.38.17.38.4v1.64a.4.4 0 0 1-.38.4Z"/>
</svg>