<svg xmlns="http://www.w3.org/2000/svg" viewBox="0 0 30 26">
<path fill="#036270" d="M15.16 13.3c0 .14-.05.27-.16.37l-4.3 3.66a.44.44 0 0 1-.5.08.49.49 0 0 1-.28-.44V15.2H3.55v-.94h6.84c.26 0 .47.21.47.47v1.24l3.11-2.66-3.1-2.65v1.23c0 .26-.22.48-.48.48H3.55v-.95h6.37V9.65c0-.19.12-.36.28-.42a.46.46 0 0 1 .5.06l4.3 3.68c.1.07.16.2.16.35v-.02Zm3.98-5.39V6.68l-3.12 2.65 3.02 2.58.09.08v-1.24c0-.27.21-.47.47-.47h6.84v.95h-6.37v1.76a.5.5 0 0 1-.28.43.47.47 0 0 1-.5-.05l-4.31-3.7a.46.46 0 0 1-.16-.35.5.5 0 0 1 .16-.37l4.32-3.67c.07-.07.18-.1.29-.1.06 0 .14.01.2.05.17.06.28.24.28.41v1.78h6.37v.95H19.6a.48.48 0 0 1-.47-.48v.02Z"/>
<path fill="#04B392" d="M26.46 3.57v3.75H20.2V5.66a.59.59 0 0 0-.36-.52.6.6 0 0 0-.6.06L14.9 8.88a.56.56 0 0 0-.2.45c0 .19.07.35.2.44l4.32 3.68c.1.09.23.14.37.14.07 0 .17-.02.24-.05.22-.09.36-.3.36-.53v-1.67h6.26v7.72H3.55V15.3h6.26v1.67c0 .22.14.44.35.55a.6.6 0 0 0 .23.04.6.6 0 0 0 .4-.14l4.3-3.67a.6.6 0 0 0 .2-.45.54.54 0 0 0-.2-.44l-4.3-3.67c-.2-.16-.43-.19-.63-.08-.2.07-.35.3-.35.51v1.67H3.55V3.57h22.91Z"/>
<path fill="#082029" d="M27.42 0H4.16v.87H27.4c.96 0 1.73.79 1.73 1.74V.68a2.59 2.59 0 0 0-1.7-.68h-.02ZM29.13.68V20c0 .97-.78 1.74-1.73 1.74H2.6c-.96 0-1.73-.78-1.73-1.74V2.61c0-.96.78-1.74 1.73-1.74h1.55V0H2.6A2.62 2.62 0 0 0 0 2.61v17.4a2.62 2.62 0 0 0 2.6 2.61h4.34l-.09.22-1.01 2.56c-.06.15-.05.29.04.4.09.12.22.2.35.2h17.53c.14 0 .26-.06.36-.2.07-.12.1-.26.04-.4l-1.1-2.78h4.34a2.61 2.61 0 0 0 2.6-2.59V2.61a2.6 2.6 0 0 0-.87-1.93ZM22.21 22.8l.9 2.33H6.87l.03-.08.88-2.25.06-.18h14.3l.04.18h.03Z"/>
</svg>