<svg xmlns="http://www.w3.org/2000/svg" fill="none" viewBox="0 0 28 24">
<path fill="#04B392" d="M21.5 6.96v9.17H6.6V6.96h5.03l-.23 1.9.68.97 2.9.2 1.5-.66.3-.5-.48-.43s-.21-.4-.14-.38c.06 0 .25-.17.25-.17l.47-.29.62.03.39-.36.17-.3h3.45Z"/>
<path fill="#006170" d="m1.1 22.11 2.08-2.76h21.64l2.08 2.76H1.1Z"/>
<path fill="#1E272D" d="M11.64 10.13a.36.36 0 0 1-.33-.22c-.05-.12-1.3-2.96 1-5.95.08-.1.2-.15.33-.13.13.01.23.1.29.21l.27.64c.1-.21.16-.5.07-.84a.38.38 0 0 1 .1-.35c.08-.1.9-.97 1.6-1.08.18-.03.34.08.4.25l.15.48c.03.1.11.11.16.11.03 0 .12-.01.15-.12.08-.3.08-.64.01-.97a.37.37 0 0 1 .18-.4c.09-.06 2.3-1.35 3.7-.47.17.1.23.34.13.51a.35.35 0 0 1-.5.13c-.76-.48-2.08.01-2.75.35.05.36.02.7-.06 1.04-.1.4-.44.66-.83.67a.87.87 0 0 1-.86-.62l-.04-.12c-.26.14-.57.4-.78.6.16 1.11-.63 1.81-.66 1.84-.09.08-.2.1-.32.08a.37.37 0 0 1-.24-.21l-.28-.63a5.18 5.18 0 0 0-.55 4.66c.08.18 0 .4-.18.49a.38.38 0 0 1-.15.03l-.01.02ZM13.49 10.48a4.93 4.93 0 0 1-2-.39.38.38 0 0 1-.18-.5c.08-.18.3-.26.48-.17.1.04 2.18.99 4.52-.57l-.61-.29a.38.38 0 0 1-.13-.57 2 2 0 0 1 1.78-.68c.2-.22.46-.54.6-.8l-.13-.05a.89.89 0 0 1-.6-.89.9.9 0 0 1 .65-.85 2.5 2.5 0 0 1 1.02-.07c.33-.68.8-2.05.34-2.83a.37.37 0 0 1 .12-.51c.17-.1.39-.05.5.12.84 1.45-.4 3.73-.45 3.83a.36.36 0 0 1-.4.18 1.88 1.88 0 0 0-.94 0 .16.16 0 0 0-.12.17c0 .04.01.12.1.16l.48.15c.16.06.26.23.24.41-.11.73-.95 1.57-1.05 1.66a.35.35 0 0 1-.34.1 1.16 1.16 0 0 0-.82.07l.62.28c.12.06.2.17.21.3a.38.38 0 0 1-.13.33 5.88 5.88 0 0 1-3.77 1.43v-.02ZM10.34 11.46a.36.36 0 0 1-.25-.1.38.38 0 0 1 0-.53l8.27-8.53a.36.36 0 0 1 .51 0c.14.15.14.39 0 .53l-8.27 8.53a.36.36 0 0 1-.26.1ZM1.1 22.11l2.08-2.76h21.64l2.08 2.76H1.1Zm-.9.7c.05.03.1.05.16.05h27.29c.05 0 .1-.02.15-.04l.2-.28a.39.39 0 0 0-.07-.28l-.37-.49-2.2-2.9-.08-.12a.37.37 0 0 0-.29-.14H3.01a.35.35 0 0 0-.28.14l-.1.12-2.2 2.9-.36.49a.35.35 0 0 0-.06.29l.2.26ZM28 22.54a2.76 2.76 0 0 1-.8.84l-.17.1c-.48.34-1.05.52-1.64.52H2.61c-.6 0-1.16-.18-1.64-.51l-.17-.12a2.62 2.62 0 0 1-.78-.82l.42-.78c.16.4.42.75.78.99l.14.1.03.02c.36.25.79.37 1.22.37H25.4c.43 0 .86-.12 1.22-.37l.03-.02.14-.1c.36-.24.62-.59.78-.99l.36.49c.07.08.09.18.08.28H28Zm-3-3.19a.36.36 0 0 1-.36-.37V5.52a1.3 1.3 0 0 0-1.28-1.32h-2.5a.36.36 0 0 1-.37-.37c0-.2.16-.37.36-.37h2.51c1.1 0 2 .92 2 2.06v13.46c0 .2-.16.37-.36.37Zm-22 0a.36.36 0 0 1-.36-.37V5.52c0-1.13.9-2.06 2-2.06h6.87c.2 0 .36.16.36.37 0 .2-.16.37-.36.37H4.64c-.7 0-1.28.6-1.28 1.32v13.46c0 .2-.16.37-.36.37ZM21.52 16.9H6.44a.36.36 0 0 1-.36-.37v-9.2c0-.2.16-.37.36-.37h3.77c.2 0 .36.17.36.37 0 .21-.15.38-.36.38H6.8v8.44h14.36V7.71h-2.02a.36.36 0 0 1-.36-.38c0-.2.16-.37.36-.37h2.38c.2 0 .36.17.36.37v9.2c0 .2-.15.37-.36.37ZM17.63 12.92h-7.29a.36.36 0 0 1-.36-.37c0-.2.16-.37.36-.37h7.29c.2 0 .36.16.36.37 0 .2-.16.37-.36.37Zm-1.33 2.01h-4.64a.36.36 0 0 1-.36-.38c0-.2.16-.37.36-.37h4.64c.2 0 .36.17.36.37 0 .21-.16.38-.36.38Z"/>
</svg>