<svg xmlns="http://www.w3.org/2000/svg" viewBox="0 0 25 25"><path fill="#006170" d="m12.5.27-.37 2.89-9.54 5.1-.18 15.9L0 21.77V7.18L12.5.28Z"/><path fill="#1AC8C6" d="M17.05 5.68v7.58l1.51-.26 1.52 1.6.13-7.18-3.16-1.74Z"/><path fill="#1E272D" d="M13.54 7.42h-2.06c-.56 0-1.03-.46-1.03-1.02 0-.57.47-1.03 1.03-1.03h2.06a1.03 1.03 0 0 1 0 2.05Zm-2.06-1.29a.27.27 0 0 0-.26.27c0 .14.12.26.26.26h2.06c.14 0 .26-.12.26-.26a.27.27 0 0 0-.26-.27h-2.06ZM13.54 10.86h-2.06c-.56 0-1.03-.47-1.03-1.03 0-.57.47-1.03 1.03-1.03h2.06a1.03 1.03 0 0 1 0 2.05Zm-2.06-1.3a.27.27 0 0 0-.26.27c0 .14.12.26.26.26h2.06c.14 0 .26-.12.26-.26a.27.27 0 0 0-.26-.27h-2.06ZM13.54 14.29h-2.06a1.03 1.03 0 0 1 0-2.05h2.06c.56 0 1.02.46 1.02 1.02 0 .57-.46 1.03-1.02 1.03Zm-2.06-1.3a.27.27 0 0 0-.26.27c0 .15.12.27.26.27h2.06c.14 0 .26-.12.26-.27a.27.27 0 0 0-.26-.26h-2.06ZM13.54 17.71h-2.06c-.56 0-1.03-.46-1.03-1.02 0-.57.47-1.03 1.03-1.03h2.06a1.03 1.03 0 0 1 0 2.05Zm-2.06-1.29a.27.27 0 0 0-.26.27c0 .14.12.26.26.26h2.06c.14 0 .26-.12.26-.26a.27.27 0 0 0-.26-.27h-2.06Z"/><path fill="#1E272D" d="M22.23 24.55a.37.37 0 0 1-.2-.06l-9.72-5.61a.38.38 0 0 1 .38-.65l9.15 5.28V8.79L13.3 3.85a.38.38 0 0 1 .37-.65l8.75 5.04c.12.07.18.2.18.33v15.6a.37.37 0 0 1-.38.38h.02Z"/><path fill="#1E272D" d="M22.23 24.55c-.1 0-.2-.04-.27-.12a.38.38 0 0 1 0-.53l2.3-2.29V7.4L13.6 1.06c-.68-.4-1.52-.4-2.2 0L.75 7.4V21.6l2.3 2.3c.14.14.14.38 0 .52a.38.38 0 0 1-.53 0l-2.4-2.4a.4.4 0 0 1-.12-.26V7.18c0-.13.07-.25.19-.32L11.02.4a2.87 2.87 0 0 1 2.96 0l10.83 6.45c.11.07.19.19.19.32v14.58c0 .1-.04.2-.11.27l-2.4 2.4a.37.37 0 0 1-.27.12Z"/><path fill="#1E272D" d="M20.15 15.12c-.1 0-.2-.03-.27-.11l-1.56-1.56-1.12.3a.37.37 0 0 1-.32-.07.37.37 0 0 1-.15-.3V5.62c0-.2.17-.38.38-.38.2 0 .37.17.37.38v7.27l.86-.23c.13-.03.27 0 .37.1l1.07 1.07V7.37c0-.2.17-.38.37-.38.21 0 .38.18.38.38v7.36c0 .16-.1.3-.23.36a.4.4 0 0 1-.15.02v.01ZM12.5 6.14a.38.38 0 0 1-.38-.38V.66c0-.2.17-.38.38-.38.2 0 .38.17.38.38v5.1c0 .2-.17.38-.38.38ZM12.5 9.56a.38.38 0 0 1-.37-.37V7.05c0-.2.17-.38.38-.38.2 0 .38.17.38.38v2.14c0 .2-.18.37-.38.37ZM12.5 13a.38.38 0 0 1-.37-.38v-2.14c0-.2.17-.38.38-.38.2 0 .38.17.38.38v2.14c0 .2-.18.38-.38.38ZM12.5 16.42a.38.38 0 0 1-.37-.38V13.9c0-.2.17-.37.38-.37.2 0 .38.17.38.37v2.14c0 .21-.18.38-.38.38Z"/><path fill="#1E272D" d="M2.78 24.55a.37.37 0 0 1-.19-.06.37.37 0 0 1-.18-.32V8.57c0-.13.06-.25.18-.32l9.53-5.52a.38.38 0 0 1 .38.65L3.16 8.8v14.72l8.96-5.18v-1c.01-.2.18-.38.39-.38.2 0 .38.17.38.39v1.21c-.01.14-.09.26-.2.33l-9.73 5.61a.37.37 0 0 1-.19.06h.01Z"/><path fill="#1E272D" d="M5.16 10.86a.36.36 0 0 1-.31-.18.38.38 0 0 1 .12-.53L8.7 7.8a.38.38 0 0 1 .52.12c.11.18.06.41-.12.52L5.37 10.8a.34.34 0 0 1-.2.06ZM5.16 13.84a.36.36 0 0 1-.31-.18.38.38 0 0 1 .12-.53l3.73-2.36a.38.38 0 0 1 .52.12c.11.18.06.41-.12.52l-3.73 2.37a.34.34 0 0 1-.2.06ZM5.16 16.8a.36.36 0 0 1-.31-.17.38.38 0 0 1 .12-.53l3.73-2.36a.38.38 0 0 1 .52.12c.11.18.06.41-.12.52l-3.73 2.37a.34.34 0 0 1-.2.06ZM5.16 19.79a.36.36 0 0 1-.31-.18.38.38 0 0 1 .12-.53l3.73-2.36a.38.38 0 0 1 .52.12c.11.18.06.41-.12.52l-3.73 2.37a.34.34 0 0 1-.2.06Z"/><path fill="#006170" d="M11.49 6.14a.27.27 0 0 0-.27.26c0 .15.12.27.27.27h2.05c.15 0 .27-.12.27-.27a.27.27 0 0 0-.27-.26H11.5ZM11.49 9.56a.27.27 0 0 0-.27.27c0 .14.12.26.27.26h2.05c.15 0 .27-.12.27-.26a.27.27 0 0 0-.27-.27H11.5ZM11.49 13a.27.27 0 0 0-.27.26c0 .15.12.27.27.27h2.05c.15 0 .27-.12.27-.27a.27.27 0 0 0-.27-.26H11.5ZM11.49 16.42a.27.27 0 0 0-.27.27c0 .14.12.26.27.26h2.05c.15 0 .27-.12.27-.26a.27.27 0 0 0-.27-.27H11.5Z"/></svg>