<svg xmlns="http://www.w3.org/2000/svg" viewBox="0 0 30 34">
	<path fill="#04B392" d="m15.24 10.4-1.94 1.27 1.94 1.54.33 10.17 2.38-1.2v-10.5l-2.7-1.28ZM11.3 18.1v7.49l2-1.18v-7.47l-2-1.17-1.98 1.17 1.99 1.16Z"/>
	<path fill="#036270" d="m19.55 5.47-1.94 1.28 1.94 1.54.32 12.97 2.39-1.19V6.75l-2.71-1.28Z"/>
	<path fill="#082029" d="M13 16.7a.42.42 0 0 1-.42-.43v-4.59c0-.23.19-.43.42-.43.23 0 .42.2.42.43v4.6c0 .23-.2.42-.42.42ZM15.4 24.08a.42.42 0 0 1-.41-.43v-10.3l-2.2-1.3a.44.44 0 0 1-.15-.59.4.4 0 0 1 .57-.15l2.63 1.54v10.8c0 .24-.19.43-.42.43h-.01ZM15.4 24.08a.42.42 0 0 1-.36-.22.44.44 0 0 1 .15-.58l2.2-1.3V11.93l-2.2-1.3a.43.43 0 0 1-.15-.6c.12-.2.38-.26.58-.15l2.62 1.55v11.05l-2.62 1.55a.43.43 0 0 1-.21.06v-.01ZM17.1 11.67a.42.42 0 0 1-.42-.42v-4.6c0-.23.19-.42.42-.42.23 0 .42.2.42.43v4.59c0 .23-.2.42-.42.42ZM19.5 21.7a.42.42 0 0 1-.41-.44V8.33l-2.2-1.3a.44.44 0 0 1-.15-.59c.11-.2.37-.27.57-.15l2.63 1.55v13.42c0 .24-.19.43-.42.43h-.01Zm-8.2 4.88-2.83-1.67v-8.46l2.84-1.67 2.83 1.67v8.46l-2.83 1.67Zm-1.98-2.17 1.99 1.17 1.99-1.17v-7.47l-2-1.17-1.98 1.17v7.47ZM13 12.1a.42.42 0 0 1-.37-.2.44.44 0 0 1 .15-.6l2.41-1.42c.2-.11.46-.05.58.16.11.2.05.47-.15.59l-2.41 1.42a.43.43 0 0 1-.21.06ZM19.5 21.7a.42.42 0 0 1-.36-.22.44.44 0 0 1 .15-.6l2.2-1.29V6.91L19.5 5.74l-2.2 1.3a.42.42 0 0 1-.58-.16.44.44 0 0 1 .15-.59l2.63-1.55 2.84 1.68v13.67l-2.63 1.55a.43.43 0 0 1-.21.06ZM12.58 31.33c-.4 0-.8-.1-1.16-.32l-8.2-4.83a2.26 2.26 0 0 1-1.1-1.94V12.8c0-.92.49-1.77 1.26-2.23l13.93-8.28c.2-.11.46-.05.58.16.12.2.05.47-.15.59L3.8 11.3c-.52.3-.84.88-.84 1.5v11.44c0 .49.26.94.67 1.19l8.2 4.83c.45.26 1.02.26 1.47 0l13.33-7.92c.2-.12.46-.05.57.15.12.21.05.48-.15.6L13.74 31c-.36.22-.76.32-1.17.32ZM12.57 34c-.4 0-.8-.1-1.15-.3L1.1 27.68A2.25 2.25 0 0 1 0 25.75V11.59c0-.92.48-1.78 1.26-2.24L16.61.22c.5-.3 1.1-.3 1.6-.01l.72.4a2.06 2.06 0 0 1 1.03 1.8v1.32c0 .24-.19.43-.42.43a.42.42 0 0 1-.42-.43V2.4c0-.43-.23-.83-.6-1.04l-.7-.4a.77.77 0 0 0-.77 0L1.69 10.09c-.52.31-.85.88-.85 1.5v14.15c0 .5.26.95.68 1.2l10.32 6c.46.26 1.02.26 1.47 0l15.33-9.11c.32-.19.52-.54.52-.9v-.97c0-.38-.2-.72-.52-.9l-5.62-3.32a.44.44 0 0 1-.15-.6c.12-.2.38-.27.58-.15l5.62 3.32c.58.34.94.97.94 1.65v.97c0 .68-.36 1.31-.93 1.65l-15.33 9.11c-.36.21-.77.32-1.17.32V34ZM11.41 26.24a.42.42 0 0 1-.42-.43v-7.45l-2.2-1.3a.44.44 0 0 1-.15-.59c.11-.2.37-.28.58-.15l2.62 1.54v7.95c0 .24-.19.43-.42.43h-.01Z"/>
</svg>