<svg xmlns="http://www.w3.org/2000/svg" viewBox="0 0 36 24">
<path fill="#04B392" d="M7.44 8.95H4.08v3.22h3.36V8.95ZM25.67 5.7h-3.36v3.22h3.36V5.7Z"/>
<path fill="#006170" d="M5.46 16.3a.48.48 0 0 1-.48-.47v-.7c0-.26.22-.47.48-.47.27 0 .49.21.49.47v.7c0 .25-.22.46-.49.46Zm0 2.46a.48.48 0 0 1-.48-.47v-.7c0-.25.22-.46.48-.46.27 0 .49.2.49.46v.7c0 .26-.22.47-.49.47Zm19.44-1.54a.48.48 0 0 1-.5-.46v-.7c0-.26.23-.47.5-.47.26 0 .48.21.48.47v.7c0 .25-.22.46-.49.46Zm0-2.44a.48.48 0 0 1-.5-.47v-.7c0-.25.23-.46.5-.46.26 0 .48.21.48.47v.7c0 .25-.22.46-.49.46Zm0-2.26a.48.48 0 0 1-.5-.47v-.7c0-.25.23-.46.5-.46.26 0 .48.2.48.46v.7c0 .26-.22.47-.49.47Zm0 7.18a.48.48 0 0 1-.5-.47v-.7c0-.25.23-.46.5-.46.26 0 .48.2.48.46v.7c0 .26-.22.47-.49.47Zm0 2.47a.48.48 0 0 1-.5-.47V21c0-.25.23-.46.5-.46.26 0 .48.21.48.47v.7c0 .25-.22.46-.49.46Zm-1.81-4.95a.48.48 0 0 1-.49-.46v-.7c0-.26.22-.47.49-.47s.48.21.48.47v.7c0 .25-.21.46-.48.46Zm0-2.44a.48.48 0 0 1-.49-.47v-.7c0-.25.22-.46.49-.46s.48.21.48.47v.7c0 .25-.21.46-.48.46Zm0-2.26a.48.48 0 0 1-.49-.47v-.7c0-.25.22-.46.49-.46s.48.2.48.46v.7c0 .26-.21.47-.48.47Zm0 7.18a.48.48 0 0 1-.49-.47v-.7c0-.25.22-.46.49-.46s.48.2.48.46v.7c0 .26-.21.47-.48.47Zm0 2.47a.48.48 0 0 1-.49-.47V21c0-.25.22-.46.49-.46s.48.21.48.47v.7c0 .25-.21.46-.48.46ZM11.75 19.7a.48.48 0 0 1-.48-.47v-.7c0-.25.22-.46.48-.46.27 0 .49.2.49.46v.7c0 .26-.22.47-.49.47Zm0 2.47a.48.48 0 0 1-.48-.47V21c0-.25.22-.46.48-.46.27 0 .49.21.49.47v.7c0 .25-.22.46-.49.46Zm5.73-2.47a.48.48 0 0 1-.49-.47v-.7c0-.25.22-.46.49-.46s.48.2.48.46v.7c0 .26-.21.47-.48.47Zm0 2.47a.48.48 0 0 1-.49-.47V21c0-.25.22-.46.49-.46s.48.21.48.47v.7c0 .25-.21.46-.48.46Zm13.19-2.47a.48.48 0 0 1-.5-.47v-.7c0-.25.23-.46.5-.46.26 0 .48.2.48.46v.7c0 .26-.22.47-.48.47Zm0-2.48a.48.48 0 0 1-.5-.46v-.7c0-.26.23-.47.5-.47.26 0 .48.21.48.47v.7c0 .25-.22.46-.48.46Zm0 4.95a.48.48 0 0 1-.5-.47V21c0-.25.23-.46.5-.46.26 0 .48.21.48.47v.7c0 .25-.22.46-.48.46Z"/>
<path fill="#082029" d="M25.55 4.96a4.32 4.32 0 0 0-2.06-2.03 4.62 4.62 0 0 0-3.04-.33A4.46 4.46 0 0 0 15.99.02a4.4 4.4 0 0 0-4.06 3.52 4.3 4.3 0 0 0-.05 1.13 3.26 3.26 0 0 0-2.9 3.19 3.2 3.2 0 0 0 2.8 3.16c.06.02.11.04.18.04h8.87v-.94h-8.74l-.07-.02a2.3 2.3 0 0 1-2.06-2.24c0-1.26 1.06-2.28 2.46-2.28h.01c.17.03.3-.06.4-.16a.45.45 0 0 0 .09-.4 3.1 3.1 0 0 1-.02-1.3A3.44 3.44 0 0 1 16.06.95a3.45 3.45 0 0 1 3.62 2.36c.05.12.14.22.26.28a.5.5 0 0 0 .38.02 3.7 3.7 0 0 1 1.49-.18 3.53 3.53 0 0 1 2.62 1.54l.04.05c.19.27.32.56.4.88h.32v2.2h-.5c-.16.36-.38.68-.65.95h1.23l.12-.2a4 4 0 0 0 .16-3.88v-.02Z"/>
<path fill="#082029" d="M26.17 5.43v3.05c0 .26-.22.47-.48.47a.42.42 0 0 1-.3-.11.43.43 0 0 1-.19-.36v-2.6h-2.4v2.6c0 .25-.22.46-.49.46a.48.48 0 0 1-.48-.46V5.42c0-.26.22-.46.48-.46h3.39c.26 0 .48.2.48.46ZM23.99 5.9a.48.48 0 0 1-.49-.47V.47c0-.25.22-.46.49-.46.26 0 .48.2.48.46v4.95c0 .26-.22.47-.48.47ZM34.5 23.64a.48.48 0 0 1-.48-.47v-6c0-.27.22-.47.48-.47.27 0 .49.2.49.46v6.01c0 .26-.22.47-.49.47Zm-25.61 0a.48.48 0 0 1-.49-.47v-9.39c0-.63-.53-1.14-1.19-1.14h-3.5c-.65 0-1.18.51-1.18 1.14v9.4c0 .25-.22.46-.49.46a.48.48 0 0 1-.49-.47v-9.39c0-1.15.98-2.08 2.17-2.08h3.5c1.2 0 2.17.93 2.17 2.08v9.4c0 .25-.22.46-.49.46ZM7.33 12.63a.48.48 0 0 1-.48-.46v-1.8c0-.72-.62-1.32-1.39-1.32-.76 0-1.38.6-1.38 1.33v1.79c0 .25-.22.46-.49.46a.48.48 0 0 1-.48-.46v-1.8a2.32 2.32 0 0 1 2.36-2.26c1.3 0 2.37 1.02 2.37 2.27v1.79c0 .25-.22.46-.49.46h-.02ZM5.46 8.96a.48.48 0 0 1-.48-.46V6.13c0-.26.22-.47.48-.47.27 0 .49.21.49.47V8.5c0 .25-.22.46-.49.46Zm9.15 14.68a.48.48 0 0 1-.48-.47v-5.28l-2.38-2.13-2.52 2.27a.5.5 0 0 1-.69-.02.45.45 0 0 1 .02-.66l2.87-2.56a.5.5 0 0 1 .67 0l2.86 2.56c.1.08.15.2.15.34v5.48c0 .26-.21.47-.48.47h-.02ZM20.34 18.15a.48.48 0 0 1-.34-.12l-2.52-2.27-2.53 2.27a.5.5 0 0 1-.69-.02.45.45 0 0 1 .03-.66l2.86-2.56a.5.5 0 0 1 .67 0l2.86 2.56c.2.18.21.47.03.66a.5.5 0 0 1-.36.14h-.01ZM28.13 8.58v14.6c0 .25-.22.46-.48.46a.48.48 0 0 1-.49-.47V9.04h-6.32v14.12c0 .26-.22.47-.49.47a.48.48 0 0 1-.48-.47V8.58c0-.26.21-.47.48-.47h7.3c.27 0 .49.21.49.47ZM34.5 17.63a.51.51 0 0 1-.38-.17l-3.32-3.9h-3.16a.48.48 0 0 1-.49-.46c0-.26.22-.47.49-.47h3.39a.5.5 0 0 1 .38.17l3.46 4.07c.17.2.14.5-.07.66a.5.5 0 0 1-.3.11v-.01ZM35.62 24H.38a.37.37 0 0 1-.38-.36c0-.2.17-.37.38-.37h35.24c.21 0 .38.16.38.37 0 .2-.17.36-.38.36Z"/>
</svg>