<svg xmlns="http://www.w3.org/2000/svg" viewBox="0 0 25 25">
	<path fill="#1AC8C6" d="M15.9 9.49H4.21v5.39h11.67v-5.4Z"/>
	<path fill="#006170" d="M16.3 5.58H3.76V9.7h12.56V5.58Z"/>
	<path fill="#fff" d="M10.82 9.15H9.37v1.34h1.45V9.15Z"/>
	<path fill="#082029" d="M15.54 15.47H4.64c-.49 0-.89-.4-.89-.89V9.36c0-.21.17-.38.38-.38.22 0 .39.17.39.38v5.22c0 .07.05.12.11.12h10.9c.07 0 .12-.05.12-.12V9.36c0-.21.17-.38.38-.38s.38.17.38.38v5.22c0 .5-.4.89-.89.89h.02Z"/>
	<path fill="#082029" d="M10.83 10.22a.38.38 0 0 1-.38-.38c0-.2.16-.39.37-.39 1.74-.03 3.5-.19 5.23-.48v-2.8a.12.12 0 0 0-.11-.11H4.24a.12.12 0 0 0-.11.12v2.8c1.72.28 3.48.44 5.23.47.21 0 .38.18.37.4 0 .2-.17.37-.39.37a37.16 37.16 0 0 1-5.48-.52.6.6 0 0 1-.5-.6V6.17c0-.5.4-.9.88-.9h11.7c.49 0 .88.4.88.9V9.1a.6.6 0 0 1-.5.6c-1.8.3-3.65.48-5.48.52h-.01Z"/>
	<path fill="#082029" d="M10.67 10.96H9.5a.55.55 0 0 1-.55-.54V9.26c0-.3.25-.54.55-.54h1.16c.3 0 .54.24.54.54v1.16c0 .3-.25.54-.54.54Zm-.94-.77h.72v-.71h-.72v.71ZM12.85 6.06a.38.38 0 0 1-.38-.38V4.63a.2.2 0 0 0-.2-.2H7.9a.2.2 0 0 0-.2.2v1.05c0 .2-.17.38-.38.38a.38.38 0 0 1-.38-.38V4.63c0-.53.43-.97.97-.97h4.36c.53 0 .97.43.97.97v1.05c0 .2-.17.38-.38.38h-.02ZM23.34 25c-.42 0-.86-.16-1.18-.5l-4.36-4.35a.38.38 0 0 1 0-.55.38.38 0 0 1 .54 0l4.36 4.37a.9.9 0 1 0 1.27-1.27l-4.36-4.37a.38.38 0 0 1 0-.54.38.38 0 0 1 .54 0l4.37 4.36A1.66 1.66 0 0 1 23.34 25Z"/>
	<path fill="#082029" d="M10.09 20.18a10.1 10.1 0 1 1 .02-20.2 10.1 10.1 0 0 1-.02 20.2Zm0-19.4a9.32 9.32 0 1 0 .01 18.64A9.32 9.32 0 0 0 10.1.77Z"/>
	<path fill="#082029" d="M11.17 22.66a.38.38 0 0 1-.39-.38c0-.21.17-.38.39-.38 5.9 0 10.72-4.81 10.72-10.73 0-.2.17-.38.38-.38s.38.17.38.38c0 6.34-5.16 11.5-11.5 11.5h.02Z"/>
</svg>