<svg xmlns="http://www.w3.org/2000/svg" viewBox="0 0 27 23">
	<path fill="#1AC8C6" d="M1.416 8.848h24.168c.241 0 .439.173.439.385v4.525c0 .212-.198.385-.44.385H1.417c-.241 0-.439-.174-.439-.385V9.233c0-.212.198-.385.44-.385Z"/>
	<path fill="#006170" d="M1.416 16.848h24.168c.241 0 .439.173.439.385v4.525c0 .212-.198.385-.44.385H1.417c-.241 0-.439-.173-.439-.385v-4.525c0-.212.198-.385.44-.385Z"/>
	<path fill="#1E272D" d="M4.469 18.07h-.55v.858h.55v-.857ZM4.469 20.073h-.55v.857h.55v-.857ZM5.841 19.072h-.549v.857h.55v-.857ZM7.225 18.07h-.55v.858h.55v-.857ZM7.225 20.073h-.55v.857h.55v-.857ZM8.597 19.072h-.549v.857h.55v-.857ZM9.98 18.07h-.548v.858h.549v-.857ZM9.98 20.073h-.548v.857h.549v-.857Z"/>
	<path fill="#1E272D" d="M25.584 23H1.416C.636 23 0 22.442 0 21.758v-4.525c0-.683.637-1.242 1.416-1.242h24.168c.78 0 1.416.559 1.416 1.242v4.525c0 .684-.637 1.242-1.416 1.242ZM1.416 16.848c-.241 0-.439.173-.439.385v4.525c0 .212.198.385.44.385h24.167c.241 0 .439-.173.439-.385v-4.525c0-.212-.198-.385-.44-.385H1.417Z"/>
	<path fill="#1E272D" d="M21.664 19.929h-6.028c-.264 0-.483-.193-.483-.424 0-.23.22-.423.483-.423h6.028c.263 0 .483.192.483.423 0 .231-.22.424-.483.424ZM23.926 20.247c-.473 0-.846-.337-.846-.742 0-.404.384-.741.846-.741.46 0 .845.337.845.741 0 .405-.384.742-.845.742ZM4.469 10.07h-.55v.857h.55v-.857ZM4.469 12.073h-.55v.857h.55v-.857ZM5.841 11.072h-.549v.856h.55v-.856ZM7.225 10.07h-.55v.857h.55v-.857ZM7.225 12.073h-.55v.857h.55v-.857ZM8.597 11.072h-.549v.856h.55v-.856ZM9.98 10.07h-.548v.857h.549v-.857ZM9.98 12.073h-.548v.857h.549v-.857Z"/>
	<path fill="#1E272D" d="M25.584 15H1.416C.636 15 0 14.44 0 13.758V9.233C0 8.549.637 7.99 1.416 7.99h24.168c.78 0 1.416.558 1.416 1.242v4.525C27 14.44 26.363 15 25.584 15ZM1.416 8.848c-.241 0-.439.173-.439.385v4.525c0 .211.198.385.44.385h24.167c.241 0 .439-.174.439-.385V9.233c0-.212-.198-.385-.44-.385H1.417Z"/>
	<path fill="#1E272D" d="M21.664 11.919h-6.028c-.264 0-.483-.193-.483-.424 0-.23.22-.423.483-.423h6.028c.263 0 .483.192.483.423 0 .231-.22.424-.483.424ZM23.926 12.236c-.473 0-.846-.337-.846-.74 0-.405.384-.742.846-.742.46 0 .845.337.845.741 0 .405-.384.742-.845.742ZM4.469 2.07h-.55v.857h.55V2.07ZM4.469 4.072h-.55v.857h.55v-.857ZM5.841 3.071h-.549v.857h.55v-.857ZM7.225 2.07h-.55v.857h.55V2.07ZM7.225 4.072h-.55v.857h.55v-.857ZM8.597 3.071h-.549v.857h.55v-.857ZM9.98 2.07h-.548v.857h.549V2.07ZM9.98 4.072h-.548v.857h.549v-.857Z"/>
	<path fill="#1E272D" d="M25.584 7H1.416C.636 7 0 6.44 0 5.756V1.242C0 .558.637 0 1.416 0h24.168C26.364 0 27 .558 27 1.242v4.525c0 .683-.637 1.242-1.416 1.242v-.01ZM1.416.856c-.241 0-.439.173-.439.385v4.525c0 .212.198.385.44.385h24.167c.241 0 .439-.173.439-.385V1.242c0-.212-.198-.385-.44-.385H1.417Z"/>
	<path fill="#1E272D" d="M21.664 3.928h-6.028c-.264 0-.483-.193-.483-.424 0-.23.22-.423.483-.423h6.028c.263 0 .483.192.483.423 0 .231-.22.424-.483.424ZM23.926 4.246c-.473 0-.846-.337-.846-.742 0-.404.384-.74.846-.74.46 0 .845.336.845.74 0 .405-.384.742-.845.742Z"/>
</svg>