<svg xmlns="http://www.w3.org/2000/svg" viewBox="0 0 22 26">
	<path fill="#1AC8C6" d="M20.77 3.33 1.34 9.48.36 6.62l1.27-1.3L18 .47h1.48l1.3 2.86ZM21.24 9.98H1.32v3.77h19.92V9.98Z"/>
	<path fill="#006170" d="m14.58 19.37-4.67-2.93v5.86l4.67-2.93Z"/>
	<path fill="#1E272D" d="M15.38 5.53c-.06 0-.12-.01-.18-.05a.38.38 0 0 1-.16-.51l1.7-3.27c.1-.19.33-.25.52-.16.19.1.25.32.16.51L15.7 5.32c-.07.13-.2.2-.33.2ZM11.79 6.62c-.06 0-.12 0-.18-.05a.38.38 0 0 1-.16-.5l2.46-4.73c.1-.19.33-.25.51-.16.2.1.26.32.16.51l-2.46 4.72c-.07.14-.2.2-.33.2v.01ZM8.17 7.76c-.06 0-.12-.01-.18-.05a.38.38 0 0 1-.16-.51l2.47-4.73c.1-.2.32-.26.5-.17.2.1.26.33.17.51L8.5 7.55c-.06.13-.2.2-.33.2ZM5.54 7.3c-.05 0-.12 0-.17-.05a.38.38 0 0 1-.17-.5L6.9 3.52c.1-.19.32-.25.5-.16.2.1.26.32.17.51L5.88 7.1c-.07.14-.2.2-.34.2v.01ZM4.75 13.74c-.1 0-.2-.03-.26-.1l-2.75-2.76a.38.38 0 0 1 0-.54.38.38 0 0 1 .54 0l2.75 2.75c.15.15.15.39 0 .54a.37.37 0 0 1-.27.11ZM8.59 13.74c-.1 0-.2-.03-.27-.1L4.56 9.86a.38.38 0 0 1 0-.54.38.38 0 0 1 .54 0l3.76 3.76c.15.15.15.39 0 .54a.37.37 0 0 1-.26.11h-.01ZM12.24 13.74c-.1 0-.2-.03-.26-.1L8.22 9.86a.38.38 0 0 1 0-.54.38.38 0 0 1 .54 0l3.76 3.76c.15.15.15.39 0 .54a.37.37 0 0 1-.27.11ZM15.88 13.75c-.1 0-.2-.03-.27-.11l-3.76-3.76a.38.38 0 0 1 0-.54.38.38 0 0 1 .54 0l3.76 3.76c.15.15.15.39 0 .54a.37.37 0 0 1-.26.11h-.01ZM19.53 13.75c-.09 0-.2-.03-.26-.11l-3.76-3.76a.38.38 0 0 1 0-.54.38.38 0 0 1 .54 0l3.76 3.76c.15.15.15.39 0 .54a.37.37 0 0 1-.27.11Z"/>
	<path fill="#1E272D" d="M18.7 25.75H3.86a3.32 3.32 0 0 1-3.31-3.32v-9.06c0-.21.17-.38.38-.38H21.6c.21 0 .38.17.38.38v9.06a3.32 3.32 0 0 1-3.31 3.32h.01Zm-17.38-12v8.68c0 1.41 1.15 2.56 2.56 2.56H18.7c1.41 0 2.55-1.14 2.55-2.56v-8.69H1.32Z"/>
	<path fill="#1E272D" d="M21.62 13.74a.38.38 0 0 1-.38-.37v-3.4H1.32v3.4a.38.38 0 0 1-.76 0V9.6c0-.21.18-.38.38-.38h20.68c.21 0 .38.17.38.38v3.77c0 .2-.17.37-.38.37Z"/>
	<path fill="#1E272D" d="M.98 9.98a.37.37 0 0 1-.36-.27l-.5-1.66A2.42 2.42 0 0 1 1.7 5.03L17.56.1c1.28-.4 2.63.33 3.02 1.6l.52 1.65c.07.2-.04.42-.24.48L1.56 9.86c-.2.06-.4-.05-.46-.24a.37.37 0 0 1 .24-.48l18.92-5.92-.4-1.3A1.67 1.67 0 0 0 17.78.84L1.92 5.75a1.67 1.67 0 0 0-1.1 2.08l.52 1.66c.07.2-.05.42-.24.48a.47.47 0 0 1-.12.01Z"/>
</svg>