<svg viewBox="0 0 29 29" fill="none" xmlns="http://www.w3.org/2000/svg">
	<path d="M13.1595 8.39624C12.8486 8.39624 12.5896 8.64774 12.5896 8.96373V17.489C12.5896 17.9726 12.9846 18.3595 13.4638 18.3595H26.0663C26.3448 18.3595 26.6233 18.4756 26.824 18.6691L28.1905 20.0362V8.64774C28.1905 8.50587 28.0739 8.39624 27.9379 8.39624H13.1595Z" fill="#006170"/>
	<path d="M28.592 21.4162C28.4884 21.4162 28.3848 21.3775 28.3071 21.3001L26.2477 19.243C26.2023 19.1978 26.1376 19.1656 26.0663 19.1656H13.4638C12.5313 19.1656 11.78 18.4111 11.78 17.4889V8.96367C11.78 8.20917 12.4017 7.59009 13.1594 7.59009H27.9379C28.5272 7.59009 29.0065 8.06729 29.0065 8.65413V21.0164C29.0065 21.1776 28.9093 21.3259 28.7539 21.3904C28.7021 21.4097 28.6503 21.4226 28.5985 21.4226L28.592 21.4162ZM13.1594 8.39618C12.8486 8.39618 12.5896 8.64768 12.5896 8.96367V17.4889C12.5896 17.9726 12.9846 18.3595 13.4638 18.3595H26.0663C26.3448 18.3595 26.6233 18.4756 26.824 18.669L28.1905 20.0362V8.64768C28.1905 8.50581 28.0739 8.39618 27.9379 8.39618H13.1594Z" fill="#1E272D"/>
	<path d="M0.407995 13.4327C0.356186 13.4327 0.304377 13.4198 0.252568 13.4005C0.103618 13.336 0 13.1877 0 13.0265V1.0447C0 0.46431 0.46628 0 1.04913 0H15.3354C16.0802 0 16.6824 0.599733 16.6824 1.34134V6.6938C16.6824 6.9195 16.5011 7.10007 16.2745 7.10007C16.0478 7.10007 15.8665 6.9195 15.8665 6.6938V1.34134C15.8665 1.0447 15.6268 0.806093 15.3289 0.806093H1.04913C0.919607 0.806093 0.815989 0.909273 0.815989 1.03825V12.0463L2.12416 10.7436C2.31845 10.5501 2.59044 10.4405 2.86244 10.4405H10.8863C11.113 10.4405 11.2943 10.6211 11.2943 10.8468C11.2943 11.0725 11.113 11.2531 10.8863 11.2531H2.85596C2.7912 11.2531 2.73292 11.2789 2.68758 11.324L0.686467 13.3167C0.608754 13.394 0.505136 13.4327 0.401519 13.4327H0.407995Z" fill="#1E272D"/>
	<path d="M0.407995 29C0.356186 29 0.304377 28.9871 0.252568 28.9677C0.103618 28.9032 0 28.7549 0 28.5937V16.6055C0 16.0315 0.46628 15.5608 1.04913 15.5608H10.8863C11.113 15.5608 11.2943 15.7414 11.2943 15.9671C11.2943 16.1928 11.113 16.3733 10.8863 16.3733H1.04913C0.919607 16.3733 0.815989 16.4765 0.815989 16.6055V27.6135L2.12416 26.3108C2.31845 26.1174 2.59044 26.0078 2.86244 26.0078H15.0375C15.4973 26.0078 15.8729 25.6337 15.8729 25.1759V20.0556C15.8729 19.8299 16.0543 19.6493 16.2809 19.6493C16.5076 19.6493 16.6889 19.8299 16.6889 20.0556V25.1759C16.6889 26.0787 15.9506 26.8138 15.044 26.8138H2.85596C2.7912 26.8138 2.73292 26.8396 2.68758 26.8848L0.686467 28.8774C0.608754 28.9548 0.505136 28.9935 0.401519 28.9935L0.407995 29Z" fill="#1E272D"/>
	<path d="M11.8124 4.39799H4.91536C4.6887 4.39799 4.50737 4.21743 4.50737 3.99172C4.50737 3.76601 4.6887 3.58545 4.91536 3.58545H11.8124C12.0391 3.58545 12.2204 3.76601 12.2204 3.99172C12.2204 4.21743 12.0391 4.39799 11.8124 4.39799Z" fill="#1E272D"/>
	<path d="M11.8124 7.39018H4.91536C4.6887 7.39018 4.50737 7.20961 4.50737 6.98391C4.50737 6.7582 4.6887 6.57764 4.91536 6.57764H11.8124C12.0391 6.57764 12.2204 6.7582 12.2204 6.98391C12.2204 7.20961 12.0391 7.39018 11.8124 7.39018Z" fill="#1E272D"/>
	<path d="M6.08666 20.8695L5.31276 21.6401L7.43755 23.756L8.21145 22.9853L6.08666 20.8695Z" fill="#006170"/>
	<path d="M11.373 19.8405L10.5991 19.0698L6.6655 22.9868L7.43941 23.7575L11.373 19.8405Z" fill="#006170"/>
	<path d="M20.2702 14.5741V14.1549C20.2702 13.9421 20.3026 13.7616 20.3738 13.6068C20.4451 13.4585 20.5293 13.3231 20.6329 13.207C20.7365 13.0909 20.8466 12.9877 20.9696 12.8974C21.0862 12.8072 21.2028 12.7169 21.3064 12.6201C21.41 12.5299 21.4942 12.4267 21.5654 12.3171C21.6367 12.2074 21.6691 12.0784 21.6691 11.9366C21.6691 11.8721 21.6626 11.7947 21.6431 11.7173C21.6237 11.6335 21.5913 11.5561 21.5331 11.4723C21.4748 11.3949 21.3906 11.3304 21.2805 11.2788C21.1704 11.2272 21.0214 11.2014 20.8336 11.2014C20.6329 11.2014 20.471 11.2337 20.3479 11.2917C20.2249 11.3497 20.1342 11.4271 20.0695 11.5174C20.0047 11.6077 19.9658 11.7044 19.9464 11.8076C19.927 11.9108 19.914 12.0011 19.914 12.0913V12.2139C19.914 12.2526 19.914 12.2913 19.9205 12.3364H18.6965C18.6965 12.2977 18.6836 12.259 18.6771 12.201C18.6706 12.1494 18.6641 12.0849 18.6641 12.014C18.6641 11.8076 18.6965 11.6141 18.7548 11.4271C18.8131 11.2401 18.9102 11.0789 19.0333 10.9241C19.1563 10.7758 19.3053 10.6404 19.4931 10.5307C19.6744 10.4211 19.8881 10.3373 20.1277 10.2792C20.3674 10.2212 20.6329 10.189 20.9243 10.189C21.1769 10.189 21.41 10.2083 21.6237 10.2535C21.8374 10.2986 22.0317 10.3695 22.2066 10.4598C22.3814 10.5501 22.5174 10.6597 22.6405 10.7951C22.757 10.9241 22.8542 11.0789 22.9189 11.2466C22.9837 11.4207 23.0161 11.6077 23.0161 11.814C23.0161 12.072 22.9772 12.2977 22.8995 12.4783C22.8218 12.6588 22.7247 12.8136 22.6016 12.949C22.4786 13.0845 22.349 13.2005 22.213 13.2973C22.077 13.4004 21.9475 13.4972 21.8245 13.5939C21.7014 13.6906 21.6043 13.7938 21.5266 13.9099C21.4489 14.026 21.41 14.1614 21.41 14.3162V14.5741H20.2896H20.2702ZM20.199 16.3862V15.1416H21.4618V16.3862H20.199Z" fill="#04B392"/>
</svg>