<svg xmlns="http://www.w3.org/2000/svg" viewBox="0 0 32 26">
	<path fill="#1AC8C6" d="m11.795 15.082-1.533.872-1.267.716-2.455 1.405-5.237-2.993 5.237-3.003 2.455 1.405 1.267.725 1.533.873ZM31.14 3.901l-1.666.943-1.373.777-2.65 1.518-5.672-3.238L25.451.663l2.65 1.519 1.373.768 1.666.951Z"/>
	<path fill="#082029" d="M22.695 9.295s0-.017-.009-.035a.29.29 0 0 0-.088-.122c-.036-.044-.089-.07-.124-.096L19.78 7.506l-.86-.489-.204-.113-.86-.49-1.453-.828a.475.475 0 0 0-.434 0l-6.07 3.447s-.098.053-.133.096a.38.38 0 0 0-.124.297.45.45 0 0 0 .221.375l.647.376 5.255 2.967.204.13a.45.45 0 0 0 .222.062c.07 0 .15-.018.212-.061l.222-.131 1.967-1.108.86-.49.141-.078.86-.489 1.427-.802.647-.376a.421.421 0 0 0 .221-.375.304.304 0 0 0-.035-.148l-.018.017Zm-2.924 1.091-.86.489-.204.113-.86.498-1.665.942-5.255-2.985 5.255-2.984 1.666.942.86.498.203.113.86.489 1.666.942-1.666.943Z"/>
	<path fill="#082029" d="m10.492 14.34-.86-.49V9.444c0-.113.045-.218.125-.296.035-.044.088-.07.133-.096a.525.525 0 0 1 .168-.035c.248 0 .434.192.434.427v4.897ZM10.492 16.155l.576.323-.868.489-.567-.332v-.332l.86-.488v.34ZM22.722 9.443v7.192l-6.55 3.727-3.092-1.763-.86-.489v-.977l.86.488 3.093 1.755 5.68-3.23V9.435c0-.227.195-.428.434-.428.063 0 .116.009.169.035a.266.266 0 0 1 .124.096.29.29 0 0 1 .089.122c.008.009.008.018.008.035.018.052.036.096.036.148h.009Z"/>
	<path fill="#082029" d="M16.182 17.962a.424.424 0 0 1-.426-.428v-4.617a.43.43 0 0 1 .426-.428.43.43 0 0 1 .425.428v4.617a.43.43 0 0 1-.425.428ZM13.062 14.933s0-.017-.009-.035c-.026-.043-.044-.087-.088-.122l-.053-.052c-.027-.018-.054-.035-.071-.044l-2.33-1.327-.86-.488-.568-.323-.86-.489-1.453-.83a.476.476 0 0 0-.434 0L.257 14.69s-.053.026-.08.043l-.053.053A.38.38 0 0 0 0 15.08c0 .149.089.297.213.376l.647.366L6.115 18.8l.212.13a.45.45 0 0 0 .222.062c.07 0 .15-.018.213-.062l.221-.13 1.959-1.109.86-.489.407-.227.86-.488 1.16-.664.647-.366a.421.421 0 0 0 .222-.376.304.304 0 0 0-.036-.148Zm-2.56.882-.86.488-.568.323-.86.498-1.665.942-5.255-2.984 5.255-2.985 1.666.942.86.498.567.323.86.488 1.302.742-1.303.742v-.017Z"/>
	<path fill="#082029" d="M13.089 15.082v7.191L6.54 26 0 22.273v-7.191c0-.114.044-.219.124-.297l.053-.053a.362.362 0 0 1 .08-.043c.053-.018.106-.035.168-.035.248 0 .435.192.435.428v6.711l5.68 3.23 5.68-3.23v-6.711c0-.227.195-.428.435-.428a.365.365 0 0 1 .239.079l.053.052c.044.035.062.078.089.122.009.009.009.018.009.035.017.052.035.096.035.148l.009-.008Z"/>
	<path fill="#082029" d="M6.549 23.6a.424.424 0 0 1-.425-.428v-4.617a.43.43 0 0 1 .425-.427.43.43 0 0 1 .425.427v4.617a.43.43 0 0 1-.425.428ZM31.965 3.753s0-.018-.01-.035a.224.224 0 0 0-.088-.113l-.053-.053c-.027-.017-.053-.035-.071-.043L27.986 1.37l-.86-.488-1.453-.82c-.124-.08-.284-.08-.434 0l-6.07 3.447s-.045.026-.072.034a.205.205 0 0 0-.062.062c-.088.07-.124.174-.124.296a.45.45 0 0 0 .222.376l.647.375 5.255 2.976.212.122a.45.45 0 0 0 .222.061c.07 0 .15-.017.213-.06l.221-.123 1.967-1.117.86-.489 2.428-1.37.647-.375a.411.411 0 0 0 .222-.376.305.305 0 0 0-.036-.148h-.026Zm-3.988 1.693-.86.498-1.666.942-5.255-2.985L25.451.916l1.666.943.86.498 2.73 1.544-2.73 1.545Z"/>
	<path fill="#006170" d="m21.437 9.443-1.24.699-.302.174-1.267.716-2.446 1.405-5.246-2.994 5.246-2.993 2.446 1.405 1.267.716.301.174 1.24.698Z"/>
	<path fill="#082029" d="m19.77 8.5-.859-.488v-4.12c0-.113.044-.218.124-.296l.062-.061c.018-.009.044-.026.071-.035a.364.364 0 0 1 .169-.035c.248 0 .434.192.434.428V8.5ZM19.77 10.613l.665.384-.86.48-.664-.375v-.227l.86-.489v.227ZM32 3.901v7.2l-6.549 3.727-2.73-1.553-.859-.489v-.977l.86.488 2.73 1.554 5.68-3.23V3.91c0-.227.194-.428.434-.428.062 0 .115.01.168.035.018.009.044.026.071.044l.053.052c.044.035.071.07.089.114.009.008.009.017.009.035.017.052.035.096.035.148L32 3.901Z"/>
	<path fill="#082029" d="M25.451 12.498a.424.424 0 0 1-.425-.428V7.453a.43.43 0 0 1 .425-.427.43.43 0 0 1 .425.427v4.617a.43.43 0 0 1-.425.428Z"/>
</svg>