<svg xmlns="http://www.w3.org/2000/svg" viewBox="0 0 32 33">
	<path fill="#006170" d="M13.46 17.47c-1.12 0-2.15-.45-2.9-1.24l3.35-2.54V9.48c1.99.23 3.55 1.93 3.55 3.98 0 2.2-1.79 4-4 4v.01Z"/>
	<path fill="#1AC8C6" d="m31.15 31.04-.07.03c-3.9 1.44-8.19 1.43-12.08-.03V20.2c3.76 2.06 8.31 2.07 12.09.03l.06-.03v10.84Z"/>
	<path fill="#1E272D" d="M25.04 32.12c-1.85 0-3.7-.24-5.5-.72-.61-.17-1.04-.72-1.04-1.36v-2.93c0-.25.21-.46.46-.46s.46.21.46.46v2.93c0 .22.15.42.36.47 3.44.92 7.08.92 10.52 0a.48.48 0 0 0 .36-.47v-2.93c0-.25.21-.46.46-.46s.46.21.46.46v2.93c0 .63-.43 1.19-1.04 1.36-1.8.48-3.65.72-5.5.72Z"/>
	<path fill="#1E272D" d="M25.04 28.64c-1.85 0-3.7-.24-5.5-.72-.61-.17-1.04-.72-1.04-1.36v-2.93c0-.25.21-.46.46-.46s.46.21.46.46v2.93c0 .22.15.42.36.47 3.44.92 7.08.92 10.52 0a.48.48 0 0 0 .36-.47v-2.93c0-.25.21-.46.46-.46s.46.21.46.46v2.93c0 .63-.43 1.19-1.04 1.36-1.8.48-3.65.72-5.5.72Z"/>
	<path fill="#1E272D" d="M25.04 25.16c-1.85 0-3.7-.24-5.5-.72-.61-.16-1.04-.72-1.04-1.36v-2.93c0-.25.21-.46.46-.46s.46.21.46.46v2.93c0 .22.15.42.36.47 3.44.92 7.08.92 10.52 0a.48.48 0 0 0 .36-.47v-2.93c0-.25.21-.46.46-.46s.46.21.46.46v2.93c0 .64-.43 1.19-1.04 1.36-1.8.48-3.65.72-5.5.72Z"/>
	<path fill="#1E272D" d="M25.04 22.07c-3.15 0-6.54-.68-6.54-2.18s3.39-2.18 6.54-2.18 6.54.68 6.54 2.18-3.39 2.18-6.54 2.18Zm0-3.44c-3.71 0-5.62.89-5.62 1.26s1.91 1.27 5.62 1.27 5.62-.89 5.62-1.27-1.91-1.26-5.62-1.26ZM9.68 15.76l-.08.06.03-.03c.02-.01.03-.02.05-.03ZM6.56 16.37c-.19 0-.36-.12-.43-.3a7.776 7.776 0 0 1 5.25-10.11c.24-.06.5.08.56.32.06.24-.08.5-.32.56a6.846 6.846 0 0 0-5.02 6.24c-.05.92.08 1.82.38 2.68.08.24-.04.5-.28.58-.05.02-.1.03-.15.03h.01ZM13.46 14.26c-.44 0-.8-.36-.8-.8 0-.44.36-.8.8-.8.44 0 .8.36.8.8 0 .44-.36.8-.8.8Zm0-.92c-.06 0-.11.05-.11.11 0 .13.23.13.23 0 0-.06-.05-.11-.12-.11ZM9.83 16.78 7.1 18.85a.42.42 0 0 1-.28.1.47.47 0 0 1-.37-.19.46.46 0 0 1 .09-.64l3.05-2.3c-.18.15-.2.42-.06.61.1.12.19.24.29.35h.01Z"/>
	<path fill="#1E272D" d="M13.92 8.56c-.15-.01-.3-.02-.46-.02-.25 0-.46.2-.46.46v4.24l-3.31 2.51h-.02l-.08.07c-.18.15-.2.42-.06.61.1.12.19.24.29.35.93 1.02 2.23 1.6 3.63 1.6 2.71 0 4.92-2.21 4.92-4.91 0-2.56-1.97-4.67-4.46-4.9l.01-.01Zm-.46 8.9c-1.12 0-2.15-.45-2.9-1.24l3.35-2.54V9.47c1.99.23 3.55 1.93 3.55 3.98 0 2.2-1.79 4-4 4v.01Z"/>
	<path fill="#1E272D" d="M13.92 5.06v3.5c-.15-.01-.3-.02-.46-.02-.25 0-.46.2-.46.46V5.06c0-.25.2-.46.46-.46s.46.21.46.46Z"/>
	<path fill="#1E272D" d="M13.46 26.92C6.04 26.92 0 20.88 0 13.46 0 6.04 6.04 0 13.46 0c7.42 0 13.46 6.04 13.46 13.46 0 1.07-.13 2.13-.37 3.16a.456.456 0 1 1-.89-.21c.23-.96.35-1.94.35-2.94C26.01 6.54 20.38.92 13.46.92 6.54.92.91 6.54.91 13.46c0 6.92 5.63 12.55 12.55 12.55 1.23 0 2.45-.18 3.61-.53.24-.07.5.06.57.31.07.24-.06.5-.31.57-1.25.38-2.56.57-3.88.57l.01-.01Z"/>
	<path fill="#1E272D" d="M2.22 13.92H.46c-.25 0-.46-.21-.46-.46S.21 13 .46 13h1.76c.25 0 .46.21.46.46s-.21.46-.46.46ZM26.47 13.92h-1.76c-.25 0-.46-.21-.46-.46s.21-.46.46-.46h1.76c.25 0 .46.21.46.46s-.21.46-.46.46ZM13.46 2.67c-.25 0-.46-.21-.46-.46V.46c0-.25.21-.46.46-.46s.46.21.46.46v1.76c0 .25-.21.46-.46.46v-.01ZM13.46 26.92c-.25 0-.46-.21-.46-.46V24.7c0-.25.21-.46.46-.46s.46.21.46.46v1.76c0 .25-.21.46-.46.46Z"/>
	<path fill="#1AC8C6" d="M22.55 14.16c-.38 0-.7-.31-.7-.7 0-3.9-2.76-7.34-6.56-8.19a.704.704 0 0 1-.53-.83c.08-.37.46-.61.83-.53 4.43.99 7.64 5 7.64 9.55 0 .38-.31.7-.7.7h.02Z"/>
</svg>