<svg xmlns="http://www.w3.org/2000/svg" viewBox="0 0 32 31">
	<path fill="#082029" d="M15.7 8.42c-.09 0-.19-.02-.27-.07L9 4.64a.509.509 0 0 1-.26-.46c0-.19.1-.36.27-.46L15.43.07c.08-.05.17-.07.26-.07s.18.02.26.07l6.43 3.65c.16.09.27.27.27.46s-.1.37-.26.46l-6.43 3.71c-.08.05-.17.07-.27.07h.01Zm0-1.14 5.37-3.1-5.37-3.05-5.36 3.05 5.36 3.1Z"/>
	<path fill="#082029" d="M15.7 8.36c-.08 0-.16-.02-.23-.06L9.04 4.59a.47.47 0 0 1-.23-.4c0-.17.09-.32.23-.4L15.47.13a.47.47 0 0 1 .46 0l6.43 3.65c.14.08.23.23.23.4s-.09.32-.23.4l-6.43 3.71c-.07.04-.15.06-.23.06v.01Zm-5.5-4.17 5.5 3.18 5.5-3.18-5.5-3.12-5.5 3.12Z"/>
	<path fill="#1AC8C6" d="m10.2 4.18 5.5-3.12 5.5 3.12-5.5 3.18-5.5-3.18Z"/>
	<path fill="#082029" d="M15.7 15.85c-.09 0-.18-.02-.26-.07l-6.43-3.71a.529.529 0 0 1-.26-.46V4.18c0-.29.24-.53.53-.53.29 0 .53.24.53.53v7.12l6.17 3.56c.12.07.21.18.25.32.04.14.02.28-.05.4-.09.16-.27.26-.46.26l-.02.01Z"/>
	<path fill="#082029" d="M15.69 15.78c-.08 0-.16-.02-.23-.06l-6.43-3.71a.47.47 0 0 1-.23-.4V4.18c0-.26.21-.46.46-.46s.46.21.46.46v7.16l6.2 3.58a.46.46 0 0 1-.23.86Z"/>
	<path fill="#082029" d="M15.7 15.85c-.19 0-.37-.1-.46-.26a.511.511 0 0 1-.05-.4c.04-.14.12-.25.25-.32l6.17-3.56V4.19c0-.29.24-.53.53-.53.29 0 .53.24.53.53v7.43c0 .19-.1.36-.26.46l-6.43 3.71c-.08.05-.17.07-.26.07l-.02-.01Z"/>
	<path fill="#082029" d="M15.7 15.78a.45.45 0 0 1-.4-.23.46.46 0 0 1 .17-.63l6.2-3.58V4.18c0-.26.21-.46.46-.46s.46.21.46.46v7.43c0 .17-.09.32-.23.4l-6.43 3.71c-.07.04-.15.06-.23.06ZM15.7 13.36c-.29 0-.53-.24-.53-.53V7.9c0-.29.24-.53.53-.53.29 0 .53.24.53.53v4.93c0 .29-.24.53-.53.53Z"/>
	<path fill="#082029" d="M15.7 13.29c-.26 0-.46-.21-.46-.46V7.9c0-.26.21-.46.46-.46s.46.21.46.46v4.93c0 .26-.21.46-.46.46ZM6.2 18.24a.53.53 0 0 1-.42-.2l-.73-.94a.523.523 0 0 1-.1-.23l-.45-2.58c-.19-1.11-.39-2.26-.51-2.93a.463.463 0 0 0-.19-.3.496.496 0 0 0-.26-.08c-.03 0-.07 0-.1.01l-.97.19h-.1c-.25 0-.47-.18-.52-.43a.52.52 0 0 1 .42-.62l.97-.19c.1-.02.21-.03.31-.03.31 0 .6.09.86.27.34.23.56.58.63.99.1.56.94 5.4.94 5.4l.65.82a.526.526 0 0 1-.42.85H6.2Z"/>
	<path fill="#082029" d="M6.2 18.18c-.14 0-.27-.06-.37-.18l-.73-.94a.402.402 0 0 1-.09-.2l-.45-2.58c-.19-1.11-.39-2.26-.51-2.93a.49.49 0 0 0-.22-.34c-.12-.08-.26-.11-.41-.08l-.97.19a.457.457 0 0 1-.54-.36c-.05-.25.11-.49.36-.54l.97-.19a1.444 1.444 0 0 1 1.72 1.16c.12.67.32 1.82.51 2.94l.43 2.46.66.85c.16.2.12.49-.08.65a.42.42 0 0 1-.28.1v-.01Z"/>
	<path fill="#082029" d="M7.65 17.62c-.17 0-.33-.08-.43-.22l-.73-1.03a.667.667 0 0 1-.09-.21c-.13-.7-.25-1.45-.38-2.24-.12-.72-.23-1.43-.36-2.17a.463.463 0 0 0-.19-.3.496.496 0 0 0-.26-.08c-.03 0-.07 0-.1.01l-.53.1h-.1c-.26 0-.48-.18-.53-.43a.52.52 0 0 1 .42-.62l.53-.1c.1-.02.2-.03.31-.03.31 0 .6.09.86.27.34.23.56.58.63.99.13.75.25 1.47.36 2.16.12.77.24 1.48.36 2.14l.66.92c.17.24.11.57-.12.74-.09.06-.2.1-.31.1Z"/>
	<path fill="#082029" d="M7.65 17.56c-.15 0-.29-.07-.38-.19l-.73-1.03c-.04-.05-.06-.12-.08-.18-.13-.7-.25-1.46-.38-2.26-.11-.69-.23-1.4-.36-2.15a.49.49 0 0 0-.22-.34.533.533 0 0 0-.41-.08l-.53.1a.465.465 0 0 1-.54-.36c-.05-.25.11-.49.36-.54l.53-.1a1.444 1.444 0 0 1 1.72 1.16c.13.75.25 1.47.36 2.16.12.75.24 1.47.36 2.14l.67.94c.15.21.1.5-.11.65a.46.46 0 0 1-.27.09l.01-.01ZM9.48 30.78c-.29 0-.53-.24-.53-.53v-3.56c-.36-.68-1.23-1.17-2.63-1.47l-.46-.09c-1.14-.23-2.33-.47-3.24-1.3-.56-.51-.91-1.15-1.19-1.72C.9 21.07.44 19.98.07 18.86c-.16-.48-.03-.98.35-1.32a1.249 1.249 0 0 1 1.36-.19c.65.31 1.5.87 1.92 1.79l.14.32c.28.67.44.9.78.9.07 0 .14 0 .23-.03.11-.02.22-.07.36-.13.65-.3 1.39-.45 2.14-.45 1.35 0 2.68.5 3.64 1.37a.534.534 0 0 1 .03.75c-.1.11-.24.17-.39.17-.13 0-.26-.05-.36-.14-.77-.7-1.83-1.1-2.92-1.1-.6 0-1.19.12-1.7.36-.18.08-.38.16-.6.21-.16.03-.31.05-.44.05-1.09 0-1.48-.92-1.74-1.53l-.13-.3c-.22-.49-.73-.94-1.42-1.27-.03-.01-.05-.02-.08-.02-.06 0-.1.03-.12.05-.05.05-.07.11-.05.18.36 1.07.8 2.11 1.3 3.11.24.48.54 1.03.96 1.41.69.63 1.73.84 2.73 1.04l.47.1c1.81.38 2.93 1.09 3.42 2.17.03.07.05.15.05.22v3.66c0 .29-.24.53-.53.53l.01.01Z"/>
	<path fill="#082029" d="M9.48 30.71c-.26 0-.46-.21-.46-.46v-3.56c-.38-.73-1.26-1.23-2.68-1.53l-.46-.09c-1.14-.23-2.31-.46-3.21-1.28-.55-.5-.9-1.14-1.18-1.7-.53-1.04-.98-2.13-1.36-3.24-.15-.45-.03-.93.33-1.24.35-.31.86-.38 1.29-.18.64.31 1.48.86 1.89 1.75l.14.31c.32.77.49 1.03 1.08.91.11-.02.23-.07.38-.14 1.85-.84 4.19-.47 5.7.91a.46.46 0 1 1-.62.68c-1.25-1.13-3.18-1.44-4.69-.75-.18.08-.37.16-.58.2-1.39.27-1.82-.77-2.11-1.46l-.12-.29c-.23-.5-.75-.97-1.46-1.31-.13-.06-.24 0-.27.04-.04.04-.11.12-.07.25.36 1.07.8 2.12 1.31 3.12.25.49.55 1.04.98 1.43.71.64 1.75.85 2.77 1.06l.47.1c1.79.38 2.89 1.08 3.38 2.14.03.06.04.13.04.19v3.67c0 .26-.21.46-.46.46l-.03.01Z"/>
	<path fill="#082029" d="M14.22 30.96c-.29 0-.53-.24-.53-.53v-6.8c-.09-.98-.49-2.11-1.05-3.02-.98-1.56-2.42-1.89-3.82-2.2l-.49-.11a.534.534 0 0 1-.33-.24.509.509 0 0 1-.06-.4c.06-.24.27-.41.52-.41.04 0 .08 0 .12.01l.48.11c1.46.33 3.28.74 4.49 2.67.66 1.06 1.1 2.34 1.21 3.53v6.85c0 .29-.24.53-.53.53l-.01.01Z"/>
	<path fill="#082029" d="M14.22 30.89c-.26 0-.46-.21-.46-.46v-6.8c-.09-1-.48-2.12-1.06-3.05-.99-1.59-2.45-1.92-3.87-2.23l-.49-.11a.462.462 0 0 1-.34-.56c.06-.25.31-.4.56-.34l.48.11c1.45.32 3.25.73 4.45 2.64.65 1.05 1.09 2.32 1.2 3.5v6.84c0 .26-.21.46-.46.46h-.01ZM4.48 18.94c-.16 0-.31-.07-.41-.19l-.89-1.05a.568.568 0 0 1-.12-.26L2.05 11.2a.297.297 0 0 0-.14-.22.36.36 0 0 0-.2-.06h-.07c-.21.04-.36.24-.34.45l.83 6.36c.02.14-.02.28-.11.39-.09.11-.21.18-.35.2H1.6a.52.52 0 0 1-.52-.46L.25 11.5c-.09-.77.43-1.48 1.19-1.62.09-.02.18-.03.27-.03a1.371 1.371 0 0 1 1.37 1.17l.99 6.11.79.92c.09.11.13.25.12.39-.01.14-.08.27-.19.36-.1.08-.22.12-.34.12l.03.02Z"/>
	<path fill="#082029" d="M4.48 18.87c-.13 0-.26-.06-.35-.16l-.89-1.05a.444.444 0 0 1-.1-.22L2.13 11.2a.436.436 0 0 0-.17-.27.439.439 0 0 0-.32-.07c-.24.05-.42.28-.39.52l.83 6.36a.47.47 0 0 1-.4.52.47.47 0 0 1-.52-.4L.33 11.5c-.09-.74.42-1.41 1.14-1.55.36-.07.72 0 1.02.22.29.21.49.52.55.88l.99 6.11.81.96c.16.2.14.49-.06.65-.09.07-.19.11-.3.11v-.01ZM25.19 18.24c-.12 0-.23-.04-.33-.11a.545.545 0 0 1-.2-.35c-.02-.14.02-.28.11-.39l.66-.85.92-5.37c.07-.41.3-.76.63-.99.25-.17.55-.26.86-.26.1 0 .2 0 .31.03l.97.19c.29.06.47.34.42.62-.05.25-.27.43-.52.43h-.1l-.98-.19s-.07-.01-.1-.01c-.09 0-.18.03-.26.08a.44.44 0 0 0-.19.3l-.96 5.51c-.02.08-.05.16-.1.23l-.74.94c-.1.13-.25.2-.42.2l.02-.01Z"/>
	<path fill="#082029" d="M25.19 18.18c-.1 0-.2-.03-.28-.1a.463.463 0 0 1-.08-.65l.66-.85.94-5.4c.07-.39.28-.72.61-.94.32-.22.72-.3 1.11-.22l.97.19c.25.05.41.29.36.54-.05.25-.29.41-.54.36l-.97-.19a.526.526 0 0 0-.63.42l-.96 5.51c-.01.07-.04.14-.09.2l-.73.94a.46.46 0 0 1-.37.18v.01Z"/>
	<path fill="#082029" d="M23.74 17.62a.54.54 0 0 1-.44-.84l.67-.94c.11-.64.23-1.36.35-2.11.12-.72.23-1.43.36-2.16a1.512 1.512 0 0 1 1.49-1.26c.1 0 .2.01.31.03l.53.1c.29.06.47.34.42.62-.05.25-.27.43-.53.43h-.09l-.53-.1s-.07-.01-.1-.01c-.1 0-.19.03-.26.08a.44.44 0 0 0-.19.3c-.13.72-.24 1.42-.35 2.09-.14.86-.26 1.61-.39 2.32-.01.07-.04.15-.09.21l-.73 1.03c-.1.14-.26.22-.43.22v-.01Z"/>
	<path fill="#082029" d="M23.74 17.56a.46.46 0 0 1-.27-.09.465.465 0 0 1-.11-.65l.67-.94c.12-.67.24-1.39.36-2.14.11-.69.23-1.41.36-2.16a1.428 1.428 0 0 1 1.71-1.16l.53.1c.25.05.41.29.36.54-.05.25-.3.41-.54.36l-.53-.1c-.14-.03-.29 0-.41.08-.11.08-.19.2-.22.34-.13.74-.25 1.46-.36 2.15-.13.8-.25 1.56-.38 2.26a.37.37 0 0 1-.08.18l-.73 1.03c-.09.13-.23.19-.38.19l.02.01ZM21.91 30.78c-.29 0-.53-.24-.53-.53v-3.66c0-.08.02-.15.05-.22.5-1.08 1.62-1.79 3.42-2.17l.47-.1c1.01-.2 2.04-.41 2.74-1.04.42-.38.72-.93.96-1.41.51-1 .94-2.04 1.3-3.11.02-.07 0-.13-.05-.18a.168.168 0 0 0-.12-.05c-.03 0-.05 0-.08.02-.69.33-1.2.79-1.42 1.28l-.12.29c-.26.62-.65 1.54-1.74 1.54-.14 0-.28-.02-.45-.05a2.24 2.24 0 0 1-.6-.21c-.52-.24-1.11-.36-1.7-.36-1.09 0-2.15.4-2.92 1.1-.1.09-.22.14-.36.14-.15 0-.29-.06-.39-.17a.575.575 0 0 1-.14-.38c0-.14.07-.27.17-.37.96-.87 2.29-1.37 3.64-1.37.75 0 1.49.16 2.14.45.14.06.26.11.36.13.08.02.16.03.23.03.34 0 .49-.21.77-.9l.14-.32c.42-.92 1.28-1.48 1.93-1.79a1.253 1.253 0 0 1 1.36.19c.38.33.51.84.35 1.32-.38 1.11-.83 2.2-1.36 3.25-.29.57-.64 1.21-1.19 1.72-.91.83-2.09 1.07-3.24 1.3l-.46.09c-1.4.3-2.27.79-2.64 1.5v3.53c0 .29-.23.53-.52.53v-.02Z"/>
	<path fill="#082029" d="M21.91 30.71c-.26 0-.46-.21-.46-.46v-3.67c0-.07.01-.13.04-.19.49-1.06 1.59-1.76 3.38-2.14l.47-.1c1.01-.2 2.06-.41 2.77-1.06.43-.39.73-.94.98-1.43.51-1 .95-2.05 1.31-3.12.04-.13-.02-.22-.07-.25-.04-.03-.14-.1-.27-.04-.71.34-1.22.8-1.45 1.31l-.12.29c-.29.69-.72 1.73-2.11 1.46-.21-.04-.4-.12-.58-.2-1.52-.69-3.45-.38-4.69.75a.459.459 0 1 1-.62-.68c1.51-1.38 3.86-1.75 5.7-.91.14.07.26.11.38.14.59.12.75-.14 1.08-.91l.14-.32c.41-.89 1.26-1.45 1.89-1.75.43-.21.94-.14 1.29.18.36.32.48.79.33 1.24-.37 1.11-.83 2.2-1.36 3.24-.28.56-.63 1.2-1.18 1.7-.9.82-2.07 1.05-3.21 1.28l-.46.09c-1.42.3-2.3.8-2.69 1.53v3.56c0 .26-.21.46-.46.46h-.03Z"/>
	<path fill="#082029" d="M17.17 30.96c-.29 0-.53-.24-.53-.53v-6.8c.11-1.22.55-2.52 1.21-3.58 1.21-1.94 3.03-2.35 4.49-2.67l.48-.11s.08-.01.12-.01a.535.535 0 0 1 .46.81c-.07.12-.19.2-.33.24l-.49.11c-1.4.31-2.85.64-3.82 2.2-.57.92-.96 2.04-1.05 3.07v6.75c0 .29-.24.53-.53.53l-.01-.01Z"/>
	<path fill="#082029" d="M17.17 30.89c-.26 0-.46-.21-.46-.46v-6.8c.11-1.22.55-2.5 1.2-3.54 1.2-1.91 3-2.32 4.45-2.64l.48-.11c.25-.06.5.09.56.34.06.25-.09.5-.34.56l-.49.11c-1.41.32-2.87.64-3.87 2.23-.58.93-.97 2.05-1.06 3.09v6.76c0 .26-.21.46-.46.46h-.01ZM26.91 18.94c-.12 0-.25-.04-.34-.12a.535.535 0 0 1-.06-.75l.81-.96.97-6.08c.06-.38.27-.7.58-.92.24-.17.52-.25.81-.25.09 0 .18 0 .26.02.76.14 1.28.85 1.2 1.61l-.83 6.37c-.03.26-.26.46-.52.46h-.07a.519.519 0 0 1-.35-.21.544.544 0 0 1-.11-.39l.83-6.36a.42.42 0 0 0-.34-.44h-.07a.36.36 0 0 0-.2.06c-.07.05-.12.13-.14.22l-1.01 6.24c-.02.09-.06.18-.12.26l-.89 1.05c-.1.12-.25.19-.41.19Z"/>
	<path fill="#082029" d="M26.91 18.87c-.11 0-.21-.04-.3-.11a.46.46 0 0 1-.06-.65l.81-.96.99-6.11c.06-.36.25-.67.55-.88.3-.21.66-.28 1.02-.22.72.13 1.23.81 1.14 1.54l-.83 6.37c-.03.25-.26.43-.52.4a.47.47 0 0 1-.4-.52l.83-6.36c.03-.24-.15-.47-.39-.52-.11-.02-.23 0-.32.07-.09.06-.15.16-.17.27l-1.01 6.24c-.01.08-.05.16-.1.22l-.89 1.05c-.09.11-.22.16-.35.16v.01Z"/>
</svg>