<svg viewBox="0 0 27 25" xmlns="http://www.w3.org/2000/svg"><path fill-rule="evenodd" clip-rule="evenodd" d="M23.1125 5.98898L14.8799 1.23595C14.6126 1.0814 14.309 1 14 1C13.691 1 13.3874 1.0814 13.1201 1.23595L4.88754 5.98898C4.61711 6.14589 4.39278 6.37089 4.23701 6.64145C4.08125 6.91201 3.99951 7.21863 4 7.53059V17.0191C3.99955 17.331 4.08129 17.6376 4.23706 17.9081C4.39282 18.1786 4.61714 18.4036 4.88754 18.5605L13.1201 23.3135C13.3874 23.4681 13.691 23.5495 14 23.5495C14.309 23.5495 14.6126 23.4681 14.8799 23.3135L23.1125 18.5605C23.3829 18.4036 23.6072 18.1786 23.7629 17.9081C23.9187 17.6376 24.0005 17.331 24 17.0191V7.53059C24.0005 7.21863 23.9188 6.91201 23.763 6.64145C23.6072 6.37089 23.3829 6.14589 23.1125 5.98898ZM11.3436 16.7433C10.5421 16.5637 10.3188 16.3665 10.3188 15.5594V15.3621C10.3188 14.5548 10.5236 14.3036 11.3436 14.5189C11.8094 14.6444 12.5547 14.806 13.878 14.806C14.9587 14.806 15.3128 14.6982 15.3128 14.2857C15.3128 13.9629 15.0891 13.8371 14.1388 13.4605L12.4059 12.7609C11.2132 12.2768 10.4677 11.6847 10.4677 10.2137C10.4677 8.47346 11.5113 7.57686 14.2689 7.57686C15.3525 7.57686 15.9815 7.72857 16.2227 7.78675C16.2304 7.78859 16.2376 7.79035 16.2445 7.792C17.0643 7.97142 17.2693 8.1688 17.2693 8.97586V9.15529C17.2693 9.96254 17.0456 10.1599 16.2258 9.96254C15.8345 9.87282 15.2568 9.74741 14.232 9.74741C13.1138 9.74741 12.8532 9.90871 12.8532 10.2315C12.8532 10.5186 13.0578 10.6262 13.617 10.8417L15.5551 11.577C16.9335 12.0972 17.6979 12.7609 17.6979 14.2679C17.6979 16.0977 16.5799 16.9764 13.6914 16.9764C12.5734 16.9764 11.7161 16.833 11.3436 16.7433Z" fill="#006FDB"/></svg>
