<svg xmlns="http://www.w3.org/2000/svg" viewBox="0 0 27 11"><path fill="#1F70C1" d="M0 10.23h5.25V11H0v-.77Zm0-1.46h5.25v.77H0v-.77Zm1.5-1.46h2.25v.77H1.5V7.3Zm0-1.46h2.25v.76H1.5v-.76Zm0-1.46h2.25v.76H1.5V4.4Zm0-1.47h2.25v.77H1.5v-.77Zm3.75-1.46H0v.77h5.25v-.77Zm0-1.46H0v.77h5.25V0ZM6 9.54h8.07c.14-.24.24-.5.3-.77H6v.77Zm7.44-3.7H7.5v.77h6.57a3.05 3.05 0 0 0-.63-.76ZM7.5 4.4v.76h5.94c.25-.21.47-.47.63-.76H7.5Zm6.57-2.93H6v.77h8.37a3.35 3.35 0 0 0-.3-.77ZM11.6 0h-5.6v.77h7.53A2.81 2.81 0 0 0 11.59 0ZM9.75 2.92H7.5v.77h2.25v-.77ZM12 3.7h2.35c.07-.25.1-.5.1-.77H12v.77ZM7.5 7.3h2.25v.77H7.5V7.3Zm4.5 0v.77h2.46c0-.27-.04-.53-.1-.77H12Zm-6 3.68 5.59.01c.75 0 1.43-.3 1.93-.77H6V11Zm9-.76h3.75V11H15v-.77Zm0-1.46h3.75v.77H15v-.77Zm1.5-1.46h2.25v.77H16.5V7.3Zm0-1.46h2.25v.76H16.5v-.76Zm3.3-4.39H15v.77h5.05l-.26-.77ZM19.3 0H15v.77h4.55L19.3 0Zm3.95 10.23H27V11h-3.75v-.77Zm0-1.46H27v.77h-3.75v-.77Zm0-1.46h2.25v.77h-2.25V7.3Zm0-1.46h2.25v.76h-2.25v-.76Zm0-.7h2.25V4.4h-4.29L21 5l-.21-.62h-4.3v.76h2.26v-.7l.24.7H23l.24-.7v.7Zm2.25-2.23h-3.8l-.25.77h4.05v-.77ZM22.7 0l-.26.77H27V0h-4.3ZM21 11l.26-.77h-.52L21 11Zm-.5-1.46h1l.26-.77h-1.52l.26.77ZM20 8.08h2l.27-.77h-2.54l.27.76Zm-.5-1.47h3l.26-.76h-3.53l.26.76Zm-3-2.92h4.05l-.26-.77h-3.8v.77Zm5.45-1.46H27v-.77h-4.8l-.25.77Z"/></svg>