<svg xmlns="http://www.w3.org/2000/svg" viewBox="0 0 107.1 51.7">
  <path fill="#000" d="m68.3.2 26 .1c6.2.2 10 3.3 11.3 8.4 1.5 6.7-.3 11.9-6 15.7 6.2 2.5 7.7 8.1 7.5 14.2a12.4 12.4 0 0 1-6.1 10.5 17.5 17.5 0 0 1-8.9 2.6H68.3V.2ZM77.8 44h13.7c4.2-.1 5.8-1.8 6.1-5.8.4-6-1-8.6-5.3-9l-2.5-.1h-12V44Zm.1-23h13.3c3.5-.3 5-2.3 5-6.1.2-4.1-.8-7-4-7.2-1.3-.2-14.3 0-14.3 0V21ZM57 0H43.9L15.1 51.7h11.4l6.9-12.4h19l1 12.4h11.8L57 0ZM38 29.7l10.4-19.1L51 29.7H38Z"/>
  <path fill="#ed1c24" d="m21.5 15.7-2.4 4.4L11 6.2h16.1l-2 3.1h7.3L38.1 0H0l19.1 33 9.7-17.3h-7.3z"/>
</svg>