<svg xmlns="http://www.w3.org/2000/svg" viewBox="0 0 27 25"><path fill-rule="evenodd" clip-rule="evenodd" d="M22.9792 12.4936C22.9792 17.7368 18.7306 21.9872 13.4896 21.9872C8.24865 21.9872 4 17.7368 4 12.4936C4 7.25043 8.24865 3 13.4896 3C18.7306 3 22.9792 7.25043 22.9792 12.4936ZM18.7759 15.3747C19.7718 14.7706 20.7654 14.6256 21.8508 15.0583C22.0851 15.1519 22.3157 15.2566 22.5355 15.3624C22.3852 15.8337 22.1987 16.2978 21.9802 16.7334C21.7399 16.6153 21.4884 16.498 21.2312 16.4219C20.8607 16.3126 20.4802 16.3068 20.1126 16.4301C19.7884 16.5388 19.4964 16.7233 19.2083 16.9053C19.1785 16.9241 19.1487 16.943 19.119 16.9617L19.118 16.9623C18.5203 17.3381 17.8432 17.7639 16.9816 17.7639C15.7039 17.7639 14.8068 17.0008 14.5204 15.67C14.2989 14.6385 13.4888 10.7475 13.4888 10.7475C13.1726 12.3357 12.6805 14.6385 12.4584 15.67C12.172 17.0008 11.2754 17.7639 9.99775 17.7639C9.13614 17.7639 8.45902 17.3381 7.86136 16.9623L7.86035 16.9617C7.83058 16.943 7.80079 16.9241 7.77097 16.9053C7.48287 16.7233 7.19089 16.5388 6.86675 16.4301C6.49854 16.3068 6.11863 16.3126 5.74808 16.4219C5.49092 16.498 5.23899 16.6152 4.99877 16.7333C4.78077 16.2976 4.59378 15.8338 4.44357 15.3625C4.66333 15.2566 4.89417 15.1519 5.12854 15.0583C6.21332 14.6256 7.2075 14.7706 8.20285 15.3747C8.20285 15.3747 8.56639 15.5963 8.6751 15.6647L8.68188 15.669C9.14343 15.9586 9.57898 16.2319 9.99775 16.2319C10.3993 16.2319 10.7944 16.1243 10.9615 15.3472C11.2222 14.135 11.8581 11.1563 12.1357 9.68096C12.2988 8.81377 12.3882 8.34656 12.4812 8.02904C12.6436 7.47411 12.9411 7.17063 13.3619 7.12034C13.3619 7.12034 13.4356 7.10981 13.4894 7.10981C13.5437 7.10981 13.6103 7.11917 13.6103 7.11917C14.0353 7.1677 14.3345 7.47119 14.4982 8.02904C14.5911 8.34656 14.6805 8.81377 14.8436 9.68096C15.1212 11.1563 15.7571 14.135 16.0178 15.3472C16.1849 16.1243 16.58 16.2319 16.9816 16.2319C17.4003 16.2319 17.8359 15.9586 18.2974 15.669L18.3042 15.6647C18.4129 15.5963 18.7759 15.3747 18.7759 15.3747Z" fill="#D00030"/></svg>