<svg xmlns="http://www.w3.org/2000/svg" viewBox="0 0 19 26">
	<path fill="#082029" d="M2.2 12.52C2.2 5.98 7.2.61 13.6.05A12.5 12.5 0 0 0 0 12.52 12.5 12.5 0 0 0 13.6 25 12.5 12.5 0 0 1 2.2 12.52Z"/>
	<path fill="#082029" d="M14.38 8.13c-.15.01-.25-.03-.25-.13s-.09-.47-.33-.55l-.09-.03v.01l-.08-.02a.57.57 0 0 0-.1-.03c-.05 0-.1-.02-.14-.03a6.9 6.9 0 0 0-.27-.05l-.14-.03a4.76 4.76 0 0 0-.36-.06l-.12-.02a1.62 1.62 0 0 0-.2-.02H12.23l-.3-.02.03-.01h-.11s.02-.48.07-.83c.04-.17.11-.33.22-.46l.03-.01-.02-.01a.3.3 0 0 0-.13-.02.73.73 0 0 0-.39.05c-.34.11-1.14.73-1.68 1.11-.4.31-.81.57-1.26.78h.02v.01l.26.1a60.5 60.5 0 0 1-1.49.88l-.08.05h.02l.18.07c-.43.32-.84.68-1.22 1.06l.03.15a6.8 6.8 0 0 0-.93 1.15h.03l-.02.01c.6-.23 1.2-.42 1.81-.57a5.4 5.4 0 0 0-1.82 1.89v.01a5.13 5.13 0 0 0-.89 2.77c.01 1.18.32 2.33.9 3.34v-.03l.07.11c-.14-1.2-.38-2.08-.2-3.18v-.03l.03-.16.04-.2.05-.19.02-.06.05-.17v.07a7.84 7.84 0 0 0 2.68 6.78c2.46 1.73 4.43 2.32 7.61 2.45h.04c.23.04.48.06.72.04h.06-.01.01l-.08-.02h.04c-2.3-.48-3.71-2.44-4.57-3.57l.14-.08h-.01v-.02c-.34-.44-.65-.9-.91-1.4 0-.02-.02-.03-.03-.05l-.01-.02v-.02l-.03-.06-.02-.04-.03-.04-.03-.07-.03-.1.24-.04a8.77 8.77 0 0 1-.32-.85l-.04-.13a9.27 9.27 0 0 1-.22-.85v-.22h.2c-.05-.7-.04-1.4.04-2.1l.2.08.1-.44.08-.31.09-.27c.05-.15.1-.3.17-.43l.02.01v-.03l.11.06v.01h.04c.19-.32.47-.57.8-.7h.01l.06.03c.05.01.15.01.35-.05l.1-.06.11-.05a6.1 6.1 0 0 1 2-.55c.21.07.44.12.66.14 1.03-.03 1.22-.43 1.19-.61 0-.03-.05-.08-.1-.13-.04-.06-.13-.13-.13-.13a.39.39 0 0 0-.16-.36l-.03.04a.77.77 0 0 1-.45.34.18.18 0 0 1-.05-.04c-.39-.52-2.04.02-2.46.14-.03-.08.02-.23.12-.45l.07-.15c.08-.12.19-.26.37-.39l.08-.04.09-.02c.03-.01.07-.03.11-.03l.1-.02.12-.03h.06l.66-.06a.7.7 0 0 0 .08 0h.08c.29.04.26.08.26.08s.02-.02.2-.04h.07c.07 0 .14.03.19.1l.1-.07.02-.02a.2.2 0 0 1 .11.03c.11.06.2.33.2.33a1 1 0 0 0 .2-.37l.09-.04.06-.14a.64.64 0 0 0 .27-.2l.28-.26-.04.02.12-.13.1-.1.18-.22.1-.16h.02c.08-.14.12-.3.14-.46h-.02l.01-.03-1.64-.2-.08-.01L16.4 8h-.48l-.24.02h-.06l-.56.04h-.02l-.55.05-.12.02h.02Zm-.85.16v.03c-.02.1-.2.27-.2.27.14-.05.28-.11.4-.2v.06h.02c0 .09-.05.17-.12.2l-.03.01h-.04a1.9 1.9 0 0 0-1.1.18 4.53 4.53 0 0 1 .83-.44h.02-.09l.06-.02-.53.04c.21-.2.48-.3.76-.3v.17h.02Z"/>
	<path fill="#082029" d="M14.45 13.07h.01Zm0 0h-.08a.3.3 0 0 1 .08 0Zm-.3.05.08-.03-.12.05.05-.02Zm3.54 1.3-.03.01a10.3 10.3 0 0 0-1.42.2 3.7 3.7 0 0 0-.1.03h-.07a.07.07 0 0 1-.04-.03.09.09 0 0 1-.01-.06v-.06c0-.01 0-.03-.02-.04v-.04l-.02-.03v-.01l-.01-.02-.02-.04c-.04-.1-.13-.26-.27-.3a4.5 4.5 0 0 0-.75-.02 3.71 3.71 0 0 0-.55 0h-.02l-.08-.02v-.06c0-.12 0-.44.03-.55v.05a.78.78 0 0 1 .12-.3l.06-.05h-.02l-.01-.01c-.04-.03-.14-.06-.32.01-.22.14-.44.3-.66.46l-.06.05c-.59.44-1.11.89-1.11.89l-.2.12.04.01-.03.02.18.05h.02l-.3.2a44.85 44.85 0 0 0-.32.21l-.04.2c-.17.82-.23 2.59 1.15 5.36.42-.73.94-1.46.94-1.46l.17-.13c0-.28.33-.56.5-.69l.06-.01.03-.01.06.03.02-.04.03-.02-.02.04h.02l.02-.05a15.38 15.38 0 0 1 1.28-.76c.3-.13.72-.25.94-.3l.15-.04.14.03c.11.02.24.04.36.04.6-.06.79-.26.83-.41l.02-.04-.01-.05a.17.17 0 0 0 0-.1c0-.03-.13-.13-.13-.13.01-.1-.04-.2-.12-.27l-.03.07.02-.04v.01l-.02.03-.01.03s-.15.27-.3.22l-.05-.03c-.32-.37-1.56.15-1.81.24h-.03c0-.05 0-.1.02-.15l.04-.12.06-.14v.01c.05-.12.13-.22.22-.3h.03l.01-.02.36-.11h.01l.46-.07.15-.02c.22 0 .2.05.2.05l.14-.04c.07-.02.15 0 .2.06l.06-.06s.02-.03.1 0c.09.04.17.23.17.23l.02-.02.2-.31c.06-.12.32-.4.32-.4H18.01h.05a1.7 1.7 0 0 0 .7-.4s.05-.05.08-.16l.01-.06.01-.06c.02-.07.02-.14.02-.2l-1.2-.09Zm-1.9.47h-.01c0 .09-.06.15-.15.16h-.1c-.21 0-.42.05-.61.15l.1-.08h.02c.07-.06.14-.1.22-.14l.06-.03.11-.06-.26.04-.15.02a.85.85 0 0 1 .57-.3v.14h.2l-.02.06h-.17v.01h-.01v.03h-.01a.66.66 0 0 1-.1.14c.08-.03.16-.08.24-.13l.01-.01.04-.02.02.02Z"/>
	<path fill="#082029" d="M16.05 2.68V2.6l-.02-.06v.01L16 2.5a.24.24 0 0 0-.1-.13l-.02-.02-.06-.03h-.01l-.01-.01-.03-.02h-.02c0-.02 0 0 0 0a6.27 6.27 0 0 0-.68-.3l-.09-.04h-.01.02l-.05-.01a1.25 1.25 0 0 0-.04-.02l.07.02-.09-.03-.04-.02-.03-.01a1.05 1.05 0 0 0-.29-.08h-.1l.17-.54a2 2 0 0 1 .13-.26.42.42 0 0 1 .06-.07l.03-.03-.04.04.02-.02.02-.02.03-.03-.02.02a.34.34 0 0 1 .06-.04h.02V.81c-.03-.02-.12-.06-.33-.04-.51.13-1.01.31-1.5.54-.34.16-.71.29-1.1.37l.2.12-1.37.44.14.08.03.01v.01c-.4.17-.77.37-1.14.6v.1c-.32.21-.63.45-.9.72-2.46 2.08-4 5.75-4.52 7.81l.7-1.05c.53-.74 1.3-1.74 2.2-2.6l.83-.64.35-.27a.7.7 0 0 0 .1-.05h.01c.3-.15.57-.33.83-.53l.18-.12.36-.26.04-.03.7-.34c.39-.16.79-.28 1.2-.37l.21-.05.36-.05a.8.8 0 0 1 .25.01l-.04.3v.11h.02-.02l.02.34v.44l.41.06s.1-.08.26-.17h.02v-.02c.23-.13.55-.3.9-.34h.09-.08.14l.03-.01.15-.03.33-.06.24-.03c.29-.03.58-.03.86 0 .3.07.33.19.68.23.4.07.66.04.8-.03l.06-.03c.1-.07.15-.15.15-.21a.6.6 0 0 0-.08-.16v-.03a.3.3 0 0 0-.03-.26l-.03-.04h-.04l-.03.04h-.02l-.03.04a.7.7 0 0 1-.34.09h-.02a.29.29 0 0 0-.05-.08l-.03-.02A.45.45 0 0 0 17 5.3H17l-.02-.02h-.02a.43.43 0 0 0-.06-.04h-.05l-.07-.03-.06-.02-.07-.01h-.48c-.16-.06-.32-.06-.46-.06h.46c-.4-.02-.79.01-.94.02h-.02c-.02-.05.01-.13.09-.24l.09-.12.03-.04c.1-.12.23-.21.37-.28h.03l.03-.01h.61l.37.06.07.02c.22.09.18.11.18.11a.39.39 0 0 1 .16 0 .2.2 0 0 1 .18.12l.08-.04s.04-.02.11.04c.08.06.1.3.1.3a.76.76 0 0 0 .22-.25l.07-.03.07-.09a.53.53 0 0 0 .2-.08l.23-.15-.06-.01h.02a1.96 1.96 0 0 1-.41-.1l-.12-.05a1.79 1.79 0 0 0 .82-.2h.01l.01-.02a.44.44 0 0 0 .1-.1h-.01v-.01l.03-.05.03-.06h.02l.08-.2-1.2-.45c-.5-.1-1-.19-1.5-.23l-.1-.01h-.06.06c-.15-.02-.19-.08-.16-.13V2.7m-1.35.45.02-.01.27-.1.21-.03.14-.03-.29-.04-.16-.03c.2-.12.44-.16.67-.1l-.02.14h.04l.02.01.03.03.02.01.02.02h-.02L15.63 3 15.6 3h-.03l-.03.03h-.02l-.02.01a.77.77 0 0 1-.15.11c.1 0 .2-.02.29-.06l.06-.02v.04l-.01.03c-.04.07-.11.12-.2.1a1.5 1.5 0 0 0-.87-.04l.09-.03Zm.47 1.95v-.03.05-.02Zm2.25.38Zm-2.25-.35.02.01h-.02Zm2.96-.63h.07-.07Z"/>
</svg>