<svg xmlns="http://www.w3.org/2000/svg" viewBox="0 0 27 26"><path d="M8.0401 25.3333C7.04621 25.3333 6 24.5417 6 23.0111V19.4222C6 17.9972 6.88928 16.3611 8.14473 15.675L13.1142 12.7194L8.14473 9.76389C6.94159 8.97222 6 7.38889 6 5.96389V2.32222C6 0.791667 7.04621 0 8.09242 0C8.5109 0 8.98169 0.105556 9.40017 0.369444L20.5946 7.07222C21.3793 7.54722 21.7977 8.28611 21.7977 9.025C21.7977 9.81667 21.3269 10.5556 20.5946 10.9778L17.9268 12.5611L20.5946 14.1444C21.3793 14.6194 21.85 15.3583 21.85 16.0972C21.85 16.8889 21.3793 17.6278 20.5946 18.05L9.40017 24.9639C8.92938 25.2278 8.5109 25.3333 8.0401 25.3333ZM15.5205 14.1444L9.40017 17.7861C8.92938 18.05 8.45859 18.8944 8.45859 19.4222V22.6417L19.0776 16.3083L15.5205 14.1444ZM8.45859 2.74444V5.96389C8.45859 6.49167 8.92938 7.33611 9.40017 7.6L15.5205 11.2417L19.1299 9.07778L8.45859 2.74444Z" fill="#FF4816"/></svg>