<svg width="121" height="23" viewBox="0 0 121 23" fill="none" xmlns="http://www.w3.org/2000/svg">
<g clip-path="url(#clip0_187_3036)">
<path d="M25.9754 15.5151H13.6132C14.0367 17.8554 15.6904 19.2879 17.6869 19.2879C18.9574 19.2879 20.5506 19.1265 21.7202 17.1291L25.5519 17.9361C24.1201 21.3256 21.2161 22.9598 17.6667 22.9598C13.0687 22.9598 9.33789 19.4695 9.33789 14.3651C9.33789 9.26068 13.0889 5.72998 17.7272 5.72998C22.0631 5.72998 25.7939 9.0791 25.9552 14.0423V15.5151H25.9754ZM13.7342 12.4888H21.5791C21.0346 10.4107 19.4616 9.48261 17.7474 9.48261C16.1139 9.50278 14.2586 10.4712 13.7342 12.4888Z" fill="#3D4952"/>
<path d="M71.8132 22.4956H67.5177V21.1035C66.2068 22.314 64.4322 23 62.1533 23C58.0192 23 54.1875 19.5097 54.1875 14.4053C54.1875 9.30088 58.0192 5.77018 62.1533 5.77018C64.4322 5.77018 66.227 6.45614 67.5177 7.66667V0H71.8132V22.4956ZM67.5177 14.3851C67.5177 11.379 65.1985 9.50263 62.8995 9.50263C60.298 9.50263 58.3418 11.3991 58.3418 14.3851C58.3418 17.3912 60.298 19.2272 62.8995 19.2272C65.2187 19.2272 67.5177 17.3711 67.5177 14.3851Z" fill="#3D4952"/>
<path d="M106.965 6.27441H101.036V9.86565H106.965C108.619 9.86565 109.728 10.5718 109.728 12.206V12.4683H105.049C100.955 12.4683 98.5957 14.5463 98.5957 17.6735C98.5957 20.8613 101.076 22.9797 104.787 22.9797C107.005 22.9797 108.619 22.2332 109.728 21.1639V22.4955H113.842V11.8832C113.842 8.00951 111.119 6.35512 106.965 6.27441ZM109.728 15.9183C109.728 17.9963 107.751 19.57 105.473 19.57C103.819 19.57 102.71 18.7832 102.71 17.5928C102.71 16.4832 103.617 15.7367 104.989 15.7367H109.748V15.9183H109.728Z" fill="#3D4952"/>
<path d="M81.5742 6.27441H75.6452V9.86565H81.5742C83.2279 9.86565 84.3371 10.5718 84.3371 12.206V12.4683H79.6584C75.5646 12.4683 73.2051 14.5463 73.2051 17.6735C73.2051 20.8613 75.6856 22.9797 79.3962 22.9797C81.6146 22.9797 83.2279 22.2332 84.3371 21.1639V22.4955H88.4309V11.8832C88.4309 8.00951 85.7084 6.35512 81.5742 6.27441ZM84.3371 15.9183C84.3371 17.9963 82.3607 19.57 80.0819 19.57C78.4282 19.57 77.3191 18.7832 77.3191 17.5928C77.3191 16.4832 78.2266 15.7367 79.5979 15.7367H84.3572V15.9183H84.3371Z" fill="#3D4952"/>
<path d="M45.8594 6.27441H39.9304V9.86565H45.8594C47.5131 9.86565 48.6222 10.5718 48.6222 12.206V12.4683H43.9436C39.8497 12.4683 37.4902 14.5463 37.4902 17.6735C37.4902 20.8613 39.9707 22.9797 43.6814 22.9797C45.8997 22.9797 47.5131 22.2332 48.6222 21.1639V22.4955H52.7362V11.8832C52.7362 8.00951 50.0137 6.35512 45.8594 6.27441ZM48.6222 15.9183C48.6222 17.9963 46.6459 19.57 44.3671 19.57C42.7134 19.57 41.6042 18.7832 41.6042 17.5928C41.6042 16.4832 42.5117 15.7367 43.8831 15.7367H48.6424V15.9183H48.6222Z" fill="#3D4952"/>
<path d="M37.6315 6.25455C34.9896 6.25455 33.1141 7.30367 31.8033 9.20016V6.23438H27.5078V22.4756H31.8033V17.23C31.8033 12.7107 33.6183 9.86595 37.5911 9.86595H37.7928V6.25455C37.7323 6.25455 37.692 6.25455 37.6315 6.25455Z" fill="#3D4952"/>
<path d="M8.5305 18.5615C7.88517 18.8036 7.1995 18.965 6.67517 18.965C5.24333 18.965 4.2955 18.1177 4.2955 16.1606V9.74485H8.69183V6.23433H4.2955V2.25977H0V9.76503V16.5036C0 20.9624 2.541 22.9799 6.37267 22.9799C7.72383 22.9799 9.03467 22.6975 10.6883 21.7896C9.82117 20.9019 8.99433 19.8124 8.5305 18.5615Z" fill="#3D4952"/>
<path d="M97.2432 18.9247C97.0617 18.9449 96.9003 18.965 96.7591 18.965C95.3273 18.965 94.3795 18.1177 94.3795 16.1606V9.74485H98.8968V6.23433H94.3795V2.25977H90.084V9.76503V16.5036C90.084 20.9624 92.625 22.9799 96.4566 22.9799C97.4045 22.9799 98.2313 22.8387 99.2195 22.4554C97.949 21.5475 97.465 20.0545 97.2432 18.9247Z" fill="#3D4952"/>
<path d="M121 20.0139C121 21.5472 119.831 22.7376 118.177 22.7376C116.543 22.7376 115.354 21.5674 115.354 20.0139C115.354 18.5411 116.523 17.27 118.177 17.27C119.831 17.27 121 18.5612 121 20.0139Z" fill="#F06F37"/>
</g>
<defs>
<clipPath id="clip0_187_3036">
<rect width="121" height="23" fill="white"/>
</clipPath>
</defs>
</svg>
