<svg width="51" height="52" viewBox="0 0 51 52" fill="none" xmlns="http://www.w3.org/2000/svg">
<path d="M22.5686 26.6684L16.3272 27.7256L12.0978 32.3479L12.6657 38.9932L27.8989 30.2528L22.5686 26.6684Z" fill="#FF4D00"/>
<path d="M0.00512123 26.0021L12.6658 38.9935L25.3278 0.0213013L0.00512123 26.0021Z" fill="#FF7D00"/>
<path d="M8.4411 26.0031L27.8982 30.2531L27.3646 20.663L8.4411 26.0031Z" fill="#001AFF"/>
<path d="M50.649 26.0038L41.2679 28.1274L35.0637 32.2586L34.6105 36.4158L37.1291 39.8758L50.649 26.0038Z" fill="#E23400"/>
<path d="M26.6966 1.42813L35.0641 32.2579L50.6494 26.0035L26.6966 1.42813Z" fill="#FF4D00"/>
<path d="M35.0638 32.2585L14.2378 40.6081L25.3278 51.9856L37.1291 39.8758L35.0638 32.2585Z" fill="#FF7D00"/>
</svg>
