<svg width="59" height="52" viewBox="0 0 59 52" fill="none" xmlns="http://www.w3.org/2000/svg">
<g clip-path="url(#clip0_2057_1337)">
<path fill-rule="evenodd" clip-rule="evenodd" d="M45.7716 5.14811C50.5857 8.44305 54.3007 13.0908 56.4395 18.4984C58.582 23.9022 59.0477 29.8212 57.7809 35.4919C56.514 41.1626 53.5741 46.3293 49.3338 50.3284C48.8382 50.8066 48.2606 51.1957 47.6272 51.47C46.9938 51.748 46.3156 51.911 45.6263 51.9481C44.9369 51.9889 44.2439 51.9073 43.5844 51.7035C42.9248 51.5033 42.3063 51.1883 41.7548 50.7695C39.9589 49.4389 37.9617 48.4048 35.8378 47.7081C33.7102 47.0076 31.4894 46.6517 29.25 46.6517C27.0106 46.6517 24.7861 47.0076 22.6622 47.7081C20.5383 48.4048 18.5374 49.4389 16.7414 50.7695C16.1974 51.1846 15.5863 51.5033 14.9305 51.7072C14.2747 51.911 13.5891 51.9963 12.9035 51.9592C12.2179 51.9259 11.5435 51.7702 10.9138 51.4996C10.2841 51.2291 9.70653 50.851 9.20723 50.3803C4.9371 46.3664 1.97484 41.1701 0.70796 35.4623C-0.558919 29.7545 -0.0707982 23.8021 2.10898 18.376C4.28876 12.9463 8.05586 8.29479 12.9259 5.02209C17.7959 1.74939 23.5416 0.00370089 29.4214 0.0185263C35.2639 0.0667087 40.9575 1.85687 45.7716 5.14811ZM34.8988 42.7304C36.6948 42.0188 38.3268 40.9514 39.6943 39.5949C41.0618 38.2346 42.1349 36.615 42.8503 34.8285C43.5657 33.0458 43.9085 31.1333 43.8564 29.2134C43.8564 25.3625 42.3175 21.671 39.5788 18.9468C36.8401 16.2227 33.1252 14.6919 29.25 14.6919C25.3748 14.6919 21.6599 16.2227 18.9212 18.9468C16.1825 21.671 14.6436 25.3625 14.6436 29.2134C14.5915 31.1333 14.9343 33.0458 15.6497 34.8285C16.3651 36.615 17.4382 38.2346 18.8057 39.5949C20.1732 40.9514 21.8052 42.0188 23.5975 42.7304C25.3935 43.4421 27.3161 43.783 29.25 43.7311C31.1801 43.783 33.1028 43.4421 34.8988 42.7304Z" fill="#62D84E"/>
</g>
<defs>
<clipPath id="clip0_2057_1337">
<rect width="58.5" height="52" fill="white"/>
</clipPath>
</defs>
</svg>
