<svg width="63" height="47" viewBox="0 0 63 47" fill="none" xmlns="http://www.w3.org/2000/svg">
<g clip-path="url(#clip0_187_2967)">
<path d="M23.3582 10.3269L19.1852 11.0011L15.3782 12.6615L12.1447 14.6847L9.06758 18.4198L7.32942 20.2513L5.64811 20.8677L5.20366 19.7867L5.98107 18.6707L6.1558 17.0967L6.67629 17.1177L7.24526 17.634L7.09169 16.0306L6.46096 15.6095L6.48064 14.9985L4.98661 15.8392L3.63383 17.4269L3.35156 18.8457L3.93038 19.982L4.46981 21.9122L5.56714 22.429L6.72132 22.3727L7.81595 21.7401L7.08579 25.4235L7.81595 29.5218L7.01221 31.414L4.3795 34.2357L4.84757 35.9214L6.09477 37.8746L8.4462 39.5203L9.6934 39.6904L11.0801 39.7369L10.2149 43.27L13.3964 44.5667L17.36 45.0856L18.7159 44.2039L18.8203 41.8172L20.333 39.3269L20.4374 37.3556L24.0882 37.6151L27.4781 37.304L24.0882 39.3269L24.6621 41.7655L26.8001 45.0856L28.8862 45.9674L30.5553 45.293L31.233 43.9442L34.7275 41.2985L35.4055 41.8688L40.8818 42.0767L41.977 41.1949L42.0811 39.6381L41.7163 38.9641L41.4552 34.7618L39.63 31.1303L39.943 29.522L41.0381 30.0929L44.1153 32.9459L45.6278 33.05L47.2965 32.3753L48.9658 31.1303L49.8 28.4327L54.7027 28.7438L57.6755 27.6029L60.0744 25.3718L61.7956 22.1553L62.2125 18.3684L61.8475 13.9584L60.909 10.0161L59.9701 8.77105L58.6665 8.35588L56.3715 10.8459L54.2853 11.5722L52.4598 8.56322L50.6345 6.90329L49.6435 6.28078L45.6797 3.01232L42.4984 1.30025L39.3169 1.04102L35.6142 1.66352L32.3805 2.85639L30.1379 4.67226L28.3648 6.79949L26.5395 7.31845L23.3578 10.3272" fill="#FFFF00"/>
<path d="M11.2585 19.6896C7.6847 23.8361 8.4786 28.8646 9.46913 33.792C8.94065 32.4636 8.41204 31.1352 7.8833 29.8068L7.29883 26.1528C7.35445 24.9073 7.40982 23.6618 7.46593 22.4166L8.96808 18.8463L11.2218 15.5249L14.7277 12.6193L18.5672 11.0416L23.0749 10.4604L18.9012 15.193C15.5499 16.274 13.574 17.0025 11.2582 19.6896" fill="#FFFFCC"/>
<path d="M28.083 7.05594C25.5987 9.46714 24.2415 11.2859 22.6601 14.1091C21.5293 16.1287 20.2607 18.074 19.0713 20.0654C18.4701 21.0734 18.4133 21.9185 18.2334 23.081L16.4805 21.0051C16.759 20.1748 17.0371 19.3445 17.3152 18.5144L20.1534 13.4497L26.1635 7.55433C26.8034 7.38812 27.4432 7.2224 28.083 7.05594ZM40.3535 1.07812C38.3634 1.82009 35.0588 2.06464 34.8295 4.3363C34.6663 5.94997 34.9518 6.76072 35.9295 8.4679C33.5146 5.98204 32.9173 6.3666 28.2501 7.13917L30.2533 4.31623L33.7592 2.15717L38.2669 1.16086L40.3535 1.07812Z" fill="#FFFFCC"/>
<path d="M45.8449 31.8097C46.5073 32.2165 46.4931 32.5112 46.3823 32.7901C46.9048 32.582 47.4275 32.3739 47.9499 32.1666L48.9658 30.8097L49.7196 28.8768L48.7561 28.1564L44.5455 28.691C44.4416 28.973 44.3368 29.2553 44.2322 29.5378C44.262 29.9385 44.2922 30.3397 44.3218 30.7404C44.4561 30.9784 44.5908 31.2158 44.7254 31.4535C44.9343 31.5573 45.143 31.6616 45.3522 31.7654C45.5168 31.7801 45.6807 31.7952 45.8449 31.8097ZM45.4531 24.6473C43.3423 25.2532 43.3588 25.4201 42.7357 27.5031C43.5584 26.19 44.1675 25.5273 45.4531 24.6473ZM59.4863 9.06119C59.1113 9.23377 58.7456 9.31651 58.5113 9.65799C58.0063 10.3929 57.5737 11.011 56.7387 11.5267C56.3181 11.7867 55.8833 11.9551 55.4373 12.0934C55.0675 12.2077 54.845 12.1054 54.5302 12.3309C54.7173 12.3627 54.9041 12.3955 55.0908 12.4281H56.3262L57.8493 11.4927L58.7451 10.5569L59.4863 9.06119ZM25.867 13.7201C25.0369 15.9802 24.3112 17.9175 23.0536 19.9635C24.665 18.2362 25.6423 16.768 26.5654 14.8153C26.9242 14.0564 26.9919 13.1663 27.9908 13.4973C28.0355 14.2552 28.1965 15.0121 28.2413 15.7695C28.781 11.9218 30.3028 10.3123 33.8404 8.81885L30.8393 9.17551L28.0171 9.79924L26.6286 11.8041L25.867 13.7201ZM32.7204 13.631C33.4833 17.2025 34.5819 20.6305 35.0591 24.2588C35.3689 26.6164 35.4026 27.7491 34.2103 29.7833C32.907 29.6993 32.0978 29.8455 30.8371 30.2565C25.8185 31.8929 22.9399 34.2992 19.5586 29.4509L22.7972 30.9691C23.5667 30.8185 24.3363 30.6685 25.1055 30.5174C26.4645 29.7307 27.8232 28.9434 29.1821 28.1564L32.3621 27.5322L33.3925 23.2554L32.6308 17.5966C32.6013 16.7055 32.5713 15.8145 32.5413 14.9235C32.6013 14.4926 32.6611 14.0615 32.7204 13.631ZM41.3655 35.7308C40.9439 38.6325 42.3363 40.1923 41.7597 40.9938C41.5965 41.2204 41.3753 41.6165 41.1285 41.7252C40.2462 42.1127 39.0332 41.6525 38.9468 41.8794H36.0353L34.8708 41.3894L36.6624 39.2952C37.2446 38.033 37.8271 36.7704 38.4091 35.5077L39.5289 31.6763H40.1114L41.3655 35.7308Z" fill="#CCCC00"/>
<path d="M36.4715 27.2948C36.708 28.6123 37.1188 28.9254 37.7419 30.2008C37.3272 32.2815 36.661 34.7556 35.8593 36.5915C35.5211 37.3658 35.2485 37.7927 34.6519 38.391C33.6454 39.402 32.6283 40.2823 31.4872 41.1586C30.6652 41.7885 30.0918 41.4727 29.0781 41.33C28.647 42.1072 28.5281 42.5392 27.7345 42.9338C26.5143 43.5404 25.4224 42.233 24.4646 41.4634C25.1562 42.538 25.8477 43.6119 26.5387 44.6863C27.0166 45.1318 27.4945 45.5771 27.9722 46.0229L29.1818 46.2013L30.7939 45.2207C31.0779 44.6863 31.3614 44.1514 31.6452 43.6171C32.2424 43.1715 32.8399 42.726 33.4367 42.28C34.1686 41.6565 34.9002 41.0325 35.6319 40.4088L37.0203 38.4483L38.2742 36.1316C38.8121 34.5277 39.3496 32.9236 39.8873 31.3197C39.9319 30.7107 39.9764 30.1019 40.0215 29.4926C39.3496 29.1959 38.6778 28.8985 38.0057 28.6015C37.513 28.1413 36.9642 27.7553 36.4715 27.2948ZM20.4021 36.5771C22.6627 36.5771 25.0503 36.4522 27.1212 35.5076C27.7069 34.6337 28.2855 33.9194 29.0024 33.1466C28.35 34.3725 28.1452 35.0653 27.9722 36.4434L27.3004 37.4238C25.5981 37.4681 23.8962 37.5127 22.1939 37.5575C21.6412 37.4978 21.089 37.4385 20.5365 37.3793C20.4767 37.3193 20.4171 37.2601 20.3573 37.2008C20.3726 36.9927 20.3874 36.7849 20.4021 36.5771ZM20.0888 35.0178L19.9131 33.4354C19.527 35.7482 19.6198 37.2982 18.5498 39.3699C17.7505 40.2908 16.7663 41.129 15.6392 41.5777C15.7345 42.1456 15.763 42.5006 15.7076 42.917C15.509 44.4151 12.4968 43.7532 11.2575 43.6934L17.2218 45.2209L18.5655 44.6863C18.7151 43.8251 18.8645 42.9632 19.0137 42.102L20.2677 39.7853L20.4917 38.3594L20.0886 35.018M16.7289 21.9628C16.6667 23.0876 16.5936 23.5564 17.0922 24.5493C17.7258 25.8114 18.504 26.9977 19.1926 28.2451L19.4165 25.75C18.521 24.4873 17.6249 23.2252 16.7292 21.963M7.53412 30.4573C7.33995 30.8676 7.14652 31.2783 6.95235 31.6888C7.48589 33.4771 7.9606 34.6097 8.97672 36.1717C8.79953 36.8045 8.66714 37.0814 8.2601 37.5971C7.36579 37.4605 6.57165 37.4209 5.66528 37.4238C6.66566 38.1957 7.66603 38.9685 8.6664 39.7408C9.15908 39.6512 9.652 39.5621 10.1447 39.4732L11.623 38.003L9.51764 34.7502C8.85614 33.3194 8.19513 31.8881 7.53412 30.4573ZM59.4924 8.46962C60.1017 11.1959 60.8877 13.7121 60.8147 16.5047C60.7251 19.9305 60.054 24.2582 56.8626 26.324C53.2889 28.6378 49.0935 27.5433 45.1724 26.5519L49.9654 28.5124C51.4584 28.5868 52.9517 28.6613 54.4448 28.7352C55.4601 28.4383 56.4755 28.1413 57.4904 27.8442C58.2818 27.1906 59.0733 26.5375 59.8647 25.8836L61.6563 22.1412L62.3281 17.8192C62.1492 16.408 61.9696 14.9972 61.7907 13.5863L60.8053 9.39812C60.3677 9.08846 59.9302 8.7788 59.4924 8.46962ZM6.15944 16.5957C4.53719 17.6461 3.89981 18.1073 4.07773 20.0541L4.56254 21.8032L5.24988 22.2658L6.0989 22.5473L7.63502 22.1853C7.89809 21.3743 8.16068 20.5636 8.42326 19.7526L6.24041 20.8184H5.73517C5.54659 20.5301 5.35792 20.2419 5.16916 19.9538L5.8565 18.9484L6.22023 17.0383C6.37526 17.0851 6.5303 17.1323 6.6851 17.1788C6.87385 17.3267 7.06236 17.474 7.25111 17.6212L7.17015 16.616L6.78624 15.9727C6.65827 15.865 6.5303 15.7583 6.40233 15.6508L6.15944 16.5957ZM42.5592 1.25586C43.9993 2.58606 45.7665 3.74196 46.9182 5.36738C47.3639 5.99649 47.859 6.3184 46.9108 7.20723C47.9127 6.92254 48.2853 6.95338 49.0875 7.05008C50.5469 7.22584 51.9147 9.28943 52.0018 10.768C51.9846 10.9063 51.5965 11.2203 50.4681 11.5303C50.446 11.5733 49.8312 11.4465 49.8465 11.4882C49.9639 11.8071 50.1204 11.8561 50.3598 12.0051C50.4115 12.3601 50.445 12.9077 50.6881 13.2959C51.3981 13.2832 52.0921 13.3603 52.7873 13.4972C53.0211 13.8832 52.9862 14.2692 52.9665 14.6555L53.7727 14.5221C53.6984 13.9131 53.6235 13.3043 53.549 12.6952C53.7877 12.2942 54.0264 11.893 54.2656 11.4926L53.2352 9.17536C52.5784 8.55163 51.9216 7.92766 51.2642 7.30393L51.0747 7.29462C50.3359 6.84361 49.597 6.39254 48.8582 5.94142L45.2431 2.99951L42.5592 1.25586ZM44.9849 12.234C44.9089 12.3662 44.7942 12.5772 44.6473 12.7236C45.247 13.2879 45.5431 13.6658 45.7569 14.4641C45.0787 14.7987 44.4009 15.1338 43.7229 15.4682L42.0018 17.1095C41.2465 16.7052 41.0585 16.3948 40.693 15.6237C40.2673 15.736 39.8644 15.844 39.513 15.7155C39.736 15.7172 39.8728 15.6618 40.0958 15.5248L41.1909 14.3931C41.8357 13.9074 42.4804 13.4213 43.1252 12.9358L44.3913 12.5253C44.5525 12.4595 44.8237 12.3001 44.9849 12.234Z" fill="#CCCC00"/>
<path d="M46.8568 14.2467C44.6995 15.4022 42.6338 16.5639 41.5308 18.758C41.5308 15.973 44.342 14.7471 46.8566 14.2465M41.1026 8.76807C39.5008 9.85445 38.3683 12.0468 38.5105 14.1833C37.9888 12.3332 38.1736 10.5852 39.7755 9.30734C40.0462 9.17687 40.3161 9.0459 40.5866 8.91543C40.7586 8.86647 40.9304 8.81751 41.1026 8.76807Z" fill="#CCCC00"/>
<path d="M62.6576 13.8122C62.3672 11.9903 61.8856 10.2216 61.2172 8.94995C61.136 8.79451 61.0124 8.63686 60.8594 8.48656C60.5274 8.16099 60.0359 7.85255 59.5283 7.67899C58.9903 7.49491 58.423 7.45746 57.9727 7.69148C57.8558 7.75267 57.747 7.83101 57.6503 7.92892C57.3587 8.22267 57.1126 8.58007 56.8663 8.93771C56.5924 9.33623 56.3167 9.73671 55.987 10.0165C55.6048 10.3416 55.1266 10.5389 54.6755 10.7191C54.4856 10.2609 54.2574 9.81948 53.9931 9.39939C53.6848 8.91029 53.3336 8.45229 52.9472 7.99428C52.6646 7.65694 52.3442 7.35281 51.9921 7.08782C51.6589 6.83495 51.3178 6.62198 50.9206 6.37474C49.8558 5.71136 48.9489 4.92019 48.0241 4.11287C47.6038 3.74617 47.1793 3.37604 46.7641 3.03554C44.5616 1.22898 42.5072 0.352867 40.3101 0.215539C38.1279 0.0789449 35.8238 0.675257 33.1032 1.81452C31.79 2.36407 30.815 3.01375 29.9655 3.79488C29.1541 4.5415 28.4653 5.40121 27.7081 6.4051C27.2676 6.43618 26.8773 6.50105 26.4788 6.65968C26.0398 6.83446 25.5978 7.11744 25.0682 7.5823C24.6996 7.90581 24.3386 8.23775 23.9854 8.57787C23.6619 8.89011 23.344 9.20814 23.0321 9.53182C20.5554 9.92765 18.5374 10.3646 16.7301 11.0608C14.8819 11.7731 13.2528 12.7528 11.5796 14.2284C10.9208 14.8073 10.3202 15.4487 9.78631 16.1434C9.27738 16.8065 8.8418 17.5037 8.45961 18.2388C8.12493 18.6072 7.7895 18.9791 7.42651 19.3044C7.07263 19.6214 6.69537 19.8885 6.27258 20.0503L6.27282 20.0505C6.02698 20.1448 5.92534 20.1998 5.91427 20.1962C5.90196 20.1893 5.89507 20.1526 5.87784 20.085C6.48496 19.5088 6.58044 18.6621 6.63655 17.8214C6.70939 17.9081 6.77929 18.0148 6.85188 18.1265C6.93211 18.2496 7.0143 18.3766 7.11274 18.5003L7.52495 19.0175L7.66965 18.3722C7.79122 17.8315 7.88228 17.1115 7.74053 16.4873C7.64898 16.0822 7.45998 15.7211 7.13071 15.4653C7.16221 15.3836 7.19198 15.3082 7.22127 15.2338C7.32463 14.9706 7.43119 14.7006 7.5215 14.4455L7.70017 13.94L7.16861 14.0316C6.46133 14.154 4.94146 14.9848 3.87095 16.0895C3.47351 16.5001 3.13168 16.9537 2.90749 17.4295C2.6742 17.9247 2.56961 18.443 2.66017 18.9614C2.73892 19.4148 2.96705 19.8598 3.38122 20.2794C3.45677 20.5822 3.52642 20.8449 3.60098 21.0818C3.68638 21.3513 3.77817 21.5925 3.8931 21.8299C4.20465 22.4742 4.70127 22.8678 5.27614 23.0514C5.73806 23.199 6.24895 23.2064 6.75 23.0972C6.64827 23.6909 6.58693 24.2908 6.56641 24.8927C6.53467 25.7336 6.56568 26.6626 6.6587 27.7406C6.67913 27.9774 6.70989 28.2376 6.74951 28.5206C6.78396 28.7619 6.82481 28.9989 6.86886 29.2341C6.77535 29.4882 6.68109 29.7428 6.58709 29.9969L6.14978 31.1809L5.18755 32.1295C4.88805 32.424 4.58856 32.7192 4.28931 33.0142C4.2647 33.0387 4.16355 33.1351 4.07201 33.223C3.46539 33.8036 3.34529 33.9189 3.51756 34.9407C3.62791 35.5946 3.8425 36.2268 4.15322 36.8134C4.45099 37.3776 4.85065 37.9269 5.36351 38.4385C6.00335 39.0765 7.0522 39.8691 8.15027 40.2843C8.77781 40.5212 9.42455 40.6372 10.0317 40.5403C10.0007 40.6333 9.97063 40.7259 9.93642 40.8194C9.84034 41.0845 9.73361 41.3456 9.6165 41.6022C8.87158 43.2264 9.63619 44.0746 10.8263 44.6144C11.4206 44.8837 12.1271 45.0668 12.7835 45.2371C12.9178 45.2714 13.0522 45.3067 13.2215 45.3522C13.9992 45.5612 15.3431 45.9453 16.5706 46.0224C17.9104 46.1066 19.1187 45.8315 19.4425 44.6354C19.5705 44.1613 19.6451 43.7982 19.6753 43.4426C19.7031 43.1126 19.6926 42.7792 19.6537 42.3665C20.0356 41.5244 20.1975 41.2877 20.4769 40.8816C20.5315 40.8013 20.5977 40.7053 20.6176 40.6749C20.9171 40.2336 21.0574 39.9203 21.1083 39.5675C21.1576 39.227 21.1157 38.8877 21.054 38.3693C21.048 38.3201 21.0392 38.2481 21.0261 38.1529C21.7976 38.2525 22.5744 38.3055 23.3522 38.3115C23.7425 38.3139 24.1326 38.3024 24.5226 38.2821C24.423 38.3328 24.3253 38.3832 24.2185 38.4378L24.0733 38.512C23.0387 39.0412 22.9956 40.0436 23.3195 41.0749C23.6114 42.0049 24.2123 42.9544 24.5893 43.5319C25.3818 44.7468 26.138 45.7752 27.055 46.334C28.0159 46.9198 29.114 46.9889 30.5313 46.2258C31.2523 45.8376 31.4797 45.4418 31.7859 44.9081C31.8796 44.7453 31.983 44.5679 32.0982 44.3928C32.3959 44.1965 33.1374 43.5882 33.8651 42.9897C34.1129 42.786 34.3605 42.5833 34.6398 42.3569C34.8323 42.4977 35.0646 42.5953 35.3454 42.6619C35.7101 42.7488 36.1444 42.788 36.6649 42.8252C37.0545 42.8536 38.3248 42.8526 39.1455 42.8524C39.399 42.8524 39.6094 42.8524 39.7357 42.8531C40.583 42.8582 41.2669 42.8139 41.7837 42.5226C42.3344 42.212 42.661 41.6619 42.7324 40.6754C42.7634 40.2373 42.7693 39.967 42.708 39.6911C42.6509 39.4326 42.5394 39.1984 42.348 38.8557C42.3363 38.4293 42.3249 38.003 42.3135 37.5766C42.3017 37.1245 42.2889 36.6719 42.2771 36.2197C42.2626 35.6866 42.2035 35.2533 42.0947 34.8271C41.9869 34.4039 41.8329 33.9968 41.6267 33.5082C41.4984 33.2004 41.3771 32.8897 41.2629 32.5765L40.9656 32.6847L41.0114 32.6681L41.2629 32.5765V32.5753C41.0857 32.0999 40.911 31.637 40.6664 31.1418C40.6821 31.0463 40.6981 30.9435 40.7136 30.8338L41.1861 31.2867L41.8826 31.9542C42.4137 32.4632 42.8992 32.9261 43.4696 33.2605C44.0595 33.6068 44.7228 33.8078 45.5816 33.7672C46.4809 33.7251 47.4431 33.3483 48.2353 32.767C49.0016 32.2042 49.6166 31.4453 49.8733 30.6054L50.0957 29.8769L50.2734 29.2956C51.5344 29.508 52.8879 29.5766 54.1952 29.4405C55.4566 29.3085 56.6753 28.9891 57.7264 28.4314C59.2713 27.6114 60.4297 26.4036 61.2622 24.9694H61.2627C62.193 23.3665 62.7139 21.4777 62.9118 19.534C63.0705 17.9752 62.9839 15.856 62.6576 13.8122ZM46.3202 26.913C45.5934 26.6697 45.0882 26.3147 44.4498 25.9145C44.6236 26.6937 44.7026 27.5176 44.4713 28.2953C44.1041 29.5296 43.511 31.5486 45.1955 31.9212C45.8366 32.0627 46.1275 32.0424 47.0323 31.5778C46.3 31.7427 45.9306 31.7026 45.4271 31.6096C44.9708 31.5261 44.7289 31.238 44.6014 30.898C44.7609 31.0123 45.0208 31.0745 45.4652 31.1809C46.7139 31.4806 47.9038 30.8823 48.1366 30.0211C48.2719 29.5178 48.249 29.2535 48.5367 28.5676C48.7951 28.6471 49.0621 28.7193 49.3363 28.7854L48.8721 30.2906C48.471 31.5929 46.9071 32.6431 45.5265 32.6189C44.2503 32.5966 43.4409 31.8013 42.5596 31.0216C41.9527 30.484 41.3685 29.9702 40.7897 29.461C39.2012 28.9624 37.9279 28.3798 36.4535 27.2941C37.5029 28.5206 38.2143 29.1996 39.6776 29.8099C39.465 31.9689 38.7104 33.5434 38.0674 35.6097C37.776 36.5438 35.4782 40.2879 34.8414 40.6529C34.3873 40.9131 31.543 43.2959 31.0082 43.6105C30.6095 44.1368 30.2598 44.8643 29.6606 45.1791C27.8351 46.1394 26.6619 44.3008 25.6795 42.7481C25.2324 42.0406 23.9901 40.003 25.0729 39.4321C26.0967 38.8929 26.6701 38.5076 27.7147 37.8251C27.8683 38.1034 28.1314 38.3722 28.3029 38.65L28.1892 37.7379C28.1203 37.1872 28.1232 36.7399 28.167 36.1857C28.2099 35.6491 28.2522 35.1125 28.2945 34.5757C28.1373 35.1214 27.8233 35.6668 27.6665 36.2119C27.6037 36.4303 27.5518 36.6065 27.5218 36.77C25.178 37.2464 22.8512 37.276 20.5069 36.8601C20.3573 35.9967 20.1752 35.0971 20.0223 34.4521C19.9761 35.1742 20.0058 37.1712 20.0021 38.2895C19.9992 39.1555 19.9628 39.4522 19.5134 40.189C19.0931 40.8789 18.9152 41.0355 18.3263 42.2012C18.3755 42.9368 18.3762 43.4227 18.1798 44.1209C17.8533 45.2814 14.5573 44.3823 13.6881 44.1454C12.6174 43.8541 10.404 43.4208 10.9607 42.001C11.4504 40.7516 11.761 39.4341 12.0004 37.6858C10.0388 34.8749 8.21475 31.0231 7.86456 27.6102C7.59263 24.9603 7.75579 23.3293 8.33214 21.7082C9.24564 19.1399 10.5238 16.9167 12.5743 15.1265C15.3404 12.7122 17.9259 11.7428 21.9746 11.1296C21.001 12.214 20.0378 13.3601 18.988 14.5892C17.9251 15.8335 17.2939 17.0903 16.6189 18.4515C15.6866 20.3313 15.7068 21.0466 16.9425 22.697C18.0073 24.1192 18.5822 24.7593 19.0473 26.151C18.6634 26.9382 18.5236 27.6038 18.3947 28.6787C19.6985 30.0968 20.6676 31.0681 21.9335 31.3672C23.1755 31.661 24.2123 31.6042 25.3237 31.0392C27.7913 29.7844 30.0745 28.1639 32.8581 28.0968C34.1459 24.9478 34.0157 22.3163 33.3975 19.2694C32.9752 17.1884 32.8057 15.2181 32.6745 13.0967C32.1525 15.2815 32.0543 17.2026 32.4417 19.3791C32.9088 22.0015 33.2718 24.8991 31.9729 27.2041C29.4556 27.3957 27.2986 28.9191 25.0301 30.0877C24.1181 30.5577 23.1686 30.6035 22.1594 30.3279C21.2225 30.0718 20.5903 29.4552 19.5811 28.2973C19.5651 27.1348 19.8289 26.5984 20.3656 25.5454C21.2279 23.8546 22.1796 22.2808 23.224 20.6175C21.9453 22.1528 20.7335 23.4357 19.727 24.9796C19.3421 23.8893 18.7919 23.3356 17.8806 22.1077C16.9905 20.9085 16.8974 20.3837 17.5631 18.9957C18.2322 17.6011 18.7997 16.3755 19.9389 15.152C21.9069 13.0377 23.71 10.6848 25.8624 8.60259C27.0311 7.47214 27.5055 7.51106 29.0557 7.27753C30.457 7.06603 31.8247 6.79946 33.2536 6.46948C31.8717 6.5975 30.5359 6.6445 29.1906 6.67755L29.1487 6.67877C30.4727 4.9973 31.2408 4.06024 33.3904 3.13101C38.6834 0.844653 42.0465 0.597414 46.2042 4.0737C47.2819 4.97502 48.223 5.84966 49.3154 6.62688C48.9192 6.66066 48.5778 6.7314 48.1262 6.90765C48.6758 6.80337 49.3104 6.90667 49.8809 7.01047C50.0408 7.11377 50.2057 7.21462 50.3738 7.31327C51.1453 7.7654 51.5831 8.01509 52.1048 8.73796C52.6561 9.50195 53.1158 10.2655 53.5206 11.1071C53.2553 11.0126 53.0326 10.933 52.8343 10.8745C52.6131 10.7736 52.3702 10.7287 52.1274 10.7436C51.8845 10.7586 51.6491 10.833 51.4421 10.9602L51.4101 10.9749C50.9834 11.1817 50.3224 11.4172 49.8801 11.4887C50.1058 11.566 50.6049 11.5952 50.8402 11.5024C50.8717 11.4902 50.9037 11.4804 50.9366 11.4728C50.8275 11.6575 50.7603 11.8637 50.7397 12.0769C50.7122 12.3585 50.767 12.642 50.8975 12.8933L50.8987 12.896C50.9386 12.9895 50.9942 13.0754 51.0552 13.1376C50.8532 13.2118 50.6467 13.2965 50.4339 13.3883C51.4204 13.2389 52.3098 13.2132 53.2723 13.3393C53.3358 13.6411 53.3998 13.9611 53.4593 14.2864L53.1015 14.3143C53.0919 14.315 53.0823 14.3158 53.0727 14.3168C52.6172 13.9547 52.1098 14.0157 51.4165 14.1731C49.308 14.6511 49.8034 15.8279 48.8338 17.6011C49.8408 16.3767 49.766 15.0954 51.4072 14.7087C51.7896 14.6188 52.05 14.506 52.3088 14.5447C51.843 14.7777 51.4401 15.1642 51.2802 15.6129C50.8298 16.8783 51.1094 17.9443 50.6145 19.1262C51.2273 18.0697 51.2644 17.0386 51.8127 15.9268C52.0096 15.5277 52.74 14.8888 53.1884 14.879L53.5575 14.871C53.6658 15.574 53.7315 16.2724 53.6897 16.8516C53.6131 17.9086 53.337 19.4775 53.1719 20.0779C53.7271 19.3678 53.9801 17.864 54.2239 16.8051C54.4779 15.703 54.4137 14.3804 54.1915 13.1961C53.8863 11.5714 55.5686 11.8358 56.5451 11.0701C57.263 10.5071 57.7574 9.60844 58.4154 8.97149C59.0683 8.33993 60.0962 9.26793 60.3529 9.88505C61.4662 12.5648 61.9734 16.7803 61.6796 19.4816C61.3493 22.5126 59.8777 25.8215 57.1901 27.3137C53.764 29.2158 49.7244 28.0537 46.3202 26.913ZM41.4519 40.3751C41.3402 41.6257 40.9211 41.7082 39.8171 41.6891C39.3156 41.6803 37.3183 41.6712 36.8113 41.6279C36.0952 41.5665 35.6931 41.5028 35.4743 41.3403C36.5994 40.5188 38.5111 37.1269 38.8839 35.959C39.2782 34.7253 39.7096 33.6487 40.0305 32.5085C40.1781 32.9851 40.2945 33.4573 40.5094 33.9635C40.8679 34.8095 41.0434 35.3321 41.069 36.2396L41.1502 39.1117C41.4586 39.6483 41.5066 39.7629 41.4519 40.3748V40.3751ZM7.59115 30.9012C8.30556 33.3596 9.52274 35.7754 10.8721 37.8065V37.842C10.7872 38.1913 10.6895 38.5311 10.4845 38.804C9.51978 40.0877 7.06672 38.2035 6.3565 37.4829C5.58032 36.6941 5.06081 35.7608 4.93703 34.8849C4.84696 34.2465 4.93457 34.2308 5.38246 33.7789L7.1942 31.9545L7.59115 30.9012ZM6.22656 15.4401C6.04346 15.831 5.91353 16.1275 5.82518 16.4325C5.44054 17.7539 5.99917 18.9333 4.79306 19.8912C5.35982 21.0285 5.33373 21.4823 6.65205 20.9567C7.16048 20.7536 7.57983 20.4696 7.95438 20.1333C7.77307 20.6018 7.60639 21.0757 7.45457 21.5545C7.42848 21.6353 7.40363 21.7168 7.37975 21.7976C6.43697 22.1956 5.1969 22.4485 4.72243 21.463C4.49209 20.9844 4.36191 20.5149 4.19382 19.9103C2.64122 18.3103 4.96213 16.1977 6.22656 15.4401ZM6.9897 17.135C6.79799 16.9441 6.64467 16.8151 6.39686 16.843C6.41777 16.6814 6.44558 16.5255 6.48471 16.3791C6.5044 16.3037 6.52556 16.2298 6.5482 16.1556C6.8696 16.3419 6.95426 16.6797 6.9897 17.135ZM53.5452 11.1587C53.6038 11.2816 53.6614 11.4067 53.718 11.5332C53.6712 11.5675 53.6267 11.6035 53.5851 11.6414C53.5086 11.4639 53.3982 11.3027 53.26 11.167C53.3525 11.1636 53.4475 11.1607 53.5455 11.1587H53.5452ZM40.3369 31.189H40.3374L40.3371 31.1893L40.3369 31.189ZM0.908472 19.9599C1.15555 17.1774 1.69942 15.976 3.68687 13.8818C1.19394 15.6291 0.571816 16.4234 0.908472 19.9599Z" fill="black"/>
<path d="M0.263839 17.6868C0.538234 16.4345 0.794171 15.9618 1.5706 14.9339C0.310843 15.809 0.146945 16.1684 0.263593 17.6868M29.5121 0.228516C28.0185 0.586646 27.7338 0.861302 27.2859 2.31757C28.0006 1.25126 28.412 0.904385 29.5121 0.228516Z" fill="black"/>
<path d="M31.8685 0.0168464C28.9062 0.738982 28.0358 1.25255 27.0519 4.66764C28.3026 2.16636 29.2495 1.24546 31.8685 0.0166016M38.2482 12.466C38.5639 11.0746 39.125 9.73385 41.2973 8.69642C38.418 9.41366 37.8781 10.6166 38.2482 12.466ZM56.5694 12.5622C58.2746 11.9575 59.0965 10.5938 59.5048 8.98944C58.8374 10.3341 57.8075 11.4587 56.4085 12.1475C55.6576 12.5171 55.178 12.3881 54.3395 12.3091C55.1923 12.5526 55.7324 12.8589 56.5694 12.5622ZM44.9533 13.9257C44.7346 13.4696 44.3446 13.1172 43.8673 12.9443C44.2856 12.7223 44.6964 12.489 45.0168 12.1989C44.0779 12.6312 42.985 12.5257 42.1793 13.0669C41.4698 13.5438 40.4904 15.0546 39.7693 15.6953C40.2915 15.4936 40.7948 15.1447 41.2582 14.7773C41.2607 15.1263 41.3588 15.468 41.5419 15.7657C41.725 16.0634 41.9862 16.3059 42.2974 16.4671C42.0309 16.8144 41.8186 17.1998 41.6679 17.6103C43.0409 15.9917 45.0315 14.7692 46.9033 14.2466C46.3801 14.2392 45.7607 14.3364 45.1297 14.5428C45.1062 14.3287 45.0465 14.1201 44.9533 13.9257ZM42.9779 26.1559C42.9112 26.575 42.8196 27.0959 42.753 27.5153C42.9314 27.0409 43.146 26.4896 43.3534 26.0372C43.5734 25.5584 43.6972 25.5134 44.1641 25.2607C44.4951 25.0816 45.096 24.8353 45.427 24.6561C45.0864 24.7131 44.4761 24.8377 44.1355 24.8948C43.2259 25.0475 43.1189 25.2649 42.9779 26.1559ZM27.44 9.97448C26.3843 11.0124 25.3588 14.5741 25.0312 15.9993C25.5473 14.8155 26.8388 11.5039 27.8296 10.6616C28.1032 10.4288 28.2945 10.2859 28.4999 10.1818C27.7907 11.3649 27.8429 11.6591 28.0917 13.2442C28.3031 11.6327 28.8632 11.0102 29.7823 9.80802C30.7898 9.55662 31.7329 9.25528 32.7665 8.85431C31.6023 8.98523 30.437 9.10551 29.2707 9.21514C28.2917 9.30742 28.1342 9.29176 27.44 9.97448Z" fill="black"/>
<path d="M41.8207 16.0372C41.7285 15.8443 41.717 15.6229 41.7888 15.4215C41.8606 15.2202 42.0098 15.0555 42.2036 14.9635C42.3093 14.9137 42.4245 14.8871 42.5415 14.8856C42.6584 14.8842 42.7743 14.9078 42.8812 14.9549C42.9882 15.0019 43.0836 15.0714 43.1611 15.1586C43.2386 15.2457 43.2963 15.3484 43.3302 15.4597C42.9449 15.7444 42.5917 16.0793 42.2954 16.4675C42.0961 16.3877 41.9194 16.2428 41.8204 16.0372M50.8358 12.568C50.8683 12.2363 51.1526 11.9918 51.486 12.0238C51.6465 12.0396 51.7941 12.1178 51.8967 12.2416C51.9992 12.3653 52.0484 12.5244 52.0333 12.684C52.0264 12.7525 52.0079 12.8193 51.9785 12.8816C51.6733 12.9337 51.3681 13.0223 51.0536 13.1374C50.9222 13.0035 50.8174 12.7592 50.8358 12.568Z" fill="#FFFFCC"/>
</g>
<defs>
<clipPath id="clip0_187_2967">
<rect width="63" height="47" fill="white"/>
</clipPath>
</defs>
</svg>
