<?xml version="1.0" encoding="utf-8"?>
<!-- Generator: Adobe Illustrator 28.0.0, SVG Export Plug-In . SVG Version: 6.00 Build 0)  -->
<svg version="1.1" id="Layer_1" xmlns="http://www.w3.org/2000/svg" xmlns:xlink="http://www.w3.org/1999/xlink" x="0px" y="0px"
	 viewBox="0 0 43 41" style="enable-background:new 0 0 43 41;" xml:space="preserve">
<style type="text/css">
	.st0{fill:#036C70;}
	.st1{fill:#1A9BA1;}
	.st2{fill:#37C6D0;}
	.st3{opacity:0.1;enable-background:new    ;}
	.st4{opacity:0.2;enable-background:new    ;}
	.st5{fill:url(#SVGID_1_);}
	.st6{fill:#FFFFFF;}
</style>
<path class="st0" d="M21.5,23C27.9,23,33,17.9,33,11.5S27.9,0,21.5,0S10,5.1,10,11.5S15.1,23,21.5,23z"/>
<path class="st1" d="M31,33c6.1,0,11-4.7,11-10.5S37.1,12,31,12s-11,4.7-11,10.5S24.9,33,31,33z"/>
<path class="st2" d="M23,41c4.4,0,8-3.8,8-8.5S27.4,24,23,24s-8,3.8-8,8.5S18.6,41,23,41z"/>
<path class="st3" d="M24,10.8v20.5c0,0.7-0.5,1.4-1.1,1.6C22.6,33,22.4,33,22.2,33H15c0-0.2,0-0.3,0-0.5c0-0.2,0-0.3,0-0.5
	c0.2-3.1,2.2-5.8,5.1-7v-1.8c-6.5-1-11-6.9-10-13.2c0,0,0-0.1,0-0.1c0-0.3,0.1-0.6,0.2-1h11.8C23.2,9,24,9.8,24,10.8z"/>
<path class="st4" d="M21.2,10h-11c-1.1,6,3.3,11.7,9.8,12.7c0.2,0,0.4,0.1,0.6,0.1c-3.1,1.4-5.4,5.2-5.6,8.4c0,0.2,0,0.3,0,0.5
	c0,0.2,0,0.3,0,0.5c0,0.3,0.1,0.6,0.1,0.9h6c0.7,0,1.4-0.4,1.7-1c0.1-0.2,0.1-0.4,0.1-0.6V11.7C23,10.8,22.2,10,21.2,10z"/>
<path class="st4" d="M21.2,10h-11c-1.1,6.2,3.3,12.2,9.8,13.2c0.1,0,0.3,0,0.4,0.1c-3,1.5-5.2,5.5-5.4,8.7h6.1c1,0,1.8-0.8,1.8-1.8
	V11.8C23,10.8,22.2,10,21.2,10z"/>
<path class="st4" d="M20.2,10h-10c-1,5.9,2.8,11.6,8.9,13c-2.3,2.5-3.7,5.6-4,9h5.1c1,0,1.8-0.8,1.8-1.8V11.8
	C22,10.8,21.2,10,20.2,10z"/>
<linearGradient id="SVGID_1_" gradientUnits="userSpaceOnUse" x1="4.311" y1="33.6367" x2="17.689" y2="9.3633" gradientTransform="matrix(1 0 0 -1 0 42)">
	<stop  offset="0" style="stop-color:#058F92"/>
	<stop  offset="0.5" style="stop-color:#038489"/>
	<stop  offset="1" style="stop-color:#026D71"/>
</linearGradient>
<path class="st5" d="M1.8,10h18.3c1,0,1.8,0.8,1.8,1.7v17.5c0,1-0.8,1.7-1.8,1.7H1.8c-1,0-1.8-0.8-1.8-1.7V11.7
	C0,10.8,0.8,10,1.8,10z"/>
<path class="st6" d="M7.5,20.3C7,20,6.6,19.6,6.4,19.1c-0.3-0.5-0.4-1-0.4-1.5c0-0.7,0.2-1.4,0.7-2c0.5-0.6,1.1-1,1.9-1.2
	c0.8-0.3,1.7-0.4,2.5-0.4c1.1,0,2.3,0.1,3.3,0.5v2.3c-0.5-0.3-1-0.5-1.5-0.6c-0.6-0.1-1.2-0.2-1.8-0.2c-0.6,0-1.2,0.1-1.8,0.4
	c-0.2,0.1-0.4,0.2-0.5,0.4c-0.1,0.2-0.2,0.4-0.2,0.6c0,0.3,0.1,0.6,0.3,0.8c0.2,0.2,0.5,0.4,0.8,0.6c0.3,0.2,0.9,0.4,1.5,0.7
	c0.1,0,0.1,0.1,0.2,0.1c0.7,0.3,1.3,0.6,1.9,1c0.5,0.3,0.9,0.7,1.1,1.1c0.3,0.5,0.4,1.1,0.4,1.7c0,0.7-0.2,1.5-0.7,2.1
	c-0.5,0.5-1.1,1-1.7,1.2C11.8,26.9,11,27,10.1,27c-0.8,0-1.5-0.1-2.3-0.2c-0.6-0.1-1.2-0.3-1.8-0.5v-2.5c0.6,0.4,1.2,0.7,1.8,0.9
	c0.7,0.2,1.3,0.3,2,0.3c0.6,0,1.3-0.1,1.8-0.4c0.2-0.1,0.4-0.3,0.5-0.5c0.1-0.2,0.2-0.4,0.2-0.6c0-0.2,0-0.3-0.1-0.5
	c-0.1-0.1-0.1-0.3-0.3-0.4c-0.3-0.3-0.6-0.5-1-0.7c-0.4-0.2-1-0.5-1.8-0.8C8.6,21,8,20.6,7.5,20.3z"/>
</svg>
