<?xml version="1.0" encoding="utf-8"?>
<!-- Generator: Adobe Illustrator 28.0.0, SVG Export Plug-In . SVG Version: 6.00 Build 0)  -->
<svg version="1.1" id="Layer_1" xmlns="http://www.w3.org/2000/svg" xmlns:xlink="http://www.w3.org/1999/xlink" x="0px" y="0px"
	 viewBox="0 0 49.5 47.6" style="enable-background:new 0 0 49.5 47.6;" xml:space="preserve">
<style type="text/css">
	.st0{fill:#2CB5E8;}
</style>
<path class="st0" d="M40.4,35.6l-9.5-5.5c-1.3-0.8-3-0.3-3.8,1c-0.3,0.5-0.4,1.1-0.4,1.7v10.7c0,1.5,1.2,2.8,2.8,2.8
	c1.5,0,2.8-1.2,2.8-2.8v-6.2l5.3,3.1c1.3,0.8,3,0.3,3.8-1C42.2,38.1,41.7,36.4,40.4,35.6z"/>
<path class="st0" d="M16.8,23.9c0-1-0.5-1.9-1.4-2.4L5.9,16c-0.4-0.2-0.9-0.4-1.4-0.4c-1,0-1.9,0.5-2.4,1.4c-0.8,1.3-0.3,3,1,3.7
	l5.5,3.2L3.2,27C2.6,27.4,2.1,28,2,28.7c-0.2,0.7-0.1,1.4,0.3,2.1c0.5,0.8,1.4,1.4,2.4,1.4c0.5,0,0.9-0.1,1.4-0.4l9.5-5.5
	C16.3,25.8,16.8,24.9,16.8,23.9z"/>
<path class="st0" d="M8.1,12.1l9.5,5.5c1.1,0.6,2.5,0.4,3.3-0.4c0.6-0.5,0.9-1.2,0.9-2v-11c0-1.5-1.2-2.8-2.8-2.8
	c-1.5,0-2.8,1.2-2.8,2.8v6.2l-5.4-3.1c-1.3-0.8-3-0.3-3.8,1C6.3,9.6,6.8,11.3,8.1,12.1z"/>
<path class="st0" d="M29.4,24.3c0,0.2-0.1,0.5-0.3,0.7l-3.8,3.8C25.3,28.9,25,29,24.8,29h-1c-0.2,0-0.5-0.1-0.7-0.3L19.4,25
	c-0.1-0.2-0.3-0.4-0.3-0.7v-1c0-0.2,0.1-0.5,0.3-0.7l3.8-3.8c0.1-0.1,0.4-0.3,0.7-0.3h1c0.2,0,0.5,0.1,0.7,0.3l3.8,3.8
	c0.1,0.1,0.3,0.4,0.3,0.7V24.3z M26.1,23.9L26.1,23.9c0-0.2-0.1-0.4-0.2-0.5l-1.1-1.1c-0.1-0.1-0.3-0.2-0.5-0.2h0
	c-0.2,0-0.4,0.1-0.5,0.2l-1.1,1.1c-0.1,0.1-0.2,0.3-0.2,0.5v0c0,0.2,0.1,0.4,0.2,0.5l1.1,1.1c0.1,0.1,0.3,0.2,0.5,0.2h0
	c0.2,0,0.4-0.1,0.5-0.2l1.1-1.1C26,24.2,26.1,24,26.1,23.9z"/>
<path class="st0" d="M30.9,17.6l9.5-5.5c1.3-0.8,1.8-2.5,1-3.8c-0.8-1.3-2.5-1.8-3.8-1l-5.3,3.1V4.2c0-1.5-1.2-2.8-2.8-2.8
	c-1.5,0-2.8,1.2-2.8,2.8v10.8c-0.1,0.6,0.1,1.1,0.4,1.7C27.9,17.9,29.6,18.4,30.9,17.6z"/>
<path class="st0" d="M19.5,29.8c-0.6-0.1-1.3,0-1.9,0.3l-9.5,5.5c-1.3,0.8-1.8,2.5-1,3.8c0.8,1.3,2.5,1.8,3.8,1l5.4-3.1v6.2
	c0,1.5,1.2,2.8,2.8,2.8c1.5,0,2.8-1.2,2.8-2.8v-11C21.8,31.2,20.8,30,19.5,29.8z"/>
<path class="st0" d="M46.3,17c-0.8-1.3-2.5-1.8-3.8-1L33,21.4c-0.9,0.5-1.4,1.5-1.4,2.5c0,1,0.5,1.9,1.4,2.4l9.5,5.5
	c1.3,0.8,3,0.3,3.8-1c0.8-1.3,0.3-3-1-3.8l-5.4-3.1l5.4-3.1C46.7,20,47.1,18.3,46.3,17z"/>
</svg>
