<?xml version="1.0" encoding="utf-8"?>
<!-- Generator: Adobe Illustrator 28.0.0, SVG Export Plug-In . SVG Version: 6.00 Build 0)  -->
<svg version="1.1" id="Layer_1" xmlns="http://www.w3.org/2000/svg" xmlns:xlink="http://www.w3.org/1999/xlink" x="0px" y="0px"
	 viewBox="0 0 61.7 34.2" style="enable-background:new 0 0 61.7 34.2;" xml:space="preserve">
<style type="text/css">
	.st0{fill:#0071F7;}
</style>
<path class="st0" d="M60.5,29.9c0.8,1.1,0.6,2.4-0.3,3.2c-1.1,0.8-2.6,0.6-3.4-0.3l-5.3-6.9l-5.2,6.7c-0.8,1.1-2.3,1.1-3.4,0.3
	c-1.1-0.8-1.2-2.1-0.5-3.2l6.1-7.9l-6.1-7.9c-0.8-1.1-0.5-2.6,0.5-3.4C44,9.7,45.5,10,46.3,11l5.2,6.9l5.3-6.6
	c0.8-1.1,2.1-1.2,3.4-0.5c1.1,0.8,1.1,2.3,0.3,3.4L54.5,22L60.5,29.9z M32.7,29c-4,0-7.2-3.1-7.2-7c0-3.8,3.2-7,7.2-7s7.2,3.2,7.2,7
	C39.7,25.9,36.6,29,32.7,29z M11.7,29c-4,0-7.2-3.1-7.2-7c0-3.8,3.2-7,7.2-7c4,0,7.2,3.2,7.2,7C18.9,25.9,15.7,29,11.7,29z
	 M32.7,10.3c-4.4,0-8.4,2.4-10.4,6.1c-2-3.7-5.9-6.1-10.5-6.1c-2.7,0-5.2,0.9-7.2,2.3V2.9c0-1.2-1.1-2.3-2.3-2.3
	C1.1,0.6,0,1.6,0,2.9v19.2c0.2,6.4,5.3,11.4,11.7,11.4c4.6,0,8.5-2.6,10.5-6.3c2,3.7,5.9,6.3,10.4,6.3c6.5,0,11.9-5.2,11.9-11.8
	C44.6,15.5,39.3,10.3,32.7,10.3z"/>
</svg>
