<?xml version="1.0" encoding="utf-8"?>
<!-- Generator: Adobe Illustrator 28.0.0, SVG Export Plug-In . SVG Version: 6.00 Build 0)  -->
<svg version="1.1" id="Layer_1" xmlns="http://www.w3.org/2000/svg" xmlns:xlink="http://www.w3.org/1999/xlink" x="0px" y="0px"
	 viewBox="0 0 40 42.7" style="enable-background:new 0 0 40 42.7;" xml:space="preserve">
<style type="text/css">
	.st0{fill:#EF3E2B;}
</style>
<path class="st0" d="M0.3,11.7v1.3l19.5,10.9l17.5-9.7v4l-17.5,9.8L1.3,17.5l-1,0.5v7.6l19.5,10.9l17.5-9.7v3.9l-17.5,9.8L1.3,30
	l-1,0.5v1.4l19.5,10.9l19.5-10.9v-7.6l-0.9-0.5L19.8,34.2L2.4,24.3v-3.9l17.4,9.7l19.5-10.9v-7.5l-0.9-0.5L19.8,21.7L3.3,12.4
	l16.5-9.3l13.7,7.6l1.2-0.7v-1L19.8,0.7L0.3,11.7z"/>
</svg>
