<?xml version="1.0" encoding="utf-8"?>
<!-- Generator: Adobe Illustrator 28.3.0, SVG Export Plug-In . SVG Version: 6.00 Build 0)  -->
<svg version="1.1" id="Layer_1" xmlns="http://www.w3.org/2000/svg" xmlns:xlink="http://www.w3.org/1999/xlink" x="0px" y="0px"
	 viewBox="0 0 500 500" style="enable-background:new 0 0 500 500;" xml:space="preserve">
<style type="text/css">
	.st0{fill:#6B6B6B;}
	.st1{fill:#BA0000;}
</style>
<g>
	<path class="st0" d="M310,233.3l-100.1,32.8l-87.2,38.5L98.3,311c-6.2,6-12.7,11.9-19.9,17.9c-7.7,6.7-14.9,12.7-20.4,17.1
		c-6.2,5-15.2,13.9-19.9,19.6c-7,8.7-12.4,17.9-14.7,24.8c-4.2,12.7-2.2,25.6,6,37.5c10.2,15.2,30.8,30.6,54.7,41
		c12.2,5.5,32.8,12.2,48.2,16.1c25.6,6.5,75.3,13.7,102.6,14.7c5.5,0.2,12.9,0.2,13.2,0c0.5-0.5,5-8.4,9.7-18.6
		c16.9-34.3,28.8-66.6,35.5-93.9c4-16.6,7-38.8,9.2-65.1c0.5-7.5,0.7-32,0.2-40.2c-0.7-13.7-2-24.6-3.7-35.5c-0.2-1.5-0.5-3-0.2-3
		c0.2-0.2,1.2-0.5,13.7-4L310,233.3L310,233.3L310,233.3L310,233.3z M287.1,246.7c1,0,3.2,23.4,4,38c0.2,3,0,5.2,0,5.2
		c-0.5,0-12.7-7.2-21.6-12.7c-7.5-4.7-21.9-14.4-24.1-16.1c-0.7-0.5-0.7-0.5,5.5-2.7C261.3,254.6,286.1,246.7,287.1,246.7z
		 M235.9,263.6c0.7,0,2.5,1,6.7,3.5c15.7,9.7,36.8,21.6,46,25.6c2.7,1.2,3,0.7-3.2,5.2c-13.7,9.4-31.1,18.6-51.9,27.8
		c-3.7,1.7-6.7,3-7,3c-0.2,0,0.2-2,1-4.2c5-18.9,7.9-38,8.2-53.2C235.2,263.6,235.2,263.6,235.9,263.6L235.9,263.6z M225.5,267.5
		c0.5,0.5,0.2,17.4-0.5,22.1c-1.2,10.9-3.5,21.4-7,33c-0.7,2.7-1.5,5.2-1.7,5.2c-0.2,0.5-10.7-9.7-14.2-13.7
		c-6-6.7-10.4-13.7-13.9-20.4c-1.7-3.5-4.5-10.2-4.2-10.2C185.2,282.7,225.2,267.3,225.5,267.5z M176.1,286.9L176.1,286.9
		c0.5,0.2,1,1.5,1.2,2.7c2.5,6.7,7.9,16.4,12.7,22.4c5.2,6.7,11.9,14.2,17.4,18.9c1.7,1.5,3.5,3,3.7,3.2c0.5,0.5,0.5,0.5-11.7,5
		c-14.4,5.5-29.8,10.9-47.7,16.6c-4.2,1.5-8.4,2.7-12.7,4.2c-0.7,0.2-0.5-0.2,1.5-3.2c8.9-13.9,22.4-41,29.8-60.4
		c1.2-3.2,2.5-6.7,2.7-7.5c0.2-1,0.7-1.5,1.7-2C175.3,287.2,175.8,286.9,176.1,286.9z M160.9,293.1c0.2,0.2-3.7,8.2-7.5,15.7
		c-7.5,14.4-15.4,28.3-26.1,45.5c-1.7,3-3.5,5.7-3.7,6c-0.5,0.5-0.5,0.5-1.7-2c-2.5-5-4.7-11.7-5.7-17.6c-1.2-6-1-16.1,0.5-22.6
		c1-4.7,1-4.7,3.2-5.7C129.1,307.5,160.4,292.9,160.9,293.1z M291.3,298.6v3.2c0,16.9-1.7,40-4.5,56.9c-0.5,3-0.7,5.5-1,5.5
		c0,0-2.2-0.5-4.7-1.2c-11.4-3.5-23.6-8.7-34.8-14.9c-7.5-4-18.1-10.7-17.6-10.9c0,0,3.2-1.7,7-3.7c14.9-7.7,29.1-16.1,41.5-24.3
		c4.7-3,11.7-8.2,13.2-9.4L291.3,298.6z M103.8,321c0.2,0,0.2,0.5-0.2,3.2c-0.2,2-0.7,5.7-0.7,8.2c-0.5,10.9,1.2,19.1,6.7,30.3
		c1.5,3,2.7,5.7,2.7,5.7c-0.5,0.5-50.7,15.2-66.3,19.4c-4.7,1.2-8.7,2.5-9.2,2.5c-0.5,0.2-0.5,0-0.5-1.2c1.7-11.2,10.2-25.6,22.1-38
		c7.9-8.2,14.2-12.9,24.8-19.1C90.8,327.9,102.5,321.2,103.8,321C103.5,321,103.5,321,103.8,321z M221.8,342.1c0,0,2,1,4,2.2
		c16.1,9.4,38.8,18.1,57.9,22.6l1.7,0.5l-2.5,1.2c-10.2,5.7-43.2,19.4-77,32c-5,1.7-9.7,3.7-10.7,4c-1,0.5-1.7,0.5-1.7,0.5
		s1.2-2.7,3-6c9.4-17.6,18.9-39.2,23.8-54.2C221.3,343.3,221.8,342.1,221.8,342.1L221.8,342.1z M209.8,346c0,0-0.5,1.7-1.2,3.5
		c-6.7,15.9-15.2,33.3-26.3,52.9c-2.7,5-5.2,8.9-5.2,8.9s-2.2-1.2-5-3c-16.1-9.9-30.3-21.9-39.5-33.8l-1.2-1.7l7-2
		c24.6-6.7,45.7-13.9,66.6-22.9C207.1,347,209.6,346,209.8,346z M284.6,372.1L284.6,372.1c0,1.7-3.7,17.4-7,28.6
		c-2.7,9.4-5,16.9-9.2,30.1c-1.7,5.7-3.5,10.4-3.5,10.4s-0.5,0-1-0.2c-22.4-4-42.7-9.7-61.6-17.4c-5.2-2.2-12.9-5.5-13.4-6
		c-0.2-0.2,4.5-2.2,10.2-4.7c34.5-15.2,70.1-32,82.5-39.5C283.1,372.6,284.4,372.1,284.6,372.1z M112,378.1
		c0.2,0.2-9.4,13.9-22.9,32.8c-4.7,6.7-10.2,14.4-12.2,17.1c-2,3-5.2,7.5-7,10.2l-3.2,5l-3.5-3c-4-3.2-10.9-10.4-14.2-14.4
		c-6.5-8.2-10.9-16.6-12.7-24.3c-0.7-3.7-0.7-5.5,0-5.7c1.2-0.2,21.4-5,40.2-9.4c10.4-2.5,22.6-5.2,27.1-6.5
		C108.2,378.8,111.7,378.1,112,378.1z M121.7,381.8l2.5,2.7c10.9,12.2,22.1,21.1,35.5,29.1c2.5,1.2,4.2,2.5,4,2.7
		c-0.5,0.5-46.7,16.9-68.3,24.1c-11.9,4.2-21.9,7.7-22.1,7.7c0,0-0.7-0.5-1.5-1l-1.2-1l2.2-3.2c7.2-10.2,16.1-21.6,35.5-45
		L121.7,381.8L121.7,381.8z M182,425c0,0,3.5,1.2,7.5,2.7c9.9,3.7,17.6,6,28.1,8.7c12.9,3.2,31.5,6.5,42.5,7.5
		c1.7,0.2,2.5,0.2,2.2,0.5c-0.5,0.2-11.7,4-19.9,6.7c-12.9,4-52.7,15.9-85.2,25.1c-6,1.7-11.2,3.2-11.4,3.2
		c-0.7,0.2-3.2-0.5-3.2-0.7c0-0.2,1.7-2.5,4-5c10.9-12.9,21.6-27.6,30.8-41.2C179.8,428,182,425,182,425z M168.6,425.3
		c0,0-5.2,8.7-14.7,23.6c-4,6.2-8.4,13.4-10.2,15.9c-1.5,2.5-3.7,6.2-5,8.4l-2.2,4l-1.2-0.2c-2.7-0.7-21.9-7.5-26.8-9.4
		c-6.2-2.5-12.7-5.5-17.6-8.2c-6-3.2-13.7-8.2-12.9-8.2c0.2,0,10.4-3,23.1-6.2c33-8.9,51.4-14.2,63.6-18.1
		C166.6,425.8,168.6,425.3,168.6,425.3z M262.8,447.4L262.8,447.4c0.5,0.7-11.9,34.8-16.4,45.5c-1,2.5-1.2,3-2,3
		c-1.2,0-19.1-2.5-29.8-4.2c-18.9-3-50.4-8.4-58.4-10.2l-1.7-0.5l11.2-2.5c24.3-5.5,35.8-8.4,47.7-11.9
		c14.9-4.5,29.6-10.2,44.5-17.1C260.3,448.4,262.3,447.4,262.8,447.4z"/>
	<path class="st0" d="M206.6,0c-1.7-0.2-28.6,9.4-46,16.4C137.3,25.8,119.2,35,108,43c-4.2,3-9.4,8.2-10.2,10.2
		c-0.2,0.7-0.5,1.7-0.5,2.5l10.2,9.7l24.1,7.7L189,83.2l65.6,11.2l0.7-5.7c-0.2,0-0.5,0-0.5,0l-8.7-1.2l-1.7-3
		c-8.9-15.7-18.9-35.3-24.6-48.4c-4.5-10.2-8.7-22.1-10.9-30.6C207.6,0.3,207.4,0,206.6,0L206.6,0L206.6,0L206.6,0z M205.4,3.7
		L205.4,3.7c0.2,0,0.5,2.2,0.7,4.7c1.2,10.7,3.7,20.9,7.5,31.8c2.7,8.4,2.7,7.9-0.5,7c-7.7-2.2-42.2-8.2-67.3-11.7
		c-4-0.5-7.5-1-7.5-1.2c-0.2-0.2,18.1-9.9,26.1-13.7C174.8,15.9,203.4,4.2,205.4,3.7z M132.3,37.8l3,1c16.1,5.5,56.4,13.2,78.7,14.9
		c2.5,0.2,4.7,0.5,4.7,0.5s-2,1.2-4.7,2.5c-10.7,5.5-22.6,11.9-30.8,17.1c-2.5,1.5-4.7,2.7-5,2.7s-2-0.2-3.5-0.5l-3-0.5l-7.5-7.5
		c-13.4-12.9-23.8-22.9-27.8-26.8L132.3,37.8z M129.4,40L140,53.4c5.7,7.5,11.7,14.4,12.9,16.1c1.2,1.5,2.2,3,2.2,3
		c-0.2,0.2-15.4-2.7-23.4-4.5c-8.2-2-11.7-2.7-16.6-4.5l-4.2-1.2v-1c0-5,6.5-12.7,17.4-20.4L129.4,40z M220,58.1
		c0.2,0,0.7,0.7,1.5,2.7c2.5,5.7,10.7,20.9,12.7,23.8c0.5,1,1.7,1-8.9-0.7c-25.6-4.2-33.8-5.5-33.8-5.7c0,0,0.7-0.5,1.7-1.2
		c7.9-4.5,15.9-9.9,23.1-15.9C218,59.6,219.5,58.4,220,58.1C219.8,58.1,220,58.1,220,58.1z"/>
	<path class="st1" d="M98.3,51.9c0,0-1.7,2.7,0,6.7c1,2.5,4,5.5,7.2,8.4c0,0,33.8,32.8,37.8,37.5c18.6,21.6,26.8,42.7,27.6,71.8
		c0.5,18.9-3,35.3-11.9,54.4c-15.7,34.3-48.9,72.3-100.1,114.3l7.5-2.5c4.7-3.7,11.4-7.5,26.8-15.9c35.8-19.6,75.8-37.5,125-55.9
		c70.8-26.6,187.3-57.9,253.6-68.1l7-1l-1-1.7c-6-9.4-10.2-15.2-15.2-21.4c-14.4-18.1-32-32.5-53.7-44.7
		c-29.6-16.6-68.1-29.6-116.8-39.2c-9.2-1.7-29.3-5.2-45.7-7.7c-34.8-5.5-57.1-9.2-81.7-13.4c-8.9-1.5-22.1-3.7-30.8-5.7
		c-4.5-1-13.2-3-20.1-5.5C107.7,60.6,100,58.4,98.3,51.9z M117.9,71.1c0,0,1.2,0.5,3,1c3,1,6.7,2.2,10.9,3.2c3.2,1,6.7,1.7,9.9,2.7
		c4.5,1.2,8.4,2.2,8.4,2.2c0.5,0.5,8.2,25.1,10.7,34.3c1,3.5,1.7,6.7,1.7,6.7s-1-1.2-2-3c-8.9-15.7-22.9-31.3-39-44.2
		C119.4,72.3,117.9,71.1,117.9,71.1z M155.2,81.2c0.5,0,2,0.2,4,0.7c12.9,3,36,7.2,50.7,9.7c2.5,0.5,4.5,0.7,4.5,1
		c0,0.2-1,0.7-2,1.2c-2.5,1.2-12.7,7.2-15.9,9.4c-8.4,5.7-15.9,11.7-21.4,17.1c-2.2,2.2-4,4-4,4s-0.5-1.2-0.7-3
		c-2.7-10.4-8.4-26.1-13.7-37C155.7,83,154.9,81.2,155.2,81.2C154.9,81.2,154.9,81.2,155.2,81.2L155.2,81.2z M220.5,93.7
		c0.5,0.2,1.2,2.7,2.7,8.4c2.7,10.9,4,23.4,3.7,34.8c-0.2,3.2-0.2,6.2-0.5,6.5l-0.2,0.7l-4-1.2c-8.2-2.5-21.4-6.5-32.5-9.7
		c-6.5-1.7-11.7-3.2-11.7-3.5c0-0.5,9.4-9.9,13.4-13.4C199.2,109.6,220,93.4,220.5,93.7z M225.7,94.4c0.2-0.2,31.3,5.2,45.5,7.9
		c10.4,2,25.8,5.2,26.8,5.7c0.5,0.2-1.2,1-6.2,3.2c-19.9,8.9-34.8,17.1-49.7,26.8c-4,2.5-7.2,4.7-7.2,4.7s-0.2-2.2-0.2-4.7
		c0-14.4-3-28.8-8.2-41.2C226.2,95.6,225.7,94.7,225.7,94.4z M306.2,110.3c0.2,0.2-0.7,6.5-1.7,9.9c-2.7,11.2-10.2,28.1-19.1,43.7
		c-1.5,2.7-3,5-3.2,5.2c-0.2,0-2.2-1-4.5-2.5c-8.7-5.2-18.9-9.9-29.6-14.4c-3-1.2-5.7-2.2-5.7-2.5c-0.5-0.5,23.8-16.6,36.8-24.3
		C289.3,119.2,306,110.1,306.2,110.3z M311.9,111.3c0.7,0,14.4,3.7,21.6,6c17.9,5.2,38.3,12.7,51.4,18.9l5.5,2.5l-4,1
		c-32.5,7.5-60.4,16.1-87.2,27.1c-2.2,1-4.2,1.7-4.2,1.7c-0.2,0,0.5-1.7,1.5-4c8.2-17.1,13.4-35,14.7-50.4
		C311.7,112.5,311.9,111.3,311.9,111.3L311.9,111.3z M174.8,142.8c0.2-0.2,10.7,2.2,16.4,4c8.7,2.5,26.8,8.4,26.8,8.9
		c0,0-2,1.7-4.5,4c-9.9,8.2-19.4,16.9-30.8,28.1c-3.5,3.2-6.2,6-6.5,6s-0.2-0.5-0.2-1c1.7-12.7,1.2-29.1-1-45.7
		C175.1,144.6,174.8,142.8,174.8,142.8z M395.9,143.1c0.2,0.2-5,7.9-7.9,12.4c-4.5,6.5-11.2,15.2-26.3,34
		c-7.9,9.9-16.9,21.4-19.9,25.1s-5.5,7-5.7,7c0,0-1-1.2-2.2-3c-8.4-12.7-18.6-23.8-30.6-33.8c-2.2-2-4.7-4-5.7-4.5
		c-0.7-0.5-1.5-1.2-1.5-1.2c0-0.2,12.9-5.7,22.6-9.7c17.1-7,40.5-15.4,57.9-20.6C386,145.6,395.9,142.8,395.9,143.1z M401.9,144.6
		c0.2,0,2.2,0.7,4.2,2.2c18.4,10.4,36.5,24.1,50.7,38c4,4,13.9,14.2,13.7,14.4c0,0-3.5,0.2-7.5,0.5c-31.8,2.5-72.5,9.2-111.8,18.6
		c-2.7,0.5-5,1.2-5.2,1.2c-0.2,0,2.7-3,6.5-6.5c23.1-22.1,33.5-36.3,46-61.1C400.1,147.8,401.6,144.8,401.9,144.6
		C401.6,144.6,401.6,144.6,401.9,144.6z M233.2,161.7c1,0.2,10.9,5,18.4,8.4c6.7,3.5,17.1,8.9,17.6,9.2c0,0-3.5,2-7.9,4.2
		c-14.2,7.2-26.3,13.9-39.2,21.6c-3.7,2.2-6.7,4-6.7,4c-0.2,0-0.2-0.2,1.7-4c6.7-12.4,12.2-27.3,15.4-41.7
		C232.7,162.5,232.9,161.7,233.2,161.7z M223.5,163.7c0.2,0.2-2.2,9.4-4,14.7c-3,9.7-8.4,21.6-13.4,30.8c-1.2,2.2-3,5.2-4,7l-2,3
		l-4.2-4c-5-4.7-8.9-7.7-14.2-10.4c-2-1-3.7-2-3.7-2.2c0-0.5,12.9-12.4,22.9-20.9C208.1,175.4,223.3,163.5,223.5,163.7z
		 M283.6,188.3l3.7,2.5c8.4,5.5,18.4,12.9,26.1,19.4c4.2,3.5,12.7,10.9,14.4,12.9l1,1l-6.2,1.7c-34.8,9.7-61.4,18.1-92.7,29.6
		c-3.5,1.2-6.5,2.2-6.7,2.2c-0.5,0-0.7,0.5,7-6.7c19.9-18.4,37.8-38.8,50.9-58.4L283.6,188.3z M267.7,192.3
		c0.2,0.2-10.2,14.7-16.4,23.1c-7.5,9.9-20.6,26.3-29.6,37c-3.7,4.5-7,8.2-7.2,8.2s-0.2-1-0.2-2.7c0-9.2-2.2-18.9-6.5-27.3
		c-1.7-3.5-2-4.2-1.7-4.7c1.5-1.2,23.4-13.9,37.5-21.4C252.8,199.5,267.5,192,267.7,192.3L267.7,192.3z M172.1,215.6c0.2,0,2,1,4,2
		c4.7,2.7,9.2,5.7,12.9,8.7c0.2,0.2-1.7,1.7-4.5,3.7c-7.2,5.2-18.1,13.4-24.3,18.4c-6.7,5.2-7,5.5-6.2,4.2c5-7.7,7.5-11.9,10.2-17.4
		c2.2-5,4.7-10.7,6.5-15.9C171.1,217.4,171.8,215.6,172.1,215.6z M197.7,235.7c0.5,0,0.7,0.5,3,3.7c4.2,6.5,7.7,15.2,8.4,22.1
		l0.2,1.5l-10.4,4c-18.6,7.2-35.8,14.4-47.2,19.6c-3.2,1.5-8.9,4.2-12.7,6c-3.7,2-6.7,3.2-6.7,3.2s2.2-1.7,5.2-4
		c22.6-16.4,42.2-34.5,56.9-52.4C195.9,237.5,197.4,235.7,197.7,235.7L197.7,235.7L197.7,235.7z M186,238.5
		c0.2,0.2-8.4,10.2-14.2,16.1c-14.7,14.9-29.1,26.6-47,38c-2.2,1.5-4.2,2.7-4.5,3c-0.5,0.2,0.2-0.5,7.9-8.9c5-5.5,8.7-9.9,13.2-15.4
		c3-3.7,3.5-4.2,7.5-7.2C159.9,255.6,185.5,238.2,186,238.5z"/>
</g>
</svg>
