<svg width="114" height="26" viewBox="0 0 114 26" fill="none" xmlns="http://www.w3.org/2000/svg">
<g clip-path="url(#clip0_187_2997)">
<path fill-rule="evenodd" clip-rule="evenodd" d="M75.2715 8.76501C75.8576 5.56822 79.4625 2.71256 82.6116 1.99565C83.8834 1.83636 85.5553 1.645 86.6883 2.18528L75.2715 8.76501Z" fill="#CC0000"/>
<path fill-rule="evenodd" clip-rule="evenodd" d="M105.289 1.92969L109.106 6.85287H101.349C100.714 6.89205 100.512 7.21063 100.319 7.81383C100.165 8.28253 100.414 8.94951 101.137 9.27607L107.683 12.4261L96.2791 12.428C94.5413 11.1075 94.1503 9.00481 94.5627 6.77297C94.9438 4.84047 96.8262 2.71645 98.7691 2.22834C99.4034 2.03871 100.087 1.98065 100.795 1.93575L105.289 1.92969Z" fill="#CC0000"/>
<path fill-rule="evenodd" clip-rule="evenodd" d="M74.3944 2.1743V9.2723L70.0699 11.7891L69.0273 11.4348V2.17188L74.3944 2.1743Z" fill="#CC0000"/>
<path fill-rule="evenodd" clip-rule="evenodd" d="M55.2773 2.16895L60.2546 2.18316L67.5221 11.8921L67.2522 12.4171L61.151 12.4088L60.1811 11.0703L60.1858 12.4313H55.2869L55.2773 2.16895Z" fill="#CC0000"/>
<path fill-rule="evenodd" clip-rule="evenodd" d="M74.3903 12.437L70.6582 12.4346L74.3927 10.2593L74.3903 12.437Z" fill="#CC0000"/>
<path fill-rule="evenodd" clip-rule="evenodd" d="M31.035 13.3175C31.027 15.6256 30.4975 19.6282 26.6991 19.5679H26.7478C22.951 19.6284 22.4205 15.6257 22.4141 13.3175L17.0409 13.3135C17.0686 15.9137 17.5369 18.3876 18.8309 20.4286L12.6095 20.4435C11.7222 20.4026 10.7861 20.386 9.77119 20.3125C6.16264 19.9376 6.05437 13.3507 6.04811 13.3235L0.168252 13.327C0.14931 16.8283 1.08043 19.9636 3.34009 22.5111C5.5021 25.1546 8.60512 25.7245 11.9136 25.8607L19.1621 25.8644V20.8297C19.7608 21.434 20.4255 22.205 21.1578 22.6757C23.6399 24.6893 28.0152 24.7991 30.8497 23.3949C34.5601 21.5588 36.1297 17.7217 36.3511 13.8891C36.9723 20.3212 39.6543 24.3954 48.8332 23.9612C50.7782 22.9375 52.7565 21.8479 54.5348 20.624V13.3258L49.4821 13.3157L49.4805 19.4119L48.2071 19.415C46.5529 19.3853 45.6075 19.4902 44.3469 18.9683C41.94 17.9304 41.8926 15.4283 41.6698 13.3258L31.035 13.3175Z" fill="#CC0000"/>
<path fill-rule="evenodd" clip-rule="evenodd" d="M60.1873 17.5003L55.2865 20.3286C55.2828 20.3362 55.2877 13.346 55.2901 13.3223L60.1782 13.3259L60.1873 17.5003Z" fill="#CC0000"/>
<path fill-rule="evenodd" clip-rule="evenodd" d="M63.668 16.4837L67.6927 14.1548L68.3319 14.4527L68.3237 23.9011L63.668 16.4837Z" fill="#CC0000"/>
<path fill-rule="evenodd" clip-rule="evenodd" d="M69.3867 14.416L74.3923 17.4079L74.3946 23.8928L69.3904 23.8953L69.3867 14.416Z" fill="#CC0000"/>
<path fill-rule="evenodd" clip-rule="evenodd" d="M85.5743 24.2304C82.286 24.8359 77.1795 23.4378 75.2422 18.0381L85.5743 24.2304Z" fill="#CC0000"/>
<path fill-rule="evenodd" clip-rule="evenodd" d="M60.1748 23.8931L55.2942 23.8914L55.293 21.3545L60.1797 18.5049L60.1748 23.8931Z" fill="#CC0000"/>
<path fill-rule="evenodd" clip-rule="evenodd" d="M54.5278 21.7778L54.5311 23.8975L50.8809 23.8892L54.5278 21.7778Z" fill="#CC0000"/>
<path fill-rule="evenodd" clip-rule="evenodd" d="M63.2495 15.7173L61.7988 13.3232L67.3758 13.3245L63.2495 15.7173Z" fill="#CC0000"/>
<path fill-rule="evenodd" clip-rule="evenodd" d="M11.4679 0.00516828C9.61244 0.0894083 7.82372 0.335888 6.26508 1.15159C1.9409 3.39574 0.477672 7.9369 0.185547 12.4372L6.09443 12.4281C6.16829 11.2618 6.38308 10.1556 6.62307 9.08974C7.00052 7.29227 8.63354 5.22163 10.2971 5.21453L18.9142 5.22337L19.2371 5.21799C17.8874 7.24478 17.0786 9.75916 17.0471 12.4441L22.3902 12.4346L22.3926 12.4203C22.4453 10.0855 23.0836 6.42353 26.7239 6.48038H26.674C30.3259 6.42353 30.9572 10.0966 31.006 12.4321L31.0029 12.4255H41.6758C41.7486 11.1928 41.8237 9.88344 42.2635 8.78502C42.7385 7.58781 43.7481 6.44312 45.1759 6.44485L53.4102 6.44606L50.157 2.12712C45.9128 2.13179 41.0989 1.84337 38.4034 5.66277C37.046 7.45555 36.5024 9.76366 36.3609 12.1217C36.2346 10.7537 36.0422 9.4189 35.6811 8.11682C34.6961 4.9762 31.368 2.15623 28.094 1.83869C24.5857 1.35231 21.6024 2.66982 19.2482 5.22579C17.8529 3.58242 16.5258 1.74162 15.1649 0.000488281L11.4679 0.00516828Z" fill="#CC0000"/>
<path fill-rule="evenodd" clip-rule="evenodd" d="M74.3861 16.166L70.3203 13.7418L70.3214 13.3159L80.0663 13.3177C80.071 15.6258 80.6033 19.6284 84.4009 19.5681H84.3493C88.1476 19.6285 88.6774 15.6531 88.6846 13.3461L88.6917 13.3177L94.1037 13.3189C94.1208 15.121 93.6717 16.9381 93.1615 18.5367L93.1224 18.6558L103.191 18.6594C103.823 18.5931 104.128 18.1635 104.3 17.6973C104.47 17.0646 104.314 16.3631 103.506 16.0258C101.605 15.2148 99.3615 14.1283 97.4285 13.319L108.493 13.3178C109.654 14.757 110.624 16.7315 110.243 18.6972C109.105 24.1383 104.497 23.8931 104.497 23.8931L93.0586 23.899L93.0569 18.8543L92.8906 19.1687C91.7414 21.4638 89.4907 23.2507 87.1124 23.9385L74.8522 16.5677C74.7182 16.0293 74.6231 15.4337 74.5588 14.8329L74.3861 16.166Z" fill="#CC0000"/>
<path fill-rule="evenodd" clip-rule="evenodd" d="M88.6586 12.4326C88.6098 10.0971 87.9802 6.42399 84.3259 6.48084H84.377C80.7371 6.42399 80.0956 10.0995 80.0445 12.4361H74.9482C74.8698 10.7606 75.1329 9.8104 75.1329 9.8104L87.8674 2.56836C93.9283 4.96417 94.1042 11.4236 94.1188 12.4279L88.6586 12.4326Z" fill="#CC0000"/>
<path fill-rule="evenodd" clip-rule="evenodd" d="M112.03 6.00214L111.82 5.58146C111.73 5.39894 111.574 5.17794 111.469 5.07428C111.366 4.97115 111.273 4.94567 111.047 4.94567H110.949V6.00196H110.429V3.42623H111.703C112.257 3.42623 112.516 3.73788 112.516 4.1466C112.516 4.53643 112.257 4.8155 111.82 4.86646V4.88067C112.042 4.95832 112.113 5.02939 112.375 5.4837L112.672 6.00214H112.03ZM111.489 4.53643C111.847 4.53643 111.964 4.36102 111.964 4.17867C111.964 3.95178 111.781 3.82802 111.43 3.82802H110.949V4.5366H111.489V4.53643ZM109.577 4.70474C109.577 5.78183 110.446 6.65803 111.528 6.65803C112.609 6.65803 113.488 5.78183 113.488 4.70474C113.488 3.62764 112.609 2.75803 111.528 2.75803C110.446 2.75786 109.577 3.62764 109.577 4.70474ZM113.961 4.70474C113.961 6.04842 112.875 7.13383 111.528 7.13383C110.18 7.13383 109.094 6.04842 109.094 4.70474C109.094 3.36106 110.18 2.27686 111.528 2.27686C112.875 2.27686 113.961 3.36106 113.961 4.70474Z" fill="#CC0000"/>
</g>
<defs>
<clipPath id="clip0_187_2997">
<rect width="114" height="26" fill="white"/>
</clipPath>
</defs>
</svg>
