<svg width="52" height="52" viewBox="0 0 52 52" fill="none" xmlns="http://www.w3.org/2000/svg">
<g clip-path="url(#clip0_2057_994)">
<path d="M25.6603 51.306C39.8391 51.306 51.3333 39.8692 51.3333 25.7612C51.3333 11.6533 39.8391 0.216492 25.6603 0.216492C11.4814 0.216492 -0.0127983 11.6533 -0.0127983 25.7612C-0.0127983 39.8692 11.4814 51.306 25.6603 51.306Z" fill="#043D58"/>
<path d="M19.6067 22.9661C22.7295 20.3619 26.2106 19.4896 30.05 20.1518C32.8208 20.6294 35.1437 21.9473 36.9482 24.1185C40.4613 28.3335 40.3333 34.6751 36.769 38.9857C33.6911 42.7104 25.8202 45.079 19.6003 39.9853C19.6003 40.622 19.5875 41.195 19.6067 41.7681C19.6195 42.2392 19.4276 42.443 18.9476 42.4366C17.8534 42.4175 16.7592 42.4621 15.6713 42.4048C15.441 42.3921 15.1978 42.061 15.0314 41.8254C14.9418 41.698 15.0122 41.4625 15.0122 41.2778C15.0122 31.0459 15.0186 20.8076 14.993 10.5757C14.993 9.86898 15.1914 9.46148 15.8249 9.14313C16.7528 8.6847 17.623 8.11803 18.5253 7.60866C19.2868 7.1757 19.5939 7.34761 19.5939 8.2199C19.6003 12.887 19.5939 17.5541 19.5939 22.2211C19.6067 22.4121 19.6067 22.6159 19.6067 22.9661ZM27.7912 38.5973C31.861 38.5845 34.9453 35.4838 34.9325 31.4152C34.9261 27.3594 31.8162 24.2522 27.7592 24.2459C23.7086 24.2459 20.5666 27.3657 20.5602 31.4025C20.5602 35.5029 23.6766 38.61 27.7912 38.5973Z" fill="#FBFCFC"/>
<path d="M39.2455 20.1072C37.6585 20.1009 36.4043 18.872 36.3851 17.2993C36.3659 15.7076 37.6713 14.4278 39.2839 14.4533C40.8581 14.4787 42.1187 15.7458 42.1123 17.3057C42.0995 18.8593 40.8197 20.1136 39.2455 20.1072Z" fill="#F97A65"/>
<path d="M27.7912 38.5973C23.683 38.61 20.5602 35.5029 20.5666 31.4025C20.573 27.3657 23.7149 24.2395 27.7656 24.2459C31.8226 24.2459 34.9261 27.353 34.9389 31.4152C34.9453 35.4838 31.861 38.5845 27.7912 38.5973Z" fill="#043E58"/>
</g>
<defs>
<clipPath id="clip0_2057_994">
<rect width="51.3333" height="52" fill="white"/>
</clipPath>
</defs>
</svg>
