<svg width="89" height="48" viewBox="0 0 89 48" fill="none" xmlns="http://www.w3.org/2000/svg">
<g clip-path="url(#clip0_187_2980)">
<path d="M85.9749 1.021H1.375V46.9888H85.9749V1.021Z" fill="white"/>
<path d="M85.9746 48.0002H1.37475C0.820651 48.0002 0.371097 47.5477 0.371097 46.9901V1.02091C0.36979 0.463213 0.819344 0.0107422 1.37475 0.0107422H85.9746C86.5287 0.0107422 86.9783 0.463213 86.9783 1.02091V46.9887C86.9783 47.5464 86.5287 47.9989 85.9746 47.9989V48.0002ZM2.37841 45.9786H84.971V2.03239H2.37841V45.9799V45.9786Z" fill="black"/>
<path fill-rule="evenodd" clip-rule="evenodd" d="M28.8183 0.0668945V5.25452H5.29509V42.5702H28.8183V47.8393H0.0664062V0.0668945H28.8183Z" fill="black"/>
<path d="M28.8839 47.9053H0V0H28.8839V5.31916H5.36067V42.502H28.8839V47.904V47.9053ZM0.131991 47.7711H28.7519V42.6348H5.22868V5.18762H28.7519V0.132847H0.131991V47.7711Z" fill="black"/>
<path fill-rule="evenodd" clip-rule="evenodd" d="M60.1816 47.8987V42.7071H83.7048V5.35598H60.1816V0.081543H88.9335V47.8987H60.1816Z" fill="black"/>
<path d="M88.9991 47.9656H60.1152V42.6399H83.6384V5.42291H60.1152V0.015625H88.9991V47.9656ZM60.2472 47.8328H88.8671V0.148472H60.2472V5.28875H83.7704V42.7728H60.2472V47.8315V47.8328Z" fill="black"/>
<path fill-rule="evenodd" clip-rule="evenodd" d="M15.4745 28.1135C17.4988 29.3222 19.4382 29.8392 21.8833 29.8392C27.8281 29.8392 32.2139 26.8008 32.2139 22.6575C32.2139 18.2722 27.7863 15.0615 21.7565 15.0615C19.2265 15.0615 17.4557 15.5442 15.4732 16.8227V15.4758H10.4131C9.35847 15.4758 8.93767 15.5442 8.55738 15.7179C7.88305 16.0625 7.46094 16.6504 7.46094 17.2713C7.46094 17.8237 7.7981 18.3761 8.3888 18.7207C8.85273 18.9628 9.27484 19.0312 10.4131 19.0312H10.9188V33.3589H10.4131C9.35847 33.3589 8.93767 33.4273 8.55738 33.601C7.88305 33.9114 7.46094 34.5335 7.46094 35.1202C7.46094 35.7068 7.7981 36.225 8.3888 36.5696C8.81091 36.8459 9.31666 36.9143 10.4131 36.9143H17.7497C18.7194 36.9143 19.2683 36.8459 19.6054 36.6722C20.2798 36.3276 20.7019 35.7397 20.7019 35.1188C20.7019 34.5664 20.3647 34.014 19.774 33.6694C19.3519 33.4273 18.888 33.3589 17.7497 33.3589H15.4732V28.1121L15.4745 28.1135ZM21.5892 18.6195C25.1308 18.6195 27.6608 20.2071 27.6608 22.4523C27.6608 23.523 26.9015 24.662 25.7215 25.3526C24.6668 25.9734 23.2764 26.2852 21.5892 26.2852C19.9021 26.2852 18.4685 25.9747 17.4152 25.3526C16.2769 24.662 15.4758 23.523 15.4758 22.4865C15.4758 20.2084 17.964 18.6195 21.5892 18.6195Z" fill="black"/>
<path fill-rule="evenodd" clip-rule="evenodd" d="M55.8271 9.33203H50.767C49.6705 9.33203 49.3334 9.36623 48.9113 9.57405C48.2369 9.91866 47.8148 10.4711 47.8148 11.0932C47.8148 11.6799 48.152 12.1981 48.7427 12.5427C49.2066 12.7847 49.6287 12.8873 50.767 12.8873H51.2727V16.5466C49.6287 15.5456 47.5195 15.0274 45.1162 15.0274C41.87 15.0274 39.4654 15.7179 37.4842 17.2029C35.503 18.6879 34.4902 20.6214 34.4902 22.7957C34.4902 24.9699 35.5017 26.9389 37.4842 28.4226C39.4654 29.9076 41.87 30.5981 45.0744 30.5981C47.5195 30.5981 49.2066 30.1838 51.2727 29.1131V30.1483H56.3328C57.3443 30.1483 57.8083 30.0799 58.1885 29.9063C58.8629 29.5617 59.285 28.9737 59.285 28.3529C59.285 27.8004 58.9478 27.248 58.3571 26.9034C57.8932 26.6614 57.5142 26.593 56.3328 26.593H55.8271V9.33203ZM45.1593 18.584C47.1836 18.584 48.4905 18.9641 49.6705 19.8612C50.682 20.6201 51.2727 21.725 51.2727 22.7615C51.2727 25.3158 48.7845 27.0428 45.1162 27.0428C43.1768 27.0428 41.785 26.6285 40.6468 25.7656C39.6353 24.9712 39.0446 23.9018 39.0446 22.797C39.0446 21.6921 39.6353 20.6569 40.6468 19.8625C41.785 18.9654 43.135 18.5853 45.158 18.5853L45.1593 18.584Z" fill="black"/>
<path fill-rule="evenodd" clip-rule="evenodd" d="M79.1454 17.2042C78.2176 17.2042 77.67 17.4804 76.7422 18.4472C75.8143 19.4482 75.3085 19.8283 74.9714 19.8283C74.7179 19.8283 74.2121 19.5863 73.5796 19.1377C70.5856 16.9977 69.4474 16.5137 67.5498 16.5137C65.6523 16.5137 64.2605 17.1345 62.5747 18.6537C61.3096 19.7928 60.8457 20.4491 60.8457 21.1397C60.8457 22.1748 61.984 23.0732 63.3339 23.0732C64.22 23.0732 64.6408 22.8667 65.779 21.7263C66.8337 20.7253 67.2126 20.4491 67.508 20.4491C67.7184 20.4491 68.3091 20.7595 69.0684 21.2778C71.6402 23.1074 73.2856 23.7979 75.0563 23.7979C76.8271 23.7979 78.1771 23.1771 79.7793 21.6921C81.2547 20.311 81.5919 19.8625 81.5919 19.1377C81.5919 18.0671 80.4954 17.2042 79.1467 17.2042H79.1454Z" fill="black"/>
</g>
<defs>
<clipPath id="clip0_187_2980">
<rect width="89" height="48" fill="white"/>
</clipPath>
</defs>
</svg>
