<svg xmlns="http://www.w3.org/2000/svg" fill="none" viewBox="0 0 30 29"><g clip-path="url(#a)"><path fill="#036C70" d="M15.81 16.21a8.1 8.1 0 1 0 0-16.21 8.1 8.1 0 0 0 0 16.21Z"/><path fill="#1A9BA1" d="M22.57 22.97a7.43 7.43 0 1 0 0-14.86 7.43 7.43 0 0 0 0 14.86Z"/><path fill="#37C6D0" d="M16.83 28.37a5.74 5.74 0 1 0 0-11.48 5.74 5.74 0 0 0 0 11.48Z"/><path fill="#000" d="M17.16 7.32v14.41a1.24 1.24 0 0 1-1.23 1.24h-4.84v-.68a5.72 5.72 0 0 1 3.45-4.92V16.1A8.1 8.1 0 0 1 7.96 6.08h7.97c.68 0 1.23.55 1.23 1.24Z" opacity=".1"/><path fill="#000" d="M15.25 6.76H7.82a8.1 8.1 0 0 0 7.03 9.4c-2.1.99-3.62 3.8-3.75 6.13l-.02.34a5.68 5.68 0 0 0 .1 1.01h4.07a1.24 1.24 0 0 0 1.24-1.23V7.99c0-.68-.56-1.23-1.24-1.23Z" opacity=".2"/><path fill="#000" d="M15.25 6.76H7.82a8.1 8.1 0 0 0 6.9 9.38c-2.03 1.06-3.5 3.88-3.62 6.15h4.15c.68 0 1.23-.55 1.24-1.23V7.99c0-.68-.55-1.23-1.24-1.23Z" opacity=".2"/><path fill="#000" d="M14.58 6.76H7.82a8.1 8.1 0 0 0 6 9.2 11.16 11.16 0 0 0-2.72 6.33h3.48c.68 0 1.23-.55 1.23-1.23V7.99c0-.68-.55-1.23-1.23-1.23Z" opacity=".2"/><path fill="url(#b)" d="M2.2 6.76h12.38c.68 0 1.23.55 1.23 1.23v12.39c0 .68-.55 1.24-1.23 1.24H2.19c-.68 0-1.24-.56-1.24-1.24V7.99c0-.68.56-1.23 1.24-1.23Z"/><path fill="#fff" d="M6.48 14.03a2.04 2.04 0 0 1-.96-1.77c0-.48.16-.96.47-1.33a2.7 2.7 0 0 1 1.22-.8c.53-.17 1.1-.26 1.66-.25.75-.03 1.49.08 2.2.3v1.56a4.44 4.44 0 0 0-2.16-.54c-.4-.02-.82.07-1.19.25a.78.78 0 0 0-.47.72c0 .19.07.37.2.5.16.17.34.3.54.4a17.04 17.04 0 0 0 1.16.5 8 8 0 0 1 1.28.63c.3.19.56.45.75.76.2.35.29.75.27 1.15.02.5-.13.98-.43 1.38-.3.36-.7.63-1.15.77a5.2 5.2 0 0 1-1.63.24c-.5 0-1-.04-1.49-.12a5.09 5.09 0 0 1-1.2-.36v-1.64a4.76 4.76 0 0 0 2.56.8c.41.03.84-.06 1.21-.26a.82.82 0 0 0 .41-.73c0-.2-.08-.4-.23-.55-.18-.19-.4-.34-.63-.45l-1.2-.53a6.78 6.78 0 0 1-1.19-.63Z"/></g><defs><linearGradient id="b" x1="3.53" x2="13.23" y1="5.79" y2="22.58" gradientUnits="userSpaceOnUse"><stop stop-color="#058F92"/><stop offset=".5" stop-color="#038489"/><stop offset="1" stop-color="#026D71"/></linearGradient><clipPath id="a"><path fill="#fff" d="M.95 0H30v28.37H.95z"/></clipPath></defs></svg>