<svg xmlns="http://www.w3.org/2000/svg" viewBox="0 0 1055.9 1110.4">
	<linearGradient id="top" x1="-142.03" x2="-141.89" y1="-250.39" y2="-250.39" gradientTransform="matrix(433.7 0 0 -433.7 61796.81 -108479.13)" gradientUnits="userSpaceOnUse">
		<stop offset="0" stop-color="#939fab"/>
		<stop offset="1" stop-color="#dcdee1"/>
	</linearGradient>
	<radialGradient id="mid" cx="-137.42" cy="-239.97" r=".15" gradientTransform="matrix(-553 -83 -168 1106 -115786.94 254384.1)" gradientUnits="userSpaceOnUse">
		<stop offset="0" stop-color="#ee352c"/>
		<stop offset="1" stop-color="#a91d22"/>
	</radialGradient>
	<linearGradient id="btm" x1="-140.39" x2="-140.25" y1="-239.6" y2="-239.6" gradientTransform="scale(626 -626) rotate(31 -505.4 136.77)" gradientUnits="userSpaceOnUse">
		<stop offset="0" stop-color="#909ca9"/>
		<stop offset="1" stop-color="#ededee"/>
	</linearGradient>
	<path fill="url(#top)" d="M433.7 11.8c-3.8-.5-62.1 20.5-99.9 35.6-50.8 20.5-90.2 40.5-114.5 57.8-9.2 6.5-20.5 17.8-22.1 22.1-.5 1.6-1.1 3.8-1.1 5.4l22.1 21.1 52.4 16.7 124.7 22.1L537.9 217l1.6-12.4h-1.1l-18.9-2.7-3.8-6.5c-19.4-34-41-76.7-53.5-105.3-9.7-22.1-18.9-48.1-23.8-66.4-2.6-11.4-3.1-11.9-4.7-11.9zm-2.7 8.1c.5 0 1.1 4.9 1.6 10.3 2.7 23.2 8.1 45.4 16.2 69.1 5.9 18.4 5.9 17.3-1.1 15.1-16.7-4.9-91.8-17.8-146.3-25.4-8.6-1.1-16.2-2.2-16.2-2.7-.5-.5 39.4-21.6 56.7-29.7C364.5 46.3 426.6 21 431 19.9zm-158.8 74 6.5 2.2c35.1 11.9 122.6 28.6 171.2 32.4 5.4.5 10.3 1.1 10.3 1.1s-4.3 2.7-10.3 5.4c-23.2 11.9-49.1 25.9-67 37.3-5.4 3.2-10.3 5.9-10.8 5.9s-4.3-.5-7.6-1.1L358 176l-16.2-16.2c-29.2-28.1-51.8-49.7-60.5-58.3l-9.1-7.6zm-6.5 4.8 23.2 29.2c12.4 16.2 25.4 31.3 28.1 35.1 2.7 3.2 4.9 6.5 4.9 6.5-.5.5-33.5-5.9-50.8-9.7-17.8-4.3-25.4-5.9-36.2-9.7l-9.2-2.7v-2.2c0-10.8 14-27.5 37.8-44.3l2.2-2.2zm197.1 39.4c.5 0 1.6 1.6 3.2 5.9 5.4 12.4 23.2 45.4 27.5 51.8 1.1 2.2 3.8 2.2-19.4-1.6-55.6-9.2-73.4-11.9-73.4-12.4 0 0 1.6-1.1 3.8-2.7 17.3-9.7 34.6-21.6 50.2-34.6 3.8-3.1 7-5.8 8.1-6.4-.5 0 0 0 0 0z"/>
	<path fill="url(#btm)" d="m658.3 518.8-217.6 71.3-189.5 83.7-52.9 14c-13.5 13-27.5 25.9-43.2 38.9-16.7 14.6-32.4 27.5-44.3 37.3-13.5 10.8-32.9 30.2-43.2 42.7-15.1 18.9-27 38.9-31.9 54-9.2 27.5-4.9 55.6 13 81.5 22.1 32.9 67 66.4 118.8 89.1 26.5 11.9 71.3 26.5 104.8 35.1 55.6 14 163.6 29.7 223 31.9 11.9.5 28.1.5 28.6 0 1.1-1.1 10.8-18.4 21.1-40.5 36.7-74.5 62.6-144.7 77.2-204.1 8.6-36.2 15.1-84.2 20-141.5 1.1-16.2 1.6-69.7.5-87.5-1.6-29.7-4.3-53.5-8.1-77.2-.5-3.2-1.1-6.5-.5-6.5.5-.5 2.7-1.1 29.7-8.6l-5.5-13.6zM608.6 548c2.2 0 7 50.8 8.6 82.6.5 6.5 0 11.3 0 11.3-1.1 0-27.5-15.7-47-27.5-16.2-10.3-47.5-31.3-52.4-35.1-1.6-1.1-1.6-1.1 11.9-5.9 22.8-8.1 76.7-25.4 78.9-25.4zm-111.2 36.7c1.6 0 5.4 2.2 14.6 7.6 34 21.1 79.9 47 99.9 55.6 5.9 2.7 6.5 1.6-7 11.3-29.7 20.5-67.5 40.5-112.9 60.5-8.1 3.8-14.6 6.5-15.1 6.5s.5-4.3 2.2-9.2c10.8-41 17.3-82.6 17.8-115.6-1.1-16.7-1.1-16.7.5-16.7zm-22.7 8.6c1.1 1.1.5 37.8-1.1 48.1-2.7 23.8-7.6 46.4-15.1 71.8-1.6 5.9-3.2 11.3-3.8 11.3-.5 1.1-23.2-21.1-30.8-29.7a211.3 211.3 0 0 1-30.2-44.3c-3.8-7.6-9.7-22.1-9.2-22.1 2.7-2.1 89.7-35.6 90.2-35.1zm-107.5 42.2c1.1.5 2.2 3.2 2.7 5.9 5.4 14.6 17.3 35.6 27.5 48.6 11.3 14.6 25.9 30.8 37.8 41 3.8 3.2 7.6 6.5 8.1 7 1.1 1.1 1.1 1.1-25.4 10.8-31.3 11.9-64.8 23.8-103.7 36.2-9.2 3.2-18.4 5.9-27.5 9.2-1.6.5-1.1-.5 3.2-7 19.4-30.2 48.6-89.1 64.8-131.2 2.7-7 5.4-14.6 5.9-16.2.5-2.2 1.6-3.2 3.8-4.3 1.2.5 2.3 0 2.8 0zM334.3 649c.5.5-8.1 17.8-16.2 34-16.2 31.3-33.5 61.6-56.7 98.8-3.8 6.5-7.6 12.4-8.1 13-1.1 1.1-1.1 1.1-3.8-4.3-5.4-10.8-10.3-25.4-12.4-38.3-2.7-13-2.2-35.1 1.1-49.1 2.2-10.3 2.2-10.3 7-12.4 20-10.4 88-42.3 89.1-41.7zm283.5 11.8v7c0 36.7-3.8 86.9-9.7 123.7-1.1 6.5-1.6 11.9-2.2 11.9 0 0-4.9-1.1-10.3-2.7-24.8-7.6-51.3-18.9-75.6-32.4-16.2-8.6-39.4-23.2-38.3-23.8 0 0 7-3.8 15.1-8.1a990.1 990.1 0 0 0 90.2-52.9c10.3-6.5 25.4-17.8 28.6-20.5l2.2-2.2zm-407.7 48.6c.5 0 .5 1.1-.5 7-.5 4.3-1.6 12.4-1.6 17.8-1.1 23.8 2.7 41.6 14.6 65.9 3.2 6.5 5.9 12.4 5.9 12.4-1.1 1.1-110.2 32.9-144.2 42.1-10.3 2.7-18.9 5.4-20 5.4-1.1.5-1.1 0-1.1-2.7 3.8-24.3 22.1-55.6 48.1-82.6 17.3-17.8 30.8-28.1 54-41.6 16.7-8.5 42.1-23.1 44.8-23.7-.5 0-.5 0 0 0zm256.5 45.9s4.3 2.2 8.6 4.9c35.1 20.5 84.2 39.4 125.8 49.1l3.8 1.1-5.4 2.7c-22.1 12.4-94 42.1-167.4 69.7-10.8 3.8-21.1 8.1-23.2 8.6-2.2 1.1-3.8 1.1-3.8 1.1s2.7-5.9 6.5-13c20.5-38.3 41-85.3 51.8-117.7 2.2-3.8 3.3-6.5 3.3-6.5zm-25.9 8.7s-1.1 3.8-2.7 7.6c-14.6 34.6-32.9 72.4-57.2 115-5.9 10.8-11.3 19.4-11.3 19.4s-4.9-2.7-10.8-6.5c-35.1-21.6-65.9-47.5-85.9-73.4l-2.7-3.8 15.1-4.3c53.5-14.6 99.4-30.2 144.7-49.7 4.8-2.2 10.2-4.3 10.8-4.3zm162.5 56.7c0 3.8-8.1 37.8-15.1 62.1-5.9 20.5-10.8 36.7-20 65.3-3.8 12.4-7.6 22.7-7.6 22.7s-1.1 0-2.2-.5c-48.6-8.6-92.9-21.1-133.9-37.8-11.3-4.9-28.1-11.9-29.2-13-.5-.5 9.7-4.9 22.1-10.3 75.1-32.9 152.3-69.7 179.3-85.9 3.4-1.6 6.1-2.6 6.6-2.6zm-375.3 12.9c.5.5-20.5 30.2-49.7 71.3-10.3 14.6-22.1 31.3-26.5 37.3-4.3 6.5-11.3 16.2-15.1 22.1l-7 10.8-7.6-6.5c-8.6-7-23.8-22.7-30.8-31.3-14-17.8-23.8-36.2-27.5-52.9-1.6-8.1-1.6-11.9 0-12.4 2.7-.5 46.4-10.8 87.5-20.5 22.7-5.4 49.1-11.3 58.9-14 9.7-2.3 17.3-3.9 17.8-3.9zm21.1 8.1 5.4 5.9c23.8 26.5 48.1 45.9 77.2 63.2 5.4 2.7 9.2 5.4 8.6 5.9-1.1 1.1-101.5 36.7-148.5 52.4-25.9 9.2-47.5 16.7-48.1 16.7l-3.2-2.2-2.7-2.2 4.9-7c15.7-22.1 35.1-47 77.2-97.7l29.2-35zm131.2 94s7.6 2.7 16.2 5.9c21.6 8.1 38.3 13 61 18.9 28.1 7 68.6 14 92.3 16.2 3.8.5 5.4.5 4.9 1.1-1.1.5-25.4 8.6-43.2 14.6-28.1 8.6-114.5 34.6-185.2 54.5-13 3.8-24.3 7-24.8 7-1.6.5-7-1.1-7-1.6s3.8-5.4 8.6-10.8c23.8-28.1 47-59.9 67-89.6 5.3-9.7 10.2-16.2 10.2-16.2zm-29.2.5s-11.3 18.9-31.9 51.3c-8.6 13.5-18.4 29.2-22.1 34.6-3.2 5.4-8.1 13.5-10.8 18.4l-4.9 8.6-2.7-.5c-5.9-1.6-47.5-16.2-58.3-20.5-13.5-5.4-27.5-11.9-38.3-17.8-13-7-29.7-17.8-28.1-17.8.5 0 22.7-6.5 50.2-13.5 71.8-19.4 111.8-30.8 138.2-39.4 4.4-2.3 8.7-3.4 8.7-3.4zm204.7 48.1c1.1 1.6-25.9 75.6-35.6 98.8-2.2 5.4-2.7 6.5-4.3 6.5-2.7 0-41.6-5.4-64.8-9.2-41-6.5-109.6-18.4-126.9-22.1l-3.8-1.1 24.3-5.4c52.9-11.9 77.8-18.4 103.7-25.9 32.4-9.7 64.3-22.1 96.7-37.3 5.3-2.2 9.6-4.3 10.7-4.3z"/>
	<path fill="url(#mid)" d="M198.2 124.6s-3.8 5.9 0 14.6c2.2 5.4 8.6 11.9 15.7 18.4 0 0 73.4 71.3 82.1 81.5 40.5 47 58.3 92.9 59.9 156.1 1.1 41-6.5 76.7-25.9 118.3-34 74.5-106.4 157.1-217.6 248.4l16.2-5.4c10.3-8.1 24.8-16.2 58.3-34.6 77.8-42.7 164.7-81.5 271.6-121.5 153.9-57.8 407.1-125.8 551.3-148l15.1-2.2-2.2-3.8c-13-20.5-22.1-32.9-32.9-46.4-31.3-39.4-69.7-70.7-116.6-97.2-64.3-36.2-148-64.3-253.8-85.3-20-3.8-63.7-11.3-99.4-16.7-75.6-11.9-124.2-20-177.7-29.2-19.4-3.2-48.1-8.1-67-12.4-9.7-2.2-28.6-6.5-43.7-11.9-12.9-3.8-29.6-8.6-33.4-22.7zm42.7 41.6s2.7 1.1 6.5 2.2c6.5 2.2 14.6 4.9 23.8 7 7 2.2 14.6 3.8 21.6 5.9 9.7 2.7 18.4 4.9 18.4 4.9 1.1 1.1 17.8 54.5 23.2 74.5 2.2 7.6 3.8 14.6 3.8 14.6s-2.2-2.7-4.3-6.5c-19.4-34-49.7-68-84.8-96.1-5-3.8-8.2-6.5-8.2-6.5zm81 22.2c1.1 0 4.3.5 8.6 1.6 28.1 6.5 78.3 15.7 110.2 21.1 5.4 1.1 9.7 1.6 9.7 2.2 0 .5-2.2 1.6-4.3 2.7-5.4 2.7-27.5 15.7-34.6 20.5-18.4 12.4-34.6 25.4-46.4 37.3l-8.6 8.6s-1.1-2.7-1.6-6.5c-5.9-22.7-18.4-56.7-29.7-80.5-2.2-3.3-3.9-7-3.3-7-.6 0-.6 0 0 0zm142 27c1.1.5 2.7 5.9 5.9 18.4 5.9 23.8 8.6 50.8 8.1 75.6-.5 7-.5 13.5-1.1 14l-.5 1.6-8.6-2.7c-17.8-5.4-46.4-14-70.7-21.1-14-3.8-25.4-7-25.4-7.6 0-1.1 20.5-21.6 29.2-29.2 16.7-14.5 62-49.6 63.1-49zm11.3 1.6c.5-.5 68 11.3 98.8 17.3 22.7 4.3 56.2 11.3 58.3 12.4 1.1.5-2.7 2.2-13.5 7-43.2 19.4-75.6 37.3-108 58.3-8.6 5.4-15.7 10.3-15.7 10.3s-.5-4.9-.5-10.3c0-31.3-6.5-62.6-17.8-89.6-.5-2.7-1.6-4.9-1.6-5.4zm175 34.5c.5.5-1.6 14-3.8 21.6-5.9 24.3-22.1 61-41.6 95-3.2 5.9-6.5 10.8-7 11.3-.5 0-4.9-2.2-9.7-5.4-18.9-11.3-41-21.6-64.3-31.3-6.5-2.7-12.4-4.9-12.4-5.4-1.1-1.1 51.8-36.2 79.9-52.9 22.2-13.4 58.3-33.4 58.9-32.9zm12.4 2.2c1.6 0 31.3 8.1 47 13 38.9 11.3 83.2 27.5 111.8 41l11.9 5.4-8.6 2.2c-70.7 16.2-131.2 35.1-189.5 58.9-4.9 2.2-9.2 3.8-9.2 3.8-.5 0 1.1-3.8 3.2-8.6 17.8-37.3 29.2-76.1 31.9-109.6 1-3.4 1.5-6.1 1.5-6.1zm-298.1 68.6c.5-.5 23.2 4.9 35.6 8.6 18.9 5.4 58.3 18.4 58.3 19.4l-9.7 8.6c-21.6 17.8-42.1 36.7-67 61-7.6 7-13.5 13-14 13s-.5-1.1-.5-2.2c3.8-27.5 2.7-63.2-2.2-99.4.1-5.2-.5-9-.5-9zm480.6.5c.5.5-10.8 17.3-17.3 27-9.7 14-24.3 32.9-57.2 74-17.3 21.6-36.7 46.4-43.2 54.5s-11.9 15.1-12.4 15.1c0 0-2.2-2.7-4.9-6.5-18.4-27.5-40.5-51.8-66.4-73.4-4.9-4.3-10.3-8.6-12.4-9.7-1.6-1.1-3.2-2.7-3.2-2.7 0-.5 28.1-12.4 49.1-21.1 37.3-15.1 88-33.5 125.8-44.8 20.5-7 42.1-12.9 42.1-12.4zm13 3.3c.5 0 4.9 1.6 9.2 4.9 40 22.7 79.4 52.4 110.2 82.6 8.6 8.6 30.2 30.8 29.7 31.3 0 0-7.6.5-16.2 1.1-69.1 5.4-157.7 20-243 40.5-5.9 1.1-10.8 2.7-11.3 2.7s5.9-6.5 14-14c50.2-48.1 72.9-78.8 99.9-132.8 3.7-9.3 6.9-15.8 7.5-16.3-.6 0-.6 0 0 0zm-366.7 37.2c2.2.5 23.8 10.8 40 18.4 14.6 7.6 37.3 19.4 38.3 20 0 0-7.6 4.3-17.3 9.2-30.8 15.7-57.2 30.2-85.3 47-8.1 4.9-14.6 8.6-14.6 8.6-.5 0-.5-.5 3.8-8.6 14.6-27 26.5-59.4 33.5-90.7.6-2.3 1.1-3.9 1.6-3.9zm-21 4.3c.5.5-4.9 20.5-8.6 31.9-6.5 21.1-18.4 47-29.2 67-2.7 4.9-6.5 11.3-8.6 15.1l-4.3 6.5-9.2-8.6c-10.8-10.3-19.4-16.7-30.8-22.7-4.3-2.2-8.1-4.3-8.1-4.9 0-1.1 28.1-27 49.7-45.4 15.6-13.5 48.5-39.4 49.1-38.9zM601 421.1l8.1 5.4c18.4 11.9 40 28.1 56.7 42.1 9.2 7.6 27.5 23.8 31.3 28.1l2.2 2.2-13.5 3.8c-75.6 21.1-133.4 39.4-201.4 64.3-7.6 2.7-14 4.9-14.6 4.9-1.1 0-1.6 1.1 15.1-14.6 43.2-40 82.1-84.2 110.7-126.9l5.4-9.3zm-34.5 8.6c.5.5-22.1 31.9-35.6 50.2-16.2 21.6-44.8 57.2-64.3 80.5-8.1 9.7-15.1 17.8-15.7 17.8s-.5-2.2-.5-5.9c0-20-4.9-41-14-59.4-3.8-7.6-4.3-9.2-3.8-10.3 3.2-2.7 50.8-30.2 81.5-46.4 20-10.8 51.9-27 52.4-26.5zm-207.9 50.8c.5 0 4.3 2.2 8.6 4.3 10.3 5.9 20 12.4 28.1 18.9.5.5-3.8 3.8-9.7 8.1a1579.1 1579.1 0 0 0-52.9 40c-14.6 11.3-15.1 11.9-13.5 9.2 10.8-16.7 16.2-25.9 22.1-37.8 4.9-10.8 10.3-23.2 14-34.6 1.1-4.3 2.8-8.1 3.3-8.1zm55.6 43.7c1.1 0 1.6 1.1 6.5 8.1 9.2 14 16.7 32.9 18.4 48.1l.5 3.2-22.7 8.6c-40.5 15.7-77.8 31.3-102.6 42.7-7 3.2-19.4 9.2-27.5 13-8.1 4.3-14.6 7-14.6 7s4.9-3.8 11.3-8.6c49.1-35.6 91.8-75.1 123.7-113.9 3.2-4.4 6.5-8.2 7-8.2zm-25.4 6c.5.5-18.4 22.1-30.8 35.1-31.9 32.4-63.2 57.8-102.1 82.6-4.9 3.2-9.2 5.9-9.7 6.5-1.1.5.5-1.1 17.3-19.4a773.1 773.1 0 0 0 28.6-33.5c6.5-8.1 7.6-9.2 16.2-15.7 23.8-18.4 79.5-56.2 80.5-55.6z"/>
</svg>