<svg xmlns="http://www.w3.org/2000/svg" viewBox="0 0 1062.3 223.1">
  <path fill="#e30e18" d="M50.9 94.8 0 6.6h101.7L86.8 32.4H67.4l4.9-8.5H29.4L50.8 61l6.7-11.6 19.5.1Z"/>
  <path fill="#fff" d="M596.1 6h59.6c14.5 0 25 2.8 31.5 8.3 6.5 5.6 9.8 14.2 9.8 26v1.9c0 7.1-1.5 13.1-4.4 18a27.3 27.3 0 0 1-13.7 11A29.8 29.8 0 0 1 695 82a34 34 0 0 1 6 21.2v3.1c0 13.3-4 23-12 28.9s-19.3 8.9-33.8 8.9H596V6Zm25.8 21.2v34.9h29.3c7.4 0 12.5-1.4 15.5-4.1s4.5-7.1 4.5-13.2v-2.5c0-5.4-1.4-9.3-4.2-11.6s-7.5-3.5-14.1-3.5Zm0 95.8h32.2c7.6 0 13-1.3 16.1-4s4.6-7.5 4.7-14.4v-2.5c0-7.2-1.7-12.3-5-15.1s-9-4.3-17.1-4.3h-30.9Zm178.7 2.9c0 6.8-1.6 11.6-4.7 14.3s-8.5 4-16.1 4h-31.6q-20.7 0-29.4-7.8c-5.8-5.2-8.6-12.6-8.6-22.3v-4.3c0-10.7 3.2-18.5 9.5-23.4s16.2-7.3 29.7-7.3a73 73 0 0 1 16.8 1.6 32.8 32.8 0 0 1 10 3.8V81a28.5 28.5 0 0 0-1.1-8.7 10.9 10.9 0 0 0-3.6-5.5 14.5 14.5 0 0 0-6.9-2.8 67 67 0 0 0-11-.8h-8.1l-9 .1-9 .2-8.2.1 4.1-20.4 13.6-.3 17.8-.1c15.8 0 27.3 2.8 34.7 8.3s11.1 14.3 11.1 26.2Zm-24.5 0v-15.7a23.2 23.2 0 0 0-.7-5.9 7.6 7.6 0 0 0-2.8-4 14.5 14.5 0 0 0-6-2.2 70.4 70.4 0 0 0-10.3-.7h-2.9c-7.4 0-12.3.9-14.9 2.7s-3.9 5.1-3.9 9.9v3.7c0 4.1 1.2 7.2 3.6 9.2s6.8 3 13.3 3Zm94.3 18.3h-15.7a104.3 104.3 0 0 1-20.1-1.7 25.9 25.9 0 0 1-12.4-6.1 23.2 23.2 0 0 1-6.3-11.7 81.5 81.5 0 0 1-1.8-18.4V19.8l25.2-4.1v27.6h36.3l-4.1 20.8h-32.2v40.7a50 50 0 0 0 .7 9.5 11.8 11.8 0 0 0 2.5 5.7 9.4 9.4 0 0 0 5.2 2.7 49.9 49.9 0 0 0 8.6.7h18Zm60-80.9a56.2 56.2 0 0 0-11.6.9 13 13 0 0 0-7.1 3.5 14.5 14.5 0 0 0-3.6 7.7 73.4 73.4 0 0 0-1 13.2v10.5a65.4 65.4 0 0 0 1.1 13.2 15 15 0 0 0 3.7 7.7 13.2 13.2 0 0 0 7.2 3.5 70.8 70.8 0 0 0 11.3.9l14.4-.1 14-.3-4.1 20.4-13.2.3-11.6.1q-13.7 0-22.8-2.4a32.7 32.7 0 0 1-14.9-7.9 29.6 29.6 0 0 1-8.2-14.1 75.9 75.9 0 0 1-2.4-21.2V88.5a79.1 79.1 0 0 1 2.5-21.1 31.3 31.3 0 0 1 8.2-14.2 34.2 34.2 0 0 1 14.9-7.9 86 86 0 0 1 22.6-2.4q10.7 0 28.5.6l-4.1 20.4c-5.4-.3-10.2-.4-14.3-.5l-9.5-.1Zm39.8 80.9V0h25.2v48.1a30.1 30.1 0 0 1 9.7-5.5q6.5-2.4 18-2.4c12 0 21.5 2.6 28.6 7.7s10.6 13.7 10.6 25.7v70.6h-25.2V78.6a51.2 51.2 0 0 0-.6-7.8 10.1 10.1 0 0 0-2.6-5.5 12.4 12.4 0 0 0-5.9-3.3 41.2 41.2 0 0 0-10.5-1.1 42 42 0 0 0-11.1 1.2 13.7 13.7 0 0 0-6.7 3.8 15.3 15.3 0 0 0-3.4 7 53.6 53.6 0 0 0-1 10.6v60.7Zm-832.1-33.4H89.4l-17.7 33.4H39.1L116.7 6.1h35.1l22.5 138.1h-31.8Zm-36.3-25h33.6L129 35Zm124.7 58.8c-8.7 0-15.9-.8-21.7-2.5a34.6 34.6 0 0 1-14.1-7.3 27.8 27.8 0 0 1-7.7-11.4 44.8 44.8 0 0 1-2.3-15 86.9 86.9 0 0 1 1.8-17.6 80.6 80.6 0 0 1 8.2-24.5 42.4 42.4 0 0 1 13.2-14.7 46.8 46.8 0 0 1 17.6-7.2 115 115 0 0 1 21.9-1.9h5.1l6.3.1 6.8.2 6.6.1-9.1 24.2-8.4-.3-9.6-.1a57.7 57.7 0 0 0-11 1 17.6 17.6 0 0 0-7.8 3.7 21 21 0 0 0-5.3 7.5 53.8 53.8 0 0 0-3.5 12.3l-1.5 8.1a44.6 44.6 0 0 0-.5 6.3c0 6.1 1.6 10.1 4.7 12s8.1 2.9 14.9 2.9h11.4c3.8 0 8.5-.1 14.1-.4l-9.3 24.2-10.7.3h-10.1ZM307 66.9l-7.2 37.2a29.8 29.8 0 0 0-.8 6.6c0 3.1.9 5.4 2.6 7s4.8 2.3 9.2 2.3h10.6l5.8-.1 3.6-.1-9.3 24.2h-3.4l-5.8.1-6.5.1h-5.2c-11.5 0-19.9-2.5-25.1-7.6s-7.9-12.1-7.9-21.1a37.7 37.7 0 0 1 .4-5.8l1-6.4 16.5-85 31.6-3.7-5.4 27.9h31l-9.3 24.2Zm48.2-24.2h30.9l-19.8 101.5h-30.9ZM377 0c5 0 8.9.9 11.5 2.6s4 4.7 4 8.8c0 6.8-1.7 11.6-5.2 14.2s-8.4 3.9-14.8 3.9c-10.4 0-15.5-3.8-15.5-11.4a21.6 21.6 0 0 1 1.5-8.7 12.7 12.7 0 0 1 4.2-5.5A16.5 16.5 0 0 1 369 1a30.3 30.3 0 0 1 8-1Zm57.4 113.9 33.5-71.2h31.8l-53.3 101.5h-35.1L396.2 42.7H428Zm83.2-8.5v3.1c.1 4.8 1.6 8.3 4.4 10.5s7.5 3.3 14.2 3.3l18.6-.2c5.3-.1 10.9-.4 16.7-.8l-8.7 22.3c-4 .4-8.8.6-14.5.8l-17.9.2q-12 0-20.1-2.7a32.1 32.1 0 0 1-12.8-7.6 27.5 27.5 0 0 1-6.8-11.5 47.5 47.5 0 0 1-2-14.5 87.3 87.3 0 0 1 1.7-16.9 85.7 85.7 0 0 1 8.5-26.2A50 50 0 0 1 512 49.4a42.9 42.9 0 0 1 16.4-7.8 83.4 83.4 0 0 1 18.6-2c13.2 0 23 2.5 29.4 7.4s9.6 12 9.6 21.1a88 88 0 0 1-.5 5.1 53.4 53.4 0 0 1-.9 5.3c-2.2 9.8-7 16.7-14.5 20.8-7.4 4-18.2 6-32.3 6Zm27.2-43.9c-6.6 0-11.6 1.7-14.9 5a36.5 36.5 0 0 0-8.1 17.6h16.9a70.3 70.3 0 0 0 8-.4 18 18 0 0 0 5.3-1.4 9.6 9.6 0 0 0 3.3-2.7 13.3 13.3 0 0 0 1.9-4.2 16.9 16.9 0 0 0 .8-5 7.8 7.8 0 0 0-2.9-6.4c-2-1.7-5.4-2.5-10.3-2.5Z"/>
  <path fill="#b2b2b2" d="M801 202.4a23.7 23.7 0 0 1-.6 5.7 9 9 0 0 1-2.1 4 8.3 8.3 0 0 1-4 2.3 22 22 0 0 1-6.2.7 23.7 23.7 0 0 1-5.7-.6 8.2 8.2 0 0 1-3.9-2.1 8.3 8.3 0 0 1-2.2-3.9 20.6 20.6 0 0 1-.7-6v-26.4h6.7v12.5a10.5 10.5 0 0 1 2.8-1.4 13.4 13.4 0 0 1 4.3-.5 17.3 17.3 0 0 1 5.4.7 8.3 8.3 0 0 1 3.6 2.3 9.4 9.4 0 0 1 2 4 23.7 23.7 0 0 1 .6 5.7v3Zm-12.7-10.3a13.5 13.5 0 0 0-3.1.3 3.9 3.9 0 0 0-1.9 1 3.1 3.1 0 0 0-.9 2 13.9 13.9 0 0 0-.3 3.2v3.9a19.4 19.4 0 0 0 .3 3.8 5 5 0 0 0 .9 2.2 2.7 2.7 0 0 0 1.8 1 12.6 12.6 0 0 0 3 .3 22 22 0 0 0 2.9-.2 2.7 2.7 0 0 0 1.8-1 4.1 4.1 0 0 0 1-2.2 19.9 19.9 0 0 0 .3-3.9v-2.9a20.6 20.6 0 0 0-.3-3.9 4.5 4.5 0 0 0-1-2.3 3.3 3.3 0 0 0-1.8-1.1 17.6 17.6 0 0 0-2.7-.2Zm19.5 25.9 2.6.1h5.9a13.2 13.2 0 0 0 3-.3 4.2 4.2 0 0 0 2-1 4 4 0 0 0 1.1-1.9 13 13 0 0 0 .3-3.1v-.5a10.5 10.5 0 0 1-1.1.8 6 6 0 0 1-1.4.6 8.8 8.8 0 0 1-2 .4 22 22 0 0 1-2.9.2c-3.3 0-5.9-.7-7.6-2s-2.6-3.6-2.6-6.8v-17h6.7v15.6a13.4 13.4 0 0 0 .1 2.1 3.4 3.4 0 0 0 .6 1.5 2.7 2.7 0 0 0 1.5.9 10 10 0 0 0 2.7.3 12.6 12.6 0 0 0 3-.3 3.8 3.8 0 0 0 1.8-.9 2.7 2.7 0 0 0 .8-1.6 9 9 0 0 0 .2-2.5v-15.2h6.7v24.2a16.6 16.6 0 0 1-.7 5.3 8.1 8.1 0 0 1-2.2 3.6 8.9 8.9 0 0 1-4 2 25 25 0 0 1-5.9.6h-6.7l-3.2-.1Zm53.9-17.2h-7.1v13.5h-6.8v-36.6H862c4.6 0 7.9.8 10 2.5s3.2 4.4 3.2 8.2v1.5a10.8 10.8 0 0 1-1.7 6.4 9.7 9.7 0 0 1-5.2 3.4l8.6 14.4h-7.6Zm6.6-11.7a10.4 10.4 0 0 0-.3-2.8 3.4 3.4 0 0 0-1.1-1.7 4 4 0 0 0-2-.8 25.4 25.4 0 0 0-3.1-.2h-7.2v11.5h7.2a25.4 25.4 0 0 0 3.1-.2 5.2 5.2 0 0 0 2-.8 3.4 3.4 0 0 0 1.1-1.7 10.9 10.9 0 0 0 .3-2.8Zm17.1 14.1a23.6 23.6 0 0 0 .2 3 3 3 0 0 0 .8 1.8 3 3 0 0 0 1.8.9 12 12 0 0 0 3 .3h4.1l5.7-.1-1 5.1-2.6.1h-6.6a20.3 20.3 0 0 1-6-.8 7.5 7.5 0 0 1-3.7-2.4 9 9 0 0 1-1.9-3.8 20 20 0 0 1-.5-5.1v-2.7a21.2 21.2 0 0 1 .6-5.4 8.9 8.9 0 0 1 2-4 7.8 7.8 0 0 1 3.8-2.4 20.3 20.3 0 0 1 6-.8 17.8 17.8 0 0 1 5.6.7 9 9 0 0 1 3.6 2.1 7.4 7.4 0 0 1 1.9 3.2 12.4 12.4 0 0 1 .6 4v.9a22 22 0 0 1-.2 2.9 3.8 3.8 0 0 1-.7 1.7 2 2 0 0 1-1.3.8 9.2 9.2 0 0 1-1.9.2h-13.3v-.2Zm5.6-11.4a10.4 10.4 0 0 0-2.8.3 3.2 3.2 0 0 0-1.7 1 4 4 0 0 0-.8 2 25.8 25.8 0 0 0-.2 3.2h11v-1.2a9 9 0 0 0-.3-2.5 3.5 3.5 0 0 0-.9-1.6 4 4 0 0 0-1.7-.9 9.8 9.8 0 0 0-2.6-.3Zm28 22.5a20.6 20.6 0 0 1-6-.7 7.5 7.5 0 0 1-3.8-2.2 9.1 9.1 0 0 1-2.1-3.9 25 25 0 0 1-.6-5.9v-2.1a23.7 23.7 0 0 1 .6-5.7 10 10 0 0 1 2-4 7.5 7.5 0 0 1 3.6-2.3 18 18 0 0 1 5.5-.7 16.2 16.2 0 0 1 4 .5 6.6 6.6 0 0 1 2.8 1.3v-12.4h6.7v33.3a4.8 4.8 0 0 1-1.2 3.7c-.8.7-2.2 1.1-4.3 1.1Zm6.1-5.3v-10.9a12.6 12.6 0 0 0-.3-3 3.2 3.2 0 0 0-1-1.8 5 5 0 0 0-1.8-.9 12 12 0 0 0-3-.3 12.6 12.6 0 0 0-3 .3 3 3 0 0 0-1.8 1.1 4.4 4.4 0 0 0-.8 2.2 33.6 33.6 0 0 0-.2 3.6v2.2a34.7 34.7 0 0 0 .2 3.8 4.8 4.8 0 0 0 .9 2.3 3.3 3.3 0 0 0 1.8 1.1 12.6 12.6 0 0 0 3 .3Zm37.4-1.6 4.9-19.8h6.4l-7.9 26.7h-6.7l-4.7-18.6-4.7 18.6H943l-7.8-26.7h6.7l4.6 19.7 5.1-19.7h6.1Zm26-20.6a25.5 25.5 0 0 1 5.9.6 9 9 0 0 1 4 2.1 8.3 8.3 0 0 1 2.2 3.9 21.6 21.6 0 0 1 .7 6.2v2.8a22 22 0 0 1-.7 6.2 8.7 8.7 0 0 1-2.2 3.9 9 9 0 0 1-4 2.1 29.3 29.3 0 0 1-11.8 0 9 9 0 0 1-4-2.1 7.6 7.6 0 0 1-2.2-3.9 21.6 21.6 0 0 1-.7-6.2v-2.8a22 22 0 0 1 .7-6.2 8.7 8.7 0 0 1 2.2-3.9 8 8 0 0 1 4-2.1 25.5 25.5 0 0 1 5.9-.6Zm6 12.7a18.7 18.7 0 0 0-.3-3.8 5 5 0 0 0-.9-2.2 2.7 2.7 0 0 0-1.8-1 21.6 21.6 0 0 0-3-.3 12.6 12.6 0 0 0-3 .3 3.2 3.2 0 0 0-1.8 1 5.6 5.6 0 0 0-.9 2.2 20.2 20.2 0 0 0-.3 3.8v3a19.4 19.4 0 0 0 .3 3.8 5 5 0 0 0 .9 2.2 2.7 2.7 0 0 0 1.8 1 15.2 15.2 0 0 0 6 0 3.2 3.2 0 0 0 1.8-1 5 5 0 0 0 .9-2.2 19.4 19.4 0 0 0 .3-3.8Zm23.5-12.7a25.5 25.5 0 0 1 5.9.6 9 9 0 0 1 4 2.1 8.3 8.3 0 0 1 2.2 3.9 21.6 21.6 0 0 1 .7 6.2v2.8a22 22 0 0 1-.7 6.2 8.7 8.7 0 0 1-2.2 3.9 9 9 0 0 1-4 2.1 29.3 29.3 0 0 1-11.8 0 9 9 0 0 1-4-2.1 8.3 8.3 0 0 1-2.2-3.9 21.6 21.6 0 0 1-.7-6.2v-2.8a22 22 0 0 1 .7-6.2 8.7 8.7 0 0 1 2.2-3.9 8 8 0 0 1 4-2.1 25 25 0 0 1 5.9-.6Zm6 12.7a18.7 18.7 0 0 0-.3-3.8 5 5 0 0 0-.9-2.2 2.7 2.7 0 0 0-1.8-1 21.6 21.6 0 0 0-3-.3 12.6 12.6 0 0 0-3 .3 3.2 3.2 0 0 0-1.8 1 5.6 5.6 0 0 0-.9 2.2 20.2 20.2 0 0 0-.3 3.8v3a19.4 19.4 0 0 0 .3 3.8 5 5 0 0 0 .9 2.2 2.7 2.7 0 0 0 1.8 1 15.2 15.2 0 0 0 6 0 3.2 3.2 0 0 0 1.8-1 5 5 0 0 0 .9-2.2 19.4 19.4 0 0 0 .3-3.8Zm22.8 14.8a20.6 20.6 0 0 1-6-.7 7.5 7.5 0 0 1-3.8-2.2 10.4 10.4 0 0 1-2.1-3.9 25 25 0 0 1-.6-5.9v-2.1a23.7 23.7 0 0 1 .6-5.7 10 10 0 0 1 2-4 7.5 7.5 0 0 1 3.6-2.3 18 18 0 0 1 5.5-.7 16.2 16.2 0 0 1 4 .5 6.6 6.6 0 0 1 2.8 1.3v-12.4h6.7v33.3a4.8 4.8 0 0 1-1.2 3.7c-.8.7-2.2 1.1-4.3 1.1Zm6.1-5.3v-10.9a12.6 12.6 0 0 0-.3-3 3.2 3.2 0 0 0-1-1.8 5 5 0 0 0-1.8-.9 15.2 15.2 0 0 0-6 0 3 3 0 0 0-1.8 1.1 4.4 4.4 0 0 0-.8 2.2 33.6 33.6 0 0 0-.2 3.6v2.2a34.7 34.7 0 0 0 .2 3.8 4.8 4.8 0 0 0 .9 2.3 3.3 3.3 0 0 0 1.8 1.1 12.6 12.6 0 0 0 3 .3Z"/>
</svg>